<svg width="37" height="44" viewBox="0 0 37 44" fill="none" xmlns="http://www.w3.org/2000/svg">
<path d="M8.9225 10.3173L7.74417 11.5041L9.41083 13.1827C9.57333 13.3463 9.78667 13.4286 10 13.4286C10.2133 13.4286 10.4267 13.3463 10.5892 13.1827L14.7558 8.98623L13.5775 7.79948L10 11.4025L8.9225 10.3173Z" fill="black"/>
<path d="M13.3333 15.1071H6.66667V8.39286H11.6667V6.71429H5.83333C5.37333 6.71429 5 7.08945 5 7.55357V15.9464C5 16.4106 5.37333 16.7857 5.83333 16.7857H14.1667C14.6267 16.7857 15 16.4106 15 15.9464V11.75H13.3333V15.1071Z" fill="black"/>
<path d="M8.9225 22.0673L7.74417 23.2541L9.41083 24.9327C9.57333 25.0963 9.78667 25.1786 10 25.1786C10.2133 25.1786 10.4267 25.0963 10.5892 24.9327L14.7558 20.7362L13.5775 19.5495L10 23.1525L8.9225 22.0673Z" fill="black"/>
<path d="M13.3333 26.8571H6.66667V20.1429H11.6667V18.4643H5.83333C5.37333 18.4643 5 18.8394 5 19.3036V27.6964C5 28.1606 5.37333 28.5357 5.83333 28.5357H14.1667C14.6267 28.5357 15 28.1606 15 27.6964V23.5H13.3333V26.8571Z" fill="black"/>
<path d="M8.9225 33.8173L7.74417 35.0041L9.41083 36.6827C9.57333 36.8463 9.78667 36.9286 10 36.9286C10.2133 36.9286 10.4267 36.8463 10.5892 36.6827L14.7558 32.4862L13.5775 31.2995L10 34.9025L8.9225 33.8173Z" fill="black"/>
<path d="M13.3333 38.6071H6.66667V31.8929H11.6667V30.2143H5.83333C5.37333 30.2143 5 30.5894 5 31.0536V39.4464C5 39.9106 5.37333 40.2857 5.83333 40.2857H14.1667C14.6267 40.2857 15 39.9106 15 39.4464V35.25H13.3333V38.6071Z" fill="black"/>
<path d="M28.3333 7.55357H16.6667V9.23214H28.3333V7.55357Z" fill="black"/>
<path d="M28.3333 10.9107H16.6667V12.5893H28.3333V10.9107Z" fill="black"/>
<path d="M28.3333 14.2679H16.6667V15.9464H28.3333V14.2679Z" fill="black"/>
<path d="M28.3333 19.3036H16.6667V20.9821H28.3333V19.3036Z" fill="black"/>
<path d="M28.3333 22.6607H16.6667V24.3393H28.3333V22.6607Z" fill="black"/>
<path d="M28.3333 26.0179H16.6667V27.6964H28.3333V26.0179Z" fill="black"/>
<path d="M28.3333 31.0536H16.6667V32.7321H28.3333V31.0536Z" fill="black"/>
<path d="M28.3333 34.4107H16.6667V36.0893H28.3333V34.4107Z" fill="black"/>
<path d="M28.3333 37.7679H16.6667V39.4464H28.3333V37.7679Z" fill="black"/>
<path fill-rule="evenodd" clip-rule="evenodd" d="M6.74333 0.0772142C5.05333 0.391946 3.7225 1.73229 3.41 3.43436C1.47333 3.79441 0 5.50068 0 7.55357V39.4464C0 41.7603 1.86917 43.6429 4.16667 43.6429H29.1667C31.205 43.6429 32.8992 42.159 33.2567 40.2085C34.9467 39.8938 36.2775 38.5534 36.59 36.8514L36.6667 35.0956V4.19643C36.6667 1.88252 34.7975 0 32.5 0H8.48667L6.74333 0.0772142ZM29.1667 41.9643C30.545 41.9643 31.6667 40.8346 31.6667 39.4464V7.55357C31.6667 6.16539 30.545 5.03571 29.1667 5.03571H4.16667C2.78833 5.03571 1.66667 6.16539 1.66667 7.55357V39.4464C1.66667 40.8346 2.78833 41.9643 4.16667 41.9643H29.1667ZM33.3333 38.4527C34.3008 38.1053 35 37.182 35 36.0893V4.19643C35 2.80825 33.8783 1.67857 32.5 1.67857H7.5C6.415 1.67857 5.49833 2.38273 5.15333 3.35714H29.1667C31.4642 3.35714 33.3333 5.23966 33.3333 7.55357V38.4527Z" fill="black"/>
<path fill-rule="evenodd" clip-rule="evenodd" d="M8.9225 10.3173L7.74417 11.5041L9.41083 13.1827C9.57333 13.3463 9.78667 13.4286 10 13.4286C10.2133 13.4286 10.4267 13.3463 10.5892 13.1827L14.7558 8.98623L13.5775 7.79948L10 11.4025L8.9225 10.3173ZM13.3333 15.1071H6.66667V8.39286H11.6667V6.71429H5.83333C5.37333 6.71429 5 7.08945 5 7.55357V15.9464C5 16.4106 5.37333 16.7857 5.83333 16.7857H14.1667C14.6267 16.7857 15 16.4106 15 15.9464V11.75H13.3333V15.1071ZM8.9225 22.0673L7.74417 23.2541L9.41083 24.9327C9.57333 25.0963 9.78667 25.1786 10 25.1786C10.2133 25.1786 10.4267 25.0963 10.5892 24.9327L14.7558 20.7362L13.5775 19.5495L10 23.1525L8.9225 22.0673ZM13.3333 26.8571H6.66667V20.1429H11.6667V18.4643H5.83333C5.37333 18.4643 5 18.8394 5 19.3036V27.6964C5 28.1606 5.37333 28.5357 5.83333 28.5357H14.1667C14.6267 28.5357 15 28.1606 15 27.6964V23.5H13.3333V26.8571ZM8.9225 33.8173L7.74417 35.0041L9.41083 36.6827C9.57333 36.8463 9.78667 36.9286 10 36.9286C10.2133 36.9286 10.4267 36.8463 10.5892 36.6827L14.7558 32.4862L13.5775 31.2995L10 34.9025L8.9225 33.8173ZM13.3333 38.6071H6.66667V31.8929H11.6667V30.2143H5.83333C5.37333 30.2143 5 30.5894 5 31.0536V39.4464C5 39.9106 5.37333 40.2857 5.83333 40.2857H14.1667C14.6267 40.2857 15 39.9106 15 39.4464V35.25H13.3333V38.6071ZM16.6667 7.55357H28.3333V9.23214H16.6667V7.55357ZM16.6667 10.9107H28.3333V12.5893H16.6667V10.9107ZM16.6667 14.2679H28.3333V15.9464H16.6667V14.2679ZM16.6667 19.3036H28.3333V20.9821H16.6667V19.3036ZM16.6667 22.6607H28.3333V24.3393H16.6667V22.6607ZM16.6667 26.0179H28.3333V27.6964H16.6667V26.0179ZM16.6667 31.0536H28.3333V32.7321H16.6667V31.0536ZM16.6667 34.4107H28.3333V36.0893H16.6667V34.4107ZM16.6667 37.7679H28.3333V39.4464H16.6667V37.7679Z" fill="black"/>
</svg>
