<svg width="94" height="94" viewBox="0 0 94 94" fill="none" xmlns="http://www.w3.org/2000/svg">
<path d="M50.1333 72.0667H87.7333V75.2C87.7333 76.9304 86.3304 78.3333 84.6 78.3333H50.1333V81.4667H53.7478L57.2728 90.8667H29.7667V94H64.2333V90.8667H60.6188L57.0938 81.4667H84.6C88.0607 81.4667 90.8667 78.6607 90.8667 75.2V28.2H87.7333V68.9333H50.1333V72.0667Z" fill="#006298"/>
<path d="M81.4667 28.2H84.6V65.8H81.4667V28.2Z" fill="#006298"/>
<path d="M56.4 3.13333H15.6667C12.2059 3.13333 9.4 5.93926 9.4 9.4V15.6667C5.93926 15.6667 3.13333 18.4726 3.13333 21.9333V59.5333H6.26667V21.9333C6.26667 20.203 7.66963 18.8 9.4 18.8V59.5333H12.5333V9.4C12.5333 7.66963 13.9363 6.26667 15.6667 6.26667H56.4V3.13333Z" fill="#006298"/>
<path d="M15.6667 9.4H18.8V12.5333H15.6667V9.4Z" fill="#006298"/>
<path d="M21.9333 9.4H25.0667V12.5333H21.9333V9.4Z" fill="#006298"/>
<path d="M28.2 9.4H31.3333V12.5333H28.2V9.4Z" fill="#006298"/>
<path d="M15.6667 15.6667H56.4V18.8H15.6667V15.6667Z" fill="#006298"/>
<path d="M53.2667 50.1333H56.4V65.8H53.2667V50.1333Z" fill="#006298"/>
<path d="M15.6667 23.5V56.4H18.8V25.0667H32.9V21.9333H17.2333C16.3681 21.9333 15.6667 22.6348 15.6667 23.5Z" fill="#006298"/>
<path d="M78.3333 64.2333V31.3333H75.2V62.6667H65.8V65.8H76.7667C77.6319 65.8 78.3333 65.0985 78.3333 64.2333Z" fill="#006298"/>
<path d="M86.1667 0H67.3667C63.0423 0.00535483 59.5387 3.50894 59.5333 7.83333V17.2333C59.5356 21.4499 62.8709 24.9098 67.0844 25.0667L65.8222 32.646C65.7189 33.2771 66.0088 33.9067 66.5558 34.2387C67.102 34.5699 67.7951 34.5363 68.3068 34.153L80.4217 25.0667H86.1667C90.4911 25.0613 93.9947 21.5577 94 17.2333V7.83333C93.9947 3.50894 90.4911 0.00535483 86.1667 0ZM90.8667 17.2333C90.8667 19.8289 88.7622 21.9333 86.1667 21.9333H79.9C79.5611 21.9333 79.2314 22.0435 78.9598 22.247L69.5599 29.297L70.4847 23.754C70.5589 23.2988 70.4296 22.8345 70.1313 22.4841C69.8322 22.133 69.3939 21.9318 68.9333 21.9333H67.3667C64.7711 21.9333 62.6667 19.8289 62.6667 17.2333V7.83333C62.6667 5.23778 64.7711 3.13333 67.3667 3.13333H86.1667C88.7622 3.13333 90.8667 5.23778 90.8667 7.83333V17.2333Z" fill="#006298"/>
<path d="M65.8 7.83333H72.0667V10.9667H65.8V7.83333Z" fill="#006298"/>
<path d="M75.2 7.83333H87.7333V10.9667H75.2V7.83333Z" fill="#006298"/>
<path d="M65.8 14.1H87.7333V17.2333H65.8V14.1Z" fill="#006298"/>
<path d="M7.83333 87.7333H39.1667C43.4911 87.728 46.9946 84.2244 47 79.9V70.5C46.9954 66.7792 44.3784 63.5732 40.7333 62.8235V50.1333H37.6V62.6667H34.4667V48.5667C34.4667 45.9711 36.5711 43.8667 39.1667 43.8667H54.8333C57.4289 43.8667 59.5333 45.9711 59.5333 48.5667V65.8H62.6667V48.5667C62.6613 44.2423 59.1577 40.7387 54.8333 40.7333H53.2261C54.2627 39.3855 54.8272 37.7339 54.8333 36.0333V29.7667C54.828 25.4423 51.3244 21.9387 47 21.9333H37.6C36.7348 21.9333 36.0333 22.6348 36.0333 23.5C36.0402 25.9525 37.2015 28.2589 39.1667 29.7261V36.0333C39.1728 37.7339 39.7373 39.3855 40.7739 40.7333H39.1667C34.8423 40.7387 31.3387 44.2423 31.3333 48.5667V62.6667H26.9171L28.1702 55.0919C28.2727 54.4631 27.9835 53.835 27.4404 53.503C26.8965 53.171 26.2057 53.2016 25.6932 53.5803L13.5783 62.6667H7.83333C3.50894 62.672 0.00535483 66.1756 0 70.5V79.9C0.00535483 84.2244 3.50894 87.728 7.83333 87.7333ZM47 25.0667C48.9912 25.069 50.766 26.3235 51.4323 28.2H43.8667C43.4727 28.2 43.0795 28.1472 42.6993 28.0432L42.6557 28.0325C42.2587 27.9193 41.8777 27.7571 41.5213 27.5482C41.4975 27.536 41.4731 27.5314 41.4494 27.5184C40.5146 26.9584 39.8031 26.0917 39.4344 25.0667H47ZM42.3 36.0333V31.1765C42.8156 31.2813 43.3404 31.3341 43.8667 31.3333H51.7V36.0333C51.7 38.6289 49.5956 40.7333 47 40.7333C44.4044 40.7333 42.3 38.6289 42.3 36.0333ZM3.13333 70.5C3.13333 67.9044 5.23778 65.8 7.83333 65.8H14.1C14.4389 65.8 14.7686 65.6898 15.0402 65.4864L24.4402 58.4364L23.5153 63.9794C23.4411 64.4345 23.5704 64.8989 23.8687 65.2492C24.1678 65.6003 24.6062 65.8015 25.0667 65.8H39.1667C41.7622 65.8 43.8667 67.9044 43.8667 70.5V79.9C43.8667 82.4956 41.7622 84.6 39.1667 84.6H7.83333C5.23778 84.6 3.13333 82.4956 3.13333 79.9V70.5Z" fill="#006298"/>
<path d="M7.83333 70.5H28.2V73.6333H7.83333V70.5Z" fill="#006298"/>
<path d="M31.3333 70.5H39.1667V73.6333H31.3333V70.5Z" fill="#006298"/>
<path d="M7.83333 76.7667H39.1667V79.9H7.83333V76.7667Z" fill="#006298"/>
</svg>
