<svg width="94" height="94" viewBox="0 0 94 94" fill="none" xmlns="http://www.w3.org/2000/svg">
<path d="M72.0667 94V1.56667C72.0667 0.701481 71.3652 0 70.5 0H57.9667V3.13333H68.9333V94H72.0667Z" fill="#006298"/>
<path d="M1.56667 94H64.2333C65.0985 94 65.8 93.2985 65.8 92.4333V15.6667C65.8 15.6338 65.7824 15.6039 65.7809 15.571C65.7725 15.4326 65.7449 15.2957 65.6998 15.1641C65.6822 15.1136 65.67 15.0669 65.6478 15.018C65.572 14.8474 65.4657 14.6921 65.3349 14.559L51.2349 0.458984C51.1018 0.327409 50.9465 0.221842 50.7759 0.145345C50.727 0.123926 50.6788 0.110921 50.6283 0.0940918C50.499 0.0497233 50.3651 0.0229493 50.229 0.0137695C50.2007 0.0175944 50.1693 0 50.1333 0H1.56667C0.701481 0 0 0.701481 0 1.56667V92.4333C0 93.2985 0.701481 94 1.56667 94ZM60.4513 14.1H51.7V5.3487L60.4513 14.1ZM3.13333 3.13333H48.5667V15.6667C48.5667 16.5319 49.2682 17.2333 50.1333 17.2333H62.6667V90.8667H3.13333V3.13333Z" fill="#006298"/>
<path d="M89.3 17.2333H87.7333C87.7333 13.7726 84.9274 10.9667 81.4667 10.9667C78.0059 10.9667 75.2 13.7726 75.2 17.2333V72.0667C75.2 72.0873 75.2107 72.1042 75.2107 72.1248C75.2176 72.2893 75.2505 72.4515 75.3079 72.606C75.3224 72.6404 75.33 72.6748 75.3438 72.7092C75.3584 72.7437 75.3553 72.7483 75.3645 72.7666L80.0645 82.1666C80.3292 82.699 80.8723 83.0349 81.4667 83.0349C82.0611 83.0349 82.6042 82.699 82.8689 82.1666L87.5689 72.7666C87.578 72.7483 87.5796 72.7276 87.5895 72.7092C87.5987 72.6901 87.6109 72.6404 87.6255 72.606C87.6828 72.4507 87.7157 72.2878 87.7226 72.1233C87.7226 72.1042 87.7333 72.0873 87.7333 72.0667V20.3667H89.3C90.1652 20.3667 90.8667 21.0681 90.8667 21.9333V42.3H94V21.9333C94 19.3378 91.8956 17.2333 89.3 17.2333ZM81.4667 14.1C83.197 14.1 84.6 15.503 84.6 17.2333H78.3333C78.3333 15.503 79.7363 14.1 81.4667 14.1ZM78.3333 50.1333H84.6V70.5H78.3333V50.1333ZM84.6 47H78.3333V43.8667H84.6V47ZM81.4667 77.9639L79.3018 73.6333H83.6315L81.4667 77.9639ZM84.6 40.7333H78.3333V20.3667H84.6V40.7333Z" fill="#006298"/>
<path d="M23.7823 21.0108C23.5979 22.4757 24.102 23.9445 25.1462 24.9879C26.1904 26.0321 27.6592 26.5354 29.1241 26.3511C30.0298 27.5176 31.4236 28.2 32.9 28.2C34.3764 28.2 35.7702 27.5176 36.6759 26.3511C38.1408 26.5354 39.6096 26.0321 40.6538 24.9879C41.698 23.9445 42.2021 22.4757 42.0177 21.0108C43.1843 20.1043 43.8667 18.7105 43.8667 17.2333C43.8667 15.7562 43.1843 14.3624 42.0177 13.4559C42.2021 11.991 41.698 10.5222 40.6538 9.47879C39.6096 8.4346 38.1408 7.93125 36.6759 8.11561C35.7702 6.94902 34.3764 6.26667 32.9 6.26667C31.4236 6.26667 30.0298 6.94902 29.1241 8.11561C27.6592 7.93125 26.1904 8.4346 25.1462 9.47879C24.102 10.5222 23.5979 11.991 23.7823 13.4559C22.6157 14.3624 21.9333 15.7562 21.9333 17.2333C21.9333 18.7105 22.6157 20.1043 23.7823 21.0108ZM26.1506 15.6965C26.5691 15.5481 26.9049 15.2299 27.0747 14.8198C27.2445 14.4098 27.2331 13.9478 27.0426 13.5469C26.7458 12.9242 26.8735 12.1822 27.3616 11.6949C27.8489 11.2069 28.5909 11.0791 29.2136 11.3759C29.6144 11.5664 30.0772 11.5786 30.4873 11.4088C30.8981 11.239 31.2163 10.9024 31.3647 10.484C31.5957 9.83451 32.2108 9.4 32.9 9.4C33.5892 9.4 34.2043 9.83451 34.4353 10.484C34.5837 10.9024 34.9019 11.239 35.3127 11.4088C35.7228 11.5786 36.1856 11.5664 36.5864 11.3759C37.2091 11.0791 37.9511 11.2069 38.4384 11.6949C38.9265 12.1822 39.0542 12.9242 38.7574 13.5469C38.5669 13.9478 38.5555 14.4098 38.7253 14.8198C38.8951 15.2299 39.2309 15.5481 39.6494 15.6965C40.2996 15.9275 40.7341 16.5433 40.7341 17.2333C40.7341 17.9233 40.2996 18.5391 39.6494 18.7702C39.2309 18.9186 38.8951 19.2368 38.7253 19.6468C38.5555 20.0569 38.5669 20.5189 38.7574 20.9197C39.0542 21.5424 38.9265 22.2845 38.4384 22.7717C37.9511 23.2598 37.2091 23.3876 36.5864 23.0907C36.1848 22.9026 35.7228 22.8911 35.3127 23.0601C34.9027 23.2292 34.5837 23.5643 34.4353 23.9827C34.2043 24.6322 33.5892 25.0667 32.9 25.0667C32.2108 25.0667 31.5957 24.6322 31.3647 23.9827C31.1421 23.3577 30.5508 22.94 29.8875 22.9408C29.6542 22.9431 29.424 22.9959 29.2136 23.0976C28.5909 23.3937 27.8489 23.2659 27.3616 22.7786C26.8735 22.2906 26.7458 21.5486 27.0426 20.9259C27.2331 20.525 27.2445 20.063 27.0747 19.6529C26.9049 19.2429 26.5691 18.9247 26.1506 18.7763C25.5004 18.5453 25.0659 17.9302 25.0659 17.2395C25.0659 16.5494 25.5004 15.9336 26.1506 15.7026V15.6965Z" fill="#006298"/>
<path d="M17.4667 39.9905C17.7528 40.4526 18.2569 40.7333 18.8 40.7333H47C47.5447 40.7364 48.0511 40.4564 48.3387 39.9944C48.6263 39.5316 48.6531 38.9532 48.4098 38.4667L47.1851 36.0333L48.4022 33.6C48.6447 33.1142 48.6187 32.5374 48.3334 32.0761C48.0473 31.6141 47.5431 31.3333 47 31.3333H18.8C18.2569 31.3333 17.7528 31.6141 17.4667 32.0761C17.1813 32.5374 17.1553 33.1142 17.3978 33.6L18.6149 36.0333L17.3978 38.4667C17.1553 38.9525 17.1813 39.5293 17.4667 39.9905ZM21.7765 35.3334L21.3351 34.4667H44.4649L44.0311 35.3334C43.8108 35.774 43.8108 36.2927 44.0311 36.7333L44.4649 37.6H21.3351L21.7689 36.7333C21.9915 36.2942 21.9945 35.7748 21.7765 35.3334Z" fill="#006298"/>
<path d="M7.83333 56.4H17.2333V59.5333H7.83333V56.4Z" fill="#006298"/>
<path d="M20.3667 56.4H57.9667V59.5333H20.3667V56.4Z" fill="#006298"/>
<path d="M48.5667 43.8667H57.9667V47H48.5667V43.8667Z" fill="#006298"/>
<path d="M7.83333 43.8667H45.4333V47H7.83333V43.8667Z" fill="#006298"/>
<path d="M7.83333 62.6667H57.9667V65.8H7.83333V62.6667Z" fill="#006298"/>
<path d="M7.83333 50.1333H57.9667V53.2667H7.83333V50.1333Z" fill="#006298"/>
<path d="M24.4134 74.9277C23.8787 74.0824 22.9324 73.5882 21.9333 73.6333C20.6558 73.7029 19.4418 74.2155 18.5024 75.0837C18.4619 74.8932 18.4091 74.7051 18.3456 74.5199C18.0228 73.5148 17.3037 72.6855 16.3544 72.2235C12.1539 70.1649 7.6987 78.2377 6.43267 80.7598L9.234 82.1704C11.4509 77.7611 14.315 74.7188 14.979 75.0401C15.1778 75.135 15.3255 75.3125 15.3813 75.5259C15.7967 76.743 14.9774 79.3247 14.2629 80.7713C13.8774 81.5462 14.1926 82.4871 14.9675 82.8727C15.7416 83.259 16.6826 82.9431 17.0689 82.1689C18.1467 80.0193 20.2948 77.0834 21.7689 76.795C21.6036 78.1842 21.1837 79.5313 20.5296 80.7682C20.2871 81.254 20.3139 81.83 20.6 82.2921C20.8861 82.7534 21.3902 83.0341 21.9333 83.0333H29.7667V79.9H24.2833C25.0139 78.3318 25.0613 76.5311 24.4134 74.9277Z" fill="#006298"/>
<path d="M50.6397 72.2893L47.537 71.8441C47.2884 73.5178 46.8883 75.1656 46.3406 76.7667H45.0684C42.6129 76.7338 40.3853 78.1995 39.4436 80.4669C39.0068 81.3726 39.0695 82.4397 39.6104 83.2873C40.3899 84.2389 41.5985 84.7316 42.8217 84.5954C45.4693 84.5954 47.2723 82.4336 48.4756 79.8954H56.9217V76.7667H49.6537C50.0874 75.2994 50.4171 73.8032 50.6397 72.2893ZM42.8217 81.4667C42.6901 81.4674 42.5593 81.4621 42.4285 81.4491C42.9051 80.5257 43.8445 79.9329 44.8833 79.9C44.2599 80.8585 43.5614 81.4667 42.8217 81.4667Z" fill="#006298"/>
</svg>
