<svg width="94" height="94" viewBox="0 0 94 94" fill="none" xmlns="http://www.w3.org/2000/svg">
<path d="M1.57267 87.7328H6.27234V92.4328C6.27234 93.298 6.97377 93.9994 7.83889 93.9994H73.6342C74.4993 93.9994 75.2008 93.298 75.2008 92.4328V86.1661H72.0677V90.8661H9.40545V87.7328H45.4362V84.5995H3.13923V17.2332H15.6717C16.5368 17.2332 17.2382 16.5318 17.2382 15.6666V3.13331H65.8014V32.8998H68.9345V9.39994H72.0677V36.0331H75.2008V7.83329C75.2008 6.96811 74.4993 6.26663 73.6342 6.26663H68.9345V1.56666C68.9345 0.701477 68.2331 0 67.368 0H15.6717C15.6403 0 15.612 0.0160643 15.5806 0.0191242C15.4384 0.0260091 15.2976 0.0543129 15.163 0.101741C15.1163 0.11551 15.0712 0.13234 15.0261 0.150699C14.8547 0.225666 14.6979 0.331997 14.5641 0.463571L0.465071 14.5635C0.33427 14.6966 0.227946 14.8526 0.152219 15.0232C0.130036 15.0714 0.117798 15.1204 0.100205 15.1701C0.0550742 15.3002 0.028302 15.4356 0.0206529 15.5725C0.0206529 15.6069 0 15.6367 0 15.6712V86.1661C0 86.5831 0.165987 86.9824 0.461247 87.2761C0.756505 87.5706 1.15656 87.7343 1.57267 87.7328ZM14.1051 5.34867V14.0999H5.35444L14.1051 5.34867Z" fill="#005892"/>
<path d="M48.5693 34.4665V32.8998H61.1018V25.0665C61.0987 22.6347 59.24 20.6067 56.8175 20.3918C56.6798 20.3742 56.5413 20.3658 56.4021 20.3665H12.5386C9.94319 20.3665 7.83889 22.471 7.83889 25.0665V75.1995C7.83889 77.7959 9.94319 79.8995 12.5386 79.8995H36.0369V76.7662H20.3713V72.0662H32.9038V68.9329H20.3713V64.2329H31.3372V61.0996H20.3713V56.3997H31.6508V53.2663H20.3713V48.5664H34.4703V45.4331H20.3713V40.7331H40.7366V37.5998H20.3713V32.8998H45.4362V34.4665H48.5693ZM56.5306 23.5113C57.343 23.5733 57.9702 24.2518 57.9687 25.0665V29.7665H48.5693V23.4891H56.3363C56.4006 23.5006 56.4656 23.5075 56.5306 23.5113ZM12.5386 23.4999H17.2382V29.7665H10.972V25.0665C10.972 24.2013 11.6734 23.4999 12.5386 23.4999ZM17.2382 76.7662H12.5386C11.6734 76.7662 10.972 76.0647 10.972 75.1995V72.0662H17.2382V76.7662ZM17.2382 68.9329H10.972V64.2329H17.2382V68.9329ZM17.2382 61.0996H10.972V56.3997H17.2382V61.0996ZM17.2382 53.2663H10.972V48.5664H17.2382V53.2663ZM17.2382 45.4331H10.972V40.7331H17.2382V45.4331ZM17.2382 37.5998H10.972V32.8998H17.2382V37.5998ZM20.3713 29.7665V23.4999L45.4362 23.4922V29.7665H20.3713Z" fill="#005892"/>
<path d="M23.5044 14.0999H36.0369V17.2332H23.5044V14.0999Z" fill="#005892"/>
<path d="M39.17 14.0999H45.4362V17.2332H39.17V14.0999Z" fill="#005892"/>
<path d="M23.5044 7.83329H45.4362V10.9666H23.5044V7.83329Z" fill="#005892"/>
<path d="M81.008 74.0919L80.8076 74.2923C87.6621 63.2744 85.017 48.8509 74.699 40.9825C64.381 33.1132 49.7725 34.3793 40.9614 43.9054C32.1503 53.4316 32.0249 68.0953 40.6723 77.7698C49.3197 87.4452 63.9044 88.9606 74.3548 81.2688L85.6526 92.5674C87.5626 94.4775 90.6583 94.4775 92.5675 92.5674C94.4775 90.658 94.4775 87.5622 92.5675 85.6528L81.008 74.0919ZM37.6034 61.0996C37.6034 48.9863 47.4227 39.1664 59.5352 39.1664C71.6477 39.1664 81.467 48.9863 81.467 61.0996C81.467 73.2129 71.6477 83.0328 59.5352 83.0328C47.4281 83.0198 37.6164 73.2076 37.6034 61.0996ZM89.1101 90.8661C88.6442 90.8676 88.1975 90.6825 87.8678 90.3528L76.7673 79.2523C77.6202 78.4461 78.415 77.5809 79.147 76.6629L90.3508 87.8674C90.8533 88.37 91.004 89.125 90.7325 89.7814C90.4609 90.4377 89.8207 90.8661 89.1101 90.8661Z" fill="#005892"/>
<path d="M59.5352 42.2997C49.153 42.2997 40.7366 50.7167 40.7366 61.0996C40.7366 71.4826 49.153 79.8995 59.5352 79.8995C69.9175 79.8995 78.3339 71.4826 78.3339 61.0996C78.3232 50.7213 69.9129 42.3112 59.5352 42.2997ZM53.269 61.0996C53.269 57.6389 56.0747 54.833 59.5352 54.833C62.9965 54.833 65.8014 57.6389 65.8014 61.0996C65.8014 64.5611 62.9965 67.3663 59.5352 67.3663C56.0747 67.3663 53.269 64.5611 53.269 61.0996ZM51.447 65.8639C48.7567 64.8327 46.335 63.2041 44.3661 61.0996C46.335 58.996 48.7567 57.3666 51.447 56.3354C49.6991 59.2714 49.6991 62.9287 51.447 65.8639ZM67.6235 56.3354C70.3145 57.3666 72.7354 58.996 74.7043 61.0996C72.7354 63.2041 70.3145 64.8327 67.6235 65.8639C69.3713 62.9287 69.3713 59.2714 67.6235 56.3354ZM59.5352 45.4331C66.5021 45.4415 72.6276 50.0458 74.5743 56.7355C70.5386 53.6152 65.6095 51.868 60.5097 51.7502C59.8649 51.6829 59.2155 51.6829 58.5707 51.7502C53.4671 51.8664 48.5349 53.6129 44.4961 56.7355C46.4429 50.0458 52.5691 45.4415 59.5352 45.4331ZM59.5352 76.7662C52.5691 76.7578 46.4429 72.1542 44.4961 65.4645C48.5326 68.5849 53.461 70.3313 58.5607 70.4499C59.2055 70.5164 59.8557 70.5164 60.5005 70.4499C65.6033 70.3336 70.5355 68.5864 74.5743 65.4645C72.6276 72.1542 66.5021 76.7578 59.5352 76.7662Z" fill="#005892"/>
<path d="M62.6683 61.0996C62.6683 62.83 61.2655 64.2329 59.5352 64.2329C57.805 64.2329 56.4021 62.83 56.4021 61.0996C56.4021 59.3693 57.805 57.9663 59.5352 57.9663C61.2655 57.9663 62.6683 59.3693 62.6683 61.0996Z" fill="#005892"/>
</svg>
