<svg width="94" height="94" viewBox="0 0 94 94" fill="none" xmlns="http://www.w3.org/2000/svg">
<path d="M10.9667 75.2C8.37114 75.2 6.2667 77.3045 6.2667 79.9C6.2667 82.4956 8.37114 84.6 10.9667 84.6C13.5623 84.6 15.6667 82.4956 15.6667 79.9C15.6667 77.3045 13.5623 75.2 10.9667 75.2ZM10.9667 81.4667C10.1015 81.4667 9.40003 80.7652 9.40003 79.9C9.40003 79.0348 10.1015 78.3334 10.9667 78.3334C11.8319 78.3334 12.5334 79.0348 12.5334 79.9C12.5334 80.7652 11.8319 81.4667 10.9667 81.4667Z" fill="#006298"/>
<path d="M14.1 43.8667H7.83336C6.96818 43.8667 6.2667 44.5681 6.2667 45.4333V70.5C6.2667 71.3652 6.96818 72.0667 7.83336 72.0667H14.1C14.9652 72.0667 15.6667 71.3652 15.6667 70.5V45.4333C15.6667 44.5681 14.9652 43.8667 14.1 43.8667ZM12.5334 68.9333H9.40003V47H12.5334V68.9333Z" fill="#006298"/>
<path d="M29.7668 57.9667C27.1712 57.9667 25.0668 60.0711 25.0668 62.6667C25.0668 65.2622 27.1712 67.3667 29.7668 67.3667C32.3623 67.3667 34.4668 65.2622 34.4668 62.6667C34.4668 60.0711 32.3623 57.9667 29.7668 57.9667ZM29.7668 64.2333C28.9016 64.2333 28.2001 63.5318 28.2001 62.6667C28.2001 61.8015 28.9016 61.1 29.7668 61.1C30.632 61.1 31.3335 61.8015 31.3335 62.6667C31.3335 63.5318 30.632 64.2333 29.7668 64.2333Z" fill="#006298"/>
<path d="M34.4668 28.2C34.4668 27.3348 33.7653 26.6333 32.9001 26.6333H26.6335C25.7683 26.6333 25.0668 27.3348 25.0668 28.2V53.2667C25.0668 54.1319 25.7683 54.8333 26.6335 54.8333H32.9001C33.7653 54.8333 34.4668 54.1319 34.4668 53.2667V28.2ZM31.3335 51.7H28.2001V29.7667H31.3335V51.7Z" fill="#006298"/>
<path d="M76.7668 26.6333C77.632 26.6333 78.3335 25.9319 78.3335 25.0667V9.4C78.3343 9.29443 78.3243 9.18963 78.3021 9.08636L76.7355 1.25303C76.5863 0.524007 75.9445 0 75.2002 0H50.1335C49.6822 0 49.253 0.195068 48.9555 0.533952L39.5379 11.2956C38.2894 12.7223 37.6009 14.5536 37.6002 16.45V28.2C37.5994 29.8799 38.4944 31.432 39.9486 32.2727C41.4036 33.1127 43.1952 33.1134 44.6502 32.2735C44.9302 32.1121 45.1925 31.9216 45.4335 31.7059C46.965 33.0186 49.149 33.245 50.9168 32.275C51.1968 32.1128 51.4592 31.9224 51.7002 31.7059C53.4826 33.3062 56.1845 33.3062 57.9668 31.7059C59.3484 32.9421 61.3281 33.2504 63.0203 32.493C64.7124 31.7357 65.8017 30.0543 65.8002 28.2V14.1C65.8002 13.2348 66.5017 12.5333 67.3668 12.5333C68.232 12.5333 68.9335 13.2348 68.9335 14.1V18.8C68.9389 23.1244 72.4424 26.628 76.7668 26.6333ZM67.3668 9.4C64.7713 9.4 62.6668 11.5044 62.6668 14.1V28.2C62.6668 29.0652 61.9654 29.7667 61.1002 29.7667C60.235 29.7667 59.5335 29.0652 59.5335 28.2V17.2333H56.4002V28.2C56.4002 29.0652 55.6987 29.7667 54.8335 29.7667C53.9683 29.7667 53.2668 29.0652 53.2668 28.2V17.2333H50.1335V28.2C50.1335 28.76 49.8352 29.2771 49.3502 29.5571C48.8652 29.8363 48.2685 29.8363 47.7835 29.5571C47.2985 29.2771 47.0002 28.76 47.0002 28.2V17.2333H43.8668V28.2C43.8668 29.0652 43.1654 29.7667 42.3002 29.7667C41.435 29.7667 40.7335 29.0652 40.7335 28.2V16.45C40.7335 15.3117 41.1466 14.2125 41.8963 13.3557L50.8449 3.13333H73.9158L75.2002 9.55682V23.2338C73.3229 22.5667 72.0684 20.792 72.0668 18.8V14.1C72.0668 11.5044 69.9624 9.4 67.3668 9.4Z" fill="#006298"/>
<path d="M48.5669 75.2C45.9713 75.2 43.8669 77.3045 43.8669 79.9C43.8669 82.4956 45.9713 84.6 48.5669 84.6C51.1624 84.6 53.2669 82.4956 53.2669 79.9C53.2669 77.3045 51.1624 75.2 48.5669 75.2ZM48.5669 81.4667C47.7017 81.4667 47.0002 80.7652 47.0002 79.9C47.0002 79.0348 47.7017 78.3334 48.5669 78.3334C49.4321 78.3334 50.1335 79.0348 50.1335 79.9C50.1335 80.7652 49.4321 81.4667 48.5669 81.4667Z" fill="#006298"/>
<path d="M51.7002 43.8667H45.4335C44.5684 43.8667 43.8669 44.5681 43.8669 45.4333V70.5C43.8669 71.3652 44.5684 72.0667 45.4335 72.0667H51.7002C52.5654 72.0667 53.2669 71.3652 53.2669 70.5V45.4333C53.2669 44.5681 52.5654 43.8667 51.7002 43.8667ZM50.1335 68.9333H47.0002V47H50.1335V68.9333Z" fill="#006298"/>
<path d="M92.4333 37.6H75.2V29.7667H72.0667V37.6H40.7333V34.4667H37.6V73.6333H21.9333V23.5H34.4667V20.3667H20.3667C19.5015 20.3667 18.8 21.0681 18.8 21.9333V37.6H1.56667C0.701481 37.6 0 38.3015 0 39.1666V92.4333C0 93.2985 0.701481 94 1.56667 94H92.4333C93.2985 94 94 93.2985 94 92.4333V39.1666C94 38.3015 93.2985 37.6 92.4333 37.6ZM3.13333 40.7333H18.8V90.8666H3.13333V40.7333ZM21.9333 76.7666H37.6V90.8666H21.9333V76.7666ZM40.7333 90.8666V40.7333H56.4V90.8666H40.7333ZM90.8667 90.8666H59.5333V40.7333H90.8667V90.8666Z" fill="#006298"/>
<path d="M62.6665 56.4H72.0665V59.5333H62.6665V56.4Z" fill="#006298"/>
<path d="M62.6665 72.0667H72.0665V75.2H62.6665V72.0667Z" fill="#006298"/>
</svg>
