<svg width="44" height="44" viewBox="0 0 44 44" fill="none" xmlns="http://www.w3.org/2000/svg">
<path d="M29.0714 0H7.07143C5.14957 0 3.55221 1.38914 3.21514 3.21514C1.38914 3.55221 0 5.14957 0 7.07143V40.0714C0 42.2376 1.76236 44 3.92857 44H25.9286C27.8504 44 29.4478 42.6109 29.7849 40.7849C31.6109 40.4478 33 38.8504 33 36.9286V3.92857C33 1.76236 31.2376 0 29.0714 0ZM28.2857 40.0714C28.2857 41.371 27.2281 42.4286 25.9286 42.4286H3.92857C2.629 42.4286 1.57143 41.371 1.57143 40.0714V7.07143C1.57143 5.77186 2.629 4.71429 3.92857 4.71429H25.9286C27.2281 4.71429 28.2857 5.77186 28.2857 7.07143V40.0714ZM31.4286 36.9286C31.4286 37.9516 30.7694 38.8159 29.8571 39.1411V7.07143C29.8571 4.90521 28.0948 3.14286 25.9286 3.14286H4.85886C5.18414 2.23064 6.04843 1.57143 7.07143 1.57143H29.0714C30.371 1.57143 31.4286 2.629 31.4286 3.92857V36.9286Z" fill="#006298"/>
<path d="M14.9286 14.1429C17.0948 14.1429 18.8571 12.3805 18.8571 10.2143C18.8571 8.04807 17.0948 6.28571 14.9286 6.28571C12.7624 6.28571 11 8.04807 11 10.2143C11 12.3805 12.7624 14.1429 14.9286 14.1429ZM14.9286 7.85714C16.2281 7.85714 17.2857 8.91471 17.2857 10.2143C17.2857 11.5139 16.2281 12.5714 14.9286 12.5714C13.629 12.5714 12.5714 11.5139 12.5714 10.2143C12.5714 8.91471 13.629 7.85714 14.9286 7.85714Z" fill="#006298"/>
<path d="M25.1429 15.7143H4.71429V17.2857H25.1429V15.7143Z" fill="#006298"/>
<path d="M25.1429 18.8571H4.71429V20.4286H25.1429V18.8571Z" fill="#006298"/>
<path d="M25.1429 22H7.85714V23.5714H25.1429V22Z" fill="#006298"/>
<path d="M25.1429 25.1429H7.85714V26.7143H25.1429V25.1429Z" fill="#006298"/>
<path d="M25.1429 28.2857H7.85714V29.8571H25.1429V28.2857Z" fill="#006298"/>
<path d="M25.1429 31.4286H7.85714V33H25.1429V31.4286Z" fill="#006298"/>
<path d="M11 36.1429H4.71429V37.7143H11V36.1429Z" fill="#006298"/>
<path d="M25.1429 36.1429H18.8571V37.7143H25.1429V36.1429Z" fill="#006298"/>
<path d="M6.28571 22H4.71429V23.5714H6.28571V22Z" fill="#006298"/>
<path d="M6.28571 25.1429H4.71429V26.7143H6.28571V25.1429Z" fill="#006298"/>
<path d="M6.28571 28.2857H4.71429V29.8571H6.28571V28.2857Z" fill="#006298"/>
<path d="M6.28571 31.4286H4.71429V33H6.28571V31.4286Z" fill="#006298"/>
<path d="M44 22.7857V16.5C44 15.2004 42.9424 14.1429 41.6429 14.1429H40.8571V13.3571C40.8571 12.9234 40.5051 12.5714 40.0714 12.5714H36.9286C36.4949 12.5714 36.1429 12.9234 36.1429 13.3571V41.6429C36.1429 41.8511 36.2254 42.0514 36.3731 42.1984L37.9445 43.7698C38.0977 43.923 38.2989 44 38.5 44C38.7011 44 38.9023 43.923 39.0555 43.7698L40.6269 42.1984C40.7746 42.0514 40.8571 41.8511 40.8571 41.6429V15.7143H41.6429C42.0758 15.7143 42.4286 16.0671 42.4286 16.5V22.6003L41.7254 24.0059C41.6146 24.2275 41.6146 24.4876 41.7254 24.7091L42.4286 26.114V28.2857H44V25.9286C44 25.8068 43.9717 25.6858 43.9175 25.5774L43.307 24.3571L43.9167 23.1369C43.9717 23.0277 44 22.9075 44 22.7857ZM39.2857 14.1429V26.7143H37.7143V14.1429H39.2857ZM38.5 42.1033L37.7143 41.3176V28.2857H39.2857V41.3176L38.5 42.1033Z" fill="#006298"/>
</svg>
