<svg width="51" height="51" viewBox="0 0 51 51" fill="none" xmlns="http://www.w3.org/2000/svg">
<path d="M10.9286 21.8571C13.9421 21.8571 16.3929 19.4064 16.3929 16.3929C16.3929 13.3793 13.9421 10.9286 10.9286 10.9286C7.91502 10.9286 5.46429 13.3793 5.46429 16.3929C5.46429 19.4064 7.91502 21.8571 10.9286 21.8571ZM10.9286 12.75C12.9376 12.75 14.5714 14.3838 14.5714 16.3929C14.5714 18.4019 12.9376 20.0357 10.9286 20.0357C8.91954 20.0357 7.28571 18.4019 7.28571 16.3929C7.28571 14.3838 8.91954 12.75 10.9286 12.75Z" fill="#006298"/>
<path d="M40.0714 21.8571C43.085 21.8571 45.5357 19.4064 45.5357 16.3929C45.5357 13.3793 43.085 10.9286 40.0714 10.9286C37.0579 10.9286 34.6071 13.3793 34.6071 16.3929C34.6071 19.4064 37.0579 21.8571 40.0714 21.8571ZM40.0714 12.75C42.0805 12.75 43.7143 14.3838 43.7143 16.3929C43.7143 18.4019 42.0805 20.0357 40.0714 20.0357C38.0624 20.0357 36.4286 18.4019 36.4286 16.3929C36.4286 14.3838 38.0624 12.75 40.0714 12.75Z" fill="#006298"/>
<path d="M49.1786 23.6786V35.5179C49.1786 37.0242 47.9527 38.25 46.4464 38.25V28.2321C46.4464 25.7213 44.4037 23.6786 41.8929 23.6786H37.3393C36.8366 23.6786 36.4286 24.0866 36.4286 24.5893V30.0536H29.1429C28.6401 30.0536 28.2321 30.4616 28.2321 30.9643V33.6964H22.7679V30.9643C22.7679 30.4616 22.3599 30.0536 21.8571 30.0536H14.5714V24.5893C14.5714 24.0866 14.1634 23.6786 13.6607 23.6786H9.10714C6.5963 23.6786 4.55357 25.7213 4.55357 28.2321V38.25C3.04725 38.25 1.82143 37.0242 1.82143 35.5179V23.6786H0V35.5179C0 37.3803 1.12655 38.9804 2.73214 39.6853V51H4.55357V40.0714H13.6607V50.0893C13.6607 50.592 14.0687 51 14.5714 51H19.125V35.5179H31.875V51H36.4286C36.9313 51 37.3393 50.592 37.3393 50.0893V40.0714H46.4464V51H48.2679V39.6853C49.8734 38.9804 51 37.3803 51 35.5179V23.6786H49.1786ZM10.9286 33.6964V28.2321H9.10714V34.6071C9.10714 35.1099 9.51514 35.5179 10.0179 35.5179H16.3929C16.8947 35.5179 17.3036 35.9268 17.3036 36.4286V49.1786H15.4821V39.1607C15.4821 38.658 15.0741 38.25 14.5714 38.25H6.375V28.2321C6.375 26.7258 7.60082 25.5 9.10714 25.5H12.75V30.9643C12.75 31.467 13.158 31.875 13.6607 31.875H20.9464V33.6964H10.9286ZM36.4286 38.25C35.9259 38.25 35.5179 38.658 35.5179 39.1607V49.1786H33.6964V36.4286C33.6964 35.9268 34.1053 35.5179 34.6071 35.5179H40.9821C41.4849 35.5179 41.8929 35.1099 41.8929 34.6071V28.2321H40.0714V33.6964H30.0536V31.875H37.3393C37.842 31.875 38.25 31.467 38.25 30.9643V25.5H41.8929C43.3992 25.5 44.625 26.7258 44.625 28.2321V38.25H36.4286Z" fill="#006298"/>
<path d="M17.3036 9.10714V11.8393C17.3036 12.2318 17.554 12.5788 17.9265 12.7036C18.0212 12.7345 18.1187 12.75 18.2143 12.75C18.4957 12.75 18.7671 12.6189 18.9429 12.3857L21.4018 9.10714H28.2321C29.7385 9.10714 30.9643 7.88132 30.9643 6.375V2.73214C30.9643 1.22582 29.7385 0 28.2321 0H17.3036C15.7972 0 14.5714 1.22582 14.5714 2.73214V6.375C14.5714 7.88132 15.7972 9.10714 17.3036 9.10714ZM16.3929 2.73214C16.3929 2.23034 16.8018 1.82143 17.3036 1.82143H28.2321C28.7339 1.82143 29.1429 2.23034 29.1429 2.73214V6.375C29.1429 6.8768 28.7339 7.28571 28.2321 7.28571H20.9464C20.6596 7.28571 20.39 7.4205 20.2179 7.65L19.125 9.10714V8.19643C19.125 7.69371 18.717 7.28571 18.2143 7.28571H17.3036C16.8018 7.28571 16.3929 6.8768 16.3929 6.375V2.73214Z" fill="#006298"/>
<path d="M27.3214 3.64286H18.2143V5.46429H27.3214V3.64286Z" fill="#006298"/>
<path d="M30.0536 22.7679H24.5893V24.5893H30.0536V22.7679Z" fill="#006298"/>
<path d="M23.6786 19.125C22.1722 19.125 20.9464 20.3508 20.9464 21.8571V25.5C20.9464 27.0063 22.1722 28.2321 23.6786 28.2321H30.9643C32.4706 28.2321 33.6964 27.0063 33.6964 25.5V24.8652L35.3649 22.3626C35.5516 22.083 35.5689 21.7242 35.4104 21.4282C35.2519 21.1313 34.9432 20.9464 34.6071 20.9464H33.5407C33.1646 19.8864 32.1519 19.125 30.9643 19.125H23.6786ZM31.875 21.8571C31.875 22.3599 32.283 22.7679 32.7857 22.7679H32.905L32.028 24.0838C31.9287 24.2332 31.875 24.4099 31.875 24.5893V25.5C31.875 26.0018 31.4661 26.4107 30.9643 26.4107H23.6786C23.1768 26.4107 22.7679 26.0018 22.7679 25.5V21.8571C22.7679 21.3553 23.1768 20.9464 23.6786 20.9464H30.9643C31.4661 20.9464 31.875 21.3553 31.875 21.8571Z" fill="#006298"/>
<path d="M22.7679 14.5714H20.9464V16.3929H22.7679V14.5714Z" fill="#006298"/>
<path d="M26.4107 14.5714H24.5893V16.3929H26.4107V14.5714Z" fill="#006298"/>
<path d="M30.0536 14.5714H28.2321V16.3929H30.0536V14.5714Z" fill="#006298"/>
</svg>
