<svg width="40" height="47" viewBox="0 0 40 47" fill="none" xmlns="http://www.w3.org/2000/svg">
<path d="M35.8333 0H10.8333C8.795 0 7.10083 1.48386 6.74333 3.43436C5.05333 3.74909 3.7225 5.08943 3.41 6.7915C1.47333 7.15155 0 8.85782 0 10.9107V42.8036C0 45.1175 1.86917 47 4.16667 47H29.1667C31.205 47 32.8992 45.5161 33.2567 43.5656C34.9467 43.2509 36.2775 41.9106 36.59 40.2085C38.5267 39.8484 40 38.1422 40 36.0893V4.19643C40 1.88252 38.1308 0 35.8333 0ZM31.6667 42.8036C31.6667 44.1917 30.545 45.3214 29.1667 45.3214H4.16667C2.78833 45.3214 1.66667 44.1917 1.66667 42.8036V10.9107C1.66667 9.52254 2.78833 8.39286 4.16667 8.39286H29.1667C30.545 8.39286 31.6667 9.52254 31.6667 10.9107V42.8036ZM35 39.4464C35 40.5392 34.3008 41.4624 33.3333 41.8099V10.9107C33.3333 8.5968 31.4642 6.71429 29.1667 6.71429H5.15333C5.49833 5.73988 6.415 5.03571 7.5 5.03571H32.5C33.8783 5.03571 35 6.16539 35 7.55357V39.4464ZM38.3333 36.0893C38.3333 37.182 37.6342 38.1053 36.6667 38.4527V7.55357C36.6667 5.23966 34.7975 3.35714 32.5 3.35714H8.48667C8.83167 2.38273 9.74833 1.67857 10.8333 1.67857H35.8333C37.2117 1.67857 38.3333 2.80825 38.3333 4.19643V36.0893Z" fill="#006298"/>
<path d="M8.9225 13.6745L7.74417 14.8612L9.41083 16.5398C9.57333 16.7035 9.78667 16.7857 10 16.7857C10.2133 16.7857 10.4267 16.7035 10.5892 16.5398L14.7558 12.3434L13.5775 11.1566L10 14.7597L8.9225 13.6745Z" fill="#006298"/>
<path d="M13.3333 18.4643H6.66667V11.75H11.6667V10.0714H5.83333C5.37333 10.0714 5 10.4466 5 10.9107V19.3036C5 19.7677 5.37333 20.1429 5.83333 20.1429H14.1667C14.6267 20.1429 15 19.7677 15 19.3036V15.1071H13.3333V18.4643Z" fill="#006298"/>
<path d="M8.9225 25.4245L7.74417 26.6112L9.41083 28.2898C9.57333 28.4535 9.78667 28.5357 10 28.5357C10.2133 28.5357 10.4267 28.4535 10.5892 28.2898L14.7558 24.0934L13.5775 22.9066L10 26.5097L8.9225 25.4245Z" fill="#006298"/>
<path d="M13.3333 30.2143H6.66667V23.5H11.6667V21.8214H5.83333C5.37333 21.8214 5 22.1966 5 22.6607V31.0536C5 31.5177 5.37333 31.8929 5.83333 31.8929H14.1667C14.6267 31.8929 15 31.5177 15 31.0536V26.8571H13.3333V30.2143Z" fill="#006298"/>
<path d="M8.9225 37.1745L7.74417 38.3612L9.41083 40.0398C9.57333 40.2035 9.78667 40.2857 10 40.2857C10.2133 40.2857 10.4267 40.2035 10.5892 40.0398L14.7558 35.8434L13.5775 34.6566L10 38.2597L8.9225 37.1745Z" fill="#006298"/>
<path d="M13.3333 41.9643H6.66667V35.25H11.6667V33.5714H5.83333C5.37333 33.5714 5 33.9466 5 34.4107V42.8036C5 43.2677 5.37333 43.6429 5.83333 43.6429H14.1667C14.6267 43.6429 15 43.2677 15 42.8036V38.6071H13.3333V41.9643Z" fill="#006298"/>
<path d="M28.3333 10.9107H16.6667V12.5893H28.3333V10.9107Z" fill="#006298"/>
<path d="M28.3333 14.2679H16.6667V15.9464H28.3333V14.2679Z" fill="#006298"/>
<path d="M28.3333 17.625H16.6667V19.3036H28.3333V17.625Z" fill="#006298"/>
<path d="M28.3333 22.6607H16.6667V24.3393H28.3333V22.6607Z" fill="#006298"/>
<path d="M28.3333 26.0179H16.6667V27.6964H28.3333V26.0179Z" fill="#006298"/>
<path d="M28.3333 29.375H16.6667V31.0536H28.3333V29.375Z" fill="#006298"/>
<path d="M28.3333 34.4107H16.6667V36.0893H28.3333V34.4107Z" fill="#006298"/>
<path d="M28.3333 37.7679H16.6667V39.4464H28.3333V37.7679Z" fill="#006298"/>
<path d="M28.3333 41.125H16.6667V42.8036H28.3333V41.125Z" fill="#006298"/>
</svg>
