<svg width="36" height="54" viewBox="0 0 36 54" fill="none" xmlns="http://www.w3.org/2000/svg">
<path d="M24.7955 27.9556H28.4201C31.032 27.9556 33.1569 25.8655 33.1569 23.2963V5.59112C33.1569 5.07674 32.7325 4.65927 32.2096 4.65927H24.6306V2.79556C24.6306 1.25428 23.3555 0 21.7885 0H14.2096C12.6426 0 11.3675 1.25428 11.3675 2.79556V4.65927H3.78853C3.26558 4.65927 2.84116 5.07674 2.84116 5.59112V23.2963C2.84116 25.8655 4.96611 27.9556 7.578 27.9556H11.2026C7.33642 30.2377 4.73589 34.3891 4.73589 39.1379C4.73589 46.3318 10.6854 52.1838 17.9991 52.1838C25.3127 52.1838 31.2622 46.3318 31.2622 39.1379C31.2632 34.3891 28.6617 30.2377 24.7955 27.9556ZM13.2632 2.79556C13.2632 2.28211 13.6885 1.86371 14.2105 1.86371H21.7895C22.3115 1.86371 22.7368 2.28211 22.7368 2.79556V4.65927H13.2632V2.79556ZM4.73684 6.52298H31.2632V9.31854C31.2632 10.8598 29.988 12.1141 28.4211 12.1141H7.57895C6.012 12.1141 4.73684 10.8598 4.73684 9.31854V6.52298ZM16.1053 13.9778H19.8947V15.8415H16.1053V13.9778ZM7.57895 26.0919C6.012 26.0919 4.73684 24.8376 4.73684 23.2963V13.0217C5.53074 13.6135 6.50842 13.9778 7.57895 13.9778H14.2105V16.7734C14.2105 17.2878 14.6349 17.7052 15.1579 17.7052H20.8421C21.3651 17.7052 21.7895 17.2878 21.7895 16.7734V13.9778H28.4211C29.4916 13.9778 30.4693 13.6135 31.2632 13.0217V23.2963C31.2632 24.8376 29.988 26.0919 28.4211 26.0919H7.57895ZM18 50.3201C11.7313 50.3201 6.63158 45.3039 6.63158 39.1379C6.63158 32.9718 11.7313 27.9556 18 27.9556C24.2687 27.9556 29.3684 32.9718 29.3684 39.1379C29.3684 45.3039 24.2678 50.3201 18 50.3201Z" fill="#006298"/>
<path d="M1.89474 39.1379C1.89474 36.6787 2.47453 34.2876 3.56874 32.1154L3.83779 32.9094L5.63495 32.3195L4.68758 29.5239C4.52274 29.0366 3.98653 28.7701 3.48916 28.935L0.647052 29.8668L1.24674 31.6346L1.782 31.4594C0.613894 33.8421 0 36.4551 0 39.1379C0 44.5063 2.43474 49.5243 6.68084 52.9051L7.87358 51.456C4.07274 48.4312 1.89474 43.9406 1.89474 39.1379Z" fill="#006298"/>
<path d="M36 39.1379C36 35.6378 34.9626 32.2524 33.0006 29.3487L31.4223 30.3803C33.1778 32.9774 34.1053 36.0059 34.1053 39.1379C34.1053 43.4058 32.3962 47.3913 29.3684 50.3499V49.3883H27.4737V52.1838C27.4737 52.5854 27.7342 52.9405 28.1217 53.0681L30.9638 54L31.5635 52.2323L30.4958 51.8819C34.0143 48.5552 36 44.0087 36 39.1379Z" fill="#006298"/>
<path d="M17.8134 38.0038L14.6349 36.4401L13.7871 38.1072L17.5765 39.9709C17.7111 40.0371 17.856 40.0697 18 40.0697C18.2463 40.0697 18.4888 39.9756 18.6707 39.7967L22.4602 36.0693L21.1206 34.7516L17.8134 38.0038Z" fill="#006298"/>
<path d="M18 29.8193C12.7762 29.8193 8.52632 33.9996 8.52632 39.1379C8.52632 44.2761 12.7762 48.4564 18 48.4564C23.2238 48.4564 27.4737 44.2761 27.4737 39.1379C27.4737 33.9996 23.2238 29.8193 18 29.8193ZM18 46.5927C13.8212 46.5927 10.4211 43.2483 10.4211 39.1379C10.4211 35.0275 13.8212 31.683 18 31.683C22.1788 31.683 25.5789 35.0275 25.5789 39.1379C25.5789 43.2483 22.1779 46.5927 18 46.5927Z" fill="#006298"/>
<path d="M28.4211 22.3645H26.5263V24.2282H28.4211V22.3645Z" fill="#006298"/>
<path d="M24.6316 22.3645H22.7368V24.2282H24.6316V22.3645Z" fill="#006298"/>
<path d="M20.8421 22.3645H18.9474V24.2282H20.8421V22.3645Z" fill="#006298"/>
</svg>