<svg width="49" height="49" viewBox="0 0 49 49" fill="none" xmlns="http://www.w3.org/2000/svg">
<path d="M22.5925 34.1578C22.4146 33.9788 22.1677 33.8774 21.916 33.8774C21.6643 33.8774 21.4174 33.9788 21.2394 34.1578C21.0614 34.3358 20.959 34.5818 20.959 34.8344C20.959 35.0861 21.0613 35.3331 21.2394 35.5111C21.4174 35.6891 21.6643 35.7915 21.916 35.7915C22.1677 35.7915 22.4146 35.6891 22.5925 35.5111C22.7705 35.3331 22.873 35.0861 22.873 34.8344C22.873 34.5827 22.7706 34.3358 22.5925 34.1578Z" fill="#006298"/>
<path d="M42.875 25.6494C42.3465 25.6494 41.918 26.0779 41.918 26.6065V30.8156H25.457V28.4533C25.457 24.8139 22.7205 21.8037 19.1976 21.3671C19.8938 20.5079 20.3121 19.4146 20.3121 18.225V11.492C20.3121 10.9634 19.8836 10.5349 19.3551 10.5349H14.3477C12.123 10.5349 10.3131 12.3449 10.3131 14.5697V18.225C10.3131 19.4145 10.7313 20.5078 11.4276 21.3671C7.9045 21.8038 5.16797 24.814 5.16797 28.4534V30.8157H1.91406V7.8225C1.91406 7.41326 2.24912 7.08039 2.66103 7.08039H22.5541C23.0825 7.08039 23.5111 6.65191 23.5111 6.12333C23.5111 5.59474 23.0825 5.16626 22.5541 5.16626H2.66103C1.1938 5.16626 0 6.35781 0 7.8225V36.1988C0 37.6635 1.1938 38.8551 2.66103 38.8551H17.2246V43.2762C14.8103 43.5207 12.9199 45.5652 12.9199 48.0429C12.9199 48.5715 13.3485 49 13.877 49H29.9551C30.4836 49 30.9121 48.5715 30.9121 48.0429C30.9121 45.5653 29.0217 43.5208 26.6075 43.2762V38.8551H41.1711C42.6383 38.8551 43.8321 37.6635 43.8321 36.1988V26.6065C43.832 26.078 43.4035 25.6494 42.875 25.6494ZM12.227 14.5699C12.227 13.4006 13.1783 12.4493 14.3476 12.4493H18.398V13.9773C18.398 14.7365 17.7804 15.3541 17.0212 15.3541H12.227V14.5699ZM12.227 17.2682H17.0213C17.5127 17.2682 17.9789 17.1592 18.3981 16.9652V18.2252C18.3981 19.9266 17.0138 21.3108 15.3125 21.3108C13.6112 21.3108 12.227 19.9266 12.227 18.2252V17.2682ZM16.4293 23.2249L15.3125 24.3417L14.1957 23.2249H16.4293ZM7.08203 28.4534C7.08203 25.8303 9.02385 23.6528 11.5452 23.2814L14.6357 26.3719C14.8226 26.5588 15.0675 26.6523 15.3124 26.6523C15.5573 26.6523 15.8022 26.5588 15.9891 26.3719L19.0796 23.2814C21.6012 23.6528 23.543 25.8303 23.543 28.4534V30.8157H7.08203V28.4534ZM28.8343 47.0859H14.9975C15.3928 45.9684 16.4598 45.1657 17.711 45.1657H26.1209C27.3721 45.1657 28.439 45.9683 28.8343 47.0859ZM19.1387 43.2516V38.8551H24.6934V43.2516H19.1387ZM41.918 36.1988C41.918 36.608 41.5829 36.9409 41.171 36.9409H2.66103C2.24912 36.9409 1.91406 36.608 1.91406 36.1988V32.7298H41.918V36.1988Z" fill="#006298"/>
<path d="M43.5515 22.3246C43.3736 22.1466 43.1267 22.0442 42.875 22.0442C42.6233 22.0442 42.3764 22.1466 42.1984 22.3246C42.0204 22.5036 41.918 22.7495 41.918 23.0012C41.918 23.2539 42.0203 23.4999 42.1984 23.6779C42.3764 23.8569 42.6233 23.9583 42.875 23.9583C43.1267 23.9583 43.3736 23.8569 43.5515 23.6779C43.7295 23.4999 43.832 23.2539 43.832 23.0012C43.832 22.7495 43.7296 22.5026 43.5515 22.3246Z" fill="#006298"/>
<path d="M42.875 4.49822H35.6973C35.1688 4.49822 34.7402 4.9267 34.7402 5.45529C34.7402 5.98388 35.1688 6.41236 35.6973 6.41236H42.875C43.4035 6.41236 43.832 5.98388 43.832 5.45529C43.832 4.9267 43.4035 4.49822 42.875 4.49822Z" fill="#006298"/>
<path d="M32.45 4.77864C32.272 4.60063 32.0251 4.49822 31.7734 4.49822C31.5217 4.49822 31.2748 4.60063 31.0968 4.77864C30.9188 4.95666 30.8164 5.20358 30.8164 5.45529C30.8164 5.707 30.9187 5.95392 31.0968 6.13194C31.2749 6.30995 31.5217 6.41236 31.7734 6.41236C32.0251 6.41236 32.272 6.30995 32.45 6.13194C32.628 5.95392 32.7305 5.707 32.7305 5.45529C32.7305 5.20358 32.6281 4.95666 32.45 4.77864Z" fill="#006298"/>
<path d="M42.875 8.70932H31.7734C31.245 8.70932 30.8164 9.1378 30.8164 9.66639C30.8164 10.195 31.245 10.6235 31.7734 10.6235H42.875C43.4035 10.6235 43.832 10.195 43.832 9.66639C43.832 9.1378 43.4035 8.70932 42.875 8.70932Z" fill="#006298"/>
<path d="M42.875 12.9204H31.7734C31.245 12.9204 30.8164 13.3489 30.8164 13.8775C30.8164 14.4061 31.245 14.8346 31.7734 14.8346H42.875C43.4035 14.8346 43.832 14.4061 43.832 13.8775C43.832 13.3489 43.4035 12.9204 42.875 12.9204Z" fill="#006298"/>
<path d="M44.2148 0H30.4336C27.7951 0 25.6484 2.1467 25.6484 4.78534V15.026C25.6484 17.4813 27.507 19.5107 29.8912 19.7808V22.2677C29.8912 22.6548 30.1245 23.0038 30.482 23.152C30.6004 23.2011 30.7248 23.2249 30.8481 23.2249C31.0972 23.2249 31.3419 23.1276 31.525 22.9446L34.658 19.8113H44.2148C46.8534 19.8113 49 17.6646 49 15.026V4.78534C49 2.1467 46.8534 0 44.2148 0ZM47.0859 15.026C47.0859 16.6092 45.798 17.8972 44.2148 17.8972H34.2617C34.0079 17.8972 33.7645 17.9981 33.585 18.1775L31.8053 19.9573V18.8543C31.8053 18.3257 31.3767 17.8972 30.8483 17.8972H30.4336C28.8505 17.8972 27.5625 16.6092 27.5625 15.026V4.78534C27.5625 3.20216 28.8505 1.91414 30.4336 1.91414H44.2148C45.798 1.91414 47.0859 3.20216 47.0859 4.78534V15.026Z" fill="#006298"/>
</svg>
