<?xml version="1.0" standalone="no"?>
<!DOCTYPE svg PUBLIC "-//W3C//DTD SVG 1.1//EN" "http://www.w3.org/Graphics/SVG/1.1/DTD/svg11.dtd" >
<svg xmlns="http://www.w3.org/2000/svg" xmlns:xlink="http://www.w3.org/1999/xlink" version="1.1">
<metadata>
Created by FontForge 20160407 at Wed Nov 23 14:10:52 2016
 By Jimmy Wärting
Copyright (c) 2015 by Mariya Pigoulevskaya. All rights reserved.
</metadata>
<defs>
<font id="Webnar-Regular" horiz-adv-x="525" >
  <font-face 
    font-family="Webnar"
    font-weight="400"
    font-stretch="normal"
    units-per-em="1000"
    panose-1="0 0 5 0 0 0 0 0 0 0"
    ascent="750"
    descent="-250"
    x-height="499.999"
    cap-height="700"
    bbox="-99.9979 -250.002 1344.81 1102.58"
    underline-thickness="50"
    underline-position="-100"
    stemh="69"
    stemv="79"
    unicode-range="U+0020-FE6B"
  />
<missing-glyph horiz-adv-x="500" 
d="M0 0v700h500v-700h-500zM250 395l170 255h-340zM280 350l170 -255v510zM80 50h340l-170 255zM50 605v-510l170 255z" />
    <glyph glyph-name=".notdef" horiz-adv-x="500" 
d="M0 0v700h500v-700h-500zM250 395l170 255h-340zM280 350l170 -255v510zM80 50h340l-170 255zM50 605v-510l170 255z" />
    <glyph glyph-name="A" unicode="A" horiz-adv-x="628" 
d="M266.88 700l93.9395 -0.000976562c6.30957 0 10.3096 -3.98047 12.3096 -10.29l220.76 -681.44c1.33008 -4.95996 -1.95996 -8.26953 -6.92969 -8.26953h-61.1201c-6.30957 0 -10.3096 3.98047 -12.3096 10.29l-65.9502 199.27h-267.46l-65.9502 -199.27
c-2 -6.30957 -6 -10.29 -12.3096 -10.29h-61.1299c-4.95996 0 -8.25 3.30957 -6.92969 8.26953l220.77 681.44c1.91992 6.12012 5.7002 10.0605 12.3105 10.291zM311.499 633.049l-81.4102 -259.72l-31.54 -95.2598h230.6l-31.5498 95.2598l-81.96 259.72h-4.13965z" />
    <glyph glyph-name="Aacute" unicode="&#xc1;" horiz-adv-x="628" 
d="M285.58 785.16l72.96 156.031c2.65039 5.30957 6.29004 8.63965 13.9404 8.63965h49.29c5 0 8 -4.33008 5.67969 -9.33008l-86.4902 -155.69c-3.33008 -6 -5.98047 -7.98047 -12.6201 -7.98047h-38.4297c-4.33008 0 -6.65039 4 -4.33008 8.33008zM266.87 699.991
l93.9395 -0.000976562c6.30957 0 10.3096 -3.98047 12.3096 -10.29l220.76 -681.43c1.33008 -4.96973 -1.95996 -8.2793 -6.92969 -8.2793h-61.1201c-6.30957 0 -10.3096 3.98047 -12.3096 10.29l-65.9502 199.28h-267.46l-65.9502 -199.28
c-2 -6.30957 -6 -10.29 -12.3096 -10.29h-61.1299c-4.95996 0 -8.25 3.30957 -6.92969 8.2793l220.77 681.43c1.91992 6.12012 5.7002 10.0605 12.3105 10.291zM311.489 633.05l-81.4102 -259.73l-31.54 -95.25h230.6l-31.5498 95.25l-81.96 259.73h-4.13965z" />
    <glyph glyph-name="Abreve" unicode="&#x102;" horiz-adv-x="628" 
d="M436.82 871.09c5.95996 3.32031 11.2617 0.320312 11.2617 -5.96973v-36.54c0 -6.30957 -2.65039 -9.63965 -6.31055 -12.29c-19 -15 -67.96 -39.3701 -127.94 -39.3701s-108.95 24.3701 -127.95 39.3701c-3.65039 2.65039 -6.31055 5.98047 -6.31055 12.29v36.54
c0 6.29004 5.30957 9.29004 11.2793 5.96973c30.9102 -17.3496 67.2705 -38.0898 122.98 -38.0898s92.0801 20.7402 122.99 38.0898zM266.872 700l93.9404 -0.000976562c6.30957 0 10.3096 -3.98047 12.3096 -10.29l220.77 -681.44
c1.32031 -4.95996 -1.96973 -8.26953 -6.92969 -8.26953h-61.1299c-6.30957 0 -10.3096 3.98047 -12.3096 10.29l-65.9502 199.27h-267.46l-65.9502 -199.27c-2 -6.30957 -6 -10.29 -12.3096 -10.29h-61.1201c-4.96973 0 -8.25977 3.30957 -6.92969 8.26953l220.76 681.44
c1.92969 6.12012 5.70996 10.0605 12.3096 10.291zM311.492 633.049l-81.3994 -259.72l-31.5498 -95.2598h230.6l-31.54 95.2598l-81.96 259.72h-4.15039z" />
    <glyph glyph-name="Acaron" unicode="&#x1cd;" horiz-adv-x="628" 
d="M386.54 949.83h44.0508c5 0 8.66992 -4.32031 5.66992 -9.32031l-93.2197 -155.69c-3.32031 -6 -5.98047 -7.98047 -12.6104 -7.98047h-33.2002c-6.63965 0 -9.29004 1.98047 -12.6201 7.98047l-93.2197 155.69c-3 5 0.679688 9.32031 5.67969 9.32031h44.0498
c7.66016 0 11.29 -3.32031 13.9502 -8.62988l58.7598 -114.85l58.7695 114.85c2.65039 5.30957 6.29004 8.62988 13.9404 8.62988zM266.871 700l93.9404 -0.000976562c6.30957 0 10.3096 -3.98047 12.3096 -10.29l220.77 -681.44
c1.32031 -4.95996 -1.96973 -8.26953 -6.92969 -8.26953h-61.1299c-6.30957 0 -10.3096 3.98047 -12.3096 10.29l-65.9502 199.27h-267.46l-65.9502 -199.27c-2 -6.30957 -6 -10.29 -12.3096 -10.29h-61.1201c-4.96973 0 -8.25977 3.30957 -6.92969 8.26953l220.76 681.44
c1.92969 6.12012 5.70996 10.0605 12.3096 10.291zM311.491 633.049l-81.3994 -259.72l-31.5498 -95.2598h230.6l-31.54 95.2598l-81.96 259.72h-4.15039z" />
    <glyph glyph-name="Acircumflex" unicode="&#xc2;" horiz-adv-x="628" 
d="M343.05 941.85l93.2285 -155.69c3 -5 -0.669922 -9.33008 -5.66992 -9.33008h-44.0596c-7.65039 0 -11.29 3.33008 -13.9404 8.63965l-58.7695 114.85l-58.7598 -114.85c-2.66016 -5.30957 -6.29004 -8.63965 -13.9502 -8.63965h-44.0498
c-5 0 -8.67969 4.33008 -5.67969 9.33008l93.2197 155.69c3.33008 6 5.98047 7.98047 12.6201 7.98047h33.2002c6.62988 0 9.29004 -1.98047 12.6104 -7.98047zM266.889 699.999l93.9395 -0.000976562c6.30957 0 10.3096 -3.98047 12.3096 -10.29l220.76 -681.44
c1.33008 -4.95996 -1.95996 -8.26953 -6.92969 -8.26953h-61.1201c-6.30957 0 -10.3096 3.98047 -12.3096 10.29l-65.9502 199.27h-267.46l-65.9502 -199.27c-2 -6.30957 -6 -10.29 -12.3096 -10.29h-61.1299c-4.95996 0 -8.25 3.30957 -6.92969 8.26953l220.77 681.44
c1.91992 6.12012 5.7002 10.0605 12.3105 10.291zM311.508 633.048l-81.4102 -259.72l-31.54 -95.2598h230.6l-31.5498 95.2598l-81.96 259.72h-4.13965z" />
    <glyph glyph-name="Adieresis" unicode="&#xc4;" horiz-adv-x="628" 
d="M206.11 877.85h61.4805c5.62988 0 8.93945 -3.30957 8.93945 -8.94922v-73.0303c0 -5.63965 -3.30957 -8.94922 -8.93945 -8.94922h-61.4805c-5.62988 0 -8.93945 3.30957 -8.93945 8.94922v73.0303c0 5.63965 3.30957 8.94922 8.93945 8.94922zM360.081 877.85h61.4697
c5.63965 0 8.94922 -3.30957 8.94922 -8.94922v-73.0303c0 -5.63965 -3.30957 -8.94922 -8.94922 -8.94922h-61.4697c-5.63965 0 -8.94922 3.30957 -8.94922 8.94922v73.0303c0 5.63965 3.30957 8.94922 8.94922 8.94922zM266.881 700l93.9395 -0.000976562
c6.30957 0 10.3096 -3.98047 12.3096 -10.29l220.76 -681.44c1.33008 -4.95996 -1.95996 -8.26953 -6.92969 -8.26953h-61.1201c-6.30957 0 -10.3096 3.98047 -12.3096 10.29l-65.9502 199.27h-267.46l-65.9502 -199.27c-2 -6.30957 -6 -10.29 -12.3096 -10.29h-61.1299
c-4.95996 0 -8.25 3.30957 -6.92969 8.26953l220.77 681.44c1.91992 6.12012 5.7002 10.0605 12.3105 10.291zM311.5 633.049l-81.4102 -259.72l-31.54 -95.2598h230.6l-31.5498 95.2598l-81.96 259.72h-4.13965z" />
    <glyph glyph-name="Agrave" unicode="&#xc0;" horiz-adv-x="628" 
d="M267.73 941.2l72.9512 -156.041c2.33008 -4.32031 0 -8.32031 -4.32031 -8.32031h-38.4404c-6.62988 0 -9.29004 1.98047 -12.6104 7.98047l-86.4902 155.69c-2.33008 5 0.669922 9.32031 5.66992 9.32031h49.29c7.66016 0 11.29 -3.32031 13.9502 -8.62988z
M266.872 699.999l93.9404 -0.000976562c6.30957 0 10.3096 -3.98047 12.3096 -10.29l220.77 -681.43c1.32031 -4.96973 -1.96973 -8.2793 -6.92969 -8.2793h-61.1299c-6.30957 0 -10.3096 3.98047 -12.3096 10.29l-65.9502 199.28h-267.46l-65.9502 -199.28
c-2 -6.30957 -6 -10.29 -12.3096 -10.29h-61.1201c-4.96973 0 -8.25977 3.30957 -6.92969 8.2793l220.76 681.43c1.92969 6.12012 5.70996 10.0605 12.3096 10.291zM311.492 633.058l-81.3994 -259.73l-31.5498 -95.25h230.6l-31.54 95.25l-81.96 259.73h-4.15039z" />
    <glyph glyph-name="Amacron" unicode="&#x100;" horiz-adv-x="628" 
d="M192.61 843.32h242.45c4.96973 0 8.2793 -3.30957 8.2793 -8.26953v-39.8604c0 -4.95996 -3.30957 -8.26953 -8.2793 -8.26953h-242.45c-4.96973 0 -8.2793 3.30957 -8.2793 8.26953v39.8604c0 4.95996 3.30957 8.26953 8.2793 8.26953zM266.881 700
l93.9404 -0.000976562c6.30957 0 10.3096 -3.98047 12.3096 -10.29l220.77 -681.44c1.32031 -4.95996 -1.96973 -8.26953 -6.92969 -8.26953h-61.1299c-6.30957 0 -10.3096 3.98047 -12.3096 10.29l-65.9502 199.27h-267.46l-65.9502 -199.27
c-2 -6.30957 -6 -10.29 -12.3096 -10.29h-61.1201c-4.96973 0 -8.25977 3.30957 -6.92969 8.26953l220.76 681.44c1.92969 6.12012 5.70996 10.0605 12.3096 10.291zM311.501 633.049l-81.3994 -259.72l-31.5498 -95.2598h230.6l-31.54 95.2598l-81.96 259.72h-4.15039z" />
    <glyph glyph-name="Aogonek" unicode="&#x104;" horiz-adv-x="628" 
d="M373.13 689.71l220.759 -681.441c1.33008 -4.96973 -1.95996 -8.2793 -6.92969 -8.2793c-46.5596 -39.4697 -90.25 -75.5195 -90.25 -121.27c0 -32.7598 22.4004 -48.1094 53.8203 -48.1094c10.71 0 19.4004 1.67969 29.1104 4.01953c4 1 7.32031 -1 7.32031 -5.66992
v-23.0596c0 -7.62988 -2.30957 -11.29 -9.95996 -13.9404c-9.98047 -3.98047 -26.2705 -6.96094 -41.8906 -6.96094c-47.9805 0 -88.2607 27 -88.2607 82.6201c0 41.3203 23.8203 78.71 89.6699 132.38h-10.6797c-6.30957 0 -10.3096 3.98047 -12.3096 10.29
l-65.9502 199.27h-267.46l-65.9502 -199.27c-2 -6.30957 -6 -10.29 -12.3096 -10.29h-61.1299c-4.95996 0 -8.25 3.30957 -6.92969 8.26953l220.77 681.44c1.91992 6.12012 5.7002 10.0605 12.3105 10.291h93.9404c6.30957 0 10.3096 -3.98047 12.3096 -10.29z
M429.148 278.068l-31.5391 95.25l-81.96 259.73h-4.15039l-81.4102 -259.73l-31.54 -95.25h230.6z" />
    <glyph glyph-name="Aring" unicode="&#xc5;" horiz-adv-x="628" 
d="M314 926.85c45.9102 0 82.4902 -36.5791 82.4902 -81.1494c0 -45.5596 -37.2598 -82.1396 -82.4902 -82.1396c-46.9102 0 -82.8203 37.25 -82.8203 82.1396c0 43.8896 35.9102 81.1494 82.8203 81.1494zM314 886.851c-24.7695 0 -40.7998 -18.4004 -40.7998 -40.4805
c0 -22.7402 16.0303 -42.8203 40.7998 -42.8203c24.7598 0 40.4697 20.0801 40.4697 42.8203c0 22.0801 -15.71 40.4805 -40.4697 40.4805zM266.88 700.001l93.9395 -0.000976562c6.30957 0 10.3096 -3.98047 12.3096 -10.29l220.76 -681.44
c1.33008 -4.95996 -1.95996 -8.26953 -6.92969 -8.26953h-61.1201c-6.30957 0 -10.3096 3.98047 -12.3096 10.29l-65.9502 199.27h-267.46l-65.9502 -199.27c-2 -6.30957 -6 -10.29 -12.3096 -10.29h-61.1299c-4.95996 -0 -8.25 3.30957 -6.92969 8.26953l220.77 681.44
c1.91992 6.12012 5.7002 10.0605 12.3105 10.291zM311.499 633.05l-81.4102 -259.72l-31.54 -95.2598h230.6l-31.5498 95.2598l-81.96 259.72h-4.13965z" />
    <glyph glyph-name="Atilde" unicode="&#xc3;" horiz-adv-x="628" 
d="M425.32 865.72h24.7402c5.32031 0 7.65039 -2.98047 5.65039 -8.98047c-17.1699 -52.5498 -51.5498 -89.9102 -95.1699 -89.9102h-4c-47.6904 0 -53.3408 44.0498 -93.0508 44.0498c-23.0596 0 -37.4795 -15.7197 -49.8594 -35.1602
c-2.98047 -4.65039 -6.30078 -6.65039 -11.2812 -6.65039h-24.75c-5.32031 0 -7.65039 2.98047 -5.65039 8.98047c17.1699 52.54 51.5498 89.9102 95.1699 89.9102h4c48.0195 0 54.9795 -44.0596 93.0596 -44.0596c22.4004 0 37.8008 16.0596 49.8506 35.1699
c2.98047 4.65039 6.31055 6.65039 11.291 6.65039zM266.881 699.989l93.9395 -0.000976562c6.30957 0 10.3096 -3.98047 12.3096 -10.29l220.76 -681.43c1.33008 -4.96973 -1.95996 -8.2793 -6.92969 -8.2793h-61.1201c-6.30957 0 -10.3096 3.98047 -12.3096 10.29
l-65.9502 199.28h-267.46l-65.9502 -199.28c-2 -6.30957 -6 -10.29 -12.3096 -10.29h-61.1299c-4.95996 0 -8.25 3.30957 -6.92969 8.2793l220.77 681.43c1.91992 6.12012 5.7002 10.0605 12.3105 10.291zM311.5 633.048l-81.4102 -259.73l-31.54 -95.25h230.6
l-31.5498 95.25l-81.96 259.73h-4.13965z" />
    <glyph glyph-name="AE" unicode="&#xc6;" horiz-adv-x="786" 
d="M392.62 393.96l319.819 0.0175781c4.95996 0 8.26953 -3.30957 8.26953 -8.2793v-51.96c0 -4.96973 -3.30957 -8.2793 -8.26953 -8.2793h-319.82v-256.94h343.09c4.95996 0 8.26953 -3.30957 8.26953 -8.2793v-51.96c0 -4.96973 -3.30957 -8.2793 -8.26953 -8.2793
h-412.18c-4.96973 -0 -8.2793 3.30957 -8.2793 8.2793v201.29h-135.13l-65.9502 -199.28c-2 -6.30957 -6 -10.29 -12.3096 -10.29h-61.1201c-4.96973 0 -8.25977 3.30957 -6.92969 8.2793l220.76 681.43c1.92969 6.12012 5.70996 10.0605 12.3096 10.291h468.83
c4.95996 0 8.26953 -3.30957 8.26953 -8.26953v-51.9697c0 -4.95996 -3.30957 -8.26953 -8.26953 -8.26953h-343.09v-237.53zM315.26 633.067h-3.75l-81.4102 -259.73l-31.54 -95.25h116.7v354.98z" />
    <glyph glyph-name="B" unicode="B" horiz-adv-x="603" 
d="M435.51 365.57c90.1602 -26.8096 126.001 -94.1777 126.001 -171.328v-15.0703c0 -115.4 -72.3701 -179.181 -217.48 -179.181h-252.12c-4.96973 0 -8.2793 3.30957 -8.2793 8.26953v683.46c0 4.95996 3.30957 8.26953 8.2793 8.26953h230.05
c141.75 0 216.13 -56.1104 216.13 -172.49v-13.0498c0 -62.3096 -33.6602 -119.479 -102.58 -148.88zM460.721 510.633l0.000976562 3.67871c0 74.3203 -38.8301 117.181 -143.36 117.181h-156.36v-242.08h149.63c107.89 0 150.09 56.9805 150.09 121.221zM482.502 191.071
v5.69043c0 70.9697 -37.1201 132.989 -154.83 132.989h-166.68v-261.24h178.11c105.6 0 143.399 48.2402 143.399 122.561z" />
    <glyph glyph-name="uni0243" unicode="&#x243;" horiz-adv-x="616" 
d="M448.27 365.57c90.1699 -26.8096 126.001 -94.1768 126.001 -171.327v-15.0801c0 -115.4 -72.3604 -179.181 -217.471 -179.181h-252.13c-4.95996 0 -8.26953 3.30957 -8.26953 8.2793v172.67h-54.6699c-4.96973 0 -8.2793 3.30957 -8.2793 8.2793v22.8301
c0 4.96973 3.30957 8.2793 8.2793 8.2793h54.6699v471.4c0 4.95996 3.30957 8.26953 8.26953 8.26953h230.06c141.74 0 216.12 -56.1104 216.12 -172.49v-13.0498c0 -62.3096 -33.6602 -119.479 -102.58 -148.88zM173.761 389.403l149.64 0.00878906
c107.89 0 150.09 56.9805 150.09 121.211v3.67969c0 74.3203 -38.8398 117.181 -143.359 117.181h-156.37v-242.08zM495.271 191.062v5.69922c0 70.96 -37.1201 132.979 -154.83 132.979h-166.68v-109.42h173.89c4.96973 0 8.2793 -3.30957 8.2793 -8.26953v-22.8398
c0 -4.95996 -3.30957 -8.26953 -8.2793 -8.26953h-173.89v-112.44h178.11c105.6 0 143.399 48.2402 143.399 122.561z" />
    <glyph glyph-name="C" unicode="C" horiz-adv-x="583" 
d="M356.38 713l11.6289 0.0078125c66.6904 0 130.69 -21.3799 164.44 -40.4395c5.30957 -2.65039 8.61914 -6.31055 8.61914 -14.251v-50.3096c0 -4.96973 -4.96973 -7.59961 -9.25977 -5.61914c-46.3096 23.3604 -92.7998 42.1104 -157.92 42.1104h-6.69043
c-119.26 0 -219.66 -83.5303 -219.66 -245.44v-98.1104c0 -161.91 100.4 -245.43 219.66 -245.43h6.69043c66.1104 0 114.23 19.7197 157.921 42.0996c4.29004 1.98047 9.25977 -0.649414 9.25977 -5.61914v-50.6299c0 -6.96973 -2.66016 -10.9502 -8.62012 -14.2598
c-33.0898 -19.0498 -98.7295 -40.1094 -164.439 -40.1094h-11.6299c-149.93 0 -287.84 105.95 -287.84 310.24v105.52c0 204.29 137.91 310.24 287.84 310.24z" />
    <glyph glyph-name="Cacute" unicode="&#x106;" horiz-adv-x="583" 
d="M323.49 785.16l72.96 156.041c2.65039 5.30957 6.29004 8.62988 13.9404 8.62988h49.29c5 0 8 -4.32031 5.67969 -9.32031l-86.4902 -155.69c-3.33008 -6 -5.98047 -7.98047 -12.6201 -7.98047h-38.4297c-4.33008 0 -6.65039 4 -4.33008 8.32031zM356.37 713.001
l11.6289 0.0078125c66.6904 0 130.69 -21.3799 164.44 -40.4395c5.30957 -2.65039 8.61914 -6.31055 8.61914 -14.251v-50.3096c0 -4.96973 -4.96973 -7.59961 -9.25977 -5.61914c-46.3096 23.3604 -92.7998 42.1104 -157.92 42.1104h-6.69043
c-119.26 0 -219.66 -83.5303 -219.66 -245.44v-98.1104c0 -161.91 100.4 -245.43 219.66 -245.43h6.69043c66.1104 0 114.23 19.7197 157.921 42.0996c4.29004 1.98047 9.25977 -0.649414 9.25977 -5.61914v-50.6299c0 -6.96973 -2.66016 -10.9502 -8.62012 -14.2598
c-33.0898 -19.0498 -98.7295 -40.1094 -164.439 -40.1094h-11.6299c-149.93 0 -287.84 105.95 -287.84 310.24v105.52c0 204.29 137.91 310.24 287.84 310.24z" />
    <glyph glyph-name="Ccaron" unicode="&#x10c;" horiz-adv-x="583" 
d="M434.91 949.83h44.0508c4.99023 0 8.66992 -4.32031 5.66992 -9.32031l-93.2197 -155.69c-3.33008 -6 -5.98047 -7.98047 -12.6201 -7.98047h-33.2002c-6.62988 0 -9.29004 1.98047 -12.6104 7.98047l-93.2197 155.69c-3 5 0.669922 9.32031 5.66992 9.32031h44.0596
c7.65039 0 11.29 -3.32031 13.9404 -8.62988l58.7695 -114.85l58.7598 114.85c2.66016 5.30957 6.29004 8.62988 13.9502 8.62988zM356.371 713l11.6387 0.0078125c66.6904 0 130.69 -21.3799 164.431 -40.4395c5.30957 -2.65039 8.61914 -6.31055 8.61914 -14.251v-50.3096
c0 -4.96973 -4.95996 -7.59961 -9.25 -5.61914c-46.3096 23.3604 -92.7998 42.1104 -157.93 42.1104h-6.69043c-119.25 0 -219.65 -83.5303 -219.65 -245.44v-98.1104c0 -161.91 100.4 -245.43 219.65 -245.43h6.69043c66.1104 0 114.24 19.7197 157.931 42.0996
c4.29004 1.98047 9.25 -0.649414 9.25 -5.61914v-50.6299c0 -6.96973 -2.65039 -10.9502 -8.62012 -14.2598c-33.0898 -19.0498 -98.7197 -40.1094 -164.43 -40.1094h-11.6396c-149.92 0 -287.83 105.95 -287.83 310.24v105.52c0 204.29 137.91 310.24 287.83 310.24z" />
    <glyph glyph-name="Ccedilla" unicode="&#xc7;" horiz-adv-x="583" 
d="M373.89 644.49l-6.68262 0.00683594c-119.25 0 -219.65 -83.5303 -219.65 -245.44v-98.1104c0 -161.91 100.4 -245.43 219.65 -245.43h6.69043c66.1104 0 114.24 19.7197 157.931 42.0996c4.29004 1.98047 9.25 -0.649414 9.25 -5.61914v-50.6299
c0 -6.96973 -2.65039 -10.9502 -8.62012 -14.2598c-33.0898 -19.0498 -98.7197 -40.1094 -164.43 -40.1094h-5.46973l-8.08008 -46.2197c7.08984 2.05957 18.46 4.10938 29.2002 4.10938c47.3496 0 80 -28.6504 80 -75.96c0 -54.6396 -42.3096 -83.9297 -100.869 -83.9297
c-29.2598 0 -54.9297 7.30957 -64.5898 11.29c-7.65039 2.98047 -9.95996 6.64062 -9.95996 14.2705v15.8604c0 4.66992 3.32031 6.66992 7.32031 5.66992c10.04 -2.33984 33.3496 -9.97949 59.3301 -9.97949c36.1104 0 59.5605 13.3799 59.5605 43.2002
c0 26.7998 -19.0898 40.1797 -46.8301 40.1797c-13.71 0 -27.75 -4.01953 -39.7305 -7c-4.33984 -1 -7.68945 -1.66992 -11.3594 1.34961l-3.66016 2.66992c-3.65039 2.67969 -6.65039 6.33008 -5.65039 10.6602l13.9199 75.8096
c-135.62 15.3604 -252.62 120.091 -252.62 308.261v105.52c0 204.29 137.91 310.24 287.84 310.24h11.6299c66.6904 0 130.69 -21.3799 164.44 -40.4395c5.30957 -2.65039 8.61914 -6.31055 8.61914 -14.251v-50.3096c0 -4.96973 -4.96973 -7.59961 -9.25977 -5.61914
c-46.3096 23.3604 -92.7998 42.1104 -157.92 42.1104z" />
    <glyph glyph-name="Cdotaccent" unicode="&#x10a;" horiz-adv-x="583" 
d="M327.14 877.85h69.9805c5.62988 0 8.93945 -3.30957 8.93945 -8.93945v-73.04c0 -5.62988 -3.30957 -8.93945 -8.93945 -8.93945h-69.9805c-5.63965 0 -8.94922 3.30957 -8.94922 8.93945v73.04c0 5.62988 3.30957 8.93945 8.94922 8.93945zM356.38 713
l11.6289 0.0078125c66.6904 0 130.69 -21.3799 164.44 -40.4395c5.30957 -2.65039 8.61914 -6.31055 8.61914 -14.251v-50.3096c0 -4.96973 -4.96973 -7.59961 -9.25977 -5.61914c-46.3096 23.3604 -92.7998 42.1104 -157.92 42.1104h-6.69043
c-119.26 0 -219.66 -83.5303 -219.66 -245.44v-98.1104c0 -161.91 100.4 -245.43 219.66 -245.43h6.69043c66.1104 0 114.23 19.7197 157.921 42.0996c4.29004 1.98047 9.25977 -0.649414 9.25977 -5.61914v-50.6299c0 -6.96973 -2.66016 -10.9502 -8.62012 -14.2598
c-33.0898 -19.0498 -98.7295 -40.1094 -164.439 -40.1094h-11.6299c-149.93 0 -287.84 105.95 -287.84 310.24v105.52c0 204.29 137.91 310.24 287.84 310.24z" />
    <glyph glyph-name="D" unicode="D" horiz-adv-x="659" 
d="M91.9102 700l230.52 -0.00878906c149.6 0 268.489 -95.3301 268.489 -299.62v-100.76c0 -204.29 -118.89 -299.62 -268.489 -299.62h-230.52c-4.96973 0 -8.2793 3.30957 -8.2793 8.2793v683.45c0 4.96973 3.30957 8.2793 8.2793 8.2793zM512.91 303.312v93.3398
c0 161.91 -79.75 234.82 -198.67 234.82h-153.24v-562.98h153.24c118.92 0 198.67 72.9102 198.67 234.82z" />
    <glyph glyph-name="Eth" unicode="&#xd0;" horiz-adv-x="659" 
d="M91.9102 700l230.52 -0.0078125c149.6 0 268.489 -95.3301 268.489 -299.62v-100.76c0 -204.29 -118.89 -299.62 -268.489 -299.62h-230.52c-4.96973 0 -8.2793 3.30957 -8.2793 8.2793v285.38h-41.9102c-4.95996 0 -8.26953 3.30957 -8.26953 8.26953v43.7803
c0 4.96973 3.30957 8.2793 8.26953 8.2793h41.9102v337.74c0 4.96973 3.30957 8.2793 8.2793 8.2793zM512.91 303.312v93.3486c0 161.91 -79.75 234.82 -198.67 234.82h-153.24v-277.51h176.18c4.96973 0 8.2793 -3.30957 8.2793 -8.2793v-43.7803
c0 -4.95996 -3.30957 -8.26953 -8.2793 -8.26953h-176.18v-225.15h153.24c118.92 0 198.67 72.9102 198.67 234.82z" />
    <glyph glyph-name="Dcaron" unicode="&#x10e;" horiz-adv-x="659" 
d="M352.39 949.83h44.0508c4.99023 0 8.66992 -4.32031 5.66992 -9.32031l-93.2197 -155.69c-3.33008 -6 -5.98047 -7.98047 -12.6201 -7.98047h-33.2002c-6.62988 0 -9.29004 1.98047 -12.6104 7.98047l-93.2197 155.69c-3 5 0.669922 9.32031 5.66992 9.32031h44.0596
c7.65039 0 11.29 -3.32031 13.9404 -8.62988l58.7695 -114.85l58.7598 114.85c2.66016 5.30957 6.29004 8.62988 13.9502 8.62988zM91.9004 700l230.53 -0.00878906c149.6 0 268.489 -95.3301 268.489 -299.62v-100.76c0 -204.29 -118.89 -299.62 -268.489 -299.62h-230.53
c-4.95996 0 -8.26953 3.30957 -8.26953 8.2793v683.45c0 4.96973 3.30957 8.2793 8.26953 8.2793zM512.9 303.312v93.3398c0 161.91 -79.7402 234.82 -198.67 234.82h-153.23v-562.98h153.23c118.93 0 198.67 72.9102 198.67 234.82z" />
    <glyph glyph-name="Dcroat" unicode="&#x110;" horiz-adv-x="659" 
d="M91.9102 700l230.52 -0.0078125c149.6 0 268.489 -95.3301 268.489 -299.62v-100.76c0 -204.29 -118.89 -299.62 -268.489 -299.62h-230.52c-4.96973 0 -8.2793 3.30957 -8.2793 8.2793v285.38h-41.9102c-4.95996 0 -8.26953 3.30957 -8.26953 8.26953v43.7803
c0 4.96973 3.30957 8.2793 8.26953 8.2793h41.9102v337.74c0 4.96973 3.30957 8.2793 8.2793 8.2793zM512.91 303.312v93.3486c0 161.91 -79.75 234.82 -198.67 234.82h-153.24v-277.51h176.18c4.96973 0 8.2793 -3.30957 8.2793 -8.2793v-43.7803
c0 -4.95996 -3.30957 -8.26953 -8.2793 -8.26953h-176.18v-225.15h153.24c118.92 0 198.67 72.9102 198.67 234.82z" />
    <glyph glyph-name="E" unicode="E" horiz-adv-x="554" 
d="M161 393.96l319.82 0.0078125c4.95996 0 8.26953 -3.30957 8.26953 -8.26953v-51.9697c0 -4.95996 -3.30957 -8.26953 -8.26953 -8.26953h-319.82v-256.95h343.09c4.95996 0 8.26953 -3.30957 8.26953 -8.26953v-51.9697c0 -4.95996 -3.30957 -8.26953 -8.26953 -8.26953
h-412.18c-4.96973 -0 -8.2793 3.30957 -8.2793 8.26953v683.46c0 4.95996 3.30957 8.26953 8.2793 8.26953h412.18c4.95996 0 8.26953 -3.30957 8.26953 -8.26953v-51.9697c0 -4.95996 -3.30957 -8.26953 -8.26953 -8.26953h-343.09v-237.53z" />
    <glyph glyph-name="Eacute" unicode="&#xc9;" horiz-adv-x="554" 
d="M260.07 785.16l72.9512 156.041c2.66016 5.30957 6.29004 8.62988 13.9502 8.62988h49.29c5 0 8 -4.32031 5.66992 -9.32031l-86.4902 -155.69c-3.32031 -6 -5.98047 -7.98047 -12.6104 -7.98047h-38.4404c-4.32031 0 -6.65039 4 -4.32031 8.32031zM160.991 393.961
l319.82 0.0078125c4.96973 0 8.2793 -3.30957 8.2793 -8.26953v-51.9697c0 -4.95996 -3.30957 -8.26953 -8.2793 -8.26953h-319.82v-256.95h343.09c4.96973 0 8.2793 -3.30957 8.2793 -8.26953v-51.9697c0 -4.95996 -3.30957 -8.26953 -8.2793 -8.26953h-412.18
c-4.95996 0 -8.26953 3.30957 -8.26953 8.26953v683.46c0 4.95996 3.30957 8.26953 8.26953 8.26953h412.18c4.96973 0 8.2793 -3.30957 8.2793 -8.26953v-51.9697c0 -4.95996 -3.30957 -8.26953 -8.2793 -8.26953h-343.09v-237.53z" />
    <glyph glyph-name="Ecaron" unicode="&#x11a;" horiz-adv-x="554" 
d="M364.09 949.83h44.0508c4.99023 0 8.66992 -4.32031 5.66992 -9.32031l-93.2197 -155.69c-3.33008 -6 -5.98047 -7.98047 -12.6201 -7.98047h-33.2002c-6.62988 0 -9.29004 1.98047 -12.6104 7.98047l-93.2197 155.69c-3 5 0.669922 9.32031 5.66992 9.32031h44.0596
c7.65039 0 11.29 -3.32031 13.9404 -8.62988l58.7695 -114.85l58.7598 114.85c2.66016 5.30957 6.29004 8.62988 13.9502 8.62988zM160.99 393.96l319.82 0.0078125c4.96973 0 8.2793 -3.30957 8.2793 -8.26953v-51.9697c0 -4.95996 -3.30957 -8.26953 -8.2793 -8.26953
h-319.82v-256.95h343.09c4.96973 0 8.2793 -3.30957 8.2793 -8.26953v-51.9697c0 -4.95996 -3.30957 -8.26953 -8.2793 -8.26953h-412.18c-4.95996 -0 -8.26953 3.30957 -8.26953 8.26953v683.46c0 4.95996 3.30957 8.26953 8.26953 8.26953h412.18
c4.96973 0 8.2793 -3.30957 8.2793 -8.26953v-51.9697c0 -4.95996 -3.30957 -8.26953 -8.2793 -8.26953h-343.09v-237.53z" />
    <glyph glyph-name="Ecircumflex" unicode="&#xca;" horiz-adv-x="554" 
d="M324.5 941.85l93.2188 -155.69c3.00977 -5 -0.669922 -9.32031 -5.66992 -9.32031h-44.0498c-7.66016 0 -11.29 3.32031 -13.9502 8.62988l-58.7598 114.85l-58.7695 -114.85c-2.65039 -5.30957 -6.29004 -8.62988 -13.9404 -8.62988h-44.0596
c-5 0 -8.66992 4.32031 -5.66992 9.32031l93.2197 155.69c3.32031 6 5.98047 7.98047 12.6104 7.98047h33.2002c6.63965 0 9.29004 -1.98047 12.6201 -7.98047zM160.999 393.969l319.82 0.00683594c4.96973 0 8.2793 -3.30957 8.2793 -8.2793v-51.96
c0 -4.96973 -3.30957 -8.2793 -8.2793 -8.2793h-319.82v-256.94h343.09c4.96973 0 8.2793 -3.30957 8.2793 -8.2793v-51.96c0 -4.96973 -3.30957 -8.2793 -8.2793 -8.2793h-412.18c-4.95996 0 -8.26953 3.30957 -8.26953 8.2793v683.45
c0 4.96973 3.30957 8.2793 8.26953 8.2793h412.18c4.96973 0 8.2793 -3.30957 8.2793 -8.2793v-51.96c0 -4.96973 -3.30957 -8.2793 -8.2793 -8.2793h-343.09v-237.52z" />
    <glyph glyph-name="Edieresis" unicode="&#xcb;" horiz-adv-x="554" 
d="M184.06 877.85h61.4805c5.62988 0 8.93945 -3.30957 8.93945 -8.93945v-73.04c0 -5.62988 -3.30957 -8.93945 -8.93945 -8.93945h-61.4805c-5.62988 0 -8.93945 3.30957 -8.93945 8.93945v73.04c0 5.62988 3.30957 8.93945 8.93945 8.93945zM338.03 877.85h61.4697
c5.63965 0 8.94922 -3.30957 8.94922 -8.93945v-73.04c0 -5.62988 -3.30957 -8.93945 -8.94922 -8.93945h-61.4697c-5.63965 0 -8.94922 3.30957 -8.94922 8.93945v73.04c0 5.62988 3.30957 8.93945 8.94922 8.93945zM161 393.96l319.82 0.0078125
c4.96973 0 8.2793 -3.30957 8.2793 -8.26953v-51.9697c0 -4.95996 -3.30957 -8.26953 -8.2793 -8.26953h-319.82v-256.95h343.09c4.96973 0 8.2793 -3.30957 8.2793 -8.26953v-51.9697c0 -4.95996 -3.30957 -8.26953 -8.2793 -8.26953h-412.18
c-4.95996 -0 -8.26953 3.30957 -8.26953 8.26953v683.46c0 4.95996 3.30957 8.26953 8.26953 8.26953h412.18c4.96973 0 8.2793 -3.30957 8.2793 -8.26953v-51.9697c0 -4.95996 -3.30957 -8.26953 -8.2793 -8.26953h-343.09v-237.53z" />
    <glyph glyph-name="Edotaccent" unicode="&#x116;" horiz-adv-x="554" 
d="M261.04 877.85h69.9805c5.63965 0 8.94922 -3.30957 8.94922 -8.93945v-73.04c0 -5.62988 -3.30957 -8.93945 -8.94922 -8.93945h-69.9805c-5.62988 0 -8.93945 3.30957 -8.93945 8.93945v73.04c0 5.62988 3.30957 8.93945 8.93945 8.93945zM161.001 393.96
l319.82 0.0078125c4.95996 0 8.26953 -3.30957 8.26953 -8.26953v-51.9697c0 -4.95996 -3.30957 -8.26953 -8.26953 -8.26953h-319.82v-256.95h343.09c4.95996 0 8.26953 -3.30957 8.26953 -8.26953v-51.9697c0 -4.95996 -3.30957 -8.26953 -8.26953 -8.26953h-412.18
c-4.96973 -0 -8.2793 3.30957 -8.2793 8.26953v683.46c0 4.95996 3.30957 8.26953 8.2793 8.26953h412.18c4.95996 0 8.26953 -3.30957 8.26953 -8.26953v-51.9697c0 -4.95996 -3.30957 -8.26953 -8.26953 -8.26953h-343.09v-237.53z" />
    <glyph glyph-name="Egrave" unicode="&#xc8;" horiz-adv-x="554" 
d="M252.97 941.2l72.96 -156.041c2.32031 -4.32031 0 -8.32031 -4.33008 -8.32031h-38.4297c-6.63965 0 -9.29004 1.98047 -12.6201 7.98047l-86.4902 155.69c-2.32031 5 0.679688 9.32031 5.67969 9.32031h49.29c7.65039 0 11.29 -3.32031 13.9404 -8.62988z
M160.989 393.969l319.82 0.00683594c4.96973 0 8.2793 -3.30957 8.2793 -8.2793v-51.96c0 -4.96973 -3.30957 -8.2793 -8.2793 -8.2793h-319.82v-256.94h343.09c4.96973 0 8.2793 -3.30957 8.2793 -8.2793v-51.96c0 -4.96973 -3.30957 -8.2793 -8.2793 -8.2793h-412.18
c-4.95996 0 -8.26953 3.30957 -8.26953 8.2793v683.45c0 4.96973 3.30957 8.2793 8.26953 8.2793h412.18c4.96973 0 8.2793 -3.30957 8.2793 -8.2793v-51.96c0 -4.96973 -3.30957 -8.2793 -8.2793 -8.2793h-343.09v-237.52z" />
    <glyph glyph-name="Emacron" unicode="&#x112;" horiz-adv-x="554" 
d="M172.78 843.32h242.46c4.95996 0 8.26953 -3.30957 8.26953 -8.26953v-39.8604c0 -4.95996 -3.30957 -8.26953 -8.26953 -8.26953h-242.46c-4.95996 0 -8.26953 3.30957 -8.26953 8.26953v39.8604c0 4.95996 3.30957 8.26953 8.26953 8.26953zM161 393.96
l319.82 0.0078125c4.95996 0 8.26953 -3.30957 8.26953 -8.26953v-51.9697c0 -4.95996 -3.30957 -8.26953 -8.26953 -8.26953h-319.82v-256.95h343.09c4.95996 0 8.26953 -3.30957 8.26953 -8.26953v-51.9697c0 -4.95996 -3.30957 -8.26953 -8.26953 -8.26953h-412.18
c-4.96973 -0 -8.2793 3.30957 -8.2793 8.26953v683.46c0 4.95996 3.30957 8.26953 8.2793 8.26953h412.18c4.95996 0 8.26953 -3.30957 8.26953 -8.26953v-51.9697c0 -4.95996 -3.30957 -8.26953 -8.26953 -8.26953h-343.09v-237.53z" />
    <glyph glyph-name="Eogonek" unicode="&#x118;" horiz-adv-x="554" 
d="M161 631.49l-0.000976562 -237.523h319.82c4.95996 0 8.26953 -3.30957 8.26953 -8.2793v-51.96c0 -4.96973 -3.30957 -8.2793 -8.26953 -8.2793h-319.82v-256.94h343.09c4.95996 0 8.26953 -3.30957 8.26953 -8.2793v-51.96
c0 -4.96973 -3.30957 -8.2793 -8.26953 -8.2793h-0.679688c-46.5596 -39.4697 -90.25 -75.5195 -90.25 -121.27c0 -32.7598 22.4004 -48.1094 53.8203 -48.1094c10.71 0 19.4004 1.67969 29.1104 4.01953c4 1 7.33008 -1 7.33008 -5.66992v-23.0596
c0 -7.62988 -2.30957 -11.29 -9.96973 -13.9404c-9.98047 -3.98047 -26.2705 -6.96094 -41.8906 -6.96094c-47.9805 0 -88.25 27 -88.25 82.6201c0 42.4004 25.0703 80.6504 89.5107 132.381h-360.91c-4.96973 -0 -8.2793 3.30957 -8.2793 8.26953v683.46
c0 4.95996 3.30957 8.26953 8.2793 8.26953h412.18c4.95996 0 8.26953 -3.30957 8.26953 -8.26953v-51.9697c0 -4.95996 -3.30957 -8.26953 -8.26953 -8.26953h-343.09z" />
    <glyph glyph-name="F" unicode="F" horiz-adv-x="554" 
d="M91.9102 700l412.18 -0.00195312c4.96973 0 8.2793 -3.30957 8.2793 -8.26953v-51.9697c0 -4.95996 -3.30957 -8.26953 -8.2793 -8.26953h-343.09v-241.13h319.82c4.96973 0 8.2793 -3.30957 8.2793 -8.26953v-51.9697c0 -4.95996 -3.30957 -8.26953 -8.2793 -8.26953
h-319.82v-313.58c0 -4.96973 -3.30957 -8.2793 -8.26953 -8.2793h-60.8203c-4.96973 0 -8.2793 3.30957 -8.2793 8.2793v683.45c0 4.96973 3.30957 8.2793 8.2793 8.2793z" />
    <glyph glyph-name="G" unicode="G" horiz-adv-x="645" 
d="M368.74 713l11.6338 -0.000976562c67.3496 0 131.67 -22.04 164.439 -40.7598c5.30957 -2.66016 8.61914 -6.31055 8.61914 -14.2607v-49.9805c0 -4.62988 -4.30957 -7.59961 -9.25977 -5.61914c-51.8701 25 -93.4502 42.1104 -157.931 42.1104h-6.69043
c-122.91 0 -232 -83.5195 -232 -245.43v-98.1104c0 -161.91 100.58 -245.44 223.49 -245.44h6.69043c43.46 0 81.1396 11.6797 111.09 26.1602v256.91c0 4.96973 3.30957 8.2793 8.2793 8.2793h59.5098c4.95996 0 8.26953 -3.30957 8.26953 -8.2793v-285.43
c0 -7.62012 -2.65039 -12.9102 -8.29004 -16.5498c-34.0703 -22 -107.24 -49.9199 -178.84 -49.5996h-11.6299c-153.58 0 -298.91 105.95 -297.561 310.24v105.52c0 204.29 146.6 310.24 300.18 310.24z" />
    <glyph glyph-name="Gbreve" unicode="&#x11e;" horiz-adv-x="645" 
d="M493.53 871.08c5.96973 3.33008 11.2715 0.330078 11.2715 -5.95996v-36.5498c0 -6.30957 -2.66016 -9.62988 -6.31055 -12.29c-19 -15 -67.9697 -39.3604 -127.95 -39.3604s-108.94 24.3604 -127.94 39.3604c-3.66016 2.66016 -6.31055 5.98047 -6.31055 12.29v36.5498
c0 6.29004 5.30957 9.29004 11.2695 5.95996c30.9102 -17.3398 67.2803 -38.0898 122.99 -38.0898s92.0703 20.75 122.98 38.0898zM368.732 713l11.6338 -0.000976562c67.3496 0 131.67 -22.04 164.439 -40.7598c5.30957 -2.66016 8.61914 -6.31055 8.61914 -14.2607
v-49.9805c0 -4.62988 -4.30957 -7.59961 -9.25977 -5.61914c-51.8701 25 -93.4502 42.1104 -157.931 42.1104h-6.69043c-122.91 0 -232 -83.5195 -232 -245.43v-98.1104c0 -161.91 100.58 -245.44 223.49 -245.44h6.69043c43.46 0 81.1396 11.6797 111.09 26.1602v256.91
c0 4.96973 3.30957 8.2793 8.2793 8.2793h59.5098c4.95996 0 8.26953 -3.30957 8.26953 -8.2793v-285.43c0 -7.62012 -2.65039 -12.9102 -8.29004 -16.5498c-34.0703 -22 -107.24 -49.9199 -178.84 -49.5996h-11.6299c-153.58 0 -298.91 105.95 -297.561 310.24v105.52
c0 204.29 146.6 310.24 300.18 310.24z" />
    <glyph glyph-name="Gcommaaccent" unicode="&#x122;" horiz-adv-x="645" 
d="M368.74 713l11.6338 -0.000976562c67.3496 0 131.67 -22.04 164.439 -40.7598c5.30957 -2.66016 8.61914 -6.31055 8.61914 -14.2607v-49.9805c0 -4.62988 -4.30957 -7.59961 -9.25977 -5.61914c-51.8701 25 -93.4502 42.1104 -157.931 42.1104h-6.69043
c-122.91 0 -232 -83.5195 -232 -245.43v-98.1104c0 -161.91 100.58 -245.44 223.49 -245.44h6.69043c43.46 0 81.1396 11.6797 111.09 26.1602v256.91c0 4.96973 3.30957 8.2793 8.2793 8.2793h59.5098c4.95996 0 8.26953 -3.30957 8.26953 -8.2793v-285.43
c0 -7.62012 -2.65039 -12.9102 -8.29004 -16.5498c-34.0703 -22 -107.24 -49.9199 -178.84 -49.5996h-11.6299c-153.58 0 -298.91 105.95 -297.561 310.24v105.52c0 204.29 146.6 310.24 300.18 310.24zM330.714 -49.9209h72.3105
c5.62988 0 8.93945 -3.30957 8.93945 -8.93945v-53.0996c0 -5.62012 -0.219727 -11.1201 -2.62988 -16.54l-41.46 -109.14c-2.20996 -4.7002 -5.94043 -7.28027 -10.2305 -7.28027h-36.5996c-6.33008 0 -8 5.58984 -5.98047 10.3096l40.7803 105.11h-25.1299
c-5.62988 0 -8.93945 3.30957 -8.93945 8.93945v61.7002c0 5.62988 3.30957 8.93945 8.93945 8.93945z" />
    <glyph glyph-name="Gdotaccent" unicode="&#x120;" horiz-adv-x="645" 
d="M323.65 877.85h69.9805c5.62988 0 8.93945 -3.30957 8.93945 -8.94922v-73.0303c0 -5.63965 -3.30957 -8.94922 -8.93945 -8.94922h-69.9805c-5.63965 0 -8.94922 3.30957 -8.94922 8.94922v73.0303c0 5.63965 3.30957 8.94922 8.94922 8.94922zM368.741 713
l11.6338 -0.000976562c67.3496 0 131.67 -22.04 164.439 -40.7598c5.30957 -2.66016 8.61914 -6.31055 8.61914 -14.2607v-49.9805c0 -4.62988 -4.30957 -7.59961 -9.25977 -5.61914c-51.8701 25 -93.4502 42.1104 -157.931 42.1104h-6.69043
c-122.91 0 -232 -83.5195 -232 -245.43v-98.1104c0 -161.91 100.58 -245.44 223.49 -245.44h6.69043c43.46 0 81.1396 11.6797 111.09 26.1602v256.91c0 4.96973 3.30957 8.2793 8.2793 8.2793h59.5098c4.95996 0 8.26953 -3.30957 8.26953 -8.2793v-285.43
c0 -7.62012 -2.65039 -12.9102 -8.29004 -16.5498c-34.0703 -22 -107.24 -49.9199 -178.84 -49.5996h-11.6299c-153.58 0 -298.91 105.95 -297.561 310.24v105.52c0 204.29 146.6 310.24 300.18 310.24z" />
    <glyph glyph-name="H" unicode="H" horiz-adv-x="680" 
d="M527.32 700h60.8203c4.96973 0 8.2793 -3.30957 8.2793 -8.2793v-683.45c0 -4.96973 -3.30957 -8.2793 -8.2793 -8.2793h-60.8203c-4.95996 0 -8.26953 3.30957 -8.26953 8.2793v317.18h-358.06v-317.18c0 -4.96973 -3.30957 -8.2793 -8.26953 -8.2793h-60.8203
c-4.96973 0 -8.2793 3.30957 -8.2793 8.2793v683.45c0 4.96973 3.30957 8.2793 8.2793 8.2793h60.8203c4.95996 0 8.26953 -3.30957 8.26953 -8.2793v-297.76h358.06v297.76c0 4.96973 3.30957 8.2793 8.26953 8.2793z" />
    <glyph glyph-name="Hbar" unicode="&#x126;" horiz-adv-x="700" 
d="M606.63 557.16h52.0195c4.96973 0 8.2793 -3.30957 8.2793 -8.26953v-43.7803c0 -4.96973 -3.30957 -8.2793 -8.2793 -8.2793h-52.0195v-488.56c0 -4.96973 -3.30957 -8.2793 -8.26953 -8.2793h-60.8203c-4.96973 0 -8.2793 3.30957 -8.2793 8.2793v317.18h-358.05
v-317.18c0 -4.96973 -3.30957 -8.2793 -8.2793 -8.2793h-60.8203c-4.95996 0 -8.26953 3.30957 -8.26953 8.2793v488.56h-52.1299c-4.95996 0 -8.26953 3.30957 -8.26953 8.2793v43.7803c0 4.95996 3.30957 8.26953 8.26953 8.26953h52.1299v134.56
c0 4.96973 3.30957 8.2793 8.26953 8.2793h60.8203c4.96973 0 8.2793 -3.30957 8.2793 -8.2793v-134.56h358.05v134.56c0 4.96973 3.30957 8.2793 8.2793 8.2793h60.8203c4.95996 0 8.26953 -3.30957 8.26953 -8.2793v-134.56zM529.27 496.83h-358.06v-102.87h358.06v102.87
z" />
    <glyph glyph-name="I" unicode="I" horiz-adv-x="245" 
d="M91.9102 700h60.8203c4.95996 0 8.26953 -3.30957 8.26953 -8.2793v-683.45c0 -4.96973 -3.30957 -8.2793 -8.26953 -8.2793h-60.8203c-4.96973 0 -8.2793 3.30957 -8.2793 8.2793v683.45c0 4.96973 3.30957 8.2793 8.2793 8.2793z" />
    <glyph glyph-name="IJ" unicode="&#x132;" horiz-adv-x="635" 
d="M91.9102 700h60.8203c4.95996 0 8.26953 -3.30957 8.26953 -8.2793v-683.45c0 -4.96973 -3.30957 -8.2793 -8.26953 -8.2793h-60.8203c-4.96973 0 -8.2793 3.30957 -8.2793 8.2793v683.45c0 4.96973 3.30957 8.2793 8.2793 8.2793zM480.91 700l62.4521 -0.00195312
c4.96973 0 8.2793 -3.30957 8.2793 -8.2793v-513.83c0 -137.64 -70.0195 -190.89 -161.5 -190.89h-5c-32.6904 0 -73.7207 11.0303 -100.74 26.7607c-3.98047 2 -6.31055 5.65039 -6.31055 10.3105v52.96c0 5.29004 4.63965 8.27051 9.59961 5.62012
c27.4404 -16.7695 55.8701 -27.1494 86.0205 -27.1494h3.65039c58.8398 0 95.2695 35.0898 95.2695 123.8v512.42c0 4.96973 3.30957 8.2793 8.2793 8.2793z" />
    <glyph glyph-name="Iacute" unicode="&#xcd;" horiz-adv-x="245" 
d="M95.6904 785.16l72.96 156.031c2.65039 5.30957 6.29004 8.63965 13.9404 8.63965h49.29c5 0 8 -4.33008 5.67969 -9.33008l-86.4902 -155.69c-3.33008 -6 -5.98047 -7.98047 -12.6201 -7.98047h-38.4297c-4.33008 0 -6.65039 4 -4.33008 8.33008zM91.9004 700.001
h60.8203c4.95996 0 8.26953 -3.30957 8.26953 -8.2793v-683.45c0 -4.96973 -3.30957 -8.2793 -8.26953 -8.2793h-60.8203c-4.96973 0 -8.2793 3.30957 -8.2793 8.2793v683.45c0 4.96973 3.30957 8.2793 8.2793 8.2793z" />
    <glyph glyph-name="Icaron" unicode="&#x1cf;" horiz-adv-x="245" 
d="M195.52 949.83h44.0508c5 0 8.66992 -4.32031 5.66992 -9.32031l-93.2197 -155.69c-3.32031 -6 -5.98047 -7.98047 -12.6104 -7.98047h-33.2002c-6.63965 0 -9.29004 1.98047 -12.6201 7.98047l-93.2197 155.69c-3 5 0.679688 9.32031 5.67969 9.32031h44.0498
c7.66016 0 11.29 -3.32031 13.9502 -8.62988l58.7598 -114.85l58.7695 114.85c2.65039 5.30957 6.29004 8.62988 13.9404 8.62988zM91.9004 700h60.8203c4.95996 0 8.26953 -3.30957 8.26953 -8.2793v-683.45c0 -4.96973 -3.30957 -8.2793 -8.26953 -8.2793h-60.8203
c-4.96973 0 -8.2793 3.30957 -8.2793 8.2793v683.45c0 4.96973 3.30957 8.2793 8.2793 8.2793z" />
    <glyph glyph-name="Icircumflex" unicode="&#xce;" horiz-adv-x="245" 
d="M152.03 941.85l93.2285 -155.69c3 -5 -0.669922 -9.33008 -5.66992 -9.33008h-44.0596c-7.65039 0 -11.29 3.33008 -13.9404 8.63965l-58.7695 114.85l-58.7598 -114.85c-2.66016 -5.30957 -6.29004 -8.63965 -13.9502 -8.63965h-44.0498
c-5 0 -8.67969 4.33008 -5.67969 9.33008l93.2197 155.69c3.33008 6 5.98047 7.98047 12.6201 7.98047h33.2002c6.62988 0 9.29004 -1.98047 12.6104 -7.98047zM91.9092 699.999h60.8203c4.96973 0 8.2793 -3.30957 8.2793 -8.2793v-683.45
c0 -4.96973 -3.30957 -8.2793 -8.2793 -8.2793h-60.8203c-4.95996 0 -8.26953 3.30957 -8.26953 8.2793v683.45c0 4.96973 3.30957 8.2793 8.26953 8.2793z" />
    <glyph glyph-name="Idieresis" unicode="&#xcf;" horiz-adv-x="245" 
d="M15.0996 877.85h61.4697c5.63965 0 8.94922 -3.30957 8.94922 -8.94922v-73.0303c0 -5.63965 -3.30957 -8.94922 -8.94922 -8.94922h-61.4697c-5.63965 0 -8.94922 3.30957 -8.94922 8.94922v73.0303c0 5.63965 3.30957 8.94922 8.94922 8.94922zM169.06 877.85h61.4805
c5.62988 0 8.93945 -3.30957 8.93945 -8.94922v-73.0303c0 -5.63965 -3.30957 -8.94922 -8.93945 -8.94922h-61.4805c-5.62988 0 -8.93945 3.30957 -8.93945 8.94922v73.0303c0 5.63965 3.30957 8.94922 8.93945 8.94922zM91.9102 700h60.8203
c4.96973 0 8.2793 -3.30957 8.2793 -8.2793v-683.45c0 -4.96973 -3.30957 -8.2793 -8.2793 -8.2793h-60.8203c-4.95996 0 -8.26953 3.30957 -8.26953 8.2793v683.45c0 4.96973 3.30957 8.2793 8.26953 8.2793z" />
    <glyph glyph-name="Idotaccent" unicode="&#x130;" horiz-adv-x="245" 
d="M87.8203 877.85h69.9805c5.63965 0 8.94922 -3.30957 8.94922 -8.94922v-73.0303c0 -5.63965 -3.30957 -8.94922 -8.94922 -8.94922h-69.9805c-5.62988 0 -8.93945 3.30957 -8.93945 8.94922v73.0303c0 5.63965 3.30957 8.94922 8.93945 8.94922zM91.9004 700h60.8203
c4.96973 0 8.2793 -3.30957 8.2793 -8.2793v-683.45c0 -4.96973 -3.30957 -8.2793 -8.2793 -8.2793h-60.8203c-4.95996 0 -8.26953 3.30957 -8.26953 8.2793v683.45c0 4.96973 3.30957 8.2793 8.26953 8.2793z" />
    <glyph glyph-name="Igrave" unicode="&#xcc;" horiz-adv-x="245" 
d="M75.1104 941.19l72.9512 -156.031c2.33008 -4.33008 0 -8.33008 -4.32031 -8.33008h-38.4404c-6.62988 0 -9.29004 1.98047 -12.6104 7.98047l-86.4902 155.69c-2.33008 5 0.669922 9.33008 5.66992 9.33008h49.29c7.66016 0 11.29 -3.33008 13.9502 -8.63965z
M91.9014 699.999h60.8203c4.95996 0 8.26953 -3.30957 8.26953 -8.2793v-683.45c0 -4.96973 -3.30957 -8.2793 -8.26953 -8.2793h-60.8203c-4.96973 0 -8.2793 3.30957 -8.2793 8.2793v683.45c0 4.96973 3.30957 8.2793 8.2793 8.2793z" />
    <glyph glyph-name="Imacron" unicode="&#x12a;" horiz-adv-x="245" 
d="M1.58984 843.32h242.45c4.96973 0 8.2793 -3.30957 8.2793 -8.26953v-39.8604c0 -4.95996 -3.30957 -8.26953 -8.2793 -8.26953h-242.45c-4.96973 0 -8.2793 3.30957 -8.2793 8.26953v39.8604c0 4.95996 3.30957 8.26953 8.2793 8.26953zM91.9102 700h60.8203
c4.95996 0 8.26953 -3.30957 8.26953 -8.2793v-683.45c0 -4.96973 -3.30957 -8.2793 -8.26953 -8.2793h-60.8203c-4.96973 0 -8.2793 3.30957 -8.2793 8.2793v683.45c0 4.96973 3.30957 8.2793 8.2793 8.2793z" />
    <glyph glyph-name="Iogonek" unicode="&#x12e;" horiz-adv-x="245" 
d="M91.9102 700l60.8105 -0.00976562c4.95996 0 8.26953 -3.30957 8.26953 -8.26953v-683.46c0 -4.95996 -3.30957 -8.26953 -8.26953 -8.26953c-46.5596 -39.4697 -90.25 -75.5293 -90.25 -121.27c0 -32.7695 22.4004 -48.1094 53.8203 -48.1094
c10.71 0 19.4004 1.66992 29.1104 4.01953c4 1 7.32031 -1 7.32031 -5.67969v-23.0498c0 -7.63965 -2.30957 -11.29 -9.95996 -13.9502c-9.98047 -3.98047 -26.2705 -6.96094 -41.8906 -6.96094c-47.9805 0 -88.2607 27 -88.2607 82.6201
c0 40.8604 23.29 77.8701 89.75 132.38h-10.4502c-4.96973 0 -8.2793 3.30957 -8.2793 8.2793v683.45c0 4.96973 3.30957 8.2793 8.2793 8.2793z" />
    <glyph glyph-name="J" unicode="J" horiz-adv-x="391" 
d="M236.27 700l62.4521 -0.00195312c4.96973 0 8.2793 -3.30957 8.2793 -8.2793v-513.83c0 -137.64 -70.0195 -190.89 -161.5 -190.89h-5c-32.6904 0 -73.7207 11.0303 -100.74 26.7607c-3.98047 2 -6.31055 5.65039 -6.31055 10.3105v52.96
c0 5.29004 4.63965 8.27051 9.59961 5.62012c27.4404 -16.7695 55.8701 -27.1494 86.0205 -27.1494h3.65039c58.8398 0 95.2695 35.0898 95.2695 123.8v512.42c0 4.96973 3.30957 8.2793 8.2793 8.2793z" />
    <glyph glyph-name="K" unicode="K" horiz-adv-x="617" 
d="M339.11 354.65l243.199 -343.372c2.98047 -4.96973 0.34082 -11.2793 -5.61914 -11.2793h-69.3799c-4.63965 0 -8.26953 1.98047 -10.9297 5.9502l-225.36 312.49h-110.02v-310.17c0 -4.95996 -3.30957 -8.26953 -8.2793 -8.26953h-60.8203
c-4.95996 -0 -8.26953 3.30957 -8.26953 8.26953v683.46c0 4.95996 3.30957 8.26953 8.26953 8.26953h60.8203c4.96973 0 8.2793 -3.30957 8.2793 -8.26953v-304.78h109.27l210.69 307.11c2.66016 3.95996 6.29004 5.94043 10.9297 5.94043h67.4004
c5.95996 0 8.26953 -6.30957 5.28906 -11.2695z" />
    <glyph glyph-name="Kcommaaccent" unicode="&#x136;" horiz-adv-x="617" 
d="M339.11 354.65l243.199 -343.372c2.98047 -4.96973 0.34082 -11.2793 -5.61914 -11.2793h-69.3799c-4.63965 0 -8.26953 1.98047 -10.9297 5.9502l-225.36 312.49h-110.02v-310.17c0 -4.95996 -3.30957 -8.26953 -8.2793 -8.26953h-60.8203
c-4.95996 -0 -8.26953 3.30957 -8.26953 8.26953v683.46c0 4.95996 3.30957 8.26953 8.26953 8.26953h60.8203c4.96973 0 8.2793 -3.30957 8.2793 -8.26953v-304.78h109.27l210.69 307.11c2.66016 3.95996 6.29004 5.94043 10.9297 5.94043h67.4004
c5.95996 0 8.26953 -6.30957 5.28906 -11.2695zM276.149 -49.9121h72.3105c5.62988 0 8.93945 -3.30957 8.93945 -8.93945v-53.0996c0 -5.62012 -0.219727 -11.1201 -2.62988 -16.54l-41.46 -109.14c-2.20996 -4.7002 -5.94043 -7.28027 -10.2305 -7.28027h-36.5996
c-6.33008 0 -8 5.58984 -5.98047 10.3096l40.7803 105.11h-25.1299c-5.62988 0 -8.93945 3.30957 -8.93945 8.93945v61.7002c0 5.62988 3.30957 8.93945 8.93945 8.93945z" />
    <glyph glyph-name="L" unicode="L" horiz-adv-x="523" 
d="M161 68.5098l319.811 -0.000976562c4.96973 0 8.2793 -3.30957 8.2793 -8.26953v-51.9697c0 -4.95996 -3.30957 -8.26953 -8.2793 -8.26953h-388.91c-4.95996 -0 -8.26953 3.30957 -8.26953 8.26953v683.46c0 4.95996 3.30957 8.26953 8.26953 8.26953h60.8203
c4.96973 0 8.2793 -3.30957 8.2793 -8.26953v-623.22z" />
    <glyph glyph-name="Lacute" unicode="&#x139;" horiz-adv-x="523" 
d="M98.0898 785.16l72.96 156.031c2.65039 5.30957 6.29004 8.63965 13.9404 8.63965h49.29c5 0 8 -4.33008 5.67969 -9.33008l-86.4902 -155.69c-3.33008 -6 -5.98047 -7.98047 -12.6201 -7.98047h-38.4297c-4.33008 0 -6.65039 4 -4.33008 8.33008zM160.99 68.501
l319.811 0.00878906c4.96973 0 8.2793 -3.30957 8.2793 -8.2793v-51.96c0 -4.96973 -3.30957 -8.2793 -8.2793 -8.2793h-388.91c-4.95996 0 -8.26953 3.30957 -8.26953 8.2793v683.45c0 4.96973 3.30957 8.2793 8.26953 8.2793h60.8203
c4.96973 0 8.2793 -3.30957 8.2793 -8.2793v-623.22z" />
    <glyph glyph-name="Lcaron" unicode="&#x13d;" horiz-adv-x="523" 
d="M161 68.5098l319.811 -0.000976562c4.96973 0 8.2793 -3.30957 8.2793 -8.26953v-51.9697c0 -4.95996 -3.30957 -8.26953 -8.2793 -8.26953h-388.91c-4.95996 -0 -8.26953 3.30957 -8.26953 8.26953v683.46c0 4.95996 3.30957 8.26953 8.26953 8.26953h60.8203
c4.96973 0 8.2793 -3.30957 8.2793 -8.26953v-623.22zM365.681 699.999h72.3105c5.62988 0 8.93945 -3.30957 8.93945 -8.93945v-53.0996c0 -5.62012 -0.219727 -11.1201 -2.62988 -16.54l-41.46 -109.14c-2.20996 -4.7002 -5.94043 -7.28027 -10.2305 -7.28027h-36.5996
c-6.33008 0 -8 5.58984 -5.98047 10.3096l40.7803 105.11h-25.1299c-5.62988 0 -8.93945 3.30957 -8.93945 8.93945v61.7002c0 5.62988 3.30957 8.93945 8.93945 8.93945z" />
    <glyph glyph-name="Lcommaaccent" unicode="&#x13b;" horiz-adv-x="523" 
d="M161 68.5098l319.811 -0.000976562c4.96973 0 8.2793 -3.30957 8.2793 -8.26953v-51.9697c0 -4.95996 -3.30957 -8.26953 -8.2793 -8.26953h-388.91c-4.95996 -0 -8.26953 3.30957 -8.26953 8.26953v683.46c0 4.95996 3.30957 8.26953 8.26953 8.26953h60.8203
c4.96973 0 8.2793 -3.30957 8.2793 -8.26953v-623.22zM229.041 -49.9111l72.3018 0.000976562c5.63965 0 8.94922 -3.30957 8.94922 -8.94922v-53.0898c0 -5.62012 -0.230469 -11.1201 -2.64062 -16.5498l-41.4502 -109.14
c-2.20996 -4.7002 -5.9502 -7.27051 -10.2402 -7.27051h-36.5996c-6.32031 0 -8 5.58984 -5.98047 10.3096l40.7803 105.1h-25.1201c-5.63965 0 -8.94922 3.30957 -8.94922 8.94922v61.6904c0 5.63965 3.30957 8.94922 8.94922 8.94922z" />
    <glyph glyph-name="Ldot" unicode="&#x13f;" horiz-adv-x="523" 
d="M161 68.5098l319.811 -0.000976562c4.96973 0 8.2793 -3.30957 8.2793 -8.26953v-51.9697c0 -4.95996 -3.30957 -8.26953 -8.2793 -8.26953h-388.91c-4.95996 -0 -8.26953 3.30957 -8.26953 8.26953v683.46c0 4.95996 3.30957 8.26953 8.26953 8.26953h60.8203
c4.96973 0 8.2793 -3.30957 8.2793 -8.26953v-623.22zM368.061 337.889h69.9805c5.63965 0 8.94922 -3.30957 8.94922 -8.93945v-73.04c0 -5.62988 -3.30957 -8.93945 -8.94922 -8.93945h-69.9805c-5.62988 0 -8.93945 3.30957 -8.93945 8.93945v73.04
c0 5.62988 3.30957 8.93945 8.93945 8.93945z" />
    <glyph glyph-name="Lslash" unicode="&#x141;" horiz-adv-x="548" 
d="M186.18 68.5098h319.811c4.96973 0 8.2793 -3.30957 8.2793 -8.2793v-51.96c0 -4.96973 -3.30957 -8.2793 -8.2793 -8.2793h-388.91c-4.95996 0 -8.26953 3.30957 -8.26953 8.2793v260.1l-47 -32.7998c-3.95996 -2.76953 -8.51953 -1.85938 -11.5898 1.75098
l-24.6602 35.3496c-3.17969 3.75977 -2.08984 8.7793 2.19043 11.7598l81.0596 56.5898v350.71c0 4.95996 3.30957 8.26953 8.2793 8.26953h60.8203c4.95996 0 8.26953 -3.30957 8.26953 -8.26953v-296.7l112.02 78.2002c3.95996 2.75977 8.53027 1.84961 11.6006 -1.76074
l24.6602 -35.3496c3.17969 -3.75977 2.08984 -8.76953 -2.19043 -11.7598l-146.09 -101.98v-253.87z" />
    <glyph glyph-name="M" unicode="M" horiz-adv-x="823" 
d="M654.32 700h77.2305c4.96973 0 8.2793 -3.30957 8.2793 -8.2793v-683.45c0 -4.96973 -3.30957 -8.2793 -8.26953 -8.2793h-62.46c-4.95996 0 -8.26953 3.30957 -8.26953 8.2793l1.62988 380.34l6.5498 198.62h-5.92969l-112.23 -198.62l-111.77 -187.16
c-2.65039 -5.30957 -6.95996 -7.96973 -12.9404 -7.96973h-32.8203c-5.98047 0 -10.29 2.66016 -12.9502 7.96973l-111.76 187.16l-112.24 198.62h-5.91992l6.54004 -198.62l1.63965 -380.34c0 -4.96973 -3.30957 -8.2793 -8.2793 -8.2793h-62.4502
c-4.96973 0 -8.2793 3.30957 -8.2793 8.2793v683.45c0 4.96973 3.30957 8.2793 8.2793 8.2793h77.2197c5.98047 0 10.6104 -2.66016 12.9404 -7.96973l229.89 -397.76h3.54004l229.89 397.76c2.33008 5.30957 6.95996 7.96973 12.9404 7.96973z" />
    <glyph glyph-name="N" unicode="N" horiz-adv-x="680" 
d="M531.32 700l60.8203 0.000976562c4.96973 0 8.2793 -3.30957 8.2793 -8.2793v-683.45c0 -4.96973 -3.30957 -8.2793 -8.2793 -8.2793h-71.0703c-4.96973 0 -9.2793 2.30957 -11.9297 6.61914l-213 344.64l-139.8 229.56h-5.25977l5.88965 -229.56v-342.98
c0 -4.96973 -3.30957 -8.2793 -8.26953 -8.2793h-60.8203c-4.96973 0 -8.2793 3.30957 -8.2793 8.2793v683.45c0 4.96973 3.30957 8.2793 8.2793 8.2793h71.0703c4.96973 0 9.2793 -2.30957 11.9297 -6.61914l352.8 -574.2h5.25977l-5.88965 273.96v298.58
c0 4.96973 3.30957 8.2793 8.26953 8.2793z" />
    <glyph glyph-name="Nacute" unicode="&#x143;" horiz-adv-x="680" 
d="M313.61 785.16l72.96 156.031c2.65039 5.30957 6.29004 8.63965 13.9404 8.63965h49.29c5 0 8 -4.33008 5.67969 -9.33008l-86.4902 -155.69c-3.33008 -6 -5.98047 -7.98047 -12.6201 -7.98047h-38.4297c-4.33008 0 -6.65039 4 -4.33008 8.33008zM531.32 700.001
l60.8203 0.000976562c4.95996 0 8.26953 -3.30957 8.26953 -8.2793v-683.45c0 -4.96973 -3.30957 -8.2793 -8.26953 -8.2793h-71.0801c-4.95996 0 -9.26953 2.30957 -11.9297 6.61914l-213 344.64l-139.8 229.56h-5.25l5.88965 -229.56v-342.98
c0 -4.96973 -3.30957 -8.2793 -8.2793 -8.2793h-60.8203c-4.95996 0 -8.26953 3.30957 -8.26953 8.2793v683.45c0 4.96973 3.30957 8.2793 8.26953 8.2793h71.0801c4.95996 0 9.26953 -2.30957 11.9297 -6.61914l352.8 -574.2h5.25l-5.88965 273.96v298.58
c0 4.96973 3.30957 8.2793 8.2793 8.2793z" />
    <glyph glyph-name="Ncaron" unicode="&#x147;" horiz-adv-x="680" 
d="M412.72 949.83h44.0508c5 0 8.66992 -4.32031 5.66992 -9.32031l-93.2197 -155.69c-3.32031 -6 -5.98047 -7.98047 -12.6104 -7.98047h-33.2002c-6.63965 0 -9.29004 1.98047 -12.6201 7.98047l-93.2197 155.69c-3 5 0.679688 9.32031 5.67969 9.32031h44.0498
c7.66016 0 11.29 -3.32031 13.9502 -8.62988l58.7598 -114.85l58.7695 114.85c2.65039 5.30957 6.29004 8.62988 13.9404 8.62988zM531.32 700l60.8203 0.000976562c4.95996 0 8.26953 -3.30957 8.26953 -8.2793v-683.45c0 -4.96973 -3.30957 -8.2793 -8.26953 -8.2793
h-71.0801c-4.95996 0 -9.26953 2.30957 -11.9297 6.61914l-213 344.64l-139.8 229.56h-5.25l5.88965 -229.56v-342.98c0 -4.96973 -3.30957 -8.2793 -8.2793 -8.2793h-60.8203c-4.95996 0 -8.26953 3.30957 -8.26953 8.2793v683.45c0 4.96973 3.30957 8.2793 8.26953 8.2793
h71.0801c4.95996 0 9.26953 -2.30957 11.9297 -6.61914l352.8 -574.2h5.25l-5.88965 273.96v298.58c0 4.96973 3.30957 8.2793 8.2793 8.2793z" />
    <glyph glyph-name="Ncommaaccent" unicode="&#x145;" horiz-adv-x="680" 
d="M531.32 700l60.8203 0.000976562c4.96973 0 8.2793 -3.30957 8.2793 -8.2793v-683.45c0 -4.96973 -3.30957 -8.2793 -8.2793 -8.2793h-71.0703c-4.96973 0 -9.2793 2.30957 -11.9297 6.61914l-213 344.64l-139.8 229.56h-5.25977l5.88965 -229.56v-342.98
c0 -4.96973 -3.30957 -8.2793 -8.26953 -8.2793h-60.8203c-4.96973 0 -8.2793 3.30957 -8.2793 8.2793v683.45c0 4.96973 3.30957 8.2793 8.2793 8.2793h71.0703c4.96973 0 9.2793 -2.30957 11.9297 -6.61914l352.8 -574.2h5.25977l-5.88965 273.96v298.58
c0 4.96973 3.30957 8.2793 8.26953 8.2793zM307.621 -49.9189h72.3105c5.62988 0 8.93945 -3.30957 8.93945 -8.93945v-53.0996c0 -5.62012 -0.219727 -11.1201 -2.62988 -16.54l-41.46 -109.14c-2.20996 -4.7002 -5.94043 -7.28027 -10.2305 -7.28027h-36.5996
c-6.33008 0 -8 5.58984 -5.98047 10.3096l40.7803 105.11h-25.1299c-5.62988 0 -8.93945 3.30957 -8.93945 8.93945v61.7002c0 5.62988 3.30957 8.93945 8.93945 8.93945z" />
    <glyph glyph-name="Eng" unicode="&#x14a;" horiz-adv-x="680" 
d="M531.32 700l60.8232 -0.00292969c4.95996 0 8.26953 -3.30957 8.26953 -8.2793v-680.83c0 -137.64 -61.1504 -190.89 -152.62 -190.89h-5c-32.6904 0 -73.7305 11.0303 -100.75 26.7607c-3.98047 2 -6.30078 5.65039 -6.30078 10.3105v51.3203
c0 5.29004 4.62988 8.27051 9.59961 5.62012c27.4297 -16.7695 55.8701 -27.1494 86.0098 -27.1494h3.66016c50.21 0 81.3096 28.9697 81.7695 107.399l-220.78 356.98l-139.66 229.57h-5.25977l5.88965 -229.64v-342.9c0 -4.96973 -3.30957 -8.2793 -8.26953 -8.2793
h-60.8203c-4.96973 0 -8.2793 3.30957 -8.2793 8.2793v683.45c0 4.96973 3.30957 8.2793 8.2793 8.2793h71.0703c4.96973 0 9.2793 -2.30957 11.9297 -6.61914l352.8 -574.2h5.25977l-5.88965 273.95v298.59c0 4.96973 3.30957 8.2793 8.26953 8.2793z" />
    <glyph glyph-name="Ntilde" unicode="&#xd1;" horiz-adv-x="680" 
d="M451.5 865.72h24.7402c5.32031 0 7.65039 -2.98047 5.65039 -8.98047c-17.1699 -52.5498 -51.5498 -89.9102 -95.1699 -89.9102h-4c-47.6904 0 -53.3408 44.0498 -93.0508 44.0498c-23.0596 0 -37.4795 -15.7197 -49.8594 -35.1602
c-2.98047 -4.65039 -6.30078 -6.65039 -11.2812 -6.65039h-24.75c-5.32031 0 -7.65039 2.98047 -5.65039 8.98047c17.1699 52.54 51.5498 89.9102 95.1699 89.9102h4c48.0195 0 54.9795 -44.0596 93.0596 -44.0596c22.4004 0 37.8008 16.0596 49.8506 35.1699
c2.98047 4.65039 6.31055 6.65039 11.291 6.65039zM531.32 699.989l60.8203 0.000976562c4.95996 0 8.26953 -3.30957 8.26953 -8.26953v-683.46c0 -4.95996 -3.30957 -8.26953 -8.26953 -8.26953h-71.0801c-4.95996 0 -9.26953 2.30957 -11.9297 6.61914l-213 344.63
l-139.8 229.57h-5.25l5.88965 -229.57v-342.98c0 -4.95996 -3.30957 -8.26953 -8.2793 -8.26953h-60.8203c-4.95996 0 -8.26953 3.30957 -8.26953 8.26953v683.46c0 4.95996 3.30957 8.26953 8.26953 8.26953h71.0801c4.95996 0 9.26953 -2.30957 11.9297 -6.61914
l352.8 -574.2h5.25l-5.88965 273.97v298.58c0 4.95996 3.30957 8.26953 8.2793 8.26953z" />
    <glyph glyph-name="O" unicode="O" horiz-adv-x="688" 
d="M336.38 713h15c146.32 0 267.83 -96.6396 267.83 -297v-132c0 -200.37 -121.51 -297 -267.83 -297h-15c-146.33 0 -267.84 96.6299 -267.84 297v132c0 200.36 121.51 297 267.84 297zM349.399 644.49h-11.04c-111.07 0 -190.82 -72.9102 -190.82 -226.641v-135.71
c0 -154.05 79.75 -226.63 190.82 -226.63h11.04c111.07 0 190.82 72.5801 190.82 226.63v135.71c0 153.73 -79.75 226.641 -190.82 226.641z" />
    <glyph glyph-name="Oacute" unicode="&#xd3;" horiz-adv-x="688" 
d="M322.17 785.16l72.9512 156.031c2.66016 5.30957 6.29004 8.63965 13.9502 8.63965h49.29c5 0 8 -4.33008 5.66992 -9.33008l-86.4902 -155.69c-3.32031 -6 -5.98047 -7.98047 -12.6104 -7.98047h-38.4404c-4.32031 0 -6.65039 4 -4.32031 8.33008zM336.371 713.001h15
c146.33 0 267.84 -96.6396 267.84 -297v-132c0 -200.37 -121.51 -297 -267.84 -297h-15c-146.32 0 -267.83 96.6299 -267.83 297v132c0 200.36 121.51 297 267.83 297zM349.391 644.491h-11.0303c-111.08 0 -190.82 -72.9102 -190.82 -226.641v-135.71
c0 -154.05 79.7402 -226.63 190.82 -226.63h11.0303c111.08 0 190.82 72.5801 190.82 226.63v135.71c0 153.73 -79.7402 226.641 -190.82 226.641z" />
    <glyph glyph-name="Ocaron" unicode="&#x1d1;" horiz-adv-x="688" 
d="M417.09 949.83h44.0508c4.99023 0 8.66992 -4.32031 5.66992 -9.32031l-93.2197 -155.69c-3.33008 -6 -5.98047 -7.98047 -12.6201 -7.98047h-33.2002c-6.62988 0 -9.29004 1.98047 -12.6104 7.98047l-93.2197 155.69c-3 5 0.669922 9.32031 5.66992 9.32031h44.0596
c7.65039 0 11.29 -3.32031 13.9404 -8.62988l58.7695 -114.85l58.7598 114.85c2.66016 5.30957 6.29004 8.62988 13.9502 8.62988zM336.371 713h15c146.33 0 267.84 -96.6396 267.84 -297v-132c0 -200.37 -121.51 -297 -267.84 -297h-15
c-146.32 0 -267.83 96.6299 -267.83 297v132c0 200.36 121.51 297 267.83 297zM349.391 644.49h-11.0303c-111.08 0 -190.82 -72.9102 -190.82 -226.641v-135.71c0 -154.05 79.7402 -226.63 190.82 -226.63h11.0303c111.08 0 190.82 72.5801 190.82 226.63v135.71
c0 153.73 -79.7402 226.641 -190.82 226.641z" />
    <glyph glyph-name="Ocircumflex" unicode="&#xd4;" horiz-adv-x="688" 
d="M373.6 941.85l93.2188 -155.69c3.00977 -5 -0.669922 -9.33008 -5.66992 -9.33008h-44.0498c-7.66016 0 -11.29 3.33008 -13.9502 8.63965l-58.7598 114.85l-58.7695 -114.85c-2.65039 -5.30957 -6.29004 -8.63965 -13.9404 -8.63965h-44.0596
c-5 0 -8.66992 4.33008 -5.66992 9.33008l93.2197 155.69c3.32031 6 5.98047 7.98047 12.6104 7.98047h33.2002c6.63965 0 9.29004 -1.98047 12.6201 -7.98047zM336.389 712.999h15c146.32 0 267.83 -96.6396 267.83 -297v-132c0 -200.37 -121.51 -297 -267.83 -297h-15
c-146.33 0 -267.84 96.6299 -267.84 297v132c0 200.36 121.51 297 267.84 297zM349.408 644.489h-11.04c-111.07 0 -190.82 -72.9102 -190.82 -226.641v-135.71c0 -154.05 79.75 -226.63 190.82 -226.63h11.04c111.07 0 190.82 72.5801 190.82 226.63v135.71
c0 153.73 -79.75 226.641 -190.82 226.641z" />
    <glyph glyph-name="Odieresis" unicode="&#xd6;" horiz-adv-x="688" 
d="M236.66 877.85h61.4805c5.62988 0 8.93945 -3.30957 8.93945 -8.94922v-73.0303c0 -5.63965 -3.30957 -8.94922 -8.93945 -8.94922h-61.4805c-5.62988 0 -8.93945 3.30957 -8.93945 8.94922v73.0303c0 5.63965 3.30957 8.94922 8.93945 8.94922zM390.631 877.85h61.4697
c5.63965 0 8.94922 -3.30957 8.94922 -8.94922v-73.0303c0 -5.63965 -3.30957 -8.94922 -8.94922 -8.94922h-61.4697c-5.63965 0 -8.94922 3.30957 -8.94922 8.94922v73.0303c0 5.63965 3.30957 8.94922 8.94922 8.94922zM336.381 713h15
c146.33 0 267.84 -96.6396 267.84 -297v-132c0 -200.37 -121.51 -297 -267.84 -297h-15c-146.32 0 -267.83 96.6299 -267.83 297v132c0 200.36 121.51 297 267.83 297zM349.4 644.49h-11.0303c-111.08 0 -190.82 -72.9102 -190.82 -226.641v-135.71
c0 -154.05 79.7402 -226.63 190.82 -226.63h11.0303c111.08 0 190.82 72.5801 190.82 226.63v135.71c0 153.73 -79.7402 226.641 -190.82 226.641z" />
    <glyph glyph-name="Ograve" unicode="&#xd2;" horiz-adv-x="688" 
d="M295.88 941.19l72.9512 -156.031c2.33008 -4.33008 0 -8.33008 -4.32031 -8.33008h-38.4404c-6.62988 0 -9.29004 1.98047 -12.6104 7.98047l-86.4902 155.69c-2.33008 5 0.669922 9.33008 5.66992 9.33008h49.29c7.66016 0 11.29 -3.33008 13.9502 -8.63965z
M336.371 712.999h15c146.33 0 267.84 -96.6396 267.84 -297v-132c0 -200.37 -121.51 -297 -267.84 -297h-15c-146.32 0 -267.83 96.6299 -267.83 297v132c0 200.36 121.51 297 267.83 297zM349.391 644.489h-11.0303c-111.08 0 -190.82 -72.9102 -190.82 -226.641v-135.71
c0 -154.05 79.7402 -226.63 190.82 -226.63h11.0303c111.08 0 190.82 72.5801 190.82 226.63v135.71c0 153.73 -79.7402 226.641 -190.82 226.641z" />
    <glyph glyph-name="Ohungarumlaut" unicode="&#x150;" horiz-adv-x="688" 
d="M387.33 785.16l72.9512 156.031c2.66016 5.30957 6.29004 8.63965 13.9502 8.63965h44.0498c5 0 8 -4.33008 5.67969 -9.33008l-86.4902 -155.69c-3.33008 -6 -5.98047 -7.98047 -12.6201 -7.98047h-33.2002c-4.32031 0 -6.65039 4 -4.32031 8.33008zM259.381 785.161
l72.9512 156.031c2.66016 5.30957 6.29004 8.63965 13.9502 8.63965h44.0498c5 0 8 -4.33008 5.67969 -9.33008l-86.4902 -155.69c-3.33008 -6 -5.98047 -7.98047 -12.6201 -7.98047h-33.2002c-4.32031 0 -6.65039 4 -4.32031 8.33008zM336.362 713.002h15
c146.33 0 267.84 -96.6396 267.84 -297v-132c0 -200.37 -121.51 -297 -267.84 -297h-15c-146.32 0 -267.83 96.6299 -267.83 297v132c0 200.36 121.51 297 267.83 297zM349.382 644.492h-11.0303c-111.08 0 -190.82 -72.9102 -190.82 -226.641v-135.71
c0 -154.05 79.7402 -226.63 190.82 -226.63h11.0303c111.08 0 190.82 72.5801 190.82 226.63v135.71c0 153.73 -79.7402 226.641 -190.82 226.641z" />
    <glyph glyph-name="Omacron" unicode="&#x14c;" horiz-adv-x="688" 
d="M223.15 843.32h242.46c4.95996 0 8.26953 -3.30957 8.26953 -8.26953v-39.8604c0 -4.95996 -3.30957 -8.26953 -8.26953 -8.26953h-242.46c-4.95996 0 -8.26953 3.30957 -8.26953 8.26953v39.8604c0 4.95996 3.30957 8.26953 8.26953 8.26953zM336.38 713h15
c146.33 0 267.84 -96.6396 267.84 -297v-132c0 -200.37 -121.51 -297 -267.84 -297h-15c-146.32 0 -267.83 96.6299 -267.83 297v132c0 200.36 121.51 297 267.83 297zM349.399 644.49h-11.0303c-111.08 0 -190.82 -72.9102 -190.82 -226.641v-135.71
c0 -154.05 79.7402 -226.63 190.82 -226.63h11.0303c111.08 0 190.82 72.5801 190.82 226.63v135.71c0 153.73 -79.7402 226.641 -190.82 226.641z" />
    <glyph glyph-name="Oslash" unicode="&#xd8;" horiz-adv-x="688" 
d="M567.51 700l46.0918 0.0078125c7.62988 0 10.5996 -5.87988 5.62988 -12.9297l-54.54 -76.5498c34.1396 -47.7598 54.54 -112.439 54.54 -194.529v-132c0 -200.36 -121.51 -297 -267.84 -297h-15c-65.8398 0 -126.66 19.5703 -173.65 59.3506l-25.4697 -35.75
c-3.7002 -5.33984 -7.94043 -10.5996 -16.9102 -10.5996h-45.7402c-7.96973 -0 -10.9395 5.87988 -5.96973 12.9297l54.5098 76.4502c-34.1904 47.7598 -54.6104 112.47 -54.6104 194.62v132c0 200.36 121.51 297 267.83 297h15c65.9697 0 126.89 -19.6396 173.909 -59.5693
l25.6396 35.9697c3.66992 5.26953 7.61035 10.5996 16.5801 10.5996zM147.562 417.857l-0.000976562 -135.709c0 -50.2998 8.5 -91.9102 23.8203 -125.15l310.98 436.21c-33.5195 34.4805 -79.6191 51.29 -132.939 51.29h-11.04
c-111.07 0 -190.82 -72.9102 -190.82 -226.641zM540.23 282.148l-0.000976562 135.71c0 50.1602 -8.49023 91.71 -23.79 124.94l-310.84 -436.3c33.5098 -34.3203 79.5498 -50.9902 132.78 -50.9902h11.0303c111.08 0 190.82 72.5801 190.82 226.64z" />
    <glyph glyph-name="Otilde" unicode="&#xd5;" horiz-adv-x="688" 
d="M455.86 865.72h24.7402c5.33008 0 7.65039 -2.98047 5.65039 -8.98047c-17.1602 -52.5498 -51.54 -89.9102 -95.1602 -89.9102h-4c-47.6904 0 -53.3506 44.0498 -93.0605 44.0498c-23.0498 0 -37.4697 -15.7197 -49.8496 -35.1602
c-2.98047 -4.65039 -6.31055 -6.65039 -11.291 -6.65039h-24.7402c-5.33008 0 -7.65039 2.98047 -5.65039 8.98047c17.1602 52.54 51.54 89.9102 95.1602 89.9102h4c48.0195 0 54.9893 -44.0596 93.0596 -44.0596c22.4004 0 37.8008 16.0596 49.8604 35.1699
c2.98047 4.65039 6.30078 6.65039 11.2812 6.65039zM336.381 712.989h15c146.32 0 267.83 -96.6299 267.83 -297v-132c0 -200.36 -121.51 -297 -267.83 -297h-15c-146.33 0 -267.84 96.6396 -267.84 297v132c0 200.37 121.51 297 267.84 297zM349.4 644.479h-11.04
c-111.07 0 -190.82 -72.9102 -190.82 -226.63v-135.71c0 -154.06 79.75 -226.64 190.82 -226.64h11.04c111.07 0 190.82 72.5801 190.82 226.64v135.71c0 153.72 -79.75 226.63 -190.82 226.63z" />
    <glyph glyph-name="OE" unicode="&#x152;" horiz-adv-x="1011" 
d="M336.38 713l15 0.00585938c89.0596 0 166.26 -37.8496 209.189 -116.489v95.21c0 4.96973 3.30957 8.2793 8.26953 8.2793h391.83c4.96973 0 8.2793 -3.30957 8.2793 -8.2793v-51.96c0 -4.96973 -3.30957 -8.2793 -8.2793 -8.2793h-343.09v-237.52h319.82
c4.96973 0 8.2793 -3.30957 8.2793 -8.2793v-51.96c0 -4.96973 -3.30957 -8.2793 -8.2793 -8.2793h-319.82v-256.94h343.09c4.96973 0 8.2793 -3.30957 8.2793 -8.2793v-51.96c0 -4.96973 -3.30957 -8.2793 -8.2793 -8.2793h-391.83
c-4.95996 0 -8.26953 3.30957 -8.26953 8.2793v95.21c-42.9297 -78.6396 -120.13 -116.479 -209.189 -116.479h-15c-146.33 0 -267.84 96.6299 -267.84 297v132c0 200.36 121.51 297 267.84 297zM349.399 644.496h-11.04c-111.07 0 -190.82 -72.9102 -190.82 -226.641
v-135.71c0 -154.05 79.75 -226.63 190.82 -226.63h11.04c111.07 0 190.82 72.5801 190.82 226.63v135.71c0 153.73 -79.75 226.641 -190.82 226.641z" />
    <glyph glyph-name="P" unicode="P" horiz-adv-x="625" 
d="M91.9102 700l216.939 -0.00878906c163.95 0 248.021 -73.4004 248.021 -204.78v-18.4297c0 -132.37 -86.0303 -218.82 -251.61 -218.82h-144.26v-249.69c0 -4.96973 -3.30957 -8.2793 -8.26953 -8.2793h-60.8203c-4.96973 0 -8.2793 3.30957 -8.2793 8.2793v683.45
c0 4.96973 3.30957 8.2793 8.2793 8.2793zM477.869 477.541v11.0195c0 89.3203 -48.8496 142.92 -179.51 142.92h-137.36v-307.63h136.71c130.65 0 180.16 64.3604 180.16 153.69z" />
    <glyph glyph-name="Thorn" unicode="&#xde;" horiz-adv-x="625" 
d="M161 607.45l147.85 0.000976562c163.94 0 248.021 -73.4004 248.021 -204.78v-18.4297c0 -132.37 -86.04 -218.82 -251.62 -218.82h-144.25v-157.15c0 -4.95996 -3.30957 -8.26953 -8.2793 -8.26953h-60.8203c-4.95996 0 -8.26953 3.30957 -8.26953 8.26953v683.46
c0 4.95996 3.30957 8.26953 8.26953 8.26953h60.8203c4.96973 0 8.2793 -3.30957 8.2793 -8.26953v-84.2803zM477.869 385.001l0.000976562 11.0195c0 89.3203 -48.8604 142.92 -179.511 142.92h-137.37v-307.63h136.71c130.66 0 180.17 64.3604 180.17 153.69z" />
    <glyph glyph-name="Q" unicode="Q" horiz-adv-x="688" 
d="M619.22 416l-0.000976562 -132.011c0 -119.65 -43.3398 -202.311 -109.41 -249.49l106.43 -106.43c3.30957 -3.30957 3.30957 -7.94922 0 -11.5791l-37.5098 -36.8398c-3.30957 -3.30957 -8.2793 -3.30957 -11.5889 0l-122.04 122.04
c-29.2598 -9.82031 -60.8594 -14.6904 -93.7197 -14.6904h-15c-146.32 0 -267.83 96.6299 -267.83 297v132c0 200.36 121.51 297 267.83 297h15c146.33 0 267.84 -96.6396 267.84 -297zM338.358 55.499h11.04c111.07 0 190.82 72.5801 190.82 226.64v135.71
c0 153.72 -79.75 226.63 -190.82 226.63h-11.04c-111.07 0 -190.82 -72.9102 -190.82 -226.63v-135.71c0 -154.06 79.75 -226.64 190.82 -226.64z" />
    <glyph glyph-name="R" unicode="R" horiz-adv-x="623" 
d="M91.9102 700l224.568 0.000976562c163.94 0 242.03 -67.0498 242.03 -194.18v-15.0703c0 -94.6504 -50.9902 -173.46 -163 -198.26l71.9297 -101.74l120.62 -180.82c3.66016 -4.96973 0.350586 -9.92969 -5.61914 -9.92969h-68.71
c-5.30957 0 -9.61914 2.65039 -12.2695 7.29004l-181.97 272.63h-158.49v-271.65c0 -4.96973 -3.30957 -8.2793 -8.26953 -8.2793h-60.8203c-4.96973 0 -8.2793 3.30957 -8.2793 8.2793v683.45c0 4.96973 3.30957 8.2793 8.2793 8.2793zM161.009 631.491
l-0.00976562 -287.63h141.62c130 0 176.89 66.3604 176.89 145.69v6.33984c0 86.0596 -43.5195 135.6 -173.52 135.6h-144.98z" />
    <glyph glyph-name="Racute" unicode="&#x154;" horiz-adv-x="623" 
d="M251.64 785.16l72.9512 156.031c2.66016 5.30957 6.29004 8.63965 13.9502 8.63965h49.29c5 0 8 -4.33008 5.66992 -9.33008l-86.4902 -155.69c-3.32031 -6 -5.98047 -7.98047 -12.6104 -7.98047h-38.4404c-4.32031 0 -6.65039 4 -4.32031 8.33008zM91.9004 699.991
l224.568 0.0107422c163.94 0 242.03 -67.0596 242.03 -194.18v-15.0801c0 -94.6396 -50.9902 -173.46 -163 -198.26l71.9297 -101.74l120.62 -180.82c3.66016 -4.95996 0.350586 -9.92969 -5.61914 -9.92969h-68.71c-5.30957 0 -9.61914 2.66016 -12.2695 7.29004
l-181.97 272.64h-158.49v-271.66c0 -4.95996 -3.30957 -8.26953 -8.26953 -8.26953h-60.8203c-4.96973 0 -8.2793 3.30957 -8.2793 8.26953v683.46c0 4.95996 3.30957 8.26953 8.2793 8.26953zM160.999 631.492l-0.00976562 -287.64h141.62
c130 0 176.89 66.3701 176.89 145.69v6.34961c0 86.0498 -43.5195 135.6 -173.52 135.6h-144.98z" />
    <glyph glyph-name="Rcaron" unicode="&#x158;" horiz-adv-x="623" 
d="M376.34 949.83h44.0508c5 0 8.66992 -4.32031 5.66992 -9.32031l-93.2197 -155.69c-3.32031 -6 -5.98047 -7.98047 -12.6104 -7.98047h-33.2002c-6.63965 0 -9.29004 1.98047 -12.6201 7.98047l-93.2197 155.69c-3 5 0.679688 9.32031 5.67969 9.32031h44.0498
c7.66016 0 11.29 -3.32031 13.9502 -8.62988l58.7598 -114.85l58.7695 114.85c2.65039 5.30957 6.29004 8.62988 13.9404 8.62988zM91.9004 700l224.567 0.000976562c163.95 0 242.04 -67.0498 242.04 -194.18v-15.0703c0 -94.6504 -51 -173.46 -163.01 -198.26
l71.9404 -101.74l120.62 -180.82c3.65039 -4.96973 0.34082 -9.92969 -5.61914 -9.92969h-68.71c-5.30957 0 -9.61914 2.65039 -12.2793 7.29004l-181.97 272.63h-158.48v-271.65c0 -4.96973 -3.30957 -8.2793 -8.2793 -8.2793h-60.8203
c-4.95996 0 -8.26953 3.30957 -8.26953 8.2793v683.45c0 4.96973 3.30957 8.2793 8.26953 8.2793zM160.998 631.491l0.000976562 -287.63h141.62c130 0 176.89 66.3604 176.89 145.69v6.33984c0 86.0596 -43.5303 135.6 -173.53 135.6h-144.98z" />
    <glyph glyph-name="Rcommaaccent" unicode="&#x156;" horiz-adv-x="623" 
d="M91.9102 700l224.568 0.000976562c163.94 0 242.03 -67.0498 242.03 -194.18v-15.0703c0 -94.6504 -50.9902 -173.46 -163 -198.26l71.9297 -101.74l120.62 -180.82c3.66016 -4.96973 0.350586 -9.92969 -5.61914 -9.92969h-68.71
c-5.30957 0 -9.61914 2.65039 -12.2695 7.29004l-181.97 272.63h-158.49v-271.65c0 -4.96973 -3.30957 -8.2793 -8.26953 -8.2793h-60.8203c-4.96973 0 -8.2793 3.30957 -8.2793 8.2793v683.45c0 4.96973 3.30957 8.2793 8.2793 8.2793zM161.009 631.491
l-0.00976562 -287.63h141.62c130 0 176.89 66.3604 176.89 145.69v6.33984c0 86.0596 -43.5195 135.6 -173.52 135.6h-144.98zM280.809 -49.9082l72.3105 0.000976562c5.62988 0 8.93945 -3.30957 8.93945 -8.94922v-53.0898
c0 -5.62012 -0.219727 -11.1201 -2.62988 -16.5498l-41.46 -109.14c-2.20996 -4.7002 -5.94043 -7.27051 -10.2305 -7.27051h-36.5996c-6.33008 0 -8 5.58984 -5.98047 10.3096l40.7803 105.1h-25.1299c-5.62988 0 -8.93945 3.30957 -8.93945 8.94922v61.6904
c0 5.63965 3.30957 8.94922 8.93945 8.94922z" />
    <glyph glyph-name="S" unicode="S" horiz-adv-x="548" 
d="M231.43 330.22l45.1191 -15.0371c84.6396 -28.4297 142.62 -51.54 142.62 -132v-3.66992c0 -76.4004 -64 -124.33 -154.34 -124.33h-6.69043c-70.8604 0 -119.73 21.1299 -184.7 49.3994c-4.94043 1.98047 -9.25 -0.979492 -9.25 -5.61914v-51.9404
c0 -7.9502 2.98047 -11.6006 8.61035 -14.2607c33.75 -18.4004 111.91 -45.7607 188.59 -45.7607h9.01953c125.92 0 227.76 70.3398 227.76 190.76v9.34961c0 120.32 -81.46 164.521 -191.62 201.471l-46.0898 15.3604c-87.3799 29.1299 -131.93 57.96 -131.93 118.93
v4.33984c0 77.4004 70.3799 117.601 141.979 117.601h6.69043c66.1504 0 115.58 -19.0703 168.11 -42.7607c4.29004 -1.66016 9.25 0.649414 9.25 5.61914v51.9404c0 7.29004 -2 11.5996 -8.62012 14.2598c-30.7998 16.7598 -100.359 39.1299 -171.669 39.1299h-8.69043
c-107.51 0 -215.399 -63.5996 -215.399 -184.04v-11c0 -98.8701 70.3096 -150.76 181.25 -187.74z" />
    <glyph glyph-name="Sacute" unicode="&#x15a;" horiz-adv-x="548" 
d="M245.96 785.16l72.9512 156.041c2.66016 5.30957 6.29004 8.62988 13.9502 8.62988h49.29c5 0 8 -4.32031 5.66992 -9.32031l-86.4902 -155.69c-3.32031 -6 -5.98047 -7.98047 -12.6104 -7.98047h-38.4404c-4.32031 0 -6.65039 4 -4.32031 8.32031zM231.431 330.221
l45.1201 -15.0371c84.6396 -28.4297 142.62 -51.54 142.62 -132v-3.66992c0 -76.4004 -64 -124.33 -154.35 -124.33h-6.69043c-70.8496 0 -119.729 21.1299 -184.689 49.3994c-4.9502 1.98047 -9.25977 -0.979492 -9.25977 -5.61914v-51.9404
c0 -7.9502 2.98047 -11.6006 8.62012 -14.2607c33.7402 -18.4004 111.91 -45.7607 188.58 -45.7607h9.01953c125.93 0 227.76 70.3398 227.76 190.76v9.34961c0 120.32 -81.4502 164.521 -191.62 201.471l-46.0898 15.3604c-87.3799 29.1299 -131.92 57.96 -131.92 118.93
v4.33984c0 77.4004 70.3799 117.601 141.979 117.601h6.69043c66.1396 0 115.58 -19.0703 168.1 -42.7607c4.29004 -1.66016 9.25977 0.649414 9.25977 5.61914v51.9404c0 7.29004 -2 11.5996 -8.62012 14.2598c-30.7998 16.7598 -100.37 39.1299 -171.68 39.1299h-8.69043
c-107.51 0 -215.399 -63.5996 -215.399 -184.04v-11c0 -98.8701 70.3096 -150.76 181.26 -187.74z" />
    <glyph glyph-name="Scaron" unicode="&#x160;" horiz-adv-x="548" 
d="M347.38 949.83h44.0508c5 0 8.66992 -4.32031 5.66992 -9.32031l-93.2197 -155.69c-3.32031 -6 -5.98047 -7.98047 -12.6104 -7.98047h-33.2002c-6.63965 0 -9.29004 1.98047 -12.6201 7.98047l-93.2197 155.69c-3 5 0.679688 9.32031 5.67969 9.32031h44.0498
c7.66016 0 11.29 -3.32031 13.9502 -8.62988l58.7598 -114.85l58.7695 114.85c2.65039 5.30957 6.29004 8.62988 13.9404 8.62988zM231.431 330.21l45.1201 -15.0283c84.6396 -28.4404 142.62 -51.5508 142.62 -132.001v-3.67969c0 -76.4004 -64 -124.32 -154.35 -124.32
h-6.69043c-70.8496 0 -119.729 21.1201 -184.689 49.4004c-4.9502 1.98047 -9.25977 -0.989258 -9.25977 -5.61914v-51.9502c0 -7.94043 2.98047 -11.6006 8.62012 -14.251c33.7402 -18.4004 111.91 -45.7705 188.58 -45.7705h9.01953
c125.93 0 227.76 70.3496 227.76 190.77v9.33984c0 120.33 -81.4502 164.53 -191.62 201.471l-46.0898 15.3701c-87.3799 29.1201 -131.92 57.96 -131.92 118.92v4.34961c0 77.4004 70.3799 117.601 141.979 117.601h6.69043c66.1396 0 115.58 -19.0801 168.1 -42.7705
c4.29004 -1.65039 9.25977 0.65918 9.25977 5.61914v51.9502c0 7.29004 -2 11.5996 -8.62012 14.25c-30.7998 16.7695 -100.37 39.1299 -171.68 39.1299h-8.69043c-107.51 0 -215.399 -63.5996 -215.399 -184.029v-11c0 -98.8799 70.3096 -150.77 181.26 -187.75z" />
    <glyph glyph-name="Scedilla" unicode="&#x15e;" horiz-adv-x="548" 
d="M260.45 403.94l46.0898 -15.3711c110.17 -36.9404 191.62 -81.1406 191.62 -201.471v-9.33984c0 -119.56 -100.38 -189.75 -225.06 -190.75l-8.08008 -46.2402c7.08984 2.05957 18.46 4.10938 29.2002 4.10938c47.3496 0 80 -28.6504 80 -75.96
c0 -54.6396 -42.3096 -83.9297 -100.869 -83.9297c-29.2598 0 -54.9297 7.30957 -64.5898 11.29c-7.65039 2.98047 -9.95996 6.64062 -9.95996 14.2705v15.8604c0 4.66992 3.32031 6.66992 7.32031 5.66992c10.04 -2.33984 33.3496 -9.97949 59.3301 -9.97949
c36.1104 0 59.5605 13.3799 59.5605 43.2002c0 26.7998 -19.0898 40.1797 -46.8301 40.1797c-13.71 0 -27.75 -4.01953 -39.7305 -7c-4.33984 -1 -7.68945 -1.66992 -11.3594 1.34961l-3.66016 2.66992c-3.65039 2.67969 -6.65039 6.33008 -5.65039 10.6602l13.79 75.1396
c-66.4004 5.63965 -129.42 28.4492 -158.79 44.459c-5.62988 2.66016 -8.61035 6.31055 -8.61035 14.2607v51.9404c0 4.63965 4.30957 7.59961 9.25 5.61914c64.9697 -28.2695 113.84 -49.3994 184.7 -49.3994h6.69043c90.3398 0 154.34 47.9297 154.34 124.33v3.66992
c0 80.46 -57.9805 103.57 -142.61 132l-45.1104 15.04c-110.95 36.9805 -181.26 88.8701 -181.26 187.74v11c0 120.44 107.89 184.04 215.399 184.04h8.69043c71.3096 0 140.869 -22.3701 171.669 -39.1299c6.62012 -2.66016 8.62012 -6.96973 8.62012 -14.2598v-51.9404
c0 -4.96973 -4.95996 -7.2793 -9.25 -5.61914c-52.5303 23.6904 -101.96 42.7607 -168.11 42.7607h-6.69043c-71.5996 0 -141.979 -40.2002 -141.979 -117.601v-4.33984c0 -60.9697 44.5498 -89.7998 131.93 -118.93z" />
    <glyph glyph-name="Scommaaccent" unicode="&#x218;" horiz-adv-x="548" 
d="M231.43 330.22l45.1191 -15.0371c84.6396 -28.4297 142.62 -51.54 142.62 -132v-3.66992c0 -76.4004 -64 -124.33 -154.34 -124.33h-6.69043c-70.8604 0 -119.73 21.1299 -184.7 49.3994c-4.94043 1.98047 -9.25 -0.979492 -9.25 -5.61914v-51.9404
c0 -7.9502 2.98047 -11.6006 8.61035 -14.2607c33.75 -18.4004 111.91 -45.7607 188.59 -45.7607h9.01953c125.92 0 227.76 70.3398 227.76 190.76v9.34961c0 120.32 -81.46 164.521 -191.62 201.471l-46.0898 15.3604c-87.3799 29.1299 -131.93 57.96 -131.93 118.93
v4.33984c0 77.4004 70.3799 117.601 141.979 117.601h6.69043c66.1504 0 115.58 -19.0703 168.11 -42.7607c4.29004 -1.66016 9.25 0.649414 9.25 5.61914v51.9404c0 7.29004 -2 11.5996 -8.62012 14.2598c-30.7998 16.7598 -100.359 39.1299 -171.669 39.1299h-8.69043
c-107.51 0 -215.399 -63.5996 -215.399 -184.04v-11c0 -98.8701 70.3096 -150.76 181.25 -187.74zM240.318 -49.9072l72.3105 0.000976562c5.62988 0 8.93945 -3.30957 8.93945 -8.94922v-53.0898c0 -5.62012 -0.219727 -11.1201 -2.62988 -16.5498l-41.46 -109.14
c-2.20996 -4.7002 -5.94043 -7.27051 -10.2305 -7.27051h-36.5996c-6.33008 0 -8 5.58984 -5.98047 10.3096l40.7803 105.1h-25.1299c-5.62988 0 -8.93945 3.30957 -8.93945 8.94922v61.6904c0 5.63965 3.30957 8.94922 8.93945 8.94922z" />
    <glyph glyph-name="T" unicode="T" horiz-adv-x="596" 
d="M41.7305 700h512.93c4.95996 0 8.26953 -3.30957 8.26953 -8.2793v-51.96c0 -4.96973 -3.30957 -8.2793 -8.26953 -8.2793h-217.78v-623.22c0 -4.95996 -3.30957 -8.26953 -8.2793 -8.26953h-60.8203c-4.95996 0 -8.26953 3.30957 -8.26953 8.26953v623.22h-217.78
c-4.96973 0 -8.2793 3.30957 -8.2793 8.2793v51.96c0 4.96973 3.30957 8.2793 8.2793 8.2793z" />
    <glyph glyph-name="Tbar" unicode="&#x166;" horiz-adv-x="596" 
d="M41.7305 700h512.93c4.95996 0 8.26953 -3.30957 8.26953 -8.2793v-51.96c0 -4.96973 -3.30957 -8.2793 -8.26953 -8.2793h-217.78v-192.37h102.25c4.96973 0 8.2793 -3.30957 8.2793 -8.2793v-39.8496c0 -4.96973 -3.30957 -8.2793 -8.2793 -8.2793h-102.25v-374.44
c0 -4.95996 -3.30957 -8.26953 -8.2793 -8.26953h-60.8203c-4.95996 0 -8.26953 3.30957 -8.26953 8.26953v374.44h-102.31c-4.96973 0 -8.2793 3.30957 -8.2793 8.2793v39.8496c0 4.96973 3.30957 8.2793 8.2793 8.2793h102.31v192.37h-217.78
c-4.96973 0 -8.2793 3.30957 -8.2793 8.2793v51.96c0 4.96973 3.30957 8.2793 8.2793 8.2793z" />
    <glyph glyph-name="Tcaron" unicode="&#x164;" horiz-adv-x="596" 
d="M371.4 949.83h44.0508c4.99023 0 8.66992 -4.32031 5.66992 -9.32031l-93.2197 -155.69c-3.33008 -6 -5.98047 -7.98047 -12.6201 -7.98047h-33.2002c-6.62988 0 -9.29004 1.98047 -12.6104 7.98047l-93.2197 155.69c-3 5 0.669922 9.32031 5.66992 9.32031h44.0596
c7.65039 0 11.29 -3.32031 13.9404 -8.62988l58.7695 -114.85l58.7598 114.85c2.66016 5.30957 6.29004 8.62988 13.9502 8.62988zM41.7207 700h512.93c4.95996 0 8.26953 -3.30957 8.26953 -8.2793v-51.96c0 -4.96973 -3.30957 -8.2793 -8.26953 -8.2793h-217.78v-623.22
c0 -4.95996 -3.30957 -8.26953 -8.2793 -8.26953h-60.8203c-4.95996 0 -8.26953 3.30957 -8.26953 8.26953v623.22h-217.78c-4.96973 0 -8.2793 3.30957 -8.2793 8.2793v51.96c0 4.96973 3.30957 8.2793 8.2793 8.2793z" />
    <glyph glyph-name="Tcedilla" unicode="&#x162;" horiz-adv-x="596" 
d="M41.7305 700l512.938 -0.0107422c4.95996 0 8.26953 -3.30957 8.26953 -8.26953v-51.9697c0 -4.95996 -3.30957 -8.26953 -8.26953 -8.26953h-217.78v-623.22c0 -4.96973 -3.30957 -8.2793 -8.2793 -8.2793h-17.5098l-10.3398 -59.2197
c7.08984 2.05957 18.4502 4.10938 29.2002 4.10938c47.3398 0 80 -28.6504 80 -75.96c0 -54.6396 -42.3096 -83.9297 -100.88 -83.9297c-29.25 0 -54.9297 7.30957 -64.5801 11.29c-7.66016 2.98047 -9.96973 6.64062 -9.96973 14.2705v15.8604
c0 4.66992 3.33008 6.66992 7.33008 5.66992c10.0303 -2.33984 33.3398 -9.97949 59.3203 -9.97949c36.1104 0 59.5703 13.3799 59.5703 43.2002c0 26.7998 -19.0898 40.1797 -46.8398 40.1797c-13.71 0 -27.7402 -4.01953 -39.7207 -7
c-4.34961 -1 -7.68945 -1.66992 -11.3691 1.34961l-3.65039 2.66992c-3.66016 2.67969 -6.45996 6.29004 -5.66016 10.6602l15.9902 86.8398h-1.71973c-4.95996 0 -8.26953 3.30957 -8.26953 8.26953v623.22h-217.78c-4.96973 0 -8.2793 3.30957 -8.2793 8.2793v51.96
c0 4.96973 3.30957 8.2793 8.2793 8.2793z" />
    <glyph glyph-name="uni021A" unicode="&#x21a;" horiz-adv-x="596" 
d="M41.7305 700h512.93c4.95996 0 8.26953 -3.30957 8.26953 -8.2793v-51.96c0 -4.96973 -3.30957 -8.2793 -8.26953 -8.2793h-217.78v-623.22c0 -4.95996 -3.30957 -8.26953 -8.2793 -8.26953h-60.8203c-4.95996 0 -8.26953 3.30957 -8.26953 8.26953v623.22h-217.78
c-4.96973 0 -8.2793 3.30957 -8.2793 8.2793v51.96c0 4.96973 3.30957 8.2793 8.2793 8.2793zM262.65 -49.9199h72.3018c5.63965 0 8.94922 -3.30957 8.94922 -8.93945v-53.0996c0 -5.62012 -0.230469 -11.1201 -2.64062 -16.54l-41.4502 -109.14
c-2.20996 -4.7002 -5.9502 -7.28027 -10.2402 -7.28027h-36.5996c-6.32031 0 -8 5.58984 -5.98047 10.3096l40.7803 105.11h-25.1201c-5.63965 0 -8.94922 3.30957 -8.94922 8.93945v61.7002c0 5.62988 3.30957 8.93945 8.94922 8.93945z" />
    <glyph glyph-name="U" unicode="U" horiz-adv-x="678" 
d="M528.18 700h61.7812c4.95996 0 8.26953 -3.30957 8.26953 -8.2793v-438.49c0 -180.18 -104.78 -266.229 -249.8 -266.229h-15c-145.02 0 -249.8 86.0498 -249.8 266.229v438.49c0 4.96973 3.30957 8.2793 8.26953 8.2793h61.7803
c4.96973 0 8.2793 -3.30957 8.2793 -8.2793v-437.07c0 -132.89 64.6504 -199.149 173.45 -199.149h11.04c108.8 0 173.45 66.2598 173.45 199.149v437.07c0 4.96973 3.30957 8.2793 8.2793 8.2793z" />
    <glyph glyph-name="Uacute" unicode="&#xda;" horiz-adv-x="678" 
d="M319.5 785.16l72.9512 156.031c2.66016 5.30957 6.29004 8.63965 13.9502 8.63965h49.29c5 0 8 -4.33008 5.66992 -9.33008l-86.4902 -155.69c-3.32031 -6 -5.98047 -7.98047 -12.6104 -7.98047h-38.4404c-4.32031 0 -6.65039 4 -4.32031 8.33008zM528.171 700.001
h61.7812c4.95996 0 8.26953 -3.30957 8.26953 -8.2793v-438.49c0 -180.18 -104.78 -266.229 -249.8 -266.229h-15c-145.02 0 -249.8 86.0498 -249.8 266.229v438.49c0 4.96973 3.30957 8.2793 8.2793 8.2793h61.7803c4.95996 0 8.26953 -3.30957 8.26953 -8.2793v-437.07
c0 -132.89 64.6602 -199.149 173.46 -199.149h11.0303c108.8 0 173.46 66.2598 173.46 199.149v437.07c0 4.96973 3.30957 8.2793 8.26953 8.2793z" />
    <glyph glyph-name="Ucaron" unicode="&#x1d3;" horiz-adv-x="678" 
d="M411.8 949.83h44.0508c4.99023 0 8.66992 -4.32031 5.66992 -9.32031l-93.2197 -155.69c-3.33008 -6 -5.98047 -7.98047 -12.6201 -7.98047h-33.2002c-6.62988 0 -9.29004 1.98047 -12.6104 7.98047l-93.2197 155.69c-3 5 0.669922 9.32031 5.66992 9.32031h44.0596
c7.65039 0 11.29 -3.32031 13.9404 -8.62988l58.7695 -114.85l58.7598 114.85c2.66016 5.30957 6.29004 8.62988 13.9502 8.62988zM528.181 700h61.7812c4.95996 0 8.26953 -3.30957 8.26953 -8.2793v-438.49c0 -180.18 -104.78 -266.229 -249.8 -266.229h-15
c-145.02 0 -249.8 86.0498 -249.8 266.229v438.49c0 4.96973 3.30957 8.2793 8.26953 8.2793h61.7803c4.96973 0 8.2793 -3.30957 8.2793 -8.2793v-437.07c0 -132.89 64.6504 -199.149 173.45 -199.149h11.04c108.8 0 173.45 66.2598 173.45 199.149v437.07
c0 4.96973 3.30957 8.2793 8.2793 8.2793z" />
    <glyph glyph-name="Ucircumflex" unicode="&#xdb;" horiz-adv-x="678" 
d="M368.31 941.85l93.2188 -155.69c3.00977 -5 -0.669922 -9.33008 -5.66992 -9.33008h-44.0498c-7.66016 0 -11.29 3.33008 -13.9502 8.63965l-58.7598 114.85l-58.7695 -114.85c-2.65039 -5.30957 -6.29004 -8.63965 -13.9404 -8.63965h-44.0596
c-5 0 -8.66992 4.33008 -5.66992 9.33008l93.2197 155.69c3.32031 6 5.98047 7.98047 12.6104 7.98047h33.2002c6.63965 0 9.29004 -1.98047 12.6201 -7.98047zM528.188 699.999h61.7812c4.95996 0 8.26953 -3.30957 8.26953 -8.2793v-438.49
c0 -180.18 -104.78 -266.229 -249.8 -266.229h-15c-145.02 0 -249.8 86.0498 -249.8 266.229v438.49c0 4.96973 3.30957 8.2793 8.26953 8.2793h61.7803c4.96973 0 8.2793 -3.30957 8.2793 -8.2793v-437.07c0 -132.89 64.6504 -199.149 173.45 -199.149h11.04
c108.8 0 173.45 66.2598 173.45 199.149v437.07c0 4.96973 3.30957 8.2793 8.2793 8.2793z" />
    <glyph glyph-name="Udieresis" unicode="&#xdc;" horiz-adv-x="678" 
d="M231.37 877.85h61.4697c5.63965 0 8.94922 -3.30957 8.94922 -8.94922v-73.0303c0 -5.63965 -3.30957 -8.94922 -8.94922 -8.94922h-61.4697c-5.63965 0 -8.94922 3.30957 -8.94922 8.94922v73.0303c0 5.63965 3.30957 8.94922 8.94922 8.94922zM385.33 877.85h61.4805
c5.62988 0 8.93945 -3.30957 8.93945 -8.94922v-73.0303c0 -5.63965 -3.30957 -8.94922 -8.93945 -8.94922h-61.4805c-5.62988 0 -8.93945 3.30957 -8.93945 8.94922v73.0303c0 5.63965 3.30957 8.94922 8.93945 8.94922zM528.181 700h61.7812
c4.95996 0 8.26953 -3.30957 8.26953 -8.2793v-438.49c0 -180.18 -104.78 -266.229 -249.8 -266.229h-15c-145.02 0 -249.8 86.0498 -249.8 266.229v438.49c0 4.96973 3.30957 8.2793 8.2793 8.2793h61.7803c4.95996 0 8.26953 -3.30957 8.26953 -8.2793v-437.07
c0 -132.89 64.6602 -199.149 173.46 -199.149h11.0303c108.8 0 173.46 66.2598 173.46 199.149v437.07c0 4.96973 3.30957 8.2793 8.26953 8.2793z" />
    <glyph glyph-name="Udieresisacute" unicode="&#x1d7;" horiz-adv-x="678" 
d="M313.18 937.91l72.9512 156.041c2.66016 5.30957 6.29004 8.62988 13.9502 8.62988h49.29c5 0 8 -4.32031 5.66992 -9.32031l-86.4902 -155.7c-3.32031 -6 -5.98047 -7.98047 -12.6104 -7.98047h-38.4404c-4.32031 0 -6.65039 4 -4.32031 8.33008zM231.361 877.852
h61.4697c5.63965 0 8.94922 -3.30957 8.94922 -8.94922v-73.0303c0 -5.63965 -3.30957 -8.94922 -8.94922 -8.94922h-61.4697c-5.63965 0 -8.94922 3.30957 -8.94922 8.94922v73.0303c0 5.63965 3.30957 8.94922 8.94922 8.94922zM385.321 877.852h61.4805
c5.62988 0 8.93945 -3.30957 8.93945 -8.94922v-73.0303c0 -5.63965 -3.30957 -8.94922 -8.93945 -8.94922h-61.4805c-5.62988 0 -8.93945 3.30957 -8.93945 8.94922v73.0303c0 5.63965 3.30957 8.94922 8.93945 8.94922zM528.172 700.002h61.7812
c4.95996 0 8.26953 -3.30957 8.26953 -8.2793v-438.49c0 -180.18 -104.78 -266.229 -249.8 -266.229h-15c-145.02 0 -249.8 86.0498 -249.8 266.229v438.49c0 4.96973 3.30957 8.2793 8.2793 8.2793h61.7803c4.95996 0 8.26953 -3.30957 8.26953 -8.2793v-437.07
c0 -132.89 64.6602 -199.149 173.46 -199.149h11.0303c108.8 0 173.46 66.2598 173.46 199.149v437.07c0 4.96973 3.30957 8.2793 8.26953 8.2793z" />
    <glyph glyph-name="Udieresiscaron" unicode="&#x1d9;" horiz-adv-x="678" 
d="M411.79 1102.58h44.0508c5 0 8.66992 -4.32031 5.66992 -9.32031l-93.2197 -155.7c-3.32031 -6 -5.98047 -7.98047 -12.6104 -7.98047h-33.2002c-6.63965 0 -9.29004 1.98047 -12.6201 7.98047l-93.2197 155.7c-3 5 0.679688 9.32031 5.67969 9.32031h44.0498
c7.66016 0 11.29 -3.32031 13.9502 -8.62988l58.7598 -114.86l58.7695 114.86c2.65039 5.30957 6.29004 8.62988 13.9404 8.62988zM231.36 877.85h61.4805c5.62988 0 8.93945 -3.30957 8.93945 -8.94922v-73.0303c0 -5.63965 -3.30957 -8.94922 -8.93945 -8.94922h-61.4805
c-5.62988 0 -8.93945 3.30957 -8.93945 8.94922v73.0303c0 5.63965 3.30957 8.94922 8.93945 8.94922zM385.331 877.85h61.4697c5.63965 0 8.94922 -3.30957 8.94922 -8.94922v-73.0303c0 -5.63965 -3.30957 -8.94922 -8.94922 -8.94922h-61.4697
c-5.63965 0 -8.94922 3.30957 -8.94922 8.94922v73.0303c0 5.63965 3.30957 8.94922 8.94922 8.94922zM528.181 700h61.7812c4.95996 0 8.26953 -3.30957 8.26953 -8.2793v-438.49c0 -180.18 -104.78 -266.229 -249.8 -266.229h-15c-145.02 0 -249.8 86.0498 -249.8 266.229
v438.49c0 4.96973 3.30957 8.2793 8.26953 8.2793h61.7803c4.96973 0 8.2793 -3.30957 8.2793 -8.2793v-437.07c0 -132.89 64.6504 -199.149 173.45 -199.149h11.04c108.8 0 173.45 66.2598 173.45 199.149v437.07c0 4.96973 3.30957 8.2793 8.2793 8.2793z" />
    <glyph glyph-name="Udieresisgrave" unicode="&#x1db;" horiz-adv-x="678" 
d="M288 1093.95l72.9512 -156.041c2.33008 -4.33008 0 -8.33008 -4.32031 -8.33008h-38.4404c-6.62988 0 -9.29004 1.98047 -12.6104 7.98047l-86.4902 155.7c-2.33008 5 0.669922 9.32031 5.66992 9.32031h49.29c7.66016 0 11.29 -3.32031 13.9502 -8.62988z
M231.361 877.85h61.4805c5.62988 0 8.93945 -3.30957 8.93945 -8.94922v-73.0303c0 -5.63965 -3.30957 -8.94922 -8.93945 -8.94922h-61.4805c-5.62988 0 -8.93945 3.30957 -8.93945 8.94922v73.0303c0 5.63965 3.30957 8.94922 8.93945 8.94922zM385.332 877.85h61.4697
c5.63965 0 8.94922 -3.30957 8.94922 -8.94922v-73.0303c0 -5.63965 -3.30957 -8.94922 -8.94922 -8.94922h-61.4697c-5.63965 0 -8.94922 3.30957 -8.94922 8.94922v73.0303c0 5.63965 3.30957 8.94922 8.94922 8.94922zM528.182 700h61.7812
c4.95996 0 8.26953 -3.30957 8.26953 -8.2793v-438.49c0 -180.18 -104.78 -266.229 -249.8 -266.229h-15c-145.02 0 -249.8 86.0498 -249.8 266.229v438.49c0 4.96973 3.30957 8.2793 8.26953 8.2793h61.7803c4.96973 0 8.2793 -3.30957 8.2793 -8.2793v-437.07
c0 -132.89 64.6504 -199.149 173.45 -199.149h11.04c108.8 0 173.45 66.2598 173.45 199.149v437.07c0 4.96973 3.30957 8.2793 8.2793 8.2793z" />
    <glyph glyph-name="Udieresismacron" unicode="&#x1d5;" horiz-adv-x="678" 
d="M217.86 995.91l242.45 0.000976562c4.96973 0 8.2793 -3.30957 8.2793 -8.26953v-39.8604c0 -4.95996 -3.30957 -8.28027 -8.2793 -8.27051l-242.45 0.160156c-4.96973 0 -8.2793 3.30957 -8.2793 8.26953v39.7002c0 4.95996 3.30957 8.26953 8.2793 8.26953z
M231.37 877.852h61.4697c5.63965 0 8.94922 -3.30957 8.94922 -8.94922v-73.0303c0 -5.63965 -3.30957 -8.94922 -8.94922 -8.94922h-61.4697c-5.63965 0 -8.94922 3.30957 -8.94922 8.94922v73.0303c0 5.63965 3.30957 8.94922 8.94922 8.94922zM385.33 877.852h61.4805
c5.62988 0 8.93945 -3.30957 8.93945 -8.94922v-73.0303c0 -5.63965 -3.30957 -8.94922 -8.93945 -8.94922h-61.4805c-5.62988 0 -8.93945 3.30957 -8.93945 8.94922v73.0303c0 5.63965 3.30957 8.94922 8.93945 8.94922zM528.181 700.002h61.7812
c4.95996 0 8.26953 -3.30957 8.26953 -8.2793v-438.49c0 -180.18 -104.78 -266.229 -249.8 -266.229h-15c-145.02 0 -249.8 86.0498 -249.8 266.229v438.49c0 4.96973 3.30957 8.2793 8.2793 8.2793h61.7803c4.95996 0 8.26953 -3.30957 8.26953 -8.2793v-437.07
c0 -132.89 64.6602 -199.149 173.46 -199.149h11.0303c108.8 0 173.46 66.2598 173.46 199.149v437.07c0 4.96973 3.30957 8.2793 8.26953 8.2793z" />
    <glyph glyph-name="Ugrave" unicode="&#xd9;" horiz-adv-x="678" 
d="M290.69 941.19l72.9512 -156.031c2.33008 -4.33008 0 -8.33008 -4.32031 -8.33008h-38.4404c-6.62988 0 -9.29004 1.98047 -12.6104 7.98047l-86.4902 155.69c-2.33008 5 0.669922 9.33008 5.66992 9.33008h49.29c7.66016 0 11.29 -3.33008 13.9502 -8.63965z
M528.172 699.999h61.7812c4.95996 0 8.26953 -3.30957 8.26953 -8.2793v-438.49c0 -180.18 -104.78 -266.229 -249.8 -266.229h-15c-145.02 0 -249.8 86.0498 -249.8 266.229v438.49c0 4.96973 3.30957 8.2793 8.2793 8.2793h61.7803
c4.95996 0 8.26953 -3.30957 8.26953 -8.2793v-437.07c0 -132.89 64.6602 -199.149 173.46 -199.149h11.0303c108.8 0 173.46 66.2598 173.46 199.149v437.07c0 4.96973 3.30957 8.2793 8.26953 8.2793z" />
    <glyph glyph-name="Uhungarumlaut" unicode="&#x170;" horiz-adv-x="678" 
d="M385.42 785.16l72.9609 156.031c2.65039 5.30957 6.29004 8.63965 13.9404 8.63965h44.0596c5 0 8 -4.33008 5.66992 -9.33008l-86.4902 -155.69c-3.32031 -6 -5.98047 -7.98047 -12.6104 -7.98047h-33.2002c-4.33008 0 -6.65039 4 -4.33008 8.33008zM257.471 785.161
l72.9609 156.031c2.65039 5.30957 6.29004 8.63965 13.9404 8.63965h44.0596c5 0 8 -4.33008 5.66992 -9.33008l-86.4902 -155.69c-3.32031 -6 -5.98047 -7.98047 -12.6104 -7.98047h-33.2002c-4.33008 0 -6.65039 4 -4.33008 8.33008zM528.162 700.002h61.7812
c4.95996 0 8.26953 -3.30957 8.26953 -8.2793v-438.49c0 -180.18 -104.78 -266.229 -249.8 -266.229h-15c-145.02 0 -249.8 86.0498 -249.8 266.229v438.49c0 4.96973 3.30957 8.2793 8.2793 8.2793h61.7803c4.95996 0 8.26953 -3.30957 8.26953 -8.2793v-437.07
c0 -132.89 64.6602 -199.149 173.46 -199.149h11.0303c108.8 0 173.46 66.2598 173.46 199.149v437.07c0 4.96973 3.30957 8.2793 8.26953 8.2793z" />
    <glyph glyph-name="Umacron" unicode="&#x16a;" horiz-adv-x="678" 
d="M217.86 843.32l242.45 0.00878906c4.96973 0 8.2793 -3.30957 8.2793 -8.2793v-39.8496c0 -4.96973 -3.30957 -8.2793 -8.2793 -8.2793l-242.45 0.330078c-4.96973 0 -8.2793 3.30957 -8.2793 8.26953v39.5303c0 4.95996 3.30957 8.26953 8.2793 8.26953z
M528.181 699.999h61.7812c4.95996 0 8.26953 -3.30957 8.26953 -8.26953v-438.49c0 -180.18 -104.78 -266.239 -249.8 -266.239h-15c-145.02 0 -249.8 86.0596 -249.8 266.239v438.49c0 4.95996 3.30957 8.26953 8.26953 8.26953h61.7803
c4.96973 0 8.2793 -3.30957 8.2793 -8.26953v-437.08c0 -132.89 64.6504 -199.14 173.45 -199.14h11.04c108.8 0 173.45 66.25 173.45 199.14v437.08c0 4.95996 3.30957 8.26953 8.2793 8.26953z" />
    <glyph glyph-name="Uogonek" unicode="&#x172;" horiz-adv-x="678" 
d="M528.18 700l61.7822 -0.0078125c4.95996 0 8.26953 -3.30957 8.26953 -8.2793v-438.49c0 -145.98 -68.79 -230.181 -172.021 -256.881c-44.9199 -38.0596 -85.9502 -73.29 -85.9502 -117.62c0 -32.7695 22.4004 -48.1094 53.8203 -48.1094
c10.71 0 19.4004 1.66992 29.1104 4.01953c4 1 7.32031 -1 7.32031 -5.67969v-23.0498c0 -7.63965 -2.30957 -11.29 -9.95996 -13.9502c-9.98047 -3.98047 -26.2705 -6.96094 -41.8906 -6.96094c-47.9805 0 -88.2607 27 -88.2607 82.6201
c0 38.8799 21.0801 74.2695 74.2402 119.75c-5.33984 -0.240234 -10.75 -0.360352 -16.21 -0.360352h-15c-145.02 0 -249.8 86.0498 -249.8 266.229v438.49c0 4.96973 3.30957 8.2793 8.26953 8.2793h61.7803c4.96973 0 8.2793 -3.30957 8.2793 -8.2793v-437.07
c0 -132.89 64.6504 -199.149 173.45 -199.149h11.04c108.8 0 173.45 66.2598 173.45 199.149v437.07c0 4.96973 3.30957 8.2793 8.2793 8.2793z" />
    <glyph glyph-name="Uring" unicode="&#x16e;" horiz-adv-x="678" 
d="M339.25 926.85c45.9102 0 82.4902 -36.5791 82.4902 -81.1494c0 -45.5596 -37.25 -82.1396 -82.4902 -82.1396c-46.9102 0 -82.8203 37.25 -82.8203 82.1396c0 43.8896 35.9102 81.1494 82.8203 81.1494zM339.25 886.851c-24.7598 0 -40.7998 -18.4004 -40.7998 -40.4805
c0 -22.7402 16.04 -42.8203 40.7998 -42.8203c24.7695 0 40.4795 20.0801 40.4795 42.8203c0 22.0801 -15.71 40.4805 -40.4795 40.4805zM528.18 700.001h61.7812c4.95996 0 8.26953 -3.30957 8.26953 -8.2793v-438.49c0 -180.18 -104.78 -266.229 -249.8 -266.229h-15
c-145.02 0 -249.8 86.0498 -249.8 266.229v438.49c0 4.96973 3.30957 8.2793 8.2793 8.2793h61.7803c4.95996 0 8.26953 -3.30957 8.26953 -8.2793v-437.07c0 -132.89 64.6602 -199.149 173.46 -199.149h11.0303c108.8 0 173.46 66.2598 173.46 199.149v437.07
c0 4.96973 3.30957 8.2793 8.26953 8.2793z" />
    <glyph glyph-name="V" unicode="V" horiz-adv-x="609" 
d="M507.17 700l60.4707 0.000976562c5.94043 0 8.91016 -4.29004 7.25 -9.91016l-211.2 -681.11c-2 -5.66016 -6.32031 -8.98047 -11.9805 -8.98047l-94.5898 0.0195312c-5.95996 0.209961 -10.0703 3.49023 -11.9902 8.95996l-211.2 681.11
c-1.66016 5.62012 1.30957 9.91016 7.25 9.91016h60.4805c5.65039 0 9.98047 -3.33008 11.9805 -8.98047l124.76 -396.18l64.4697 -227.89h3.51953l64.71 227.89l124.09 396.18c2 5.65039 6.32031 8.98047 11.9805 8.98047z" />
    <glyph glyph-name="W" unicode="W" horiz-adv-x="984" 
d="M882.84 700h60.4414c5.62012 0 8.91016 -4.29004 7.25 -9.91016l-188.94 -681.11c-2 -5.66016 -6.33008 -8.98047 -12.6504 -8.98047h-84.0898c-6.33008 0 -10.6504 3.32031 -12.6504 8.98047l-71.4902 256.91l-85.7305 331.98h-5.23047l-86.0098 -331.98
l-71.4902 -256.91c-2 -5.66016 -6.32031 -8.98047 -12.6504 -8.98047h-84.0898c-6.32031 0 -10.6504 3.32031 -12.6504 8.98047l-188.94 681.11c-1.66016 5.62012 1.62988 9.91016 7.25 9.91016h60.46c5.65039 0 9.98047 -3.33008 11.9805 -8.98047l80 -293.26
l84.2305 -325.23h4.5l84.4102 325.23l80 293.26c2 5.65039 6.33008 8.98047 11.9805 8.98047h67c5.66016 0 9.98047 -3.33008 11.9805 -8.98047l80 -293.26l84.5195 -325.23h4.37988l84.25 325.23l80 293.26c2 5.65039 6.32031 8.98047 11.9805 8.98047z" />
    <glyph glyph-name="Wacute" unicode="&#x1e82;" horiz-adv-x="984" 
d="M468.73 785.16l72.9512 156.031c2.66016 5.30957 6.29004 8.63965 13.9502 8.63965h49.29c5 0 8 -4.33008 5.66992 -9.33008l-86.4902 -155.69c-3.32031 -6 -5.98047 -7.98047 -12.6104 -7.98047h-38.4404c-4.32031 0 -6.65039 4 -4.32031 8.33008zM882.832 700.001
h60.4404c5.62012 0 8.91016 -4.29004 7.25977 -9.91016l-188.95 -681.11c-2 -5.66016 -6.32031 -8.98047 -12.6504 -8.98047h-84.0898c-6.32031 0 -10.6504 3.32031 -12.6504 8.98047l-71.4902 256.91l-85.7305 331.98h-5.21973l-86.0098 -331.98l-71.4902 -256.91
c-2 -5.66016 -6.33008 -8.98047 -12.6504 -8.98047h-84.0898c-6.33008 0 -10.6504 3.32031 -12.6504 8.98047l-188.95 681.11c-1.65039 5.62012 1.63965 9.91016 7.25977 9.91016h60.4502c5.66016 0 9.98047 -3.33008 11.9805 -8.98047l80 -293.26l84.2402 -325.23h4.5
l84.4102 325.23l80 293.26c2 5.65039 6.32031 8.98047 11.9805 8.98047h67c5.65039 0 9.98047 -3.33008 11.9805 -8.98047l80 -293.26l84.5098 -325.23h4.38965l84.2402 325.23l80 293.26c2 5.65039 6.33008 8.98047 11.9805 8.98047z" />
    <glyph glyph-name="Wcircumflex" unicode="&#x174;" horiz-adv-x="984" 
d="M521.65 941.85l93.2285 -155.69c3 -5 -0.669922 -9.33008 -5.66992 -9.33008h-44.0596c-7.65039 0 -11.29 3.33008 -13.9404 8.63965l-58.7695 114.85l-58.7598 -114.85c-2.66016 -5.30957 -6.29004 -8.63965 -13.9502 -8.63965h-44.0498
c-5 0 -8.67969 4.33008 -5.67969 9.33008l93.2197 155.69c3.33008 6 5.98047 7.98047 12.6201 7.98047h33.2002c6.62988 0 9.29004 -1.98047 12.6104 -7.98047zM882.849 699.999h60.4414c5.62012 0 8.91016 -4.29004 7.25 -9.91016l-188.94 -681.11
c-2 -5.66016 -6.33008 -8.98047 -12.6504 -8.98047h-84.0898c-6.33008 0 -10.6504 3.32031 -12.6504 8.98047l-71.4902 256.91l-85.7305 331.98h-5.23047l-86.0098 -331.98l-71.4902 -256.91c-2 -5.66016 -6.32031 -8.98047 -12.6504 -8.98047h-84.0898
c-6.32031 0 -10.6504 3.32031 -12.6504 8.98047l-188.94 681.11c-1.66016 5.62012 1.62988 9.91016 7.25 9.91016h60.46c5.65039 0 9.98047 -3.33008 11.9805 -8.98047l80 -293.26l84.2305 -325.23h4.5l84.4102 325.23l80 293.26c2 5.65039 6.33008 8.98047 11.9805 8.98047
h67c5.66016 0 9.98047 -3.33008 11.9805 -8.98047l80 -293.26l84.5195 -325.23h4.37988l84.25 325.23l80 293.26c2 5.65039 6.32031 8.98047 11.9805 8.98047z" />
    <glyph glyph-name="Wdieresis" unicode="&#x1e84;" horiz-adv-x="984" 
d="M384.71 877.85h61.4805c5.62988 0 8.93945 -3.30957 8.93945 -8.94922v-73.0303c0 -5.63965 -3.30957 -8.94922 -8.93945 -8.94922h-61.4805c-5.62988 0 -8.93945 3.30957 -8.93945 8.94922v73.0303c0 5.63965 3.30957 8.94922 8.93945 8.94922zM538.681 877.85h61.4697
c5.63965 0 8.94922 -3.30957 8.94922 -8.94922v-73.0303c0 -5.63965 -3.30957 -8.94922 -8.94922 -8.94922h-61.4697c-5.63965 0 -8.94922 3.30957 -8.94922 8.94922v73.0303c0 5.63965 3.30957 8.94922 8.94922 8.94922zM882.841 700h60.4404
c5.62012 0 8.91016 -4.29004 7.25977 -9.91016l-188.95 -681.11c-2 -5.66016 -6.32031 -8.98047 -12.6504 -8.98047h-84.0898c-6.32031 0 -10.6504 3.32031 -12.6504 8.98047l-71.4902 256.91l-85.7305 331.98h-5.21973l-86.0098 -331.98l-71.4902 -256.91
c-2 -5.66016 -6.33008 -8.98047 -12.6504 -8.98047h-84.0898c-6.33008 0 -10.6504 3.32031 -12.6504 8.98047l-188.95 681.11c-1.65039 5.62012 1.63965 9.91016 7.25977 9.91016h60.4502c5.66016 0 9.98047 -3.33008 11.9805 -8.98047l80 -293.26l84.2402 -325.23h4.5
l84.4102 325.23l80 293.26c2 5.65039 6.32031 8.98047 11.9805 8.98047h67c5.65039 0 9.98047 -3.33008 11.9805 -8.98047l80 -293.26l84.5098 -325.23h4.38965l84.2402 325.23l80 293.26c2 5.65039 6.33008 8.98047 11.9805 8.98047z" />
    <glyph glyph-name="Wgrave" unicode="&#x1e80;" horiz-adv-x="984" 
d="M441.58 941.19l72.96 -156.031c2.32031 -4.33008 0 -8.33008 -4.33008 -8.33008h-38.4297c-6.63965 0 -9.29004 1.98047 -12.6201 7.98047l-86.4902 155.69c-2.32031 5 0.679688 9.33008 5.67969 9.33008h49.29c7.65039 0 11.29 -3.33008 13.9404 -8.63965z
M882.83 699.999h60.4404c5.62012 0 8.91016 -4.29004 7.25977 -9.91016l-188.95 -681.11c-2 -5.66016 -6.32031 -8.98047 -12.6504 -8.98047h-84.0898c-6.32031 0 -10.6504 3.32031 -12.6504 8.98047l-71.4902 256.91l-85.7305 331.98h-5.21973l-86.0098 -331.98
l-71.4902 -256.91c-2 -5.66016 -6.33008 -8.98047 -12.6504 -8.98047h-84.0898c-6.33008 0 -10.6504 3.32031 -12.6504 8.98047l-188.95 681.11c-1.65039 5.62012 1.63965 9.91016 7.25977 9.91016h60.4502c5.66016 0 9.98047 -3.33008 11.9805 -8.98047l80 -293.26
l84.2402 -325.23h4.5l84.4102 325.23l80 293.26c2 5.65039 6.32031 8.98047 11.9805 8.98047h67c5.65039 0 9.98047 -3.33008 11.9805 -8.98047l80 -293.26l84.5098 -325.23h4.38965l84.2402 325.23l80 293.26c2 5.65039 6.33008 8.98047 11.9805 8.98047z" />
    <glyph glyph-name="X" unicode="X" horiz-adv-x="608" 
d="M492.71 700h67.4082c5.29004 0 8.94043 -4.96973 5.95996 -9.92969l-206.32 -333.4l213.65 -346.75c2.98047 -4.95996 -1 -9.92969 -6.29004 -9.92969h-68.0498c-5.30957 0 -9.62988 2.65039 -12.2803 7.29004l-135.22 215.35l-45.0303 85.9297l-4.75977 -0.0996094
l-45.46 -85.8301l-135.22 -215.35c-2.63965 -4.65039 -6.96973 -7.29004 -12.2793 -7.29004h-68.0498c-5.29004 0 -9.27051 4.96973 -6.29004 9.92969l213.65 346.75l-206.32 333.4c-2.98047 4.95996 0.669922 9.92969 5.95996 9.92969h67.4004
c5.30957 0 9.62988 -2.65039 12.2695 -7.29004l128.2 -202.66l46.1504 -85.8398l4.75 -0.0703125l45.7002 85.9102l128.2 202.66c2.65039 4.63965 6.95996 7.29004 12.2695 7.29004z" />
    <glyph glyph-name="Y" unicode="Y" horiz-adv-x="619" 
d="M515.43 700h62.1689c6.59961 0 9.88965 -5.9502 7.58008 -11.5498l-236.98 -451.27v-228.91c0 -4.95996 -3.30957 -8.26953 -8.2793 -8.26953h-60.4697c-4.96973 0 -8.2793 3.30957 -8.2793 8.26953v228.91l-236.98 451.27
c-2.30957 5.59961 0.980469 11.5498 7.58008 11.5498h62.1699c5.95996 0 10.9404 -2.98047 13.6006 -8.29004l137.87 -257.09l52.9297 -120.35h2.67969l52.9297 120.35l137.88 257.09c2.65039 5.30957 7.63086 8.29004 13.6006 8.29004z" />
    <glyph glyph-name="Yacute" unicode="&#xdd;" horiz-adv-x="619" 
d="M289.4 785.16l72.96 156.031c2.65039 5.30957 6.29004 8.63965 13.9404 8.63965h49.29c5 0 8 -4.33008 5.67969 -9.33008l-86.4902 -155.69c-3.33008 -6 -5.98047 -7.98047 -12.6201 -7.98047h-38.4297c-4.33008 0 -6.65039 4 -4.33008 8.33008zM515.42 700.001h62.1699
c6.59961 0 9.88965 -5.9502 7.58008 -11.5498l-236.98 -451.27v-228.91c0 -4.95996 -3.30957 -8.26953 -8.26953 -8.26953h-60.4805c-4.95996 0 -8.26953 3.30957 -8.26953 8.26953v228.91l-236.98 451.27c-2.30957 5.59961 0.980469 11.5498 7.58008 11.5498h62.1602
c5.96973 0 10.9502 -2.98047 13.6006 -8.29004l137.88 -257.09l52.9297 -120.35h2.67969l52.9297 120.35l137.87 257.09c2.66016 5.30957 7.64062 8.29004 13.6006 8.29004z" />
    <glyph glyph-name="Ycircumflex" unicode="&#x176;" horiz-adv-x="619" 
d="M338.49 941.85l93.2188 -155.69c3.00977 -5 -0.669922 -9.33008 -5.66992 -9.33008h-44.0498c-7.66016 0 -11.29 3.33008 -13.9502 8.63965l-58.7598 114.85l-58.7695 -114.85c-2.65039 -5.30957 -6.29004 -8.63965 -13.9404 -8.63965h-44.0596
c-5 0 -8.66992 4.33008 -5.66992 9.33008l93.2197 155.69c3.32031 6 5.98047 7.98047 12.6104 7.98047h33.2002c6.63965 0 9.29004 -1.98047 12.6201 -7.98047zM515.439 699.999h62.1689c6.59961 0 9.88965 -5.9502 7.58008 -11.5498l-236.98 -451.27v-228.91
c0 -4.95996 -3.30957 -8.26953 -8.2793 -8.26953h-60.4697c-4.96973 -0 -8.2793 3.30957 -8.2793 8.26953v228.91l-236.98 451.27c-2.30957 5.59961 0.980469 11.5498 7.58008 11.5498h62.1699c5.95996 0 10.9404 -2.98047 13.6006 -8.29004l137.87 -257.09l52.9297 -120.35
h2.67969l52.9297 120.35l137.88 257.09c2.65039 5.30957 7.63086 8.29004 13.6006 8.29004z" />
    <glyph glyph-name="Ydieresis" unicode="&#x178;" horiz-adv-x="619" 
d="M201.55 877.85h61.4697c5.63965 0 8.94922 -3.30957 8.94922 -8.94922v-73.0303c0 -5.63965 -3.30957 -8.94922 -8.94922 -8.94922h-61.4697c-5.63965 0 -8.94922 3.30957 -8.94922 8.94922v73.0303c0 5.63965 3.30957 8.94922 8.94922 8.94922zM355.51 877.85h61.4805
c5.62988 0 8.93945 -3.30957 8.93945 -8.94922v-73.0303c0 -5.63965 -3.30957 -8.94922 -8.93945 -8.94922h-61.4805c-5.62988 0 -8.93945 3.30957 -8.93945 8.94922v73.0303c0 5.63965 3.30957 8.94922 8.93945 8.94922zM515.431 700h62.1699
c6.59961 0 9.88965 -5.9502 7.58008 -11.5498l-236.98 -451.27v-228.91c0 -4.95996 -3.30957 -8.26953 -8.26953 -8.26953h-60.4805c-4.95996 0 -8.26953 3.30957 -8.26953 8.26953v228.91l-236.98 451.27c-2.30957 5.59961 0.980469 11.5498 7.58008 11.5498h62.1602
c5.96973 0 10.9502 -2.98047 13.6006 -8.29004l137.88 -257.09l52.9297 -120.35h2.67969l52.9297 120.35l137.87 257.09c2.66016 5.30957 7.64062 8.29004 13.6006 8.29004z" />
    <glyph glyph-name="Ygrave" unicode="&#x1ef2;" horiz-adv-x="619" 
d="M261.42 941.19l72.96 -156.031c2.32031 -4.33008 0 -8.33008 -4.33008 -8.33008h-38.4297c-6.63965 0 -9.29004 1.98047 -12.6201 7.98047l-86.4902 155.69c-2.32031 5 0.679688 9.33008 5.67969 9.33008h49.29c7.65039 0 11.29 -3.33008 13.9404 -8.63965z
M515.42 699.999h62.1699c6.59961 0 9.88965 -5.9502 7.58008 -11.5498l-236.98 -451.27v-228.91c0 -4.95996 -3.30957 -8.26953 -8.26953 -8.26953h-60.4805c-4.95996 -0 -8.26953 3.30957 -8.26953 8.26953v228.91l-236.98 451.27
c-2.30957 5.59961 0.980469 11.5498 7.58008 11.5498h62.1602c5.96973 0 10.9502 -2.98047 13.6006 -8.29004l137.88 -257.09l52.9297 -120.35h2.67969l52.9297 120.35l137.87 257.09c2.66016 5.30957 7.64062 8.29004 13.6006 8.29004z" />
    <glyph glyph-name="Z" unicode="Z" horiz-adv-x="559" 
d="M141.62 68.5098h362.751c4.95996 0 8.26953 -3.30957 8.26953 -8.2793v-51.96c0 -4.96973 -3.30957 -8.2793 -8.26953 -8.2793h-449.28c-4.95996 0 -8.26953 3.30957 -8.26953 8.2793v48.0703c0 3.96973 1.32031 7.2793 3.30078 10.5889l362.38 564.56h-344.4
c-4.95996 0 -8.26953 3.30957 -8.26953 8.2793v51.96c0 4.96973 3.30957 8.2793 8.26953 8.2793h430.93c4.95996 0 8.26953 -3.30957 8.26953 -8.2793v-48.0703c0 -3.96973 -1.32031 -7.2793 -3.30078 -10.5889z" />
    <glyph glyph-name="Zacute" unicode="&#x179;" horiz-adv-x="559" 
d="M258.03 785.16l72.96 156.031c2.65039 5.30957 6.29004 8.63965 13.9404 8.63965h49.29c5 0 8 -4.33008 5.67969 -9.33008l-86.4902 -155.69c-3.33008 -6 -5.98047 -7.98047 -12.6201 -7.98047h-38.4297c-4.33008 0 -6.65039 4 -4.33008 8.33008zM141.61 68.501h362.751
c4.95996 0 8.26953 -3.30957 8.26953 -8.26953v-51.9697c0 -4.95996 -3.30957 -8.26953 -8.26953 -8.26953h-449.28c-4.95996 0 -8.26953 3.30957 -8.26953 8.26953v48.0801c0 3.95996 1.32031 7.26953 3.30078 10.5791l362.38 564.57h-344.4
c-4.95996 0 -8.26953 3.30957 -8.26953 8.26953v51.9697c0 4.95996 3.30957 8.26953 8.26953 8.26953h430.93c4.95996 0 8.26953 -3.30957 8.26953 -8.26953v-48.0801c0 -3.95996 -1.32031 -7.26953 -3.30078 -10.5791z" />
    <glyph glyph-name="Zcaron" unicode="&#x17d;" horiz-adv-x="559" 
d="M352.43 949.83h44.0508c5 0 8.66992 -4.32031 5.66992 -9.32031l-93.2197 -155.69c-3.32031 -6 -5.98047 -7.98047 -12.6104 -7.98047h-33.2002c-6.63965 0 -9.29004 1.98047 -12.6201 7.98047l-93.2197 155.69c-3 5 0.679688 9.32031 5.67969 9.32031h44.0498
c7.66016 0 11.29 -3.32031 13.9502 -8.62988l58.7598 -114.85l58.7695 114.85c2.65039 5.30957 6.29004 8.62988 13.9404 8.62988zM141.61 68.5098h362.751c4.95996 0 8.26953 -3.30957 8.26953 -8.2793v-51.96c0 -4.96973 -3.30957 -8.2793 -8.26953 -8.2793h-449.28
c-4.95996 0 -8.26953 3.30957 -8.26953 8.2793v48.0703c0 3.96973 1.32031 7.2793 3.30078 10.5889l362.38 564.56h-344.4c-4.95996 0 -8.26953 3.30957 -8.26953 8.2793v51.96c0 4.96973 3.30957 8.2793 8.26953 8.2793h430.93c4.95996 0 8.26953 -3.30957 8.26953 -8.2793
v-48.0703c0 -3.96973 -1.32031 -7.2793 -3.30078 -10.5889z" />
    <glyph glyph-name="Zdotaccent" unicode="&#x17b;" horiz-adv-x="559" 
d="M244.74 877.85h69.9805c5.62988 0 8.93945 -3.30957 8.93945 -8.94922v-73.0303c0 -5.63965 -3.30957 -8.94922 -8.93945 -8.94922h-69.9805c-5.63965 0 -8.94922 3.30957 -8.94922 8.94922v73.0303c0 5.63965 3.30957 8.94922 8.94922 8.94922zM141.621 68.5h362.751
c4.95996 0 8.26953 -3.30957 8.26953 -8.26953v-51.9697c0 -4.95996 -3.30957 -8.26953 -8.26953 -8.26953h-449.28c-4.95996 0 -8.26953 3.30957 -8.26953 8.26953v48.0801c0 3.95996 1.32031 7.26953 3.30078 10.5791l362.38 564.57h-344.4
c-4.95996 0 -8.26953 3.30957 -8.26953 8.26953v51.9697c0 4.95996 3.30957 8.26953 8.26953 8.26953h430.93c4.95996 0 8.26953 -3.30957 8.26953 -8.26953v-48.0801c0 -3.95996 -1.32031 -7.26953 -3.30078 -10.5791z" />
    <glyph glyph-name="a" unicode="a" horiz-adv-x="490" 
d="M247.91 513l5.34863 -0.000976562c114.08 0 174.061 -54.9404 174.751 -188.311v-316.42c0 -4.95996 -3.30957 -8.26953 -8.2793 -8.26953h-51.9805c-4.30957 0 -7.29004 2.65039 -7.94043 6.95996l-3.20996 58.7402c-43.0801 -48.2402 -105.99 -78.7002 -162.3 -78.7002
h-5.67969c-97.3604 0 -155.16 59.5596 -155.16 142.67v6.62012c0 105.42 72.4297 154.71 225.16 162l94.9004 4.11035l0.0595703 20.6699c0 87.6602 -28.04 128.95 -114.75 128.95h-3.33984c-49.75 0 -104.82 -17.0195 -154.771 -38.0996
c-3.95996 -1.32031 -8.26953 0.660156 -8.26953 5.62012v43.4404c0 6.95996 2.65039 11.2695 7.95996 13.2695c41.9697 18.7305 109.64 36.75 167.5 36.75zM353.589 252.739l-95.8906 -3.03027c-102.89 -3.37012 -149.489 -38.8604 -149.489 -105.891v-4.34961
c0 -56.29 41.5596 -92.7998 106.939 -92.7998h4.33008c44.4805 0 89.04 20.8604 134.11 71.3203v134.75z" />
    <glyph glyph-name="aacute" unicode="&#xe1;" horiz-adv-x="490" 
d="M229.78 585.16l72.96 156.031c2.65039 5.30957 6.29004 8.63965 13.9404 8.63965h49.29c5 0 8 -4.33008 5.67969 -9.33008l-86.4902 -155.69c-3.33008 -6 -5.98047 -7.98047 -12.6201 -7.98047h-38.4297c-4.33008 0 -6.65039 4 -4.33008 8.33008zM247.9 513.001
l5.34863 -0.000976562c114.08 0 174.061 -54.9404 174.751 -188.311v-316.42c0 -4.95996 -3.30957 -8.26953 -8.2793 -8.26953h-51.9805c-4.30957 0 -7.29004 2.65039 -7.94043 6.95996l-3.20996 58.7402c-43.0801 -48.2402 -105.99 -78.7002 -162.3 -78.7002h-5.67969
c-97.3604 0 -155.16 59.5596 -155.16 142.67v6.62012c0 105.42 72.4297 154.71 225.16 162l94.9004 4.11035l0.0595703 20.6699c0 87.6602 -28.04 128.95 -114.75 128.95h-3.33984c-49.75 0 -104.82 -17.0195 -154.771 -38.0996
c-3.95996 -1.32031 -8.26953 0.660156 -8.26953 5.62012v43.4404c0 6.95996 2.65039 11.2695 7.95996 13.2695c41.9697 18.7305 109.64 36.75 167.5 36.75zM353.579 252.74l-95.8906 -3.03027c-102.89 -3.37012 -149.489 -38.8604 -149.489 -105.891v-4.34961
c0 -56.29 41.5596 -92.7998 106.939 -92.7998h4.33008c44.4805 0 89.04 20.8604 134.11 71.3203v134.75z" />
    <glyph glyph-name="abreve" unicode="&#x103;" horiz-adv-x="490" 
d="M367.96 671.08c5.96973 3.33008 11.2715 0.330078 11.2715 -5.95996v-36.5498c0 -6.30957 -2.66016 -9.62988 -6.31055 -12.29c-19 -15 -67.9697 -39.3604 -127.95 -39.3604s-108.94 24.3604 -127.94 39.3604c-3.66016 2.66016 -6.31055 5.98047 -6.31055 12.29v36.5498
c0 6.29004 5.30957 9.29004 11.2695 5.95996c30.9102 -17.3398 67.2803 -38.0898 122.99 -38.0898s92.0703 20.75 122.98 38.0898zM247.902 513l5.34863 -0.000976562c114.08 0 174.061 -54.9404 174.751 -188.311v-316.42c0 -4.95996 -3.30957 -8.26953 -8.2793 -8.26953
h-51.9805c-4.30957 0 -7.29004 2.65039 -7.94043 6.95996l-3.20996 58.7402c-43.0801 -48.2402 -105.99 -78.7002 -162.3 -78.7002h-5.67969c-97.3604 0 -155.16 59.5596 -155.16 142.67v6.62012c0 105.42 72.4297 154.71 225.16 162l94.9004 4.11035l0.0595703 20.6699
c0 87.6602 -28.04 128.95 -114.75 128.95h-3.33984c-49.75 0 -104.82 -17.0195 -154.771 -38.0996c-3.95996 -1.32031 -8.26953 0.660156 -8.26953 5.62012v43.4404c0 6.95996 2.65039 11.2695 7.95996 13.2695c41.9697 18.7305 109.64 36.75 167.5 36.75zM353.581 252.739
l-95.8906 -3.03027c-102.89 -3.37012 -149.489 -38.8604 -149.489 -105.891v-4.34961c0 -56.29 41.5596 -92.7998 106.939 -92.7998h4.33008c44.4805 0 89.04 20.8604 134.11 71.3203v134.75z" />
    <glyph glyph-name="acaron" unicode="&#x1ce;" horiz-adv-x="490" 
d="M317.69 749.83h44.0508c4.99023 0 8.66992 -4.33008 5.66992 -9.33008l-93.2197 -155.69c-3.33008 -6 -5.98047 -7.98047 -12.6201 -7.98047h-33.2002c-6.62988 0 -9.29004 1.98047 -12.6104 7.98047l-93.2197 155.69c-3 5 0.669922 9.33008 5.66992 9.33008h44.0596
c7.65039 0 11.29 -3.33008 13.9404 -8.63965l58.7695 -114.85l58.7598 114.85c2.66016 5.30957 6.29004 8.63965 13.9502 8.63965zM247.901 513l5.35156 -0.000976562c114.09 0 174.07 -54.9404 174.75 -188.311v-316.42c0 -4.95996 -3.30957 -8.26953 -8.26953 -8.26953
h-51.9805c-4.30957 0 -7.29004 2.65039 -7.9502 6.95996l-3.2002 58.7402c-43.0801 -48.2402 -105.99 -78.7002 -162.311 -78.7002h-5.66992c-97.3701 0 -155.17 59.5596 -155.17 142.67v6.62012c0 105.42 72.4404 154.71 225.16 162l94.9102 4.11035l0.0498047 20.6699
c0 87.6602 -28.0303 128.95 -114.74 128.95h-3.34961c-49.7402 0 -104.82 -17.0195 -154.761 -38.0996c-3.96973 -1.32031 -8.2793 0.660156 -8.2793 5.62012v43.4404c0 6.95996 2.66016 11.2695 7.96973 13.2695c41.96 18.7305 109.64 36.75 167.489 36.75z
M353.583 252.739l-95.8916 -3.03027c-102.89 -3.37012 -149.489 -38.8604 -149.489 -105.891v-4.34961c0 -56.29 41.5703 -92.7998 106.95 -92.7998h4.32031c44.4805 0 89.0508 20.8604 134.11 71.3203v134.75z" />
    <glyph glyph-name="acircumflex" unicode="&#xe2;" horiz-adv-x="490" 
d="M274.2 741.85l93.2188 -155.69c3.00977 -5 -0.669922 -9.33008 -5.66992 -9.33008h-44.0498c-7.66016 0 -11.29 3.33008 -13.9502 8.63965l-58.7598 114.85l-58.7695 -114.85c-2.65039 -5.30957 -6.29004 -8.63965 -13.9404 -8.63965h-44.0596
c-5 0 -8.66992 4.33008 -5.66992 9.33008l93.2197 155.69c3.32031 6 5.98047 7.98047 12.6104 7.98047h33.2002c6.63965 0 9.29004 -1.98047 12.6201 -7.98047zM247.909 512.999l5.35156 -0.000976562c114.09 0 174.07 -54.9404 174.75 -188.311v-316.42
c0 -4.95996 -3.30957 -8.26953 -8.26953 -8.26953h-51.9805c-4.30957 0 -7.29004 2.65039 -7.9502 6.95996l-3.2002 58.7402c-43.0801 -48.2402 -105.99 -78.7002 -162.311 -78.7002h-5.66992c-97.3701 0 -155.17 59.5596 -155.17 142.67v6.62012
c0 105.42 72.4404 154.71 225.16 162l94.9102 4.11035l0.0498047 20.6699c0 87.6602 -28.0303 128.95 -114.74 128.95h-3.34961c-49.7402 0 -104.82 -17.0195 -154.761 -38.0996c-3.96973 -1.32031 -8.2793 0.660156 -8.2793 5.62012v43.4404
c0 6.95996 2.66016 11.2695 7.96973 13.2695c41.96 18.7305 109.64 36.75 167.489 36.75zM353.591 252.738l-95.8916 -3.03027c-102.89 -3.37012 -149.489 -38.8604 -149.489 -105.891v-4.34961c0 -56.29 41.5703 -92.7998 106.95 -92.7998h4.32031
c44.4805 0 89.0508 20.8604 134.11 71.3203v134.75z" />
    <glyph glyph-name="adieresis" unicode="&#xe4;" horiz-adv-x="490" 
d="M137.26 677.85h61.4805c5.62988 0 8.93945 -3.30957 8.93945 -8.94922v-73.0303c0 -5.63965 -3.30957 -8.94922 -8.93945 -8.94922h-61.4805c-5.62988 0 -8.93945 3.30957 -8.93945 8.94922v73.0303c0 5.63965 3.30957 8.94922 8.93945 8.94922zM291.23 677.85h61.4697
c5.63965 0 8.94922 -3.30957 8.94922 -8.94922v-73.0303c0 -5.63965 -3.30957 -8.94922 -8.94922 -8.94922h-61.4697c-5.63965 0 -8.94922 3.30957 -8.94922 8.94922v73.0303c0 5.63965 3.30957 8.94922 8.94922 8.94922zM247.91 513l5.35156 -0.000976562
c114.09 0 174.07 -54.9404 174.75 -188.311v-316.42c0 -4.95996 -3.30957 -8.26953 -8.26953 -8.26953h-51.9805c-4.30957 0 -7.29004 2.65039 -7.9502 6.95996l-3.2002 58.7402c-43.0801 -48.2402 -105.99 -78.7002 -162.311 -78.7002h-5.66992
c-97.3701 0 -155.17 59.5596 -155.17 142.67v6.62012c0 105.42 72.4404 154.71 225.16 162l94.9102 4.11035l0.0498047 20.6699c0 87.6602 -28.0303 128.95 -114.74 128.95h-3.34961c-49.7402 0 -104.82 -17.0195 -154.761 -38.0996
c-3.96973 -1.32031 -8.2793 0.660156 -8.2793 5.62012v43.4404c0 6.95996 2.66016 11.2695 7.96973 13.2695c41.96 18.7305 109.64 36.75 167.489 36.75zM353.592 252.739l-95.8916 -3.03027c-102.89 -3.37012 -149.489 -38.8604 -149.489 -105.891v-4.34961
c0 -56.29 41.5703 -92.7998 106.95 -92.7998h4.32031c44.4805 0 89.0508 20.8604 134.11 71.3203v134.75z" />
    <glyph glyph-name="agrave" unicode="&#xe0;" horiz-adv-x="490" 
d="M203.05 741.19l72.96 -156.031c2.32031 -4.33008 0 -8.33008 -4.33008 -8.33008h-38.4297c-6.63965 0 -9.29004 1.98047 -12.6201 7.98047l-86.4902 155.69c-2.32031 5 0.679688 9.33008 5.67969 9.33008h49.29c7.65039 0 11.29 -3.33008 13.9404 -8.63965z
M247.899 512.999l5.34863 0.00976562c114.08 0 174.061 -54.9502 174.751 -188.311v-316.42c0 -4.96973 -3.30957 -8.2793 -8.2793 -8.2793h-51.9805c-4.30957 0 -7.29004 2.66016 -7.94043 6.96973l-3.20996 58.7402c-43.0801 -48.2402 -105.99 -78.71 -162.3 -78.71
h-5.67969c-97.3604 0 -155.16 59.5703 -155.16 142.681v6.62012c0 105.42 72.4297 154.71 225.16 162l94.9004 4.11035l0.0595703 20.6699c0 87.6504 -28.04 128.94 -114.75 128.94h-3.33984c-49.75 0 -104.82 -17.0195 -154.771 -38.0898
c-3.95996 -1.33008 -8.26953 0.650391 -8.26953 5.62012v43.4297c0 6.96973 2.65039 11.2793 7.95996 13.2793c41.9697 18.7197 109.64 36.7393 167.5 36.7393zM353.578 252.739l-95.8906 -3.03027c-102.89 -3.36035 -149.489 -38.8506 -149.489 -105.891v-4.33984
c0 -56.29 41.5596 -92.7998 106.939 -92.7998h4.33008c44.4805 0 89.04 20.8604 134.11 71.3203v134.74z" />
    <glyph glyph-name="amacron" unicode="&#x101;" horiz-adv-x="490" 
d="M123.75 643.32l242.46 0.000976562c4.95996 0 8.26953 -3.30957 8.26953 -8.26953v-39.8604c0 -4.95996 -3.30957 -8.26953 -8.26953 -8.26953l-242.46 0.320312c-4.95996 0 -8.26953 3.30957 -8.26953 8.2793v39.5195c0 4.96973 3.30957 8.2793 8.26953 8.2793z
M247.91 513.001l5.34863 0.00976562c114.08 0 174.061 -54.9502 174.751 -188.311v-316.42c0 -4.96973 -3.30957 -8.2793 -8.2793 -8.2793h-51.9805c-4.30957 0 -7.29004 2.66016 -7.94043 6.96973l-3.20996 58.7402c-43.0801 -48.2402 -105.99 -78.71 -162.3 -78.71
h-5.67969c-97.3604 0 -155.16 59.5703 -155.16 142.681v6.62012c0 105.42 72.4297 154.71 225.16 162l94.9004 4.11035l0.0595703 20.6699c0 87.6504 -28.04 128.94 -114.75 128.94h-3.33984c-49.75 0 -104.82 -17.0195 -154.771 -38.0898
c-3.95996 -1.33008 -8.26953 0.650391 -8.26953 5.62012v43.4297c0 6.96973 2.65039 11.2793 7.95996 13.2793c41.9697 18.7197 109.64 36.7393 167.5 36.7393zM353.589 252.741l-95.8906 -3.03027c-102.89 -3.36035 -149.489 -38.8506 -149.489 -105.891v-4.33984
c0 -56.29 41.5596 -92.7998 106.939 -92.7998h4.33008c44.4805 0 89.04 20.8604 134.11 71.3203v134.74z" />
    <glyph glyph-name="aogonek" unicode="&#x105;" horiz-adv-x="490" 
d="M247.91 513l5.34863 -0.0107422c114.08 0 174.061 -54.9404 174.751 -188.311v-316.42c0 -4.95996 -3.30957 -8.26953 -8.2793 -8.26953c-46.5596 -39.4697 -90.25 -75.5293 -90.25 -121.27c0 -32.7695 22.4004 -48.1094 53.8203 -48.1094
c10.71 0 19.4004 1.66992 29.1104 4.01953c4 1 7.32031 -1 7.32031 -5.67969v-23.0498c0 -7.63965 -2.30957 -11.29 -9.95996 -13.9502c-9.98047 -3.98047 -26.2705 -6.96094 -41.8906 -6.96094c-47.9805 0 -88.2607 27 -88.2607 82.6201
c0 40.71 23.1104 77.5898 89.79 132.39h-1.66016c-4.30957 0 -7.29004 2.65039 -7.94043 6.95996l-3.20996 58.7402c-43.0801 -48.2402 -105.99 -78.7002 -162.3 -78.7002h-5.67969c-97.3604 0 -155.16 59.5596 -155.16 142.67v6.62012c0 105.42 72.4297 154.71 225.16 162
l94.9004 4.11035l0.0595703 20.6699c0 87.6602 -28.04 128.95 -114.75 128.95h-3.33984c-49.75 0 -104.82 -17.0195 -154.771 -38.0996c-3.95996 -1.32031 -8.26953 0.660156 -8.26953 5.62012v43.4404c0 6.95996 2.65039 11.2695 7.95996 13.2695
c41.9697 18.7305 109.64 36.75 167.5 36.75zM353.589 252.729l-95.8906 -3.03027c-102.89 -3.37012 -149.489 -38.8604 -149.489 -105.891v-4.34961c0 -56.29 41.5596 -92.7998 106.939 -92.7998h4.33008c44.4805 0 89.04 20.8604 134.11 71.3203v134.75z" />
    <glyph glyph-name="aring" unicode="&#xe5;" horiz-adv-x="490" 
d="M245.14 726.85c45.9102 0 82.4902 -36.5791 82.4902 -81.1494c0 -45.5596 -37.25 -82.1396 -82.4902 -82.1396c-46.9102 0 -82.8203 37.25 -82.8203 82.1396c0 43.8896 35.9102 81.1494 82.8203 81.1494zM245.14 686.851c-24.7598 0 -40.7998 -18.4004 -40.7998 -40.4805
c0 -22.7402 16.04 -42.8203 40.7998 -42.8203c24.7695 0 40.4795 20.0801 40.4795 42.8203c0 22.0801 -15.71 40.4805 -40.4795 40.4805zM247.909 513.001l5.34863 -0.000976562c114.08 0 174.061 -54.9404 174.751 -188.311v-316.42
c0 -4.95996 -3.30957 -8.26953 -8.2793 -8.26953h-51.9805c-4.30957 0 -7.29004 2.65039 -7.94043 6.95996l-3.20996 58.7402c-43.0801 -48.2402 -105.99 -78.7002 -162.3 -78.7002h-5.67969c-97.3604 0 -155.16 59.5596 -155.16 142.67v6.62012
c0 105.42 72.4297 154.71 225.16 162l94.9004 4.11035l0.0595703 20.6699c0 87.6602 -28.04 128.95 -114.75 128.95h-3.33984c-49.75 0 -104.82 -17.0195 -154.771 -38.0996c-3.95996 -1.32031 -8.26953 0.660156 -8.26953 5.62012v43.4404
c0 6.95996 2.65039 11.2695 7.95996 13.2695c41.9697 18.7305 109.64 36.75 167.5 36.75zM353.588 252.74l-95.8906 -3.03027c-102.89 -3.37012 -149.489 -38.8604 -149.489 -105.891v-4.34961c0 -56.29 41.5596 -92.7998 106.939 -92.7998h4.33008
c44.4805 0 89.04 20.8604 134.11 71.3203v134.75z" />
    <glyph glyph-name="atilde" unicode="&#xe3;" horiz-adv-x="490" 
d="M356.46 665.72l24.7402 -0.00976562c5.33008 0 7.65039 -2.98047 5.65039 -8.98047c-17.1602 -52.54 -51.54 -89.9102 -95.1602 -89.9102h-4c-47.6904 0 -53.3506 44.0596 -93.0605 44.0596c-23.0498 0 -37.4697 -15.7305 -49.8496 -35.1602
c-2.98047 -4.66016 -6.31055 -6.66016 -11.291 -6.66016h-24.7402c-5.33008 0 -7.65039 2.98047 -5.65039 8.98047c17.1602 52.5498 51.54 89.9102 95.1602 89.9102h4c48.0195 0 54.9893 -44.0498 93.0596 -44.0498c22.4004 0 37.8008 16.0498 49.8604 35.1602
c2.98047 4.66016 6.30078 6.66016 11.2812 6.66016zM247.9 512.99l5.35156 0.00976562c114.09 0 174.07 -54.9502 174.75 -188.311v-316.42c0 -4.96973 -3.30957 -8.2793 -8.26953 -8.2793h-51.9805c-4.30957 0 -7.29004 2.66016 -7.9502 6.96973l-3.2002 58.7402
c-43.0801 -48.2402 -105.99 -78.71 -162.311 -78.71h-5.66992c-97.3701 0 -155.17 59.5703 -155.17 142.681v6.62012c0 105.42 72.4404 154.71 225.16 162l94.9102 4.11035l0.0498047 20.6699c0 87.6504 -28.0303 128.94 -114.74 128.94h-3.34961
c-49.7402 0 -104.82 -17.0195 -154.761 -38.0898c-3.96973 -1.33008 -8.2793 0.650391 -8.2793 5.62012v43.4297c0 6.96973 2.66016 11.2793 7.96973 13.2793c41.96 18.7197 109.64 36.7393 167.489 36.7393zM353.582 252.73l-95.8916 -3.03027
c-102.89 -3.36035 -149.489 -38.8506 -149.489 -105.891v-4.33984c0 -56.29 41.5703 -92.7998 106.95 -92.7998h4.32031c44.4805 0 89.0508 20.8604 134.11 71.3203v134.74z" />
    <glyph glyph-name="ae" unicode="&#xe6;" horiz-adv-x="824" 
d="M565.03 513l11.0176 0.00878906c119.69 0 194.811 -76.0303 194.811 -223.05v-37.4805c0 -6.59961 -4.94043 -11.54 -11.54 -11.54h-329.68l0.110352 -43.6104c-0.110352 -95.8496 67.7295 -149.34 157.84 -149.34h4.33008c49.7402 0 102.12 17.0195 152.07 40.0596
c3.95996 1.65039 8.26953 -0.65918 8.26953 -5.61914v-44.4199c0 -6.96973 -2.65039 -10.9502 -7.95996 -13.2705c-36.4004 -19.0596 -106.95 -37.7295 -160.55 -37.7295h-7.62988c-74.4502 0 -138.181 28.6104 -175.211 81.3906v-60.1201
c0 -4.96973 -3.30957 -8.2793 -8.2793 -8.2793h-24.8799c-4.30957 0 -7.29004 2.66016 -7.94043 6.96973l-3.20996 58.7402c-43.0801 -48.2402 -105.99 -78.71 -162.3 -78.71h-5.67969c-97.3604 0 -155.16 59.5703 -155.16 142.681v6.62012
c0 105.42 72.4297 154.71 225.16 162l94.9004 4.11035l0.0595703 20.6699c0 87.6504 -28.04 128.94 -114.75 128.94h-3.33984c-49.75 0 -104.82 -17.0195 -154.771 -38.0898c-3.95996 -1.33008 -8.26953 0.650391 -8.26953 5.62012v43.4297
c0 6.96973 2.65039 11.2793 7.95996 13.2793c41.9697 18.7197 109.64 36.7393 167.5 36.7393h5.33984c81.3203 0 127.7 -31.1699 149.2 -93.8896c33.4004 60.0996 92.2207 93.8896 162.581 93.8896zM429.488 289.489l271 -0.00976562
c0.790039 113.08 -41.8203 165.82 -127.08 165.82h-7.03027c-80.2197 0 -135.34 -62.2803 -136.89 -165.811zM353.599 252.749l-95.8906 -3.03027c-102.89 -3.37012 -149.489 -38.8604 -149.489 -105.891v-4.34961c0 -56.29 41.5596 -92.7998 106.939 -92.7998h4.33008
c44.4805 0 89.04 20.8604 134.11 71.3203v134.75z" />
    <glyph glyph-name="b" unicode="b" horiz-adv-x="543" 
d="M292.76 513l6.28125 -0.00195312c121.35 0 188.42 -85.2002 188.42 -221.74v-78.2598c0 -147.02 -84.5996 -226 -207.489 -226h-7.62988c-72.4805 0 -160.421 31.6602 -201.401 56.6406c-4.66016 3.32031 -7.31055 8.30078 -7.31055 13.2812v671.8
c0 4.96973 3.30957 8.2793 8.26953 8.2793h57.8799c4.95996 0 8.26953 -3.30957 8.26953 -8.2793v-288c43.8203 48.5703 103.021 72.2803 154.711 72.2803zM411.731 208.729l0.000976562 81.5596c0 105.15 -47.2402 160.75 -132.021 160.75h-2.98047
c-44.9102 0 -92.4697 -20.7998 -138.689 -70.8193v-291.71c38.4697 -22.0898 89.3799 -40.5303 133.979 -40.5303h4.33008c81.4199 0 135.38 55.5996 135.38 160.75z" />
    <glyph glyph-name="c" unicode="c" horiz-adv-x="486" 
d="M277.47 513l11 -0.00292969c49.0195 0 103.31 -18.6797 136.35 -37.7295c5.30957 -2.33008 7.95996 -6.31055 7.95996 -13.2705v-44.4199c0 -4.96973 -4.30957 -7.2793 -8.26953 -5.61914c-44.29 23.3604 -82.71 39.0703 -127.88 39.0703h-7.69043
c-86.9805 0 -157.94 -57.8896 -157.94 -168.92v-64.2197c0 -111.04 70.96 -168.93 157.94 -168.93h7.69043c45.1699 0 83.5898 15.71 127.88 39.0801c3.95996 1.65039 8.26953 -0.65918 8.26953 -5.61914v-44.4199c0 -6.96973 -2.65039 -10.9502 -7.95996 -13.2705
c-33.04 -19.0596 -87.3301 -37.7295 -136.35 -37.7295h-11c-119.62 0 -222.2 77.6699 -222.2 230.25v65.4902c0 152.58 102.58 230.26 222.2 230.26z" />
    <glyph glyph-name="cacute" unicode="&#x107;" horiz-adv-x="486" 
d="M230.94 585.16l72.9512 156.031c2.66016 5.30957 6.29004 8.63965 13.9502 8.63965h49.29c5 0 8 -4.33008 5.66992 -9.33008l-86.4902 -155.69c-3.32031 -6 -5.98047 -7.98047 -12.6104 -7.98047h-38.4404c-4.32031 0 -6.65039 4 -4.32031 8.33008zM277.462 513.001
l11 -0.00292969c49.0195 0 103.31 -18.6797 136.35 -37.7295c5.30957 -2.33008 7.95996 -6.31055 7.95996 -13.2705v-44.4199c0 -4.96973 -4.30957 -7.2793 -8.26953 -5.61914c-44.29 23.3604 -82.71 39.0703 -127.88 39.0703h-7.69043
c-86.9805 0 -157.94 -57.8896 -157.94 -168.92v-64.2197c0 -111.04 70.96 -168.93 157.94 -168.93h7.69043c45.1699 0 83.5898 15.71 127.88 39.0801c3.95996 1.65039 8.26953 -0.65918 8.26953 -5.61914v-44.4199c0 -6.96973 -2.65039 -10.9502 -7.95996 -13.2705
c-33.04 -19.0596 -87.3301 -37.7295 -136.35 -37.7295h-11c-119.62 0 -222.2 77.6699 -222.2 230.25v65.4902c0 152.58 102.58 230.26 222.2 230.26z" />
    <glyph glyph-name="ccaron" unicode="&#x10d;" horiz-adv-x="486" 
d="M336.82 749.83h44.0508c5 0 8.66992 -4.32031 5.66992 -9.32031l-93.2197 -155.69c-3.32031 -6 -5.98047 -7.98047 -12.6104 -7.98047h-33.2002c-6.63965 0 -9.29004 1.98047 -12.6201 7.98047l-93.2197 155.69c-3 5 0.679688 9.32031 5.67969 9.32031h44.0498
c7.66016 0 11.29 -3.32031 13.9502 -8.62988l58.7598 -114.85l58.7695 114.85c2.65039 5.30957 6.29004 8.62988 13.9404 8.62988zM277.471 513l11 -0.00292969c49.0195 0 103.31 -18.6797 136.34 -37.7295c5.30957 -2.33008 7.96973 -6.31055 7.96973 -13.2705v-44.4199
c0 -4.96973 -4.30957 -7.2793 -8.2793 -5.61914c-44.29 23.3604 -82.71 39.0703 -127.87 39.0703h-7.69043c-86.9805 0 -157.95 -57.8896 -157.95 -168.92v-64.2197c0 -111.04 70.9697 -168.93 157.95 -168.93h7.69043c45.1602 0 83.5801 15.71 127.87 39.0801
c3.96973 1.65039 8.2793 -0.65918 8.2793 -5.61914v-44.4199c0 -6.96973 -2.66016 -10.9502 -7.96973 -13.2705c-33.0303 -19.0596 -87.3203 -37.7295 -136.34 -37.7295h-11c-119.62 0 -222.2 77.6699 -222.2 230.25v65.4902c0 152.58 102.58 230.26 222.2 230.26z" />
    <glyph glyph-name="ccedilla" unicode="&#xe7;" horiz-adv-x="486" 
d="M296.63 451.03l-7.68359 0.00683594c-86.9805 0 -157.95 -57.8896 -157.95 -168.93v-64.2197c0 -111.03 70.9697 -168.92 157.95 -168.92h7.69043c45.1602 0 83.5801 15.71 127.87 39.0703c3.96973 1.66016 8.2793 -0.649414 8.2793 -5.61914v-44.4199
c0 -6.95996 -2.66016 -10.9404 -7.96973 -13.2705c-33.0303 -19.0498 -87.3203 -37.7295 -136.34 -37.7295h-11c-3.01953 0 -6.0293 0.0498047 -9.0293 0.149414l-8.09961 -46.3701c7.08984 2.05957 18.46 4.10938 29.2002 4.10938c47.3496 0 80 -28.6504 80 -75.96
c0 -54.6396 -42.3096 -83.9297 -100.869 -83.9297c-29.2598 0 -54.9297 7.30957 -64.5898 11.29c-7.65039 2.98047 -9.95996 6.64062 -9.95996 14.2705v15.8604c0 4.66992 3.32031 6.66992 7.32031 5.66992c10.04 -2.33984 33.3496 -9.97949 59.3301 -9.97949
c36.1104 0 59.5605 13.3799 59.5605 43.2002c0 26.7998 -19.0898 40.1797 -46.8301 40.1797c-13.71 0 -27.75 -4.01953 -39.7305 -7c-4.33984 -1 -7.68945 -1.66992 -11.3594 1.34961l-3.66016 2.66992c-3.65039 2.67969 -6.65039 6.33008 -5.65039 10.6602l14.4297 78.5703
c-96.8799 18.96 -172.27 94.71 -172.27 225.51v65.4902c0 152.58 102.58 230.26 222.2 230.26h11c49.0195 0 103.31 -18.6797 136.35 -37.7295c5.30957 -2.33008 7.95996 -6.31055 7.95996 -13.2705v-44.4199c0 -4.96973 -4.30957 -7.2793 -8.26953 -5.61914
c-44.29 23.3604 -82.71 39.0703 -127.88 39.0703z" />
    <glyph glyph-name="cdotaccent" unicode="&#x10b;" horiz-adv-x="486" 
d="M241.25 677.85h69.9805c5.62988 0 8.93945 -3.30957 8.93945 -8.94922v-73.0303c0 -5.63965 -3.30957 -8.94922 -8.93945 -8.94922h-69.9805c-5.63965 0 -8.94922 3.30957 -8.94922 8.94922v73.0303c0 5.63965 3.30957 8.94922 8.94922 8.94922zM277.471 513
l11 -0.00292969c49.0195 0 103.31 -18.6797 136.34 -37.7295c5.30957 -2.33008 7.96973 -6.31055 7.96973 -13.2705v-44.4199c0 -4.96973 -4.30957 -7.2793 -8.2793 -5.61914c-44.29 23.3604 -82.71 39.0703 -127.87 39.0703h-7.69043
c-86.9805 0 -157.95 -57.8896 -157.95 -168.92v-64.2197c0 -111.04 70.9697 -168.93 157.95 -168.93h7.69043c45.1602 0 83.5801 15.71 127.87 39.0801c3.96973 1.65039 8.2793 -0.65918 8.2793 -5.61914v-44.4199c0 -6.96973 -2.66016 -10.9502 -7.96973 -13.2705
c-33.0303 -19.0596 -87.3203 -37.7295 -136.34 -37.7295h-11c-119.62 0 -222.2 77.6699 -222.2 230.25v65.4902c0 152.58 102.58 230.26 222.2 230.26z" />
    <glyph glyph-name="d" unicode="d" horiz-adv-x="543" 
d="M412.96 737h57.8711c4.95996 0 8.26953 -3.30957 8.26953 -8.2793v-720.45c0 -4.96973 -3.30957 -8.2793 -8.26953 -8.2793h-51.9805c-4.30957 0 -7.29004 2.66016 -7.9502 6.96973l-2.4502 55.8496c-43.5801 -50.0996 -104.25 -75.8193 -158.48 -75.8193h-6.29004
c-122 0 -188.42 85.2002 -188.42 221.75v78.25c0 147.02 76.5703 226 194.641 226h6.29004c47.8799 0 105.16 -20.4199 148.5 -67.8701v283.6c0 4.96973 3.30957 8.2793 8.26953 8.2793zM265.991 451.03l-2.98047 -0.000976562
c-85.4297 0 -132.01 -55.5996 -132.01 -160.739v-80.5801c0 -105.15 46.5801 -160.75 132.01 -160.75h2.98047c44.8799 0 92.5498 20.8701 138.689 70.8105v259.79c-46.54 50.3496 -94.7598 71.4697 -138.689 71.4697z" />
    <glyph glyph-name="eth" unicode="&#xf0;" horiz-adv-x="536" 
d="M487.15 748.24l20.1289 -28.9697c3.16992 -3.75977 2.08008 -8.76953 -2.2002 -11.7598l-54.9004 -38.3896c19.3896 -30.2305 30.4297 -69.1807 30.4297 -117.251l-0.200195 -338.87c-0.0996094 -147.02 -86.1494 -226 -206.77 -226h-11
c-115.91 0 -207.38 78.9805 -207.38 226v63.6201c0 136.54 67.0703 221.74 188.42 221.74h6.29004c51.6904 0 110.891 -23.71 154.711 -72.2695v126.12c0 29.8301 -4.86035 54.7803 -14.6006 74.8799l-80.1299 -56.04c-3.95996 -2.76953 -8.53027 -1.85938 -11.6006 1.76074
l-20.1299 28.9697c-3.17969 3.75977 -2.08008 8.76953 2.18945 11.7598l76 53.1396c-22.6299 15.5703 -53.2295 23.3105 -91.8594 23.3105h-4.33008c-51.71 0 -102.45 -17.3398 -148.8 -39.3994c-3.95996 -1.65039 -8.26953 0.65918 -8.26953 5.61914v44.4199
c0 6.96973 2.65039 11.2793 7.95996 13.2793c41.3096 18.4004 98.1094 36.0908 162.51 36.0908h5.34961c53.4102 0 100.9 -13.7402 136.351 -42.1201l60.2305 42.1201c3.95996 2.76953 8.53027 1.85938 11.6006 -1.76074zM404.68 209.711v155.871
c-46.2197 50.0195 -93.79 70.8193 -138.7 70.8193h-2.98047c-84.7803 0 -132.011 -55.5996 -132.011 -160.75v-65.9404c0 -105.15 54.9404 -160.75 133.311 -160.75h7.69043c83.0703 0 132.69 55.5996 132.69 160.75z" />
    <glyph glyph-name="dcaron" unicode="&#x10f;" horiz-adv-x="651" 
d="M412.96 737h57.8711c4.95996 0 8.26953 -3.30957 8.26953 -8.2793v-720.45c0 -4.96973 -3.30957 -8.2793 -8.26953 -8.2793h-51.9805c-4.30957 0 -7.29004 2.66016 -7.9502 6.96973l-2.4502 55.8496c-43.5801 -50.0996 -104.25 -75.8193 -158.48 -75.8193h-6.29004
c-122 0 -188.42 85.2002 -188.42 221.75v78.25c0 147.02 76.5703 226 194.641 226h6.29004c47.8799 0 105.16 -20.4199 148.5 -67.8701v283.6c0 4.96973 3.30957 8.2793 8.26953 8.2793zM546.141 737l72.3018 0.000976562c5.63965 0 8.94922 -3.30957 8.94922 -8.94922
v-53.0898c0 -5.62012 -0.230469 -11.1201 -2.64062 -16.5498l-41.4502 -109.14c-2.20996 -4.7002 -5.9502 -7.27051 -10.2402 -7.27051h-36.5996c-6.32031 0 -8 5.58984 -5.98047 10.3096l40.7803 105.1h-25.1201c-5.63965 0 -8.94922 3.30957 -8.94922 8.94922v61.6904
c0 5.63965 3.30957 8.94922 8.94922 8.94922zM265.992 451.031l-2.98047 -0.000976562c-85.4404 0 -132.021 -55.5996 -132.021 -160.739v-80.5801c0 -105.15 46.5801 -160.75 132.021 -160.75h2.98047c44.8701 0 92.5498 20.8701 138.689 70.8105v259.79
c-46.5498 50.3496 -94.7695 71.4697 -138.689 71.4697z" />
    <glyph glyph-name="dcroat" unicode="&#x111;" horiz-adv-x="543" 
d="M479.11 660.84l53.4512 0.0078125c4.95996 0 8.26953 -3.30957 8.26953 -8.2793v-39.8496c0 -4.96973 -3.30957 -8.2793 -8.26953 -8.2793h-53.46v-596.17c0 -4.96973 -3.30957 -8.2793 -8.26953 -8.2793h-51.9805c-4.30957 0 -7.29004 2.66016 -7.9502 6.96973
l-2.4502 55.8496c-43.5801 -50.0996 -104.25 -75.8193 -158.48 -75.8193h-6.29004c-122 0 -188.42 85.2002 -188.42 221.75v78.25c0 147.02 76.5703 226 194.641 226h6.29004c47.8799 0 105.16 -20.4199 148.5 -67.8701v159.32h-118
c-4.96973 0 -8.2793 3.30957 -8.2793 8.26953v39.8604c0 4.95996 3.30957 8.26953 8.2793 8.26953h117.99v67.8799c0 4.96973 3.30957 8.2793 8.2793 8.2793h57.8701c4.96973 0 8.2793 -3.30957 8.2793 -8.2793v-67.8799zM404.682 119.768l0.00976562 259.789
c-46.5498 50.3496 -94.7695 71.4697 -138.689 71.4697h-2.99023c-85.4297 0 -132.01 -55.5996 -132.01 -160.739v-80.5801c0 -105.15 46.5801 -160.75 132.01 -160.75h2.98047c44.8799 0 92.5498 20.8701 138.689 70.8105z" />
    <glyph glyph-name="e" unicode="e" horiz-adv-x="526" 
d="M266.72 513h11.0098c119.69 0 194.811 -76.0303 194.811 -223.05v-37.4805c0 -6.59961 -4.94043 -11.54 -11.54 -11.54h-329.68l0.110352 -43.6104c-0.110352 -95.8496 67.7295 -149.34 157.84 -149.34h4.33008c49.7402 0 102.12 17.0195 152.07 40.0596
c3.95996 1.65039 8.26953 -0.65918 8.26953 -5.61914v-44.4199c0 -6.96973 -2.65039 -10.9502 -7.95996 -13.2705c-36.4004 -19.0596 -106.95 -37.7295 -160.55 -37.7295h-7.62988c-125.28 0 -222.53 76.3203 -222.53 217.471v70.8701
c0 149.64 92.1797 237.659 211.449 237.659zM275.09 455.3l-7.03027 -0.00976562c-80.2197 0 -135.34 -62.2803 -136.89 -165.811h271c0.790039 113.07 -41.8203 165.82 -127.08 165.82z" />
    <glyph glyph-name="eacute" unicode="&#xe9;" horiz-adv-x="526" 
d="M239.52 585.16l72.9512 156.041c2.66016 5.30957 6.29004 8.62988 13.9502 8.62988h49.29c5 0 8 -4.32031 5.66992 -9.32031l-86.4902 -155.69c-3.32031 -6 -5.98047 -7.98047 -12.6104 -7.98047h-38.4404c-4.32031 0 -6.65039 4 -4.32031 8.32031zM266.711 513.001
h11.0098c119.69 0 194.811 -76.0303 194.811 -223.05v-37.4805c0 -6.59961 -4.94043 -11.54 -11.54 -11.54h-329.68l0.110352 -43.6104c-0.110352 -95.8496 67.7295 -149.34 157.84 -149.34h4.33008c49.7402 0 102.12 17.0195 152.07 40.0596
c3.95996 1.65039 8.26953 -0.65918 8.26953 -5.61914v-44.4199c0 -6.96973 -2.65039 -10.9502 -7.95996 -13.2705c-36.4004 -19.0596 -106.95 -37.7295 -160.55 -37.7295h-7.62988c-125.28 0 -222.53 76.3203 -222.53 217.471v70.8701
c0 149.64 92.1797 237.659 211.449 237.659zM275.081 455.301l-7.03027 -0.00976562c-80.2197 0 -135.34 -62.2803 -136.89 -165.811h271c0.790039 113.07 -41.8203 165.82 -127.08 165.82z" />
    <glyph glyph-name="ecaron" unicode="&#x11b;" horiz-adv-x="526" 
d="M335.78 749.83h44.0508c5 0 8.66992 -4.32031 5.66992 -9.32031l-93.2197 -155.69c-3.32031 -6 -5.98047 -7.98047 -12.6104 -7.98047h-33.2002c-6.63965 0 -9.29004 1.98047 -12.6201 7.98047l-93.2197 155.69c-3 5 0.679688 9.32031 5.67969 9.32031h44.0498
c7.66016 0 11.29 -3.32031 13.9502 -8.62988l58.7598 -114.85l58.7695 114.85c2.65039 5.30957 6.29004 8.62988 13.9404 8.62988zM266.721 513h11.0098c119.69 0 194.811 -76.0303 194.811 -223.05v-37.4805c0 -6.59961 -4.94043 -11.54 -11.54 -11.54h-329.68
l0.110352 -43.6104c-0.110352 -95.8496 67.7295 -149.34 157.84 -149.34h4.33008c49.7402 0 102.12 17.0195 152.07 40.0596c3.95996 1.65039 8.26953 -0.65918 8.26953 -5.61914v-44.4199c0 -6.96973 -2.65039 -10.9502 -7.95996 -13.2705
c-36.4004 -19.0596 -106.95 -37.7295 -160.55 -37.7295h-7.62988c-125.28 0 -222.53 76.3203 -222.53 217.471v70.8701c0 149.64 92.1797 237.659 211.449 237.659zM275.091 455.3l-7.03027 -0.00976562c-80.2197 0 -135.34 -62.2803 -136.89 -165.811h271
c0.790039 113.07 -41.8203 165.82 -127.08 165.82z" />
    <glyph glyph-name="ecircumflex" unicode="&#xea;" horiz-adv-x="526" 
d="M292.29 741.85l93.2285 -155.69c3 -5 -0.669922 -9.32031 -5.66992 -9.32031h-44.0596c-7.65039 0 -11.29 3.32031 -13.9404 8.62988l-58.7695 114.85l-58.7598 -114.85c-2.66016 -5.30957 -6.29004 -8.62988 -13.9502 -8.62988h-44.0498
c-5 0 -8.67969 4.32031 -5.67969 9.32031l93.2197 155.69c3.33008 6 5.98047 7.98047 12.6201 7.98047h33.2002c6.62988 0 9.29004 -1.98047 12.6104 -7.98047zM266.729 512.999h11.0098c119.69 0 194.811 -76.0303 194.811 -223.05v-37.4805
c0 -6.59961 -4.94043 -11.54 -11.54 -11.54h-329.68l0.110352 -43.6104c-0.110352 -95.8496 67.7295 -149.34 157.84 -149.34h4.33008c49.7402 0 102.12 17.0195 152.07 40.0596c3.95996 1.65039 8.26953 -0.65918 8.26953 -5.61914v-44.4199
c0 -6.96973 -2.65039 -10.9502 -7.95996 -13.2705c-36.4004 -19.0596 -106.95 -37.7295 -160.55 -37.7295h-7.62988c-125.28 0 -222.53 76.3203 -222.53 217.471v70.8701c0 149.64 92.1797 237.659 211.449 237.659zM275.099 455.299l-7.03027 -0.00976562
c-80.2197 0 -135.34 -62.2803 -136.89 -165.811h271c0.790039 113.07 -41.8203 165.82 -127.08 165.82z" />
    <glyph glyph-name="edieresis" unicode="&#xeb;" horiz-adv-x="526" 
d="M155.35 677.85h61.4805c5.62988 0 8.93945 -3.30957 8.93945 -8.93945v-73.04c0 -5.62988 -3.30957 -8.93945 -8.93945 -8.93945h-61.4805c-5.62988 0 -8.93945 3.30957 -8.93945 8.93945v73.04c0 5.62988 3.30957 8.93945 8.93945 8.93945zM309.32 677.85h61.4697
c5.63965 0 8.94922 -3.30957 8.94922 -8.93945v-73.04c0 -5.62988 -3.30957 -8.93945 -8.94922 -8.93945h-61.4697c-5.63965 0 -8.94922 3.30957 -8.94922 8.93945v73.04c0 5.62988 3.30957 8.93945 8.94922 8.93945zM266.73 513h10.998
c119.69 0 194.82 -76.0303 194.82 -223.05v-37.4805c0 -6.59961 -4.9502 -11.54 -11.5498 -11.54h-329.67l0.0996094 -43.6104c-0.0996094 -95.8496 67.7402 -149.34 157.851 -149.34h4.32031c49.75 0 102.13 17.0195 152.07 40.0596
c3.96973 1.65039 8.2793 -0.65918 8.2793 -5.61914v-44.4199c0 -6.96973 -2.66016 -10.9502 -7.96973 -13.2705c-36.4004 -19.0596 -106.94 -37.7295 -160.54 -37.7295h-7.63965c-125.27 0 -222.529 76.3203 -222.529 217.471v70.8701
c0 149.64 92.1797 237.659 211.46 237.659zM275.099 455.3l-7.04102 -0.00976562c-80.21 0 -135.34 -62.2803 -136.89 -165.811h271.01c0.780273 113.07 -41.8193 165.82 -127.079 165.82z" />
    <glyph glyph-name="edotaccent" unicode="&#x117;" horiz-adv-x="526" 
d="M228.08 677.85h69.9805c5.63965 0 8.94922 -3.30957 8.94922 -8.93945v-73.04c0 -5.62988 -3.30957 -8.93945 -8.94922 -8.93945h-69.9805c-5.62988 0 -8.93945 3.30957 -8.93945 8.93945v73.04c0 5.62988 3.30957 8.93945 8.93945 8.93945zM266.721 513h11.0098
c119.69 0 194.811 -76.0303 194.811 -223.05v-37.4805c0 -6.59961 -4.94043 -11.54 -11.54 -11.54h-329.68l0.110352 -43.6104c-0.110352 -95.8496 67.7295 -149.34 157.84 -149.34h4.33008c49.7402 0 102.12 17.0195 152.07 40.0596
c3.95996 1.65039 8.26953 -0.65918 8.26953 -5.61914v-44.4199c0 -6.96973 -2.65039 -10.9502 -7.95996 -13.2705c-36.4004 -19.0596 -106.95 -37.7295 -160.55 -37.7295h-7.62988c-125.28 0 -222.53 76.3203 -222.53 217.471v70.8701
c0 149.64 92.1797 237.659 211.449 237.659zM275.091 455.3l-7.03027 -0.00976562c-80.2197 0 -135.34 -62.2803 -136.89 -165.811h271c0.790039 113.07 -41.8203 165.82 -127.08 165.82z" />
    <glyph glyph-name="egrave" unicode="&#xe8;" horiz-adv-x="526" 
d="M225 741.2l72.9512 -156.041c2.33008 -4.32031 0 -8.32031 -4.32031 -8.32031h-38.4404c-6.62988 0 -9.29004 1.98047 -12.6104 7.98047l-86.4902 155.69c-2.33008 5 0.669922 9.32031 5.66992 9.32031h49.29c7.66016 0 11.29 -3.32031 13.9502 -8.62988z
M266.721 512.999l10.998 0.00878906c119.69 0 194.82 -76.04 194.82 -223.06v-37.4697c0 -6.59961 -4.9502 -11.5498 -11.5498 -11.5498h-329.67l0.0996094 -43.5996c-0.0996094 -95.8496 67.7402 -149.34 157.851 -149.34h4.32031c49.75 0 102.13 17.0195 152.07 40.0498
c3.96973 1.66016 8.2793 -0.649414 8.2793 -5.61914v-44.4199c0 -6.95996 -2.66016 -10.9404 -7.96973 -13.2705c-36.4004 -19.0498 -106.94 -37.7295 -160.54 -37.7295h-7.63965c-125.27 0 -222.529 76.3301 -222.529 217.47v70.8799
c0 149.63 92.1797 237.649 211.46 237.649zM275.089 455.298h-7.04102c-80.21 0 -135.34 -62.2803 -136.89 -165.82h271.01c0.780273 113.08 -41.8193 165.82 -127.079 165.82z" />
    <glyph glyph-name="emacron" unicode="&#x113;" horiz-adv-x="526" 
d="M141.84 643.32h242.46c4.95996 0 8.26953 -3.30957 8.26953 -8.26953v-39.8604c0 -4.95996 -3.30957 -8.26953 -8.26953 -8.26953h-242.46c-4.95996 0 -8.26953 3.30957 -8.26953 8.26953v39.8604c0 4.95996 3.30957 8.26953 8.26953 8.26953zM266.72 513h11.0098
c119.69 0 194.811 -76.0303 194.811 -223.05v-37.4805c0 -6.59961 -4.94043 -11.54 -11.54 -11.54h-329.68l0.110352 -43.6104c-0.110352 -95.8496 67.7295 -149.34 157.84 -149.34h4.33008c49.7402 0 102.12 17.0195 152.07 40.0596
c3.95996 1.65039 8.26953 -0.65918 8.26953 -5.61914v-44.4199c0 -6.96973 -2.65039 -10.9502 -7.95996 -13.2705c-36.4004 -19.0596 -106.95 -37.7295 -160.55 -37.7295h-7.62988c-125.28 0 -222.53 76.3203 -222.53 217.471v70.8701
c0 149.64 92.1797 237.659 211.449 237.659zM275.09 455.3l-7.03027 -0.00976562c-80.2197 0 -135.34 -62.2803 -136.89 -165.811h271c0.790039 113.07 -41.8203 165.82 -127.08 165.82z" />
    <glyph glyph-name="eogonek" unicode="&#x119;" horiz-adv-x="526" 
d="M266.72 513l11 -0.0107422c119.69 0 194.811 -76.04 194.811 -223.06v-37.4697c0 -6.59961 -4.94043 -11.5498 -11.54 -11.5498h-329.68l0.110352 -43.5996c-0.110352 -95.8496 67.7295 -149.34 157.84 -149.34h4.33008c49.7402 0 102.12 17.0195 152.07 40.0498
c3.95996 1.66016 8.26953 -0.649414 8.26953 -5.61914v-44.4199c0 -6.95996 -2.65039 -10.9404 -7.95996 -13.2705c-19.9004 -10.4102 -49.9902 -20.71 -81.9404 -27.9102c-45.1201 -38.2402 -86.4902 -73.5703 -86.4902 -118.08
c0 -32.7695 22.4004 -48.1094 53.8203 -48.1094c10.71 0 19.4004 1.66992 29.1104 4.01953c4 1 7.33008 -1 7.33008 -5.67969v-23.0498c0 -7.63965 -2.30957 -11.29 -9.96973 -13.9502c-9.98047 -3.98047 -26.2705 -6.96094 -41.8906 -6.96094
c-47.9805 0 -88.25 27 -88.25 82.6201c0 38.9297 21.1299 74.3701 74.46 119.94c-5.70996 -0.360352 -11.2998 -0.550781 -16.7197 -0.550781h-7.62988c-125.28 0 -222.53 76.3203 -222.53 217.471v70.8701c0 149.64 92.1797 237.659 211.449 237.659zM131.16 289.459h271
c0.790039 113.07 -41.8203 165.82 -127.08 165.82h-7.03027c-80.2197 0 -135.34 -62.2803 -136.89 -165.82z" />
    <glyph glyph-name="f" unicode="f" horiz-adv-x="364" 
d="M332.87 731.03c5.33008 -2.32031 7.33008 -6.2998 7.33008 -11.2803v-40.1104c0 -5.30957 -4.30957 -8.96973 -9.61914 -6.96973c-22.0195 9.01953 -48.2998 16.3496 -72.4102 16.3496h-4.32031c-43.1504 0 -83.6406 -26.7695 -83.6406 -96.2793v-92.7402h132.44
c4.95996 0 8.26953 -3.30957 8.26953 -8.2793v-43.7803c0 -4.95996 -3.30957 -8.26953 -8.26953 -8.26953h-132.44v-431.4c0 -4.96973 -3.30957 -8.2793 -8.26953 -8.2793h-57.8799c-4.95996 0 -8.26953 3.30957 -8.26953 8.2793v431.4h-64.0596
c-4.95996 0 -8.26953 3.30957 -8.26953 8.26953v43.7803c0 4.96973 3.30957 8.2793 8.26953 8.2793h64.0596v103.52c0 98.6201 63.9199 146.48 143.63 146.48h7.63965c33.8301 0 68.4297 -10.6201 85.8096 -18.9697z" />
    <glyph glyph-name="g" unicode="g" horiz-adv-x="538" 
d="M467.12 456.36c4.65039 -3.32031 7.31836 -8.30957 7.31836 -13.29v-424.95c0 -135.09 -87.2197 -198.12 -201.66 -198.12h-5.33984c-64.4004 0 -121.2 17.6904 -162.51 36.0908c-5.30957 2 -7.96973 6.30957 -7.96973 13.2695v44.4199
c0 4.96973 4.30957 7.2793 8.2793 5.61914c46.3398 -22.0498 97.0898 -39.3994 148.8 -39.3994h4.32031c95.2197 0 141.66 45.5498 141.66 137.78v52.7402c-46.3496 -49.5898 -105.279 -72.3896 -154.709 -72.3896h-6.29004c-121.35 0 -183.75 85.2002 -183.75 221.74
v67.1299c0 147.02 79.9297 226 202.819 226h7.62988c72.4805 0 160.421 -31.6602 201.401 -56.6406zM258.348 60.082l2.97949 0.0117188c44.9102 0 92.4697 20.7998 138.689 70.8193v280.58c-38.4697 22.0898 -89.3799 40.5195 -133.979 40.5195h-4.33008
c-81.4199 0 -130.71 -54.9404 -130.71 -160.091v-71.4199c0 -105.14 42.5703 -160.42 127.351 -160.42z" />
    <glyph glyph-name="gbreve" unicode="&#x11f;" horiz-adv-x="538" 
d="M392.01 671.09c5.96973 3.32031 11.2715 0.320312 11.2715 -5.96973v-36.54c0 -6.30957 -2.66016 -9.63965 -6.31055 -12.29c-19 -15 -67.9697 -39.3701 -127.95 -39.3701s-108.94 24.3701 -127.94 39.3701c-3.66016 2.65039 -6.31055 5.98047 -6.31055 12.29v36.54
c0 6.29004 5.30957 9.29004 11.2695 5.96973c30.9102 -17.3496 67.2803 -38.0898 122.99 -38.0898s92.0703 20.7402 122.98 38.0898zM467.112 456.359c4.65039 -3.32031 7.31836 -8.30957 7.31836 -13.29v-424.95c0 -135.09 -87.2197 -198.12 -201.66 -198.12h-5.33984
c-64.4004 0 -121.2 17.6904 -162.51 36.0908c-5.30957 2 -7.96973 6.30957 -7.96973 13.2695v44.4199c0 4.96973 4.30957 7.2793 8.2793 5.61914c46.3398 -22.0498 97.0898 -39.3994 148.8 -39.3994h4.32031c95.2197 0 141.66 45.5498 141.66 137.78v52.7402
c-46.3496 -49.5898 -105.279 -72.3896 -154.709 -72.3896h-6.29004c-121.35 0 -183.75 85.2002 -183.75 221.74v67.1299c0 147.02 79.9297 226 202.819 226h7.62988c72.4805 0 160.421 -31.6602 201.401 -56.6406zM258.34 60.0811l2.97949 0.0117188
c44.9102 0 92.4697 20.7998 138.689 70.8193v280.58c-38.4697 22.0898 -89.3799 40.5195 -133.979 40.5195h-4.33008c-81.4199 0 -130.71 -54.9404 -130.71 -160.091v-71.4199c0 -105.14 42.5703 -160.42 127.351 -160.42z" />
    <glyph glyph-name="gcommaaccent" unicode="&#x123;" horiz-adv-x="538" 
d="M301.18 576.83l-72.3018 -0.000976562c-5.63965 0 -8.94922 3.30957 -8.94922 8.94922v53.0898c0 5.62012 0.230469 11.1201 2.64062 16.5498l41.4502 109.14c2.20996 4.7002 5.9502 7.27051 10.2402 7.27051h36.5996c6.32031 0 8 -5.58984 5.98047 -10.3096
l-40.7803 -105.1h25.1201c5.63965 0 8.94922 -3.30957 8.94922 -8.94922v-61.6904c0 -5.63965 -3.30957 -8.94922 -8.94922 -8.94922zM467.128 456.359c4.65039 -3.32031 7.31836 -8.30957 7.31836 -13.29v-424.95c0 -135.09 -87.2197 -198.12 -201.66 -198.12h-5.33984
c-64.4004 0 -121.2 17.6904 -162.51 36.0908c-5.30957 2 -7.96973 6.30957 -7.96973 13.2695v44.4199c0 4.96973 4.30957 7.2793 8.2793 5.61914c46.3398 -22.0498 97.0898 -39.3994 148.8 -39.3994h4.32031c95.2197 0 141.66 45.5498 141.66 137.78v52.7402
c-46.3496 -49.5898 -105.279 -72.3896 -154.709 -72.3896h-6.29004c-121.35 0 -183.75 85.2002 -183.75 221.74v67.1299c0 147.02 79.9297 226 202.819 226h7.62988c72.4805 0 160.421 -31.6602 201.401 -56.6406zM258.355 60.0811l2.97949 0.0117188
c44.9102 0 92.4697 20.7998 138.689 70.8193v280.58c-38.4697 22.0898 -89.3799 40.5195 -133.979 40.5195h-4.33008c-81.4199 0 -130.71 -54.9404 -130.71 -160.091v-71.4199c0 -105.14 42.5703 -160.42 127.351 -160.42z" />
    <glyph glyph-name="gdotaccent" unicode="&#x121;" horiz-adv-x="538" 
d="M234.04 667.76h69.9805c5.63965 0 8.94922 -3.30957 8.94922 -8.94922v-73.0303c0 -5.63965 -3.30957 -8.94922 -8.94922 -8.94922h-69.9805c-5.62988 0 -8.93945 3.30957 -8.93945 8.94922v73.0303c0 5.63965 3.30957 8.94922 8.93945 8.94922zM467.12 456.359
c4.65039 -3.33008 7.31836 -8.31934 7.31836 -13.2998v-424.94c0 -135.09 -87.2197 -198.13 -201.66 -198.13h-5.33984c-64.4004 0 -121.2 17.6904 -162.51 36.0908c-5.30957 2 -7.96973 6.30957 -7.96973 13.2793v44.4199c0 4.95996 4.30957 7.26953 8.2793 5.61914
c46.3398 -22.0596 97.0898 -39.3994 148.8 -39.3994h4.32031c95.2197 0 141.66 45.54 141.66 137.78v52.7305c-46.3496 -49.5801 -105.279 -72.3896 -154.709 -72.3896h-6.29004c-121.35 0 -183.75 85.2002 -183.75 221.75v67.1201c0 147.02 79.9297 226 202.819 226
h7.62988c72.4805 0 160.421 -31.6504 201.401 -56.6309zM258.348 60.0811h2.97949c44.9102 0 92.4697 20.7998 138.689 70.8193v280.58c-38.4697 22.0898 -89.3799 40.5303 -133.979 40.5303h-4.33008c-81.4199 0 -130.71 -54.9502 -130.71 -160.09v-71.4199
c0 -105.15 42.5703 -160.42 127.351 -160.42z" />
    <glyph glyph-name="h" unicode="h" horiz-adv-x="540" 
d="M306.03 513l6.94043 0.000976562c110.55 0 165.77 -64.75 165.77 -177.53v-327.2c0 -4.95996 -3.30957 -8.26953 -8.26953 -8.26953h-57.8799c-4.95996 0 -8.26953 3.30957 -8.26953 8.26953v314.78c0 81.71 -31.46 127.99 -115.91 127.99h-2.98047
c-46.8301 0 -100.09 -26.2402 -145.38 -65.0703v-377.7c0 -4.95996 -3.30957 -8.26953 -8.2793 -8.26953h-57.8701c-4.96973 0 -8.2793 3.30957 -8.2793 8.26953v720.46c0 4.95996 3.30957 8.26953 8.2793 8.26953h57.8701c4.96973 0 8.2793 -3.30957 8.2793 -8.26953
v-288.12c51.0596 44.3301 112.17 72.3896 165.979 72.3896z" />
    <glyph glyph-name="hbar" unicode="&#x127;" horiz-adv-x="540" 
d="M306.03 513l6.94043 0.00292969c110.55 0 165.77 -64.7402 165.77 -177.521v-327.2c0 -4.96973 -3.30957 -8.2793 -8.26953 -8.2793h-57.8799c-4.95996 0 -8.26953 3.30957 -8.26953 8.2793v314.78c0 81.71 -31.46 127.979 -115.91 127.979h-2.98047
c-46.8301 0 -100.09 -26.2305 -145.38 -65.0605v-377.7c0 -4.96973 -3.30957 -8.2793 -8.2793 -8.2793h-57.8701c-4.96973 0 -8.2793 3.30957 -8.2793 8.2793v596.43l-54.0195 0.0703125c-4.96973 0.00976562 -8.2793 3.30957 -8.2793 8.26953v39.5303
c0 4.95996 3.30957 8.26953 8.2793 8.26953h54.0195v67.8799c0 4.96973 3.30957 8.2793 8.2793 8.2793h57.8701c4.96973 0 8.2793 -3.30957 8.2793 -8.2793v-67.8799h117.43c4.95996 0 8.26953 -3.30957 8.26953 -8.26953v-39.8604
c0 -4.95996 -3.30957 -8.28027 -8.26953 -8.27051l-117.43 0.150391v-163.99c51.0596 44.3301 112.17 72.3896 165.979 72.3896z" />
    <glyph glyph-name="i" unicode="i" horiz-adv-x="213" 
d="M74.5801 673.27h65.9404c5.63965 0 8.94922 -3.30957 8.94922 -8.94922v-68.4502c0 -5.63965 -3.30957 -8.94922 -8.94922 -8.94922h-65.9404c-5.63965 0 -8.94922 3.30957 -8.94922 8.94922v68.4502c0 5.63965 3.30957 8.94922 8.94922 8.94922zM78.6104 500h57.8799
c4.95996 0 8.26953 -3.30957 8.26953 -8.2793v-483.45c0 -4.96973 -3.30957 -8.2793 -8.26953 -8.2793h-57.8799c-4.95996 0 -8.26953 3.30957 -8.26953 8.2793v483.45c0 4.96973 3.30957 8.2793 8.26953 8.2793z" />
    <glyph glyph-name="dotlessi" unicode="&#x131;" horiz-adv-x="204" 
d="M73.9102 500h57.8701c4.96973 0 8.2793 -3.30957 8.2793 -8.2793v-483.45c0 -4.96973 -3.30957 -8.2793 -8.2793 -8.2793h-57.8701c-4.96973 0 -8.2793 3.30957 -8.2793 8.2793v483.45c0 4.96973 3.30957 8.2793 8.2793 8.2793z" />
    <glyph glyph-name="iacute" unicode="&#xed;" horiz-adv-x="204" 
d="M80.9297 585.16l72.9512 156.031c2.66016 5.30957 6.29004 8.63965 13.9502 8.63965h49.29c5 0 8 -4.33008 5.66992 -9.33008l-86.4902 -155.69c-3.32031 -6 -5.98047 -7.98047 -12.6104 -7.98047h-38.4404c-4.32031 0 -6.65039 4 -4.32031 8.33008zM73.9004 500.001
h57.8701c4.96973 0 8.2793 -3.30957 8.2793 -8.2793v-483.45c0 -4.96973 -3.30957 -8.2793 -8.2793 -8.2793h-57.8701c-4.96973 0 -8.2793 3.30957 -8.2793 8.2793v483.45c0 4.96973 3.30957 8.2793 8.2793 8.2793z" />
    <glyph glyph-name="icaron" unicode="&#x1d0;" horiz-adv-x="204" 
d="M175.49 749.83h44.0508c5 0 8.66992 -4.32031 5.66992 -9.32031l-93.2197 -155.69c-3.32031 -6 -5.98047 -7.98047 -12.6104 -7.98047h-33.2002c-6.63965 0 -9.29004 1.98047 -12.6201 7.98047l-93.2197 155.69c-3 5 0.679688 9.32031 5.67969 9.32031h44.0498
c7.66016 0 11.29 -3.32031 13.9502 -8.62988l58.7598 -114.85l58.7695 114.85c2.65039 5.30957 6.29004 8.62988 13.9404 8.62988zM73.9014 500h57.8701c4.96973 0 8.2793 -3.30957 8.2793 -8.2793v-483.45c0 -4.96973 -3.30957 -8.2793 -8.2793 -8.2793h-57.8701
c-4.96973 0 -8.2793 3.30957 -8.2793 8.2793v483.45c0 4.96973 3.30957 8.2793 8.2793 8.2793z" />
    <glyph glyph-name="icircumflex" unicode="&#xee;" horiz-adv-x="204" 
d="M132.76 741.85l93.2285 -155.69c3 -5 -0.669922 -9.33008 -5.66992 -9.33008h-44.0596c-7.65039 0 -11.29 3.33008 -13.9404 8.63965l-58.7695 114.85l-58.7598 -114.85c-2.66016 -5.30957 -6.29004 -8.63965 -13.9502 -8.63965h-44.0498
c-5 0 -8.67969 4.33008 -5.67969 9.33008l93.2197 155.69c3.33008 6 5.98047 7.98047 12.6201 7.98047h33.2002c6.62988 0 9.29004 -1.98047 12.6104 -7.98047zM73.9082 499.999h57.8799c4.95996 0 8.26953 -3.30957 8.26953 -8.2793v-483.45
c0 -4.96973 -3.30957 -8.2793 -8.26953 -8.2793h-57.8799c-4.95996 0 -8.26953 3.30957 -8.26953 8.2793v483.45c0 4.96973 3.30957 8.2793 8.26953 8.2793z" />
    <glyph glyph-name="idieresis" unicode="&#xef;" horiz-adv-x="204" 
d="M-5.00977 677.85h61.4805c5.62988 0 8.93945 -3.30957 8.93945 -8.94922v-73.0303c0 -5.63965 -3.30957 -8.94922 -8.93945 -8.94922h-61.4805c-5.62988 0 -8.93945 3.30957 -8.93945 8.94922v73.0303c0 5.63965 3.30957 8.94922 8.93945 8.94922zM148.961 677.85
h61.4697c5.63965 0 8.94922 -3.30957 8.94922 -8.94922v-73.0303c0 -5.63965 -3.30957 -8.94922 -8.94922 -8.94922h-61.4697c-5.63965 0 -8.94922 3.30957 -8.94922 8.94922v73.0303c0 5.63965 3.30957 8.94922 8.94922 8.94922zM73.9111 500h57.8701
c4.96973 0 8.2793 -3.30957 8.2793 -8.2793v-483.45c0 -4.96973 -3.30957 -8.2793 -8.2793 -8.2793h-57.8701c-4.96973 0 -8.2793 3.30957 -8.2793 8.2793v483.45c0 4.96973 3.30957 8.2793 8.2793 8.2793z" />
    <glyph glyph-name="i.loclTRK" horiz-adv-x="204" 
d="M67.8496 677.85h69.9805c5.63965 0 8.94922 -3.30957 8.94922 -8.94922v-73.0303c0 -5.63965 -3.30957 -8.94922 -8.94922 -8.94922h-69.9805c-5.62988 0 -8.93945 3.30957 -8.93945 8.94922v73.0303c0 5.63965 3.30957 8.94922 8.93945 8.94922zM73.9004 500h57.8799
c4.95996 0 8.26953 -3.30957 8.26953 -8.2793v-483.45c0 -4.96973 -3.30957 -8.2793 -8.26953 -8.2793h-57.8799c-4.95996 0 -8.26953 3.30957 -8.26953 8.2793v483.45c0 4.96973 3.30957 8.2793 8.26953 8.2793z" />
    <glyph glyph-name="igrave" unicode="&#xec;" horiz-adv-x="204" 
d="M50.2998 741.19l72.96 -156.031c2.32031 -4.33008 0 -8.33008 -4.33008 -8.33008h-38.4297c-6.63965 0 -9.29004 1.98047 -12.6201 7.98047l-86.4902 155.69c-2.32031 5 0.679688 9.33008 5.67969 9.33008h49.29c7.65039 0 11.29 -3.33008 13.9404 -8.63965z
M73.8994 499.999h57.8799c4.95996 0 8.26953 -3.30957 8.26953 -8.2793v-483.45c0 -4.96973 -3.30957 -8.2793 -8.26953 -8.2793h-57.8799c-4.95996 0 -8.26953 3.30957 -8.26953 8.2793v483.45c0 4.96973 3.30957 8.2793 8.26953 8.2793z" />
    <glyph glyph-name="ij" unicode="&#x133;" horiz-adv-x="429" 
d="M74.5801 673.27h65.9404c5.63965 0 8.94922 -3.30957 8.94922 -8.94922v-68.4502c0 -5.63965 -3.30957 -8.94922 -8.94922 -8.94922h-65.9404c-5.63965 0 -8.94922 3.30957 -8.94922 8.94922v68.4502c0 5.63965 3.30957 8.94922 8.94922 8.94922zM290.671 673.27h65.9502
c5.62988 0 8.93945 -3.30957 8.93945 -8.94922v-68.4502c0 -5.63965 -3.30957 -8.94922 -8.93945 -8.94922h-65.9502c-5.62988 0 -8.93945 3.30957 -8.93945 8.94922v68.4502c0 5.63965 3.30957 8.94922 8.93945 8.94922zM78.6113 500h57.8799
c4.95996 0 8.26953 -3.30957 8.26953 -8.2793v-483.45c0 -4.96973 -3.30957 -8.2793 -8.26953 -8.2793h-57.8799c-4.95996 0 -8.26953 3.30957 -8.26953 8.2793v483.45c0 4.96973 3.30957 8.2793 8.26953 8.2793zM294.711 500l57.8711 -0.00878906
c4.96973 0 8.2793 -3.30957 8.2793 -8.26953v-553.66c0 -80.9199 -48.8203 -117.99 -108.311 -117.99h-7.63965c-14.9404 -0.0800781 -43.8906 3.58984 -65.2002 13.25c-6.30957 2.65039 -7.95996 5.98047 -8.11035 12.6904v37.5498
c0.150391 6.79004 4.13086 8.80957 9.76074 6.80957c17.7695 -7.37988 33.4795 -10.3799 48.8398 -10.3799h4.33008c25.5801 0 51.9102 12.7695 51.9102 57.8496v553.88c0 4.96973 3.30957 8.2793 8.26953 8.2793z" />
    <glyph glyph-name="imacron" unicode="&#x12b;" horiz-adv-x="204" 
d="M-21.96 643.32h242.45c4.96973 0 8.2793 -3.30957 8.2793 -8.26953v-39.8604c0 -4.95996 -3.30957 -8.26953 -8.2793 -8.26953h-242.45c-4.96973 0 -8.2793 3.30957 -8.2793 8.26953v39.8604c0 4.95996 3.30957 8.26953 8.2793 8.26953zM73.9102 500h57.8701
c4.96973 0 8.2793 -3.30957 8.2793 -8.2793v-483.45c0 -4.96973 -3.30957 -8.2793 -8.2793 -8.2793h-57.8701c-4.96973 0 -8.2793 3.30957 -8.2793 8.2793v483.45c0 4.96973 3.30957 8.2793 8.2793 8.2793z" />
    <glyph glyph-name="iogonek" unicode="&#x12f;" horiz-adv-x="204" 
d="M67.6299 677.85h69.9805c5.62988 0 8.93945 -3.30957 8.93945 -8.94922v-73.0303c0 -5.63965 -3.30957 -8.94922 -8.93945 -8.94922h-69.9805c-5.63965 0 -8.94922 3.30957 -8.94922 8.94922v73.0303c0 5.63965 3.30957 8.94922 8.94922 8.94922zM73.9004 500
l57.8701 -0.0107422c4.96973 0 8.2793 -3.30957 8.2793 -8.2793v-483.45c0 -4.96973 -3.30957 -8.2793 -8.2793 -8.2793c-46.5596 -39.4697 -90.25 -75.5195 -90.25 -121.27c0 -32.7598 22.4004 -48.1094 53.8203 -48.1094c10.71 0 19.4004 1.67969 29.1104 4.01953
c4 1 7.33008 -1 7.33008 -5.66992v-23.0596c0 -7.62988 -2.30957 -11.29 -9.96973 -13.9404c-9.98047 -3.98047 -26.2705 -6.96094 -41.8906 -6.96094c-47.9805 0 -88.25 27 -88.25 82.6201c0 40.9404 23.3799 78.0205 89.7295 132.381h-7.5
c-4.95996 0 -8.26953 3.30957 -8.26953 8.2793v483.45c0 4.96973 3.30957 8.2793 8.26953 8.2793z" />
    <glyph glyph-name="j" unicode="j" horiz-adv-x="281" 
d="M142.53 673.27h65.9404c5.63965 0 8.94922 -3.30957 8.94922 -8.94922v-68.4502c0 -5.63965 -3.30957 -8.94922 -8.94922 -8.94922h-65.9404c-5.63965 0 -8.94922 3.30957 -8.94922 8.94922v68.4502c0 5.63965 3.30957 8.94922 8.94922 8.94922zM146.57 500
l57.8701 -0.00878906c4.95996 0 8.26953 -3.30957 8.26953 -8.26953v-553.66c0 -80.9199 -48.8096 -117.99 -108.31 -117.99h-7.62988c-14.9502 -0.0800781 -43.8906 3.58984 -65.2002 13.25c-6.30957 2.65039 -7.96973 5.98047 -8.12012 12.6904v37.5498
c0.150391 6.79004 4.13086 8.80957 9.77051 6.80957c17.7598 -7.37988 33.4697 -10.3799 48.8398 -10.3799h4.32031c25.5801 0 51.9102 12.7695 51.9102 57.8496v553.88c0 4.96973 3.30957 8.2793 8.2793 8.2793z" />
    <glyph glyph-name="k" unicode="k" horiz-adv-x="488" 
d="M291.74 259.31l170.99 -246.712c3.65039 -5.96973 0.669922 -12.5996 -6.29004 -12.5996h-64.4404c-4.62988 0 -8.93945 1.98047 -11.2695 5.96094l-154.99 221.05h-85.6797v-218.74c0 -4.96973 -3.30957 -8.2793 -8.2793 -8.2793h-57.8701
c-4.96973 0 -8.2793 3.30957 -8.2793 8.2793v720.45c0 4.96973 3.30957 8.2793 8.2793 8.2793h57.8701c4.96973 0 8.2793 -3.30957 8.2793 -8.2793v-441.38h85.96l136.67 206.37c2.33008 3.62988 6.95996 6.29004 11.5996 6.29004h60.8203
c6.95996 0 9.94043 -6.63965 6.29004 -12.2695z" />
    <glyph glyph-name="kcommaaccent" unicode="&#x137;" horiz-adv-x="488" 
d="M291.74 259.31l170.99 -246.712c3.65039 -5.96973 0.669922 -12.5996 -6.29004 -12.5996h-64.4404c-4.62988 0 -8.93945 1.98047 -11.2695 5.96094l-154.99 221.05h-85.6797v-218.74c0 -4.96973 -3.30957 -8.2793 -8.2793 -8.2793h-57.8701
c-4.96973 0 -8.2793 3.30957 -8.2793 8.2793v720.45c0 4.96973 3.30957 8.2793 8.2793 8.2793h57.8701c4.96973 0 8.2793 -3.30957 8.2793 -8.2793v-441.38h85.96l136.67 206.37c2.33008 3.62988 6.95996 6.29004 11.5996 6.29004h60.8203
c6.95996 0 9.94043 -6.63965 6.29004 -12.2695zM211.7 -49.9219h72.3018c5.63965 0 8.94922 -3.30957 8.94922 -8.93945v-53.0996c0 -5.62012 -0.230469 -11.1201 -2.64062 -16.54l-41.4502 -109.14c-2.20996 -4.7002 -5.9502 -7.28027 -10.2402 -7.28027h-36.5996
c-6.32031 0 -8 5.58984 -5.98047 10.3096l40.7803 105.11h-25.1201c-5.63965 0 -8.94922 3.30957 -8.94922 8.93945v61.7002c0 5.62988 3.30957 8.93945 8.94922 8.93945z" />
    <glyph glyph-name="l" unicode="l" horiz-adv-x="202" 
d="M73.9102 737h57.8701c4.96973 0 8.2793 -3.30957 8.2793 -8.2793v-720.45c0 -4.96973 -3.30957 -8.2793 -8.2793 -8.2793h-57.8701c-4.96973 0 -8.2793 3.30957 -8.2793 8.2793v720.45c0 4.96973 3.30957 8.2793 8.2793 8.2793z" />
    <glyph glyph-name="lacute" unicode="&#x13a;" horiz-adv-x="202" 
d="M79.3701 822.16l72.9512 156.031c2.66016 5.30957 6.29004 8.63965 13.9502 8.63965h49.29c5 0 8 -4.33008 5.66992 -9.33008l-86.4902 -155.69c-3.32031 -6 -5.98047 -7.98047 -12.6104 -7.98047h-38.4404c-4.32031 0 -6.65039 4 -4.32031 8.33008zM73.9014 737.001
h57.8701c4.96973 0 8.2793 -3.30957 8.2793 -8.2793v-720.45c0 -4.96973 -3.30957 -8.2793 -8.2793 -8.2793h-57.8701c-4.96973 0 -8.2793 3.30957 -8.2793 8.2793v720.45c0 4.96973 3.30957 8.2793 8.2793 8.2793z" />
    <glyph glyph-name="lcaron" unicode="&#x13e;" horiz-adv-x="312" 
d="M73.9102 737h57.8701c4.96973 0 8.2793 -3.30957 8.2793 -8.2793v-720.45c0 -4.96973 -3.30957 -8.2793 -8.2793 -8.2793h-57.8701c-4.96973 0 -8.2793 3.30957 -8.2793 8.2793v720.45c0 4.96973 3.30957 8.2793 8.2793 8.2793zM207.471 737l72.3018 0.000976562
c5.63965 0 8.94922 -3.30957 8.94922 -8.94922v-53.0898c0 -5.62012 -0.230469 -11.1201 -2.64062 -16.5498l-41.4502 -109.14c-2.20996 -4.7002 -5.9502 -7.27051 -10.2402 -7.27051h-36.5996c-6.32031 0 -8 5.58984 -5.98047 10.3096l40.7803 105.1h-25.1201
c-5.63965 0 -8.94922 3.30957 -8.94922 8.94922v61.6904c0 5.63965 3.30957 8.94922 8.94922 8.94922z" />
    <glyph glyph-name="lcommaaccent" unicode="&#x13c;" horiz-adv-x="202" 
d="M73.9102 737h57.8701c4.96973 0 8.2793 -3.30957 8.2793 -8.2793v-720.45c0 -4.96973 -3.30957 -8.2793 -8.2793 -8.2793h-57.8701c-4.96973 0 -8.2793 3.30957 -8.2793 8.2793v720.45c0 4.96973 3.30957 8.2793 8.2793 8.2793zM68.79 -49.9199h72.3018
c5.63965 0 8.94922 -3.30957 8.94922 -8.93945v-53.0996c0 -5.62012 -0.230469 -11.1201 -2.64062 -16.54l-41.4502 -109.14c-2.20996 -4.7002 -5.9502 -7.28027 -10.2402 -7.28027h-36.5996c-6.32031 0 -8 5.58984 -5.98047 10.3096l40.7803 105.11h-25.1201
c-5.63965 0 -8.94922 3.30957 -8.94922 8.93945v61.7002c0 5.62988 3.30957 8.93945 8.94922 8.93945z" />
    <glyph glyph-name="ldot" unicode="&#x140;" horiz-adv-x="309" 
d="M73.9102 737h57.8701c4.96973 0 8.2793 -3.30957 8.2793 -8.2793v-720.45c0 -4.96973 -3.30957 -8.2793 -8.2793 -8.2793h-57.8701c-4.96973 0 -8.2793 3.30957 -8.2793 8.2793v720.45c0 4.96973 3.30957 8.2793 8.2793 8.2793zM206.891 337.89h69.9805
c5.62988 0 8.93945 -3.30957 8.93945 -8.94922v-73.0303c0 -5.63965 -3.30957 -8.94922 -8.93945 -8.94922h-69.9805c-5.63965 0 -8.94922 3.30957 -8.94922 8.94922v73.0303c0 5.63965 3.30957 8.94922 8.94922 8.94922z" />
    <glyph glyph-name="lslash" unicode="&#x142;" horiz-adv-x="322" 
d="M271.7 504.24l24.6611 -35.3408c3.17969 -3.75977 2.08984 -8.7793 -2.19043 -11.7598l-97.5 -68.0596v-380.81c0 -4.96973 -3.30957 -8.2793 -8.2793 -8.2793h-57.8701c-4.96973 0 -8.2793 3.30957 -8.2793 8.2793v328.86l-60.7002 -42.3701
c-3.95996 -2.75977 -8.51953 -1.85938 -11.5898 1.76074l-24.6699 35.3496c-3.16992 3.75977 -2.08008 8.76953 2.18945 11.7598l94.7695 66.1396v318.95c0 4.96973 3.30957 8.2793 8.2793 8.2793h57.8701c4.96973 0 8.2793 -3.30957 8.2793 -8.2793v-267l63.4404 44.2803
c3.95996 2.75977 8.51953 1.85938 11.5898 -1.76074z" />
    <glyph glyph-name="m" unicode="m" horiz-adv-x="859" 
d="M632.45 513l6.95605 -0.0195312c109.89 0 158.109 -64.7402 158.109 -177.521v-327.2c0 -4.96973 -3.30957 -8.2793 -8.26953 -8.2793h-57.8799c-4.95996 0 -8.26953 3.30957 -8.26953 8.2793v314.78c0 81.71 -24.46 127.979 -108.26 127.979h-2.98047
c-48.0195 0 -102.659 -27.8398 -149.02 -68.7803c3.59961 -17.3896 4.94922 -40.1201 4.94922 -59.54v-314.44c0 -4.95996 -3.30957 -8.26953 -8.2793 -8.26953h-57.8701c-4.96973 0 -8.2793 3.30957 -8.2793 8.26953v314.78c0 81.71 -24.4502 127.99 -108.25 127.99
h-2.98047c-46.4697 0 -99.1797 -25.9805 -144.069 -64.4004v-378.36c0 -4.96973 -3.30957 -8.2793 -8.2793 -8.2793h-57.8701c-4.96973 0 -8.2793 3.30957 -8.2793 8.2793v483.45c0 4.96973 3.30957 8.2793 8.2793 8.2793h51.9805
c4.30957 0 7.29004 -2.66016 7.94043 -6.96973l3.20996 -53.8799c51.9102 45.4404 113.391 73.8408 167.69 73.8408h6.94043c75.1104 0 121.13 -30.1797 142.91 -85.1992c57.6504 53.7695 122.7 85.21 179.87 85.21z" />
    <glyph glyph-name="n" unicode="n" horiz-adv-x="535" 
d="M302.73 513l6.9375 -0.00976562c110.55 0 163.77 -64.7402 163.77 -177.521v-327.2c0 -4.96973 -3.30957 -8.2793 -8.26953 -8.2793h-57.8799c-4.95996 0 -8.26953 3.30957 -8.26953 8.2793v314.78c0 81.71 -29.46 127.979 -113.91 127.979h-2.98047
c-46.4697 0 -99.1797 -25.9697 -144.069 -64.3896v-378.37c0 -4.95996 -3.30957 -8.26953 -8.2793 -8.26953h-57.8701c-4.96973 -0 -8.2793 3.30957 -8.2793 8.26953v483.46c0 4.95996 3.30957 8.26953 8.2793 8.26953h51.9805c4.30957 0 7.29004 -2.65039 7.94043 -6.95996
l3.20996 -53.8896c51.9102 45.4404 113.391 73.8506 167.69 73.8506z" />
    <glyph glyph-name="nacute" unicode="&#x144;" horiz-adv-x="535" 
d="M257.86 585.16l72.9512 156.031c2.66016 5.30957 6.29004 8.63965 13.9502 8.63965h49.29c5 0 8 -4.33008 5.66992 -9.33008l-86.4902 -155.69c-3.32031 -6 -5.98047 -7.98047 -12.6104 -7.98047h-38.4404c-4.32031 0 -6.65039 4 -4.32031 8.33008zM302.722 513.001
l6.9375 -0.00976562c110.55 0 163.77 -64.7402 163.77 -177.521v-327.2c0 -4.96973 -3.30957 -8.2793 -8.26953 -8.2793h-57.8799c-4.95996 0 -8.26953 3.30957 -8.26953 8.2793v314.78c0 81.71 -29.46 127.979 -113.91 127.979h-2.98047
c-46.4697 0 -99.1797 -25.9697 -144.069 -64.3896v-378.37c0 -4.95996 -3.30957 -8.26953 -8.2793 -8.26953h-57.8701c-4.96973 0 -8.2793 3.30957 -8.2793 8.26953v483.46c0 4.95996 3.30957 8.26953 8.2793 8.26953h51.9805c4.30957 0 7.29004 -2.65039 7.94043 -6.95996
l3.20996 -53.8896c51.9102 45.4404 113.391 73.8506 167.69 73.8506z" />
    <glyph glyph-name="ncaron" unicode="&#x148;" horiz-adv-x="535" 
d="M340.75 749.83h44.0508c4.99023 0 8.66992 -4.32031 5.66992 -9.32031l-93.2197 -155.69c-3.33008 -6 -5.98047 -7.98047 -12.6201 -7.98047h-33.2002c-6.62988 0 -9.29004 1.98047 -12.6104 7.98047l-93.2197 155.69c-3 5 0.669922 9.32031 5.66992 9.32031h44.0596
c7.65039 0 11.29 -3.32031 13.9404 -8.62988l58.7695 -114.85l58.7598 114.85c2.66016 5.30957 6.29004 8.62988 13.9502 8.62988zM302.721 513l6.94727 -0.00976562c110.55 0 163.77 -64.7402 163.77 -177.521v-327.2c0 -4.96973 -3.30957 -8.2793 -8.2793 -8.2793
h-57.8701c-4.96973 0 -8.2793 3.30957 -8.2793 8.2793v314.78c0 81.71 -29.4502 127.979 -113.91 127.979h-2.98047c-46.4697 0 -99.1797 -25.9697 -144.069 -64.3896v-378.37c0 -4.95996 -3.30957 -8.26953 -8.26953 -8.26953h-57.8799
c-4.95996 -0 -8.26953 3.30957 -8.26953 8.26953v483.46c0 4.95996 3.30957 8.26953 8.26953 8.26953h51.9805c4.30957 0 7.29004 -2.65039 7.9502 -6.95996l3.2002 -53.8896c51.9102 45.4404 113.4 73.8506 167.69 73.8506z" />
    <glyph glyph-name="ncommaaccent" unicode="&#x146;" horiz-adv-x="535" 
d="M302.73 513l6.9375 -0.00976562c110.55 0 163.77 -64.7402 163.77 -177.521v-327.2c0 -4.96973 -3.30957 -8.2793 -8.26953 -8.2793h-57.8799c-4.95996 0 -8.26953 3.30957 -8.26953 8.2793v314.78c0 81.71 -29.46 127.979 -113.91 127.979h-2.98047
c-46.4697 0 -99.1797 -25.9697 -144.069 -64.3896v-378.37c0 -4.95996 -3.30957 -8.26953 -8.2793 -8.26953h-57.8701c-4.96973 -0 -8.2793 3.30957 -8.2793 8.26953v483.46c0 4.95996 3.30957 8.26953 8.2793 8.26953h51.9805c4.30957 0 7.29004 -2.65039 7.94043 -6.95996
l3.20996 -53.8896c51.9102 45.4404 113.391 73.8506 167.69 73.8506zM235.648 -49.9199l72.3018 0.000976562c5.63965 0 8.94922 -3.30957 8.94922 -8.94922v-53.0898c0 -5.62012 -0.230469 -11.1201 -2.64062 -16.5498l-41.4502 -109.14
c-2.20996 -4.7002 -5.9502 -7.27051 -10.2402 -7.27051h-36.5996c-6.32031 0 -8 5.58984 -5.98047 10.3096l40.7803 105.1h-25.1201c-5.63965 0 -8.94922 3.30957 -8.94922 8.94922v61.6904c0 5.63965 3.30957 8.94922 8.94922 8.94922z" />
    <glyph glyph-name="eng" unicode="&#x14b;" horiz-adv-x="535" 
d="M302.73 513l6.93848 -0.00878906c110.55 0 163.77 -64.75 163.77 -177.53v-397.4c0 -80.9199 -48.8203 -117.99 -108.311 -117.99h-7.63965c-14.9404 -0.0800781 -43.8906 3.58984 -65.2002 13.25c-6.30957 2.65039 -7.95996 5.98047 -8.11035 12.6904v37.5498
c0.150391 6.79004 4.13086 8.80957 9.76074 6.80957c17.7695 -7.37988 33.4795 -10.3799 48.8398 -10.3799h4.33008c25.5801 0 51.9102 12.7695 51.9102 57.8398v385.22c0 81.71 -29.46 127.979 -113.91 127.979h-2.98047c-46.4697 0 -99.1797 -25.9697 -144.069 -64.3896
v-378.37c0 -4.95996 -3.30957 -8.26953 -8.2793 -8.26953h-57.8701c-4.96973 -0 -8.2793 3.30957 -8.2793 8.26953v483.46c0 4.95996 3.30957 8.26953 8.2793 8.26953h51.9805c4.30957 0 7.29004 -2.65039 7.94043 -6.95996l3.20996 -53.8896
c51.9102 45.4404 113.391 73.8506 167.69 73.8506z" />
    <glyph glyph-name="ntilde" unicode="&#xf1;" horiz-adv-x="535" 
d="M379.52 665.72h24.7402c5.32031 0 7.65039 -2.98047 5.65039 -8.98047c-17.1699 -52.5498 -51.5498 -89.9102 -95.1699 -89.9102h-4c-47.6904 0 -53.3408 44.0498 -93.0508 44.0498c-23.0596 0 -37.4795 -15.7197 -49.8594 -35.1602
c-2.98047 -4.65039 -6.30078 -6.65039 -11.2812 -6.65039h-24.75c-5.32031 0 -7.65039 2.98047 -5.65039 8.98047c17.1699 52.54 51.5498 89.9102 95.1699 89.9102h4c48.0195 0 54.9795 -44.0596 93.0596 -44.0596c22.4004 0 37.8008 16.0596 49.8506 35.1699
c2.98047 4.65039 6.31055 6.65039 11.291 6.65039zM302.72 512.989h6.9375c110.55 0 163.77 -64.75 163.77 -177.53v-327.2c0 -4.95996 -3.30957 -8.26953 -8.26953 -8.26953h-57.8799c-4.95996 0 -8.26953 3.30957 -8.26953 8.26953v314.78
c0 81.71 -29.46 127.99 -113.91 127.99h-2.98047c-46.4697 0 -99.1797 -25.9805 -144.069 -64.4004v-378.36c0 -4.96973 -3.30957 -8.2793 -8.2793 -8.2793h-57.8701c-4.96973 0 -8.2793 3.30957 -8.2793 8.2793v483.45c0 4.96973 3.30957 8.2793 8.2793 8.2793h51.9805
c4.30957 0 7.29004 -2.66016 7.94043 -6.96973l3.20996 -53.8799c51.9102 45.4404 113.391 73.8408 167.69 73.8408z" />
    <glyph glyph-name="o" unicode="o" horiz-adv-x="555" 
d="M272.07 513h11c120.62 0 216.8 -78.9805 216.8 -226v-74c0 -147.02 -96.1797 -226 -216.8 -226h-11c-120.62 0 -216.8 78.9805 -216.8 226v74c0 147.02 96.1797 226 216.8 226zM281.42 451.03h-7.69043c-83.0801 0 -142.73 -55.5996 -142.73 -160.739v-80.5801
c0 -105.15 59.6504 -160.75 142.73 -160.75h7.69043c83.0703 0 142.73 55.5996 142.73 160.75v80.5801c0 105.14 -59.6602 160.739 -142.73 160.739z" />
    <glyph glyph-name="oacute" unicode="&#xf3;" horiz-adv-x="555" 
d="M255.71 585.16l72.9512 156.031c2.66016 5.30957 6.29004 8.63965 13.9502 8.63965h49.29c5 0 8 -4.33008 5.66992 -9.33008l-86.4902 -155.69c-3.32031 -6 -5.98047 -7.98047 -12.6104 -7.98047h-38.4404c-4.32031 0 -6.65039 4 -4.32031 8.33008zM272.062 513.001h11
c120.62 0 216.8 -78.9805 216.8 -226v-74c0 -147.02 -96.1797 -226 -216.8 -226h-11c-120.62 0 -216.8 78.9805 -216.8 226v74c0 147.02 96.1797 226 216.8 226zM281.411 451.031h-7.69043c-83.0801 0 -142.73 -55.5996 -142.73 -160.739v-80.5801
c0 -105.15 59.6504 -160.75 142.73 -160.75h7.69043c83.0703 0 142.73 55.5996 142.73 160.75v80.5801c0 105.14 -59.6602 160.739 -142.73 160.739z" />
    <glyph glyph-name="ocaron" unicode="&#x1d2;" horiz-adv-x="555" 
d="M350.78 749.83h44.0508c4.99023 0 8.66992 -4.32031 5.66992 -9.32031l-93.2197 -155.69c-3.33008 -6 -5.98047 -7.98047 -12.6201 -7.98047h-33.2002c-6.62988 0 -9.29004 1.98047 -12.6104 7.98047l-93.2197 155.69c-3 5 0.669922 9.32031 5.66992 9.32031h44.0596
c7.65039 0 11.29 -3.32031 13.9404 -8.62988l58.7695 -114.85l58.7598 114.85c2.66016 5.30957 6.29004 8.62988 13.9502 8.62988zM272.062 513h11c120.62 0 216.8 -78.9805 216.8 -226v-74c0 -147.02 -96.1797 -226 -216.8 -226h-11c-120.62 0 -216.8 78.9805 -216.8 226
v74c0 147.02 96.1797 226 216.8 226zM281.411 451.03h-7.69043c-83.0801 0 -142.73 -55.5996 -142.73 -160.739v-80.5801c0 -105.15 59.6504 -160.75 142.73 -160.75h7.69043c83.0703 0 142.73 55.5996 142.73 160.75v80.5801c0 105.14 -59.6602 160.739 -142.73 160.739z
" />
    <glyph glyph-name="ocircumflex" unicode="&#xf4;" horiz-adv-x="555" 
d="M307.29 741.85l93.2188 -155.69c3.00977 -5 -0.669922 -9.33008 -5.66992 -9.33008h-44.0498c-7.66016 0 -11.29 3.33008 -13.9502 8.63965l-58.7598 114.85l-58.7695 -114.85c-2.65039 -5.30957 -6.29004 -8.63965 -13.9404 -8.63965h-44.0596
c-5 0 -8.66992 4.33008 -5.66992 9.33008l93.2197 155.69c3.32031 6 5.98047 7.98047 12.6104 7.98047h33.2002c6.63965 0 9.29004 -1.98047 12.6201 -7.98047zM272.079 512.999h11c120.62 0 216.8 -78.9805 216.8 -226v-74c0 -147.02 -96.1797 -226 -216.8 -226h-11
c-120.62 0 -216.8 78.9805 -216.8 226v74c0 147.02 96.1797 226 216.8 226zM281.419 451.029h-7.69043c-83.0703 0 -142.73 -55.5996 -142.73 -160.739v-80.5801c0 -105.15 59.6602 -160.75 142.73 -160.75h7.69043c83.0801 0 142.73 55.5996 142.73 160.75v80.5801
c0 105.14 -59.6504 160.739 -142.73 160.739z" />
    <glyph glyph-name="odieresis" unicode="&#xf6;" horiz-adv-x="555" 
d="M170.35 677.85h61.4805c5.62988 0 8.93945 -3.30957 8.93945 -8.94922v-73.0303c0 -5.63965 -3.30957 -8.94922 -8.93945 -8.94922h-61.4805c-5.62988 0 -8.93945 3.30957 -8.93945 8.94922v73.0303c0 5.63965 3.30957 8.94922 8.93945 8.94922zM324.32 677.85h61.4697
c5.63965 0 8.94922 -3.30957 8.94922 -8.94922v-73.0303c0 -5.63965 -3.30957 -8.94922 -8.94922 -8.94922h-61.4697c-5.63965 0 -8.94922 3.30957 -8.94922 8.94922v73.0303c0 5.63965 3.30957 8.94922 8.94922 8.94922zM272.07 513h11c120.62 0 216.8 -78.9805 216.8 -226
v-74c0 -147.02 -96.1797 -226 -216.8 -226h-11c-120.62 0 -216.8 78.9805 -216.8 226v74c0 147.02 96.1797 226 216.8 226zM281.42 451.03h-7.69043c-83.0801 0 -142.73 -55.5996 -142.73 -160.739v-80.5801c0 -105.15 59.6504 -160.75 142.73 -160.75h7.69043
c83.0703 0 142.73 55.5996 142.73 160.75v80.5801c0 105.14 -59.6602 160.739 -142.73 160.739z" />
    <glyph glyph-name="ograve" unicode="&#xf2;" horiz-adv-x="555" 
d="M229.3 741.19l72.9512 -156.031c2.33008 -4.33008 0 -8.33008 -4.32031 -8.33008h-38.4404c-6.62988 0 -9.29004 1.98047 -12.6104 7.98047l-86.4902 155.69c-2.33008 5 0.669922 9.33008 5.66992 9.33008h49.29c7.66016 0 11.29 -3.33008 13.9502 -8.63965z
M272.071 512.999h11c120.62 0 216.8 -78.9805 216.8 -226v-74c0 -147.02 -96.1797 -226 -216.8 -226h-11c-120.62 0 -216.8 78.9805 -216.8 226v74c0 147.02 96.1797 226 216.8 226zM281.411 451.029h-7.69043c-83.0703 0 -142.73 -55.5996 -142.73 -160.739v-80.5801
c0 -105.15 59.6602 -160.75 142.73 -160.75h7.69043c83.0801 0 142.73 55.5996 142.73 160.75v80.5801c0 105.14 -59.6504 160.739 -142.73 160.739z" />
    <glyph glyph-name="ohungarumlaut" unicode="&#x151;" horiz-adv-x="555" 
d="M323.52 585.16l72.9609 156.031c2.65039 5.30957 6.29004 8.63965 13.9404 8.63965h44.0596c5 0 8 -4.33008 5.66992 -9.33008l-86.4902 -155.69c-3.32031 -6 -5.98047 -7.98047 -12.6104 -7.98047h-33.2002c-4.33008 0 -6.65039 4 -4.33008 8.33008zM195.57 585.161
l72.9609 156.031c2.65039 5.30957 6.29004 8.63965 13.9404 8.63965h44.0596c5 0 8 -4.33008 5.66992 -9.33008l-86.4902 -155.69c-3.32031 -6 -5.98047 -7.98047 -12.6104 -7.98047h-33.2002c-4.33008 0 -6.65039 4 -4.33008 8.33008zM272.051 513.002h11
c120.62 0 216.8 -78.9805 216.8 -226v-74c0 -147.02 -96.1797 -226 -216.8 -226h-11c-120.62 0 -216.8 78.9805 -216.8 226v74c0 147.02 96.1797 226 216.8 226zM281.4 451.032h-7.69043c-83.0801 0 -142.73 -55.5996 -142.73 -160.739v-80.5801
c0 -105.15 59.6504 -160.75 142.73 -160.75h7.69043c83.0703 0 142.73 55.5996 142.73 160.75v80.5801c0 105.14 -59.6602 160.739 -142.73 160.739z" />
    <glyph glyph-name="omacron" unicode="&#x14d;" horiz-adv-x="555" 
d="M156.84 643.32l242.46 0.00878906c4.95996 0 8.26953 -3.30957 8.26953 -8.2793v-39.8496c0 -4.96973 -3.30957 -8.2793 -8.26953 -8.2793l-242.46 0.330078c-4.95996 0 -8.26953 3.30957 -8.26953 8.26953v39.5303c0 4.95996 3.30957 8.26953 8.26953 8.26953z
M272.069 512.999h11c120.62 0 216.8 -78.9805 216.8 -226v-74c0 -147.02 -96.1797 -226 -216.8 -226h-11c-120.62 0 -216.8 78.9805 -216.8 226v74c0 147.02 96.1797 226 216.8 226zM281.419 451.039h-7.69043c-83.0801 0 -142.73 -55.5996 -142.73 -160.75v-80.5801
c0 -105.14 59.6504 -160.739 142.73 -160.739h7.69043c83.0703 0 142.73 55.5996 142.73 160.739v80.5801c0 105.15 -59.6602 160.75 -142.73 160.75z" />
    <glyph glyph-name="oslash" unicode="&#xf8;" horiz-adv-x="555" 
d="M499.87 487.07l-43.0693 -54.9688c27.0898 -36.5801 43.0703 -85.1904 43.0703 -145.11v-74c0 -147.02 -96.1797 -226 -216.8 -226h-11c-50.1299 0 -96.04 13.6504 -132.58 40.1504l-12.9697 -16.5498c-3.94043 -5.16992 -8.60059 -10.5996 -17.5605 -10.5996h-47.7305
c-7.95996 0 -11.2695 6.12988 -5.95996 12.9297l43.1904 54.7998c-27.1699 36.5898 -43.1895 85.2695 -43.1895 145.279v74c0 147.02 96.1797 226 216.8 226h11c50.7695 0 97.2197 -14 133.979 -41.1699l13.8604 17.5703c3.92969 5.08984 8.26953 10.5996 17.2295 10.5996
h46.0898c7.63965 0 10.9199 -6.11035 5.63965 -12.9307zM130.991 290.281l0.000976562 -80.5811c0 -31.6797 5.41016 -58.8594 15.25 -81.3789l228.86 290.3c-24.4805 21.4297 -56.7705 32.4102 -93.6904 32.4102h-7.69043c-83.0703 0 -142.73 -55.5996 -142.73 -160.75z
M424.132 209.7l-0.00195312 80.5801c0 31.46 -5.33984 58.4902 -15.0596 80.9199l-227.89 -290.84c24.3398 -20.7695 56.2002 -31.3994 92.5303 -31.3994h7.69043c83.0801 0 142.73 55.5996 142.73 160.739z" />
    <glyph glyph-name="otilde" unicode="&#xf5;" horiz-adv-x="555" 
d="M389.55 665.72h24.7402c5.33008 0 7.65039 -2.98047 5.65039 -8.98047c-17.1602 -52.5498 -51.54 -89.9102 -95.1602 -89.9102h-4c-47.6904 0 -53.3506 44.0498 -93.0605 44.0498c-23.0498 0 -37.4697 -15.7197 -49.8496 -35.1602
c-2.98047 -4.65039 -6.31055 -6.65039 -11.291 -6.65039h-24.7402c-5.33008 0 -7.65039 2.98047 -5.65039 8.98047c17.1602 52.54 51.54 89.9102 95.1602 89.9102h4c48.0195 0 54.9893 -44.0596 93.0596 -44.0596c22.4004 0 37.8008 16.0596 49.8604 35.1699
c2.98047 4.65039 6.30078 6.65039 11.2812 6.65039zM272.07 512.989h11c120.62 0 216.8 -78.9805 216.8 -226v-74c0 -147.02 -96.1797 -226 -216.8 -226h-11c-120.62 0 -216.8 78.9805 -216.8 226v74c0 147.02 96.1797 226 216.8 226zM281.41 451.029h-7.69043
c-83.0703 0 -142.73 -55.5996 -142.73 -160.75v-80.5801c0 -105.14 59.6602 -160.739 142.73 -160.739h7.69043c83.0801 0 142.73 55.5996 142.73 160.739v80.5801c0 105.15 -59.6504 160.75 -142.73 160.75z" />
    <glyph glyph-name="oe" unicode="&#x153;" horiz-adv-x="895" 
d="M635.6 513l10.9883 0.00976562c119.7 0 194.82 -76.04 194.82 -223.06v-37.4697c0 -6.59961 -4.94043 -11.5498 -11.54 -11.5498h-329.68l0.110352 -43.5996c-0.110352 -95.8496 67.7295 -149.34 157.84 -149.34h4.33008c49.7402 0 102.12 17.0195 152.07 40.0498
c3.95996 1.66016 8.26953 -0.649414 8.26953 -5.61914v-44.4199c0 -6.95996 -2.65039 -10.9404 -7.95996 -13.2705c-36.4004 -19.0498 -106.95 -37.7295 -160.55 -37.7295h-7.62988c-83.8398 0 -153.77 36.9697 -186.1 104.02
c-33.1797 -68.4004 -99.04 -104.021 -177.5 -104.021h-11c-120.62 0 -216.8 78.9805 -216.8 226v74c0 147.02 96.1797 226 216.8 226h11c80.5996 0 147.859 -37.6699 179.939 -109.9c32.2402 70.1396 95.6807 109.899 172.591 109.899zM643.958 455.3l-7.04102 -0.00976562
c-80.21 0 -135.34 -62.2803 -136.89 -165.811h271.01c0.780273 113.07 -41.8193 165.82 -127.079 165.82zM281.407 451.04h-7.69043c-83.0703 0 -142.73 -55.5996 -142.73 -160.75v-80.5801c0 -105.14 59.6602 -160.739 142.73 -160.739h7.69043
c83.0801 0 142.73 55.5996 142.73 160.739v80.5801c0 105.15 -59.6504 160.75 -142.73 160.75z" />
    <glyph glyph-name="p" unicode="p" horiz-adv-x="545" 
d="M294.76 513h6.30859c121.34 0 188.42 -85.2002 188.42 -221.75v-78.25c0 -147.02 -77.2197 -226 -194.64 -226h-6.29004c-47.8799 0 -105.16 20.4199 -148.5 67.8701v-213.6c0 -4.96973 -3.30957 -8.2793 -8.26953 -8.2793h-57.8799
c-4.95996 0 -8.26953 3.30957 -8.26953 8.2793v650.45c0 4.96973 3.30957 8.2793 8.26953 8.2793h51.9805c4.30957 0 7.29004 -2.66016 7.9502 -6.96973l2.4502 -55.8496c43.5801 50.0996 104.25 75.8193 158.47 75.8193zM281.738 451.03l-2.98047 0.000976562
c-44.8701 0 -92.5498 -20.8701 -138.689 -70.8105v-259.79c46.5498 -50.3398 94.7695 -71.4697 138.689 -71.4697h2.98047c84.7803 0 132.021 55.5996 132.021 160.75v80.5801c0 105.14 -47.2402 160.739 -132.021 160.739z" />
    <glyph glyph-name="thorn" unicode="&#xfe;" horiz-adv-x="545" 
d="M294.76 513h6.2998c121.34 0 188.42 -85.2002 188.42 -221.74v-78.2598c0 -147.02 -77.2197 -226 -194.64 -226h-6.29004c-47.8799 0 -105.16 20.4199 -148.5 67.8799v-213.61c0 -4.95996 -3.30957 -8.26953 -8.26953 -8.26953h-57.8799
c-4.95996 0 -8.26953 3.30957 -8.26953 8.26953v887.46c0 4.95996 3.30957 8.26953 8.26953 8.26953h57.8799c4.95996 0 8.26953 -3.30957 8.26953 -8.26953v-287.93c43.5801 48.5498 103 72.2002 154.71 72.2002zM413.75 209.71v80.5811
c0 105.15 -47.2402 160.75 -132.021 160.75h-2.98047c-44.8701 0 -92.5498 -20.8701 -138.689 -70.8105v-259.79c46.5498 -50.3496 94.7695 -71.4697 138.689 -71.4697h2.98047c84.7803 0 132.021 55.5996 132.021 160.739z" />
    <glyph glyph-name="q" unicode="q" horiz-adv-x="538" 
d="M258.42 513l7.63965 -0.00878906c72.4697 0 160.42 -31.6504 201.4 -56.6309c4.65039 -3.33008 7.31055 -8.31055 7.31055 -13.291v-601.8c0 -4.95996 -3.30957 -8.26953 -8.2793 -8.26953h-57.8701c-4.96973 0 -8.2793 3.30957 -8.2793 8.26953v218
c-43.8203 -48.5596 -103.021 -72.2695 -154.711 -72.2695h-6.29004c-121.34 0 -184.07 85.2002 -184.07 221.74v78.2598c0 147.02 80.2598 226 203.149 226zM266.369 452.011h-4.32031c-81.4199 0 -131.36 -55.5996 -131.04 -160.739v-81.5703
c0 -105.14 42.8896 -160.739 127.67 -160.739h2.98047c44.9102 0 92.4805 20.7998 138.7 70.8193v291.71c-38.4805 22.0898 -89.3906 40.5195 -133.99 40.5195z" />
    <glyph glyph-name="r" unicode="r" horiz-adv-x="356" 
d="M293.69 513l3.99902 -0.00878906c9 0 21.3799 -1 27.0596 -2c6 -1 7.98047 -4.98047 7.98047 -10.3105v-51.5801c0 -6.29004 -4.63965 -8.91992 -11.9492 -7.91992c-6.65039 1 -21.9404 2 -32.6006 2h-3.95996c-47.6299 0 -97.6299 -24.9004 -146.16 -78.0303v-356.88
c0 -4.96973 -3.30957 -8.2793 -8.2793 -8.2793h-57.8701c-4.96973 0 -8.2793 3.30957 -8.2793 8.2793v483.45c0 4.96973 3.30957 8.2793 8.2793 8.2793h51.9805c4.30957 0 7.29004 -2.66016 7.94043 -6.96973l4.25977 -68.7002c46.46 58.1602 104.05 88.6699 157.6 88.6699z
" />
    <glyph glyph-name="racute" unicode="&#x155;" horiz-adv-x="356" 
d="M164.31 585.16l72.96 156.031c2.65039 5.30957 6.29004 8.63965 13.9404 8.63965h49.29c5 0 8 -4.33008 5.67969 -9.33008l-86.4902 -155.69c-3.33008 -6 -5.98047 -7.98047 -12.6201 -7.98047h-38.4297c-4.33008 0 -6.65039 4 -4.33008 8.33008zM293.68 513.001
l3.99902 -0.00878906c9 0 21.3799 -1 27.0596 -2c6 -1 7.98047 -4.98047 7.98047 -10.3105v-51.5801c0 -6.29004 -4.63965 -8.91992 -11.9492 -7.91992c-6.65039 1 -21.9404 2 -32.6006 2h-3.95996c-47.6299 0 -97.6299 -24.9004 -146.16 -78.0303v-356.88
c0 -4.96973 -3.30957 -8.2793 -8.2793 -8.2793h-57.8701c-4.96973 0 -8.2793 3.30957 -8.2793 8.2793v483.45c0 4.96973 3.30957 8.2793 8.2793 8.2793h51.9805c4.30957 0 7.29004 -2.66016 7.94043 -6.96973l4.25977 -68.7002c46.46 58.1602 104.05 88.6699 157.6 88.6699z
" />
    <glyph glyph-name="rcaron" unicode="&#x159;" horiz-adv-x="356" 
d="M250.96 749.83h44.0508c5 0 8.66992 -4.32031 5.66992 -9.32031l-93.2197 -155.69c-3.32031 -6 -5.98047 -7.98047 -12.6104 -7.98047h-33.2002c-6.63965 0 -9.29004 1.98047 -12.6201 7.98047l-93.2197 155.69c-3 5 0.679688 9.32031 5.67969 9.32031h44.0498
c7.66016 0 11.29 -3.32031 13.9502 -8.62988l58.7598 -114.85l58.7695 114.85c2.65039 5.30957 6.29004 8.62988 13.9404 8.62988zM293.69 513l3.99902 -0.00878906c9 0 21.3799 -1 27.0596 -2c6 -1 7.98047 -4.98047 7.98047 -10.3105v-51.5801
c0 -6.29004 -4.63965 -8.91992 -11.9492 -7.91992c-6.65039 1 -21.9404 2 -32.6006 2h-3.95996c-47.6299 0 -97.6299 -24.9004 -146.16 -78.0303v-356.88c0 -4.96973 -3.30957 -8.2793 -8.2793 -8.2793h-57.8701c-4.96973 0 -8.2793 3.30957 -8.2793 8.2793v483.45
c0 4.96973 3.30957 8.2793 8.2793 8.2793h51.9805c4.30957 0 7.29004 -2.66016 7.94043 -6.96973l4.25977 -68.7002c46.46 58.1602 104.05 88.6699 157.6 88.6699z" />
    <glyph glyph-name="rcommaaccent" unicode="&#x157;" horiz-adv-x="356" 
d="M293.69 513l3.99902 -0.00878906c9 0 21.3799 -1 27.0596 -2c6 -1 7.98047 -4.98047 7.98047 -10.3105v-51.5801c0 -6.29004 -4.63965 -8.91992 -11.9492 -7.91992c-6.65039 1 -21.9404 2 -32.6006 2h-3.95996c-47.6299 0 -97.6299 -24.9004 -146.16 -78.0303v-356.88
c0 -4.96973 -3.30957 -8.2793 -8.2793 -8.2793h-57.8701c-4.96973 0 -8.2793 3.30957 -8.2793 8.2793v483.45c0 4.96973 3.30957 8.2793 8.2793 8.2793h51.9805c4.30957 0 7.29004 -2.66016 7.94043 -6.96973l4.25977 -68.7002c46.46 58.1602 104.05 88.6699 157.6 88.6699z
M72.5791 -49.9287h72.3105c5.62988 0 8.93945 -3.30957 8.93945 -8.93945v-53.0996c0 -5.62012 -0.219727 -11.1201 -2.62988 -16.54l-41.46 -109.14c-2.20996 -4.7002 -5.94043 -7.28027 -10.2305 -7.28027h-36.5996c-6.33008 0 -8 5.58984 -5.98047 10.3096
l40.7803 105.11h-25.1299c-5.62988 0 -8.93945 3.30957 -8.93945 8.93945v61.7002c0 5.62988 3.30957 8.93945 8.93945 8.93945z" />
    <glyph glyph-name="s" unicode="s" horiz-adv-x="428" 
d="M209.23 513l10.6826 -0.00976562c47.2695 0 107.619 -16.3799 138.359 -34.1201c5.30957 -2.33008 7.96973 -6.31055 7.96973 -13.2705v-42.46c0 -4.95996 -4.30957 -7.26953 -8.2793 -5.61914c-44.9404 23.3701 -89.4209 39.0801 -133.161 39.0801h-6.37988
c-56.9297 0 -105.87 -27.1699 -105.87 -77.1299v-5.37012c0 -51.29 52.3398 -64.3799 99.9199 -80.1201l27.9297 -9.30957c87.3398 -29 148.72 -57.5996 148.72 -148.51v-5.66016c0 -94.5801 -83.2197 -143.5 -177.359 -143.5h-9.37012
c-46.6699 0 -116.95 16.3799 -148.67 34.7803c-5.30957 2.32031 -7.96973 6.30078 -7.96973 13.2705v42.4502c0 4.96973 4.30957 7.2793 8.2793 5.61914c45.9199 -23.3604 96.7197 -39.7305 143.8 -39.7305h7.69043c59.8701 0 109.18 28.4902 109.18 83.1699v5.36035
c0 53.6602 -46.6299 69.0898 -94.2002 84.8398l-27.9199 9.30957c-72.0596 24.0195 -154.13 50.2695 -154.13 141.47v6.34961c0 92.4902 83.5098 139.11 170.779 139.11z" />
    <glyph glyph-name="sacute" unicode="&#x15b;" horiz-adv-x="428" 
d="M186.87 585.16l72.9512 156.031c2.66016 5.30957 6.29004 8.63965 13.9502 8.63965h49.29c5 0 8 -4.33008 5.66992 -9.33008l-86.4902 -155.69c-3.32031 -6 -5.98047 -7.98047 -12.6104 -7.98047h-38.4404c-4.32031 0 -6.65039 4 -4.32031 8.33008zM209.222 512.991
l10.6826 -0.000976562c47.2695 0 107.619 -16.3799 138.359 -34.1299c5.30957 -2.32031 7.96973 -6.30078 7.96973 -13.2705v-42.4502c0 -4.96973 -4.30957 -7.2793 -8.2793 -5.61914c-44.9404 23.3604 -89.4209 39.0703 -133.161 39.0703h-6.37988
c-56.9297 0 -105.87 -27.1602 -105.87 -77.1299v-5.36035c0 -51.29 52.3398 -64.3799 99.9199 -80.1299l27.9297 -9.30957c87.3398 -29 148.72 -57.5996 148.72 -148.51v-5.65039c0 -94.5801 -83.2197 -143.51 -177.359 -143.51h-9.37012
c-46.6699 0 -116.95 16.3799 -148.67 34.7803c-5.30957 2.33008 -7.96973 6.31055 -7.96973 13.2705v42.46c0 4.95996 4.30957 7.26953 8.2793 5.61914c45.9199 -23.3701 96.7197 -39.7305 143.8 -39.7305h7.69043c59.8701 0 109.18 28.4902 109.18 83.1602v5.37012
c0 53.6504 -46.6299 69.0908 -94.2002 84.8311l-27.9199 9.30957c-72.0596 24.0195 -154.13 50.2793 -154.13 141.479v6.33984c0 92.4902 83.5098 139.11 170.779 139.11z" />
    <glyph glyph-name="scaron" unicode="&#x161;" horiz-adv-x="428" 
d="M287 749.83h44.0508c4.99023 0 8.66992 -4.32031 5.66992 -9.32031l-93.2197 -155.69c-3.33008 -6 -5.98047 -7.98047 -12.6201 -7.98047h-33.2002c-6.62988 0 -9.29004 1.98047 -12.6104 7.98047l-93.2197 155.69c-3 5 0.669922 9.32031 5.66992 9.32031h44.0596
c7.65039 0 11.29 -3.32031 13.9404 -8.62988l58.7695 -114.85l58.7598 114.85c2.66016 5.30957 6.29004 8.62988 13.9502 8.62988zM209.23 513l10.6699 -0.00976562c47.2803 0 107.62 -16.3799 138.37 -34.1201c5.30957 -2.33008 7.95996 -6.31055 7.95996 -13.2705v-42.46
c0 -4.95996 -4.30957 -7.26953 -8.26953 -5.61914c-44.9502 23.3701 -89.4199 39.0801 -133.17 39.0801h-6.37988c-56.9199 0 -105.87 -27.1699 -105.87 -77.1299v-5.37012c0 -51.29 52.3496 -64.3799 99.9297 -80.1201l27.9199 -9.30957
c87.3496 -29 148.729 -57.5996 148.729 -148.51v-5.66016c0 -94.5801 -83.2197 -143.5 -177.37 -143.5h-9.36035c-46.6797 0 -116.949 16.3799 -148.68 34.7803c-5.30957 2.32031 -7.95996 6.30078 -7.95996 13.2705v42.4502c0 4.96973 4.30957 7.2793 8.26953 5.61914
c45.9297 -23.3604 96.7295 -39.7305 143.8 -39.7305h7.69043c59.8799 0 109.189 28.4902 109.189 83.1699v5.36035c0 53.6602 -46.6396 69.0898 -94.1992 84.8398l-27.9297 9.30957c-72.0498 24.0195 -154.13 50.2695 -154.13 141.47v6.34961
c0 92.4902 83.5098 139.11 170.79 139.11z" />
    <glyph glyph-name="scedilla" unicode="&#x15f;" horiz-adv-x="428" 
d="M212.47 293.98l27.9326 -9.31934c87.3496 -29 148.729 -57.5996 148.729 -148.51v-5.65039c0 -94.5801 -83.2197 -143.51 -177.37 -143.51h-9.36035c-0.509766 0 -1.01953 0 -1.5293 0.00976562l-8.07031 -46.2305c7.08984 2.05957 18.4502 4.10938 29.2002 4.10938
c47.3398 0 80 -28.6504 80 -75.96c0 -54.6396 -42.3096 -83.9297 -100.88 -83.9297c-29.25 0 -54.9297 7.30957 -64.5801 11.29c-7.66016 2.98047 -9.96973 6.64062 -9.96973 14.2705v15.8604c0 4.66992 3.33008 6.66992 7.33008 5.66992
c10.0303 -2.33984 33.3398 -9.97949 59.3203 -9.97949c36.1104 0 59.5703 13.3799 59.5703 43.2002c0 26.7998 -19.0898 40.1797 -46.8398 40.1797c-13.71 0 -27.7402 -4.01953 -39.7207 -7c-4.34961 -1 -7.68945 -1.66992 -11.3691 1.34961l-3.65039 2.66992
c-3.66016 2.67969 -6.66016 6.33008 -5.66016 10.6602l14.1904 77.2598c-39.8203 5.75 -83.04 18.0195 -106.021 31.3496c-5.30957 2.33008 -7.96973 6.31055 -7.96973 13.2705v42.46c0 4.95996 4.30957 7.26953 8.2793 5.61914
c45.9199 -23.3701 96.7197 -39.7305 143.8 -39.7305h7.69043c59.8701 0 109.18 28.4902 109.18 83.1602v5.37012c0 53.6504 -46.6299 69.0908 -94.2002 84.8311l-27.9199 9.30957c-72.0596 24.0195 -154.13 50.2793 -154.13 141.479v6.33984
c0 92.4902 83.5098 139.11 170.779 139.11h10.6797c47.2695 0 107.619 -16.3799 138.359 -34.1201c5.30957 -2.33008 7.96973 -6.31055 7.96973 -13.2705v-42.46c0 -4.95996 -4.30957 -7.26953 -8.2793 -5.61914c-44.9404 23.3701 -89.4209 39.0801 -133.161 39.0801
h-6.37988c-56.9297 0 -105.87 -27.1699 -105.87 -77.1299v-5.37012c0 -51.29 52.3398 -64.3799 99.9199 -80.1201z" />
    <glyph glyph-name="scommaaccent" unicode="&#x219;" horiz-adv-x="428" 
d="M209.23 513l10.6826 -0.00976562c47.2695 0 107.619 -16.3799 138.359 -34.1201c5.30957 -2.33008 7.96973 -6.31055 7.96973 -13.2705v-42.46c0 -4.95996 -4.30957 -7.26953 -8.2793 -5.61914c-44.9404 23.3701 -89.4209 39.0801 -133.161 39.0801h-6.37988
c-56.9297 0 -105.87 -27.1699 -105.87 -77.1299v-5.37012c0 -51.29 52.3398 -64.3799 99.9199 -80.1201l27.9297 -9.30957c87.3398 -29 148.72 -57.5996 148.72 -148.51v-5.66016c0 -94.5801 -83.2197 -143.5 -177.359 -143.5h-9.37012
c-46.6699 0 -116.95 16.3799 -148.67 34.7803c-5.30957 2.32031 -7.96973 6.30078 -7.96973 13.2705v42.4502c0 4.96973 4.30957 7.2793 8.2793 5.61914c45.9199 -23.3604 96.7197 -39.7305 143.8 -39.7305h7.69043c59.8701 0 109.18 28.4902 109.18 83.1699v5.36035
c0 53.6602 -46.6299 69.0898 -94.2002 84.8398l-27.9199 9.30957c-72.0596 24.0195 -154.13 50.2695 -154.13 141.47v6.34961c0 92.4902 83.5098 139.11 170.779 139.11zM181.903 -49.9199l72.3018 0.000976562c5.63965 0 8.94922 -3.30957 8.94922 -8.94922v-53.0898
c0 -5.62012 -0.230469 -11.1201 -2.64062 -16.5498l-41.4502 -109.14c-2.20996 -4.7002 -5.9502 -7.27051 -10.2402 -7.27051h-36.5996c-6.32031 0 -8 5.58984 -5.98047 10.3096l40.7803 105.1h-25.1201c-5.63965 0 -8.94922 3.30957 -8.94922 8.94922v61.6904
c0 5.63965 3.30957 8.94922 8.94922 8.94922z" />
    <glyph glyph-name="germandbls" unicode="&#xdf;" horiz-adv-x="566" 
d="M208.62 750l7.62988 -0.0126953c75.79 0 146.59 -43.0996 146.67 -139.71l-0.00976562 -5.55957c0 -107.81 -123.98 -130.13 -123.971 -207.18l0.00976562 -5.26953c-0.00976562 -63.5703 65.4199 -82.8799 112.35 -98.2998l27.5996 -9.30957
c88.3203 -29.3301 149.051 -57.9297 148.961 -148.51v-5.65039c0 -94.5801 -83.2197 -143.51 -177.359 -143.51h-9.37012c-46.5801 0 -115.22 16.0596 -148.58 34.7793c-4.33008 2 -7.95996 5 -8.0498 13.2803v42.4502c0.0898438 4.96973 4.07031 7.2793 8.36035 5.61914
c46.5801 -23.6904 97.0498 -39.7207 143.71 -39.7207h7.69043c59.8799 0 109.189 28.4902 109.189 83.1602v5.37012c0.0800781 53.6504 -46.8799 69.0908 -94.1201 84.8311l-27.9199 9.30957c-73.04 24.3496 -154.13 50.5996 -154.21 141.479v6.33984
c0 102.04 132.31 129.271 132.31 222.671l0.00976562 5.55957c0 60.96 -39.7803 86.9004 -82.1504 86.9004h-4.33008c-43.1396 0 -83.6299 -26.7695 -83.6299 -96.2793v-584.47c0 -4.96973 -3.30957 -8.2793 -8.2793 -8.2793h-57.8701
c-4.96973 0 -8.2793 3.30957 -8.2793 8.2793v595.25c0 98.6201 63.9297 146.48 143.64 146.48z" />
    <glyph glyph-name="t" unicode="t" horiz-adv-x="337" 
d="M101.74 610.02l53.9219 12.4795c6.29004 1.66016 11.9297 -1.30957 11.9297 -8.59961v-113.91h138c4.95996 0 8.26953 -3.30957 8.26953 -8.26953v-43.7803c0 -4.96973 -3.30957 -8.2793 -8.26953 -8.2793h-138v-317.43c0 -49.8398 18.71 -73.2695 63.5996 -73.2695
h4.32031c20.1104 0 40.4902 6.01953 68.7305 16.3398c5.30957 2 9.61914 -1.65039 9.61914 -6.95996v-39.46c0 -4.98047 -1.98047 -8.96094 -7.31055 -11.2812c-25.5596 -11.6201 -59.1797 -20.6006 -84.1094 -20.6006h-7.62988
c-80.4805 0 -121.641 43.8701 -121.641 124.78v327.89h-61.4404c-4.95996 0 -8.26953 3.30957 -8.26953 8.2793v38.3604c0 4.82031 3.45996 7.18066 8.26953 8.27051l61.4297 5.41992v97.1104c0 6.62012 2.29004 11.5801 8.58008 12.9102z" />
    <glyph glyph-name="tbar" unicode="&#x167;" horiz-adv-x="337" 
d="M167.58 439.67l0.00976562 -106.909h138c4.96973 0 8.2793 -3.30957 8.2793 -8.2793v-39.8496c0 -4.96973 -3.30957 -8.29004 -8.2793 -8.28027l-138 0.169922v-154.3c0 -49.8301 18.71 -73.2705 63.5996 -73.2705h4.33008c20.1104 0 40.4902 6.01953 68.7207 16.3496
c5.30957 2 9.61914 -1.66016 9.61914 -6.96973v-39.4502c0 -4.98047 -1.98047 -8.96094 -7.30078 -11.291c-25.5703 -11.6201 -59.1904 -20.6006 -84.1104 -20.6006h-7.63965c-80.4697 0 -121.64 43.8799 -121.64 124.79v164.84l-61.4297 0.0703125
c-4.96973 0.00976562 -8.2793 3.30957 -8.2793 8.2793v39.5195c0 4.96973 3.30957 8.2793 8.2793 8.2793h61.4297v106.9h-61.4297c-4.96973 0 -8.2793 3.30957 -8.2793 8.2793v38.3604c0 4.82031 3.46973 7.18066 8.26953 8.27051l61.4404 5.41992v97.1104
c0 6.62012 2.29004 11.5801 8.58008 12.9102l53.9102 12.4902c6.29004 1.65039 11.9199 -1.30957 11.9199 -8.59961v-113.91h138c4.96973 0 8.2793 -3.30957 8.2793 -8.2793v-43.7803c0 -4.95996 -3.30957 -8.26953 -8.2793 -8.26953h-138z" />
    <glyph glyph-name="tcaron" unicode="&#x165;" horiz-adv-x="463" 
d="M357.89 737l72.3105 0.000976562c5.62988 0 8.93945 -3.30957 8.93945 -8.94922v-53.0898c0 -5.62012 -0.219727 -11.1201 -2.62988 -16.5498l-41.46 -109.14c-2.20996 -4.7002 -5.94043 -7.27051 -10.2305 -7.27051h-36.5996c-6.33008 0 -8 5.58984 -5.98047 10.3096
l40.7803 105.1h-25.1299c-5.62988 0 -8.93945 3.30957 -8.93945 8.94922v61.6904c0 5.63965 3.30957 8.94922 8.93945 8.94922zM101.74 610.021l53.9199 12.4795c6.29004 1.66016 11.9199 -1.30957 11.9199 -8.59961v-113.91h138c4.96973 0 8.2793 -3.30957 8.2793 -8.26953
v-43.7803c0 -4.96973 -3.30957 -8.2793 -8.2793 -8.2793h-138v-317.43c0 -49.8398 18.71 -73.2695 63.5996 -73.2695h4.33008c20.1104 0 40.4902 6.01953 68.7207 16.3398c5.30957 2 9.61914 -1.65039 9.61914 -6.95996v-39.46
c0 -4.98047 -1.98047 -8.96094 -7.30078 -11.2812c-25.5703 -11.6201 -59.1904 -20.6006 -84.1104 -20.6006h-7.63965c-80.4697 0 -121.64 43.8701 -121.64 124.78v327.89h-61.4297c-4.96973 0 -8.2793 3.30957 -8.2793 8.2793v38.3604
c0 4.82031 3.46973 7.18066 8.26953 8.27051l61.4404 5.41992v97.1104c0 6.62012 2.29004 11.5801 8.58008 12.9102z" />
    <glyph glyph-name="tcedilla" unicode="&#x163;" horiz-adv-x="337" 
d="M167.58 439.67l0.0175781 -317.431c0 -49.8398 18.71 -73.2695 63.5996 -73.2695h4.32031c20.1104 0 40.4902 6.01953 68.7305 16.3398c5.30957 2 9.61914 -1.65039 9.61914 -6.95996v-39.46c0 -4.98047 -1.98047 -8.96094 -7.31055 -11.2812
c-25.5596 -11.6201 -59.1797 -20.6006 -84.1094 -20.6006h-7.62988c-7.08984 0 -13.8799 0.339844 -20.3604 1.00977l-8.25 -47.2402c7.08984 2.05957 18.46 4.10938 29.2002 4.10938c47.3496 0 80 -28.6504 80 -75.96c0 -54.6396 -42.3096 -83.9297 -100.869 -83.9297
c-29.2598 0 -54.9297 7.30957 -64.5898 11.29c-7.65039 2.98047 -9.95996 6.64062 -9.95996 14.2705v15.8604c0 4.66992 3.32031 6.66992 7.32031 5.66992c10.04 -2.33984 33.3496 -9.97949 59.3301 -9.97949c36.1104 0 59.5605 13.3799 59.5605 43.2002
c0 26.7998 -19.0898 40.1797 -46.8301 40.1797c-13.71 0 -27.75 -4.01953 -39.7305 -7c-4.33984 -1 -7.68945 -1.66992 -11.3594 1.34961l-3.66016 2.66992c-3.65039 2.67969 -6.65039 6.33008 -5.65039 10.6602l15.5703 84.8301
c-40.6904 17.7002 -61.3701 56.4404 -61.3701 113.78v327.89h-61.4297c-4.96973 0 -8.2793 3.30957 -8.2793 8.2793v38.3604c0 4.82031 3.46973 7.18066 8.26953 8.27051l61.4404 5.41992v97.1104c0 6.62012 2.29004 11.5801 8.58008 12.9102l53.9102 12.4902
c6.29004 1.65039 11.9199 -1.30957 11.9199 -8.59961v-113.91h138c4.96973 0 8.2793 -3.30957 8.2793 -8.2793v-43.7803c0 -4.95996 -3.30957 -8.26953 -8.2793 -8.26953h-138z" />
    <glyph glyph-name="uni021B" unicode="&#x21b;" horiz-adv-x="337" 
d="M101.74 610.02l53.9219 12.4795c6.29004 1.66016 11.9297 -1.30957 11.9297 -8.59961v-113.91h138c4.95996 0 8.26953 -3.30957 8.26953 -8.26953v-43.7803c0 -4.96973 -3.30957 -8.2793 -8.26953 -8.2793h-138v-317.43c0 -49.8398 18.71 -73.2695 63.5996 -73.2695
h4.32031c20.1104 0 40.4902 6.01953 68.7305 16.3398c5.30957 2 9.61914 -1.65039 9.61914 -6.95996v-39.46c0 -4.98047 -1.98047 -8.96094 -7.31055 -11.2812c-25.5596 -11.6201 -59.1797 -20.6006 -84.1094 -20.6006h-7.62988
c-80.4805 0 -121.641 43.8701 -121.641 124.78v327.89h-61.4404c-4.95996 0 -8.26953 3.30957 -8.26953 8.2793v38.3604c0 4.82031 3.45996 7.18066 8.26953 8.27051l61.4297 5.41992v97.1104c0 6.62012 2.29004 11.5801 8.58008 12.9102zM183.562 -49.9209
l72.3105 0.000976562c5.62988 0 8.93945 -3.30957 8.93945 -8.94922v-53.0898c0 -5.62012 -0.219727 -11.1201 -2.62988 -16.5498l-41.46 -109.14c-2.20996 -4.7002 -5.94043 -7.27051 -10.2305 -7.27051h-36.5996c-6.33008 0 -8 5.58984 -5.98047 10.3096l40.7803 105.1
h-25.1299c-5.62988 0 -8.93945 3.30957 -8.93945 8.94922v61.6904c0 5.63965 3.30957 8.94922 8.93945 8.94922z" />
    <glyph glyph-name="u" unicode="u" 
d="M397.62 500h57.873c4.95996 0 8.26953 -3.30957 8.26953 -8.26953v-483.46c0 -4.95996 -3.30957 -8.26953 -8.26953 -8.26953h-51.9805c-4.30957 0 -7.29004 2.65039 -7.9502 6.95996l-3.2002 53.8896c-51.9102 -45.4404 -113.4 -73.8506 -167.69 -73.8506h-6.9502
c-108.52 0 -156.09 64.75 -156.09 177.53v327.2c0 4.95996 3.30957 8.26953 8.2793 8.26953h57.8701c4.96973 0 8.2793 -3.30957 8.2793 -8.26953v-314.78c0 -81.71 25.1104 -127.99 106.23 -127.99h2.98047c46.4697 0 99.1797 25.9805 144.069 64.4004v378.36
c0 4.96973 3.30957 8.2793 8.2793 8.2793z" />
    <glyph glyph-name="uacute" unicode="&#xfa;" 
d="M240.5 585.16l72.96 156.031c2.65039 5.30957 6.29004 8.63965 13.9404 8.63965h49.29c5 0 8 -4.33008 5.67969 -9.33008l-86.4902 -155.69c-3.33008 -6 -5.98047 -7.98047 -12.6201 -7.98047h-38.4297c-4.33008 0 -6.65039 4 -4.33008 8.33008zM397.61 500.001h57.873
c4.95996 0 8.26953 -3.30957 8.26953 -8.26953v-483.46c0 -4.95996 -3.30957 -8.26953 -8.26953 -8.26953h-51.9805c-4.30957 0 -7.29004 2.65039 -7.9502 6.95996l-3.2002 53.8896c-51.9102 -45.4404 -113.4 -73.8506 -167.69 -73.8506h-6.9502
c-108.52 0 -156.09 64.75 -156.09 177.53v327.2c0 4.95996 3.30957 8.26953 8.2793 8.26953h57.8701c4.96973 0 8.2793 -3.30957 8.2793 -8.26953v-314.78c0 -81.71 25.1104 -127.99 106.23 -127.99h2.98047c46.4697 0 99.1797 25.9805 144.069 64.4004v378.36
c0 4.96973 3.30957 8.2793 8.2793 8.2793z" />
    <glyph glyph-name="ucaron" unicode="&#x1d4;" 
d="M335.74 749.83h44.0508c5 0 8.66992 -4.32031 5.66992 -9.32031l-93.2197 -155.69c-3.32031 -6 -5.98047 -7.98047 -12.6104 -7.98047h-33.2002c-6.63965 0 -9.29004 1.98047 -12.6201 7.98047l-93.2197 155.69c-3 5 0.679688 9.32031 5.67969 9.32031h44.0498
c7.66016 0 11.29 -3.32031 13.9502 -8.62988l58.7598 -114.85l58.7695 114.85c2.65039 5.30957 6.29004 8.62988 13.9404 8.62988zM397.611 500h57.873c4.96973 0 8.2793 -3.30957 8.2793 -8.26953v-483.46c0 -4.95996 -3.30957 -8.26953 -8.2793 -8.26953h-51.9805
c-4.30957 0 -7.29004 2.65039 -7.94043 6.95996l-3.20996 53.8896c-51.9102 -45.4404 -113.391 -73.8506 -167.69 -73.8506h-6.94043c-108.53 0 -156.09 64.75 -156.09 177.53v327.2c0 4.95996 3.30957 8.26953 8.26953 8.26953h57.8799
c4.95996 0 8.26953 -3.30957 8.26953 -8.26953v-314.78c0 -81.71 25.1104 -127.99 106.24 -127.99h2.98047c46.4697 0 99.1797 25.9805 144.069 64.4004v378.36c0 4.96973 3.30957 8.2793 8.26953 8.2793z" />
    <glyph glyph-name="ucircumflex" unicode="&#xfb;" 
d="M292.25 741.85l93.2285 -155.69c3 -5 -0.669922 -9.33008 -5.66992 -9.33008h-44.0596c-7.65039 0 -11.29 3.33008 -13.9404 8.63965l-58.7695 114.85l-58.7598 -114.85c-2.66016 -5.30957 -6.29004 -8.63965 -13.9502 -8.63965h-44.0498
c-5 0 -8.67969 4.33008 -5.67969 9.33008l93.2197 155.69c3.33008 6 5.98047 7.98047 12.6201 7.98047h33.2002c6.62988 0 9.29004 -1.98047 12.6104 -7.98047zM397.618 499.999h57.873c4.96973 0 8.2793 -3.30957 8.2793 -8.26953v-483.46
c0 -4.95996 -3.30957 -8.26953 -8.2793 -8.26953h-51.9805c-4.30957 0 -7.29004 2.65039 -7.94043 6.95996l-3.20996 53.8896c-51.9102 -45.4404 -113.391 -73.8506 -167.69 -73.8506h-6.94043c-108.53 0 -156.09 64.75 -156.09 177.53v327.2
c0 4.95996 3.30957 8.26953 8.26953 8.26953h57.8799c4.95996 0 8.26953 -3.30957 8.26953 -8.26953v-314.78c0 -81.71 25.1104 -127.99 106.24 -127.99h2.98047c46.4697 0 99.1797 25.9805 144.069 64.4004v378.36c0 4.96973 3.30957 8.2793 8.26953 8.2793z" />
    <glyph glyph-name="udieresis" unicode="&#xfc;" 
d="M155.31 677.85h61.4805c5.62988 0 8.93945 -3.30957 8.93945 -8.94922v-73.0303c0 -5.63965 -3.30957 -8.94922 -8.93945 -8.94922h-61.4805c-5.62988 0 -8.93945 3.30957 -8.93945 8.94922v73.0303c0 5.63965 3.30957 8.94922 8.93945 8.94922zM309.28 677.85h61.4697
c5.63965 0 8.94922 -3.30957 8.94922 -8.94922v-73.0303c0 -5.63965 -3.30957 -8.94922 -8.94922 -8.94922h-61.4697c-5.63965 0 -8.94922 3.30957 -8.94922 8.94922v73.0303c0 5.63965 3.30957 8.94922 8.94922 8.94922zM397.62 500h57.873
c4.95996 0 8.26953 -3.30957 8.26953 -8.26953v-483.46c0 -4.95996 -3.30957 -8.26953 -8.26953 -8.26953h-51.9805c-4.30957 0 -7.29004 2.65039 -7.9502 6.95996l-3.2002 53.8896c-51.9102 -45.4404 -113.4 -73.8506 -167.69 -73.8506h-6.9502
c-108.52 0 -156.09 64.75 -156.09 177.53v327.2c0 4.95996 3.30957 8.26953 8.2793 8.26953h57.8701c4.96973 0 8.2793 -3.30957 8.2793 -8.26953v-314.78c0 -81.71 25.1104 -127.99 106.23 -127.99h2.98047c46.4697 0 99.1797 25.9805 144.069 64.4004v378.36
c0 4.96973 3.30957 8.2793 8.2793 8.2793z" />
    <glyph glyph-name="udieresisacute" unicode="&#x1d8;" 
d="M240.8 738.39l72.9512 156.031c2.66016 5.30957 6.29004 8.63965 13.9502 8.63965h49.29c5 0 8 -4.33008 5.66992 -9.33008l-86.4902 -155.69c-3.32031 -6 -5.98047 -7.98047 -12.6104 -7.98047h-38.4404c-4.32031 0 -6.65039 4 -4.32031 8.33008zM155.311 677.851
h61.4697c5.63965 0 8.94922 -3.30957 8.94922 -8.94922v-73.0303c0 -5.63965 -3.30957 -8.94922 -8.94922 -8.94922h-61.4697c-5.63965 0 -8.94922 3.30957 -8.94922 8.94922v73.0303c0 5.63965 3.30957 8.94922 8.94922 8.94922zM309.271 677.851h61.4805
c5.62988 0 8.93945 -3.30957 8.93945 -8.94922v-73.0303c0 -5.63965 -3.30957 -8.94922 -8.93945 -8.94922h-61.4805c-5.62988 0 -8.93945 3.30957 -8.93945 8.94922v73.0303c0 5.63965 3.30957 8.94922 8.93945 8.94922zM397.611 500.001h57.873
c4.96973 0 8.2793 -3.30957 8.2793 -8.26953v-483.46c0 -4.95996 -3.30957 -8.26953 -8.2793 -8.26953h-51.9805c-4.30957 0 -7.29004 2.65039 -7.94043 6.95996l-3.20996 53.8896c-51.9102 -45.4404 -113.391 -73.8506 -167.69 -73.8506h-6.94043
c-108.53 0 -156.09 64.75 -156.09 177.53v327.2c0 4.95996 3.30957 8.26953 8.26953 8.26953h57.8799c4.95996 0 8.26953 -3.30957 8.26953 -8.26953v-314.78c0 -81.71 25.1104 -127.99 106.24 -127.99h2.98047c46.4697 0 99.1797 25.9805 144.069 64.4004v378.36
c0 4.96973 3.30957 8.2793 8.26953 8.2793z" />
    <glyph glyph-name="udieresiscaron" unicode="&#x1da;" 
d="M335.74 903.06h44.0508c5 0 8.66992 -4.32031 5.66992 -9.32031l-93.2197 -155.69c-3.32031 -6 -5.98047 -7.98047 -12.6104 -7.98047h-33.2002c-6.63965 0 -9.29004 1.98047 -12.6201 7.98047l-93.2197 155.69c-3 5 0.679688 9.32031 5.67969 9.32031h44.0498
c7.66016 0 11.29 -3.32031 13.9502 -8.62988l58.7598 -114.85l58.7695 114.85c2.65039 5.30957 6.29004 8.62988 13.9404 8.62988zM155.311 677.85h61.4805c5.62988 0 8.93945 -3.30957 8.93945 -8.93945v-73.04c0 -5.62988 -3.30957 -8.93945 -8.93945 -8.93945h-61.4805
c-5.62988 0 -8.93945 3.30957 -8.93945 8.93945v73.04c0 5.62988 3.30957 8.93945 8.93945 8.93945zM309.281 677.85h61.4697c5.63965 0 8.94922 -3.30957 8.94922 -8.93945v-73.04c0 -5.62988 -3.30957 -8.93945 -8.94922 -8.93945h-61.4697
c-5.63965 0 -8.94922 3.30957 -8.94922 8.93945v73.04c0 5.62988 3.30957 8.93945 8.94922 8.93945zM397.621 500l57.873 0.00976562c4.95996 0 8.26953 -3.30957 8.26953 -8.2793v-483.45c0 -4.96973 -3.30957 -8.2793 -8.26953 -8.2793h-51.9805
c-4.30957 0 -7.29004 2.66016 -7.9502 6.96973l-3.2002 53.8799c-51.9102 -45.4404 -113.4 -73.8408 -167.69 -73.8408h-6.9502c-108.52 0 -156.09 64.7402 -156.09 177.521v327.2c0 4.96973 3.30957 8.2793 8.2793 8.2793h57.8701
c4.96973 0 8.2793 -3.30957 8.2793 -8.2793v-314.78c0 -81.71 25.1104 -127.979 106.23 -127.979h2.98047c46.4697 0 99.1797 25.9697 144.069 64.3896v378.37c0 4.95996 3.30957 8.26953 8.2793 8.26953z" />
    <glyph glyph-name="udieresisgrave" unicode="&#x1dc;" 
d="M213.78 894.43l72.96 -156.041c2.32031 -4.32031 0 -8.32031 -4.33008 -8.32031h-38.4297c-6.63965 0 -9.29004 1.98047 -12.6201 7.98047l-86.4902 155.69c-2.32031 5 0.679688 9.32031 5.67969 9.32031h49.29c7.65039 0 11.29 -3.32031 13.9404 -8.62988z
M155.311 677.849h61.4697c5.63965 0 8.94922 -3.30957 8.94922 -8.93945v-73.04c0 -5.62988 -3.30957 -8.93945 -8.94922 -8.93945h-61.4697c-5.63965 0 -8.94922 3.30957 -8.94922 8.93945v73.04c0 5.62988 3.30957 8.93945 8.94922 8.93945zM309.271 677.849h61.4805
c5.62988 0 8.93945 -3.30957 8.93945 -8.93945v-73.04c0 -5.62988 -3.30957 -8.93945 -8.93945 -8.93945h-61.4805c-5.62988 0 -8.93945 3.30957 -8.93945 8.93945v73.04c0 5.62988 3.30957 8.93945 8.93945 8.93945zM397.611 499.999l57.873 0.00976562
c4.96973 0 8.2793 -3.30957 8.2793 -8.2793v-483.45c0 -4.96973 -3.30957 -8.2793 -8.2793 -8.2793h-51.9805c-4.30957 0 -7.29004 2.66016 -7.94043 6.96973l-3.20996 53.8799c-51.9102 -45.4404 -113.391 -73.8408 -167.69 -73.8408h-6.94043
c-108.53 0 -156.09 64.7402 -156.09 177.521v327.2c0 4.96973 3.30957 8.2793 8.26953 8.2793h57.8799c4.95996 0 8.26953 -3.30957 8.26953 -8.2793v-314.78c0 -81.71 25.1104 -127.979 106.24 -127.979h2.98047c46.4697 0 99.1797 25.9697 144.069 64.3896v378.37
c0 4.95996 3.30957 8.26953 8.26953 8.26953z" />
    <glyph glyph-name="udieresismacron" unicode="&#x1d6;" 
d="M141.81 796.39h242.45c4.96973 0 8.2793 -3.30957 8.2793 -8.26953v-39.8604c0 -4.95996 -3.30957 -8.26953 -8.2793 -8.26953h-242.45c-4.96973 0 -8.2793 3.30957 -8.2793 8.26953v39.8604c0 4.95996 3.30957 8.26953 8.2793 8.26953zM155.319 677.85h61.4697
c5.63965 0 8.94922 -3.30957 8.94922 -8.94922v-73.0303c0 -5.63965 -3.30957 -8.94922 -8.94922 -8.94922h-61.4697c-5.63965 0 -8.94922 3.30957 -8.94922 8.94922v73.0303c0 5.63965 3.30957 8.94922 8.94922 8.94922zM309.279 677.85h61.4805
c5.62988 0 8.93945 -3.30957 8.93945 -8.94922v-73.0303c0 -5.63965 -3.30957 -8.94922 -8.93945 -8.94922h-61.4805c-5.62988 0 -8.93945 3.30957 -8.93945 8.94922v73.0303c0 5.63965 3.30957 8.94922 8.93945 8.94922zM397.62 500h57.873
c4.96973 0 8.2793 -3.30957 8.2793 -8.26953v-483.46c0 -4.95996 -3.30957 -8.26953 -8.2793 -8.26953h-51.9805c-4.30957 0 -7.29004 2.65039 -7.94043 6.95996l-3.20996 53.8896c-51.9102 -45.4404 -113.391 -73.8506 -167.69 -73.8506h-6.94043
c-108.53 0 -156.09 64.75 -156.09 177.53v327.2c0 4.95996 3.30957 8.26953 8.26953 8.26953h57.8799c4.95996 0 8.26953 -3.30957 8.26953 -8.26953v-314.78c0 -81.71 25.1104 -127.99 106.24 -127.99h2.98047c46.4697 0 99.1797 25.9805 144.069 64.4004v378.36
c0 4.96973 3.30957 8.2793 8.26953 8.2793z" />
    <glyph glyph-name="ugrave" unicode="&#xf9;" 
d="M213.28 741.19l72.96 -156.031c2.32031 -4.33008 0 -8.33008 -4.33008 -8.33008h-38.4297c-6.63965 0 -9.29004 1.98047 -12.6201 7.98047l-86.4902 155.69c-2.32031 5 0.679688 9.33008 5.67969 9.33008h49.29c7.65039 0 11.29 -3.33008 13.9404 -8.63965z
M397.61 499.999h57.873c4.95996 0 8.26953 -3.30957 8.26953 -8.26953v-483.46c0 -4.95996 -3.30957 -8.26953 -8.26953 -8.26953h-51.9805c-4.30957 0 -7.29004 2.65039 -7.9502 6.95996l-3.2002 53.8896c-51.9102 -45.4404 -113.4 -73.8506 -167.69 -73.8506h-6.9502
c-108.52 0 -156.09 64.75 -156.09 177.53v327.2c0 4.95996 3.30957 8.26953 8.2793 8.26953h57.8701c4.96973 0 8.2793 -3.30957 8.2793 -8.26953v-314.78c0 -81.71 25.1104 -127.99 106.23 -127.99h2.98047c46.4697 0 99.1797 25.9805 144.069 64.4004v378.36
c0 4.96973 3.30957 8.2793 8.2793 8.2793z" />
    <glyph glyph-name="uhungarumlaut" unicode="&#x171;" 
d="M305.19 585.16l72.9512 156.031c2.66016 5.30957 6.29004 8.63965 13.9502 8.63965h44.0498c5 0 8 -4.33008 5.67969 -9.33008l-86.4902 -155.69c-3.33008 -6 -5.98047 -7.98047 -12.6201 -7.98047h-33.2002c-4.32031 0 -6.65039 4 -4.32031 8.33008zM177.241 585.161
l72.9512 156.031c2.66016 5.30957 6.29004 8.63965 13.9502 8.63965h44.0498c5 0 8 -4.33008 5.67969 -9.33008l-86.4902 -155.69c-3.33008 -6 -5.98047 -7.98047 -12.6201 -7.98047h-33.2002c-4.32031 0 -6.65039 4 -4.32031 8.33008zM397.603 500.002h57.873
c4.95996 0 8.26953 -3.30957 8.26953 -8.26953v-483.46c0 -4.95996 -3.30957 -8.26953 -8.26953 -8.26953h-51.9805c-4.30957 0 -7.29004 2.65039 -7.9502 6.95996l-3.2002 53.8896c-51.9102 -45.4404 -113.4 -73.8506 -167.69 -73.8506h-6.9502
c-108.52 0 -156.09 64.75 -156.09 177.53v327.2c0 4.95996 3.30957 8.26953 8.2793 8.26953h57.8701c4.96973 0 8.2793 -3.30957 8.2793 -8.26953v-314.78c0 -81.71 25.1104 -127.99 106.23 -127.99h2.98047c46.4697 0 99.1797 25.9805 144.069 64.4004v378.36
c0 4.96973 3.30957 8.2793 8.2793 8.2793z" />
    <glyph glyph-name="umacron" unicode="&#x16b;" 
d="M141.81 643.32l242.45 0.00878906c4.96973 0 8.2793 -3.30957 8.2793 -8.2793v-39.8496c0 -4.96973 -3.30957 -8.2793 -8.2793 -8.2793l-242.45 0.330078c-4.96973 0 -8.2793 3.30957 -8.2793 8.26953v39.5303c0 4.95996 3.30957 8.26953 8.2793 8.26953zM397.62 499.999
l57.873 0.00976562c4.95996 0 8.26953 -3.30957 8.26953 -8.2793v-483.45c0 -4.96973 -3.30957 -8.2793 -8.26953 -8.2793h-51.9805c-4.30957 0 -7.29004 2.66016 -7.9502 6.96973l-3.2002 53.8799c-51.9102 -45.4404 -113.4 -73.8408 -167.69 -73.8408h-6.9502
c-108.52 0 -156.09 64.7402 -156.09 177.521v327.2c0 4.96973 3.30957 8.2793 8.2793 8.2793h57.8701c4.96973 0 8.2793 -3.30957 8.2793 -8.2793v-314.78c0 -81.71 25.1104 -127.979 106.23 -127.979h2.98047c46.4697 0 99.1797 25.9697 144.069 64.3896v378.37
c0 4.95996 3.30957 8.26953 8.2793 8.26953z" />
    </font>
</defs>
</svg>
