<?xml version="1.0" standalone="no"?>
<!DOCTYPE svg PUBLIC "-//W3C//DTD SVG 1.1//EN" "http://www.w3.org/Graphics/SVG/1.1/DTD/svg11.dtd" >
<svg xmlns="http://www.w3.org/2000/svg" xmlns:xlink="http://www.w3.org/1999/xlink" version="1.1">
<metadata>
Created by FontForge 20160407 at Wed Nov 23 14:10:52 2016
 By Jimmy Warting
Copyright (c) 2015 by Mariya Pigoulevskaya. All rights reserved.
</metadata>
<defs>
<font id="Webnar-BoldItalic" horiz-adv-x="520" >
  <font-face 
    font-family="Webnar Bold"
    font-weight="700"
    font-style="italic"
    font-stretch="normal"
    units-per-em="1000"
    panose-1="0 0 8 0 0 0 0 0 0 0"
    ascent="750"
    descent="-250"
    x-height="500"
    cap-height="700"
    bbox="-100.002 -290.771 1426.44 1130.45"
    underline-thickness="50"
    underline-position="-100"
    stemh="135"
    stemv="160"
    unicode-range="U+0020-FE6B"
  />
<missing-glyph horiz-adv-x="500" 
d="M0 0v700h500v-700h-500zM250 395l170 255h-340zM280 350l170 -255v510zM80 50h340l-170 255zM50 605v-510l170 255z" />
    <glyph glyph-name=".notdef" horiz-adv-x="500" 
d="M0 0v700h500v-700h-500zM250 395l170 255h-340zM280 350l170 -255v510zM80 50h340l-170 255zM50 605v-510l170 255z" />
    <glyph glyph-name="A" unicode="A" horiz-adv-x="655" 
d="M349.35 700l201.051 0.00878906c7.7002 0 13.5 -5.66016 14.5195 -13.3398l66.4004 -671.6c1.75 -11.2803 -7.67969 -15.0703 -13.3896 -15.0703h-128.68c-9.21973 0 -14 7.94043 -14.1504 12.9004l-14.9199 151.01h-205.74l-68.5703 -151.6
c-2.74023 -7.08984 -10.6299 -12.3096 -18.8203 -12.3096h-131.04c-8.45996 0 -13.0498 7.37012 -10.1699 14.7305l304.18 672.52c2.88965 6.5498 10.2197 12.75 19.3301 12.75zM425.9 574.639l-80.4805 -200.82l-34.29 -74.6299h139.91l-6.30957 74.6299l-11.6299 200.82
h-7.2002z" />
    <glyph glyph-name="Aacute" unicode="&#xc1;" horiz-adv-x="655" 
d="M538.02 937.55l97.6787 -0.000976562c9.16016 0 13.3604 -9.11035 7.41016 -16.0801l-121.5 -146.7c-5.69043 -6.66016 -13.4307 -10.2197 -22.2002 -10.2197h-76.2695c-8.08984 0 -12.1396 7.63965 -7.59961 14.3301l97.6797 145.53
c5.73047 8.44043 14.6006 13.1406 24.8008 13.1406zM349.349 699.999l201.051 0.00878906c7.7002 0 13.5098 -5.66016 14.5293 -13.3398l66.4004 -671.6c1.75 -11.2803 -7.67969 -15.0703 -13.3896 -15.0703h-128.68c-9.21973 0 -14 7.94043 -14.1602 12.9004
l-14.9199 151.01h-205.73l-68.5703 -151.6c-2.75 -7.08984 -10.6396 -12.3096 -18.8193 -12.3096h-131.04c-8.46973 0 -13.0596 7.37012 -10.1699 14.7305l304.18 672.52c2.88965 6.5498 10.2197 12.75 19.3193 12.75zM425.899 574.638l-80.4805 -200.82l-34.29 -74.6299
h139.91l-6.30957 74.6299l-11.6299 200.82h-7.2002z" />
    <glyph glyph-name="Abreve" unicode="&#x102;" horiz-adv-x="655" 
d="M616.18 893.26c7.16992 2.74023 13.4688 -2.33984 12.1484 -9.82031l-12.9102 -73.2197c-1.12988 -6.41016 -4.51953 -11.75 -10.0293 -15.2305c-38.0801 -23.8203 -83.7002 -37.7207 -135.34 -37.7207c-55.7402 0 -99.75 15.5801 -126.42 34.6904
c-7.26953 5.23047 -9.97949 13.9805 -8.40918 22.8809l13.0303 73.9102c0.950195 5.37012 6 8 11.04 5.75977c45.2803 -20.5596 75.25 -33.0498 124.02 -33.0498c49.2598 0 84.54 12.75 132.87 31.7998zM349.339 700l201.051 0.00878906
c7.7002 0 13.5 -5.66016 14.5195 -13.3398l66.4004 -671.6c1.75 -11.2803 -7.67969 -15.0703 -13.3896 -15.0703h-128.68c-9.21973 0 -14 7.94043 -14.1504 12.9004l-14.9199 151.01h-205.74l-68.5703 -151.6c-2.74023 -7.08984 -10.6299 -12.3096 -18.8203 -12.3096
h-131.04c-8.45996 0 -13.0498 7.37012 -10.1699 14.7305l304.18 672.52c2.88965 6.5498 10.2197 12.75 19.3301 12.75zM425.88 574.639l-80.4707 -200.82l-34.29 -74.6299h139.9l-6.2998 74.6299l-11.6396 200.82h-7.2002z" />
    <glyph glyph-name="Acaron" unicode="&#x1cd;" horiz-adv-x="655" 
d="M549.17 937.55l84.9385 -0.00195312c9.2002 0 13.4004 -9.15039 7.41016 -16.1201l-125.46 -149.1c-4.34961 -5.07031 -10.25 -7.78027 -16.9297 -7.78027h-71.0303c-6.33984 0 -11.71 3.32031 -14.5498 8.99023l-74.1396 151.48
c-3.16016 6.25 0.700195 12.5303 7.7002 12.5303h88.0498c7.74023 0 14.0098 -4.63965 16.2695 -12.0498l22.7305 -72.5801l50.6602 72.04c5.75 8.11035 14.4102 12.5908 24.3506 12.5908zM349.339 699.998l201.051 0.00976562c7.7002 0 13.5 -5.66016 14.5195 -13.3398
l66.4004 -671.59c1.75 -11.2803 -7.67969 -15.0703 -13.3896 -15.0703h-128.68c-9.21973 0 -14 7.94043 -14.1504 12.9004l-14.9199 151h-205.74l-68.5703 -151.59c-2.74023 -7.08984 -10.6299 -12.3203 -18.8203 -12.3203h-131.04
c-8.45996 0 -13.0498 7.37988 -10.1699 14.7295l304.18 672.53c2.88965 6.54004 10.2197 12.7402 19.3301 12.7402zM425.88 574.647l-80.4707 -200.82l-34.29 -74.6396h139.9l-6.2998 74.6396l-11.6396 200.82h-7.2002z" />
    <glyph glyph-name="Acircumflex" unicode="&#xc2;" horiz-adv-x="655" 
d="M455.17 937.55l66.5801 -0.0117188c9.16016 0 16.9199 -4.76953 21.0498 -12.9492l72.0996 -147.52c3.16016 -6.25 -0.700195 -12.5303 -7.7002 -12.5303h-88.0498c-7.74023 0 -14.0098 4.63965 -16.2695 12.0498l-22.7402 72.5801l-52.7598 -75.0195
c-4.38965 -6.19043 -11 -9.61035 -18.5898 -9.61035h-88.5898c-9.2002 0 -13.4102 9.15039 -7.41992 16.1309l125.47 149.09c4.33984 5.07031 10.2402 7.79004 16.9199 7.79004zM349.35 699.988l201.051 0.00976562c7.7002 0 13.5 -5.66016 14.5195 -13.3398
l66.4004 -671.59c1.75 -11.2803 -7.67969 -15.0703 -13.3896 -15.0703h-128.68c-9.21973 0 -14 7.94043 -14.1504 12.9004l-14.9199 151h-205.74l-68.5703 -151.59c-2.74023 -7.08984 -10.6299 -12.3203 -18.8203 -12.3203h-131.04
c-8.45996 0 -13.0498 7.37988 -10.1699 14.7295l304.18 672.53c2.88965 6.54004 10.2197 12.7402 19.3301 12.7402zM425.891 574.638l-80.4707 -200.82l-34.29 -74.6396h139.9l-6.2998 74.6396l-11.6396 200.82h-7.2002z" />
    <glyph glyph-name="Adieresis" unicode="&#xc4;" horiz-adv-x="655" 
d="M349.45 918.09h96.1201c9.42969 0 15.6797 -7.4502 14.0498 -16.7305l-20.5596 -116.56c-1.86035 -10.54 -10.1807 -17.5205 -20.8809 -17.5205h-96.1201c-9.42969 0 -15.6797 7.4502 -14.0498 16.7305l20.5596 116.56c1.86035 10.54 10.1807 17.5205 20.8809 17.5205z
M533.36 918.09h96.1201c9.42969 0 15.6797 -7.4502 14.0498 -16.7305l-20.5596 -116.56c-1.86035 -10.54 -10.1807 -17.5205 -20.8809 -17.5205h-96.1201c-9.42969 0 -15.6797 7.4502 -14.0498 16.7305l20.5596 116.56c1.86035 10.54 10.1807 17.5205 20.8809 17.5205z
M349.351 700l201.051 0.00878906c7.7002 0 13.5 -5.66016 14.5195 -13.3398l66.4004 -671.6c1.75 -11.2803 -7.67969 -15.0703 -13.3896 -15.0703h-128.68c-9.21973 0 -14 7.94043 -14.1504 12.9004l-14.9199 151.01h-205.74l-68.5703 -151.6
c-2.74023 -7.08984 -10.6299 -12.3096 -18.8203 -12.3096h-131.04c-8.45996 0 -13.0498 7.37012 -10.1699 14.7305l304.18 672.52c2.88965 6.5498 10.2197 12.75 19.3301 12.75zM425.892 574.639l-80.4707 -200.82l-34.29 -74.6299h139.9l-6.2998 74.6299l-11.6396 200.82
h-7.2002z" />
    <glyph glyph-name="Agrave" unicode="&#xc0;" horiz-adv-x="655" 
d="M342.62 937.55l95.9199 -0.000976562c10.9805 0 19.9209 -6.49023 23.3311 -16.9404l46.3398 -145.47c1.83008 -5.62012 -1.78027 -10.5898 -7.69043 -10.5898h-74.29c-9.20996 0 -17 4.82031 -21.1104 13.0508l-70.2002 147.47
c-3.12988 6.23047 0.719727 12.4805 7.7002 12.4805zM349.36 699.999l201.051 0.00878906c7.7002 0 13.5 -5.66016 14.5195 -13.3398l66.4004 -671.6c1.75 -11.2803 -7.67969 -15.0703 -13.3896 -15.0703h-128.68c-9.21973 0 -14 7.94043 -14.1504 12.9004l-14.9199 151.01
h-205.74l-68.5703 -151.6c-2.74023 -7.08984 -10.6299 -12.3096 -18.8203 -12.3096h-131.04c-8.45996 0 -13.0498 7.37012 -10.1699 14.7305l304.18 672.52c2.88965 6.5498 10.2197 12.75 19.3301 12.75zM425.901 574.638l-80.4707 -200.82l-34.29 -74.6299h139.9
l-6.2998 74.6299l-11.6396 200.82h-7.2002z" />
    <glyph glyph-name="Amacron" unicode="&#x100;" horiz-adv-x="655" 
d="M369.18 872.27h224.22c9.41992 0 15.6797 -7.4502 14.04 -16.7305l-12.4697 -70.75c-1.86035 -10.54 -10.1807 -17.5205 -20.8809 -17.5205h-224.22c-9.41992 0 -15.6797 7.45996 -14.04 16.7402l12.4697 70.7402c1.86035 10.54 10.1807 17.5205 20.8809 17.5205z
M349.35 700l201.051 0.00878906c7.7002 0 13.5 -5.66016 14.5195 -13.3398l66.4004 -671.6c1.75 -11.2803 -7.67969 -15.0703 -13.3896 -15.0703h-128.68c-9.21973 0 -14 7.94043 -14.1504 12.9004l-14.9199 151.01h-205.74l-68.5703 -151.6
c-2.74023 -7.08984 -10.6299 -12.3096 -18.8203 -12.3096h-131.04c-8.45996 0 -13.0498 7.37012 -10.1699 14.7305l304.18 672.52c2.88965 6.5498 10.2197 12.75 19.3301 12.75zM425.891 574.639l-80.4707 -200.82l-34.29 -74.6299h139.9l-6.2998 74.6299l-11.6396 200.82
h-7.2002z" />
    <glyph glyph-name="Aogonek" unicode="&#x104;" horiz-adv-x="655" 
d="M564.92 686.66l66.4004 -671.579c1.75 -11.2803 -7.67969 -15.0703 -13.3896 -15.0703h-0.0498047h0.0498047c-32.5303 -28.1904 -80.54 -59.9805 -87.0801 -99.5107c-4.46973 -23.9297 8.62012 -38.9492 33.8301 -38.9492c5.15039 0 10.0605 0.610352 17.291 1.9707
c6.2998 1.00977 11.04 -3.39062 9.95996 -9.51074l-7.41992 -42.0703c-1.25 -7.08984 -5.28027 -13.0303 -11.8301 -16.0303c-16.8799 -7.37012 -34.6797 -10.9102 -52.7295 -10.9102c-58.6104 0 -95.6807 38.6104 -83.3203 97.5
c7.87988 37.1396 34.7402 77.7295 97.8506 117.499h-45.2305c-9.21973 0 -14 7.94043 -14.1504 12.9004l-14.9199 151.01h-205.74l-68.5703 -151.6c-2.74023 -7.08984 -10.6299 -12.3096 -18.8203 -12.3096h-131.04c-8.45996 0 -13.0498 7.37012 -10.1699 14.7305
l304.18 672.52c2.88965 6.5498 10.2197 12.75 19.3301 12.75h201.05c7.7002 0 13.5 -5.66016 14.5195 -13.3398zM451.03 299.191l-6.30957 74.6396l-11.6299 200.82h-7.2002l-80.4805 -200.82l-34.29 -74.6396h139.91z" />
    <glyph glyph-name="Aring" unicode="&#xc5;" horiz-adv-x="655" 
d="M483.82 940.09c57.9902 0 97.5195 -49.0283 87.21 -107.528c-8.51953 -48.3203 -54.1094 -86.1904 -102.479 -86.1904c-59 0 -98.3096 49.2197 -87.8496 108.529c8.30957 47.1396 53.5693 85.1895 103.119 85.1895zM481.749 873.102
c-17.0596 0 -32.6309 -13.1592 -35.5107 -29.499c-2.84961 -16.2002 7.61035 -30.2305 24.3701 -30.2305c17.0596 0 32.0098 14.3398 34.9297 30.8594c2.82031 16.0303 -7.0293 28.8701 -23.7891 28.8701zM349.338 700.013l201.051 0.00878906
c7.7002 0 13.5098 -5.66016 14.5293 -13.3398l66.4004 -671.6c1.75 -11.2803 -7.67969 -15.0703 -13.3896 -15.0703h-128.68c-9.21973 0 -14 7.94043 -14.1602 12.9004l-14.9199 151.01h-205.73l-68.5703 -151.6c-2.75 -7.08984 -10.6396 -12.3096 -18.8193 -12.3096
h-131.04c-8.46973 0 -13.0596 7.37012 -10.1699 14.7305l304.18 672.52c2.88965 6.5498 10.2197 12.75 19.3193 12.75zM425.889 574.651l-80.4805 -200.82l-34.29 -74.6299h139.91l-6.30957 74.6299l-11.6299 200.82h-7.2002z" />
    <glyph glyph-name="Atilde" unicode="&#xc3;" horiz-adv-x="655" 
d="M588.34 889.13l40.5703 -0.000976562c7.19043 0 10.9502 -6.84961 7.32031 -13.5098c-51.4697 -94.25 -83.6797 -121.07 -128.83 -121.07h-4c-45.6904 -0.00976562 -45.3408 39.6299 -81.4609 39.6299c-16.7002 0 -26.5 -8.74023 -39.9805 -22.9199
c-4.29004 -4.33008 -9.62012 -6.46973 -15.54 -6.46973h-40.3896c-7.2002 0 -10.9502 6.84961 -7.33008 13.5098c51.4805 94.2402 83.6904 121.07 128.841 121.07h4c46.5801 -0.00976562 49.5 -39.6396 81.4502 -39.6396c14.6699 0 25.8604 8.25 39.9199 23
c4.29004 4.24023 9.54004 6.40039 15.4297 6.40039zM349.351 699.999l201.051 0.00878906c7.7002 0 13.5098 -5.66016 14.5293 -13.3398l66.4004 -671.6c1.75 -11.2803 -7.67969 -15.0703 -13.3896 -15.0703h-128.68c-9.21973 0 -14 7.94043 -14.1602 12.9004
l-14.9199 151.01h-205.73l-68.5703 -151.6c-2.75 -7.08984 -10.6396 -12.3096 -18.8193 -12.3096h-131.04c-8.46973 0 -13.0596 7.37012 -10.1699 14.7305l304.18 672.52c2.88965 6.5498 10.2197 12.75 19.3193 12.75zM425.901 574.638l-80.4805 -200.82l-34.29 -74.6299
h139.91l-6.30957 74.6299l-11.6299 200.82h-7.2002z" />
    <glyph glyph-name="AE" unicode="&#xc6;" horiz-adv-x="811" 
d="M349.35 700l538.43 0.00878906c9.42969 0 15.6797 -7.4502 14.0498 -16.7305l-18.9697 -107.56c-1.16016 -6.61035 -6.37988 -10.9805 -13.0801 -10.9805h-283.77l-24.8301 -140.82h249.73c9.42969 0 15.6797 -7.45996 14.0498 -16.7402l-18.9697 -107.56
c-1.16016 -6.59961 -6.37988 -10.9795 -13.0801 -10.9795h-255.58l-27.04 -153.36h277.91c9.42969 0 15.6797 -7.45996 14.0498 -16.7402l-18.9697 -107.56c-1.16016 -6.59961 -6.37988 -10.9795 -13.0801 -10.9795h-422.68c-9.41992 0 -15.6797 7.45996 -14.04 16.7402
l25.9502 147.17h-104.99l-68.5703 -151.6c-2.74023 -7.08984 -10.6299 -12.3096 -18.8203 -12.3096h-131.04c-8.45996 0 -13.0498 7.37012 -10.1699 14.7305l304.18 672.52c2.88965 6.5498 10.2197 12.75 19.3301 12.75zM431.85 574.648h-5.9502l-80.4805 -200.82
l-34.29 -74.6396h72.1504z" />
    <glyph glyph-name="B" unicode="B" horiz-adv-x="604" 
d="M200.6 700l243.02 -0.000976562c135.36 0 228.221 -52.8604 203.631 -192.311l-1.53027 -8.63965c-10.6396 -60.3496 -46.7197 -107.85 -110.25 -142.029c58.3096 -27.0098 86.46 -86.75 73.2002 -161.97l-1.62012 -9.17969
c-24.1602 -137 -124.96 -185.87 -261.24 -185.87h-269.72c-9.42969 -0 -15.6797 7.45996 -14.0498 16.7402l117.34 665.45c1.88965 10.71 10.3398 17.8096 21.2197 17.8096zM314.579 564.729l-27.3604 -155.181h97.9404c62.7305 0 94.4502 31.6104 102.4 76.7002
l0.55957 3.17969c8.42969 47.8203 -11.6602 75.3008 -73.4805 75.3008h-100.06zM267.259 296.369l-28.3896 -161.09h115.12c57 0 89.3096 29.25 97.7393 77.0703l0.650391 3.71973c8.26953 46.9102 -12.5107 80.2998 -72.7803 80.2998h-112.34z" />
    <glyph glyph-name="uni0243" unicode="&#x243;" horiz-adv-x="636" 
d="M232.38 700l243.019 -0.00195312c135.36 0 228.221 -52.8604 203.631 -192.311l-1.53027 -8.63965c-10.6396 -60.3496 -46.7197 -107.85 -110.25 -142.029c58.3096 -27.0098 86.46 -86.75 73.2002 -161.97l-1.62012 -9.17969
c-24.1602 -137 -124.96 -185.87 -261.24 -185.87h-269.72c-9.42969 0 -15.6797 7.45996 -14.0498 16.7402l29.7402 168.62h-50.2402c-9.42969 0 -15.6797 7.45996 -14.0498 16.7402l4.96973 28.2002c1.86035 10.54 10.1807 17.5205 20.8809 17.5205h49.4502l76.5898 434.37
c1.88965 10.71 10.3398 17.8096 21.2197 17.8096zM519.339 486.248l0.569336 3.17871c8.42969 47.8203 -11.6602 75.3008 -73.4805 75.3008h-100.06l-27.3701 -155.18h97.9404c62.7305 0 94.4502 31.6104 102.4 76.7002zM483.508 212.337l0.661133 3.73047
c8.26953 46.9102 -12.5107 80.29 -72.7803 80.29h-112.34l-8.55957 -48.5498h98.04c9.42969 0 15.6797 -7.4502 14.0498 -16.7305l-4.96973 -28.2002c-1.86035 -10.54 -10.1807 -17.5205 -20.8809 -17.5205h-97.25l-8.83008 -50.0898h115.12
c57 0 89.3096 29.25 97.7393 77.0703z" />
    <glyph glyph-name="C" unicode="C" horiz-adv-x="565" 
d="M473.45 713l14.1123 0.0117188c59.2695 0.00976562 112.14 -12.4404 150.33 -30.5508c10.0996 -4.59961 14.8301 -15.1191 12.8799 -26.1592l-17.6904 -100.23c-1.70996 -9.70996 -10.8701 -14.4102 -20.1006 -10.3799
c-47.9199 21.8398 -78.6602 32.0498 -128.22 32.0498h-4.73047c-98.6299 0 -178.77 -67.9805 -199.1 -183.25l-15.7598 -89.3799c-20.3203 -115.28 35.5898 -182.94 134.229 -182.94h4.71973c49.9102 0 84.4004 10.4697 140.86 32.6797
c8.96973 3.41992 16.8799 -2.79004 15.2598 -12.0205l-17.54 -99.4697c-2.04004 -11.5703 -8.99023 -20.9199 -19.7705 -25.4395c-43.0703 -18.4805 -93.96 -31.0205 -153.97 -31.0205h-14.0898c-156.87 0.0498047 -284.24 113.85 -248.311 324.029l15.1797 89.8604
c34.2998 202 193.33 312.21 351.71 312.21z" />
    <glyph glyph-name="Cacute" unicode="&#x106;" horiz-adv-x="565" 
d="M553.87 937.55l97.6689 -0.000976562c9.16992 0 13.3701 -9.11035 7.41992 -16.0801l-121.5 -146.7c-5.7002 -6.66016 -13.4404 -10.2197 -22.2002 -10.2197h-76.2695c-8.08984 0 -12.1396 7.63965 -7.59961 14.3301l97.6699 145.53
c5.74023 8.44043 14.6104 13.1406 24.8105 13.1406zM473.449 712.999l14.1123 0.0214844c59.2695 0 112.14 -12.4502 150.33 -30.5605c10.0996 -4.59961 14.8301 -15.1191 12.8799 -26.1592l-17.6904 -100.23c-1.70996 -9.70996 -10.8701 -14.4102 -20.1006 -10.3799
c-47.9199 21.8398 -78.6602 32.0498 -128.22 32.0498h-4.73047c-98.6299 0 -178.77 -67.9805 -199.1 -183.25l-15.7598 -89.3799c-20.3203 -115.28 35.5898 -182.94 134.229 -182.94h4.71973c49.9102 0 84.4004 10.4697 140.86 32.6797
c8.96973 3.41992 16.8799 -2.79004 15.2598 -12.0205l-17.54 -99.4697c-2.04004 -11.5703 -8.99023 -20.9199 -19.7705 -25.4395c-43.0703 -18.4805 -93.96 -31.0205 -153.97 -31.0205h-14.0898c-156.87 0.0498047 -284.24 113.85 -248.311 324.029l15.1797 89.8604
c34.2998 202 193.33 312.21 351.71 312.21z" />
    <glyph glyph-name="Ccaron" unicode="&#x10c;" horiz-adv-x="565" 
d="M583.19 937.55l84.9385 -0.00195312c9.2002 0 13.4004 -9.15039 7.41016 -16.1201l-125.46 -149.1c-4.34961 -5.07031 -10.25 -7.78027 -16.9297 -7.78027h-71.0303c-6.33984 0 -11.71 3.32031 -14.5498 8.99023l-74.1396 151.48
c-3.16016 6.25 0.700195 12.5303 7.7002 12.5303h88.0498c7.74023 0 14.0098 -4.63965 16.2695 -12.0498l22.7305 -72.5801l50.6602 72.04c5.75 8.11035 14.4102 12.5908 24.3506 12.5908zM473.438 712.998l14.1123 0.0195312c59.2695 0 112.14 -12.4502 150.33 -30.5498
c10.0996 -4.61035 14.8301 -15.1201 12.8799 -26.1602l-17.6904 -100.23c-1.70996 -9.70996 -10.8701 -14.4102 -20.1006 -10.3799c-47.9199 21.8398 -78.6602 32.04 -128.22 32.04h-4.73047c-98.6299 0 -178.77 -67.9697 -199.1 -183.25l-15.7598 -89.3799
c-20.3203 -115.27 35.5898 -182.93 134.229 -182.93h4.71973c49.9102 0 84.4004 10.46 140.86 32.6699c8.96973 3.41992 16.8799 -2.79004 15.2598 -12.0205l-17.54 -99.4697c-2.04004 -11.5596 -8.99023 -20.9092 -19.7705 -25.4287
c-43.0703 -18.4805 -93.96 -31.0303 -153.97 -31.0303h-14.0898c-156.87 0.0595703 -284.24 113.85 -248.311 324.029l15.1797 89.8701c34.2998 202 193.33 312.2 351.71 312.2z" />
    <glyph glyph-name="Ccedilla" unicode="&#xc7;" horiz-adv-x="565" 
d="M637.87 682.44c10.1104 -4.59961 14.8398 -15.0996 12.8896 -26.1396l-17.6904 -100.23c-1.71973 -9.70996 -10.8799 -14.4102 -20.1104 -10.3799c-47.9102 21.8398 -78.6504 32.0498 -128.221 32.0498h-4.71973c-98.6396 0 -178.779 -67.9805 -199.1 -183.25
l-15.7598 -89.3799c-20.3301 -115.28 35.5898 -182.94 134.22 -182.94h4.73047c49.9004 0 84.4004 10.4697 140.851 32.6797c8.98047 3.41992 16.8906 -2.79004 15.2607 -12.0205l-17.54 -99.4697c-2.04004 -11.5703 -8.99023 -20.9199 -19.7598 -25.4395
c-43.0703 -18.4805 -93.9707 -31.0205 -153.98 -31.0205h-1.99023l-12.9697 -34.4004c2.84961 0.650391 9.5 1.23047 13.96 1.23047c41.9502 0 74.1006 -35.2197 64.4209 -90.0801c-9.08008 -51.5098 -53.4102 -78.6494 -115.601 -78.6494
c-29.5098 0 -58.2295 6.16016 -79.7695 15.8701c-6.90039 3.16016 -10.0605 10.3799 -8.60059 17.8701l4.66992 24.7998c0.990234 5.16992 5.64062 7.70996 10.5811 6.0498c14.2197 -4.63965 33.7998 -9.30957 55.5 -9.30957c27.4297 0 42.9102 9.61035 46.0303 27.3203
c2.7998 15.8398 -6.95996 25.1299 -28.71 25.1299c-9.16992 0 -20.0703 -1.83008 -37.79 -7.67969c-2.08984 -0.69043 -4.16992 -0.580078 -6.08008 0.360352l-8.83984 4.23047c-2.41992 1.13965 -3.4502 3.68945 -2.5 6.20898l36.5596 96.3398
c-129.04 24.6504 -222.7 134.771 -191.25 318.74l15.1797 89.8604c34.2998 202 193.33 312.21 351.71 312.21h14.0898c59.2695 0 112.149 -12.4502 150.329 -30.5605z" />
    <glyph glyph-name="Cdotaccent" unicode="&#x10a;" horiz-adv-x="565" 
d="M462.41 918.09h117.4c9.41992 0 15.6797 -7.4502 14.04 -16.7305l-20.5498 -116.56c-1.86035 -10.54 -10.1807 -17.5205 -20.8809 -17.5205h-117.4c-9.41992 0 -15.6797 7.4502 -14.04 16.7305l20.5498 116.56c1.86035 10.54 10.1807 17.5205 20.8809 17.5205z
M473.45 713l14.1006 0.0214844c59.2695 0 112.149 -12.4502 150.329 -30.5605c10.1104 -4.59961 14.8408 -15.1191 12.8906 -26.1592l-17.6904 -100.23c-1.71973 -9.70996 -10.8799 -14.4102 -20.1104 -10.3799c-47.9102 21.8398 -78.6504 32.0498 -128.221 32.0498
h-4.71973c-98.6396 0 -178.779 -67.9805 -199.1 -183.25l-15.7598 -89.3799c-20.3301 -115.28 35.5898 -182.94 134.22 -182.94h4.73047c49.9004 0 84.4004 10.4697 140.851 32.6797c8.98047 3.41992 16.8906 -2.79004 15.2607 -12.0205l-17.54 -99.4697
c-2.04004 -11.5703 -8.99023 -20.9199 -19.7598 -25.4395c-43.0703 -18.4805 -93.9707 -31.0205 -153.98 -31.0205h-14.0898c-156.86 0.0498047 -284.23 113.85 -248.301 324.029l15.1797 89.8604c34.29 202 193.32 312.21 351.71 312.21z" />
    <glyph glyph-name="D" unicode="D" horiz-adv-x="648" 
d="M200.31 700h232.489c155 0 269.57 -101.41 232.94 -309.13l-16.3896 -92.9102c-36.6299 -207.73 -175.54 -297.961 -330.54 -297.961h-242.73c-9.41992 0 -15.6797 7.4502 -14.04 16.7305l117.39 665.75c1.86035 10.54 10.1807 17.5205 20.8809 17.5205zM492.869 303.97
l16.2891 92.3604c20.3301 115.28 -16.5195 168.391 -114.34 168.391h-80.2402l-75.7305 -429.45h79.9404c97.8203 0 153.761 53.4297 174.081 168.699z" />
    <glyph glyph-name="Eth" unicode="&#xd0;" horiz-adv-x="648" 
d="M200.31 700l232.487 -0.000976562c155 0 269.57 -101.4 232.94 -309.131l-16.3896 -92.9102c-36.6299 -207.72 -175.54 -297.96 -330.54 -297.96h-242.73c-9.41992 0 -15.6797 7.45996 -14.04 16.7402l44.2402 250.9h-18.46c-9.42969 0 -15.6797 7.4502 -14.0498 16.7305
l14.21 80.5596c1.86035 10.54 10.1807 17.5205 20.8809 17.5205h17.6602l52.9102 300.03c1.86035 10.54 10.1807 17.5205 20.8809 17.5205zM492.867 303.979l16.2891 92.3613c20.3301 115.27 -16.5195 168.39 -114.34 168.39h-80.2402l-32.1396 -182.28h103.64
c9.41992 0 15.6797 -7.4502 14.04 -16.7305l-14.2002 -80.5596c-1.86035 -10.54 -10.1807 -17.5205 -20.8809 -17.5205h-102.85l-23.3398 -132.37h79.9404c97.8203 0 153.761 53.4297 174.081 168.71z" />
    <glyph glyph-name="Dcaron" unicode="&#x10e;" horiz-adv-x="648" 
d="M480.16 937.55l84.9385 -0.00195312c9.2002 0 13.4004 -9.15039 7.41016 -16.1201l-125.46 -149.1c-4.34961 -5.07031 -10.25 -7.78027 -16.9297 -7.78027h-71.0303c-6.33984 0 -11.71 3.32031 -14.5498 8.99023l-74.1396 151.48
c-3.16016 6.25 0.700195 12.5303 7.7002 12.5303h88.0498c7.74023 0 14.0098 -4.63965 16.2695 -12.0498l22.7305 -72.5801l50.6602 72.04c5.75 8.11035 14.4102 12.5908 24.3506 12.5908zM200.299 699.998h232.489c155 0 269.57 -101.4 232.94 -309.131l-16.3896 -92.9102
c-36.6299 -207.72 -175.54 -297.96 -330.54 -297.96h-242.73c-9.41992 0 -15.6797 7.45996 -14.04 16.7402l117.39 665.74c1.86035 10.54 10.1807 17.5205 20.8809 17.5205zM492.858 303.979l16.2891 92.3604c20.3301 115.27 -16.5195 168.39 -114.34 168.39h-80.2402
l-75.7305 -429.46h79.9404c97.8203 0 153.761 53.4297 174.081 168.71z" />
    <glyph glyph-name="Dcroat" unicode="&#x110;" horiz-adv-x="648" 
d="M200.31 700l232.487 -0.000976562c155 0 269.57 -101.4 232.94 -309.131l-16.3896 -92.9102c-36.6299 -207.72 -175.54 -297.96 -330.54 -297.96h-242.73c-9.41992 0 -15.6797 7.45996 -14.04 16.7402l44.2402 250.9h-18.46c-9.42969 0 -15.6797 7.4502 -14.0498 16.7305
l14.21 80.5596c1.86035 10.54 10.1807 17.5205 20.8809 17.5205h17.6602l52.9102 300.03c1.86035 10.54 10.1807 17.5205 20.8809 17.5205zM492.867 303.979l16.2891 92.3613c20.3301 115.27 -16.5195 168.39 -114.34 168.39h-80.2402l-32.1396 -182.28h103.64
c9.41992 0 15.6797 -7.4502 14.04 -16.7305l-14.2002 -80.5596c-1.86035 -10.54 -10.1807 -17.5205 -20.8809 -17.5205h-102.85l-23.3398 -132.37h79.9404c97.8203 0 153.761 53.4297 174.081 168.71z" />
    <glyph glyph-name="E" unicode="E" horiz-adv-x="539" 
d="M289.75 423.91l249.719 -0.000976562c9.42969 0 15.6797 -7.4502 14.0498 -16.7305l-18.9697 -107.56c-1.16016 -6.61035 -6.37988 -10.9805 -13.0801 -10.9805h-255.58l-27.04 -153.37h277.91c9.42969 0 15.6797 -7.4502 14.0498 -16.7305l-18.9697 -107.56
c-1.16016 -6.61035 -6.37988 -10.9805 -13.0801 -10.9805h-422.68c-9.41992 0 -15.6797 7.4502 -14.04 16.7305l117.39 665.75c1.86035 10.54 10.1807 17.5205 20.8809 17.5205h416.03c9.42969 0 15.6797 -7.45996 14.0498 -16.7402l-18.9697 -107.56
c-1.16016 -6.59961 -6.37988 -10.9795 -13.0801 -10.9795h-283.77z" />
    <glyph glyph-name="Eacute" unicode="&#xc9;" horiz-adv-x="539" 
d="M481.37 937.55l97.6689 -0.000976562c9.16992 0 13.3701 -9.11035 7.41992 -16.0801l-121.5 -146.7c-5.7002 -6.66016 -13.4404 -10.2197 -22.2002 -10.2197h-76.2695c-8.08984 0 -12.1396 7.63965 -7.59961 14.3301l97.6699 145.53
c5.74023 8.44043 14.6104 13.1406 24.8105 13.1406zM200.309 699.999l416.028 0.00976562c9.42969 0 15.6797 -7.45996 14.0498 -16.7402l-18.9697 -107.56c-1.16016 -6.59961 -6.37988 -10.9795 -13.0801 -10.9795h-283.77l-24.8301 -140.82h249.73
c9.42969 0 15.6797 -7.4502 14.0498 -16.7305l-18.9697 -107.56c-1.16016 -6.61035 -6.37988 -10.9805 -13.0801 -10.9805h-255.58l-27.04 -153.37h277.91c9.42969 0 15.6797 -7.4502 14.0498 -16.7305l-18.9697 -107.56
c-1.16016 -6.61035 -6.37988 -10.9805 -13.0801 -10.9805h-422.68c-9.41992 0 -15.6797 7.4502 -14.04 16.7305l117.39 665.75c1.86035 10.54 10.1807 17.5205 20.8809 17.5205z" />
    <glyph glyph-name="Ecaron" unicode="&#x11a;" horiz-adv-x="539" 
d="M499.66 937.55l84.9385 -0.00195312c9.2002 0 13.4004 -9.15039 7.41016 -16.1201l-125.46 -149.1c-4.34961 -5.07031 -10.25 -7.78027 -16.9297 -7.78027h-71.0303c-6.33984 0 -11.71 3.32031 -14.5498 8.99023l-74.1396 151.48
c-3.16016 6.25 0.700195 12.5303 7.7002 12.5303h88.0498c7.74023 0 14.0098 -4.63965 16.2695 -12.0498l22.7305 -72.5801l50.6602 72.04c5.75 8.11035 14.4102 12.5908 24.3506 12.5908zM289.738 423.908l249.729 0.00878906c9.41992 0 15.6797 -7.45996 14.04 -16.7402
l-18.96 -107.56c-1.16992 -6.59961 -6.37988 -10.9795 -13.0898 -10.9795h-255.58l-27.04 -153.36h277.92c9.41992 0 15.6797 -7.45996 14.04 -16.7402l-18.96 -107.56c-1.16992 -6.59961 -6.37988 -10.9795 -13.0898 -10.9795h-422.67
c-9.42969 0 -15.6797 7.45996 -14.0498 16.7402l117.39 665.74c1.86035 10.54 10.1807 17.5205 20.8809 17.5205h416.04c9.41992 0 15.6797 -7.4502 14.04 -16.7305l-18.96 -107.56c-1.16992 -6.61035 -6.37988 -10.9805 -13.0898 -10.9805h-283.76z" />
    <glyph glyph-name="Ecircumflex" unicode="&#xca;" horiz-adv-x="539" 
d="M402.35 937.55l66.5703 -0.0117188c9.16016 0 16.9199 -4.76953 21.0498 -12.9492l72.0996 -147.52c3.16992 -6.25 -0.69043 -12.5303 -7.7002 -12.5303h-88.04c-7.75 0 -14.0195 4.63965 -16.2695 12.0498l-22.7402 72.5801l-52.7695 -75.0195
c-4.37988 -6.19043 -11 -9.61035 -18.5801 -9.61035h-88.5996c-9.2002 0 -13.4004 9.15039 -7.41016 16.1309l125.46 149.09c4.34961 5.07031 10.25 7.79004 16.9297 7.79004zM289.75 423.898l249.719 0.00878906c9.42969 0 15.6797 -7.45996 14.0498 -16.7402
l-18.9697 -107.56c-1.16016 -6.59961 -6.37988 -10.9795 -13.0801 -10.9795h-255.58l-27.04 -153.36h277.91c9.42969 0 15.6797 -7.45996 14.0498 -16.7402l-18.9697 -107.56c-1.16016 -6.59961 -6.37988 -10.9795 -13.0801 -10.9795h-422.68
c-9.41992 0 -15.6797 7.45996 -14.04 16.7402l117.39 665.74c1.86035 10.54 10.1807 17.5205 20.8809 17.5205h416.03c9.42969 0 15.6797 -7.4502 14.0498 -16.7305l-18.9697 -107.56c-1.16016 -6.61035 -6.37988 -10.9805 -13.0801 -10.9805h-283.77z" />
    <glyph glyph-name="Edieresis" unicode="&#xcb;" horiz-adv-x="539" 
d="M295.97 918.09h96.1299c9.41992 0 15.6797 -7.4502 14.04 -16.7305l-20.5498 -116.56c-1.86035 -10.54 -10.1807 -17.5205 -20.8809 -17.5205h-96.1299c-9.41992 0 -15.6797 7.4502 -14.04 16.7305l20.5498 116.56c1.86035 10.54 10.1807 17.5205 20.8809 17.5205z
M479.88 918.09h96.1299c9.41992 0 15.6797 -7.4502 14.04 -16.7305l-20.5498 -116.56c-1.86035 -10.54 -10.1807 -17.5205 -20.8809 -17.5205h-96.1299c-9.41992 0 -15.6797 7.4502 -14.04 16.7305l20.5498 116.56c1.86035 10.54 10.1807 17.5205 20.8809 17.5205z
M289.75 423.91l249.729 -0.000976562c9.41992 0 15.6797 -7.4502 14.04 -16.7305l-18.96 -107.56c-1.16992 -6.61035 -6.37988 -10.9805 -13.0898 -10.9805h-255.58l-27.04 -153.37h277.92c9.41992 0 15.6797 -7.4502 14.04 -16.7305l-18.96 -107.56
c-1.16992 -6.61035 -6.37988 -10.9805 -13.0898 -10.9805h-422.67c-9.42969 0 -15.6797 7.4502 -14.0498 16.7305l117.39 665.75c1.86035 10.54 10.1807 17.5205 20.8809 17.5205h416.04c9.41992 0 15.6797 -7.45996 14.04 -16.7402l-18.96 -107.56
c-1.16992 -6.59961 -6.37988 -10.9795 -13.0898 -10.9795h-283.76z" />
    <glyph glyph-name="Edotaccent" unicode="&#x116;" horiz-adv-x="539" 
d="M378.44 918.09h117.4c9.41992 0 15.6797 -7.4502 14.04 -16.7305l-20.5498 -116.56c-1.86035 -10.54 -10.1807 -17.5205 -20.8809 -17.5205h-117.4c-9.41992 0 -15.6797 7.4502 -14.04 16.7305l20.5498 116.56c1.86035 10.54 10.1807 17.5205 20.8809 17.5205z
M289.751 423.91l249.719 -0.000976562c9.42969 0 15.6797 -7.4502 14.0498 -16.7305l-18.9697 -107.56c-1.16016 -6.61035 -6.37988 -10.9805 -13.0801 -10.9805h-255.58l-27.04 -153.37h277.91c9.42969 0 15.6797 -7.4502 14.0498 -16.7305l-18.9697 -107.56
c-1.16016 -6.61035 -6.37988 -10.9805 -13.0801 -10.9805h-422.68c-9.41992 0 -15.6797 7.4502 -14.04 16.7305l117.39 665.75c1.86035 10.54 10.1807 17.5205 20.8809 17.5205h416.03c9.42969 0 15.6797 -7.45996 14.0498 -16.7402l-18.9697 -107.56
c-1.16016 -6.59961 -6.37988 -10.9795 -13.0801 -10.9795h-283.77z" />
    <glyph glyph-name="Egrave" unicode="&#xc8;" horiz-adv-x="539" 
d="M309.55 937.55l95.9199 -0.000976562c10.9805 0 19.9209 -6.49023 23.3311 -16.9404l46.3398 -145.47c1.83008 -5.62012 -1.78027 -10.5898 -7.69043 -10.5898h-74.29c-9.20996 0 -17 4.82031 -21.1104 13.0508l-70.2002 147.47
c-3.12988 6.23047 0.719727 12.4805 7.7002 12.4805zM289.75 423.909l249.729 -0.000976562c9.41992 0 15.6797 -7.4502 14.04 -16.7305l-18.96 -107.56c-1.16992 -6.61035 -6.37988 -10.9805 -13.0898 -10.9805h-255.58l-27.04 -153.37h277.92
c9.41992 0 15.6797 -7.4502 14.04 -16.7305l-18.96 -107.56c-1.16992 -6.61035 -6.37988 -10.9805 -13.0898 -10.9805h-422.67c-9.42969 0 -15.6797 7.4502 -14.0498 16.7305l117.39 665.75c1.86035 10.54 10.1807 17.5205 20.8809 17.5205h416.04
c9.41992 0 15.6797 -7.45996 14.04 -16.7402l-18.96 -107.56c-1.16992 -6.59961 -6.37988 -10.9795 -13.0898 -10.9795h-283.76z" />
    <glyph glyph-name="Emacron" unicode="&#x112;" horiz-adv-x="539" 
d="M316.4 872.28h224.21c9.42969 0 15.6797 -7.45996 14.0498 -16.7402l-12.4805 -70.7402c-1.86035 -10.54 -10.1807 -17.5205 -20.8809 -17.5205h-224.21c-9.42969 0 -15.6797 7.4502 -14.0498 16.7305l12.4805 70.75c1.86035 10.54 10.1807 17.5205 20.8809 17.5205z
M289.75 423.91l249.719 -0.000976562c9.42969 0 15.6797 -7.4502 14.0498 -16.7305l-18.9697 -107.56c-1.16016 -6.61035 -6.37988 -10.9805 -13.0801 -10.9805h-255.58l-27.04 -153.37h277.91c9.42969 0 15.6797 -7.4502 14.0498 -16.7305l-18.9697 -107.56
c-1.16016 -6.61035 -6.37988 -10.9805 -13.0801 -10.9805h-422.68c-9.41992 0 -15.6797 7.4502 -14.04 16.7305l117.39 665.75c1.86035 10.54 10.1807 17.5205 20.8809 17.5205h416.03c9.42969 0 15.6797 -7.45996 14.0498 -16.7402l-18.9697 -107.56
c-1.16016 -6.59961 -6.37988 -10.9795 -13.0801 -10.9795h-283.77z" />
    <glyph glyph-name="Eogonek" unicode="&#x118;" horiz-adv-x="539" 
d="M200.31 700l416.027 -0.000976562c9.41992 0 15.6797 -7.4502 14.04 -16.7305l-18.96 -107.56c-1.16992 -6.61035 -6.37988 -10.9805 -13.0898 -10.9805h-283.76l-24.8301 -140.82h249.73c9.42969 0 15.6797 -7.4502 14.0498 -16.7305l-18.9697 -107.56
c-1.16016 -6.61035 -6.37988 -10.9805 -13.0801 -10.9805h-255.58l-27.04 -153.37h277.91c9.42969 0 15.6797 -7.4502 14.0498 -16.7305l-18.9697 -107.56c-1.16016 -6.59961 -6.37012 -10.9795 -13.0801 -10.9795c-32.5195 -28.1797 -80.5391 -59.9795 -87.0791 -99.499
c-4.45996 -23.9297 8.62988 -38.9492 33.8398 -38.9492c5.13965 0 10.0596 0.610352 17.29 1.9707c6.29004 1.00977 11.0303 -3.39062 9.9502 -9.51074l-7.41992 -42.0703c-1.25 -7.08984 -5.28027 -13.0303 -11.8301 -16.0303
c-16.8799 -7.37012 -34.6797 -10.9102 -52.7295 -10.9102c-58.5996 0 -95.6797 38.6104 -83.3096 97.5c7.99023 37.6602 35.4902 78.8604 98.0898 117.5h-339.48c-9.41992 0 -15.6797 7.4502 -14.04 16.7305l117.39 665.75c1.86035 10.54 10.1807 17.5205 20.8809 17.5205z
" />
    <glyph glyph-name="F" unicode="F" horiz-adv-x="539" 
d="M200.31 700l416.028 0.00976562c9.42969 0 15.6895 -7.45996 14.0498 -16.7402l-18.96 -107.56c-1.16992 -6.59961 -6.37988 -10.9795 -13.0898 -10.9795h-283.76l-26.4199 -149.82h249.73c9.42969 0 15.6797 -7.4502 14.0498 -16.7305l-18.9697 -107.56
c-1.16016 -6.61035 -6.37988 -10.9805 -13.0801 -10.9805h-255.58l-47.3701 -268.66c-1.16992 -6.61035 -6.37988 -10.9805 -13.0898 -10.9805h-127.77c-9.41992 0 -15.6797 7.4502 -14.04 16.7305l117.39 665.75c1.86035 10.54 10.1807 17.5205 20.8809 17.5205z" />
    <glyph glyph-name="G" unicode="G" horiz-adv-x="632" 
d="M484.82 713h14.0771c60.4805 0 113.78 -13.5195 150.61 -31.5898c9.82031 -4.66016 14.3398 -15.0098 12.4297 -25.8193l-17.5898 -99.71c-1.66992 -9.4502 -10.7002 -14.1006 -19.9697 -10.2705c-58.1299 24.96 -79.3203 32.1104 -128.33 32.1104h-4.73047
c-103.27 0 -190.14 -67.9697 -210.64 -183.25l-15.6104 -89.2695c-20.0898 -114.46 20.4102 -182.94 124.37 -182.94h4.73047c16.1201 0 37.2402 3.95996 51.3906 9.33008l37.0703 209.52c1.86035 10.54 10.1807 17.5205 20.8809 17.5205h121.44
c9.42969 0 15.6797 -7.45996 14.0801 -16.7002l-48.3799 -274.94c-2.62988 -14.9004 -8.92969 -22.2402 -19.6494 -29.2402c-42.2402 -27.2598 -121.891 -50.75 -196.631 -50.75h-14.9102c-163.72 0 -290 121.16 -253.71 323.16l16 90.6299
c35.9297 204.46 200.87 312.21 363.07 312.21z" />
    <glyph glyph-name="Gbreve" unicode="&#x11e;" horiz-adv-x="632" 
d="M648.84 893.26c7.16992 2.74023 13.4785 -2.33984 12.1582 -9.82031l-12.9102 -73.2197c-1.12988 -6.41016 -4.53027 -11.75 -10.04 -15.2305c-38.0703 -23.8203 -83.6904 -37.7207 -135.33 -37.7207c-55.75 0 -99.75 15.5801 -126.42 34.6904
c-7.26953 5.23047 -9.97949 13.9805 -8.40918 22.8809l13.0303 73.9102c0.950195 5.37012 6 8 11.04 5.75977c45.2803 -20.5596 75.2402 -33.0498 124.021 -33.0498c49.25 0 84.5303 12.75 132.86 31.7998zM484.809 713h14.0771c60.4805 0 113.78 -13.5195 150.61 -31.5898
c9.82031 -4.66016 14.3398 -15.0098 12.4297 -25.8193l-17.5898 -99.71c-1.66992 -9.4502 -10.7002 -14.1006 -19.9697 -10.2705c-58.1299 24.96 -79.3203 32.1104 -128.33 32.1104h-4.73047c-103.27 0 -190.14 -67.9697 -210.64 -183.25l-15.6104 -89.2695
c-20.0898 -114.46 20.4102 -182.94 124.37 -182.94h4.73047c16.1201 0 37.2402 3.95996 51.3906 9.33008l37.0703 209.52c1.86035 10.54 10.1807 17.5205 20.8809 17.5205h121.44c9.42969 0 15.6797 -7.45996 14.0801 -16.7002l-48.3799 -274.94
c-2.62988 -14.9004 -8.92969 -22.2402 -19.6494 -29.2402c-42.2402 -27.2598 -121.891 -50.75 -196.631 -50.75h-14.9102c-163.72 0 -290 121.16 -253.71 323.16l16 90.6299c35.9297 204.46 200.87 312.21 363.07 312.21z" />
    <glyph glyph-name="Gcommaaccent" unicode="&#x122;" horiz-adv-x="632" 
d="M484.82 713h14.0771c60.4805 0 113.78 -13.5195 150.61 -31.5898c9.82031 -4.66016 14.3398 -15.0098 12.4297 -25.8193l-17.5898 -99.71c-1.66992 -9.4502 -10.7002 -14.1006 -19.9697 -10.2705c-58.1299 24.96 -79.3203 32.1104 -128.33 32.1104h-4.73047
c-103.27 0 -190.14 -67.9697 -210.64 -183.25l-15.6104 -89.2695c-20.0898 -114.46 20.4102 -182.94 124.37 -182.94h4.73047c16.1201 0 37.2402 3.95996 51.3906 9.33008l37.0703 209.52c1.86035 10.54 10.1807 17.5205 20.8809 17.5205h121.44
c9.42969 0 15.6797 -7.45996 14.0801 -16.7002l-48.3799 -274.94c-2.62988 -14.9004 -8.92969 -22.2402 -19.6494 -29.2402c-42.2402 -27.2598 -121.891 -50.75 -196.631 -50.75h-14.9102c-163.72 0 -290 121.16 -253.71 323.16l16 90.6299
c35.9297 204.46 200.87 312.21 363.07 312.21zM284.558 -49.9199l120.489 -0.000976562c9.26953 0 15.4795 -7.28027 14.0098 -16.4307l-13.8203 -85.96c-1.15039 -7.16992 -3.81055 -13.3604 -8.2002 -19.1299l-80.1396 -110.35
c-4.36035 -5.79004 -10.7207 -8.96973 -17.9902 -8.96973h-67.46c-8.59961 0 -12.7197 8.33008 -7.50977 15.1602l74.6504 103.21h-36.4199c-9.41992 0 -15.6797 7.45996 -14.04 16.7402l15.5498 88.21c1.86035 10.54 10.1807 17.5205 20.8809 17.5205z" />
    <glyph glyph-name="Gdotaccent" unicode="&#x120;" horiz-adv-x="632" 
d="M452.96 918.09h117.39c9.42969 0 15.6797 -7.4502 14.0498 -16.7305l-20.5596 -116.56c-1.86035 -10.54 -10.1807 -17.5205 -20.8809 -17.5205h-117.39c-9.42969 0 -15.6797 7.4502 -14.0498 16.7305l20.5596 116.56c1.86035 10.54 10.1807 17.5205 20.8809 17.5205z
M484.819 713h14.0771c60.4805 0 113.78 -13.5195 150.61 -31.5898c9.82031 -4.66016 14.3398 -15.0098 12.4297 -25.8193l-17.5898 -99.71c-1.66992 -9.4502 -10.7002 -14.1006 -19.9697 -10.2705c-58.1299 24.96 -79.3203 32.1104 -128.33 32.1104h-4.73047
c-103.27 0 -190.14 -67.9697 -210.64 -183.25l-15.6104 -89.2695c-20.0898 -114.46 20.4102 -182.94 124.37 -182.94h4.73047c16.1201 0 37.2402 3.95996 51.3906 9.33008l37.0703 209.52c1.86035 10.54 10.1807 17.5205 20.8809 17.5205h121.44
c9.42969 0 15.6797 -7.45996 14.0801 -16.7002l-48.3799 -274.94c-2.62988 -14.9004 -8.92969 -22.2402 -19.6494 -29.2402c-42.2402 -27.2598 -121.891 -50.75 -196.631 -50.75h-14.9102c-163.72 0 -290 121.16 -253.71 323.16l16 90.6299
c35.9297 204.46 200.87 312.21 363.07 312.21z" />
    <glyph glyph-name="H" unicode="H" horiz-adv-x="676" 
d="M601.85 700l121.128 -0.00195312c9.42969 0 15.6797 -7.4502 14.0498 -16.7305l-118.55 -672.29c-1.16016 -6.59961 -6.37988 -10.9795 -13.0801 -10.9795h-127.77c-9.42969 0 -15.6797 7.45996 -14.0498 16.7402l47.9502 271.9h-245.64l-48.96 -277.66
c-1.16016 -6.61035 -6.37988 -10.9805 -13.0801 -10.9805h-127.77c-9.42969 0 -15.6797 7.4502 -14.0498 16.7305l117.39 665.75c1.86035 10.54 10.1807 17.5205 20.8809 17.5205h121.13c9.41992 0 15.6797 -7.45996 14.04 -16.7402l-45.7305 -259.35h245.64l45.5898 258.57
c1.86035 10.54 10.1807 17.5205 20.8809 17.5205z" />
    <glyph glyph-name="Hbar" unicode="&#x126;" horiz-adv-x="726" 
d="M747.04 599.28l43.7773 0.00976562c9.41992 0 15.6797 -7.45996 14.04 -16.7402l-14.2002 -80.5596c-1.86035 -10.54 -10.1807 -17.5205 -20.8809 -17.5205h-42.9805l-83.4902 -473.48c-1.16992 -6.61035 -6.37988 -10.9805 -13.0898 -10.9805h-127.77
c-9.41992 0 -15.6797 7.4502 -14.04 16.7305l47.9404 271.9h-245.63l-48.96 -277.66c-1.16992 -6.59961 -6.37988 -10.9795 -13.0898 -10.9795h-127.77c-9.41992 -0 -15.6797 7.45996 -14.04 16.7402l82.4697 467.72h-43.2803c-9.42969 0 -15.6797 7.45996 -14.0498 16.7402
l14.21 80.5596c1.86035 10.54 10.1807 17.5205 20.8809 17.5205h42.4902l14.6699 83.2002c1.86035 10.54 10.1807 17.5205 20.8809 17.5205h121.13c9.41992 0 15.6797 -7.45996 14.04 -16.7402l-14.8096 -83.9805h245.64l14.6699 83.2002
c1.86035 10.54 10.1807 17.5205 20.8809 17.5205h121.12c9.42969 0 15.6895 -7.45996 14.0498 -16.7402zM570.888 484.47h-245.64l-10.6699 -60.5498h245.63z" />
    <glyph glyph-name="I" unicode="I" horiz-adv-x="274" 
d="M200.31 700h121.129c9.41992 0 15.6797 -7.45996 14.04 -16.7402l-118.54 -672.28c-1.16992 -6.61035 -6.37988 -10.9805 -13.0898 -10.9805h-127.77c-9.41992 0 -15.6797 7.4502 -14.04 16.7305l117.39 665.75c1.86035 10.54 10.1807 17.5205 20.8809 17.5205z" />
    <glyph glyph-name="IJ" unicode="&#x132;" horiz-adv-x="667" 
d="M589.3 700l125.218 -0.00195312c9.42969 0 15.6895 -7.46973 14.0391 -16.7598l-84.1104 -475.4c-29.1396 -165.46 -129.35 -220.84 -237.109 -220.84h-5c-27.4297 0 -63.2695 6.58984 -92.7598 18.1201c-6.42969 2.36035 -9.75977 8.58008 -8.56934 15.3604
l18.6396 105.73c1.65039 9.37012 10.4502 13.9199 19.6006 10.3799c21.3604 -9.88965 36.6699 -14.3193 51.9697 -14.3193h4.63965c42.7002 0 77.9805 26.25 88.8408 86.1602l83.7305 474.06c1.86035 10.5303 10.1807 17.5107 20.8711 17.5107zM200.317 699.998h121.129
c9.41992 0 15.6797 -7.45996 14.04 -16.7402l-118.54 -672.28c-1.16992 -6.61035 -6.37988 -10.9805 -13.0898 -10.9805h-127.77c-9.41992 0 -15.6797 7.4502 -14.04 16.7305l117.39 665.75c1.86035 10.54 10.1807 17.5205 20.8809 17.5205z" />
    <glyph glyph-name="Iacute" unicode="&#xcd;" horiz-adv-x="274" 
d="M345.71 937.55l97.6787 -0.000976562c9.16016 0 13.3604 -9.11035 7.41016 -16.0801l-121.5 -146.7c-5.69043 -6.66016 -13.4307 -10.2197 -22.2002 -10.2197h-76.2695c-8.08984 0 -12.1396 7.63965 -7.59961 14.3301l97.6797 145.53
c5.73047 8.44043 14.6006 13.1406 24.8008 13.1406zM200.309 699.999h121.129c9.41992 0 15.6797 -7.45996 14.04 -16.7402l-118.54 -672.28c-1.16992 -6.61035 -6.37988 -10.9805 -13.0898 -10.9805h-127.77c-9.41992 0 -15.6797 7.4502 -14.04 16.7305l117.39 665.75
c1.86035 10.54 10.1807 17.5205 20.8809 17.5205z" />
    <glyph glyph-name="Icaron" unicode="&#x1cf;" horiz-adv-x="274" 
d="M363.61 937.55l84.9385 -0.00195312c9.2002 0 13.4004 -9.15039 7.41016 -16.1201l-125.46 -149.1c-4.34961 -5.07031 -10.25 -7.78027 -16.9297 -7.78027h-71.0303c-6.33984 0 -11.71 3.32031 -14.5498 8.99023l-74.1396 151.48
c-3.16016 6.25 0.700195 12.5303 7.7002 12.5303h88.0498c7.74023 0 14.0098 -4.63965 16.2695 -12.0498l22.7305 -72.5801l50.6602 72.04c5.75 8.11035 14.4102 12.5908 24.3506 12.5908zM200.289 699.998l121.129 -0.000976562
c9.42969 0 15.6797 -7.4502 14.0498 -16.7305l-118.55 -672.29c-1.16016 -6.59961 -6.37988 -10.9795 -13.0801 -10.9795h-127.77c-9.42969 0 -15.6797 7.45996 -14.0498 16.7402l117.39 665.74c1.86035 10.54 10.1807 17.5205 20.8809 17.5205z" />
    <glyph glyph-name="Icircumflex" unicode="&#xce;" horiz-adv-x="274" 
d="M265.52 937.55l66.5801 -0.0117188c9.16016 0 16.9199 -4.76953 21.0498 -12.9492l72.0996 -147.52c3.16016 -6.25 -0.700195 -12.5303 -7.7002 -12.5303h-88.0498c-7.74023 0 -14.0098 4.63965 -16.2695 12.0498l-22.7402 72.5801l-52.7598 -75.0195
c-4.38965 -6.19043 -11 -9.61035 -18.5898 -9.61035h-88.5898c-9.2002 0 -13.4102 9.15039 -7.41992 16.1309l125.47 149.09c4.33984 5.07031 10.2402 7.79004 16.9199 7.79004zM200.3 699.988l121.129 -0.000976562c9.42969 0 15.6797 -7.4502 14.0498 -16.7305
l-118.55 -672.29c-1.16016 -6.59961 -6.37988 -10.9795 -13.0801 -10.9795h-127.77c-9.42969 0 -15.6797 7.45996 -14.0498 16.7402l117.39 665.74c1.86035 10.54 10.1807 17.5205 20.8809 17.5205z" />
    <glyph glyph-name="Idieresis" unicode="&#xcf;" horiz-adv-x="274" 
d="M159.81 918.09h96.1299c9.41992 0 15.6797 -7.4502 14.04 -16.7305l-20.5498 -116.56c-1.86035 -10.54 -10.1807 -17.5205 -20.8809 -17.5205h-96.1299c-9.41992 0 -15.6797 7.4502 -14.04 16.7305l20.5498 116.56c1.86035 10.54 10.1807 17.5205 20.8809 17.5205z
M343.72 918.09h96.1299c9.41992 0 15.6797 -7.4502 14.04 -16.7305l-20.5498 -116.56c-1.86035 -10.54 -10.1807 -17.5205 -20.8809 -17.5205h-96.1299c-9.41992 0 -15.6797 7.4502 -14.04 16.7305l20.5498 116.56c1.86035 10.54 10.1807 17.5205 20.8809 17.5205z
M200.31 700h121.129c9.42969 0 15.6797 -7.45996 14.0498 -16.7402l-118.55 -672.28c-1.16016 -6.61035 -6.37988 -10.9805 -13.0801 -10.9805h-127.77c-9.42969 0 -15.6797 7.4502 -14.0498 16.7305l117.39 665.75c1.86035 10.54 10.1807 17.5205 20.8809 17.5205z" />
    <glyph glyph-name="Idotaccent" unicode="&#x130;" horiz-adv-x="274" 
d="M241.14 918.09h117.39c9.42969 0 15.6797 -7.4502 14.0498 -16.7305l-20.5596 -116.56c-1.86035 -10.54 -10.1807 -17.5205 -20.8809 -17.5205h-117.39c-9.42969 0 -15.6797 7.4502 -14.0498 16.7305l20.5596 116.56c1.86035 10.54 10.1807 17.5205 20.8809 17.5205z
M200.31 700h121.129c9.41992 0 15.6797 -7.45996 14.04 -16.7402l-118.54 -672.28c-1.16992 -6.61035 -6.37988 -10.9805 -13.0898 -10.9805h-127.77c-9.41992 0 -15.6797 7.4502 -14.04 16.7305l117.39 665.75c1.86035 10.54 10.1807 17.5205 20.8809 17.5205z" />
    <glyph glyph-name="Igrave" unicode="&#xcc;" horiz-adv-x="274" 
d="M156.32 937.55l95.9189 -0.000976562c10.9902 0 19.9307 -6.49023 23.3311 -16.9404l46.3496 -145.47c1.83008 -5.62012 -1.78027 -10.5898 -7.69043 -10.5898h-74.2998c-9.20996 0 -17 4.82031 -21.0996 13.0508l-70.21 147.47
c-3.12988 6.23047 0.730469 12.4805 7.7002 12.4805zM200.31 699.999h121.129c9.42969 0 15.6797 -7.45996 14.0498 -16.7402l-118.55 -672.28c-1.16016 -6.61035 -6.37988 -10.9805 -13.0801 -10.9805h-127.77c-9.42969 0 -15.6797 7.4502 -14.0498 16.7305l117.39 665.75
c1.86035 10.54 10.1807 17.5205 20.8809 17.5205z" />
    <glyph glyph-name="Imacron" unicode="&#x12a;" horiz-adv-x="274" 
d="M179.64 872.28h224.22c9.41992 0 15.6797 -7.45996 14.04 -16.7402l-12.4697 -70.7402c-1.86035 -10.54 -10.1807 -17.5205 -20.8809 -17.5205h-224.22c-9.41992 0 -15.6797 7.4502 -14.04 16.7305l12.4697 70.75c1.86035 10.54 10.1807 17.5205 20.8809 17.5205z
M200.31 700h121.129c9.41992 0 15.6797 -7.45996 14.04 -16.7402l-118.54 -672.28c-1.16992 -6.61035 -6.37988 -10.9805 -13.0898 -10.9805h-127.77c-9.41992 0 -15.6797 7.4502 -14.04 16.7305l117.39 665.75c1.86035 10.54 10.1807 17.5205 20.8809 17.5205z" />
    <glyph glyph-name="Iogonek" unicode="&#x12e;" horiz-adv-x="274" 
d="M200.31 700l121.117 -0.00195312c9.42969 0 15.6797 -7.4502 14.0498 -16.7305l-118.55 -672.29c-1.16016 -6.59961 -6.37988 -10.9795 -13.0801 -10.9795c-32.5303 -28.1797 -80.54 -59.9795 -87.0801 -99.499c-4.46973 -23.9297 8.62012 -38.9492 33.8301 -38.9492
c5.15039 0 10.0605 0.610352 17.291 1.9707c6.2998 1.00977 11.04 -3.39062 9.95996 -9.51074l-7.41992 -42.0703c-1.25 -7.08984 -5.28027 -13.0303 -11.8301 -16.0303c-16.8799 -7.37012 -34.6797 -10.9102 -52.7295 -10.9102c-58.6104 0 -95.6807 38.6104 -83.3203 97.5
c7.86035 37.0303 34.5908 77.5 97.7812 117.5h-44.25c-9.41992 0 -15.6797 7.4502 -14.04 16.7305l117.39 665.75c1.86035 10.54 10.1807 17.5205 20.8809 17.5205z" />
    <glyph glyph-name="J" unicode="J" horiz-adv-x="393" 
d="M315.68 700l125.209 -0.00195312c9.42969 0 15.6895 -7.46973 14.0498 -16.7598l-84.1104 -475.4c-29.1504 -165.46 -129.36 -220.84 -237.12 -220.84h-5c-27.4199 0 -63.2598 6.58984 -92.75 18.1201c-6.42969 2.36035 -9.76953 8.58008 -8.56934 15.3604
l18.6396 105.73c1.65039 9.37012 10.4404 13.9199 19.6006 10.3799c21.3604 -9.88965 36.6602 -14.3193 51.9697 -14.3193h4.62988c42.7002 0 77.9805 26.25 88.8408 86.1602l83.7402 474.06c1.86035 10.5303 10.1699 17.5107 20.8701 17.5107z" />
    <glyph glyph-name="K" unicode="K" horiz-adv-x="637" 
d="M473.97 355.63l139.439 -341.951c2.70996 -7.15039 -1.83008 -13.7305 -9.48047 -13.7305l-138.32 0.0400391c-12.2402 0.00976562 -22.3301 7 -26.6299 18.4502l-110.98 264.65h-63.0898l-47.9805 -272.11c-1.16016 -6.61035 -6.37988 -10.9805 -13.0801 -10.9805
h-127.77c-9.42969 0 -15.6797 7.4502 -14.0498 16.7305l117.39 665.75c1.86035 10.54 10.1807 17.5205 20.8809 17.5205h121.13c9.41992 0 15.6797 -7.45996 14.04 -16.7402l-46.71 -264.9h57.04l203.4 270.48c5.15039 7.19043 12.8701 11.1602 21.7197 11.1602h139.02
c10.3203 0 15.3604 -9.88965 9.30078 -18.2393z" />
    <glyph glyph-name="Kcommaaccent" unicode="&#x136;" horiz-adv-x="637" 
d="M473.97 355.63l139.439 -341.962c2.70996 -7.13965 -1.83008 -13.7197 -9.48047 -13.7197l-138.32 0.0400391c-12.2402 0.00976562 -22.3301 7 -26.6299 18.4502l-110.98 264.65h-63.0898l-47.9805 -272.11c-1.16016 -6.61035 -6.37988 -10.9805 -13.0801 -10.9805
h-127.77c-9.42969 0 -15.6797 7.4502 -14.0498 16.7305l117.39 665.75c1.86035 10.54 10.1807 17.5205 20.8809 17.5205h121.13c9.41992 0 15.6797 -7.45996 14.04 -16.7402l-46.71 -264.9h57.04l203.4 270.48c5.15039 7.19043 12.8701 11.1602 21.7197 11.1602h139.02
c10.3203 0 15.3604 -9.88965 9.30078 -18.2393zM252.329 -49.9219l120.489 -0.000976562c9.26953 0 15.4795 -7.28027 14.0098 -16.4307l-13.8203 -85.96c-1.15039 -7.16992 -3.81055 -13.3604 -8.2002 -19.1299l-80.1396 -110.35
c-4.36035 -5.79004 -10.7207 -8.96973 -17.9902 -8.96973h-67.46c-8.59961 0 -12.7197 8.33008 -7.50977 15.1602l74.6504 103.21h-36.4199c-9.41992 0 -15.6797 7.45996 -14.04 16.7402l15.5498 88.21c1.86035 10.54 10.1807 17.5205 20.8809 17.5205z" />
    <glyph glyph-name="L" unicode="L" horiz-adv-x="505" 
d="M238.85 135.27h249.73c9.41992 0 15.6797 -7.45996 14.04 -16.7402l-19.04 -107.99c-1.12012 -6.33984 -6.12012 -10.54 -12.5605 -10.54h-394.94c-9.42969 0 -15.6797 7.4502 -14.0498 16.7305l117.39 665.75c1.86035 10.54 10.1807 17.5205 20.8809 17.5205h121.13
c9.41992 0 15.6797 -7.45996 14.04 -16.7402z" />
    <glyph glyph-name="Lacute" unicode="&#x139;" horiz-adv-x="505" 
d="M351.71 937.55l97.6689 -0.000976562c9.16992 0 13.3701 -9.11035 7.41992 -16.0801l-121.5 -146.7c-5.7002 -6.66016 -13.4404 -10.2197 -22.2002 -10.2197h-76.2695c-8.08984 0 -12.1396 7.63965 -7.59961 14.3301l97.6699 145.53
c5.74023 8.44043 14.6104 13.1406 24.8105 13.1406zM238.849 135.269h249.73c9.42969 0 15.6797 -7.45996 14.0498 -16.7402l-19.04 -107.99c-1.12012 -6.33984 -6.12988 -10.54 -12.5703 -10.54h-394.94c-9.41992 0 -15.6797 7.4502 -14.04 16.7305l117.39 665.75
c1.86035 10.54 10.1807 17.5205 20.8809 17.5205h121.12c9.42969 0 15.6797 -7.45996 14.0498 -16.7402z" />
    <glyph glyph-name="Lcaron" unicode="&#x13d;" horiz-adv-x="505" 
d="M456.55 700l120.489 -0.00195312c9.26953 0 15.4795 -7.28027 14.0098 -16.4404l-13.8203 -85.9502c-1.15039 -7.17969 -3.81055 -13.3594 -8.2002 -19.1289l-80.1396 -110.35c-4.36035 -5.7998 -10.7207 -8.97949 -17.9902 -8.97949h-67.46
c-8.59961 0 -12.7197 8.33984 -7.50977 15.1602l74.6504 103.22h-36.4199c-9.41992 0 -15.6797 7.4502 -14.04 16.7305l15.5498 88.2197c1.86035 10.54 10.1807 17.5205 20.8809 17.5205zM238.839 135.268h249.73c9.42969 0 15.6797 -7.45996 14.0498 -16.7402
l-19.04 -107.99c-1.12012 -6.33984 -6.12988 -10.54 -12.5703 -10.54h-394.94c-9.41992 0 -15.6797 7.4502 -14.04 16.7305l117.39 665.75c1.86035 10.54 10.1807 17.5205 20.8809 17.5205h121.12c9.42969 0 15.6797 -7.45996 14.0498 -16.7402z" />
    <glyph glyph-name="Lcommaaccent" unicode="&#x13b;" horiz-adv-x="505" 
d="M238.85 135.27h249.73c9.41992 0 15.6797 -7.45996 14.04 -16.7402l-19.04 -107.99c-1.12012 -6.33984 -6.12012 -10.54 -12.5605 -10.54h-394.94c-9.42969 0 -15.6797 7.4502 -14.0498 16.7305l117.39 665.75c1.86035 10.54 10.1807 17.5205 20.8809 17.5205h121.13
c9.41992 0 15.6797 -7.45996 14.04 -16.7402zM186.83 -49.9209l120.489 -0.000976562c9.26953 0 15.4795 -7.28027 14.0098 -16.4307l-13.8203 -85.96c-1.15039 -7.16992 -3.81055 -13.3604 -8.2002 -19.1299l-80.1396 -110.35
c-4.36035 -5.79004 -10.7207 -8.96973 -17.9902 -8.96973h-67.46c-8.59961 0 -12.7197 8.33008 -7.50977 15.1602l74.6504 103.21h-36.4199c-9.41992 0 -15.6797 7.45996 -14.04 16.7402l15.5498 88.21c1.86035 10.54 10.1807 17.5205 20.8809 17.5205z" />
    <glyph glyph-name="Ldot" unicode="&#x13f;" horiz-adv-x="505" 
d="M238.85 135.27h249.73c9.41992 0 15.6797 -7.45996 14.04 -16.7402l-19.04 -107.99c-1.12012 -6.33984 -6.12012 -10.54 -12.5605 -10.54h-394.94c-9.42969 0 -15.6797 7.4502 -14.0498 16.7305l117.39 665.75c1.86035 10.54 10.1807 17.5205 20.8809 17.5205h121.13
c9.41992 0 15.6797 -7.45996 14.04 -16.7402zM401.85 373.72h117.4c9.41992 0 15.6797 -7.4502 14.04 -16.7305l-20.5498 -116.56c-1.86035 -10.54 -10.1807 -17.5205 -20.8809 -17.5205h-117.4c-9.41992 0 -15.6797 7.4502 -14.04 16.7305l20.5498 116.56
c1.86035 10.54 10.1807 17.5205 20.8809 17.5205z" />
    <glyph glyph-name="Lslash" unicode="&#x141;" horiz-adv-x="568" 
d="M301.82 135.27l249.731 0.000976562c9.41992 0 15.6797 -7.45996 14.04 -16.7402l-19.04 -107.99c-1.12012 -6.33984 -6.12012 -10.54 -12.5605 -10.54h-394.94c-9.42969 0 -15.6797 7.4502 -14.0498 16.7305l35.5596 201.67l-26.2695 -16.2402
c-7.01953 -4.33984 -15.21 -2.17969 -19.1797 5.06055l-40.9697 74.4502c-3.54004 6.45996 -1.62012 13.7402 4.64941 17.6201l107.79 66.6396l55.8096 316.55c1.86035 10.54 10.1807 17.5205 20.8809 17.5205h121.13c9.41992 0 15.6797 -7.4502 14.04 -16.7305
l-36.8701 -209.14l69.8799 43.21c7.01953 4.33008 15.21 2.16992 19.1797 -5.06055l40.9697 -74.46c3.54004 -6.45996 1.62012 -13.7402 -4.64941 -17.6104l-151.4 -93.6104z" />
    <glyph glyph-name="M" unicode="M" horiz-adv-x="814" 
d="M694.09 700l166.421 -0.0117188c9.69043 0 16.1201 -7.66016 14.4404 -17.1904l-118.54 -672.26c-1.12012 -6.33984 -6.12988 -10.54 -12.5703 -10.54h-131.38c-9.92969 0 -16.4893 7.90039 -14.6494 17.6699l59.8096 320.87l50.7695 148.55h-17.9199l-90.5996 -148.54
l-105.99 -149.4c-3.7002 -5.41016 -9.39062 -8.41992 -15.9502 -8.41992h-72.9102c-9.32031 0 -16.8604 5.58008 -19.5801 14.4902l-48.6504 143.32l-41.5195 148.55h-13.9404l-9.92969 -148.6l-53.1201 -327.26c-1.08008 -6.74023 -6.36035 -11.2305 -13.1807 -11.2305
h-131.56c-9.41992 0 -15.6797 7.4502 -14.04 16.7305l117.38 665.73c1.86035 10.5498 10.1904 17.5303 20.9004 17.5303l157.67 -0.110352c9.91992 -0.00976562 17.8398 -6.13965 20.3301 -15.7295l91.8301 -303.97h6.80957l203.03 310.5
c3.63965 5.9502 9.65918 9.32031 16.6396 9.32031z" />
    <glyph glyph-name="N" unicode="N" horiz-adv-x="677" 
d="M598.8 700h128.17c9.42969 0 15.6797 -7.45996 14.0498 -16.7402l-118.55 -672.28c-1.16016 -6.61035 -6.37988 -10.9805 -13.0801 -10.9805h-144.03c-9.17969 0 -16.6699 5.38965 -19.5801 14.0898l-104.72 289.54l-48.9902 156.91h-13.7305l-12.96 -156.85
l-51.0898 -293.12c-1.11035 -6.36035 -6.12012 -10.5703 -12.5801 -10.5703h-128.17c-9.42969 0 -15.6797 7.4502 -14.0498 16.7305l117.39 665.75c1.86035 10.54 10.1807 17.5205 20.8809 17.5205h137.38c9.17969 0 16.6699 -5.38965 19.5898 -14.0898l99.0195 -277.52
l54.6904 -168.94h13.7305l15.0801 168.89l48.9697 281.08c1.11035 6.36035 6.12012 10.5801 12.5801 10.5801z" />
    <glyph glyph-name="Nacute" unicode="&#x143;" horiz-adv-x="677" 
d="M546.48 937.55l97.6787 -0.000976562c9.16016 0 13.3604 -9.11035 7.41016 -16.0801l-121.5 -146.7c-5.69043 -6.66016 -13.4307 -10.2197 -22.2002 -10.2197h-76.2695c-8.08984 0 -12.1396 7.63965 -7.59961 14.3301l97.6797 145.53
c5.73047 8.44043 14.6006 13.1406 24.8008 13.1406zM598.799 699.999l128.17 -0.000976562c9.42969 0 15.6797 -7.4502 14.0498 -16.7305l-118.55 -672.29c-1.16016 -6.59961 -6.37988 -10.9795 -13.0801 -10.9795h-144.03c-9.17969 0 -16.6699 5.38965 -19.5801 14.0898
l-104.72 289.55l-48.9902 156.91h-13.7305l-12.96 -156.85l-51.0898 -293.12c-1.11035 -6.36035 -6.12012 -10.5801 -12.5801 -10.5801h-128.17c-9.42969 0 -15.6797 7.4502 -14.0498 16.7305l117.39 665.75c1.86035 10.54 10.1807 17.5205 20.8809 17.5205h137.38
c9.17969 0 16.6699 -5.38965 19.5898 -14.0898l99.0195 -277.52l54.6904 -168.94h13.7305l15.0801 168.89l48.9697 281.08c1.11035 6.36035 6.12012 10.5801 12.5801 10.5801z" />
    <glyph glyph-name="Ncaron" unicode="&#x147;" horiz-adv-x="677" 
d="M560.73 937.55l84.9385 -0.00195312c9.2002 0 13.4004 -9.15039 7.41016 -16.1201l-125.46 -149.1c-4.34961 -5.07031 -10.25 -7.78027 -16.9297 -7.78027h-71.0303c-6.33984 0 -11.71 3.32031 -14.5498 8.99023l-74.1396 151.48
c-3.16016 6.25 0.700195 12.5303 7.7002 12.5303h88.0498c7.74023 0 14.0098 -4.63965 16.2695 -12.0498l22.7305 -72.5801l50.6602 72.04c5.75 8.11035 14.4102 12.5908 24.3506 12.5908zM598.789 699.998l128.17 0.00878906c9.42969 0 15.6797 -7.45996 14.0498 -16.7402
l-118.55 -672.28c-1.16016 -6.61035 -6.37988 -10.9805 -13.0801 -10.9805h-144.03c-9.17969 0 -16.6699 5.38965 -19.5801 14.0898l-104.72 289.54l-48.9902 156.91h-13.7305l-12.96 -156.85l-51.0898 -293.12c-1.11035 -6.36035 -6.12012 -10.5801 -12.5801 -10.5801
h-128.17c-9.42969 0 -15.6797 7.45996 -14.0498 16.7402l117.39 665.74c1.86035 10.54 10.1807 17.5205 20.8809 17.5205h137.38c9.17969 0 16.6699 -5.38965 19.5898 -14.0898l99.0195 -277.52l54.6904 -168.93h13.7305l15.0801 168.88l48.9697 281.08
c1.11035 6.36035 6.12012 10.5801 12.5801 10.5801z" />
    <glyph glyph-name="Ncommaaccent" unicode="&#x145;" horiz-adv-x="677" 
d="M598.8 700l128.17 -0.000976562c9.42969 0 15.6797 -7.4502 14.0498 -16.7305l-118.55 -672.29c-1.16016 -6.59961 -6.37988 -10.9795 -13.0801 -10.9795h-144.03c-9.17969 0 -16.6699 5.38965 -19.5801 14.0898l-104.72 289.55l-48.9902 156.91h-13.7305l-12.96 -156.85
l-51.0898 -293.12c-1.11035 -6.36035 -6.12012 -10.5801 -12.5801 -10.5801h-128.17c-9.42969 0 -15.6797 7.4502 -14.0498 16.7305l117.39 665.75c1.86035 10.54 10.1807 17.5205 20.8809 17.5205h137.38c9.17969 0 16.6699 -5.38965 19.5898 -14.0898l99.0195 -277.52
l54.6904 -168.94h13.7305l15.0801 168.89l48.9697 281.08c1.11035 6.36035 6.12012 10.5801 12.5801 10.5801zM272.52 -49.9111l120.489 -0.00195312c9.26953 0 15.4795 -7.28027 14.0098 -16.4404l-13.8203 -85.9502c-1.15039 -7.17969 -3.81055 -13.3594 -8.2002 -19.1289
l-80.1396 -110.35c-4.36035 -5.7998 -10.7207 -8.97949 -17.9902 -8.97949h-67.46c-8.59961 0 -12.7197 8.33984 -7.50977 15.1602l74.6504 103.22h-36.4199c-9.41992 0 -15.6797 7.4502 -14.04 16.7305l15.5498 88.2197c1.86035 10.54 10.1807 17.5205 20.8809 17.5205z
" />
    <glyph glyph-name="Eng" unicode="&#x14a;" horiz-adv-x="677" 
d="M599.24 700l127.739 -0.0136719c9.41992 0 15.6797 -7.45996 14.04 -16.7402l-113.22 -642.12c-29.4697 -167.09 -107.649 -221.14 -214.829 -221.14h-5c-27.4199 0 -59.54 8.03027 -88.1504 19.8906c-6.30957 2.48047 -9.59961 8.59082 -8.41992 15.2812l17.2402 97.75
c1.66992 9.5 10.4795 14.0801 19.5596 10.4805c15.5498 -7.84961 29.2002 -12.21 43.3701 -12.21h4.62988c24.3896 0 46.9297 18.9502 55.0195 54.5703l-110.23 297.93l-48.9199 156.86h-13.7305l-12.96 -156.9l-51.0098 -292.63
c-1.15039 -6.62012 -6.37012 -11.0098 -13.0898 -11.0098h-127.74c-9.41992 0 -15.6797 7.4502 -14.04 16.7305l117.39 665.75c1.86035 10.54 10.1807 17.5205 20.8809 17.5205h137.38c9.17969 0 16.6699 -5.38965 19.5801 -14.0898l99.0498 -277.56l54.6699 -168.9h13.7305
l15.0703 168.88l48.9004 280.66c1.15039 6.62012 6.37012 11.0098 13.0898 11.0098z" />
    <glyph glyph-name="Ntilde" unicode="&#xd1;" horiz-adv-x="677" 
d="M599.8 889.13l40.5713 -0.000976562c7.2002 0 10.9502 -6.84961 7.33008 -13.5098c-51.4805 -94.25 -83.6904 -121.07 -128.841 -121.07h-4c-45.6797 -0.00976562 -45.3301 39.6299 -81.46 39.6299c-16.7002 0 -26.5 -8.74023 -39.9697 -22.9199
c-4.29004 -4.33008 -9.62988 -6.46973 -15.54 -6.46973h-40.4004c-7.19043 0 -10.9502 6.84961 -7.32031 13.5098c51.4697 94.2402 83.6797 121.07 128.83 121.07h4c46.5898 -0.00976562 49.5098 -39.6396 81.46 -39.6396c14.6602 0 25.8604 8.25 39.9102 23
c4.2998 4.24023 9.5498 6.40039 15.4297 6.40039zM598.801 699.999l128.167 -0.000976562c9.42969 0 15.6895 -7.4502 14.0498 -16.7305l-118.54 -672.29c-1.16992 -6.59961 -6.37988 -10.9795 -13.0898 -10.9795h-144.02c-9.17969 0 -16.6699 5.38965 -19.5898 14.0898
l-104.71 289.55l-49 156.91h-13.7305l-12.9502 -156.85l-51.0996 -293.12c-1.09961 -6.36035 -6.11914 -10.5801 -12.5693 -10.5801h-128.18c-9.41992 0 -15.6797 7.4502 -14.04 16.7305l117.39 665.75c1.86035 10.54 10.1807 17.5205 20.8809 17.5205h137.38
c9.17969 0 16.6699 -5.38965 19.5801 -14.0898l99.0303 -277.52l54.6904 -168.94h13.7305l15.0703 168.89l48.9805 281.08c1.09961 6.36035 6.11914 10.5801 12.5693 10.5801z" />
    <glyph glyph-name="O" unicode="O" horiz-adv-x="680" 
d="M453.45 713h15.0107c146.81 0 267.35 -104.68 232.46 -302.59l-23.2803 -132c-34.8896 -197.91 -180.93 -291.41 -327.75 -291.41h-15c-146.82 0 -267.36 104.67 -232.471 302.58l23.2803 132c34.8896 197.91 180.93 291.42 327.75 291.42zM446.021 577.72
l-8.08984 -0.000976562c-78.1797 0 -134.12 -53.4297 -150.84 -148.25l-28.0801 -159.28c-16.8701 -95.6299 20.1201 -147.93 98.2998 -147.93h8.08984c78.1797 0 133.979 52.6201 150.84 148.25l28.0898 159.28c16.7197 94.8203 -20.1299 147.931 -98.3096 147.931z" />
    <glyph glyph-name="Oacute" unicode="&#xd3;" horiz-adv-x="680" 
d="M553.62 937.55l97.6689 -0.000976562c9.16992 0 13.3701 -9.11035 7.41992 -16.0801l-121.5 -146.7c-5.7002 -6.66016 -13.4404 -10.2197 -22.2002 -10.2197h-76.2695c-8.08984 0 -12.1396 7.63965 -7.59961 14.3301l97.6699 145.53
c5.74023 8.44043 14.6104 13.1406 24.8105 13.1406zM453.449 712.999h15c146.82 0 267.36 -104.68 232.471 -302.59l-23.2803 -132c-34.8896 -197.91 -180.93 -291.41 -327.75 -291.41h-15c-146.82 0 -267.36 104.67 -232.471 302.58l23.2803 132
c34.8896 197.91 180.93 291.42 327.75 291.42zM446.02 577.719l-8.08984 -0.000976562c-78.1797 0 -134.12 -53.4297 -150.84 -148.25l-28.0801 -159.28c-16.8701 -95.6299 20.1201 -147.93 98.2998 -147.93h8.08984c78.1797 0 133.979 52.6201 150.84 148.25
l28.0898 159.28c16.7197 94.8203 -20.1299 147.931 -98.3096 147.931z" />
    <glyph glyph-name="Ocaron" unicode="&#x1d1;" horiz-adv-x="680" 
d="M566.54 937.55l84.9287 -0.00195312c9.2002 0 13.4102 -9.15039 7.41992 -16.1201l-125.47 -149.1c-4.33984 -5.07031 -10.2402 -7.78027 -16.9199 -7.78027h-71.0303c-6.34961 0 -11.7197 3.32031 -14.5498 8.99023l-74.1396 151.48
c-3.16992 6.25 0.69043 12.5303 7.69043 12.5303h88.0498c7.75 0 14.0195 -4.63965 16.2695 -12.0498l22.7402 -72.5801l50.6504 72.04c5.75 8.11035 14.4199 12.5908 24.3604 12.5908zM453.438 712.998h15c146.82 0 267.36 -104.67 232.46 -302.58l-23.2695 -132
c-34.9004 -197.91 -180.94 -291.42 -327.761 -291.42h-15c-146.82 0 -267.36 104.68 -232.46 302.59l23.2695 132c34.9004 197.91 180.94 291.41 327.761 291.41zM446.009 577.729l-8.10059 -0.0107422c-78.1797 0 -134.109 -53.4297 -150.829 -148.25l-28.0898 -159.27
c-16.8604 -95.6396 20.1299 -147.93 98.3096 -147.93h8.08984c78.1797 0 133.97 52.6104 150.84 148.25l28.0801 159.27c16.7197 94.8203 -20.1201 147.94 -98.2998 147.94z" />
    <glyph glyph-name="Ocircumflex" unicode="&#xd4;" horiz-adv-x="680" 
d="M468.65 937.55l66.3008 -0.00976562c9.34961 0 16.9199 -4.69043 21.0898 -13.2803l71.7695 -146.55c3.37988 -6.7002 -0.799805 -13.1699 -8.22949 -13.1699h-86.9502c-8.25977 0 -14.25 4.90039 -16.4502 12.3203l-22.7803 72.3096l-52.3701 -74.5596
c-4.58008 -6.48047 -11.0801 -10.0605 -19.4102 -10.0605h-87.3799c-9.45996 0 -14.1504 9.38965 -7.89062 16.7598l124.71 147.97c4.78027 5.74023 10.5205 8.27051 17.5908 8.27051zM453.451 712.99h15c146.82 0 267.36 -104.68 232.46 -302.59l-23.2695 -132
c-34.9004 -197.91 -180.94 -291.41 -327.761 -291.41h-15c-146.82 0 -267.36 104.67 -232.46 302.58l23.2695 132c34.9004 197.91 180.94 291.42 327.761 291.42zM446.021 577.71l-8.10059 -0.000976562c-78.1797 0 -134.109 -53.4297 -150.829 -148.25l-28.0898 -159.28
c-16.8604 -95.6299 20.1299 -147.93 98.3096 -147.93h8.08984c78.1797 0 133.97 52.6201 150.84 148.25l28.0801 159.28c16.7197 94.8203 -20.1201 147.931 -98.2998 147.931z" />
    <glyph glyph-name="Odieresis" unicode="&#xd6;" horiz-adv-x="680" 
d="M362.63 918.09h96.1299c9.41992 0 15.6797 -7.4502 14.04 -16.7305l-20.5498 -116.56c-1.86035 -10.54 -10.1807 -17.5205 -20.8809 -17.5205h-96.1299c-9.41992 0 -15.6797 7.4502 -14.04 16.7305l20.5498 116.56c1.86035 10.54 10.1807 17.5205 20.8809 17.5205z
M546.54 918.09h96.1299c9.41992 0 15.6797 -7.4502 14.04 -16.7305l-20.5498 -116.56c-1.86035 -10.54 -10.1807 -17.5205 -20.8809 -17.5205h-96.1299c-9.41992 0 -15.6797 7.4502 -14.04 16.7305l20.5498 116.56c1.86035 10.54 10.1807 17.5205 20.8809 17.5205z
M453.45 713h15c146.82 0 267.36 -104.68 232.471 -302.59l-23.2803 -132c-34.8896 -197.91 -180.93 -291.41 -327.75 -291.41h-15c-146.82 0 -267.36 104.67 -232.471 302.58l23.2803 132c34.8896 197.91 180.93 291.42 327.75 291.42zM446.021 577.72
l-8.08984 -0.000976562c-78.1797 0 -134.12 -53.4297 -150.84 -148.25l-28.0801 -159.28c-16.8701 -95.6299 20.1201 -147.93 98.2998 -147.93h8.08984c78.1797 0 133.979 52.6201 150.84 148.25l28.0898 159.28c16.7197 94.8203 -20.1299 147.931 -98.3096 147.931z" />
    <glyph glyph-name="Ograve" unicode="&#xd2;" horiz-adv-x="680" 
d="M360.7 937.55l95.9199 -0.000976562c10.9805 0 19.9209 -6.49023 23.3311 -16.9404l46.3398 -145.47c1.83008 -5.62012 -1.78027 -10.5898 -7.69043 -10.5898h-74.29c-9.20996 0 -17 4.82031 -21.1104 13.0508l-70.2002 147.47
c-3.12988 6.23047 0.719727 12.4805 7.7002 12.4805zM453.46 712.999h15c146.82 0 267.36 -104.68 232.46 -302.59l-23.2695 -132c-34.9004 -197.91 -180.94 -291.41 -327.761 -291.41h-15c-146.82 0 -267.36 104.67 -232.46 302.58l23.2695 132
c34.9004 197.91 180.94 291.42 327.761 291.42zM446.03 577.719l-8.10059 -0.000976562c-78.1797 0 -134.109 -53.4297 -150.829 -148.25l-28.0898 -159.28c-16.8604 -95.6299 20.1299 -147.93 98.3096 -147.93h8.08984c78.1797 0 133.97 52.6201 150.84 148.25
l28.0801 159.28c16.7197 94.8203 -20.1201 147.931 -98.2998 147.931z" />
    <glyph glyph-name="Ohungarumlaut" unicode="&#x150;" horiz-adv-x="680" 
d="M619.67 937.55l84.5889 -0.000976562c9.16016 0 13.3604 -9.11035 7.41016 -16.0801l-121.5 -146.7c-5.69043 -6.66016 -13.4307 -10.2197 -22.2002 -10.2197h-63.1797c-8.08984 0 -12.1396 7.63965 -7.59961 14.3301l97.6797 145.53
c5.73047 8.44043 14.6006 13.1406 24.8008 13.1406zM499.219 937.549h84.4492c9.20996 0 13.4102 -9.16016 7.41016 -16.1406l-122.25 -146.72c-5.69043 -6.61035 -13.4004 -10.1406 -22.1201 -10.1406h-62.3701c-8.08984 0 -12.1396 7.63965 -7.59961 14.3301
l97.6699 145.53c5.74023 8.44043 14.6104 13.1406 24.8105 13.1406zM453.458 712.999h15c146.82 0 267.36 -104.68 232.46 -302.59l-23.2695 -132c-34.9004 -197.91 -180.94 -291.41 -327.761 -291.41h-15c-146.82 0 -267.36 104.67 -232.46 302.58l23.2695 132
c34.9004 197.91 180.94 291.42 327.761 291.42zM446.028 577.719l-8.10059 -0.000976562c-78.1797 0 -134.109 -53.4297 -150.829 -148.25l-28.0898 -159.28c-16.8604 -95.6299 20.1299 -147.93 98.3096 -147.93h8.08984c78.1797 0 133.97 52.6201 150.84 148.25
l28.0801 159.28c16.7197 94.8203 -20.1201 147.931 -98.2998 147.931z" />
    <glyph glyph-name="Omacron" unicode="&#x14c;" horiz-adv-x="680" 
d="M382.09 869.67h224.21c9.42969 0 15.6797 -7.45996 14.0498 -16.7402l-12.4805 -70.7402c-1.86035 -10.54 -10.1807 -17.5205 -20.8809 -17.5205h-224.21c-9.42969 0 -15.6797 7.4502 -14.0498 16.7305l12.4805 70.75c1.86035 10.54 10.1807 17.5205 20.8809 17.5205z
M453.45 713h15c146.82 0 267.36 -104.68 232.471 -302.59l-23.2803 -132c-34.8896 -197.91 -180.93 -291.41 -327.75 -291.41h-15c-146.82 0 -267.36 104.67 -232.471 302.58l23.2803 132c34.8896 197.91 180.93 291.42 327.75 291.42zM446.021 577.72
l-8.08984 -0.000976562c-78.1797 0 -134.12 -53.4297 -150.84 -148.25l-28.0801 -159.28c-16.8701 -95.6299 20.1201 -147.93 98.2998 -147.93h8.08984c78.1797 0 133.979 52.6201 150.84 148.25l28.0898 159.28c16.7197 94.8203 -20.1299 147.931 -98.3096 147.931z" />
    <glyph glyph-name="Oslash" unicode="&#xd8;" horiz-adv-x="680" 
d="M645.19 700h105.551c9.13965 0 13.3301 -9.05957 7.41992 -16.0293l-77.1299 -90.1201c24.0996 -47.4902 33.0293 -108.84 19.8691 -183.439l-23.2695 -132c-34.9004 -197.91 -180.94 -291.41 -327.761 -291.41h-15c-51.8701 0 -100.46 13.0596 -140.07 38.6895
l-12.9004 -15.0801c-5.86035 -6.91016 -13.8604 -10.6104 -22.9199 -10.6104h-106.38c-9.15039 0 -13.3408 9.07031 -7.4209 16.04l77.1504 90.0195c-24.1299 47.5 -33.0801 108.88 -19.9199 183.52l23.2803 132c34.8896 197.91 180.93 291.42 327.75 291.42h15
c52.1104 0 100.9 -13.1904 140.61 -39.04l13.2402 15.4404c5.86035 6.90039 13.8506 10.6006 22.9004 10.6006zM287.081 429.48l-28.0908 -159.271c-0.339844 -1.95996 -0.660156 -3.88965 -0.959961 -5.80957l253.05 295.26
c-16.5596 11.9004 -38.4092 18.0703 -65.0693 18.0703h-8.08984c-78.1797 0 -134.12 -53.4297 -150.84 -148.25zM516.23 270.52l28.0908 159.271c0.30957 1.7998 0.609375 3.58008 0.889648 5.34961l-252.66 -295.23c16.5303 -11.6396 38.2803 -17.6396 64.75 -17.6396
h8.08984c78.1797 0 133.979 52.6201 150.84 148.25z" />
    <glyph glyph-name="Otilde" unicode="&#xd5;" horiz-adv-x="680" 
d="M601.71 889.13l40.5703 -0.000976562c7.19043 0 10.9502 -6.84961 7.32031 -13.5098c-51.4697 -94.25 -83.6797 -121.07 -128.83 -121.07h-4c-45.6904 -0.00976562 -45.3408 39.6299 -81.4609 39.6299c-16.7002 0 -26.5 -8.74023 -39.9805 -22.9199
c-4.29004 -4.33008 -9.62012 -6.46973 -15.54 -6.46973h-40.3896c-7.2002 0 -10.9502 6.84961 -7.33008 13.5098c51.4805 94.2402 83.6904 121.07 128.841 121.07h4c46.5801 -0.00976562 49.5 -39.6396 81.4502 -39.6396c14.6699 0 25.8604 8.25 39.9199 23
c4.29004 4.24023 9.54004 6.40039 15.4297 6.40039zM453.45 712.999h15c146.82 0 267.36 -104.68 232.471 -302.59l-23.2803 -132c-34.8896 -197.91 -180.93 -291.41 -327.75 -291.41h-15c-146.82 0 -267.36 104.67 -232.471 302.58l23.2803 132
c34.8896 197.91 180.93 291.42 327.75 291.42zM446.021 577.719l-8.08984 -0.000976562c-78.1797 0 -134.12 -53.4297 -150.84 -148.25l-28.0801 -159.28c-16.8701 -95.6299 20.1201 -147.93 98.2998 -147.93h8.08984c78.1797 0 133.979 52.6201 150.84 148.25
l28.0898 159.28c16.7197 94.8203 -20.1299 147.931 -98.3096 147.931z" />
    <glyph glyph-name="OE" unicode="&#x152;" horiz-adv-x="949" 
d="M664.86 700l360.939 0.00976562c9.42969 0 15.6895 -7.45996 14.0391 -16.7402l-18.96 -107.56c-1.16016 -6.59961 -6.37988 -10.9795 -13.0801 -10.9795h-283.77l-24.8301 -140.82h249.73c9.42969 0 15.6797 -7.4502 14.0498 -16.7305l-18.9697 -107.56
c-1.16016 -6.61035 -6.37012 -10.9805 -13.0801 -10.9805h-255.58l-27.04 -153.37h277.92c9.41992 0 15.6797 -7.4502 14.04 -16.7305l-18.96 -107.56c-1.16992 -6.61035 -6.37988 -10.9805 -13.0801 -10.9805h-367.59c-9.41992 0 -15.6797 7.4502 -14.04 16.7305
l5.73047 32.54c-52.4004 -41.9902 -116.79 -62.2705 -182.44 -62.2705h-15c-146.82 0 -267.36 104.67 -232.471 302.58l23.2803 132c34.8896 197.91 180.93 291.42 327.75 291.42h15c68.1396 0 128.76 -23.5303 168.5 -70.3799l7.03027 39.8604
c1.86035 10.54 10.1807 17.5205 20.8809 17.5205zM357.319 122.279h8.08984c78.1797 0 133.97 52.6104 150.84 148.25l28.0801 159.27c16.7197 94.8203 -20.1201 147.94 -98.2998 147.94h-8.08984c-78.1797 0 -134.12 -53.4297 -150.84 -148.25l-28.0801 -159.28
c-16.8701 -95.6299 20.1201 -147.93 98.2998 -147.93z" />
    <glyph glyph-name="P" unicode="P" horiz-adv-x="619" 
d="M200.31 700l239.03 -0.000976562c141.37 0 238.3 -73.5898 211.06 -228.04l-1.78027 -10.0898c-27.6602 -156.91 -145.561 -227.96 -291.011 -227.96h-101.36l-39.3096 -222.93c-1.16992 -6.61035 -6.37988 -10.9805 -13.0898 -10.9805h-127.77
c-9.41992 0 -15.6797 7.4502 -14.04 16.7305l117.39 665.75c1.86035 10.54 10.1807 17.5205 20.8809 17.5205zM485.35 460.519l1.67871 9.53906c11.0801 62.8203 -16.79 94.6602 -94.4297 94.6602h-81.0596l-35.6299 -202.09h79.1201
c77.6299 0 119.24 35.0703 130.32 97.8906z" />
    <glyph glyph-name="Thorn" unicode="&#xde;" horiz-adv-x="619" 
d="M322.25 608.26l100.92 -0.000976562c141.36 0 238.29 -73.5898 211.06 -228.04l-1.78027 -10.0898c-27.6699 -156.91 -145.56 -227.96 -291.02 -227.96h-101.36l-23.1299 -131.2c-1.16992 -6.59961 -6.37988 -10.9795 -13.0898 -10.9795h-127.77
c-9.41992 0 -15.6797 7.45996 -14.04 16.7402l117.39 665.74c1.86035 10.54 10.1807 17.5205 20.8809 17.5205h121.12c9.42969 0 15.6797 -7.4502 14.0498 -16.7305zM472.21 368.778l1.67871 9.53906c11.0801 62.8203 -16.79 94.6602 -94.4297 94.6602h-81.0596
l-35.6299 -202.09h79.1201c77.6299 0 119.24 35.0703 130.32 97.8906z" />
    <glyph glyph-name="Q" unicode="Q" horiz-adv-x="680" 
d="M453.45 713l15 -0.00878906c146.82 0 267.36 -104.67 232.471 -302.58l-23.2803 -132c-17.7803 -100.83 -64.4102 -174.561 -125.29 -222.631l66.6504 -78.7803c4.96973 -5.86035 4.37988 -13.71 -1.41992 -18.7598l-89.0303 -77.8203
c-5.95996 -5.2002 -14.04 -4.58984 -19.1602 1.44043l-94.2197 111.42c-21.5 -4.2002 -43.3799 -6.28027 -65.2803 -6.28027h-15c-146.82 0 -267.36 104.67 -232.471 302.58l23.2803 132c34.8896 197.91 180.93 291.42 327.75 291.42zM357.32 122.271l8.0791 -0.0117188
c78.1797 0 133.979 52.6201 150.84 148.25l28.0898 159.28c16.7197 94.8203 -20.1299 147.931 -98.3096 147.931h-8.08984c-78.1797 0 -134.109 -53.4297 -150.829 -148.25l-28.0898 -159.27c-16.8604 -95.6396 20.1299 -147.93 98.3096 -147.93z" />
    <glyph glyph-name="R" unicode="R" horiz-adv-x="636" 
d="M200.31 700l250.589 0.00878906c141.36 0 231.78 -68.2197 206.42 -212.04l-1.62012 -9.17969c-17.1699 -97.4102 -71.8398 -164.79 -159.22 -197.43l45.5898 -96.9902l70.3301 -170.48c2.80957 -7.20996 -1.75 -13.8799 -9.49023 -13.8799l-138.23 -0.0400391
c-12.2598 0 -22.3594 7.03027 -26.6094 18.5205l-95.9805 240.33h-81.4502l-43.7197 -247.97c-1.16992 -6.61035 -6.37988 -10.9805 -13.0898 -10.9805h-127.77c-9.41992 0 -15.6797 7.4502 -14.04 16.7305l117.41 665.88c1.86035 10.54 10.1807 17.5205 20.8809 17.5205z
M314.589 564.739l-32.1211 -182.101h91.4004c76 0 111.41 37.0703 120.73 89.8906l0.94043 5.37012c9.63965 54.6299 -12.3506 86.8398 -88.3506 86.8398h-92.5996z" />
    <glyph glyph-name="Racute" unicode="&#x154;" horiz-adv-x="636" 
d="M475.58 937.55l97.6689 -0.000976562c9.16992 0 13.3701 -9.11035 7.41992 -16.0801l-121.5 -146.7c-5.7002 -6.66016 -13.4404 -10.2197 -22.2002 -10.2197h-76.2695c-8.08984 0 -12.1396 7.63965 -7.59961 14.3301l97.6699 145.53
c5.74023 8.44043 14.6104 13.1406 24.8105 13.1406zM200.309 699.999l250.589 0.00976562c141.36 0 231.78 -68.2197 206.42 -212.04l-1.62012 -9.17969c-17.1699 -97.4199 -71.8398 -164.79 -159.22 -197.44l45.5898 -96.9805l70.3301 -170.49
c2.80957 -7.2002 -1.75 -13.8799 -9.49023 -13.8799l-138.23 -0.0302734c-12.2598 0 -22.3594 7.03027 -26.6094 18.5205l-95.9805 240.33h-81.4502l-43.7197 -247.97c-1.16992 -6.61035 -6.37988 -10.9805 -13.0898 -10.9805h-127.77
c-9.41992 0 -15.6797 7.4502 -14.04 16.7305l117.41 665.88c1.86035 10.54 10.1807 17.5205 20.8809 17.5205zM314.588 564.729l-32.1211 -182.091h91.4004c76 0 111.41 37.0703 120.73 89.8906l0.94043 5.36035c9.63965 54.6396 -12.3506 86.8398 -88.3506 86.8398
h-92.5996z" />
    <glyph glyph-name="Rcaron" unicode="&#x158;" horiz-adv-x="636" 
d="M524.66 937.55l84.9287 -0.00195312c9.2002 0 13.4102 -9.15039 7.41992 -16.1201l-125.47 -149.1c-4.33984 -5.07031 -10.2402 -7.78027 -16.9199 -7.78027h-71.0303c-6.34961 0 -11.7197 3.32031 -14.5498 8.99023l-74.1396 151.48
c-3.16992 6.25 0.69043 12.5303 7.69043 12.5303h88.0498c7.75 0 14.0195 -4.63965 16.2695 -12.0498l22.7402 -72.5801l50.6504 72.04c5.75 8.11035 14.4199 12.5908 24.3604 12.5908zM200.289 699.998l250.589 0.00878906c141.37 0 231.79 -68.2197 206.43 -212.04
l-1.62012 -9.17969c-17.1797 -97.4102 -71.8398 -164.79 -159.229 -197.43l45.5898 -96.9902l70.3301 -170.48c2.80957 -7.20996 -1.75 -13.8799 -9.49023 -13.8799l-138.22 -0.0400391c-12.2695 0 -22.3594 7.03027 -26.6094 18.5303l-95.9902 240.33h-81.4404
l-43.7305 -247.98c-1.16016 -6.59961 -6.37988 -10.9795 -13.0801 -10.9795h-127.77c-9.42969 0 -15.6797 7.45996 -14.0498 16.7402l117.41 665.87c1.86035 10.54 10.1807 17.5205 20.8809 17.5205zM314.568 564.737l-32.1084 -182.101h91.3896
c76 0 111.42 37.0703 120.729 89.8906l0.950195 5.37012c9.62988 54.6299 -12.3506 86.8398 -88.3506 86.8398h-92.6104z" />
    <glyph glyph-name="Rcommaaccent" unicode="&#x156;" horiz-adv-x="636" 
d="M200.31 700l250.589 0.00976562c141.36 0 231.78 -68.2197 206.42 -212.04l-1.62012 -9.17969c-17.1699 -97.4199 -71.8398 -164.79 -159.22 -197.44l45.5898 -96.9805l70.3301 -170.49c2.80957 -7.2002 -1.75 -13.8799 -9.49023 -13.8799l-138.23 -0.0302734
c-12.2598 0 -22.3594 7.03027 -26.6094 18.5205l-95.9805 240.33h-81.4502l-43.7197 -247.97c-1.16992 -6.61035 -6.37988 -10.9805 -13.0898 -10.9805h-127.77c-9.41992 0 -15.6797 7.4502 -14.04 16.7305l117.41 665.88c1.86035 10.54 10.1807 17.5205 20.8809 17.5205z
M314.589 564.729l-32.1211 -182.091h91.4004c76 0 111.41 37.0703 120.73 89.8906l0.94043 5.36035c9.63965 54.6396 -12.3506 86.8398 -88.3506 86.8398h-92.5996zM250.357 -49.9111l120.48 -0.00195312c9.28027 0 15.4805 -7.28027 14.0107 -16.4404l-13.8203 -85.9502
c-1.15039 -7.17969 -3.80078 -13.3594 -8.20117 -19.1289l-80.1396 -110.35c-4.34961 -5.7998 -10.71 -8.97949 -17.9795 -8.97949h-67.46c-8.61035 0 -12.7305 8.33984 -7.51074 15.1602l74.6396 103.22h-36.4102c-9.42969 0 -15.6797 7.4502 -14.0498 16.7305
l15.5596 88.2197c1.86035 10.54 10.1807 17.5205 20.8809 17.5205z" />
    <glyph glyph-name="S" unicode="S" horiz-adv-x="547" 
d="M273.3 283.73l34.1504 -12.1104c56.54 -20.0898 86.6104 -34.4697 78.9102 -78.1094l-0.55957 -3.17969c-7.75977 -44 -49.3096 -70.6602 -111.67 -70.6602h-4.73047c-52.54 0 -82.4805 9.74023 -172.841 43.2305c-9.30957 3.42969 -18.1396 -1.31055 -19.79 -10.6309
l-18.3496 -104.11c-2.09961 -11.9102 3.45996 -23.0303 14.5996 -27.3105c43.4502 -17.8203 113.19 -35.6299 182.011 -35.6299h7.54004c131.82 0 259.32 69.5195 284.101 210.06l1.48047 8.37012c21.2998 120.82 -40.5098 175.71 -157.109 217.07l-36.46 12.9102
c-53.1396 18.8203 -77.9697 34.0205 -71.46 70.9307l0.599609 3.37012c7.92969 45 51.4395 68.8398 101.439 68.8398h4.71973c50.4902 0 87.5098 -11.4805 151.76 -34.4307c8.96973 -3.09961 17.3896 1.66992 19 10.79l18.2197 103.37
c2.25 12.75 -4.11035 24.5098 -16.3105 28.3398c-38.1904 13.5703 -96.5107 26.3906 -157.471 26.3906h-6.73047c-120.27 0 -249.35 -69.1602 -273.869 -208.25l-1.94043 -11c-19.25 -109.18 42.1904 -169.8 150.761 -208.25z" />
    <glyph glyph-name="Sacute" unicode="&#x15a;" horiz-adv-x="547" 
d="M488.93 937.55l97.6689 -0.000976562c9.16992 0 13.3701 -9.11035 7.41992 -16.0801l-121.5 -146.7c-5.7002 -6.66016 -13.4404 -10.2197 -22.2002 -10.2197h-76.2695c-8.08984 0 -12.1396 7.63965 -7.59961 14.3301l97.6699 145.53
c5.74023 8.44043 14.6104 13.1406 24.8105 13.1406zM273.299 283.719l34.1484 -12.1006c56.5498 -20.0898 86.6094 -34.4697 78.9189 -78.1094l-0.55957 -3.17969c-7.75977 -44 -49.3096 -70.6602 -111.68 -70.6602h-4.71973c-52.5498 0 -82.4902 9.74023 -172.84 43.2305
c-9.32031 3.42969 -18.1504 -1.31055 -19.79 -10.6309l-18.3604 -104.11c-2.09961 -11.9102 3.45996 -23.0303 14.6104 -27.3203c43.4404 -17.8096 113.181 -35.6299 182.001 -35.6299h7.5498c131.82 0 259.32 69.5195 284.101 210.069l1.46973 8.36035
c21.3096 120.82 -40.5 175.71 -157.1 217.08l-36.4697 12.9102c-53.1299 18.8203 -77.96 34.0205 -71.4502 70.9307l0.589844 3.36035c7.94043 45 51.4404 68.8398 101.44 68.8398h4.73047c50.4805 0 87.5 -11.4805 151.75 -34.4209
c8.98047 -3.09961 17.4004 1.66992 19 10.79l18.2305 103.37c2.24023 12.7402 -4.12012 24.5098 -16.3105 28.3301c-38.1904 13.5703 -96.5205 26.4004 -157.48 26.4004h-6.71973c-120.28 0 -249.351 -69.1602 -273.881 -208.25l-1.94043 -11
c-19.25 -109.18 42.1904 -169.8 150.761 -208.26z" />
    <glyph glyph-name="Scaron" unicode="&#x160;" horiz-adv-x="547" 
d="M500.25 937.55l84.9287 -0.00195312c9.2002 0 13.4102 -9.15039 7.41992 -16.1201l-125.47 -149.1c-4.33984 -5.07031 -10.2402 -7.78027 -16.9199 -7.78027h-71.0303c-6.34961 0 -11.7197 3.32031 -14.5498 8.99023l-74.1396 151.48
c-3.16992 6.25 0.69043 12.5303 7.69043 12.5303h88.0498c7.75 0 14.0195 -4.63965 16.2695 -12.0498l22.7402 -72.5801l50.6504 72.04c5.75 8.11035 14.4199 12.5908 24.3604 12.5908zM273.289 283.728l34.1504 -12.1104c56.54 -20.0898 86.6104 -34.4697 78.9102 -78.0996
l-0.55957 -3.17969c-7.75977 -44 -49.3096 -70.6602 -111.67 -70.6602h-4.73047c-52.54 0 -82.4805 9.73047 -172.841 43.2207c-9.30957 3.42969 -18.1396 -1.31055 -19.79 -10.6309l-18.3496 -104.11c-2.09961 -11.9102 3.45996 -23.0303 14.5996 -27.3105
c43.4502 -17.8203 113.19 -35.6299 182.011 -35.6299h7.54004c131.82 0 259.32 69.5195 284.101 210.06l1.48047 8.37012c21.2998 120.82 -40.5098 175.71 -157.109 217.07l-36.46 12.9102c-53.1396 18.8203 -77.9697 34.0205 -71.46 70.9307l0.599609 3.37012
c7.92969 45 51.4395 68.8398 101.439 68.8398h4.71973c50.4902 0 87.5098 -11.4805 151.76 -34.4307c8.96973 -3.09961 17.3896 1.66992 19 10.79l18.2197 103.37c2.25 12.75 -4.11035 24.5098 -16.3105 28.3398c-38.1904 13.5703 -96.5107 26.3906 -157.471 26.3906
h-6.73047c-120.27 0 -249.35 -69.1602 -273.869 -208.25l-1.94043 -11c-19.25 -109.18 42.1904 -169.8 150.761 -208.25z" />
    <glyph glyph-name="Scedilla" unicode="&#x15e;" horiz-adv-x="547" 
d="M562.56 684.84c12.1904 -3.83008 18.5381 -15.5811 16.2979 -28.3311l-18.2305 -103.37c-1.59961 -9.12012 -10.0195 -13.8896 -19 -10.79c-64.25 22.9502 -101.27 34.4307 -151.75 34.4307h-4.73047c-50 0 -93.5 -23.8398 -101.44 -68.8398l-0.589844 -3.37012
c-6.50977 -36.9102 18.3203 -52.1104 71.4502 -70.9307l36.4697 -12.9102c116.6 -41.3604 178.409 -96.25 157.1 -217.07l-1.46973 -8.37012c-23.3496 -132.43 -137.909 -201.8 -261.339 -209.37l-12.5996 -33.4297c2.83984 0.650391 9.5 1.23047 13.96 1.23047
c41.9404 0 74.0908 -35.2197 64.4209 -90.0801c-9.08008 -51.5 -53.4199 -78.6396 -115.6 -78.6396c-29.5098 0 -58.2295 6.15039 -79.7793 15.8701c-6.90039 3.15039 -10.0508 10.3701 -8.60059 17.8701l4.66992 24.79c0.990234 5.16992 5.64062 7.71973 10.5908 6.0498
c14.21 -4.63965 33.7998 -9.30957 55.5 -9.30957c27.4199 0 42.9102 9.62012 46.0303 27.3203c2.79004 15.8398 -6.95996 25.1396 -28.7197 25.1396c-9.16016 0 -20.0605 -1.83008 -37.791 -7.67969c-2.08984 -0.700195 -4.16992 -0.580078 -6.08008 0.349609
l-8.83008 4.23047c-2.42969 1.15039 -3.45996 3.69043 -2.5 6.20996l34.6396 91.3096c-54.7695 5.07031 -106.68 19.3906 -141.6 33.7109c-11.1504 4.29004 -16.71 15.4102 -14.6104 27.3203l18.3604 104.11c1.63965 9.32031 10.4697 14.0605 19.79 10.6309
c90.3496 -33.4902 120.29 -43.2305 172.84 -43.2305h4.71973c62.3701 0 103.92 26.6602 111.68 70.6602l0.55957 3.17969c7.69043 43.6396 -22.3691 58.0195 -78.9189 78.1094l-34.1602 12.0898c-108.57 38.4502 -170.011 99.0703 -150.761 208.25l1.94043 11
c24.5303 139.09 153.601 208.25 273.881 208.25h6.71973c60.9697 0 119.29 -12.8203 157.48 -26.3906z" />
    <glyph glyph-name="Scommaaccent" unicode="&#x218;" horiz-adv-x="547" 
d="M273.3 283.73l34.1504 -12.1104c56.54 -20.0898 86.6104 -34.4697 78.9102 -78.0996l-0.55957 -3.17969c-7.75977 -44 -49.3096 -70.6602 -111.67 -70.6602h-4.73047c-52.54 0 -82.4805 9.73047 -172.841 43.2207c-9.30957 3.42969 -18.1396 -1.31055 -19.79 -10.6309
l-18.3496 -104.11c-2.09961 -11.9102 3.45996 -23.0303 14.5996 -27.3105c43.4502 -17.8203 113.19 -35.6299 182.011 -35.6299h7.54004c131.82 0 259.32 69.5195 284.101 210.06l1.48047 8.37012c21.2998 120.82 -40.5098 175.71 -157.109 217.07l-36.46 12.9102
c-53.1396 18.8203 -77.9697 34.0205 -71.46 70.9307l0.599609 3.37012c7.92969 45 51.4395 68.8398 101.439 68.8398h4.71973c50.4902 0 87.5098 -11.4805 151.76 -34.4307c8.96973 -3.09961 17.3896 1.66992 19 10.79l18.2197 103.37
c2.25 12.75 -4.11035 24.5098 -16.3105 28.3398c-38.1904 13.5703 -96.5107 26.3906 -157.471 26.3906h-6.73047c-120.27 0 -249.35 -69.1602 -273.869 -208.25l-1.94043 -11c-19.25 -109.18 42.1904 -169.8 150.761 -208.25zM205.3 -49.9297l120.489 -0.000976562
c9.26953 0 15.4795 -7.28027 14.0098 -16.4307l-13.8203 -85.96c-1.15039 -7.16992 -3.81055 -13.3604 -8.2002 -19.1299l-80.1396 -110.35c-4.36035 -5.79004 -10.7207 -8.96973 -17.9902 -8.96973h-67.46c-8.59961 0 -12.7197 8.33008 -7.50977 15.1602l74.6504 103.21
h-36.4199c-9.41992 0 -15.6797 7.45996 -14.04 16.7402l15.5498 88.21c1.86035 10.54 10.1807 17.5205 20.8809 17.5205z" />
    <glyph glyph-name="T" unicode="T" horiz-adv-x="592" 
d="M164.85 700l510.398 0.0078125c9.42969 0 15.6895 -7.45996 14.0498 -16.7402l-18.96 -107.56c-1.16992 -6.59961 -6.37988 -10.9795 -13.0898 -10.9795h-183.49l-97.6396 -553.75c-1.16016 -6.59961 -6.37988 -10.9795 -13.0801 -10.9795h-127.77
c-9.42969 0 -15.6797 7.45996 -14.0498 16.7402l96.6299 547.99h-177.64c-9.42969 0 -15.6797 7.4502 -14.0498 16.7305l17.8096 101.02c1.86035 10.54 10.1807 17.5205 20.8809 17.5205z" />
    <glyph glyph-name="Tbar" unicode="&#x166;" horiz-adv-x="592" 
d="M164.85 700l510.398 0.0078125c9.42969 0 15.6895 -7.45996 14.0498 -16.7402l-18.96 -107.56c-1.16992 -6.59961 -6.37988 -10.9795 -13.0898 -10.9795h-183.49l-19.5098 -110.64h78.5801c9.41992 0 15.6797 -7.4502 14.04 -16.7305l-14.2002 -80.5596
c-1.86035 -10.54 -10.1807 -17.5205 -20.8809 -17.5205h-77.79l-57.8799 -328.3c-1.16992 -6.59961 -6.37988 -10.9795 -13.0898 -10.9795h-127.77c-9.41992 0 -15.6797 7.45996 -14.04 16.7402l56.8701 322.53h-78.71c-9.41992 0 -15.6797 7.45996 -14.04 16.7402
l14.2002 80.5596c1.86035 10.54 10.1807 17.5205 20.8809 17.5205h77.9199l19.5098 110.64h-177.64c-9.42969 0 -15.6797 7.4502 -14.0498 16.7305l17.8096 101.02c1.86035 10.54 10.1807 17.5205 20.8809 17.5205z" />
    <glyph glyph-name="Tcaron" unicode="&#x164;" horiz-adv-x="592" 
d="M522.8 937.55l84.9287 -0.00195312c9.2002 0 13.4102 -9.15039 7.41992 -16.1201l-125.47 -149.1c-4.33984 -5.07031 -10.2402 -7.78027 -16.9199 -7.78027h-71.0303c-6.34961 0 -11.7197 3.32031 -14.5498 8.99023l-74.1396 151.48
c-3.16992 6.25 0.69043 12.5303 7.69043 12.5303h88.0498c7.75 0 14.0195 -4.63965 16.2695 -12.0498l22.7402 -72.5801l50.6504 72.04c5.75 8.11035 14.4199 12.5908 24.3604 12.5908zM164.839 699.998l510.398 0.00976562c9.42969 0 15.6895 -7.4502 14.0498 -16.7305
l-18.96 -107.56c-1.16992 -6.61035 -6.37988 -10.9805 -13.0898 -10.9805h-183.49l-97.6396 -553.75c-1.16016 -6.61035 -6.37988 -10.9805 -13.0801 -10.9805h-127.77c-9.42969 0 -15.6797 7.4502 -14.0498 16.7305l96.6299 547.99h-177.64
c-9.42969 0 -15.6797 7.45996 -14.0498 16.7402l17.8096 101.01c1.86035 10.54 10.1807 17.5205 20.8809 17.5205z" />
    <glyph glyph-name="Tcedilla" unicode="&#x162;" horiz-adv-x="592" 
d="M164.85 700l510.378 0.0078125c9.42969 0 15.6797 -7.4502 14.0498 -16.7305l-18.9697 -107.56c-1.16016 -6.61035 -6.37988 -10.9805 -13.0801 -10.9805h-183.49l-97.6396 -553.75c-1.16992 -6.61035 -6.37988 -10.9805 -13.0898 -10.9805h-46.0801l-17.9102 -47.5098
c2.84961 0.650391 9.5 1.23047 13.96 1.23047c41.9502 0 74.1006 -35.2197 64.4209 -90.0801c-9.08008 -51.5 -53.4102 -78.6396 -115.601 -78.6396c-29.5098 0 -58.2295 6.15039 -79.7695 15.8701c-6.90039 3.15039 -10.0605 10.3701 -8.60059 17.8701l4.66992 24.79
c0.990234 5.16992 5.64062 7.71973 10.5811 6.0498c14.2197 -4.63965 33.7998 -9.30957 55.5 -9.30957c27.4297 0 42.9102 9.62012 46.0303 27.3203c2.7998 15.8398 -6.95996 25.1396 -28.71 25.1396c-9.16992 0 -20.0703 -1.83008 -37.79 -7.67969
c-2.08984 -0.700195 -4.16992 -0.580078 -6.08008 0.349609l-8.83984 4.23047c-2.41992 1.15039 -3.45996 3.7002 -2.49023 6.20996l40.04 104.15h-11.0703c-9.42969 0 -15.6797 7.45996 -14.0498 16.7402l96.6299 547.99h-177.64
c-9.42969 0 -15.6797 7.4502 -14.0498 16.7305l17.8096 101.02c1.86035 10.54 10.1807 17.5205 20.8809 17.5205z" />
    <glyph glyph-name="uni021A" unicode="&#x21a;" horiz-adv-x="592" 
d="M164.85 700l510.398 0.0078125c9.42969 0 15.6895 -7.45996 14.0498 -16.7402l-18.96 -107.56c-1.16992 -6.59961 -6.37988 -10.9795 -13.0898 -10.9795h-183.49l-97.6396 -553.75c-1.16016 -6.59961 -6.37988 -10.9795 -13.0801 -10.9795h-127.77
c-9.42969 0 -15.6797 7.45996 -14.0498 16.7402l96.6299 547.99h-177.64c-9.42969 0 -15.6797 7.4502 -14.0498 16.7305l17.8096 101.02c1.86035 10.54 10.1807 17.5205 20.8809 17.5205zM228.608 -49.9023l120.489 -0.00195312
c9.26953 0 15.4795 -7.28027 14.0098 -16.4404l-13.8203 -85.9502c-1.15039 -7.17969 -3.81055 -13.3594 -8.2002 -19.1289l-80.1396 -110.35c-4.36035 -5.7998 -10.7207 -8.97949 -17.9902 -8.97949h-67.46c-8.59961 0 -12.7197 8.33984 -7.50977 15.1602l74.6504 103.22
h-36.4199c-9.41992 0 -15.6797 7.4502 -14.04 16.7305l15.5498 88.2197c1.86035 10.54 10.1807 17.5205 20.8809 17.5205z" />
    <glyph glyph-name="U" unicode="U" horiz-adv-x="663" 
d="M587.49 700l125.018 -0.00878906c9.41992 0 15.6797 -7.4502 14.04 -16.7305l-75.4199 -427.76c-33.9404 -192.45 -165.08 -268.5 -308.62 -268.5h-15c-143.55 0 -255.34 87.2197 -221.41 279.67l73.3203 415.81c1.86035 10.54 10.1807 17.5205 20.8809 17.5205h125.04
c9.41992 0 15.6797 -7.45996 14.04 -16.7402l-75.4297 -427.78c-15.4697 -87.7305 15 -133.211 86 -133.211h8.08984c71 0 117.86 45.7998 133.33 133.52l75.2402 426.69c1.86035 10.54 10.1807 17.5205 20.8809 17.5205z" />
    <glyph glyph-name="Uacute" unicode="&#xda;" horiz-adv-x="663" 
d="M546.15 937.55l97.6689 -0.000976562c9.16992 0 13.3701 -9.11035 7.41992 -16.0801l-121.5 -146.7c-5.7002 -6.66016 -13.4404 -10.2197 -22.2002 -10.2197h-76.2695c-8.08984 0 -12.1396 7.63965 -7.59961 14.3301l97.6699 145.53
c5.74023 8.44043 14.6104 13.1406 24.8105 13.1406zM587.489 699.999l125.017 -0.00878906c9.42969 0 15.6797 -7.4502 14.0498 -16.7305l-75.4297 -427.76c-33.9297 -192.45 -165.069 -268.5 -308.619 -268.5h-15c-143.54 0 -255.34 87.2197 -221.399 279.67
l73.3096 415.81c1.86035 10.54 10.1807 17.5205 20.8809 17.5205h125.04c9.41992 0 15.6797 -7.45996 14.04 -16.7402l-75.4297 -427.78c-15.4697 -87.7305 15 -133.211 86 -133.211h8.08984c71 0 117.86 45.7998 133.33 133.52l75.2402 426.69
c1.86035 10.54 10.1807 17.5205 20.8809 17.5205z" />
    <glyph glyph-name="Ucaron" unicode="&#x1d3;" horiz-adv-x="663" 
d="M557.72 937.55l84.9287 -0.00195312c9.2002 0 13.4102 -9.15039 7.41992 -16.1201l-125.47 -149.1c-4.33984 -5.07031 -10.2402 -7.78027 -16.9199 -7.78027h-71.0303c-6.34961 0 -11.7197 3.32031 -14.5498 8.99023l-74.1396 151.48
c-3.16992 6.25 0.69043 12.5303 7.69043 12.5303h88.0498c7.75 0 14.0195 -4.63965 16.2695 -12.0498l22.7402 -72.5801l50.6504 72.04c5.75 8.11035 14.4199 12.5908 24.3604 12.5908zM587.479 699.998h125.017c9.42969 0 15.6797 -7.45996 14.0498 -16.7402
l-75.4297 -427.75c-33.9297 -192.46 -165.069 -268.51 -308.619 -268.51h-15c-143.54 0 -255.34 87.2197 -221.399 279.68l73.3096 415.8c1.86035 10.54 10.1807 17.5205 20.8809 17.5205h125.04c9.41992 0 15.6797 -7.4502 14.04 -16.7305l-75.4297 -427.79
c-15.4697 -87.7197 15 -133.2 86 -133.2h8.08984c71 0 117.86 45.79 133.33 133.521l75.2402 426.68c1.86035 10.54 10.1807 17.5205 20.8809 17.5205z" />
    <glyph glyph-name="Ucircumflex" unicode="&#xdb;" horiz-adv-x="663" 
d="M459.7 937.55l66.5801 -0.0117188c9.16016 0 16.9199 -4.76953 21.0498 -12.9492l72.0996 -147.52c3.16016 -6.25 -0.700195 -12.5303 -7.7002 -12.5303h-88.0498c-7.74023 0 -14.0098 4.63965 -16.2695 12.0498l-22.7402 72.5801l-52.7598 -75.0195
c-4.38965 -6.19043 -11 -9.61035 -18.5898 -9.61035h-88.5898c-9.2002 0 -13.4102 9.15039 -7.41992 16.1309l125.47 149.09c4.33984 5.07031 10.2402 7.79004 16.9199 7.79004zM587.48 699.988h125.027c9.41992 0 15.6797 -7.45996 14.04 -16.7402l-75.4199 -427.75
c-33.9404 -192.46 -165.08 -268.51 -308.62 -268.51h-15c-143.55 0 -255.34 87.2197 -221.41 279.68l73.3203 415.8c1.86035 10.54 10.1807 17.5205 20.8809 17.5205h125.03c9.42969 0 15.6797 -7.4502 14.0498 -16.7305l-75.4297 -427.79
c-15.4697 -87.7197 14.9902 -133.2 85.9902 -133.2h8.08984c71 0 117.87 45.79 133.34 133.521l75.2305 426.68c1.86035 10.54 10.1807 17.5205 20.8809 17.5205z" />
    <glyph glyph-name="Udieresis" unicode="&#xdc;" horiz-adv-x="663" 
d="M353.99 918.09h96.1299c9.41992 0 15.6797 -7.4502 14.04 -16.7305l-20.5498 -116.56c-1.86035 -10.54 -10.1807 -17.5205 -20.8809 -17.5205h-96.1299c-9.41992 0 -15.6797 7.4502 -14.04 16.7305l20.5498 116.56c1.86035 10.54 10.1807 17.5205 20.8809 17.5205z
M537.9 918.09h96.1299c9.41992 0 15.6797 -7.4502 14.04 -16.7305l-20.5498 -116.56c-1.86035 -10.54 -10.1807 -17.5205 -20.8809 -17.5205h-96.1299c-9.41992 0 -15.6797 7.4502 -14.04 16.7305l20.5498 116.56c1.86035 10.54 10.1807 17.5205 20.8809 17.5205z
M587.49 700l125.027 -0.00878906c9.41992 0 15.6797 -7.4502 14.04 -16.7305l-75.4199 -427.76c-33.9404 -192.45 -165.08 -268.5 -308.62 -268.5h-15c-143.55 0 -255.34 87.2197 -221.41 279.67l73.3203 415.81c1.86035 10.54 10.1807 17.5205 20.8809 17.5205h125.03
c9.42969 0 15.6797 -7.45996 14.0498 -16.7402l-75.4297 -427.78c-15.4697 -87.7305 14.9902 -133.211 85.9902 -133.211h8.08984c71 0 117.87 45.7998 133.34 133.52l75.2305 426.69c1.86035 10.54 10.1807 17.5205 20.8809 17.5205z" />
    <glyph glyph-name="Udieresisacute" unicode="&#x1d7;" horiz-adv-x="663" 
d="M575.08 1130.45l97.6787 -0.000976562c9.16016 0 13.3604 -9.12012 7.41016 -16.0801l-121.5 -146.7c-5.69043 -6.66016 -13.4307 -10.2197 -22.2002 -10.2197h-76.2695c-8.08984 0 -12.1396 7.63965 -7.59961 14.3301l97.6797 145.53
c5.73047 8.44043 14.6006 13.1406 24.8008 13.1406zM353.989 918.089h96.1201c9.42969 0 15.6797 -7.4502 14.0498 -16.7305l-20.5596 -116.56c-1.86035 -10.54 -10.1807 -17.5205 -20.8809 -17.5205h-96.1201c-9.42969 0 -15.6797 7.4502 -14.0498 16.7305l20.5596 116.56
c1.86035 10.54 10.1807 17.5205 20.8809 17.5205zM537.899 918.089h96.1201c9.42969 0 15.6797 -7.4502 14.0498 -16.7305l-20.5596 -116.56c-1.86035 -10.54 -10.1807 -17.5205 -20.8809 -17.5205h-96.1201c-9.42969 0 -15.6797 7.4502 -14.0498 16.7305l20.5596 116.56
c1.86035 10.54 10.1807 17.5205 20.8809 17.5205zM587.489 699.999l125.017 -0.00878906c9.42969 0 15.6797 -7.4502 14.0498 -16.7305l-75.4297 -427.76c-33.9297 -192.45 -165.069 -268.5 -308.619 -268.5h-15c-143.54 0 -255.34 87.2197 -221.399 279.67l73.3096 415.81
c1.86035 10.54 10.1807 17.5205 20.8809 17.5205h125.04c9.41992 0 15.6797 -7.45996 14.04 -16.7402l-75.4297 -427.78c-15.4697 -87.7305 15 -133.211 86 -133.211h8.08984c71 0 117.86 45.7998 133.33 133.52l75.2402 426.69
c1.86035 10.54 10.1807 17.5205 20.8809 17.5205z" />
    <glyph glyph-name="Udieresiscaron" unicode="&#x1d9;" horiz-adv-x="663" 
d="M591.81 1130.45l84.9385 -0.0117188c9.2002 0 13.4004 -9.15039 7.41016 -16.1201l-125.46 -149.1c-4.34961 -5.07031 -10.25 -7.78027 -16.9297 -7.78027h-71.0303c-6.33984 0 -11.71 3.32031 -14.5498 8.99023l-74.1396 151.48
c-3.16016 6.25 0.700195 12.5303 7.7002 12.5303h88.0498c7.74023 0 14.0098 -4.63965 16.2695 -12.0498l22.7305 -72.5801l50.6602 72.0498c5.75 8.11035 14.4102 12.5908 24.3506 12.5908zM353.979 918.089h96.1299c9.41992 0 15.6797 -7.45996 14.04 -16.7402
l-20.5498 -116.56c-1.86035 -10.54 -10.1807 -17.5205 -20.8809 -17.5205h-96.1299c-9.41992 0 -15.6797 7.45996 -14.04 16.7402l20.5498 116.56c1.86035 10.54 10.1807 17.5205 20.8809 17.5205zM537.889 918.089h96.1299c9.41992 0 15.6797 -7.45996 14.04 -16.7402
l-20.5498 -116.56c-1.86035 -10.54 -10.1807 -17.5205 -20.8809 -17.5205h-96.1299c-9.41992 0 -15.6797 7.45996 -14.04 16.7402l20.5498 116.56c1.86035 10.54 10.1807 17.5205 20.8809 17.5205zM587.479 699.989h125.027c9.41992 0 15.6797 -7.45996 14.04 -16.7402
l-75.4199 -427.75c-33.9404 -192.46 -165.08 -268.51 -308.62 -268.51h-15c-143.55 0 -255.34 87.2197 -221.41 279.68l73.3203 415.8c1.86035 10.54 10.1807 17.5205 20.8809 17.5205h125.03c9.42969 0 15.6797 -7.4502 14.0498 -16.7305l-75.4297 -427.79
c-15.4697 -87.7197 14.9902 -133.2 85.9902 -133.2h8.08984c71 0 117.87 45.79 133.34 133.521l75.2305 426.68c1.86035 10.54 10.1807 17.5205 20.8809 17.5205z" />
    <glyph glyph-name="Udieresisgrave" unicode="&#x1db;" horiz-adv-x="663" 
d="M382.86 1130.45h95.9189c10.9902 0 19.9307 -6.5 23.3311 -16.9404l46.3496 -145.47c1.83008 -5.62012 -1.78027 -10.6006 -7.69043 -10.6006h-74.2998c-9.20996 0 -17 4.82031 -21.0996 13.0605l-70.21 147.46c-3.12988 6.23047 0.730469 12.4902 7.7002 12.4902z
M353.999 918.09h96.1201c9.42969 0 15.6797 -7.4502 14.0498 -16.7305l-20.5596 -116.56c-1.86035 -10.54 -10.1807 -17.5205 -20.8809 -17.5205h-96.1201c-9.42969 0 -15.6797 7.4502 -14.0498 16.7305l20.5596 116.56c1.86035 10.54 10.1807 17.5205 20.8809 17.5205z
M537.909 918.09h96.1201c9.42969 0 15.6797 -7.4502 14.0498 -16.7305l-20.5596 -116.56c-1.86035 -10.54 -10.1807 -17.5205 -20.8809 -17.5205h-96.1201c-9.42969 0 -15.6797 7.4502 -14.0498 16.7305l20.5596 116.56c1.86035 10.54 10.1807 17.5205 20.8809 17.5205z
M587.499 700l125.017 -0.00878906c9.42969 0 15.6797 -7.4502 14.0498 -16.7305l-75.4297 -427.76c-33.9297 -192.45 -165.069 -268.5 -308.619 -268.5h-15c-143.54 0 -255.34 87.2197 -221.399 279.67l73.3096 415.81c1.86035 10.54 10.1807 17.5205 20.8809 17.5205
h125.04c9.41992 0 15.6797 -7.45996 14.04 -16.7402l-75.4297 -427.78c-15.4697 -87.7305 15 -133.211 86 -133.211h8.08984c71 0 117.86 45.7998 133.33 133.52l75.2402 426.69c1.86035 10.54 10.1807 17.5205 20.8809 17.5205z" />
    <glyph glyph-name="Udieresismacron" unicode="&#x1d5;" horiz-adv-x="663" 
d="M407.83 1065.17l224.22 0.00976562c9.41992 0 15.6797 -7.45996 14.04 -16.7402l-12.4697 -70.75c-1.86035 -10.54 -10.1807 -17.5205 -20.8809 -17.5205h-224.22c-9.41992 0 -15.6797 7.45996 -14.04 16.7402l12.4697 70.7402
c1.86035 10.54 10.1807 17.5205 20.8809 17.5205zM353.99 918.1h96.1201c9.42969 0 15.6797 -7.45996 14.0498 -16.7402l-20.5596 -116.56c-1.86035 -10.54 -10.1807 -17.5205 -20.8809 -17.5205h-96.1201c-9.42969 0 -15.6797 7.45996 -14.0498 16.7402l20.5596 116.56
c1.86035 10.54 10.1807 17.5205 20.8809 17.5205zM537.9 918.1h96.1201c9.42969 0 15.6797 -7.45996 14.0498 -16.7402l-20.5596 -116.56c-1.86035 -10.54 -10.1807 -17.5205 -20.8809 -17.5205h-96.1201c-9.42969 0 -15.6797 7.45996 -14.0498 16.7402l20.5596 116.56
c1.86035 10.54 10.1807 17.5205 20.8809 17.5205zM587.49 700h125.017c9.42969 0 15.6797 -7.45996 14.0498 -16.7402l-75.4297 -427.75c-33.9297 -192.46 -165.069 -268.51 -308.619 -268.51h-15c-143.54 0 -255.34 87.2197 -221.399 279.68l73.3096 415.8
c1.86035 10.54 10.1807 17.5205 20.8809 17.5205h125.04c9.41992 0 15.6797 -7.4502 14.04 -16.7305l-75.4297 -427.79c-15.4697 -87.7197 15 -133.2 86 -133.2h8.08984c71 0 117.86 45.79 133.33 133.521l75.2402 426.68c1.86035 10.54 10.1807 17.5205 20.8809 17.5205z
" />
    <glyph glyph-name="Ugrave" unicode="&#xd9;" horiz-adv-x="663" 
d="M349.92 937.55l95.9199 -0.000976562c10.9805 0 19.9209 -6.49023 23.3311 -16.9404l46.3398 -145.47c1.83008 -5.62012 -1.78027 -10.5898 -7.69043 -10.5898h-74.29c-9.20996 0 -17 4.82031 -21.1104 13.0508l-70.2002 147.47
c-3.12988 6.23047 0.719727 12.4805 7.7002 12.4805zM587.5 699.999l125.017 -0.00878906c9.42969 0 15.6797 -7.4502 14.0498 -16.7305l-75.4297 -427.76c-33.9297 -192.45 -165.069 -268.5 -308.619 -268.5h-15c-143.54 0 -255.34 87.2197 -221.399 279.67l73.3096 415.81
c1.86035 10.54 10.1807 17.5205 20.8809 17.5205h125.04c9.41992 0 15.6797 -7.45996 14.04 -16.7402l-75.4297 -427.78c-15.4697 -87.7305 15 -133.211 86 -133.211h8.08984c71 0 117.86 45.7998 133.33 133.52l75.2402 426.69
c1.86035 10.54 10.1807 17.5205 20.8809 17.5205z" />
    <glyph glyph-name="Uhungarumlaut" unicode="&#x170;" horiz-adv-x="663" 
d="M612.35 937.55l84.5889 -0.000976562c9.16016 0 13.3604 -9.11035 7.41016 -16.0801l-121.5 -146.7c-5.69043 -6.66016 -13.4307 -10.2197 -22.2002 -10.2197h-63.1797c-8.08984 0 -12.1396 7.63965 -7.59961 14.3301l97.6797 145.53
c5.73047 8.44043 14.6006 13.1406 24.8008 13.1406zM491.898 937.549h84.4492c9.20996 0 13.4102 -9.16016 7.41016 -16.1406l-122.25 -146.72c-5.69043 -6.61035 -13.4004 -10.1406 -22.1201 -10.1406h-62.3701c-8.08984 0 -12.1396 7.63965 -7.59961 14.3301
l97.6699 145.53c5.74023 8.44043 14.6104 13.1406 24.8105 13.1406zM587.498 699.999l125.017 -0.00878906c9.42969 0 15.6797 -7.4502 14.0498 -16.7305l-75.4297 -427.76c-33.9297 -192.45 -165.069 -268.5 -308.619 -268.5h-15
c-143.54 0 -255.34 87.2197 -221.399 279.67l73.3096 415.81c1.86035 10.54 10.1807 17.5205 20.8809 17.5205h125.04c9.41992 0 15.6797 -7.45996 14.04 -16.7402l-75.4297 -427.78c-15.4697 -87.7305 15 -133.211 86 -133.211h8.08984c71 0 117.86 45.7998 133.33 133.52
l75.2402 426.69c1.86035 10.54 10.1807 17.5205 20.8809 17.5205z" />
    <glyph glyph-name="Umacron" unicode="&#x16a;" horiz-adv-x="663" 
d="M373.82 872.27h224.22c9.41992 0 15.6797 -7.4502 14.04 -16.7305l-12.4697 -70.75c-1.86035 -10.54 -10.1807 -17.5205 -20.8809 -17.5205h-224.22c-9.41992 0 -15.6797 7.45996 -14.04 16.7402l12.4697 70.7402c1.86035 10.54 10.1807 17.5205 20.8809 17.5205z
M587.49 700l125.027 -0.00878906c9.41992 0 15.6797 -7.4502 14.04 -16.7305l-75.4199 -427.76c-33.9404 -192.45 -165.08 -268.5 -308.62 -268.5h-15c-143.55 0 -255.34 87.2197 -221.41 279.67l73.3203 415.81c1.86035 10.54 10.1807 17.5205 20.8809 17.5205h125.03
c9.42969 0 15.6797 -7.45996 14.0498 -16.7402l-75.4297 -427.78c-15.4697 -87.7305 14.9902 -133.211 85.9902 -133.211h8.08984c71 0 117.87 45.7998 133.34 133.52l75.2305 426.69c1.86035 10.54 10.1807 17.5205 20.8809 17.5205z" />
    <glyph glyph-name="Uogonek" unicode="&#x172;" horiz-adv-x="663" 
d="M587.49 700l125.019 -0.00878906c9.42969 0 15.6797 -7.4502 14.0498 -16.7305l-75.4297 -427.76c-26.6299 -151.02 -113.12 -230.369 -218.49 -257.529c-32.4404 -27.6797 -78.3408 -58.8896 -84.7305 -97.4697c-4.45996 -23.9297 8.62988 -38.96 33.8398 -38.96
c5.13965 0 10.0596 0.610352 17.29 1.9707c6.29004 1.01953 11.0303 -3.38086 9.9502 -9.51074l-7.41992 -42.0703c-1.25 -7.08008 -5.28027 -13.0303 -11.8301 -16.0303c-16.8799 -7.36035 -34.6797 -10.9102 -52.7295 -10.9102c-58.5996 0 -95.6797 38.6201 -83.3096 97.5
c7.09961 33.4697 29.6094 69.7295 78.459 104.51h-4.65039c-143.54 0 -255.34 87.2197 -221.399 279.67l73.3096 415.81c1.86035 10.54 10.1807 17.5205 20.8809 17.5205h125.04c9.41992 0 15.6797 -7.45996 14.04 -16.7402l-75.4297 -427.78
c-15.4697 -87.7305 15 -133.211 86 -133.211h8.08984c71 0 117.86 45.7998 133.33 133.52l75.2402 426.69c1.86035 10.54 10.1807 17.5205 20.8809 17.5205z" />
    <glyph glyph-name="Uring" unicode="&#x16e;" horiz-adv-x="663" 
d="M488.45 940.09c58 0 97.5312 -49.0283 87.2109 -107.528c-8.51953 -48.3203 -54.1094 -86.1904 -102.479 -86.1904c-58.9902 0 -98.3105 49.2197 -87.8506 108.529c8.30957 47.1396 53.5693 85.1895 103.119 85.1895zM486.392 873.102
c-17.0596 0 -32.6289 -13.1592 -35.5088 -29.499c-2.86035 -16.2002 7.60938 -30.2305 24.3594 -30.2305c17.0596 0 32.0195 14.3398 34.9297 30.8594c2.83008 16.0303 -7.03027 28.8701 -23.7803 28.8701zM587.481 700.013l125.027 -0.00878906
c9.41992 0 15.6797 -7.4502 14.04 -16.7305l-75.4199 -427.76c-33.9404 -192.45 -165.08 -268.5 -308.62 -268.5h-15c-143.55 0 -255.34 87.2197 -221.41 279.67l73.3203 415.81c1.86035 10.54 10.1807 17.5205 20.8809 17.5205h125.03
c9.42969 0 15.6797 -7.45996 14.0498 -16.7402l-75.4297 -427.78c-15.4697 -87.7305 14.9902 -133.211 85.9902 -133.211h8.08984c71 0 117.87 45.7998 133.34 133.52l75.2305 426.69c1.86035 10.54 10.1807 17.5205 20.8809 17.5205z" />
    <glyph glyph-name="V" unicode="V" horiz-adv-x="619" 
d="M581.68 700l126.631 0.000976562c7.90039 0 12.5 -6.87012 9.5 -14.1797l-287 -673.25c-3.23047 -7.84961 -10.29 -12.5693 -18.7803 -12.5693h-203.32c-7.58008 0 -13.2197 5.2998 -13.6895 12.8594l-49.2803 668.16c-0.629883 10.8496 7.03027 18.9795 17.9102 18.9795
h117.02c12.1904 0 21.2305 -8.5498 21.9102 -20.7197l26.3701 -344.19l-0.320312 -209.73h5.36035l71.6602 209.74l150.05 347.51c4.46973 10.8496 14.2393 17.3896 25.9795 17.3896z" />
    <glyph glyph-name="W" unicode="W" horiz-adv-x="1022" 
d="M982.25 700h128.229c7.9502 0 12.5498 -6.91016 9.5 -14.2402l-285.34 -673.27c-3.25977 -7.7998 -10.29 -12.4902 -18.75 -12.4902l-180.06 0.0595703c-7.57031 0 -13.21 5.29004 -13.6904 12.8398l-16.5801 234.82l-1.55957 252.46h-8.74023l-88.6299 -252.46
l-100.33 -235.26c-3.25977 -7.79004 -10.29 -12.46 -18.7305 -12.46h-180.55c-7.5498 -0 -13.1797 5.26953 -13.6797 12.8096l-47.5801 668.07c-0.69043 10.9199 7.00977 19.1201 17.9502 19.1201h118.51c12.1104 0 21.1201 -8.48047 21.8701 -20.5703l21.3496 -316.52
l-2.0498 -225.09h7.09961l75.3203 225.06l137.33 324.84c3.2002 7.66992 10.1201 12.2803 18.4297 12.2803h135.91c12.1201 0 21.1299 -8.48047 21.8701 -20.5703l21.3496 -316.52l-1.96973 -225.09h7.07031l75.3096 225.1l135.21 319.81
c4.50977 10.79 14.2402 17.2705 25.9307 17.2705z" />
    <glyph glyph-name="Wacute" unicode="&#x1e82;" horiz-adv-x="1022" 
d="M721.22 937.55l97.6787 -0.000976562c9.16016 0 13.3604 -9.11035 7.41016 -16.0801l-121.5 -146.7c-5.69043 -6.65039 -13.4307 -10.2207 -22.2002 -10.2207h-76.2695c-8.08984 0 -12.1396 7.65039 -7.59961 14.3408l97.6797 145.53
c5.73047 8.44043 14.6006 13.1309 24.8008 13.1309zM982.248 699.999h128.229c7.9502 0.00976562 12.5605 -6.90039 9.50098 -14.2305l-285.34 -673.27c-3.25 -7.7998 -10.29 -12.4902 -18.7402 -12.4902l-180.07 0.0498047c-7.57031 0 -13.2002 5.29004 -13.6807 12.8496
l-16.5801 234.82l-1.55957 252.45h-8.75l-88.6201 -252.45l-100.34 -235.27c-3.25977 -7.78027 -10.2793 -12.46 -18.7197 -12.46h-180.55c-7.55957 0 -13.1895 5.26953 -13.6797 12.8096l-47.5801 668.07c-0.69043 10.9199 7 19.1201 17.9404 19.1201h118.51
c12.1201 0 21.1299 -8.48047 21.8701 -20.5703l21.3496 -316.52l-2.04004 -225.09h7.08984l75.3203 225.06l137.34 324.84c3.2002 7.66992 10.1201 12.2803 18.4297 12.2803h135.91c12.1104 0 21.1201 -8.48047 21.8701 -20.5703l21.3496 -316.52l-1.96973 -225.09h7.05957
l75.3203 225.1l135.21 319.81c4.5 10.79 14.2305 17.2705 25.9209 17.2705z" />
    <glyph glyph-name="Wcircumflex" unicode="&#x174;" horiz-adv-x="1022" 
d="M639.07 937.55l66.5801 -0.000976562c9.16016 0 16.9199 -4.78027 21.0498 -12.9502l72.0996 -147.53c3.16016 -6.24023 -0.700195 -12.5303 -7.7002 -12.5303h-88.0498c-7.74023 0 -14.0098 4.65039 -16.2695 12.0605l-22.7402 72.5703l-52.7598 -75.0098
c-4.38965 -6.19043 -11 -9.61035 -18.5898 -9.61035h-88.5898c-9.2002 0 -13.4102 9.15039 -7.41992 16.1309l125.47 149.09c4.33984 5.07031 10.2402 7.78027 16.9199 7.78027zM982.24 699.989l128.229 0.00878906c7.9502 0 12.5605 -6.91016 9.50098 -14.2402
l-285.34 -673.27c-3.25 -7.7998 -10.29 -12.4902 -18.7402 -12.4902l-180.07 0.0595703c-7.57031 0 -13.2002 5.29004 -13.6807 12.8398l-16.5801 234.82l-1.55957 252.46h-8.75l-88.6201 -252.46l-100.34 -235.26c-3.25977 -7.79004 -10.2793 -12.4697 -18.7197 -12.4697
h-180.55c-7.55957 0 -13.1895 5.26953 -13.6797 12.8096l-47.5801 668.08c-0.69043 10.9199 7 19.1104 17.9404 19.1104h118.51c12.1201 0 21.1299 -8.46973 21.8701 -20.5596l21.3496 -316.53l-2.04004 -225.09h7.08984l75.3203 225.06l137.34 324.84
c3.2002 7.66992 10.1201 12.2803 18.4297 12.2803h135.91c12.1104 0 21.1201 -8.46973 21.8701 -20.5596l21.3496 -316.53l-1.96973 -225.09h7.05957l75.3203 225.11l135.21 319.81c4.5 10.7803 14.2305 17.2607 25.9209 17.2607z" />
    <glyph glyph-name="Wdieresis" unicode="&#x1e84;" horiz-adv-x="1022" 
d="M533.21 918.1h96.1201c9.42969 0 15.6797 -7.45996 14.0498 -16.7402l-20.5596 -116.56c-1.86035 -10.54 -10.1807 -17.5205 -20.8809 -17.5205h-96.1201c-9.42969 0 -15.6797 7.45996 -14.0498 16.7402l20.5596 116.56c1.86035 10.54 10.1807 17.5205 20.8809 17.5205z
M717.12 918.1h96.1201c9.42969 0 15.6797 -7.45996 14.0498 -16.7402l-20.5596 -116.56c-1.86035 -10.54 -10.1807 -17.5205 -20.8809 -17.5205h-96.1201c-9.42969 0 -15.6797 7.45996 -14.0498 16.7402l20.5596 116.56c1.86035 10.54 10.1807 17.5205 20.8809 17.5205z
M982.25 700h128.229c7.9502 0.00976562 12.5605 -6.90039 9.50098 -14.2305l-285.34 -673.27c-3.25 -7.7998 -10.29 -12.4902 -18.7402 -12.4902l-180.07 0.0498047c-7.57031 0 -13.2002 5.29004 -13.6807 12.8496l-16.5801 234.82l-1.55957 252.45h-8.75l-88.6201 -252.45
l-100.34 -235.27c-3.25977 -7.78027 -10.2793 -12.46 -18.7197 -12.46h-180.55c-7.55957 -0 -13.1895 5.26953 -13.6797 12.8096l-47.5801 668.07c-0.69043 10.9199 7 19.1201 17.9404 19.1201h118.51c12.1201 0 21.1299 -8.48047 21.8701 -20.5703l21.3496 -316.52
l-2.04004 -225.09h7.08984l75.3203 225.06l137.34 324.84c3.2002 7.66992 10.1201 12.2803 18.4297 12.2803h135.91c12.1104 0 21.1201 -8.48047 21.8701 -20.5703l21.3496 -316.52l-1.96973 -225.09h7.05957l75.3203 225.1l135.21 319.81
c4.5 10.79 14.2305 17.2705 25.9209 17.2705z" />
    <glyph glyph-name="Wgrave" unicode="&#x1e80;" horiz-adv-x="1022" 
d="M528.17 937.55l95.9189 0.000976562c10.9902 0 19.9307 -6.49023 23.3311 -16.9307l46.3496 -145.47c1.83008 -5.62012 -1.78027 -10.6006 -7.69043 -10.6006h-74.2998c-9.20996 0 -17 4.82031 -21.0996 13.0605l-70.21 147.47
c-3.12988 6.21973 0.730469 12.4697 7.7002 12.4697zM982.249 700.001h128.229c7.9502 0.00976562 12.5605 -6.90039 9.50098 -14.2305l-285.34 -673.27c-3.25 -7.7998 -10.29 -12.4902 -18.7402 -12.4902l-180.07 0.0498047c-7.57031 0 -13.2002 5.29004 -13.6807 12.8496
l-16.5801 234.82l-1.55957 252.45h-8.75l-88.6201 -252.45l-100.34 -235.27c-3.25977 -7.78027 -10.2793 -12.46 -18.7197 -12.46h-180.55c-7.55957 0 -13.1895 5.26953 -13.6797 12.8096l-47.5801 668.07c-0.69043 10.9199 7 19.1201 17.9404 19.1201h118.51
c12.1201 0 21.1299 -8.48047 21.8701 -20.5703l21.3496 -316.52l-2.04004 -225.09h7.08984l75.3203 225.06l137.34 324.84c3.2002 7.66992 10.1201 12.2803 18.4297 12.2803h135.91c12.1104 0 21.1201 -8.48047 21.8701 -20.5703l21.3496 -316.52l-1.96973 -225.09h7.05957
l75.3203 225.1l135.21 319.81c4.5 10.79 14.2305 17.2705 25.9209 17.2705z" />
    <glyph glyph-name="X" unicode="X" horiz-adv-x="649" 
d="M592.04 700l135.521 -0.00878906c10.21 0 15.2295 -9.75 9.30957 -18.0596l-237.68 -325.75l126.83 -342.78c2.49023 -7.04004 -2 -13.4004 -9.46973 -13.4004h-136.59c-12.3701 0 -22.5098 7.19043 -26.5898 18.8701l-58.3301 152.22l-18.5498 93.2803
l-7.20996 -0.0302734l-48.96 -93.2998l-117.42 -156.89c-6.58008 -9.12012 -16.4004 -14.1504 -27.6504 -14.1504h-137.93c-10.25 0 -15.2803 9.79004 -9.31055 18.1201l247.63 338.06l-121.2 330.48c-2.4502 7.01953 2.04004 13.3398 9.48047 13.3398h134.16
c12.3604 0 22.4805 -7.17969 26.5703 -18.8398l54.6602 -141.53l19.5898 -93.25l7.25977 -0.0195312l48.21 93.2695l110.06 146.27c6.58008 9.08984 16.3896 14.0996 27.6094 14.0996z" />
    <glyph glyph-name="Y" unicode="Y" horiz-adv-x="629" 
d="M582.99 700l135.932 0.00878906c9.61035 0 14.54 -8.96973 9.40039 -17.0898l-293.26 -453.17l-40.1299 -218.89c-1.2002 -6.54004 -6.39062 -10.8604 -13.041 -10.8604h-128.37c-9.5 0 -15.7803 7.5498 -14.0605 16.8896l39.0098 212.86l-132.9 451.43
c-2.86035 10.1104 3.71973 18.8203 14.2393 18.8203h129.2c9.61035 0 17.3301 -5.87988 19.8896 -15.1494l57.9805 -192.31l10.8896 -119.36h3.74023l49.8096 119.35l128.98 195.03c5.08008 7.95996 13.25 12.4404 22.6904 12.4404z" />
    <glyph glyph-name="Yacute" unicode="&#xdd;" horiz-adv-x="629" 
d="M527.39 937.55l97.6787 -0.000976562c9.16016 0 13.3604 -9.11035 7.41016 -16.0801l-121.5 -146.7c-5.69043 -6.66016 -13.4307 -10.2197 -22.2002 -10.2197h-76.2695c-8.08984 0 -12.1396 7.63965 -7.59961 14.3301l97.6797 145.53
c5.73047 8.44043 14.6006 13.1406 24.8008 13.1406zM582.988 699.999l135.932 0.00878906c9.61035 0 14.54 -8.96973 9.40039 -17.0898l-293.26 -453.17l-40.1299 -218.89c-1.2002 -6.54004 -6.39062 -10.8604 -13.041 -10.8604h-128.37
c-9.5 0 -15.7803 7.5498 -14.0605 16.8896l39.0098 212.86l-132.9 451.43c-2.86035 10.1104 3.71973 18.8203 14.2393 18.8203h129.2c9.61035 0 17.3301 -5.87988 19.8896 -15.1494l57.9805 -192.31l10.8896 -119.36h3.74023l49.8096 119.35l128.98 195.03
c5.08008 7.95996 13.25 12.4404 22.6904 12.4404z" />
    <glyph glyph-name="Ycircumflex" unicode="&#x176;" horiz-adv-x="629" 
d="M442.16 937.55l66.5703 -0.0117188c9.16016 0 16.9199 -4.76953 21.0498 -12.9492l72.0996 -147.52c3.16992 -6.25 -0.69043 -12.5303 -7.7002 -12.5303h-88.04c-7.75 0 -14.0195 4.63965 -16.2695 12.0498l-22.7402 72.5801l-52.7695 -75.0195
c-4.37988 -6.19043 -11 -9.61035 -18.5801 -9.61035h-88.5996c-9.2002 0 -13.4004 9.15039 -7.41016 16.1309l125.46 149.09c4.34961 5.07031 10.25 7.79004 16.9297 7.79004zM582.99 699.988l135.932 0.00878906c9.61035 0 14.54 -8.96973 9.38965 -17.0801
l-293.25 -453.17l-40.1299 -218.9c-1.20996 -6.54004 -6.38965 -10.8496 -13.04 -10.8496h-128.37c-9.50977 0 -15.79 7.54004 -14.0703 16.8896l39.0098 212.86l-132.9 451.42c-2.86035 10.1201 3.72949 18.8203 14.2393 18.8203h129.2
c9.62012 0 17.3398 -5.87988 19.8896 -15.1396l57.9902 -192.31l10.8896 -119.37h3.74023l49.7998 119.36l128.98 195.03c5.08008 7.95996 13.25 12.4297 22.7002 12.4297z" />
    <glyph glyph-name="Ydieresis" unicode="&#x178;" horiz-adv-x="629" 
d="M336.43 918.09h96.1201c9.42969 0 15.6797 -7.4502 14.0498 -16.7305l-20.5596 -116.56c-1.86035 -10.54 -10.1807 -17.5205 -20.8809 -17.5205h-96.1201c-9.42969 0 -15.6797 7.4502 -14.0498 16.7305l20.5596 116.56c1.86035 10.54 10.1807 17.5205 20.8809 17.5205z
M520.34 918.09h96.1201c9.42969 0 15.6797 -7.4502 14.0498 -16.7305l-20.5596 -116.56c-1.86035 -10.54 -10.1807 -17.5205 -20.8809 -17.5205h-96.1201c-9.42969 0 -15.6797 7.4502 -14.0498 16.7305l20.5596 116.56c1.86035 10.54 10.1807 17.5205 20.8809 17.5205z
M582.99 700l135.932 0.00878906c9.61035 0 14.54 -8.96973 9.40039 -17.0898l-293.26 -453.17l-40.1299 -218.89c-1.2002 -6.54004 -6.39062 -10.8604 -13.041 -10.8604h-128.37c-9.5 0 -15.7803 7.5498 -14.0605 16.8896l39.0098 212.86l-132.9 451.43
c-2.86035 10.1104 3.71973 18.8203 14.2393 18.8203h129.2c9.61035 0 17.3301 -5.87988 19.8896 -15.1494l57.9805 -192.31l10.8896 -119.36h3.74023l49.8096 119.35l128.98 195.03c5.08008 7.95996 13.25 12.4404 22.6904 12.4404z" />
    <glyph glyph-name="Ygrave" unicode="&#x1ef2;" horiz-adv-x="629" 
d="M334.51 937.55l95.9189 -0.000976562c10.9902 0 19.9307 -6.49023 23.3311 -16.9404l46.3496 -145.47c1.83008 -5.62012 -1.78027 -10.5898 -7.69043 -10.5898h-74.2998c-9.20996 0 -17 4.82031 -21.0996 13.0508l-70.21 147.47
c-3.12988 6.23047 0.730469 12.4805 7.7002 12.4805zM582.999 699.999l135.932 0.00878906c9.61035 0 14.54 -8.96973 9.38965 -17.0898l-293.25 -453.17l-40.1299 -218.89c-1.20996 -6.54004 -6.38965 -10.8604 -13.04 -10.8604h-128.37
c-9.50977 0 -15.79 7.5498 -14.0703 16.8896l39.0098 212.86l-132.9 451.43c-2.86035 10.1104 3.72949 18.8203 14.2393 18.8203h129.2c9.62012 0 17.3398 -5.87988 19.8896 -15.1494l57.9902 -192.31l10.8896 -119.36h3.74023l49.7998 119.35l128.98 195.03
c5.08008 7.95996 13.25 12.4404 22.7002 12.4404z" />
    <glyph glyph-name="Z" unicode="Z" horiz-adv-x="550" 
d="M252.2 135.27l269.748 0.00878906c9.42969 0 15.6797 -7.45996 14.0498 -16.7402l-18.9697 -107.56c-1.16016 -6.59961 -6.37988 -10.9795 -13.0801 -10.9795h-452.68c-9.26953 0 -15.4795 7.29004 -13.999 16.4404l14.0996 87.5303
c1.58008 9.76953 5.33008 18.1895 11.54 25.8896l352.14 434.86h-252.39c-9.41992 0 -15.6797 7.45996 -14.04 16.7402l17.8096 101.01c1.86035 10.54 10.1807 17.5205 20.8809 17.5205h428.66c9.28027 0 15.4805 -7.28027 14.0107 -16.4404l-14.1104 -87.5303
c-1.57031 -9.76953 -5.32031 -18.1797 -11.5303 -25.8896z" />
    <glyph glyph-name="Zacute" unicode="&#x179;" horiz-adv-x="550" 
d="M488.61 937.55l97.6787 -0.000976562c9.16016 0 13.3604 -9.11035 7.41016 -16.0801l-121.5 -146.7c-5.69043 -6.66016 -13.4307 -10.2197 -22.2002 -10.2197h-76.2695c-8.08984 0 -12.1396 7.63965 -7.59961 14.3301l97.6797 145.53
c5.73047 8.44043 14.6006 13.1406 24.8008 13.1406zM252.199 135.269h269.748c9.42969 0 15.6797 -7.4502 14.0498 -16.7305l-18.9697 -107.56c-1.16016 -6.61035 -6.37988 -10.9805 -13.0801 -10.9805h-452.68c-9.26953 0 -15.4795 7.28027 -13.999 16.4404
l14.0996 87.5303c1.58008 9.76953 5.33008 18.1797 11.54 25.8896l352.14 434.86h-252.39c-9.41992 0 -15.6797 7.4502 -14.04 16.7305l17.8096 101.02c1.86035 10.54 10.1807 17.5205 20.8809 17.5205h428.66c9.28027 0 15.4805 -7.29004 14.0107 -16.4404
l-14.1104 -87.5303c-1.57031 -9.76953 -5.32031 -18.1895 -11.5303 -25.8896z" />
    <glyph glyph-name="Zcaron" unicode="&#x17d;" horiz-adv-x="550" 
d="M500.89 937.55l84.9287 -0.00195312c9.2002 0 13.4102 -9.15039 7.41992 -16.1201l-125.47 -149.1c-4.33984 -5.07031 -10.2402 -7.78027 -16.9199 -7.78027h-71.0303c-6.34961 0 -11.7197 3.32031 -14.5498 8.99023l-74.1396 151.48
c-3.16992 6.25 0.69043 12.5303 7.69043 12.5303h88.0498c7.75 0 14.0195 -4.63965 16.2695 -12.0498l22.7402 -72.5801l50.6504 72.04c5.75 8.11035 14.4199 12.5908 24.3604 12.5908zM252.188 135.268l269.748 0.00878906c9.42969 0 15.6797 -7.45996 14.0498 -16.7402
l-18.9697 -107.56c-1.16016 -6.59961 -6.37988 -10.9795 -13.0801 -10.9795h-452.68c-9.26953 0 -15.4795 7.29004 -13.999 16.4404l14.0996 87.5303c1.58008 9.76953 5.33008 18.1895 11.54 25.8896l352.14 434.86h-252.39c-9.41992 0 -15.6797 7.45996 -14.04 16.7402
l17.8096 101.01c1.86035 10.54 10.1807 17.5205 20.8809 17.5205h428.66c9.28027 0 15.4805 -7.28027 14.0107 -16.4404l-14.1104 -87.5303c-1.57031 -9.76953 -5.32031 -18.1797 -11.5303 -25.8896z" />
    <glyph glyph-name="Zdotaccent" unicode="&#x17b;" horiz-adv-x="550" 
d="M378.4 918.09h117.4c9.41992 0 15.6797 -7.4502 14.04 -16.7305l-20.5498 -116.56c-1.86035 -10.54 -10.1807 -17.5205 -20.8809 -17.5205h-117.4c-9.41992 0 -15.6797 7.4502 -14.04 16.7305l20.5498 116.56c1.86035 10.54 10.1807 17.5205 20.8809 17.5205z
M252.201 135.27h269.748c9.42969 0 15.6797 -7.4502 14.0498 -16.7305l-18.9697 -107.56c-1.16016 -6.61035 -6.37988 -10.9805 -13.0801 -10.9805h-452.68c-9.26953 0 -15.4795 7.28027 -13.999 16.4404l14.0996 87.5303c1.58008 9.76953 5.33008 18.1797 11.54 25.8896
l352.14 434.86h-252.39c-9.41992 0 -15.6797 7.4502 -14.04 16.7305l17.8096 101.02c1.86035 10.54 10.1807 17.5205 20.8809 17.5205h428.66c9.28027 0 15.4805 -7.29004 14.0107 -16.4404l-14.1104 -87.5303c-1.57031 -9.76953 -5.32031 -18.1895 -11.5303 -25.8896z" />
    <glyph glyph-name="a" unicode="a" horiz-adv-x="533" 
d="M297.1 513l3.19922 -0.0107422c54.5498 0 97.7197 -31.79 126.83 -69.1797l17.9902 44.6904c3.29004 7.2002 9.95996 11.4902 17.9004 11.4902h102.07c9.42969 0 15.6797 -7.45996 14.0498 -16.7402l-83.2803 -472.28
c-1.16016 -6.61035 -6.37988 -10.9805 -13.0801 -10.9805h-105.65c-7.58984 0 -13.1396 5.41992 -13.3096 13l1.25977 35.3301c-43.2803 -37.4004 -93.5498 -61.3301 -148.1 -61.3301h-3.17969c-120.37 0 -165 101.59 -143.95 220.95l16.7998 95.2803
c21.04 119.36 90.0801 209.78 210.45 209.78zM328.539 394.079l-4.46875 0.000976562c-48.4502 0 -79.3506 -34.1602 -91.0508 -100.521l-15.4199 -87.46c-11.7002 -66.3604 6.91016 -100.2 55.3604 -100.2h4.45996c25.2695 0 56.0195 10.1201 88.3691 31.6602
l39.8799 225.09c-24.7402 21.5498 -51.8604 31.4297 -77.1299 31.4297z" />
    <glyph glyph-name="aacute" unicode="&#xe1;" horiz-adv-x="533" 
d="M427.71 737.55l97.6787 -0.000976562c9.16016 0 13.3604 -9.11035 7.41016 -16.0801l-121.5 -146.7c-5.69043 -6.65039 -13.4307 -10.2207 -22.2002 -10.2207h-76.2695c-8.08984 0 -12.1396 7.65039 -7.59961 14.3408l97.6797 145.53
c5.73047 8.44043 14.6006 13.1309 24.8008 13.1309zM297.099 512.999l3.19922 -0.0107422c54.5498 0 97.7197 -31.79 126.83 -69.1797l17.9902 44.6904c3.29004 7.2002 9.95996 11.4902 17.9004 11.4902h102.07c9.42969 0 15.6797 -7.45996 14.0498 -16.7402
l-83.2803 -472.28c-1.16016 -6.61035 -6.37988 -10.9805 -13.0801 -10.9805h-105.65c-7.58984 0 -13.1396 5.41992 -13.3096 13l1.25977 35.3301c-43.2803 -37.4004 -93.5498 -61.3301 -148.1 -61.3301h-3.17969c-120.37 0 -165 101.59 -143.95 220.95l16.7998 95.2803
c21.04 119.36 90.0801 209.78 210.45 209.78zM328.538 394.078l-4.46875 0.000976562c-48.4502 0 -79.3506 -34.1602 -91.0508 -100.521l-15.4199 -87.46c-11.7002 -66.3604 6.91016 -100.2 55.3604 -100.2h4.45996c25.2695 0 56.0195 10.1201 88.3691 31.6602
l39.8799 225.09c-24.7402 21.5498 -51.8604 31.4297 -77.1299 31.4297z" />
    <glyph glyph-name="abreve" unicode="&#x103;" horiz-adv-x="533" 
d="M520.73 693.27c7.16992 2.74023 13.4785 -2.35059 12.1582 -9.82031l-12.9102 -73.2305c-1.12988 -6.41016 -4.53027 -11.7402 -10.04 -15.2305c-38.0703 -23.8203 -83.6904 -37.71 -135.33 -37.71c-55.75 0 -99.75 15.5703 -126.42 34.6807
c-7.26953 5.23047 -9.97949 13.9805 -8.40918 22.8906l13.0303 73.9004c0.950195 5.37988 6 8.00977 11.04 5.75977c45.2803 -20.5596 75.2402 -33.0498 124.021 -33.0498c49.25 0 84.5303 12.7598 132.86 31.8096zM297.089 512.999l3.19922 -0.0107422
c54.5498 0 97.7197 -31.79 126.83 -69.1797l17.9902 44.6904c3.29004 7.2002 9.95996 11.4902 17.9004 11.4902h102.07c9.42969 0 15.6797 -7.45996 14.0498 -16.7402l-83.2803 -472.28c-1.16016 -6.61035 -6.37988 -10.9805 -13.0801 -10.9805h-105.65
c-7.58984 0 -13.1396 5.41992 -13.3096 13l1.25977 35.3301c-43.2803 -37.4004 -93.5498 -61.3301 -148.1 -61.3301h-3.17969c-120.37 0 -165 101.59 -143.95 220.95l16.7998 95.2803c21.04 119.36 90.0801 209.78 210.45 209.78zM328.528 394.078l-4.46875 0.000976562
c-48.4502 0 -79.3506 -34.1602 -91.0508 -100.521l-15.4199 -87.46c-11.7002 -66.3604 6.91016 -100.2 55.3604 -100.2h4.45996c25.2695 0 56.0195 10.1201 88.3691 31.6602l39.8799 225.09c-24.7402 21.5498 -51.8604 31.4297 -77.1299 31.4297z" />
    <glyph glyph-name="acaron" unicode="&#x1ce;" horiz-adv-x="533" 
d="M458.05 737.55l84.9287 0.0107422c9.2002 0 13.4102 -9.15039 7.41992 -16.1309l-125.47 -149.09c-4.33984 -5.07031 -10.2402 -7.79004 -16.9199 -7.79004h-71.0303c-6.34961 0 -11.7197 3.32031 -14.5498 9l-74.1396 151.48
c-3.16992 6.24023 0.69043 12.5303 7.69043 12.5303h88.0498c7.75 0 14.0195 -4.65039 16.2695 -12.0605l22.7402 -72.5703l50.6504 72.04c5.75 8.09961 14.4199 12.5801 24.3604 12.5801zM297.089 513.001l3.19922 -0.0107422c54.5498 0 97.7197 -31.7803 126.83 -69.1807
l17.9902 44.6904c3.29004 7.20996 9.95996 11.4902 17.9004 11.4902h102.07c9.42969 0 15.6797 -7.4502 14.0498 -16.7305l-83.2803 -472.29c-1.16016 -6.59961 -6.37988 -10.9795 -13.0801 -10.9795h-105.65c-7.58984 0 -13.1396 5.42969 -13.3096 13l1.25977 35.3301
c-43.2803 -37.3896 -93.5498 -61.3193 -148.1 -61.3193h-3.17969c-120.37 0 -165 101.58 -143.95 220.95l16.7998 95.2695c21.04 119.37 90.0801 209.78 210.45 209.78zM328.528 394.08l-4.46875 0.0107422c-48.4502 0 -79.3506 -34.1602 -91.0508 -100.53
l-15.4199 -87.4502c-11.7002 -66.3701 6.91016 -100.21 55.3604 -100.21h4.45996c25.2695 0 56.0195 10.1201 88.3691 31.6699l39.8799 225.09c-24.7402 21.54 -51.8604 31.4199 -77.1299 31.4199z" />
    <glyph glyph-name="acircumflex" unicode="&#xe2;" horiz-adv-x="533" 
d="M359.62 737.55l66.5801 -0.000976562c9.16016 0 16.9199 -4.78027 21.0498 -12.9502l72.0996 -147.53c3.16016 -6.24023 -0.700195 -12.5303 -7.7002 -12.5303h-88.0498c-7.74023 0 -14.0098 4.65039 -16.2695 12.0605l-22.7402 72.5703l-52.7598 -75.0098
c-4.38965 -6.19043 -11 -9.61035 -18.5898 -9.61035h-88.5898c-9.2002 0 -13.4102 9.15039 -7.41992 16.1309l125.47 149.09c4.33984 5.07031 10.2402 7.78027 16.9199 7.78027zM297.09 512.989l3.19727 -0.0107422c54.5596 0 97.7295 -31.7803 126.84 -69.1807
l17.9805 44.6904c3.2998 7.20996 9.95996 11.4902 17.9102 11.4902h102.07c9.41992 0 15.6797 -7.4502 14.04 -16.7305l-83.2695 -472.29c-1.16992 -6.59961 -6.37988 -10.9795 -13.0898 -10.9795h-105.64c-7.58984 0 -13.1396 5.42969 -13.3193 13l1.25977 35.3301
c-43.2803 -37.3896 -93.54 -61.3193 -148.1 -61.3193h-3.17969c-120.36 0 -164.99 101.58 -143.95 220.95l16.7998 95.2695c21.0498 119.37 90.0898 209.78 210.45 209.78zM328.527 394.068l-4.45898 0.0107422c-48.46 0 -79.3604 -34.1602 -91.0605 -100.53
l-15.4199 -87.4502c-11.7002 -66.3701 6.91016 -100.21 55.3701 -100.21h4.4502c25.2803 0 56.0303 10.1201 88.3701 31.6699l39.8896 225.09c-24.75 21.54 -51.8604 31.4199 -77.1406 31.4199z" />
    <glyph glyph-name="adieresis" unicode="&#xe4;" horiz-adv-x="533" 
d="M255.25 718.1h96.1299c9.41992 0 15.6797 -7.45996 14.04 -16.7402l-20.5498 -116.56c-1.86035 -10.54 -10.1807 -17.5205 -20.8809 -17.5205h-96.1299c-9.41992 0 -15.6797 7.45996 -14.04 16.7402l20.5498 116.56c1.86035 10.54 10.1807 17.5205 20.8809 17.5205z
M439.16 718.1h96.1299c9.41992 0 15.6797 -7.45996 14.04 -16.7402l-20.5498 -116.56c-1.86035 -10.54 -10.1807 -17.5205 -20.8809 -17.5205h-96.1299c-9.41992 0 -15.6797 7.45996 -14.04 16.7402l20.5498 116.56c1.86035 10.54 10.1807 17.5205 20.8809 17.5205z
M297.1 513l3.19922 -0.0107422c54.5498 0 97.7197 -31.79 126.83 -69.1797l17.9902 44.6904c3.29004 7.2002 9.95996 11.4902 17.9004 11.4902h102.07c9.42969 0 15.6797 -7.45996 14.0498 -16.7402l-83.2803 -472.28
c-1.16016 -6.61035 -6.37988 -10.9805 -13.0801 -10.9805h-105.65c-7.58984 0 -13.1396 5.41992 -13.3096 13l1.25977 35.3301c-43.2803 -37.4004 -93.5498 -61.3301 -148.1 -61.3301h-3.17969c-120.37 0 -165 101.59 -143.95 220.95l16.7998 95.2803
c21.04 119.36 90.0801 209.78 210.45 209.78zM328.539 394.079l-4.46875 0.000976562c-48.4502 0 -79.3506 -34.1602 -91.0508 -100.521l-15.4199 -87.46c-11.7002 -66.3604 6.91016 -100.2 55.3604 -100.2h4.45996c25.2695 0 56.0195 10.1201 88.3691 31.6602
l39.8799 225.09c-24.7402 21.5498 -51.8604 31.4297 -77.1299 31.4297z" />
    <glyph glyph-name="agrave" unicode="&#xe0;" horiz-adv-x="533" 
d="M237.24 737.55l95.9189 0.000976562c10.9902 0 19.9307 -6.49023 23.3311 -16.9307l46.3496 -145.47c1.83008 -5.62012 -1.78027 -10.6006 -7.69043 -10.6006h-74.2998c-9.20996 0 -17 4.82031 -21.0996 13.0605l-70.21 147.47
c-3.12988 6.21973 0.730469 12.4697 7.7002 12.4697zM297.1 513.001l3.19922 -0.0107422c54.5498 0 97.7197 -31.79 126.83 -69.1797l17.9902 44.6904c3.29004 7.2002 9.95996 11.4902 17.9004 11.4902h102.07c9.42969 0 15.6797 -7.45996 14.0498 -16.7402
l-83.2803 -472.28c-1.16016 -6.61035 -6.37988 -10.9805 -13.0801 -10.9805h-105.65c-7.58984 0 -13.1396 5.41992 -13.3096 13l1.25977 35.3301c-43.2803 -37.4004 -93.5498 -61.3301 -148.1 -61.3301h-3.17969c-120.37 0 -165 101.59 -143.95 220.95l16.7998 95.2803
c21.04 119.36 90.0801 209.78 210.45 209.78zM328.539 394.08l-4.46875 0.000976562c-48.4502 0 -79.3506 -34.1602 -91.0508 -100.521l-15.4199 -87.46c-11.7002 -66.3604 6.91016 -100.2 55.3604 -100.2h4.45996c25.2695 0 56.0195 10.1201 88.3691 31.6602
l39.8799 225.09c-24.7402 21.5498 -51.8604 31.4297 -77.1299 31.4297z" />
    <glyph glyph-name="amacron" unicode="&#x101;" horiz-adv-x="533" 
d="M289.82 673.1h224.21c9.42969 0 15.6797 -7.45996 14.0498 -16.7402l-12.4805 -70.7402c-1.86035 -10.54 -10.1807 -17.5205 -20.8809 -17.5205h-224.21c-9.42969 0 -15.6797 7.4502 -14.0498 16.7305l12.4805 70.75c1.86035 10.54 10.1807 17.5205 20.8809 17.5205z
M297.101 513l3.19922 -0.0107422c54.5498 0 97.7197 -31.79 126.83 -69.1797l17.9902 44.6904c3.29004 7.2002 9.95996 11.4902 17.9004 11.4902h102.07c9.42969 0 15.6797 -7.45996 14.0498 -16.7402l-83.2803 -472.28
c-1.16016 -6.61035 -6.37988 -10.9805 -13.0801 -10.9805h-105.65c-7.58984 0 -13.1396 5.41992 -13.3096 13l1.25977 35.3301c-43.2803 -37.4004 -93.5498 -61.3301 -148.1 -61.3301h-3.17969c-120.37 0 -165 101.59 -143.95 220.95l16.7998 95.2803
c21.04 119.36 90.0801 209.78 210.45 209.78zM328.54 394.079l-4.46875 0.000976562c-48.4502 0 -79.3506 -34.1602 -91.0508 -100.521l-15.4199 -87.46c-11.7002 -66.3604 6.91016 -100.2 55.3604 -100.2h4.45996c25.2695 0 56.0195 10.1201 88.3691 31.6602
l39.8799 225.09c-24.7402 21.5498 -51.8604 31.4297 -77.1299 31.4297z" />
    <glyph glyph-name="aogonek" unicode="&#x105;" horiz-adv-x="533" 
d="M463 500l102.087 -0.0126953c9.41992 0 15.6797 -7.4502 14.04 -16.7305l-83.2695 -472.29c-1.16992 -6.59961 -6.37988 -10.9795 -13.0898 -10.9795c-32.5195 -28.1797 -80.5391 -59.9795 -87.0791 -99.499c-4.45996 -23.9297 8.62988 -38.9492 33.8398 -38.9492
c5.13965 0 10.0596 0.610352 17.29 1.9707c6.29004 1.00977 11.0303 -3.39062 9.9502 -9.51074l-7.41992 -42.0703c-1.25 -7.08984 -5.28027 -13.0303 -11.8301 -16.0303c-16.8799 -7.37012 -34.6797 -10.9102 -52.7295 -10.9102c-58.5996 0 -95.6797 38.6104 -83.3096 97.5
c7.86035 37.0596 34.6299 77.5596 97.7998 117.5h-22.1504c-7.58984 0 -13.1396 5.41992 -13.3096 13l1.25977 35.3301c-43.2803 -37.4004 -93.5498 -61.3301 -148.1 -61.3301h-3.17969c-120.37 0 -165 101.59 -143.95 220.95l16.7998 95.2803
c21.04 119.36 90.0801 209.78 210.45 209.78h3.17969c54.5498 0 97.7197 -31.79 126.83 -69.1797l17.9902 44.6904c3.29004 7.2002 9.95996 11.4902 17.9004 11.4902zM365.777 137.567l39.8711 225.091c-24.7402 21.5498 -51.8604 31.4297 -77.1299 31.4297h-4.45996
c-48.4502 0 -79.3506 -34.1602 -91.0508 -100.53l-15.4199 -87.4502c-11.7002 -66.3701 6.91016 -100.21 55.3604 -100.21h4.45996c25.2695 0 56.0195 10.1201 88.3691 31.6699z" />
    <glyph glyph-name="aring" unicode="&#xe5;" horiz-adv-x="533" 
d="M390.35 740.1c58 0 97.5312 -49.0391 87.2109 -107.529c-8.51953 -48.3301 -54.1094 -86.2002 -102.479 -86.2002c-58.9902 0 -98.3105 49.2197 -87.8506 108.54c8.30957 47.1396 53.5693 85.1895 103.119 85.1895zM388.291 673.101
c-17.0596 0 -32.6289 -13.1494 -35.5088 -29.4893c-2.86035 -16.21 7.60938 -30.2295 24.3594 -30.2295c17.0596 0 32.0195 14.3398 34.9297 30.8594c2.83008 16.0195 -7.03027 28.8594 -23.7803 28.8594zM297.091 513.012l3.19727 -0.0107422
c54.5596 0 97.7295 -31.79 126.84 -69.1797l17.9805 44.6904c3.2998 7.2002 9.95996 11.4902 17.9102 11.4902h102.07c9.41992 0 15.6797 -7.45996 14.04 -16.7402l-83.2695 -472.28c-1.16992 -6.61035 -6.37988 -10.9805 -13.0898 -10.9805h-105.64
c-7.58984 0 -13.1396 5.41992 -13.3193 13l1.25977 35.3301c-43.2803 -37.4004 -93.54 -61.3301 -148.1 -61.3301h-3.17969c-120.36 0 -164.99 101.59 -143.95 220.95l16.7998 95.2803c21.0498 119.36 90.0898 209.78 210.45 209.78zM328.528 394.091l-4.45898 0.000976562
c-48.46 0 -79.3604 -34.1602 -91.0605 -100.521l-15.4199 -87.46c-11.7002 -66.3604 6.91016 -100.2 55.3701 -100.2h4.4502c25.2803 0 56.0303 10.1201 88.3701 31.6602l39.8896 225.09c-24.75 21.5498 -51.8604 31.4297 -77.1406 31.4297z" />
    <glyph glyph-name="atilde" unicode="&#xe3;" horiz-adv-x="533" 
d="M505.87 689.13l40.5713 0.000976562c7.2002 0 10.9502 -6.84961 7.33008 -13.5098c-51.4805 -94.2402 -83.6904 -121.07 -128.841 -121.07h-4c-45.6797 0 -45.3301 39.6299 -81.46 39.6396c-16.7002 -0.00976562 -26.5 -8.74023 -39.9697 -22.9307
c-4.29004 -4.32031 -9.62988 -6.4707 -15.54 -6.4707h-40.4004c-7.19043 0 -10.9502 6.84961 -7.32031 13.5098c51.4697 94.25 83.6797 121.07 128.83 121.07h4c46.5898 0 49.5098 -39.6396 81.46 -39.6299c14.6602 -0.00976562 25.8604 8.25 39.9102 22.9902
c4.2998 4.24023 9.5498 6.40039 15.4297 6.40039zM297.102 513.001l3.19922 -0.0107422c54.5498 0 97.7197 -31.79 126.83 -69.1797l17.9902 44.6904c3.29004 7.2002 9.95996 11.4902 17.9004 11.4902h102.07c9.42969 0 15.6797 -7.45996 14.0498 -16.7402l-83.2803 -472.28
c-1.16016 -6.61035 -6.37988 -10.9805 -13.0801 -10.9805h-105.65c-7.58984 0 -13.1396 5.41992 -13.3096 13l1.25977 35.3301c-43.2803 -37.4004 -93.5498 -61.3301 -148.1 -61.3301h-3.17969c-120.37 0 -165 101.59 -143.95 220.95l16.7998 95.2803
c21.04 119.36 90.0801 209.78 210.45 209.78zM328.541 394.08l-4.46875 0.000976562c-48.4502 0 -79.3506 -34.1602 -91.0508 -100.521l-15.4199 -87.46c-11.7002 -66.3604 6.91016 -100.2 55.3604 -100.2h4.45996c25.2695 0 56.0195 10.1201 88.3691 31.6602
l39.8799 225.09c-24.7402 21.5498 -51.8604 31.4297 -77.1299 31.4297z" />
    <glyph glyph-name="ae" unicode="&#xe6;" horiz-adv-x="863" 
d="M659.73 513l11.0098 -0.0136719c117.73 0 200.391 -78.6797 174.73 -224.22l-9.66992 -57.5703c-1.16016 -6.83984 -6.54004 -11.3896 -13.4805 -11.3896h-284.99l-2.58984 -16.2002c-12.3496 -68.6104 28.5303 -100.16 90.29 -100.16h4.82031
c39.9297 0 86.4492 13.2305 149.049 34.5908c8.59961 2.82031 15.8594 -3.22949 14.3193 -11.9492l-14.8301 -84.0996c-2 -11.3398 -9.12012 -20.0303 -19.4297 -23.7002c-50.9805 -18.7402 -117.19 -31.2998 -167.24 -31.2998h-10.0898
c-57.4297 0 -104.52 16.5898 -136.17 46.6797l-4.00977 -22.71c-1.16016 -6.59961 -6.37988 -10.9795 -13.0801 -10.9795h-51.2402c-7.58984 0 -13.1396 5.42969 -13.3096 13l1.25977 35.3301c-43.2803 -37.3896 -93.5498 -61.3193 -148.1 -61.3193h-3.17969
c-120.37 0 -165 101.58 -143.95 220.95l16.7998 95.2695c21.04 119.37 90.0801 209.78 210.45 209.78h3.17969c54.5498 0 97.7197 -31.7803 126.83 -69.1807l17.9902 44.6904c3.29004 7.20996 9.95996 11.4902 17.9004 11.4902h47.6699
c7.70996 0 13.29 -5.55957 14.1396 -13l-2.79004 -17.6797c39.6904 28.54 87.5605 43.6904 137.711 43.6904zM651.271 404.717l-4.08984 -0.000976562c-46.8301 0 -81.9004 -35.5996 -95.96 -99.6992l158.57 0.30957c13.7197 66.6904 -4.37012 99.3906 -58.5205 99.3906z
M328.53 394.076l-4.45898 0.000976562c-48.46 0 -79.3604 -34.1602 -91.0605 -100.521l-15.4199 -87.46c-11.7002 -66.3604 6.91016 -100.2 55.3701 -100.2h4.4502c25.2803 0 56.0303 10.1201 88.3701 31.6602l39.8896 225.09
c-24.75 21.5498 -51.8604 31.4297 -77.1406 31.4297z" />
    <glyph glyph-name="b" unicode="b" horiz-adv-x="536" 
d="M186.98 737l113.679 -0.000976562c9.42969 0 15.6797 -7.45996 14.04 -16.75l-45.5303 -257.31c36.8203 29.9102 83.3203 50.0605 133.04 50.0605h9.73047c120.36 0 164.74 -96.1602 143.7 -215.53l-15.8799 -90.0596c-25.6699 -145.55 -124.15 -220.42 -255.87 -220.42
h-10.0898c-81.54 0 -158.43 28.71 -207.199 58.7695c-8.82031 5.49023 -12.79 15.2705 -11.0303 25.6104l110.47 647.94c1.7998 10.6299 10.1602 17.6895 20.9404 17.6895zM347.879 394.089l-4.45215 -0.0107422c-25.2695 0 -56.0195 -10.1201 -88.3691 -31.6699
l-41.5303 -234.23c24.5898 -14.7197 54.0703 -24.7295 77.0703 -24.7295h4.82031c47.5498 0 83.6299 34.1602 95.3301 100.521l15.8604 89.9102c11.7002 66.3701 -10.2695 100.21 -58.7295 100.21z" />
    <glyph glyph-name="c" unicode="c" horiz-adv-x="455" 
d="M351.91 513l10.999 -0.00292969c37.4697 0 85.7695 -11.9102 126.67 -30.0498c10.6201 -4.42969 16.2305 -15.1396 14.1406 -26.9893l-14.5303 -82.3799c-1.71973 -9.75 -11.0596 -14.4199 -20.4395 -10.2598c-44.7402 20.9102 -71.2305 30.7705 -100.021 30.7705
h-5.73047c-62.0801 0 -115.51 -39.8799 -129.529 -120.97l-8.16016 -46.5498c-14.0195 -79.4502 22.3408 -120.66 86.5713 -120.66h5.71973c28.9902 0 59.2598 10.1504 112.25 31.4199c9.11035 3.53027 17.2002 -2.64941 15.5703 -11.9092l-14.7803 -83.8604
c-1.92969 -10.9297 -8.75 -19.3994 -18.8301 -23.3691c-48.6904 -19.8203 -95.2402 -31.1904 -132.21 -31.1904h-11c-138.04 0 -219.83 95.9004 -195.021 241.7l8.91992 53.5498c24.21 142.26 131.93 230.75 269.41 230.75z" />
    <glyph glyph-name="cacute" unicode="&#x107;" horiz-adv-x="455" 
d="M411.73 737.55l97.6787 -0.000976562c9.16016 0 13.3604 -9.11035 7.41016 -16.0801l-121.5 -146.7c-5.69043 -6.66016 -13.4307 -10.2197 -22.2002 -10.2197h-76.2695c-8.08984 0 -12.1396 7.63965 -7.59961 14.3301l97.6797 145.53
c5.73047 8.44043 14.6006 13.1406 24.8008 13.1406zM351.909 512.999l10.999 -0.00292969c37.4697 0 85.7695 -11.9102 126.67 -30.0498c10.6201 -4.42969 16.2305 -15.1396 14.1406 -26.9893l-14.5303 -82.3799c-1.71973 -9.75 -11.0596 -14.4199 -20.4395 -10.2598
c-44.7402 20.9102 -71.2305 30.7705 -100.021 30.7705h-5.73047c-62.0801 0 -115.51 -39.8799 -129.529 -120.97l-8.16016 -46.5498c-14.0195 -79.4502 22.3408 -120.66 86.5713 -120.66h5.71973c28.9902 0 59.2598 10.1504 112.25 31.4199
c9.11035 3.53027 17.2002 -2.64941 15.5703 -11.9092l-14.7803 -83.8604c-1.92969 -10.9297 -8.75 -19.3994 -18.8301 -23.3691c-48.6904 -19.8203 -95.2402 -31.1904 -132.21 -31.1904h-11c-138.04 0 -219.83 95.9004 -195.021 241.7l8.91992 53.5498
c24.21 142.26 131.93 230.75 269.41 230.75z" />
    <glyph glyph-name="ccaron" unicode="&#x10d;" horiz-adv-x="455" 
d="M435.69 737.55l84.9287 -0.00195312c9.2002 0 13.4102 -9.15039 7.41992 -16.1201l-125.47 -149.1c-4.33984 -5.07031 -10.2402 -7.78027 -16.9199 -7.78027h-71.0303c-6.34961 0 -11.7197 3.32031 -14.5498 8.99023l-74.1396 151.48
c-3.16992 6.25 0.69043 12.5303 7.69043 12.5303h88.0498c7.75 0 14.0195 -4.63965 16.2695 -12.0498l22.7402 -72.5801l50.6504 72.04c5.75 8.11035 14.4199 12.5908 24.3604 12.5908zM351.899 512.998l10.999 0.0078125c37.4697 0 85.7695 -11.9199 126.67 -30.0596
c10.6201 -4.41992 16.2305 -15.1299 14.1406 -26.9795l-14.5303 -82.3896c-1.71973 -9.75 -11.0596 -14.4199 -20.4395 -10.25c-44.7402 20.9004 -71.2305 30.7705 -100.021 30.7705h-5.73047c-62.0801 0 -115.51 -39.8896 -129.529 -120.979l-8.16016 -46.54
c-14.0195 -79.46 22.3408 -120.66 86.5713 -120.66h5.71973c28.9902 0 59.2598 10.1504 112.25 31.4199c9.11035 3.51953 17.2002 -2.66016 15.5703 -11.9199l-14.7803 -83.8604c-1.92969 -10.9199 -8.75 -19.3896 -18.8301 -23.3594
c-48.6904 -19.8301 -95.2402 -31.2002 -132.21 -31.2002h-11c-138.04 0 -219.83 95.9102 -195.021 241.71l8.91992 53.54c24.21 142.26 131.93 230.75 269.41 230.75z" />
    <glyph glyph-name="ccedilla" unicode="&#xe7;" horiz-adv-x="455" 
d="M489.58 482.95c10.6201 -4.41992 16.2061 -15.1338 14.1162 -26.9834l-14.5303 -82.3896c-1.71973 -9.75 -11.0498 -14.4199 -20.4395 -10.25c-44.7402 20.9004 -71.2207 30.7705 -100.021 30.7705h-5.71973c-62.0898 0 -115.51 -39.8896 -129.529 -120.979
l-8.16992 -46.54c-14.0195 -79.46 22.3408 -120.66 86.5713 -120.66h5.73047c28.9805 0 59.25 10.1504 112.25 31.4199c9.11035 3.51953 17.2002 -2.66016 15.5703 -11.9199l-14.79 -83.8604c-1.91992 -10.9199 -8.75 -19.3896 -18.8301 -23.3594
c-48.6904 -19.8301 -95.2402 -31.2002 -132.2 -31.2002h-5.49023l-13.0098 -34.5c2.83984 0.650391 9.5 1.23047 13.96 1.23047c41.9404 0 74.0908 -35.2197 64.4209 -90.0801c-9.08008 -51.5 -53.4199 -78.6396 -115.6 -78.6396
c-29.5098 0 -58.2295 6.15039 -79.7793 15.8701c-6.90039 3.15039 -10.0508 10.3701 -8.60059 17.8701l4.66992 24.79c0.990234 5.16992 5.64062 7.71973 10.5908 6.0498c14.21 -4.63965 33.7998 -9.30957 55.5 -9.30957c27.4199 0 42.9102 9.62012 46.0303 27.3203
c2.79004 15.8398 -6.95996 25.1396 -28.7197 25.1396c-9.16016 0 -20.0605 -1.83008 -37.791 -7.67969c-2.08984 -0.700195 -4.16992 -0.580078 -6.08008 0.349609l-8.83008 4.23047c-2.42969 1.15039 -3.45996 3.69043 -2.5 6.20996l37.4102 98.6104
c-99.0498 25.1504 -152.95 112.23 -132.19 234.25l8.91992 53.54c24.21 142.26 131.93 230.75 269.41 230.75h11c37.4697 0 85.7695 -11.9102 126.67 -30.0498z" />
    <glyph glyph-name="cdotaccent" unicode="&#x10b;" horiz-adv-x="455" 
d="M327.7 718.09h117.4c9.41992 0 15.6797 -7.4502 14.04 -16.7305l-20.5498 -116.56c-1.86035 -10.54 -10.1807 -17.5205 -20.8809 -17.5205h-117.4c-9.41992 0 -15.6797 7.4502 -14.04 16.7305l20.5498 116.56c1.86035 10.54 10.1807 17.5205 20.8809 17.5205zM351.91 513
l10.999 -0.00292969c37.4697 0 85.7695 -11.9102 126.67 -30.0498c10.6201 -4.42969 16.2305 -15.1396 14.1406 -26.9893l-14.5303 -82.3799c-1.71973 -9.75 -11.0596 -14.4199 -20.4395 -10.2598c-44.7402 20.9102 -71.2305 30.7705 -100.021 30.7705h-5.73047
c-62.0801 0 -115.51 -39.8799 -129.529 -120.97l-8.16016 -46.5498c-14.0195 -79.4502 22.3408 -120.66 86.5713 -120.66h5.71973c28.9902 0 59.2598 10.1504 112.25 31.4199c9.11035 3.53027 17.2002 -2.64941 15.5703 -11.9092l-14.7803 -83.8604
c-1.92969 -10.9297 -8.75 -19.3994 -18.8301 -23.3691c-48.6904 -19.8203 -95.2402 -31.1904 -132.21 -31.1904h-11c-138.04 0 -219.83 95.9004 -195.021 241.7l8.91992 53.5498c24.21 142.26 131.93 230.75 269.41 230.75z" />
    <glyph glyph-name="d" unicode="d" horiz-adv-x="536" 
d="M496.11 737l114.12 0.000976562c9.41992 0 15.6797 -7.4502 14.04 -16.7305l-125.06 -709.29c-1.16992 -6.59961 -6.37988 -10.9795 -13.0898 -10.9795h-105.61c-7.62012 0 -13.1797 5.45996 -13.3301 13.0596l1.59961 28.9199
c-36.8896 -33.7402 -85.8398 -54.9805 -141.899 -54.9805h-9.71973c-122 0 -168.36 101.58 -147.311 220.95l14.9199 84.6299c25.6699 145.55 119.06 220.42 231.239 220.42h9.71973c40.1904 0 76.6709 -15.4805 102.211 -42.6201l47.4404 249.5
c1.99023 10.3301 10.21 17.1201 20.7295 17.1201zM335.641 394.101h-4.44922c-50.0898 0 -82.7197 -34.1602 -94.4199 -100.521l-15.4199 -87.46c-11.7002 -66.3604 8.62988 -100.2 58.7197 -100.2h4.45996c25.1904 0 56.2402 10.29 88.3604 31.6396l39.5996 223.48
c-25.4199 22.3604 -54.0303 33.0605 -76.8506 33.0605z" />
    <glyph glyph-name="eth" unicode="&#xf0;" horiz-adv-x="534" 
d="M595.52 745.48l32.499 -58.5391c3.58008 -6.46973 1.66992 -13.79 -4.62012 -17.6797l-38.8604 -24.0596c13.6299 -30.9297 18.4199 -69.1201 10.1201 -115.09l-57.8604 -323c-26.8301 -148.82 -137.88 -220.12 -259.729 -220.12h-11
c-119.42 0 -220.13 81.4297 -194.11 231.89l11.7695 67.54c21.1104 120.18 94.4307 209.479 213.73 209.479h9.73047c49.7197 0 93.7393 -20.4004 120.119 -50.3105l15.6299 89.0996c1.51953 8.79004 2.39941 16.9502 2.63965 24.5l-58.21 -36.0303
c-6.99023 -4.32031 -15.1602 -2.19043 -19.1406 5l-32.5 58.54c-3.58008 6.46973 -1.66992 13.7793 4.62012 17.6797l46.1299 28.5498c-10.8896 2.07031 -23.3096 3.07031 -37.3096 3.07031h-4.82031c-41.5596 0 -82.6094 -12.2305 -132.3 -30.1201
c-12.6396 -4.29004 -23.3799 4.67969 -21.0996 17.6494l14.0801 79.8701c1.66992 9.44043 8.12988 16.3906 17.3203 18.8408c49.7803 14.6797 94.2607 27.75 172.23 27.75h4.36035c42.4004 0 86.6602 -10.71 122.72 -33.3896l54.7305 33.8701
c6.99023 4.33008 15.1504 2.2002 19.1309 -4.99023zM384.729 206.422l24.6299 139.15c-24.7402 21.54 -51.8604 31.4199 -77.1299 31.4199h-4.45996c-48.4502 0 -82.7197 -34.1602 -94.4199 -100.521l-12.4004 -70.3701c-11.7002 -66.3604 14.54 -100.2 63.4502 -100.2
h5.73047c50.1797 0 82.8994 34.1602 94.5996 100.521z" />
    <glyph glyph-name="dcaron" unicode="&#x10f;" horiz-adv-x="713" 
d="M692.25 737l120.489 -0.00195312c9.26953 0 15.4795 -7.28027 14.0098 -16.4404l-13.8203 -85.9502c-1.15039 -7.17969 -3.81055 -13.3594 -8.2002 -19.1289l-80.1396 -110.35c-4.36035 -5.7998 -10.7207 -8.97949 -17.9902 -8.97949h-67.46
c-8.59961 0 -12.7197 8.33984 -7.50977 15.1602l74.6504 103.22h-36.4199c-9.41992 0 -15.6797 7.4502 -14.04 16.7305l15.5498 88.2197c1.86035 10.54 10.1807 17.5205 20.8809 17.5205zM496.1 736.998l114.12 0.00195312c9.42969 0 15.6797 -7.45996 14.0498 -16.7402
l-125.07 -709.28c-1.16016 -6.61035 -6.37988 -10.9805 -13.0801 -10.9805h-105.62c-7.62012 0 -13.1797 5.45996 -13.3193 13.0596l1.59961 28.9199c-36.8896 -33.7402 -85.8398 -54.9805 -141.899 -54.9805h-9.73047c-122 0 -168.35 101.58 -147.31 220.95
l14.9297 84.6299c25.6602 145.55 119.05 220.42 231.229 220.42h9.73047c40.1797 0 76.6602 -15.4805 102.21 -42.6201l47.4404 249.5c1.99023 10.3301 10.21 17.1201 20.7197 17.1201zM335.63 394.09h-4.44922c-50.0898 0 -82.7197 -34.1602 -94.4199 -100.521
l-15.4199 -87.46c-11.7002 -66.3604 8.62988 -100.2 58.7197 -100.2h4.45996c25.1904 0 56.2402 10.29 88.3604 31.6396l39.5996 223.48c-25.4199 22.3604 -54.0303 33.0605 -76.8506 33.0605z" />
    <glyph glyph-name="dcroat" unicode="&#x111;" horiz-adv-x="536" 
d="M615.85 672.51l32.1504 -0.000976562c9.41992 0 15.6797 -7.4502 14.04 -16.7305l-12.4697 -70.7197c-1.86035 -10.54 -10.1807 -17.5205 -20.8809 -17.5205h-31.3496l-98.1396 -556.56c-1.16016 -6.59961 -6.37988 -10.9795 -13.0801 -10.9795h-105.62
c-7.62012 0 -13.1797 5.45996 -13.3193 13.0703l1.59961 28.9102c-36.8896 -33.7305 -85.8398 -54.9805 -141.899 -54.9805h-9.73047c-122 0 -168.35 101.59 -147.31 220.95l14.9297 84.6396c25.6602 145.54 119.05 220.41 231.229 220.41h9.73047
c40.1797 0 76.6602 -15.4805 102.21 -42.6201l18.4697 97.1504h-50.4805c-9.42969 0 -15.6797 7.45996 -14.0498 16.7402l12.4697 70.7197c1.86035 10.54 10.1807 17.5205 20.8809 17.5205h51.1396l9.00977 47.3701c1.99023 10.3301 10.21 17.1201 20.7197 17.1201h114.12
c9.42969 0 15.6797 -7.45996 14.0498 -16.7402zM372.88 137.549l39.6006 223.49c-25.4199 22.3604 -54.0303 33.0605 -76.8506 33.0605h-4.4502c-50.0898 0 -82.7197 -34.1602 -94.4199 -100.53l-15.4199 -87.4502c-11.7002 -66.3701 8.62988 -100.21 58.7197 -100.21
h4.45996c25.1904 0 56.2402 10.2998 88.3604 31.6396z" />
    <glyph glyph-name="e" unicode="e" horiz-adv-x="514" 
d="M347.55 513l10.9932 -0.00195312c117.72 0 200.39 -78.6797 174.72 -224.22l-9.66992 -57.5703c-1.15039 -6.83984 -6.53027 -11.3896 -13.4707 -11.3896h-284.99l-2.58984 -16.1699c-12.3604 -68.6299 28.5098 -100.189 90.2793 -100.189h4.82031
c39.9404 0 86.4502 13.2305 149.05 34.5908c8.59961 2.82031 15.8594 -3.22949 14.3193 -11.9492l-14.8301 -84.0996c-2 -11.3398 -9.11035 -20.0303 -19.4307 -23.7002c-50.9805 -18.7402 -117.19 -31.2998 -167.24 -31.2998h-10.0898
c-141.9 0 -221.92 94.2197 -196.439 238.77l9.55957 54.1797c26.8203 152.09 140.83 233.05 265.01 233.05zM339.062 404.718h-4.08008c-46.8301 0 -81.9004 -35.5898 -95.9707 -99.7002l158.57 0.320312c13.7305 66.6797 -4.36914 99.3799 -58.5195 99.3799z" />
    <glyph glyph-name="eacute" unicode="&#xe9;" horiz-adv-x="514" 
d="M427.6 737.55l97.6689 -0.000976562c9.16992 0 13.3701 -9.11035 7.41992 -16.0801l-121.5 -146.7c-5.7002 -6.66016 -13.4404 -10.2197 -22.2002 -10.2197h-76.2695c-8.08984 0 -12.1396 7.63965 -7.59961 14.3301l97.6699 145.53
c5.74023 8.44043 14.6104 13.1406 24.8105 13.1406zM347.549 512.999l10.9932 -0.0107422c117.73 0 200.391 -78.6699 174.73 -224.22l-9.66992 -57.5596c-1.16016 -6.84961 -6.54004 -11.3994 -13.4805 -11.3994h-284.99l-2.58984 -16.1699
c-12.3604 -68.6201 28.5195 -100.19 90.2891 -100.19h4.82031c39.9297 0 86.4492 13.2402 149.049 34.6006c8.59961 2.80957 15.8594 -3.23047 14.3193 -11.9609l-14.8301 -84.0898c-2 -11.3496 -9.12012 -20.0293 -19.4297 -23.6992
c-50.9805 -18.7402 -117.19 -31.2998 -167.24 -31.2998h-10.0898c-141.9 0 -221.931 94.2197 -196.44 238.77l9.5498 54.1797c26.8203 152.09 140.83 233.05 265.01 233.05zM339.062 404.719l-4.08008 -0.000976562c-46.8301 0 -81.9004 -35.5996 -95.9707 -99.6992
l158.57 0.30957c13.7305 66.6904 -4.36914 99.3906 -58.5195 99.3906z" />
    <glyph glyph-name="ecaron" unicode="&#x11b;" horiz-adv-x="514" 
d="M447.98 737.55l84.9385 -0.00195312c9.2002 0 13.4004 -9.15039 7.41016 -16.1201l-125.46 -149.1c-4.34961 -5.07031 -10.25 -7.78027 -16.9297 -7.78027h-71.0303c-6.33984 0 -11.71 3.32031 -14.5498 8.99023l-74.1396 151.48
c-3.16016 6.25 0.700195 12.5303 7.7002 12.5303h88.0498c7.74023 0 14.0098 -4.63965 16.2695 -12.0498l22.7305 -72.5801l50.6602 72.04c5.75 8.11035 14.4102 12.5908 24.3506 12.5908zM347.539 512.998l10.9824 -0.00292969c117.73 0 200.4 -78.6797 174.73 -224.22
l-9.66992 -57.5703c-1.15039 -6.83984 -6.53027 -11.3896 -13.4707 -11.3896h-284.99l-2.58984 -16.1699c-12.3604 -68.6299 28.5098 -100.189 90.2793 -100.189h4.82031c39.9404 0 86.4502 13.2305 149.05 34.5908c8.59961 2.82031 15.8594 -3.22949 14.3193 -11.9492
l-14.8301 -84.0996c-2 -11.3398 -9.11035 -20.0303 -19.4307 -23.7002c-50.9805 -18.7402 -117.19 -31.2998 -167.24 -31.2998h-10.0898c-141.9 0 -221.92 94.2305 -196.439 238.771l9.55957 54.1797c26.8203 152.09 140.83 233.05 265.01 233.05zM339.052 404.715h-4.08984
c-46.8301 0 -81.9004 -35.5898 -95.96 -99.7002l158.57 0.320312c13.7197 66.6797 -4.37012 99.3799 -58.5205 99.3799z" />
    <glyph glyph-name="ecircumflex" unicode="&#xea;" horiz-adv-x="514" 
d="M349.89 737.55l66.5801 -0.0117188c9.16016 0 16.9199 -4.76953 21.0498 -12.9492l72.0996 -147.52c3.16016 -6.25 -0.700195 -12.5303 -7.7002 -12.5303h-88.0498c-7.74023 0 -14.0098 4.63965 -16.2695 12.0498l-22.7402 72.5801l-52.7598 -75.0195
c-4.38965 -6.19043 -11 -9.61035 -18.5898 -9.61035h-88.5898c-9.2002 0 -13.4102 9.15039 -7.41992 16.1309l125.47 149.09c4.33984 5.07031 10.2402 7.79004 16.9199 7.79004zM347.54 512.988l10.9932 -0.00292969c117.73 0 200.391 -78.6797 174.73 -224.22
l-9.66992 -57.5703c-1.16016 -6.83984 -6.54004 -11.3896 -13.4805 -11.3896h-284.99l-2.58984 -16.1699c-12.3604 -68.6299 28.5195 -100.189 90.2891 -100.189h4.82031c39.9297 0 86.4492 13.2305 149.049 34.5908c8.59961 2.82031 15.8594 -3.22949 14.3193 -11.9492
l-14.8301 -84.0996c-2 -11.3398 -9.12012 -20.0303 -19.4297 -23.7002c-50.9805 -18.7402 -117.19 -31.2998 -167.24 -31.2998h-10.0898c-141.9 0 -221.931 94.2305 -196.44 238.771l9.5498 54.1797c26.8203 152.09 140.83 233.05 265.01 233.05zM339.053 404.705h-4.08008
c-46.8301 0 -81.9004 -35.5898 -95.9707 -99.7002l158.57 0.320312c13.7305 66.6797 -4.36914 99.3799 -58.5195 99.3799z" />
    <glyph glyph-name="edieresis" unicode="&#xeb;" horiz-adv-x="514" 
d="M244.18 718.09h96.1299c9.41992 0 15.6797 -7.4502 14.04 -16.7305l-20.5498 -116.56c-1.86035 -10.54 -10.1807 -17.5205 -20.8809 -17.5205h-96.1299c-9.41992 0 -15.6797 7.4502 -14.04 16.7305l20.5498 116.56c1.86035 10.54 10.1807 17.5205 20.8809 17.5205z
M428.09 718.09h96.1299c9.41992 0 15.6797 -7.4502 14.04 -16.7305l-20.5498 -116.56c-1.86035 -10.54 -10.1807 -17.5205 -20.8809 -17.5205h-96.1299c-9.41992 0 -15.6797 7.4502 -14.04 16.7305l20.5498 116.56c1.86035 10.54 10.1807 17.5205 20.8809 17.5205z
M347.55 513l10.9932 -0.0107422c117.73 0 200.391 -78.6699 174.73 -224.22l-9.66992 -57.5596c-1.16016 -6.84961 -6.54004 -11.3994 -13.4805 -11.3994h-284.99l-2.58984 -16.1699c-12.3604 -68.6201 28.5195 -100.19 90.2891 -100.19h4.82031
c39.9297 0 86.4492 13.2402 149.049 34.6006c8.59961 2.80957 15.8594 -3.23047 14.3193 -11.9609l-14.8301 -84.0898c-2 -11.3496 -9.12012 -20.0293 -19.4297 -23.6992c-50.9805 -18.7402 -117.19 -31.2998 -167.24 -31.2998h-10.0898
c-141.9 0 -221.931 94.2197 -196.44 238.77l9.5498 54.1797c26.8203 152.09 140.83 233.05 265.01 233.05zM339.062 404.72l-4.08008 -0.000976562c-46.8301 0 -81.9004 -35.5996 -95.9707 -99.6992l158.57 0.30957c13.7305 66.6904 -4.36914 99.3906 -58.5195 99.3906z" />
    <glyph glyph-name="edotaccent" unicode="&#x117;" horiz-adv-x="514" 
d="M325.5 718.09h117.4c9.41992 0 15.6797 -7.4502 14.04 -16.7305l-20.5498 -116.56c-1.86035 -10.54 -10.1807 -17.5205 -20.8809 -17.5205h-117.4c-9.41992 0 -15.6797 7.4502 -14.04 16.7305l20.5498 116.56c1.86035 10.54 10.1807 17.5205 20.8809 17.5205z
M347.551 513l10.9824 -0.0107422c117.73 0 200.4 -78.6699 174.73 -224.22l-9.66992 -57.5596c-1.15039 -6.84961 -6.53027 -11.3994 -13.4707 -11.3994h-284.99l-2.58984 -16.1699c-12.3604 -68.6201 28.5098 -100.19 90.2793 -100.19h4.82031
c39.9404 0 86.4502 13.2402 149.05 34.6006c8.59961 2.80957 15.8594 -3.23047 14.3193 -11.9609l-14.8301 -84.0898c-2 -11.3496 -9.11035 -20.0293 -19.4307 -23.6992c-50.9805 -18.7402 -117.19 -31.2998 -167.24 -31.2998h-10.0898
c-141.9 0 -221.92 94.2197 -196.439 238.77l9.55957 54.1797c26.8203 152.09 140.83 233.05 265.01 233.05zM339.063 404.72l-4.08984 -0.000976562c-46.8301 0 -81.9004 -35.5996 -95.96 -99.6992l158.57 0.30957c13.7197 66.6904 -4.37012 99.3906 -58.5205 99.3906z" />
    <glyph glyph-name="egrave" unicode="&#xe8;" horiz-adv-x="514" 
d="M258.38 737.55l95.9199 -0.000976562c10.9805 0 19.9209 -6.49023 23.3311 -16.9404l46.3398 -145.47c1.83008 -5.62012 -1.78027 -10.5898 -7.69043 -10.5898h-74.29c-9.20996 0 -17 4.82031 -21.1104 13.0508l-70.2002 147.47
c-3.12988 6.23047 0.719727 12.4805 7.7002 12.4805zM347.55 512.999l10.9932 -0.0107422c117.73 0 200.391 -78.6699 174.73 -224.22l-9.66992 -57.5596c-1.16016 -6.84961 -6.54004 -11.3994 -13.4805 -11.3994h-284.99l-2.58984 -16.1699
c-12.3604 -68.6201 28.5195 -100.19 90.2891 -100.19h4.82031c39.9297 0 86.4492 13.2402 149.049 34.6006c8.59961 2.80957 15.8594 -3.23047 14.3193 -11.9609l-14.8301 -84.0898c-2 -11.3496 -9.12012 -20.0293 -19.4297 -23.6992
c-50.9805 -18.7402 -117.19 -31.2998 -167.24 -31.2998h-10.0898c-141.9 0 -221.931 94.2197 -196.44 238.77l9.5498 54.1797c26.8203 152.09 140.83 233.05 265.01 233.05zM339.062 404.719l-4.08008 -0.000976562c-46.8301 0 -81.9004 -35.5996 -95.9707 -99.6992
l158.57 0.30957c13.7305 66.6904 -4.36914 99.3906 -58.5195 99.3906z" />
    <glyph glyph-name="emacron" unicode="&#x113;" horiz-adv-x="514" 
d="M264.16 673.09h224.21c9.42969 0 15.6797 -7.4502 14.0498 -16.7305l-12.4805 -70.75c-1.86035 -10.54 -10.1807 -17.5205 -20.8809 -17.5205h-224.21c-9.42969 0 -15.6797 7.45996 -14.0498 16.7402l12.4805 70.7402c1.86035 10.54 10.1807 17.5205 20.8809 17.5205z
M347.55 513l10.9932 -0.0107422c117.73 0 200.391 -78.6699 174.73 -224.22l-9.66992 -57.5596c-1.16016 -6.84961 -6.54004 -11.3994 -13.4805 -11.3994h-284.99l-2.58984 -16.1699c-12.3604 -68.6201 28.5195 -100.19 90.2891 -100.19h4.82031
c39.9297 0 86.4492 13.2402 149.049 34.6006c8.59961 2.80957 15.8594 -3.23047 14.3193 -11.9609l-14.8301 -84.0898c-2 -11.3496 -9.12012 -20.0293 -19.4297 -23.6992c-50.9805 -18.7402 -117.19 -31.2998 -167.24 -31.2998h-10.0898
c-141.9 0 -221.931 94.2197 -196.44 238.77l9.5498 54.1797c26.8203 152.09 140.83 233.05 265.01 233.05zM339.062 404.72l-4.08008 -0.000976562c-46.8301 0 -81.9004 -35.5996 -95.9707 -99.6992l158.57 0.30957c13.7305 66.6904 -4.36914 99.3906 -58.5195 99.3906z" />
    <glyph glyph-name="eogonek" unicode="&#x119;" horiz-adv-x="514" 
d="M347.55 513l10.9922 0.000976562c117.73 0 200.391 -78.6699 174.73 -224.22l-9.66992 -57.5596c-1.16016 -6.84961 -6.54004 -11.3994 -13.4805 -11.3994h-284.99l-2.58984 -16.1699c-12.3604 -68.6201 28.5195 -100.19 90.2891 -100.19h4.82031
c39.9297 0 86.4492 13.2402 149.049 34.6006c8.59961 2.80957 15.8594 -3.23047 14.3193 -11.9609l-14.8301 -84.0898c-2 -11.3496 -9.12012 -20.0293 -19.4297 -23.6992c-21.2598 -7.82031 -45.1602 -14.5605 -69.4404 -19.7607
c-32.4697 -27.8301 -78.96 -59.21 -85.3896 -98.0498c-4.46973 -23.9297 8.62012 -38.96 33.8301 -38.96c5.15039 0 10.0605 0.610352 17.291 1.9707c6.2998 1.01953 11.04 -3.38086 9.95996 -9.51074l-7.41992 -42.0703
c-1.25 -7.08008 -5.28027 -13.0303 -11.8301 -16.0303c-16.8799 -7.36035 -34.6797 -10.9102 -52.7295 -10.9102c-58.6104 0 -95.6807 38.6201 -83.3203 97.5c7.09961 33.4697 29.6094 69.7295 78.459 104.51h-6.75c-141.9 0 -221.92 94.2197 -196.439 238.77
l9.55957 54.1797c26.8203 152.09 140.83 233.05 265.01 233.05zM239.012 305.031l158.581 0.308594c13.7197 66.6904 -4.37012 99.3906 -58.5205 99.3906h-4.08984c-46.8301 0 -81.9004 -35.5996 -95.9707 -99.6992z" />
    <glyph glyph-name="f" unicode="f" horiz-adv-x="393" 
d="M491.27 731.03c9.87988 -4.49023 14.291 -14.9707 12.3906 -25.7607l-13.3301 -75.5996c-1.58008 -8.96973 -9.79004 -13.5 -18.5898 -10.5303c-25.6201 9.0498 -47.9102 14.4102 -60.9697 14.4102h-4.82031c-28.9805 0 -62.8203 -18.25 -72.7207 -74.3398
l-10.2002 -59.21h93.4102c9.41992 0 15.6797 -7.4502 14.04 -16.7305l-15.3604 -87.1104c-1.16016 -6.59961 -6.37988 -10.9795 -13.0801 -10.9795h-99.1299l-95.4297 -541.2c-1.16016 -6.61035 -6.37988 -10.9805 -13.0801 -10.9805h-120.41
c-9.41992 0 -15.6797 7.4502 -14.04 16.7305l94.4102 535.45h-55.8203c-9.41992 0 -15.6797 7.4502 -14.04 16.7305l14.2002 80.5596c1.86035 10.54 10.1807 17.5205 20.8809 17.5205h54.9004l16.7695 93.71c17.8096 100.09 89.5498 156.29 195.81 156.29h10.0898
c38.2002 0 71.0898 -8.59961 94.1201 -18.96z" />
    <glyph glyph-name="g" unicode="g" horiz-adv-x="532" 
d="M336.46 513l10.0947 -0.00195312c81.6104 0 158.551 -28.75 207.671 -58.9502c8.82031 -5.48047 12.8105 -15.2305 11.0801 -25.5703l-67.0996 -399.55c-21.0498 -125.67 -125.47 -208.93 -261.76 -208.93h-4.37012c-60.1299 0 -108.87 8.33984 -168.98 26.5303
c-11.1797 3.16016 -17.4492 13.29 -15.4092 24.8701l14.9102 84.4502c1.62988 9.23047 10.1602 13.9609 19 10.5205c46.4404 -19.1602 84.5303 -32.3701 128.011 -32.3701h4.82031c81.96 0 120.42 30.9805 133.61 101.61l5.5 29.2695
c-43.6904 -32.1797 -81.8604 -50.0693 -125.94 -50.0693h-9.71973c-120.6 0 -163.77 99.4297 -142.659 221.25l9.73047 56.8203c25.2002 146.37 121.521 220.12 251.511 220.12zM330.475 396.548l-4.81934 -0.000976562c-49.1904 0 -78.9805 -33.3398 -90.5508 -98.8896
l-11.4297 -64.54c-12.3799 -69.6396 7.52051 -99.3896 54.4209 -99.3896h4.45996c25.2695 0 56.0195 10.1201 88.3691 31.6699l36.6201 206.41c-24.5801 14.7305 -54.0703 24.7402 -77.0703 24.7402z" />
    <glyph glyph-name="gbreve" unicode="&#x11f;" horiz-adv-x="532" 
d="M519.91 693.26c7.16992 2.74023 13.4688 -2.33984 12.1484 -9.82031l-12.9102 -73.2197c-1.12988 -6.41016 -4.51953 -11.75 -10.0293 -15.2305c-38.0801 -23.8203 -83.7002 -37.7207 -135.34 -37.7207c-55.7402 0 -99.75 15.5801 -126.42 34.6904
c-7.26953 5.23047 -9.97949 13.9805 -8.40918 22.8809l13.0303 73.9102c0.950195 5.37012 6 8 11.04 5.75977c45.2803 -20.5596 75.25 -33.0498 124.02 -33.0498c49.2598 0 84.54 12.75 132.87 31.7998zM336.449 513l10.0947 -0.00195312
c81.6104 0 158.551 -28.75 207.671 -58.9502c8.82031 -5.48047 12.8105 -15.2305 11.0801 -25.5703l-67.0996 -399.55c-21.0498 -125.67 -125.47 -208.93 -261.76 -208.93h-4.37012c-60.1299 0 -108.87 8.33984 -168.98 26.5303
c-11.1797 3.16016 -17.4492 13.29 -15.4092 24.8701l14.9102 84.4502c1.62988 9.23047 10.1602 13.9609 19 10.5205c46.4404 -19.1602 84.5303 -32.3701 128.011 -32.3701h4.82031c81.96 0 120.42 30.9805 133.61 101.61l5.5 29.2695
c-43.6904 -32.1797 -81.8604 -50.0693 -125.94 -50.0693h-9.71973c-120.6 0 -163.77 99.4297 -142.659 221.25l9.73047 56.8203c25.2002 146.37 121.521 220.12 251.511 220.12zM330.464 396.548l-4.81934 -0.000976562c-49.1904 0 -78.9805 -33.3398 -90.5508 -98.8896
l-11.4297 -64.54c-12.3799 -69.6396 7.52051 -99.3896 54.4209 -99.3896h4.45996c25.2695 0 56.0195 10.1201 88.3691 31.6699l36.6201 206.41c-24.5801 14.7305 -54.0703 24.7402 -77.0703 24.7402z" />
    <glyph glyph-name="gcommaaccent" unicode="&#x123;" horiz-adv-x="532" 
d="M425 564.55l-120.48 0.000976562c-9.28027 0 -15.4805 7.28027 -14.0107 16.4307l13.8203 85.96c1.15039 7.16992 3.80078 13.3604 8.20117 19.1299l80.1396 110.35c4.34961 5.79004 10.71 8.96973 17.9795 8.96973h67.46c8.61035 0 12.7305 -8.33008 7.51074 -15.1602
l-74.6396 -103.21h36.4102c9.42969 0 15.6797 -7.45996 14.0498 -16.7402l-15.5596 -88.21c-1.86035 -10.54 -10.1807 -17.5205 -20.8809 -17.5205zM336.47 513.001l10.0947 -0.00195312c81.6104 0 158.551 -28.75 207.671 -58.9502
c8.82031 -5.48047 12.8105 -15.2305 11.0801 -25.5703l-67.0996 -399.55c-21.0498 -125.67 -125.47 -208.93 -261.76 -208.93h-4.37012c-60.1299 0 -108.87 8.33984 -168.98 26.5303c-11.1797 3.16016 -17.4492 13.29 -15.4092 24.8701l14.9102 84.4502
c1.62988 9.23047 10.1602 13.9609 19 10.5205c46.4404 -19.1602 84.5303 -32.3701 128.011 -32.3701h4.82031c81.96 0 120.42 30.9805 133.61 101.61l5.5 29.2695c-43.6904 -32.1797 -81.8604 -50.0693 -125.94 -50.0693h-9.71973c-120.6 0 -163.77 99.4297 -142.659 221.25
l9.73047 56.8203c25.2002 146.37 121.521 220.12 251.511 220.12zM330.484 396.549l-4.81934 -0.000976562c-49.1904 0 -78.9805 -33.3398 -90.5508 -98.8896l-11.4297 -64.54c-12.3799 -69.6396 7.52051 -99.3896 54.4209 -99.3896h4.45996
c25.2695 0 56.0195 10.1201 88.3691 31.6699l36.6201 206.41c-24.5801 14.7305 -54.0703 24.7402 -77.0703 24.7402z" />
    <glyph glyph-name="gdotaccent" unicode="&#x121;" horiz-adv-x="532" 
d="M333.08 715.37h117.4c9.41992 0 15.6797 -7.45996 14.04 -16.7402l-20.5498 -116.56c-1.86035 -10.54 -10.1807 -17.5205 -20.8809 -17.5205h-117.4c-9.41992 0 -15.6797 7.45996 -14.04 16.7402l20.5498 116.56c1.86035 10.54 10.1807 17.5205 20.8809 17.5205z
M336.461 513l10.0947 -0.00195312c81.6104 0 158.551 -28.75 207.671 -58.9502c8.82031 -5.48047 12.8105 -15.2305 11.0801 -25.5703l-67.0996 -399.55c-21.0498 -125.67 -125.47 -208.93 -261.76 -208.93h-4.37012c-60.1299 0 -108.87 8.33984 -168.98 26.5303
c-11.1797 3.16016 -17.4492 13.29 -15.4092 24.8701l14.9102 84.4502c1.62988 9.23047 10.1602 13.9609 19 10.5205c46.4404 -19.1602 84.5303 -32.3701 128.011 -32.3701h4.82031c81.96 0 120.42 30.9805 133.61 101.61l5.5 29.2695
c-43.6904 -32.1797 -81.8604 -50.0693 -125.94 -50.0693h-9.71973c-120.6 0 -163.77 99.4297 -142.659 221.25l9.73047 56.8203c25.2002 146.37 121.521 220.12 251.511 220.12zM330.476 396.548l-4.81934 -0.000976562c-49.1904 0 -78.9805 -33.3398 -90.5508 -98.8896
l-11.4297 -64.54c-12.3799 -69.6396 7.52051 -99.3896 54.4209 -99.3896h4.45996c25.2695 0 56.0195 10.1201 88.3691 31.6699l36.6201 206.41c-24.5801 14.7305 -54.0703 24.7402 -77.0703 24.7402z" />
    <glyph glyph-name="h" unicode="h" horiz-adv-x="536" 
d="M188.83 737l113.478 -0.00976562c9.58008 0 15.8799 -7.62988 14.0898 -17.0303l-50.0996 -264.66c57.7002 42.5898 103.62 57.6895 149.521 57.6895h11.3604c93.3701 0 151.36 -63.9502 133.12 -167.4l-59 -334.62
c-1.16992 -6.61035 -6.37988 -10.9805 -13.0898 -10.9805h-120.4c-9.42969 0 -15.6797 7.4502 -14.0498 16.7305l53.2598 302.06c9.04004 51.2803 -8.20996 75.2998 -55.8398 75.2998h-4.45996c-26.5195 0 -60.6299 -12.2998 -93.0498 -31.5498l-62.0996 -351.56
c-1.16992 -6.59961 -6.37988 -10.9697 -13.0801 -10.9697h-120.41c-9.41992 0 -15.6797 7.4502 -14.04 16.7305l123.91 702.75c1.86035 10.54 10.1807 17.5205 20.8809 17.5205z" />
    <glyph glyph-name="hbar" unicode="&#x127;" horiz-adv-x="536" 
d="M415.82 513l11.3682 -0.00976562c93.3604 0 151.351 -63.9502 133.11 -167.4l-59 -334.62c-1.16016 -6.61035 -6.37988 -10.9805 -13.0801 -10.9805h-120.41c-9.41992 0 -15.6797 7.4502 -14.04 16.7305l53.2598 302.06
c9.04004 51.2803 -8.20996 75.2998 -55.8496 75.2998h-4.4502c-26.5195 0 -60.6396 -12.2998 -93.0596 -31.5498l-62.0996 -351.56c-1.16016 -6.59961 -6.37012 -10.9697 -13.0801 -10.9697h-120.4c-9.42969 0 -15.6797 7.4502 -14.0498 16.7305l97.1201 550.8h-32.2305
c-9.41992 0 -15.6797 7.4502 -14.04 16.7305l12.4697 70.7197c1.86035 10.54 10.1807 17.5205 20.8809 17.5205h31.4297l8.28027 46.9697c1.86035 10.54 10.1807 17.5205 20.8809 17.5205h113.49c9.58008 0.00976562 15.8799 -7.62012 14.0898 -17.0205l-8.99023 -47.46
h53.5801c9.41992 0 15.6797 -7.45996 14.04 -16.7402l-12.4697 -70.7197c-1.86035 -10.54 -10.1807 -17.5205 -20.8809 -17.5205h-54.1396l-21.2402 -112.22c57.6904 42.5898 103.61 57.6895 149.511 57.6895z" />
    <glyph glyph-name="i" unicode="i" horiz-adv-x="231" 
d="M183.16 706.64l116.31 -0.000976562c9.41992 0 15.6797 -7.45996 14.04 -16.7402l-18.5303 -105.1c-1.86035 -10.54 -10.1807 -17.5205 -20.8809 -17.5205h-116.31c-9.41992 0 -15.6797 7.4502 -14.04 16.7305l18.5303 105.11
c1.86035 10.54 10.1807 17.5205 20.8809 17.5205zM148.31 499.999h113.76c9.42969 0 15.6797 -7.45996 14.0498 -16.7402l-83.2803 -472.28c-1.16016 -6.61035 -6.37988 -10.9805 -13.0801 -10.9805h-120.41c-9.41992 0 -15.6797 7.4502 -14.04 16.7305l82.1201 465.75
c1.86035 10.54 10.1807 17.5205 20.8809 17.5205z" />
    <glyph glyph-name="dotlessi" unicode="&#x131;" horiz-adv-x="229" 
d="M146.97 500h113.76c9.42969 0 15.6797 -7.45996 14.0498 -16.7402l-83.2803 -472.28c-1.16016 -6.61035 -6.37988 -10.9805 -13.0801 -10.9805h-120.41c-9.41992 0 -15.6797 7.4502 -14.04 16.7305l82.1201 465.75c1.86035 10.54 10.1807 17.5205 20.8809 17.5205z" />
    <glyph glyph-name="iacute" unicode="&#xed;" horiz-adv-x="229" 
d="M291.81 737.55l97.6787 -0.000976562c9.16016 0 13.3604 -9.11035 7.41016 -16.0801l-121.5 -146.7c-5.69043 -6.66016 -13.4307 -10.2197 -22.2002 -10.2197h-76.2695c-8.08984 0 -12.1396 7.63965 -7.59961 14.3301l97.6797 145.53
c5.73047 8.44043 14.6006 13.1406 24.8008 13.1406zM146.979 499.999h113.759c9.41992 0 15.6797 -7.45996 14.04 -16.7402l-83.2695 -472.28c-1.16992 -6.61035 -6.37988 -10.9805 -13.0898 -10.9805h-120.4c-9.42969 0 -15.6797 7.4502 -14.0498 16.7305l82.1299 465.75
c1.86035 10.54 10.1807 17.5205 20.8809 17.5205z" />
    <glyph glyph-name="icaron" unicode="&#x1d0;" horiz-adv-x="229" 
d="M307.11 737.55l84.9287 -0.00195312c9.2002 0 13.4004 -9.15039 7.41016 -16.1201l-125.46 -149.1c-4.34961 -5.07031 -10.25 -7.78027 -16.9297 -7.78027h-71.0303c-6.33984 0 -11.71 3.32031 -14.5498 8.99023l-74.1396 151.48
c-3.16016 6.25 0.700195 12.5303 7.7002 12.5303h88.0498c7.75 0 14.0195 -4.63965 16.2695 -12.0498l22.7402 -72.5801l50.6504 72.04c5.75 8.11035 14.4199 12.5908 24.3604 12.5908zM146.949 499.998l113.76 -0.000976562c9.42969 0 15.6797 -7.4502 14.0498 -16.7305
l-83.2803 -472.29c-1.16016 -6.59961 -6.37988 -10.9795 -13.0801 -10.9795h-120.41c-9.41992 0 -15.6797 7.45996 -14.04 16.7402l82.1201 465.74c1.86035 10.54 10.1807 17.5205 20.8809 17.5205z" />
    <glyph glyph-name="icircumflex" unicode="&#xee;" horiz-adv-x="229" 
d="M209.45 737.55l66.5703 -0.0117188c9.16016 0 16.9199 -4.76953 21.0498 -12.9492l72.0996 -147.52c3.16992 -6.25 -0.69043 -12.5303 -7.7002 -12.5303h-88.04c-7.75 0 -14.0195 4.63965 -16.2695 12.0498l-22.7402 72.5801l-52.7695 -75.0195
c-4.37988 -6.19043 -11 -9.61035 -18.5801 -9.61035h-88.5996c-9.2002 0 -13.4004 9.15039 -7.41016 16.1309l125.46 149.09c4.34961 5.07031 10.25 7.79004 16.9297 7.79004zM146.94 499.988l113.759 -0.000976562c9.41992 0 15.6797 -7.4502 14.04 -16.7305
l-83.2695 -472.29c-1.16992 -6.59961 -6.37988 -10.9795 -13.0898 -10.9795h-120.4c-9.42969 0 -15.6797 7.45996 -14.0498 16.7402l82.1299 465.74c1.86035 10.54 10.1807 17.5205 20.8809 17.5205z" />
    <glyph glyph-name="idieresis" unicode="&#xef;" horiz-adv-x="229" 
d="M102.52 718.09h96.1201c9.42969 0 15.6797 -7.4502 14.0498 -16.7305l-20.5596 -116.56c-1.86035 -10.54 -10.1807 -17.5205 -20.8809 -17.5205h-96.1201c-9.42969 0 -15.6797 7.4502 -14.0498 16.7305l20.5596 116.56c1.86035 10.54 10.1807 17.5205 20.8809 17.5205z
M286.43 718.09h96.1201c9.42969 0 15.6797 -7.4502 14.0498 -16.7305l-20.5596 -116.56c-1.86035 -10.54 -10.1807 -17.5205 -20.8809 -17.5205h-96.1201c-9.42969 0 -15.6797 7.4502 -14.0498 16.7305l20.5596 116.56c1.86035 10.54 10.1807 17.5205 20.8809 17.5205z
M146.96 500h113.759c9.41992 0 15.6797 -7.45996 14.04 -16.7402l-83.2695 -472.28c-1.16992 -6.61035 -6.37988 -10.9805 -13.0898 -10.9805h-120.4c-9.42969 0 -15.6797 7.4502 -14.0498 16.7305l82.1299 465.75c1.86035 10.54 10.1807 17.5205 20.8809 17.5205z" />
    <glyph glyph-name="i.loclTRK" horiz-adv-x="229" 
d="M183.68 718.09h117.4c9.41992 0 15.6797 -7.4502 14.04 -16.7305l-20.5498 -116.56c-1.86035 -10.54 -10.1807 -17.5205 -20.8809 -17.5205h-117.4c-9.41992 0 -15.6797 7.4502 -14.04 16.7305l20.5498 116.56c1.86035 10.54 10.1807 17.5205 20.8809 17.5205z
M146.97 500h113.759c9.41992 0 15.6797 -7.45996 14.04 -16.7402l-83.2695 -472.28c-1.16992 -6.61035 -6.37988 -10.9805 -13.0898 -10.9805h-120.4c-9.42969 0 -15.6797 7.4502 -14.0498 16.7305l82.1299 465.75c1.86035 10.54 10.1807 17.5205 20.8809 17.5205z" />
    <glyph glyph-name="igrave" unicode="&#xec;" horiz-adv-x="229" 
d="M92.6797 737.55l95.9199 -0.000976562c10.9805 0 19.9209 -6.49023 23.3311 -16.9404l46.3398 -145.47c1.83008 -5.62012 -1.78027 -10.5898 -7.69043 -10.5898h-74.29c-9.20996 0 -17 4.82031 -21.1104 13.0508l-70.2002 147.47
c-3.12988 6.23047 0.719727 12.4805 7.7002 12.4805zM147.13 499.999h113.759c9.41992 0 15.6797 -7.45996 14.04 -16.7402l-83.2695 -472.28c-1.16992 -6.61035 -6.37988 -10.9805 -13.0898 -10.9805h-120.4c-9.42969 0 -15.6797 7.4502 -14.0498 16.7305l82.1299 465.75
c1.86035 10.54 10.1807 17.5205 20.8809 17.5205z" />
    <glyph glyph-name="ij" unicode="&#x133;" horiz-adv-x="479" 
d="M183.16 706.64l116.31 0.000976562c9.41992 0 15.6797 -7.4502 14.04 -16.7305l-18.5303 -105.11c-1.86035 -10.54 -10.1807 -17.5205 -20.8809 -17.5205h-116.31c-9.41992 0 -15.6797 7.45996 -14.04 16.7402l18.5303 105.1
c1.86035 10.54 10.1807 17.5205 20.8809 17.5205zM431.71 706.641l116.31 0.000976562c9.41992 0 15.6797 -7.4502 14.04 -16.7305l-18.5303 -105.11c-1.86035 -10.54 -10.1807 -17.5205 -20.8809 -17.5205h-116.31c-9.41992 0 -15.6797 7.45996 -14.04 16.7402
l18.5303 105.1c1.86035 10.54 10.1807 17.5205 20.8809 17.5205zM397.859 500.002l112.958 -0.000976562c9.41992 0 15.6699 -7.4502 14.04 -16.7197l-88.8896 -505.9c-18.1396 -103.09 -80.8301 -157.38 -169.76 -157.38h-10.9102
c-27.3398 0 -53.0596 4.33008 -75.9092 13.5303c-7.48047 3.01953 -11.4609 10.5195 -10.0107 18.7695l13.5898 77.0596c1.49023 8.42969 9.10059 12.9102 17.5508 10.5605c13.2803 -4.34961 22.3701 -5.91992 31.9805 -5.91992h4.82031
c21.5996 0 44.46 9.19043 51.7695 50.0605l87.8896 498.42c1.86035 10.54 10.1807 17.5205 20.8809 17.5205zM148.308 500.001l113.759 -0.000976562c9.41992 0 15.6797 -7.4502 14.04 -16.7305l-83.2695 -472.29c-1.16992 -6.59961 -6.37988 -10.9795 -13.0898 -10.9795
h-120.4c-9.42969 -0 -15.6797 7.45996 -14.0498 16.7402l82.1299 465.74c1.86035 10.54 10.1807 17.5205 20.8809 17.5205z" />
    <glyph glyph-name="imacron" unicode="&#x12b;" horiz-adv-x="229" 
d="M121.69 672.28h224.22c9.41992 0 15.6797 -7.45996 14.04 -16.7402l-12.4697 -70.7402c-1.86035 -10.54 -10.1807 -17.5205 -20.8809 -17.5205h-224.22c-9.41992 0 -15.6797 7.4502 -14.04 16.7305l12.4697 70.75c1.86035 10.54 10.1807 17.5205 20.8809 17.5205z
M146.93 500h113.76c9.42969 0 15.6797 -7.45996 14.0498 -16.7402l-83.2803 -472.28c-1.16016 -6.61035 -6.37988 -10.9805 -13.0801 -10.9805h-120.41c-9.41992 0 -15.6797 7.4502 -14.04 16.7305l82.1201 465.75c1.86035 10.54 10.1807 17.5205 20.8809 17.5205z" />
    <glyph glyph-name="iogonek" unicode="&#x12f;" horiz-adv-x="229" 
d="M184.15 718.09h117.39c9.42969 0 15.6797 -7.4502 14.0498 -16.7305l-20.5596 -116.56c-1.86035 -10.54 -10.1807 -17.5205 -20.8809 -17.5205h-117.39c-9.42969 0 -15.6797 7.4502 -14.0498 16.7305l20.5596 116.56c1.86035 10.54 10.1807 17.5205 20.8809 17.5205z
M146.92 500l113.739 0.00195312c9.42969 0 15.6797 -7.45996 14.0498 -16.7402l-83.2803 -472.28c-1.16016 -6.61035 -6.37988 -10.9805 -13.0801 -10.9805h-37.9297l38.4102 -4.19043c-32.8799 -28.1797 -83.5596 -61.2197 -91.4893 -106.17
c-3.40039 -19.3203 7.33008 -28.1006 27.1504 -28.1006c12 0 25.1904 6.58008 27.3604 9.2998c2.63965 -4.40039 9.46973 -13.3408 8.72949 -17.5205l-8.04004 -45.6299c-1.78027 -10.0898 -4.31055 -13.8994 -9.79102 -20.0195
c-14 -0.69043 -33.5801 -2.6709 -48.4102 -2.6709c-54.1699 0 -98.3301 32.5801 -86.8496 97.71c5.33984 30.29 27.0098 71.0303 88.25 117.29h-27.7803c-9.42969 0 -15.6797 7.4502 -14.0498 16.7305l82.1299 465.75c1.86035 10.54 10.1807 17.5205 20.8809 17.5205z" />
    <glyph glyph-name="j" unicode="j" horiz-adv-x="299" 
d="M251.06 706.64l116.31 -0.000976562c9.41992 0 15.6797 -7.45996 14.04 -16.7402l-18.5303 -105.1c-1.86035 -10.54 -10.1807 -17.5205 -20.8809 -17.5205h-116.31c-9.41992 0 -15.6797 7.4502 -14.04 16.7305l18.5303 105.11
c1.86035 10.54 10.1807 17.5205 20.8809 17.5205zM216.209 499.999h112.958c9.41992 0 15.6699 -7.4502 14.04 -16.7305l-88.8896 -505.9c-18.1396 -103.09 -80.8301 -157.38 -169.76 -157.38h-10.9102c-27.3398 0 -53.0596 4.33984 -75.9092 13.54
c-7.48047 3.01953 -11.4609 10.5098 -10.0107 18.7598l13.5898 77.0703c1.49023 8.42969 9.10059 12.8994 17.5508 10.5498c13.2803 -4.34961 22.3701 -5.91992 31.9805 -5.91992h4.82031c21.5996 0 44.46 9.2002 51.7695 50.0605l87.8896 498.43
c1.86035 10.54 10.1807 17.5205 20.8809 17.5205z" />
    <glyph glyph-name="k" unicode="k" horiz-adv-x="527" 
d="M188.83 737h113.748c9.41992 0 15.6797 -7.4502 14.04 -16.7305l-71.7402 -406.9h44.29l128.13 175.16c5.11035 7.37988 12.9307 11.4697 21.9111 11.4697h127.59c10.25 0 15.2803 -9.7998 9.31055 -18.1299l-163.72 -220.6l102.64 -247.38
c2.82031 -7.2002 -1.73926 -13.8906 -9.47949 -13.8906h-130.52c-12.0801 0 -22.0605 6.87012 -26.3809 18.1504l-76.1504 180.4h-47.8496l-33.0801 -187.57c-1.16016 -6.61035 -6.37988 -10.9805 -13.0801 -10.9805h-120.41c-9.41992 0 -15.6797 7.4502 -14.04 16.7305
l123.91 702.75c1.86035 10.54 10.1807 17.5205 20.8809 17.5205z" />
    <glyph glyph-name="kcommaaccent" unicode="&#x137;" horiz-adv-x="527" 
d="M188.83 737l113.748 0.00976562c9.41992 0 15.6797 -7.45996 14.04 -16.7402l-71.7402 -406.9h44.29l128.13 175.16c5.11035 7.37988 12.9307 11.4795 21.9111 11.4795h127.59c10.25 0 15.2803 -9.80957 9.31055 -18.1299l-163.72 -220.6l102.64 -247.38
c2.82031 -7.20996 -1.73926 -13.9004 -9.47949 -13.9004h-130.52c-12.0801 0 -22.0605 6.87012 -26.3809 18.1504l-76.1504 180.4h-47.8496l-33.0801 -187.57c-1.16016 -6.61035 -6.37988 -10.9805 -13.0801 -10.9805h-120.41c-9.41992 0 -15.6797 7.4502 -14.04 16.7305
l123.91 702.75c1.86035 10.54 10.1807 17.5205 20.8809 17.5205zM197.468 -49.9102l120.48 -0.000976562c9.28027 0 15.4805 -7.28027 14.0107 -16.4307l-13.8203 -85.96c-1.15039 -7.16992 -3.80078 -13.3604 -8.20117 -19.1299l-80.1396 -110.35
c-4.34961 -5.79004 -10.71 -8.96973 -17.9795 -8.96973h-67.46c-8.61035 0 -12.7305 8.33008 -7.51074 15.1602l74.6396 103.21h-36.4102c-9.42969 0 -15.6797 7.45996 -14.0498 16.7402l15.5596 88.21c1.86035 10.54 10.1807 17.5205 20.8809 17.5205z" />
    <glyph glyph-name="l" unicode="l" horiz-adv-x="227" 
d="M188.83 737h113.76c9.42969 0 15.6797 -7.45996 14.0498 -16.7402l-125.07 -709.28c-1.16016 -6.61035 -6.37988 -10.9805 -13.0801 -10.9805h-120.41c-9.41992 0 -15.6797 7.4502 -14.04 16.7305l123.91 702.75c1.86035 10.54 10.1807 17.5205 20.8809 17.5205z" />
    <glyph glyph-name="lacute" unicode="&#x13a;" horiz-adv-x="227" 
d="M331.78 974.55l97.6787 -0.000976562c9.16016 0 13.3604 -9.11035 7.41016 -16.0801l-121.5 -146.7c-5.69043 -6.66016 -13.4307 -10.2197 -22.2002 -10.2197h-76.2695c-8.08984 0 -12.1396 7.63965 -7.59961 14.3301l97.6797 145.53
c5.73047 8.44043 14.6006 13.1406 24.8008 13.1406zM188.829 736.999h113.76c9.42969 0 15.6797 -7.45996 14.0498 -16.7402l-125.07 -709.28c-1.16016 -6.61035 -6.37988 -10.9805 -13.0801 -10.9805h-120.41c-9.41992 0 -15.6797 7.4502 -14.04 16.7305l123.91 702.75
c1.86035 10.54 10.1807 17.5205 20.8809 17.5205z" />
    <glyph glyph-name="lcaron" unicode="&#x13e;" horiz-adv-x="406" 
d="M385.12 737l120.48 -0.00195312c9.28027 0 15.4805 -7.28027 14.0107 -16.4404l-13.8203 -85.9502c-1.15039 -7.17969 -3.80078 -13.3594 -8.20117 -19.1289l-80.1396 -110.35c-4.34961 -5.7998 -10.71 -8.97949 -17.9795 -8.97949h-67.46
c-8.61035 0 -12.7305 8.33984 -7.51074 15.1602l74.6396 103.22h-36.4102c-9.42969 0 -15.6797 7.4502 -14.0498 16.7305l15.5596 88.2197c1.86035 10.54 10.1807 17.5205 20.8809 17.5205zM188.82 736.998h113.76c9.42969 0 15.6797 -7.45996 14.0498 -16.7402
l-125.07 -709.28c-1.16016 -6.61035 -6.37988 -10.9805 -13.0801 -10.9805h-120.41c-9.41992 0 -15.6797 7.4502 -14.04 16.7305l123.91 702.75c1.86035 10.54 10.1807 17.5205 20.8809 17.5205z" />
    <glyph glyph-name="lcommaaccent" unicode="&#x13c;" horiz-adv-x="227" 
d="M188.83 737h113.76c9.42969 0 15.6797 -7.45996 14.0498 -16.7402l-125.07 -709.28c-1.16016 -6.61035 -6.37988 -10.9805 -13.0801 -10.9805h-120.41c-9.41992 0 -15.6797 7.4502 -14.04 16.7305l123.91 702.75c1.86035 10.54 10.1807 17.5205 20.8809 17.5205z
M47.2002 -49.9199l120.489 -0.000976562c9.26953 0 15.4795 -7.28027 14.0098 -16.4307l-13.8203 -85.96c-1.15039 -7.16992 -3.81055 -13.3604 -8.2002 -19.1299l-80.1396 -110.35c-4.36035 -5.79004 -10.7207 -8.96973 -17.9902 -8.96973h-67.46
c-8.59961 0 -12.7197 8.33008 -7.50977 15.1602l74.6504 103.21h-36.4199c-9.41992 0 -15.6797 7.45996 -14.04 16.7402l15.5498 88.21c1.86035 10.54 10.1807 17.5205 20.8809 17.5205z" />
    <glyph glyph-name="ldot" unicode="&#x140;" horiz-adv-x="403" 
d="M188.83 737h113.76c9.42969 0 15.6797 -7.45996 14.0498 -16.7402l-125.07 -709.28c-1.16016 -6.61035 -6.37988 -10.9805 -13.0801 -10.9805h-120.41c-9.41992 0 -15.6797 7.4502 -14.04 16.7305l123.91 702.75c1.86035 10.54 10.1807 17.5205 20.8809 17.5205z
M320.439 373.73h117.4c9.41992 0 15.6797 -7.45996 14.04 -16.7402l-20.5498 -116.56c-1.86035 -10.54 -10.1807 -17.5205 -20.8809 -17.5205h-117.4c-9.41992 0 -15.6797 7.45996 -14.04 16.7402l20.5498 116.56c1.86035 10.54 10.1807 17.5205 20.8809 17.5205z" />
    <glyph glyph-name="lslash" unicode="&#x142;" horiz-adv-x="414" 
d="M438.31 542.23l40.9785 -74.4502c3.5498 -6.45996 1.62988 -13.7402 -4.63965 -17.6201l-129.34 -79.9502l-63.3398 -359.24c-1.16992 -6.59961 -6.37988 -10.9795 -13.0898 -10.9795h-120.4c-9.42969 0 -15.6797 7.45996 -14.0498 16.7402l44.1602 250.42
l-45.1299 -27.8896c-7.01953 -4.33984 -15.21 -2.17969 -19.1699 5.06055l-40.9697 74.4502c-3.5498 6.45996 -1.62988 13.7402 4.63965 17.6201l126.64 78.2803l53.75 304.81c1.86035 10.54 10.1807 17.5205 20.8809 17.5205h113.76
c9.41992 0 15.6797 -7.45996 14.04 -16.7402l-35.71 -202.53l47.8203 29.5596c7.01953 4.33984 15.21 2.17969 19.1699 -5.06055z" />
    <glyph glyph-name="m" unicode="m" horiz-adv-x="820" 
d="M708.37 513l11.3691 -0.0107422c91.7305 0 142.721 -63.9502 124.48 -167.4l-59 -334.62c-1.16016 -6.61035 -6.37988 -10.9805 -13.0801 -10.9805h-120.41c-9.41992 0 -15.6797 7.4502 -14.04 16.7305l53.2598 302.06c9.04004 51.2803 -1.20996 75.2998 -47.21 75.2998
h-4.45996c-26.04 0 -59.29 -12.1699 -92.6904 -31.9902c0.230469 -11.8896 -3.15918 -33.3594 -4.85938 -42.9795l-54.3301 -308.14c-1.16992 -6.59961 -6.37988 -10.9795 -13.0898 -10.9795h-120.4c-9.42969 0 -15.6797 7.45996 -14.0498 16.7402l53.2598 302.06
c9.04004 51.2695 -1.20996 75.2998 -47.21 75.2998h-4.4502c-25.6299 0 -58.2695 -11.6699 -89.5 -29.9004l-62.3896 -353.22c-1.16992 -6.59961 -6.37988 -10.9697 -13.0801 -10.9697h-120.41c-9.41992 0 -15.6797 7.4502 -14.04 16.7305l82.1201 465.75
c1.86035 10.54 10.1807 17.5205 20.8809 17.5205h98.9297c7.62988 0 13.2002 -5.46973 13.3398 -13.0898l-1.12988 -35.1797c60.29 45.3496 107.25 61.2695 154.37 61.2695h11.3604c61.4805 0 104.53 -31.1904 116.9 -75.7607
c69.8096 57.5703 119.619 75.7607 169.56 75.7607z" />
    <glyph glyph-name="n" unicode="n" horiz-adv-x="529" 
d="M410.55 513l11.3682 -0.00976562c93.3604 0.00976562 149.351 -63.9404 131.11 -167.4l-59 -334.62c-1.16016 -6.59961 -6.37988 -10.9795 -13.0801 -10.9795h-120.41c-9.41992 0 -15.6797 7.45996 -14.04 16.7402l53.2598 302.06
c9.04004 51.2695 -6.20996 75.2998 -53.8496 75.2998h-4.4502c-25.6299 0 -58.2695 -11.6699 -89.5 -29.9004l-62.3896 -353.22c-1.16992 -6.59961 -6.37988 -10.9697 -13.0801 -10.9697h-120.41c-9.41992 0 -15.6797 7.4502 -14.04 16.7305l82.1201 465.75
c1.86035 10.54 10.1807 17.5205 20.8809 17.5205h98.9004c7.62012 0 13.1904 -5.45996 13.3301 -13.0703l-1.08984 -35.2002c60.29 45.3496 107.25 61.2695 154.37 61.2695z" />
    <glyph glyph-name="nacute" unicode="&#x144;" horiz-adv-x="529" 
d="M441.24 737.55l97.6787 -0.000976562c9.16016 0 13.3604 -9.11035 7.41016 -16.0801l-121.5 -146.7c-5.69043 -6.65039 -13.4307 -10.2207 -22.2002 -10.2207h-76.2695c-8.08984 0 -12.1396 7.65039 -7.59961 14.3408l97.6797 145.53
c5.73047 8.44043 14.6006 13.1309 24.8008 13.1309zM410.549 512.999l11.3682 -0.00976562c93.3604 0.00976562 149.351 -63.9404 131.11 -167.4l-59 -334.62c-1.16016 -6.59961 -6.37988 -10.9795 -13.0801 -10.9795h-120.41c-9.41992 0 -15.6797 7.45996 -14.04 16.7402
l53.2598 302.06c9.04004 51.2695 -6.20996 75.2998 -53.8496 75.2998h-4.4502c-25.6299 0 -58.2695 -11.6699 -89.5 -29.9004l-62.3896 -353.22c-1.16992 -6.59961 -6.37988 -10.9697 -13.0801 -10.9697h-120.41c-9.41992 0 -15.6797 7.4502 -14.04 16.7305l82.1201 465.75
c1.86035 10.54 10.1807 17.5205 20.8809 17.5205h98.9004c7.62012 0 13.1904 -5.45996 13.3301 -13.0703l-1.08984 -35.2002c60.29 45.3496 107.25 61.2695 154.37 61.2695z" />
    <glyph glyph-name="ncaron" unicode="&#x148;" horiz-adv-x="529" 
d="M455.87 737.55l84.9385 0.0107422c9.2002 0 13.4004 -9.15039 7.41016 -16.1309l-125.46 -149.09c-4.34961 -5.07031 -10.25 -7.79004 -16.9297 -7.79004h-71.0303c-6.33984 0 -11.71 3.32031 -14.5498 9l-74.1396 151.48
c-3.16016 6.24023 0.700195 12.5303 7.7002 12.5303h88.0498c7.74023 0 14.0098 -4.65039 16.2695 -12.0605l22.7305 -72.5703l50.6602 72.04c5.75 8.09961 14.4102 12.5801 24.3506 12.5801zM410.539 513.001l11.3691 0.000976562c93.3701 0 149.36 -63.9502 131.12 -167.4
l-59 -334.62c-1.16992 -6.61035 -6.37988 -10.9805 -13.0898 -10.9805h-120.4c-9.42969 0 -15.6797 7.4502 -14.0498 16.7305l53.2598 302.06c9.04004 51.2803 -6.20996 75.2998 -53.8398 75.2998h-4.45996c-25.6201 0 -58.2705 -11.6602 -89.4902 -29.8906
l-62.4004 -353.23c-1.16016 -6.59961 -6.37012 -10.9697 -13.0801 -10.9697h-120.4c-9.42969 -0 -15.6797 7.45996 -14.0498 16.7402l82.1299 465.74c1.86035 10.54 10.1807 17.5205 20.8809 17.5205h98.9004c7.62012 0 13.1797 -5.45996 13.3301 -13.0596l-1.08984 -35.21
c60.29 45.3496 107.25 61.2695 154.36 61.2695z" />
    <glyph glyph-name="ncommaaccent" unicode="&#x146;" horiz-adv-x="529" 
d="M410.55 513l11.3682 -0.00976562c93.3604 0.00976562 149.351 -63.9404 131.11 -167.4l-59 -334.62c-1.16016 -6.59961 -6.37988 -10.9795 -13.0801 -10.9795h-120.41c-9.41992 0 -15.6797 7.45996 -14.04 16.7402l53.2598 302.06
c9.04004 51.2695 -6.20996 75.2998 -53.8496 75.2998h-4.4502c-25.6299 0 -58.2695 -11.6699 -89.5 -29.9004l-62.3896 -353.22c-1.16992 -6.59961 -6.37988 -10.9697 -13.0801 -10.9697h-120.41c-9.41992 0 -15.6797 7.4502 -14.04 16.7305l82.1201 465.75
c1.86035 10.54 10.1807 17.5205 20.8809 17.5205h98.9004c7.62012 0 13.1904 -5.45996 13.3301 -13.0703l-1.08984 -35.2002c60.29 45.3496 107.25 61.2695 154.37 61.2695zM198.838 -49.9199l120.489 -0.000976562c9.26953 0 15.4795 -7.28027 14.0098 -16.4307
l-13.8203 -85.96c-1.15039 -7.16992 -3.81055 -13.3604 -8.2002 -19.1299l-80.1396 -110.35c-4.36035 -5.79004 -10.7207 -8.96973 -17.9902 -8.96973h-67.46c-8.59961 0 -12.7197 8.33008 -7.50977 15.1602l74.6504 103.21h-36.4199
c-9.41992 0 -15.6797 7.45996 -14.04 16.7402l15.5498 88.21c1.86035 10.54 10.1807 17.5205 20.8809 17.5205z" />
    <glyph glyph-name="eng" unicode="&#x14b;" horiz-adv-x="529" 
d="M410.55 513h11.3564c93.3701 0 149.36 -63.9502 131.12 -167.4l-65.0195 -368.22c-18.0996 -103.1 -80.8301 -157.38 -169.76 -157.38h-10.9102c-27.3398 0 -53.0596 4.33008 -75.9092 13.5303c-7.48047 3.01953 -11.4609 10.5195 -10.0107 18.7695l13.5898 77.0596
c1.49023 8.42969 9.10059 12.9102 17.5508 10.5605c13.2803 -4.34961 22.3701 -5.91992 31.9805 -5.91992h4.82031c21.5996 0 44.5195 9.17969 51.7695 50.0498l58.6299 334.74c9.04004 51.2695 -6.20996 75.2998 -53.8496 75.2998h-4.4502
c-25.6299 0 -58.2695 -11.6699 -89.5 -29.9004l-62.3896 -353.22c-1.16992 -6.59961 -6.37988 -10.9697 -13.0801 -10.9697h-120.41c-9.41992 0 -15.6797 7.4502 -14.04 16.7305l82.1201 465.75c1.86035 10.54 10.1807 17.5205 20.8809 17.5205h98.9004
c7.62012 0 13.1904 -5.45996 13.3301 -13.0703l-1.08984 -35.2002c60.29 45.3496 107.25 61.2695 154.37 61.2695z" />
    <glyph glyph-name="ntilde" unicode="&#xf1;" horiz-adv-x="529" 
d="M491.08 689.13l40.5713 0.000976562c7.2002 0 10.9502 -6.84961 7.33008 -13.5098c-51.4805 -94.2402 -83.6904 -121.07 -128.841 -121.07h-4c-45.6797 0 -45.3301 39.6299 -81.46 39.6396c-16.7002 -0.00976562 -26.5 -8.74023 -39.9697 -22.9307
c-4.29004 -4.32031 -9.62988 -6.4707 -15.54 -6.4707h-40.4004c-7.19043 0 -10.9502 6.84961 -7.32031 13.5098c51.4697 94.25 83.6797 121.07 128.83 121.07h4c46.5898 0 49.5098 -39.6396 81.46 -39.6299c14.6602 -0.00976562 25.8604 8.25 39.9102 22.9902
c4.2998 4.24023 9.5498 6.40039 15.4297 6.40039zM410.552 513.001l11.3691 -0.00976562c93.3701 0.00976562 149.36 -63.9404 131.12 -167.4l-59 -334.62c-1.16992 -6.59961 -6.37988 -10.9795 -13.0898 -10.9795h-120.4c-9.42969 0 -15.6797 7.45996 -14.0498 16.7402
l53.2598 302.06c9.04004 51.2695 -6.20996 75.2998 -53.8398 75.2998h-4.45996c-25.6201 0 -58.2705 -11.6699 -89.4902 -29.9004l-62.4004 -353.22c-1.16016 -6.59961 -6.37012 -10.9697 -13.0801 -10.9697h-120.4c-9.42969 0 -15.6797 7.4502 -14.0498 16.7305
l82.1299 465.75c1.86035 10.54 10.1807 17.5205 20.8809 17.5205h98.9004c7.62012 0 13.1797 -5.45996 13.3301 -13.0703l-1.08984 -35.2002c60.29 45.3496 107.25 61.2695 154.36 61.2695z" />
    <glyph glyph-name="o" unicode="o" horiz-adv-x="543" 
d="M351.91 513h10.999c124.55 0 222.55 -86.04 196.89 -231.59l-13.0498 -74c-25.6699 -145.54 -142.6 -220.41 -267.149 -220.41h-11c-124.54 0 -222.55 86.04 -196.88 231.58l13.0498 74c25.6602 145.55 142.601 220.42 267.141 220.42zM344.179 394.09h-5.7207
c-50.1797 0 -89.9893 -34.1602 -101.689 -100.53l-15.4199 -87.4502c-11.7002 -66.3701 15.8096 -100.21 65.9893 -100.21h5.73047c50.1797 0 89.9893 34.1602 101.689 100.53l15.4199 87.4502c11.7002 66.3701 -15.8193 100.21 -65.999 100.21z" />
    <glyph glyph-name="oacute" unicode="&#xf3;" horiz-adv-x="543" 
d="M450.17 737.55l97.6689 -0.000976562c9.16992 0 13.3701 -9.11035 7.41992 -16.0801l-121.5 -146.7c-5.7002 -6.66016 -13.4404 -10.2197 -22.2002 -10.2197h-76.2695c-8.08984 0 -12.1396 7.63965 -7.59961 14.3301l97.6699 145.53
c5.74023 8.44043 14.6104 13.1406 24.8105 13.1406zM351.909 512.999h10.999c124.55 0 222.55 -86.04 196.89 -231.59l-13.0498 -74c-25.6699 -145.54 -142.6 -220.41 -267.149 -220.41h-11c-124.54 0 -222.55 86.04 -196.88 231.58l13.0498 74
c25.6602 145.55 142.601 220.42 267.141 220.42zM344.178 394.089h-5.7207c-50.1797 0 -89.9893 -34.1602 -101.689 -100.53l-15.4199 -87.4502c-11.7002 -66.3701 15.8096 -100.21 65.9893 -100.21h5.73047c50.1797 0 89.9893 34.1602 101.689 100.53l15.4199 87.4502
c11.7002 66.3701 -15.8193 100.21 -65.999 100.21z" />
    <glyph glyph-name="ocaron" unicode="&#x1d2;" horiz-adv-x="543" 
d="M463.32 737.55l84.9385 -0.00195312c9.2002 0 13.4004 -9.15039 7.41016 -16.1201l-125.46 -149.1c-4.34961 -5.07031 -10.25 -7.78027 -16.9297 -7.78027h-71.0303c-6.33984 0 -11.71 3.32031 -14.5498 8.99023l-74.1396 151.48
c-3.16016 6.25 0.700195 12.5303 7.7002 12.5303h88.0498c7.74023 0 14.0098 -4.63965 16.2695 -12.0498l22.7305 -72.5801l50.6602 72.04c5.75 8.11035 14.4102 12.5908 24.3506 12.5908zM351.898 512.998h10.999c124.55 0 222.55 -86.04 196.89 -231.58l-13.0498 -74
c-25.6699 -145.55 -142.6 -220.42 -267.149 -220.42h-11c-124.54 0 -222.55 86.04 -196.88 231.59l13.0498 74c25.6602 145.54 142.601 220.41 267.141 220.41zM344.167 394.088h-5.7207c-50.1797 0 -89.9893 -34.1602 -101.689 -100.521l-15.4199 -87.46
c-11.7002 -66.3604 15.8096 -100.2 65.9893 -100.2h5.73047c50.1797 0 89.9893 34.1602 101.689 100.521l15.4199 87.46c11.7002 66.3604 -15.8193 100.2 -65.999 100.2z" />
    <glyph glyph-name="ocircumflex" unicode="&#xf4;" horiz-adv-x="543" 
d="M364.89 737.55l66.5801 -0.0117188c9.16016 0 16.9199 -4.76953 21.0498 -12.9492l72.0996 -147.52c3.16016 -6.25 -0.700195 -12.5303 -7.7002 -12.5303h-88.0498c-7.74023 0 -14.0098 4.63965 -16.2695 12.0498l-22.7402 72.5801l-52.7598 -75.0195
c-4.38965 -6.19043 -11 -9.61035 -18.5898 -9.61035h-88.5898c-9.2002 0 -13.4102 9.15039 -7.41992 16.1309l125.47 149.09c4.33984 5.07031 10.2402 7.79004 16.9199 7.79004zM351.91 512.988h11.001c124.54 0 222.55 -86.04 196.88 -231.58l-13.0498 -74
c-25.6602 -145.55 -142.601 -220.42 -267.141 -220.42h-11c-124.55 0 -222.55 86.04 -196.89 231.59l13.0498 74c25.6699 145.54 142.6 220.41 267.149 220.41zM344.181 394.078h-5.72949c-50.1797 0 -89.9893 -34.1602 -101.689 -100.521l-15.4199 -87.46
c-11.7002 -66.3604 15.8193 -100.2 65.999 -100.2h5.71973c50.1797 0 89.9893 34.1602 101.689 100.521l15.4199 87.46c11.7002 66.3604 -15.8096 100.2 -65.9893 100.2z" />
    <glyph glyph-name="odieresis" unicode="&#xf6;" horiz-adv-x="543" 
d="M259.18 718.09h96.1201c9.42969 0 15.6797 -7.4502 14.0498 -16.7305l-20.5596 -116.56c-1.86035 -10.54 -10.1807 -17.5205 -20.8809 -17.5205h-96.1201c-9.42969 0 -15.6797 7.4502 -14.0498 16.7305l20.5596 116.56c1.86035 10.54 10.1807 17.5205 20.8809 17.5205z
M443.09 718.09h96.1201c9.42969 0 15.6797 -7.4502 14.0498 -16.7305l-20.5596 -116.56c-1.86035 -10.54 -10.1807 -17.5205 -20.8809 -17.5205h-96.1201c-9.42969 0 -15.6797 7.4502 -14.0498 16.7305l20.5596 116.56c1.86035 10.54 10.1807 17.5205 20.8809 17.5205z
M351.91 513h10.999c124.55 0 222.55 -86.04 196.89 -231.59l-13.0498 -74c-25.6699 -145.54 -142.6 -220.41 -267.149 -220.41h-11c-124.54 0 -222.55 86.04 -196.88 231.58l13.0498 74c25.6602 145.55 142.601 220.42 267.141 220.42zM344.179 394.09h-5.7207
c-50.1797 0 -89.9893 -34.1602 -101.689 -100.53l-15.4199 -87.4502c-11.7002 -66.3701 15.8096 -100.21 65.9893 -100.21h5.73047c50.1797 0 89.9893 34.1602 101.689 100.53l15.4199 87.4502c11.7002 66.3701 -15.8193 100.21 -65.999 100.21z" />
    <glyph glyph-name="ograve" unicode="&#xf2;" horiz-adv-x="543" 
d="M259.74 737.55l95.9199 -0.000976562c10.9805 0 19.9209 -6.49023 23.3311 -16.9404l46.3398 -145.47c1.83008 -5.62012 -1.78027 -10.5898 -7.69043 -10.5898h-74.29c-9.20996 0 -17 4.82031 -21.1104 13.0508l-70.2002 147.47
c-3.12988 6.23047 0.719727 12.4805 7.7002 12.4805zM351.92 512.999h11.001c124.54 0 222.55 -86.04 196.88 -231.59l-13.0498 -74c-25.6602 -145.54 -142.601 -220.41 -267.141 -220.41h-11c-124.55 0 -222.55 86.04 -196.89 231.58l13.0498 74
c25.6699 145.55 142.6 220.42 267.149 220.42zM344.19 394.089h-5.72949c-50.1797 0 -89.9893 -34.1602 -101.689 -100.53l-15.4199 -87.4502c-11.7002 -66.3701 15.8193 -100.21 65.999 -100.21h5.71973c50.1797 0 89.9893 34.1602 101.689 100.53l15.4199 87.4502
c11.7002 66.3701 -15.8096 100.21 -65.9893 100.21z" />
    <glyph glyph-name="ohungarumlaut" unicode="&#x151;" horiz-adv-x="543" 
d="M516.2 737.55l84.5791 -0.000976562c9.16992 0 13.3701 -9.11035 7.41992 -16.0801l-121.5 -146.7c-5.7002 -6.66016 -13.4404 -10.2197 -22.2002 -10.2197h-63.1797c-8.08984 0 -12.1396 7.63965 -7.59961 14.3301l97.6699 145.53
c5.74023 8.44043 14.6104 13.1406 24.8105 13.1406zM395.739 737.549h84.46c9.2002 0 13.4004 -9.16016 7.41016 -16.1406l-122.25 -146.72c-5.69043 -6.61035 -13.4004 -10.1406 -22.1309 -10.1406h-62.3701c-8.08984 0 -12.1396 7.63965 -7.59961 14.3301l97.6797 145.53
c5.73047 8.44043 14.6006 13.1406 24.8008 13.1406zM351.919 512.999h10.999c124.55 0 222.55 -86.04 196.89 -231.59l-13.0498 -74c-25.6699 -145.54 -142.6 -220.41 -267.149 -220.41h-11c-124.54 0 -222.55 86.04 -196.88 231.58l13.0498 74
c25.6602 145.55 142.601 220.42 267.141 220.42zM344.188 394.089h-5.7207c-50.1797 0 -89.9893 -34.1602 -101.689 -100.53l-15.4199 -87.4502c-11.7002 -66.3701 15.8096 -100.21 65.9893 -100.21h5.73047c50.1797 0 89.9893 34.1602 101.689 100.53l15.4199 87.4502
c11.7002 66.3701 -15.8193 100.21 -65.999 100.21z" />
    <glyph glyph-name="omacron" unicode="&#x14d;" horiz-adv-x="543" 
d="M279.01 672.27h224.22c9.41992 0 15.6797 -7.4502 14.04 -16.7305l-12.4697 -70.75c-1.86035 -10.54 -10.1807 -17.5205 -20.8809 -17.5205h-224.22c-9.41992 0 -15.6797 7.45996 -14.04 16.7402l12.4697 70.7402c1.86035 10.54 10.1807 17.5205 20.8809 17.5205z
M351.92 513h11.001c124.54 0 222.55 -86.04 196.88 -231.59l-13.0498 -74c-25.6602 -145.54 -142.601 -220.41 -267.141 -220.41h-11c-124.55 0 -222.55 86.04 -196.89 231.58l13.0498 74c25.6699 145.55 142.6 220.42 267.149 220.42zM344.19 394.09h-5.72949
c-50.1797 0 -89.9893 -34.1602 -101.689 -100.53l-15.4199 -87.4502c-11.7002 -66.3701 15.8193 -100.21 65.999 -100.21h5.71973c50.1797 0 89.9893 34.1602 101.689 100.53l15.4199 87.4502c11.7002 66.3701 -15.8096 100.21 -65.9893 100.21z" />
    <glyph glyph-name="oslash" unicode="&#xf8;" horiz-adv-x="543" 
d="M507.64 500l89.5996 -0.0107422c9.53027 0 13.9199 -9.75 7.34961 -16.6396l-62.5801 -65.4404c19.7402 -36.3301 27.3398 -82.2803 17.7803 -136.5l-13.0498 -74c-25.6699 -145.54 -142.6 -220.41 -267.149 -220.41h-11c-41.5498 0 -80.1396 9.57031 -112.18 27.7402
l-4.7998 -5.01953c-5.92969 -6.23047 -13.4199 -9.7207 -22.0195 -9.7207h-95.3604c-9.61035 0 -14 9.87012 -7.33008 16.7803l62.8301 64.8604c-19.9199 36.4004 -27.6201 82.5107 -18.0205 136.94l13.0498 74c25.6699 145.55 142.6 220.42 267.149 220.42h11
c43.1299 0 83.0703 -10.3203 115.801 -29.8604l7.08984 7.32031c5.91016 6.12012 13.3301 9.54004 21.8398 9.54004zM223.77 219.999l159.52 164.67c-10.6201 6.25977 -23.8203 9.41016 -39.1299 9.41016h-5.73047c-50.1797 0 -89.9893 -34.1602 -101.689 -100.521z
M407.159 276.938l-156.09 -163.22c10.0898 -5.20996 22.29 -7.82031 36.2402 -7.82031h5.73047c50.1797 0 89.9893 34.1602 101.689 100.521z" />
    <glyph glyph-name="otilde" unicode="&#xf5;" horiz-adv-x="543" 
d="M498.17 689.13l40.5713 -0.000976562c7.2002 0 10.9502 -6.84961 7.33008 -13.5098c-51.4805 -94.25 -83.6904 -121.07 -128.841 -121.07h-4c-45.6797 -0.00976562 -45.3301 39.6299 -81.46 39.6299c-16.7002 0 -26.5 -8.74023 -39.9697 -22.9199
c-4.29004 -4.33008 -9.62988 -6.46973 -15.54 -6.46973h-40.4004c-7.19043 0 -10.9502 6.84961 -7.32031 13.5098c51.4697 94.2402 83.6797 121.07 128.83 121.07h4c46.5898 -0.00976562 49.5098 -39.6396 81.46 -39.6396c14.6602 0 25.8604 8.25 39.9102 23
c4.2998 4.24023 9.5498 6.40039 15.4297 6.40039zM351.921 512.999h11.001c124.54 0 222.55 -86.04 196.88 -231.59l-13.0498 -74c-25.6602 -145.54 -142.601 -220.41 -267.141 -220.41h-11c-124.55 0 -222.55 86.04 -196.89 231.58l13.0498 74
c25.6699 145.55 142.6 220.42 267.149 220.42zM344.191 394.089h-5.72949c-50.1797 0 -89.9893 -34.1602 -101.689 -100.53l-15.4199 -87.4502c-11.7002 -66.3701 15.8193 -100.21 65.999 -100.21h5.71973c50.1797 0 89.9893 34.1602 101.689 100.53l15.4199 87.4502
c11.7002 66.3701 -15.8096 100.21 -65.9893 100.21z" />
    <glyph glyph-name="oe" unicode="&#x153;" horiz-adv-x="839" 
d="M672.73 513l10.9922 -0.0117188c117.73 0 200.4 -78.6797 174.73 -224.22l-9.66992 -57.5703c-1.15039 -6.83984 -6.53027 -11.3896 -13.4707 -11.3896h-284.99l-2.58984 -16.1699c-12.3604 -68.6299 28.5098 -100.189 90.2793 -100.189h4.82031
c39.9404 0 86.4502 13.2305 149.05 34.5908c8.59961 2.82031 15.8594 -3.22949 14.3193 -11.9492l-14.8301 -84.0996c-2 -11.3398 -9.11035 -20.0303 -19.4307 -23.7002c-50.9805 -18.7402 -117.19 -31.2998 -167.24 -31.2998h-10.0898
c-65.1699 0 -116.99 21.46 -147.87 59.8096c-45.5996 -39.6104 -105 -59.8105 -167.13 -59.8105h-11c-124.55 0 -222.55 86.04 -196.89 231.59l13.0498 74c25.6699 145.54 142.6 220.41 267.149 220.41h11c60.7002 0 113.181 -21.8203 145.671 -62.7002
c44.7998 40.9102 102.88 62.71 164.14 62.71zM664.253 404.719l-4.08008 -0.000976562c-46.8301 0 -81.9004 -35.5996 -95.9707 -99.6992l158.57 0.30957c13.7305 66.6904 -4.36914 99.3906 -58.5195 99.3906zM344.183 394.078h-5.72949
c-50.1797 0 -89.9893 -34.1602 -101.689 -100.521l-15.4199 -87.46c-11.7002 -66.3604 15.8193 -100.2 65.999 -100.2h5.71973c50.1797 0 89.9893 34.1504 101.699 100.511l15.4199 87.46c11.7002 66.3701 -15.8193 100.21 -65.999 100.21z" />
    <glyph glyph-name="p" unicode="p" horiz-adv-x="538" 
d="M399.64 513l9.71875 -0.0117188c120.36 0 168.351 -101.58 147.311 -220.95l-14.9297 -84.6299c-25.6602 -145.55 -120.69 -220.42 -231.23 -220.42h-9.73047c-40.1797 0 -76.6602 15.4805 -102.21 42.6201l-36.2803 -185.97
c-1.26953 -6.42969 -6.39941 -10.6396 -12.9492 -10.6396h-120.7c-9.42969 0 -15.6797 7.4502 -14.0498 16.7305l111.57 632.75c1.86035 10.54 10.1807 17.5205 20.8809 17.5205h98.9697c7.62012 0 13.1797 -5.45996 13.3301 -13.0703l-1.59961 -28.9102
c36.8896 33.7305 85.8398 54.9805 141.899 54.9805zM346.448 394.078h-4.46094c-25.1904 0 -56.2402 -10.2998 -88.3604 -31.6396l-39.5996 -223.48c25.4199 -22.3701 54.0303 -33.0605 76.8506 -33.0605h4.4502c48.46 0 82.7197 34.1602 94.4199 100.521l15.4199 87.46
c11.7002 66.3604 -10.2695 100.2 -58.7197 100.2z" />
    <glyph glyph-name="thorn" unicode="&#xfe;" horiz-adv-x="538" 
d="M188.83 737l113.488 -0.0126953c9.57031 0 15.8799 -7.62988 14.0703 -17.04l-48.0098 -253.27c36.2197 29.9004 81.4795 46.3105 131.249 46.3105h9.73047c120.36 0 168.351 -101.58 147.311 -220.95l-14.9297 -84.6299
c-25.6602 -145.55 -120.69 -220.42 -231.23 -220.42h-9.73047c-40.1797 0 -76.6602 15.4805 -102.21 42.6201l-36.2803 -185.97c-1.26953 -6.42969 -6.39941 -10.6396 -12.9492 -10.6396h-120.7c-9.42969 0 -15.6797 7.4502 -14.0498 16.7305l153.36 869.75
c1.86035 10.54 10.1807 17.5205 20.8809 17.5205zM346.458 394.077l-4.46094 -0.00976562c-25.1904 0 -56.2402 -10.29 -88.3604 -31.6396l-39.5996 -223.48c25.4199 -22.3604 54.0303 -33.0605 76.8506 -33.0605h4.4502c48.46 0 82.7197 34.1602 94.4199 100.53
l15.4199 87.4502c11.7002 66.3701 -10.2695 100.21 -58.7197 100.21z" />
    <glyph glyph-name="q" unicode="q" horiz-adv-x="533" 
d="M337.28 513l10.0898 -0.00976562c81.54 0 158.44 -28.71 207.21 -58.7598c8.80957 -5.49023 12.7793 -15.25 11.0293 -25.5898l-99.2695 -584.56c-1.12988 -6.66016 -6.37012 -11.0801 -13.1201 -11.0801h-120.39c-9.42969 0 -15.6895 7.45996 -14.0498 16.75
l33.2197 187.31c-36.8203 -29.9102 -78.75 -50.0605 -128.48 -50.0605h-9.71973c-120.37 0 -165 101.58 -143.95 220.95l14.9199 84.6299c25.6699 145.55 120.78 220.42 252.511 220.42zM333.98 396.54l-4.82031 0.00976562c-47.5498 0 -81.0898 -34.1602 -91.9697 -100.53
l-15.8604 -89.9102c-11.7002 -66.3604 6.91016 -100.2 55.3701 -100.2h4.4502c25.2803 0 56.0303 10.1201 88.3701 31.6602l41.5303 234.23c-24.5801 14.7305 -54.0703 24.7402 -77.0703 24.7402z" />
    <glyph glyph-name="r" unicode="r" horiz-adv-x="368" 
d="M404.46 513h3.99805c5.87012 0 13.5303 -0.450195 21.9004 -1.53027c8.2002 -1.0498 13.04 -8.20996 11.6201 -16.2695l-19.8096 -112.32c-1.2998 -7.32031 -7.47949 -11.7402 -15.0195 -10.9307c-17.2803 1.87012 -31.1406 2.50977 -40.5205 2.50977h-6.91016
c-33.2998 0 -77.4395 -11.96 -111.89 -33.6201l-58.2598 -329.87c-1.16992 -6.59961 -6.37988 -10.9697 -13.0801 -10.9697h-120.41c-9.41992 0 -15.6797 7.4502 -14.04 16.7305l82.1201 465.75c1.86035 10.54 10.1807 17.5205 20.8809 17.5205h99.3398
c7.37012 0 12.8105 -5.17969 13.1807 -12.5195l-0.0498047 -47.8799c45.46 50.0098 99.6396 73.3994 146.949 73.3994z" />
    <glyph glyph-name="racute" unicode="&#x155;" horiz-adv-x="368" 
d="M353.54 737.55l97.6787 -0.000976562c9.16016 0 13.3604 -9.11035 7.41016 -16.0801l-121.5 -146.7c-5.69043 -6.66016 -13.4307 -10.2197 -22.2002 -10.2197h-76.2695c-8.08984 0 -12.1396 7.63965 -7.59961 14.3301l97.6797 145.53
c5.73047 8.44043 14.6006 13.1406 24.8008 13.1406zM404.459 512.999l3.99805 -0.00976562c5.87012 0 13.5303 -0.44043 21.9004 -1.52051c8.2002 -1.05957 13.04 -8.20996 11.6201 -16.2695l-19.8096 -112.32c-1.2998 -7.32031 -7.47949 -11.75 -15.0195 -10.9404
c-17.2803 1.87988 -31.1406 2.50977 -40.5205 2.50977h-6.91016c-33.2998 0 -77.4395 -11.96 -111.89 -33.6201l-58.2598 -329.86c-1.16992 -6.59961 -6.37988 -10.9697 -13.0801 -10.9697h-120.41c-9.41992 0 -15.6797 7.4502 -14.04 16.7305l82.1201 465.75
c1.86035 10.54 10.1807 17.5205 20.8809 17.5205h99.3398c7.37012 0 12.8105 -5.17969 13.1807 -12.5195l-0.0498047 -47.8799c45.46 50.0098 99.6396 73.3994 146.949 73.3994z" />
    <glyph glyph-name="rcaron" unicode="&#x159;" horiz-adv-x="368" 
d="M375.82 737.55l84.9385 -0.00195312c9.2002 0 13.4004 -9.15039 7.41016 -16.1201l-125.46 -149.1c-4.34961 -5.07031 -10.25 -7.78027 -16.9297 -7.78027h-71.0303c-6.33984 0 -11.71 3.32031 -14.5498 8.99023l-74.1396 151.48
c-3.16016 6.25 0.700195 12.5303 7.7002 12.5303h88.0498c7.74023 0 14.0098 -4.63965 16.2695 -12.0498l22.7305 -72.5801l50.6602 72.04c5.75 8.11035 14.4102 12.5908 24.3506 12.5908zM404.449 512.998h3.99805c5.87012 0 13.5303 -0.450195 21.9004 -1.53027
c8.2002 -1.0498 13.04 -8.20996 11.6201 -16.2695l-19.8096 -112.32c-1.2998 -7.32031 -7.47949 -11.7402 -15.0195 -10.9307c-17.2803 1.87012 -31.1406 2.50977 -40.5205 2.50977h-6.91016c-33.2998 0 -77.4395 -11.96 -111.89 -33.6201l-58.2598 -329.87
c-1.16992 -6.59961 -6.37988 -10.9697 -13.0801 -10.9697h-120.41c-9.41992 0 -15.6797 7.45996 -14.04 16.7402l82.1201 465.74c1.86035 10.54 10.1807 17.5205 20.8809 17.5205h99.3398c7.37012 0 12.8105 -5.17969 13.1807 -12.5098l-0.0498047 -47.8896
c45.46 50.0195 99.6396 73.3994 146.949 73.3994z" />
    <glyph glyph-name="rcommaaccent" unicode="&#x157;" horiz-adv-x="368" 
d="M404.46 513l3.99805 -0.00976562c5.87012 0 13.5303 -0.44043 21.9004 -1.52051c8.2002 -1.05957 13.04 -8.20996 11.6201 -16.2695l-19.8096 -112.32c-1.2998 -7.32031 -7.47949 -11.75 -15.0195 -10.9404c-17.2803 1.87988 -31.1406 2.50977 -40.5205 2.50977h-6.91016
c-33.2998 0 -77.4395 -11.96 -111.89 -33.6201l-58.2598 -329.86c-1.16992 -6.59961 -6.37988 -10.9697 -13.0801 -10.9697h-120.41c-9.41992 0 -15.6797 7.4502 -14.04 16.7305l82.1201 465.75c1.86035 10.54 10.1807 17.5205 20.8809 17.5205h99.3398
c7.37012 0 12.8105 -5.17969 13.1807 -12.5195l-0.0498047 -47.8799c45.46 50.0098 99.6396 73.3994 146.949 73.3994zM48.0781 -49.9199l120.491 -0.000976562c9.26953 0 15.4795 -7.28027 14.0098 -16.4307l-13.8203 -85.96
c-1.15039 -7.16992 -3.81055 -13.3604 -8.2002 -19.1299l-80.1504 -110.35c-4.34961 -5.79004 -10.71 -8.96973 -17.9795 -8.96973h-67.46c-8.61035 0 -12.7305 8.33008 -7.51074 15.1602l74.6396 103.21h-36.4102c-9.42969 0 -15.6797 7.45996 -14.0498 16.7402
l15.5596 88.21c1.86035 10.54 10.1807 17.5205 20.8809 17.5205z" />
    <glyph glyph-name="s" unicode="s" horiz-adv-x="434" 
d="M312.14 513l10.1904 0.00976562c43.2998 0 88.0801 -8.0498 122.63 -21.21c11.46 -3.82031 17.79 -15.1602 15.5498 -27.8701l-13.5098 -76.5996c-1.7002 -9.59961 -10.8105 -14.2793 -20.0508 -10.3291c-51.9297 23.2197 -78.0801 31.0098 -109.11 31.0098h-2.4502
c-36.6699 0 -64.9004 -14.5498 -69.3809 -39.9795l-0.519531 -2.91016c-4.88965 -27.7305 18.3408 -33.3506 44.1309 -42.7109l31.8398 -11.2803c81.25 -29 132.84 -63.1104 115.51 -161.38l-1.16992 -6.63965c-17.8896 -101.45 -119.92 -156.11 -229.29 -156.11h-6.91016
c-45.3398 0 -99.2803 9.29004 -134.98 22.9902c-11.2305 3.82031 -17.4102 15.0703 -15.2002 27.6299l13.5703 76.9102c1.65039 9.38965 10.46 14.0801 19.5303 10.4199c57.8496 -24.4404 88.6494 -32.9502 122.38 -32.9502h5.73047
c40.96 0 70.1904 14.6904 75.2002 43.0703l0.509766 2.91016c4.87988 27.6299 -15.8398 34.6104 -43.0801 43.9805l-31.8398 11.2695c-63.6602 22.5498 -134.22 55.29 -116.229 157.29l0.94043 5.37012c18.8203 106.72 123.83 157.109 216.01 157.109z" />
    <glyph glyph-name="sacute" unicode="&#x15b;" horiz-adv-x="434" 
d="M392.14 737.55l97.6689 -0.000976562c9.16992 0 13.3701 -9.11035 7.41992 -16.0801l-121.5 -146.7c-5.7002 -6.66016 -13.4404 -10.2197 -22.2002 -10.2197h-76.2695c-8.08984 0 -12.1396 7.63965 -7.59961 14.3301l97.6699 145.53
c5.74023 8.44043 14.6104 13.1406 24.8105 13.1406zM312.139 512.999l10.1904 0.00976562c43.2998 0 88.0801 -8.0498 122.63 -21.21c11.46 -3.82031 17.79 -15.1602 15.5498 -27.8701l-13.5098 -76.5996c-1.7002 -9.59961 -10.8105 -14.2793 -20.0508 -10.3291
c-51.9297 23.2197 -78.0801 31.0098 -109.11 31.0098h-2.4502c-36.6699 0 -64.9004 -14.5498 -69.3809 -39.9795l-0.519531 -2.91016c-4.88965 -27.7305 18.3408 -33.3506 44.1309 -42.7109l31.8398 -11.2803c81.25 -29 132.84 -63.1104 115.51 -161.38l-1.16992 -6.63965
c-17.8896 -101.45 -119.92 -156.11 -229.29 -156.11h-6.91016c-45.3398 0 -99.2803 9.29004 -134.98 22.9902c-11.2305 3.82031 -17.4102 15.0703 -15.2002 27.6299l13.5703 76.9102c1.65039 9.38965 10.46 14.0801 19.5303 10.4199
c57.8496 -24.4404 88.6494 -32.9502 122.38 -32.9502h5.73047c40.96 0 70.1904 14.6904 75.2002 43.0703l0.509766 2.91016c4.87988 27.6299 -15.8398 34.6104 -43.0801 43.9805l-31.8398 11.2695c-63.6602 22.5498 -134.22 55.29 -116.229 157.29l0.94043 5.37012
c18.8203 106.72 123.83 157.109 216.01 157.109z" />
    <glyph glyph-name="scaron" unicode="&#x161;" horiz-adv-x="434" 
d="M409 737.55l84.9385 -0.00195312c9.2002 0 13.4004 -9.15039 7.41016 -16.1201l-125.46 -149.1c-4.34961 -5.07031 -10.25 -7.78027 -16.9297 -7.78027h-71.0303c-6.33984 0 -11.71 3.32031 -14.5498 8.99023l-74.1396 151.48
c-3.16016 6.25 0.700195 12.5303 7.7002 12.5303h88.0498c7.74023 0 14.0098 -4.63965 16.2695 -12.0498l22.7305 -72.5801l50.6602 72.04c5.75 8.11035 14.4102 12.5908 24.3506 12.5908zM312.129 512.998l10.1904 0.00683594c43.2998 0 88.0801 -8.0498 122.63 -21.21
c11.46 -3.80957 17.79 -15.1592 15.5498 -27.8594l-13.5098 -76.5996c-1.7002 -9.59961 -10.8105 -14.29 -20.0508 -10.3301c-51.9297 23.2197 -78.0801 31 -109.11 31h-2.4502c-36.6699 0 -64.9004 -14.5498 -69.3809 -39.9795l-0.519531 -2.91016
c-4.88965 -27.7197 18.3408 -33.3398 44.1309 -42.71l31.8398 -11.2695c81.25 -29 132.84 -63.1104 115.51 -161.391l-1.16992 -6.62988c-17.8896 -101.46 -119.92 -156.12 -229.29 -156.12h-6.91016c-45.3398 0 -99.2803 9.2998 -134.98 23
c-11.2305 3.82031 -17.4102 15.0605 -15.2002 27.6201l13.5703 76.9199c1.65039 9.38965 10.46 14.0801 19.5303 10.4102c57.8496 -24.4404 88.6494 -32.9404 122.38 -32.9404h5.73047c40.96 0 70.1904 14.6904 75.2002 43.0605l0.509766 2.91016
c4.87988 27.6396 -15.8398 34.6201 -43.0801 43.9805l-31.8398 11.2803c-63.6602 22.54 -134.22 55.29 -116.229 157.29l0.94043 5.36035c18.8203 106.73 123.83 157.11 216.01 157.11z" />
    <glyph glyph-name="scedilla" unicode="&#x15f;" horiz-adv-x="434" 
d="M444.95 491.79c11.46 -3.82031 17.792 -15.1533 15.5518 -27.8633l-13.5098 -76.5996c-1.7002 -9.59961 -10.8105 -14.2793 -20.0508 -10.3291c-51.9297 23.2197 -78.0801 31.0098 -109.11 31.0098h-2.4502c-36.6699 0 -64.9004 -14.5498 -69.3809 -39.9795
l-0.519531 -2.91016c-4.88965 -27.7305 18.3408 -33.3506 44.1309 -42.7109l31.8398 -11.2803c81.25 -29 132.84 -63.1104 115.51 -161.38l-1.16992 -6.63965c-16.7598 -95.0098 -107.31 -148.979 -208.569 -155.449l-13.2598 -35.1699
c2.84961 0.650391 9.5 1.23047 13.96 1.23047c41.9502 0 74.1006 -35.2197 64.4209 -90.0801c-9.08008 -51.5 -53.4102 -78.6396 -115.601 -78.6396c-29.5098 0 -58.2295 6.15039 -79.7695 15.8701c-6.90039 3.15039 -10.0605 10.3701 -8.60059 17.8701l4.66992 24.79
c0.990234 5.16992 5.64062 7.71973 10.5811 6.0498c14.2197 -4.63965 33.7998 -9.30957 55.5 -9.30957c27.4297 0 42.9102 9.62012 46.0303 27.3203c2.7998 15.8398 -6.95996 25.1396 -28.71 25.1396c-9.16992 0 -20.0703 -1.83008 -37.79 -7.67969
c-2.08984 -0.700195 -4.16992 -0.580078 -6.08008 0.349609l-8.83984 4.23047c-2.41992 1.15039 -3.4502 3.69043 -2.5 6.20996l35.5098 93.5801c-33.5098 3.62012 -67.2402 11.0303 -92.1104 20.5703c-11.2305 3.82031 -17.4209 15.0703 -15.2012 27.6299l13.5596 76.9102
c1.66016 9.38965 10.4697 14.0801 19.5293 10.4199c57.8496 -24.4404 88.6494 -32.9502 122.39 -32.9502h5.71973c40.96 0 70.2002 14.6904 75.2002 43.0703l0.519531 2.91016c4.87012 27.6299 -15.8398 34.6104 -43.0801 43.9805l-31.8496 11.2695
c-63.6602 22.5498 -134.21 55.29 -116.229 157.29l0.950195 5.37012c18.8203 106.72 123.82 157.109 216 157.109h10.1797c43.2998 0 88.0801 -8.0498 122.63 -21.21z" />
    <glyph glyph-name="scommaaccent" unicode="&#x219;" horiz-adv-x="434" 
d="M312.14 513l10.1904 0.00976562c43.2998 0 88.0801 -8.0498 122.63 -21.21c11.46 -3.82031 17.79 -15.1602 15.5498 -27.8701l-13.5098 -76.5996c-1.7002 -9.59961 -10.8105 -14.2793 -20.0508 -10.3291c-51.9297 23.2197 -78.0801 31.0098 -109.11 31.0098h-2.4502
c-36.6699 0 -64.9004 -14.5498 -69.3809 -39.9795l-0.519531 -2.91016c-4.88965 -27.7305 18.3408 -33.3506 44.1309 -42.7109l31.8398 -11.2803c81.25 -29 132.84 -63.1104 115.51 -161.38l-1.16992 -6.63965c-17.8896 -101.45 -119.92 -156.11 -229.29 -156.11h-6.91016
c-45.3398 0 -99.2803 9.29004 -134.98 22.9902c-11.2305 3.82031 -17.4102 15.0703 -15.2002 27.6299l13.5703 76.9102c1.65039 9.38965 10.46 14.0801 19.5303 10.4199c57.8496 -24.4404 88.6494 -32.9502 122.38 -32.9502h5.73047
c40.96 0 70.1904 14.6904 75.2002 43.0703l0.509766 2.91016c4.87988 27.6299 -15.8398 34.6104 -43.0801 43.9805l-31.8398 11.2695c-63.6602 22.5498 -134.22 55.29 -116.229 157.29l0.94043 5.37012c18.8203 106.72 123.83 157.109 216.01 157.109zM151.49 -49.9102
l120.491 -0.000976562c9.26953 0 15.4697 -7.28027 14 -16.4307l-13.8203 -85.96c-1.15039 -7.16992 -3.80078 -13.3604 -8.20117 -19.1299l-80.1396 -110.35c-4.34961 -5.79004 -10.71 -8.96973 -17.9795 -8.96973h-67.46c-8.61035 0 -12.7305 8.33008 -7.51074 15.1602
l74.6396 103.21h-36.4102c-9.42969 0 -15.6797 7.45996 -14.0498 16.7402l15.5596 88.21c1.86035 10.54 10.1807 17.5205 20.8809 17.5205z" />
    <glyph glyph-name="germandbls" unicode="&#xdf;" horiz-adv-x="627" 
d="M344.64 750l10.082 0.0234375c93.46 0 171.84 -49.7598 152.25 -161.95l-0.610352 -3.40039c-15.1797 -86.0703 -85.0195 -113.261 -95.2598 -171.461l-0.459961 -2.65039c-10.3301 -58.4404 42.8799 -79.6006 67.1797 -88.1504l31.0303 -11.2695
c83.5596 -29.8203 133.51 -63.9307 116.109 -161.391l-1.16992 -6.62988c-17.8896 -101.46 -119.92 -156.12 -229.29 -156.12h-6.91016c-43.1504 0 -95.9102 8.79004 -134.28 22.9004c-11.9502 3.88965 -18.04 15.5596 -15.8398 28.0293l13.5195 76.6699
c1.66016 9.41992 10.5303 14.0996 19.6504 10.3799c51.6602 -22.1504 85.6699 -32.9805 122.26 -32.9805h5.71973c43.1797 0 70.4102 15.8896 75.2002 43.0693l0.519531 2.91016c5.08984 27.6299 -16.4502 34.6104 -42.8701 43.9805l-31.8496 11.2695
c-65.9697 23.3701 -134.069 56.1104 -116.439 157.29l0.94043 5.37012c17.3096 98.1504 109.109 131.631 122.43 207.171l0.629883 3.41992c8.55957 48.5498 -13.9707 67.0693 -43.4111 67.0693h-4.82031c-31.3604 0 -62.6006 -19.0703 -72.3506 -74.3398l-96.6602 -548.23
c-1.16992 -6.61035 -6.37988 -10.9805 -13.0898 -10.9805h-120.4c-9.42969 0 -15.6797 7.4502 -14.0498 16.7305l100.73 571.24c18.0801 102.55 98.2305 162.03 201.511 162.03z" />
    <glyph glyph-name="t" unicode="t" horiz-adv-x="366" 
d="M201.7 608.56l123.144 27.4287c7.88965 1.75977 14 -4.08008 12.6104 -12.04l-21.6504 -123.95h107.19c9.41992 0 15.6797 -7.45996 14.04 -16.7402l-15.3604 -87.0996c-1.16016 -6.61035 -6.37988 -10.9805 -13.0801 -10.9805h-113.04l-40.2402 -228.25
c-6.37012 -36.0898 6.12012 -51.0195 32.8398 -51.0195h4.82031c10.1299 0 24.8096 3.66016 63.6094 14.6797c8.66992 2.38965 15.7598 -3.37988 14.2998 -11.6494l-14 -79.4297c-1.41016 -8.00977 -6.49023 -14.2793 -14.0898 -17.3994
c-43.0801 -17.5098 -73.5205 -25.1094 -100.091 -25.1094h-10.0898c-94.54 0 -145.55 58.2402 -129.71 148.04l44.0996 250.14h-49.3496c-9.37988 0 -15.6201 7.41016 -14.0303 16.6504l11.3604 66.1602c1.55957 9.05957 7.65918 15.8691 16.459 18.3994l55.3896 13.6104
l15.7998 88.6602c1.80957 10.1797 8.96973 17.6494 19.0693 19.8994z" />
    <glyph glyph-name="tbar" unicode="&#x167;" horiz-adv-x="366" 
d="M315.8 500l107.192 -0.00878906c9.41992 0 15.6797 -7.4502 14.04 -16.7305l-15.3604 -87.1104c-1.16016 -6.59961 -6.37988 -10.9795 -13.0801 -10.9795h-113.04l-11.6299 -65.9902h108.18c9.42969 0 15.6797 -7.45996 14.0498 -16.7402l-12.4697 -70.7197
c-1.86035 -10.54 -10.1807 -17.5205 -20.8809 -17.5205h-107.4l-10.0996 -57.2803c-6.36035 -36.0898 6.12012 -51.0195 32.8506 -51.0195h4.82031c10.1299 0 24.8096 3.66016 63.6094 14.6904c8.66016 2.37988 15.75 -3.38965 14.2998 -11.6494l-14.0098 -79.4404
c-1.40039 -8 -6.49023 -14.2803 -14.0801 -17.3906c-43.0898 -17.5098 -73.5195 -25.1201 -100.1 -25.1201h-10.0898c-94.54 0 -145.54 58.25 -129.7 148.04l13.96 79.1699h-48.46c-9.42969 0 -15.6797 7.45996 -14.0498 16.7402l12.4697 70.7197
c1.86035 10.54 10.1807 17.5205 20.8809 17.5205h47.6699l11.6299 65.9902h-49.3496c-9.37988 0 -15.6201 7.41016 -14.0303 16.6602l11.3604 66.1602c1.55957 9.0498 7.65918 15.8594 16.459 18.3896l55.3896 13.6104l15.7998 88.6699
c1.80957 10.1797 8.96973 17.6494 19.0693 19.8994l123.13 27.4297c7.88965 1.75977 14.0098 -4.08008 12.6201 -12.04z" />
    </font>
</defs>
</svg>
