<?xml version="1.0" standalone="no"?>
<!DOCTYPE svg PUBLIC "-//W3C//DTD SVG 1.1//EN" "http://www.w3.org/Graphics/SVG/1.1/DTD/svg11.dtd" >
<svg xmlns="http://www.w3.org/2000/svg" xmlns:xlink="http://www.w3.org/1999/xlink" version="1.1">
<metadata>
Created by FontForge 20160407 at Wed Nov 23 14:10:51 2016
 By Jimmy Wärting
Copyright (c) 2015 by Mariya Pigoulevskaya. All rights reserved.
</metadata>
<defs>
<font id="Webnar-Thin" horiz-adv-x="529" >
  <font-face 
    font-family="Webnar Thin"
    font-weight="250"
    font-stretch="normal"
    units-per-em="1000"
    panose-1="0 0 3 0 0 0 0 0 0 0"
    ascent="750"
    descent="-250"
    x-height="500"
    cap-height="700"
    bbox="-100 -250 1317 1084.01"
    underline-thickness="50"
    underline-position="-100"
    stemh="24"
    stemv="25"
    unicode-range="U+0020-FE6B"
  />
<missing-glyph horiz-adv-x="500" 
d="M0 0v700h500v-700h-500zM250 395l170 255h-340zM280 350l170 -255v510zM80 50h340l-170 255zM50 605v-510l170 255z" />
    <glyph glyph-name=".notdef" horiz-adv-x="500" 
d="M0 0v700h500v-700h-500zM250 395l170 255h-340zM280 350l170 -255v510zM80 50h340l-170 255zM50 605v-510l170 255z" />
    <glyph glyph-name="A" unicode="A" horiz-adv-x="610" 
d="M295.37 700l19 0.000976562c5 0 9 -3 11 -8l244 -687c1 -3 0 -5 -3 -5h-14c-5 0 -9 3 -11 8l-82.4697 232h-308.05l-82.4805 -232c-2 -5 -6 -8 -11 -8h-14c-3 0 -4 2 -3 5l244 687c1.88965 4.71973 5.55957 7.64941 11 7.99902zM303.33 672.001l-104.961 -299
l-38.9902 -109h290.99l-39 109l-105.77 299h-2.26953z" />
    <glyph glyph-name="Aacute" unicode="&#xc1;" horiz-adv-x="610" 
d="M291.47 793.02l71 158c2 4 4 7 11 7h11c5 0 8 -4 6 -9l-77 -157c-3 -6 -5 -7 -10 -7h-8c-4 0 -6 4 -4 8zM295.37 700l19 0.000976562c5 0 9 -3 11 -8l244 -687c1 -3 0 -5 -3 -5h-14c-5 0 -9 3 -11 8l-82.4697 232h-308.05l-82.4805 -232c-2 -5 -6 -8 -11 -8h-14
c-3 0 -4 2 -3 5l244 687c1.88965 4.71973 5.55957 7.64941 11 7.99902zM303.33 672.001l-104.961 -299l-38.9902 -109h290.99l-39 109l-105.77 299h-2.26953z" />
    <glyph glyph-name="Abreve" unicode="&#x102;" horiz-adv-x="610" 
d="M427 857.02c4 3 8 0 8 -4v-12c0 -5 -2 -8 -5 -10c-19 -15 -66 -41 -125 -41s-106 26 -125 41c-3 2 -5 5 -5 10v12c0 4 4 7 8 4c26 -18 64 -43 122 -43s96 25 122 43zM295.37 700l19 0.000976562c5 0 9 -3 11 -8l244 -687c1 -3 0 -5 -3 -5h-14c-5 0 -9 3 -11 8
l-82.4697 232h-308.05l-82.4805 -232c-2 -5 -6 -8 -11 -8h-14c-3 0 -4 2 -3 5l244 687c1.88965 4.71973 5.55957 7.64941 11 7.99902zM303.33 672.001l-104.961 -299l-38.9902 -109h290.99l-39 109l-105.77 299h-2.26953z" />
    <glyph glyph-name="Acaron" unicode="&#x1cd;" horiz-adv-x="610" 
d="M389 958.02h11c5 0 9 -4 6 -9l-87 -157c-3 -6 -5 -7 -10 -7h-8c-5 0 -7 1 -10 7l-87 157c-3 5 1 9 6 9h11c7 0 9 -3 11 -7l73 -142.39l73 142.39c2 4 4 7 11 7zM295.37 700l19 0.000976562c5 0 9 -3 11 -8l244 -687c1 -3 0 -5 -3 -5h-14c-5 0 -9 3 -11 8l-82.4697 232
h-308.05l-82.4805 -232c-2 -5 -6 -8 -11 -8h-14c-3 0 -4 2 -3 5l244 687c1.88965 4.71973 5.55957 7.64941 11 7.99902zM303.33 672.001l-104.961 -299l-38.9902 -109h290.99l-39 109l-105.77 299h-2.26953z" />
    <glyph glyph-name="Acircumflex" unicode="&#xc2;" horiz-adv-x="610" 
d="M319 951.02l87 -157c3 -5 -1 -9 -6 -9h-11c-7 0 -9 3 -11 7l-73 142.4l-73 -142.4c-2 -4 -4 -7 -11 -7h-11c-5 0 -9 4 -6 9l87 157c3 6 5 7 10 7h8c5 0 7 -1 10 -7zM295.37 700l19 0.000976562c5 0 9 -3 11 -8l244 -687c1 -3 0 -5 -3 -5h-14c-5 0 -9 3 -11 8
l-82.4697 232h-308.05l-82.4805 -232c-2 -5 -6 -8 -11 -8h-14c-3 0 -4 2 -3 5l244 687c1.88965 4.71973 5.55957 7.64941 11 7.99902zM303.33 672.001l-104.961 -299l-38.9902 -109h290.99l-39 109l-105.77 299h-2.26953z" />
    <glyph glyph-name="Adieresis" unicode="&#xc4;" horiz-adv-x="610" 
d="M221.5 851.02h33c4 0 6 -2 6 -6v-39c0 -4 -2 -6 -6 -6h-33c-4 0 -6 2 -6 6v39c0 4 2 6 6 6zM355.5 851.02h33c4 0 6 -2 6 -6v-39c0 -4 -2 -6 -6 -6h-33c-4 0 -6 2 -6 6v39c0 4 2 6 6 6zM295.37 700l19 0.000976562c5 0 9 -3 11 -8l244 -687c1 -3 0 -5 -3 -5h-14
c-5 0 -9 3 -11 8l-82.4697 232h-308.05l-82.4805 -232c-2 -5 -6 -8 -11 -8h-14c-3 0 -4 2 -3 5l244 687c1.88965 4.71973 5.55957 7.64941 11 7.99902zM303.33 672.001l-104.961 -299l-38.9902 -109h290.99l-39 109l-105.77 299h-2.26953z" />
    <glyph glyph-name="Agrave" unicode="&#xc0;" horiz-adv-x="610" 
d="M247.37 951.02l71 -158c2 -4 0 -8 -4 -8h-8c-5 0 -7 1 -10 7l-77 157c-2 5 1 9 6 9h11c7 0 9 -3 11 -7zM295.37 700l19 0.000976562c5 0 9 -3 11 -8l244 -687c1 -3 0 -5 -3 -5h-14c-5 0 -9 3 -11 8l-82.4697 232h-308.05l-82.4805 -232c-2 -5 -6 -8 -11 -8h-14
c-3 0 -4 2 -3 5l244 687c1.88965 4.71973 5.55957 7.64941 11 7.99902zM303.33 672.001l-104.961 -299l-38.9902 -109h290.99l-39 109l-105.77 299h-2.26953z" />
    <glyph glyph-name="Amacron" unicode="&#x100;" horiz-adv-x="610" 
d="M180.5 824.02h249c3 0 5 -2 5 -5v-14c0 -3 -2 -5 -5 -5h-249c-3 0 -5 2 -5 5v14c0 3 2 5 5 5zM295.37 700l19 0.000976562c5 0 9 -3 11 -8l244 -687c1 -3 0 -5 -3 -5h-14c-5 0 -9 3 -11 8l-82.4697 232h-308.05l-82.4805 -232c-2 -5 -6 -8 -11 -8h-14c-3 0 -4 2 -3 5
l244 687c1.88965 4.71973 5.55957 7.64941 11 7.99902zM303.33 672.001l-104.961 -299l-38.9902 -109h290.99l-39 109l-105.77 299h-2.26953z" />
    <glyph glyph-name="Aogonek" unicode="&#x104;" horiz-adv-x="610" 
d="M325.37 692l244.009 -686.999c1 -3 0 -5 -3 -5c-59 -47 -104 -86 -104 -136c0 -38 26 -54 62 -54c13 0 23 2 35 5c4 1 7 -1 7 -6v-8c0 -6 -1 -9 -8 -11c-9 -3 -23 -5 -36 -5c-47 0 -84 27 -84 80c0 45.5801 28.4805 79.3799 104.881 139.61
c-0.75 0.990234 -1.37988 2.12012 -1.88965 3.38965l-82.4697 232h-308.05l-82.4805 -232c-2 -5 -6 -8 -11 -8h-14c-3 0 -4 2 -3 5l244 687c1.88965 4.71973 5.55957 7.64941 11 7.99902h19c5 0 9 -3 11 -8zM450.369 264.001l-38.9902 109l-105.78 299h-2.25977
l-104.96 -299l-39 -109h290.99z" />
    <glyph glyph-name="Aring" unicode="&#xc5;" horiz-adv-x="610" 
d="M305 918.02c41 0 73 -32 73 -71c0 -40 -33 -72 -73 -72c-42 0 -73 33 -73 72c0 38 31 71 73 71zM305 896.02c-30 0 -48 -22 -48 -48c0 -27 18 -51 48 -51s48 24 48 51c0 26 -18 48 -48 48zM295.37 700l19 0.000976562c5 0 9 -3 11 -8l244 -687c1 -3 0 -5 -3 -5h-14
c-5 0 -9 3 -11 8l-82.4697 232h-308.05l-82.4805 -232c-2 -5 -6 -8 -11 -8h-14c-3 0 -4 2 -3 5l244 687c1.88965 4.71973 5.55957 7.64941 11 7.99902zM303.33 672.001l-104.961 -299l-38.9902 -109h290.99l-39 109l-105.77 299h-2.26953z" />
    <glyph glyph-name="Atilde" unicode="&#xc3;" horiz-adv-x="610" 
d="M424.5 850.02h11c5 0 7 -2 5 -8c-8 -28 -45 -67 -86 -67h-4c-49 0 -54 47 -96 47c-26 0 -45 -19 -60 -44c-2 -4 -5 -6 -9 -6h-11c-5 0 -7 2 -5 8c8 28 45 67 86 67h4c49 0 54 -47 96 -47c26 0 45 19 60 44c2 4 5 6 9 6zM295.37 700l19 0.000976562c5 0 9 -3 11 -8
l244 -687c1 -3 0 -5 -3 -5h-14c-5 0 -9 3 -11 8l-82.4697 232h-308.05l-82.4805 -232c-2 -5 -6 -8 -11 -8h-14c-3 0 -4 2 -3 5l244 687c1.88965 4.71973 5.55957 7.64941 11 7.99902zM303.33 672.001l-104.961 -299l-38.9902 -109h290.99l-39 109l-105.77 299h-2.26953z" />
    <glyph glyph-name="AE" unicode="&#xc6;" horiz-adv-x="769" 
d="M330.07 374l364 0.000976562c3 0 5 -2 5 -5v-14c0 -3 -2 -5 -5 -5h-364v-326h384c3 0 5 -2 5 -5v-14c0 -3 -2 -5 -5 -5h-404c-3 0 -5 2 -5 5v235h-154.22l-82.4805 -232c-2 -5 -6 -8 -11 -8h-14c-3 0 -4 2 -3 5l244 687c1.88965 4.71973 5.55957 7.64941 11 7.99902
h418.7c3 0 5 -2 5 -5v-14c0 -3 -2 -5 -5 -5h-384v-302zM305.07 672.001h-1.73047l-104.96 -299l-39 -109h145.69v408z" />
    <glyph glyph-name="B" unicode="B" horiz-adv-x="603" 
d="M410.68 367.47c105.6 -24.6104 142.319 -99.04 142.319 -177.47v-19c0 -101 -56 -171 -207 -171h-241c-3 0 -5 2 -5 5v690c0 3 2 5 5 5h215c146 0 205 -62 205 -163v-16c0 -63.6104 -35.0098 -125.57 -114.319 -153.53zM500 527v4c0 92 -48 145 -181 145h-194v-300h184
c138 0 191 74 191 151zM528 177v7c0 87 -44 168 -200 168h-203v-328h220c138 0 183 61 183 153z" />
    <glyph glyph-name="uni0243" unicode="&#x243;" horiz-adv-x="603" 
d="M410.68 367.47c105.6 -24.6104 142.319 -99.04 142.319 -177.47v-19c0 -101 -56 -171 -207 -171h-241c-3 0 -5 2 -5 5v173h-55c-3 0 -5 2 -5 5v14c0 3 2 5 5 5h55v493c0 3 2 5 5 5h215c146 0 205 -62 205 -163v-16c0 -63.6104 -35.0098 -125.57 -114.319 -153.53z
M125 376h184c138 0 191 74 191 151v4c0 92 -48 145 -181 145h-194v-300zM528 177v7c0 87 -44 168 -200 168h-203v-150h222c3 0 5 -2 5 -5v-14c0 -3 -2 -5 -5 -5h-222v-154h220c138 0 183 61 183 153z" />
    <glyph glyph-name="C" unicode="C" horiz-adv-x="595" 
d="M359 713h10c68 0 132 -24 170 -46c4 -2 6 -5 6 -10v-13c0 -3 -3 -4 -5 -3c-45 25 -100 48 -172 48h-8c-133 0 -255 -94 -255 -287v-104c0 -193 122 -287 255 -287h8c72 0 127 23 172 48c2 1 5 0 5 -3v-13c0 -5 -2 -8 -6 -10c-38 -22 -102 -46 -170 -46h-10
c-146 0 -279 103 -279 305v116c0 202 133 305 279 305z" />
    <glyph glyph-name="Cacute" unicode="&#x106;" horiz-adv-x="595" 
d="M343.56 793.02l71 158c2 4 4 7 11 7h11c5 0 8 -4 6 -9l-77 -157c-3 -6 -5 -7 -10 -7h-8c-4 0 -6 4 -4 8zM359 713h10c68 0 132 -24 170 -46c4 -2 6 -5 6 -10v-13c0 -3 -3 -4 -5 -3c-45 25 -100 48 -172 48h-8c-133 0 -255 -94 -255 -287v-104c0 -193 122 -287 255 -287h8
c72 0 127 23 172 48c2 1 5 0 5 -3v-13c0 -5 -2 -8 -6 -10c-38 -22 -102 -46 -170 -46h-10c-146 0 -279 103 -279 305v116c0 202 133 305 279 305z" />
    <glyph glyph-name="Ccaron" unicode="&#x10c;" horiz-adv-x="595" 
d="M447 958.02h11c5 0 9 -4 6 -9l-87 -157c-3 -6 -5 -7 -10 -7h-8c-5 0 -7 1 -10 7l-87 157c-3 5 1 9 6 9h11c7 0 9 -3 11 -7l73 -142.39l73 142.39c2 4 4 7 11 7zM359 713h10c68 0 132 -24 170 -46c4 -2 6 -5 6 -10v-13c0 -3 -3 -4 -5 -3c-45 25 -100 48 -172 48h-8
c-133 0 -255 -94 -255 -287v-104c0 -193 122 -287 255 -287h8c72 0 127 23 172 48c2 1 5 0 5 -3v-13c0 -5 -2 -8 -6 -10c-38 -22 -102 -46 -170 -46h-10c-146 0 -279 103 -279 305v116c0 202 133 305 279 305z" />
    <glyph glyph-name="Ccedilla" unicode="&#xc7;" horiz-adv-x="595" 
d="M368 689l-7.99902 0.000976562c-133 0 -255 -94 -255 -287v-104c0 -193 122 -287 255 -287h8c72 0 127 23 172 48c2 1 5 0 5 -3v-13c0 -5 -2 -8 -6 -10c-38 -22 -102 -46 -170 -46h-10h-1.03027l-8.86035 -54c10 3 25 6 40 6c48 0 80 -28 80 -74c0 -53 -41 -80 -94 -80
c-25 0 -51 6 -60 9c-7 2 -8 5 -8 11v8c0 5 3 7 7 6c12 -3 34 -9 59 -9c42 0 72 16 72 54c0 34 -24 50 -56 50c-16 0 -32 -5 -43 -7c-5 -1 -9 -2 -13 2l-3 3c-3 3 -6 6 -5 10l10.9697 65.8496c-136.71 10.2598 -256.08 112.77 -256.08 304.149v116c0 202 133 305 279 305h10
c68 0 132 -24 170 -46c4 -2 6 -5 6 -10v-13c0 -3 -3 -4 -5 -3c-45 25 -100 48 -172 48z" />
    <glyph glyph-name="Cdotaccent" unicode="&#x10a;" horiz-adv-x="595" 
d="M347.83 851.02h33c4 0 6 -2 6 -6v-39c0 -4 -2 -6 -6 -6h-33c-4 0 -6 2 -6 6v39c0 4 2 6 6 6zM359 713h10c68 0 132 -24 170 -46c4 -2 6 -5 6 -10v-13c0 -3 -3 -4 -5 -3c-45 25 -100 48 -172 48h-8c-133 0 -255 -94 -255 -287v-104c0 -193 122 -287 255 -287h8
c72 0 127 23 172 48c2 1 5 0 5 -3v-13c0 -5 -2 -8 -6 -10c-38 -22 -102 -46 -170 -46h-10c-146 0 -279 103 -279 305v116c0 202 133 305 279 305z" />
    <glyph glyph-name="D" unicode="D" horiz-adv-x="667" 
d="M105 700h223c146 0 259 -95 259 -297v-106c0 -202 -113 -297 -259 -297h-223c-3 0 -5 2 -5 5v690c0 3 2 5 5 5zM562 303v94c0 193 -102 279 -235 279h-202v-652h202c133 0 235 86 235 279z" />
    <glyph glyph-name="Eth" unicode="&#xd0;" horiz-adv-x="667" 
d="M105 700h223c146 0 259 -95 259 -297v-106c0 -202 -113 -297 -259 -297h-223c-3 0 -5 2 -5 5v306h-55c-3 0 -5 2 -5 5v14c0 3 2 5 5 5h55v360c0 3 2 5 5 5zM562 303v94c0 193 -102 279 -235 279h-202v-341h222c3 0 5 -2 5 -5v-14c0 -3 -2 -5 -5 -5h-222v-287h202
c133 0 235 86 235 279z" />
    <glyph glyph-name="Dcaron" unicode="&#x10e;" horiz-adv-x="667" 
d="M380.67 958.02h11c5 0 9 -4 6 -9l-87 -157c-3 -6 -5 -7 -10 -7h-8c-5 0 -7 1 -10 7l-87 157c-3 5 1 9 6 9h11c7 0 9 -3 11 -7l73 -142.39l73 142.39c2 4 4 7 11 7zM105 700h223c146 0 259 -95 259 -297v-106c0 -202 -113 -297 -259 -297h-223c-3 0 -5 2 -5 5v690
c0 3 2 5 5 5zM562 303v94c0 193 -102 279 -235 279h-202v-652h202c133 0 235 86 235 279z" />
    <glyph glyph-name="Dcroat" unicode="&#x110;" horiz-adv-x="667" 
d="M105 700h223c146 0 259 -95 259 -297v-106c0 -202 -113 -297 -259 -297h-223c-3 0 -5 2 -5 5v306h-55c-3 0 -5 2 -5 5v14c0 3 2 5 5 5h55v360c0 3 2 5 5 5zM562 303v94c0 193 -102 279 -235 279h-202v-341h222c3 0 5 -2 5 -5v-14c0 -3 -2 -5 -5 -5h-222v-287h202
c133 0 235 86 235 279z" />
    <glyph glyph-name="E" unicode="E" horiz-adv-x="564" 
d="M125 374h364c3 0 5 -2 5 -5v-14c0 -3 -2 -5 -5 -5h-364v-326h384c3 0 5 -2 5 -5v-14c0 -3 -2 -5 -5 -5h-404c-3 0 -5 2 -5 5v690c0 3 2 5 5 5h404c3 0 5 -2 5 -5v-14c0 -3 -2 -5 -5 -5h-384v-302z" />
    <glyph glyph-name="Eacute" unicode="&#xc9;" horiz-adv-x="564" 
d="M284.52 793.02l71 158c2 4 4 7 11 7h11c5 0 8 -4 6 -9l-77 -157c-3 -6 -5 -7 -10 -7h-8c-4 0 -6 4 -4 8zM125 374h364c3 0 5 -2 5 -5v-14c0 -3 -2 -5 -5 -5h-364v-326h384c3 0 5 -2 5 -5v-14c0 -3 -2 -5 -5 -5h-404c-3 0 -5 2 -5 5v690c0 3 2 5 5 5h404c3 0 5 -2 5 -5
v-14c0 -3 -2 -5 -5 -5h-384v-302z" />
    <glyph glyph-name="Ecaron" unicode="&#x11a;" horiz-adv-x="564" 
d="M387.24 958.02h11c5 0 9 -4 6 -9l-87 -157c-3 -6 -5 -7 -10 -7h-8c-5 0 -7 1 -10 7l-87 157c-3 5 1 9 6 9h11c7 0 9 -3 11 -7l73 -142.39l73 142.39c2 4 4 7 11 7zM125 374h364c3 0 5 -2 5 -5v-14c0 -3 -2 -5 -5 -5h-364v-326h384c3 0 5 -2 5 -5v-14c0 -3 -2 -5 -5 -5
h-404c-3 0 -5 2 -5 5v690c0 3 2 5 5 5h404c3 0 5 -2 5 -5v-14c0 -3 -2 -5 -5 -5h-384v-302z" />
    <glyph glyph-name="Ecircumflex" unicode="&#xca;" horiz-adv-x="564" 
d="M323.04 951.02l87 -157c3 -5 -1 -9 -6 -9h-11c-7 0 -9 3 -11 7l-73 142.4l-73 -142.4c-2 -4 -4 -7 -11 -7h-11c-5 0 -9 4 -6 9l87 157c3 6 5 7 10 7h8c5 0 7 -1 10 -7zM125 374h364c3 0 5 -2 5 -5v-14c0 -3 -2 -5 -5 -5h-364v-326h384c3 0 5 -2 5 -5v-14
c0 -3 -2 -5 -5 -5h-404c-3 0 -5 2 -5 5v690c0 3 2 5 5 5h404c3 0 5 -2 5 -5v-14c0 -3 -2 -5 -5 -5h-384v-302z" />
    <glyph glyph-name="Edieresis" unicode="&#xcb;" horiz-adv-x="564" 
d="M220.34 851.02h33c4 0 6 -2 6 -6v-39c0 -4 -2 -6 -6 -6h-33c-4 0 -6 2 -6 6v39c0 4 2 6 6 6zM354.34 851.02h33c4 0 6 -2 6 -6v-39c0 -4 -2 -6 -6 -6h-33c-4 0 -6 2 -6 6v39c0 4 2 6 6 6zM125 374h364c3 0 5 -2 5 -5v-14c0 -3 -2 -5 -5 -5h-364v-326h384c3 0 5 -2 5 -5
v-14c0 -3 -2 -5 -5 -5h-404c-3 0 -5 2 -5 5v690c0 3 2 5 5 5h404c3 0 5 -2 5 -5v-14c0 -3 -2 -5 -5 -5h-384v-302z" />
    <glyph glyph-name="Edotaccent" unicode="&#x116;" horiz-adv-x="564" 
d="M293.66 851.02h33c4 0 6 -2 6 -6v-39c0 -4 -2 -6 -6 -6h-33c-4 0 -6 2 -6 6v39c0 4 2 6 6 6zM125 374h364c3 0 5 -2 5 -5v-14c0 -3 -2 -5 -5 -5h-364v-326h384c3 0 5 -2 5 -5v-14c0 -3 -2 -5 -5 -5h-404c-3 0 -5 2 -5 5v690c0 3 2 5 5 5h404c3 0 5 -2 5 -5v-14
c0 -3 -2 -5 -5 -5h-384v-302z" />
    <glyph glyph-name="Egrave" unicode="&#xc8;" horiz-adv-x="564" 
d="M247.47 951.02l71 -158c2 -4 0 -8 -4 -8h-8c-5 0 -7 1 -10 7l-77 157c-2 5 1 9 6 9h11c7 0 9 -3 11 -7zM125 374h364c3 0 5 -2 5 -5v-14c0 -3 -2 -5 -5 -5h-364v-326h384c3 0 5 -2 5 -5v-14c0 -3 -2 -5 -5 -5h-404c-3 0 -5 2 -5 5v690c0 3 2 5 5 5h404c3 0 5 -2 5 -5v-14
c0 -3 -2 -5 -5 -5h-384v-302z" />
    <glyph glyph-name="Emacron" unicode="&#x112;" horiz-adv-x="564" 
d="M182.65 824.02h249c3 0 5 -2 5 -5v-14c0 -3 -2 -5 -5 -5h-249c-3 0 -5 2 -5 5v14c0 3 2 5 5 5zM125 374h364c3 0 5 -2 5 -5v-14c0 -3 -2 -5 -5 -5h-364v-326h384c3 0 5 -2 5 -5v-14c0 -3 -2 -5 -5 -5h-404c-3 0 -5 2 -5 5v690c0 3 2 5 5 5h404c3 0 5 -2 5 -5v-14
c0 -3 -2 -5 -5 -5h-384v-302z" />
    <glyph glyph-name="Eogonek" unicode="&#x118;" horiz-adv-x="564" 
d="M125 676v-302h364c3 0 5 -2 5 -5v-14c0 -3 -2 -5 -5 -5h-364v-326h384c3 0 5 -2 5 -5v-14c0 -3 -2 -5 -5 -5h-1c-59 -47 -104 -86 -104 -136c0 -38 26 -54 62 -54c13 0 23 2 35 5c4 1 7 -1 7 -6v-8c0 -6 -1 -9 -8 -11c-9 -3 -23 -5 -36 -5c-47 0 -84 27 -84 80
c0 46 29 80 99 135h-374c-3 0 -5 2 -5 5v690c0 3 2 5 5 5h404c3 0 5 -2 5 -5v-14c0 -3 -2 -5 -5 -5h-384z" />
    <glyph glyph-name="F" unicode="F" horiz-adv-x="564" 
d="M105 700h404c3 0 5 -2 5 -5v-14c0 -3 -2 -5 -5 -5h-384v-302h364c3 0 5 -2 5 -5v-14c0 -3 -2 -5 -5 -5h-364v-345c0 -3 -2 -5 -5 -5h-15c-3 0 -5 2 -5 5v690c0 3 2 5 5 5z" />
    <glyph glyph-name="G" unicode="G" horiz-adv-x="653" 
d="M372.02 713h10c68 0 132 -24 170 -46c4 -2 6 -5 6 -10v-13c0 -3 -3 -4 -5 -3c-45 25 -100 48 -172 48h-8c-136 0 -268 -94 -268 -287v-104c0 -193 132 -287 268 -287h8c61.6699 0 110.87 16.8701 152 37.4297v285.57c0 3 2 5 5 5h15c3 0 5 -2 5 -5v-291
c0 -5 -2 -8 -6 -10c-38 -22 -102 -46 -170 -46h-10c-149 0 -294 103 -292 305v116c0 202 143 305 292 305z" />
    <glyph glyph-name="Gbreve" unicode="&#x11e;" horiz-adv-x="653" 
d="M499.74 857.02c4 3 8 0 8 -4v-12c0 -5 -2 -8 -5 -10c-19 -15 -66 -41 -125 -41s-106 26 -125 41c-3 2 -5 5 -5 10v12c0 4 4 7 8 4c26 -18 64 -43 122 -43s96 25 122 43zM372.021 713h10c68 0 132 -24 170 -46c4 -2 6 -5 6 -10v-13c0 -3 -3 -4 -5 -3
c-45 25 -100 48 -172 48h-8c-136 0 -268 -94 -268 -287v-104c0 -193 132 -287 268 -287h8c61.6699 0 110.87 16.8701 152 37.4297v285.57c0 3 2 5 5 5h15c3 0 5 -2 5 -5v-291c0 -5 -2 -8 -6 -10c-38 -22 -102 -46 -170 -46h-10c-149 0 -294 103 -292 305v116
c0 202 143 305 292 305z" />
    <glyph glyph-name="Gcommaaccent" unicode="&#x122;" horiz-adv-x="653" 
d="M372.02 713h10c68 0 132 -24 170 -46c4 -2 6 -5 6 -10v-13c0 -3 -3 -4 -5 -3c-45 25 -100 48 -172 48h-8c-136 0 -268 -94 -268 -287v-104c0 -193 132 -287 268 -287h8c61.6699 0 110.87 16.8701 152 37.4297v285.57c0 3 2 5 5 5h15c3 0 5 -2 5 -5v-291
c0 -5 -2 -8 -6 -10c-38 -22 -102 -46 -170 -46h-10c-149 0 -294 103 -292 305v116c0 202 143 305 292 305zM358.56 -49.9199h35c4 0 6 -2 6 -6v-34c0 -3 0.0898438 -6.01953 -1 -10l-30 -110.44c-0.780273 -2.88965 -3 -4 -5 -4h-15c-6 0 -6.07031 5.15039 -5 9l29 104.44
h-14c-4 0 -6 2 -6 6v39c0 4 2 6 6 6z" />
    <glyph glyph-name="Gdotaccent" unicode="&#x120;" horiz-adv-x="653" 
d="M348.31 851.02h33c4 0 6 -2 6 -6v-39c0 -4 -2 -6 -6 -6h-33c-4 0 -6 2 -6 6v39c0 4 2 6 6 6zM372.02 713h10c68 0 132 -24 170 -46c4 -2 6 -5 6 -10v-13c0 -3 -3 -4 -5 -3c-45 25 -100 48 -172 48h-8c-136 0 -268 -94 -268 -287v-104c0 -193 132 -287 268 -287h8
c61.6699 0 110.87 16.8701 152 37.4297v285.57c0 3 2 5 5 5h15c3 0 5 -2 5 -5v-291c0 -5 -2 -8 -6 -10c-38 -22 -102 -46 -170 -46h-10c-149 0 -294 103 -292 305v116c0 202 143 305 292 305z" />
    <glyph glyph-name="H" unicode="H" horiz-adv-x="683" 
d="M563 700h15c3 0 5 -2 5 -5v-690c0 -3 -2 -5 -5 -5h-15c-3 0 -5 2 -5 5v345h-433v-345c0 -3 -2 -5 -5 -5h-15c-3 0 -5 2 -5 5v690c0 3 2 5 5 5h15c3 0 5 -2 5 -5v-321h433v321c0 3 2 5 5 5z" />
    <glyph glyph-name="Hbar" unicode="&#x126;" horiz-adv-x="683" 
d="M583.42 529.09h55.0303c3 0 5 -2 5 -5v-14c0 -3 -2 -5 -5 -5h-55.0303v-500.09c0 -3 -2 -5 -5 -5h-15c-3 0 -5 2 -5 5v345h-433v-345c0 -3 -2 -5 -5 -5h-15c-3 0 -5 2 -5 5v500.09h-55.4199c-3 0 -5 2 -5 5v14c0 3 2 5 5 5h55.4199v165.91c0 3 2 5 5 5h15c3 0 5 -2 5 -5
v-165.91h433v165.91c0 3 2 5 5 5h15c3 0 5 -2 5 -5v-165.91zM558.42 505.09h-433v-131.09h433v131.09z" />
    <glyph glyph-name="I" unicode="I" horiz-adv-x="225" 
d="M105 700h15c3 0 5 -2 5 -5v-690c0 -3 -2 -5 -5 -5h-15c-3 0 -5 2 -5 5v690c0 3 2 5 5 5z" />
    <glyph glyph-name="IJ" unicode="&#x132;" horiz-adv-x="614" 
d="M105 700h15c3 0 5 -2 5 -5v-690c0 -3 -2 -5 -5 -5h-15c-3 0 -5 2 -5 5v690c0 3 2 5 5 5zM494 700h15c3 0 5 -2 5 -5v-541c0 -118 -53 -167 -134 -167h-5c-34 0 -77 13 -105 32c-3 2 -5 5 -5 9v15c0 3 3 5 6 3c33 -22 67 -35 105 -35h3c68 0 110 40 110 149v535
c0 3 2 5 5 5z" />
    <glyph glyph-name="Iacute" unicode="&#xcd;" horiz-adv-x="225" 
d="M101 793.02l71 158c2 4 4 7 11 7h11c5 0 8 -4 6 -9l-77 -157c-3 -6 -5 -7 -10 -7h-8c-4 0 -6 4 -4 8zM105 700h15c3 0 5 -2 5 -5v-690c0 -3 -2 -5 -5 -5h-15c-3 0 -5 2 -5 5v690c0 3 2 5 5 5z" />
    <glyph glyph-name="Icaron" unicode="&#x1cf;" horiz-adv-x="225" 
d="M197 958.02h11c5 0 9 -4 6 -9l-87 -157c-3 -6 -5 -7 -10 -7h-8c-5 0 -7 1 -10 7l-87 157c-3 5 1 9 6 9h11c7 0 9 -3 11 -7l73 -142.39l73 142.39c2 4 4 7 11 7zM105 700h15c3 0 5 -2 5 -5v-690c0 -3 -2 -5 -5 -5h-15c-3 0 -5 2 -5 5v690c0 3 2 5 5 5z" />
    <glyph glyph-name="Icircumflex" unicode="&#xce;" horiz-adv-x="225" 
d="M127 951.02l87 -157c3 -5 -1 -9 -6 -9h-11c-7 0 -9 3 -11 7l-73 142.4l-73 -142.4c-2 -4 -4 -7 -11 -7h-11c-5 0 -9 4 -6 9l87 157c3 6 5 7 10 7h8c5 0 7 -1 10 -7zM105 700h15c3 0 5 -2 5 -5v-690c0 -3 -2 -5 -5 -5h-15c-3 0 -5 2 -5 5v690c0 3 2 5 5 5z" />
    <glyph glyph-name="Idieresis" unicode="&#xcf;" horiz-adv-x="225" 
d="M29.5 851.02h33c4 0 6 -2 6 -6v-39c0 -4 -2 -6 -6 -6h-33c-4 0 -6 2 -6 6v39c0 4 2 6 6 6zM163.5 851.02h33c4 0 6 -2 6 -6v-39c0 -4 -2 -6 -6 -6h-33c-4 0 -6 2 -6 6v39c0 4 2 6 6 6zM105 700h15c3 0 5 -2 5 -5v-690c0 -3 -2 -5 -5 -5h-15c-3 0 -5 2 -5 5v690
c0 3 2 5 5 5z" />
    <glyph glyph-name="Idotaccent" unicode="&#x130;" horiz-adv-x="225" 
d="M96.5 851.02h33c4 0 6 -2 6 -6v-39c0 -4 -2 -6 -6 -6h-33c-4 0 -6 2 -6 6v39c0 4 2 6 6 6zM105 700h15c3 0 5 -2 5 -5v-690c0 -3 -2 -5 -5 -5h-15c-3 0 -5 2 -5 5v690c0 3 2 5 5 5z" />
    <glyph glyph-name="Igrave" unicode="&#xcc;" horiz-adv-x="225" 
d="M53.2197 951.02l71 -158c2 -4 0 -8 -4 -8h-8c-5 0 -7 1 -10 7l-77 157c-2 5 1 9 6 9h11c7 0 9 -3 11 -7zM105 700h15c3 0 5 -2 5 -5v-690c0 -3 -2 -5 -5 -5h-15c-3 0 -5 2 -5 5v690c0 3 2 5 5 5z" />
    <glyph glyph-name="Imacron" unicode="&#x12a;" horiz-adv-x="225" 
d="M-11.5 824.02h249c3 0 5 -2 5 -5v-14c0 -3 -2 -5 -5 -5h-249c-3 0 -5 2 -5 5v14c0 3 2 5 5 5zM105 700h15c3 0 5 -2 5 -5v-690c0 -3 -2 -5 -5 -5h-15c-3 0 -5 2 -5 5v690c0 3 2 5 5 5z" />
    <glyph glyph-name="Iogonek" unicode="&#x12e;" horiz-adv-x="225" 
d="M105 700h15c3 0 5 -2 5 -5v-690c0 -3 -2 -5 -5 -5c-59 -47 -104 -86 -104 -136c0 -38 26 -54 62 -54c13 0 23 2 35 5c4 1 7 -1 7 -6v-8c0 -6 -1 -9 -8 -11c-9 -3 -23 -5 -36 -5c-47 0 -84 27 -84 80c0 45.4697 28.3398 79.21 108 142.06v687.94c0 3 2 5 5 5z" />
    <glyph glyph-name="J" unicode="J" horiz-adv-x="389" 
d="M269 700h15c3 0 5 -2 5 -5v-541c0 -118 -53 -167 -134 -167h-5c-34 0 -77 13 -105 32c-3 2 -5 5 -5 9v15c0 3 3 5 6 3c33 -22 67 -35 105 -35h3c68 0 110 40 110 149v535c0 3 2 5 5 5z" />
    <glyph glyph-name="K" unicode="K" horiz-adv-x="604" 
d="M291 354l272 -346c2 -3 1 -8 -3 -8h-18c-3 0 -5 1 -7 3l-267.53 339h-142.47v-337c0 -3 -2 -5 -5 -5h-15c-3 0 -5 2 -5 5v690c0 3 2 5 5 5h15c3 0 5 -2 5 -5v-329h142.95l247.05 331c2 2 4 3 7 3h17c4 0 5 -5 3 -8z" />
    <glyph glyph-name="Kcommaaccent" unicode="&#x136;" horiz-adv-x="604" 
d="M291 354l272 -346c2 -3 1 -8 -3 -8h-18c-3 0 -5 1 -7 3l-267.53 339h-142.47v-337c0 -3 -2 -5 -5 -5h-15c-3 0 -5 2 -5 5v690c0 3 2 5 5 5h15c3 0 5 -2 5 -5v-329h142.95l247.05 331c2 2 4 3 7 3h17c4 0 5 -5 3 -8zM289.26 -49.9199h35c4 0 6 -2 6 -6v-34
c0 -3 0.0800781 -6.01953 -1 -10l-30 -110.44c-0.790039 -2.88965 -3 -4 -5 -4h-15c-6 0 -6.07031 5.15039 -5 9l29 104.44h-14c-4 0 -6 2 -6 6v39c0 4 2 6 6 6z" />
    <glyph glyph-name="L" unicode="L" horiz-adv-x="534" 
d="M125 24h364c3 0 5 -2 5 -5v-14c0 -3 -2 -5 -5 -5h-384c-3 0 -5 2 -5 5v690c0 3 2 5 5 5h15c3 0 5 -2 5 -5v-671z" />
    <glyph glyph-name="Lacute" unicode="&#x139;" horiz-adv-x="534" 
d="M101 793.02l71 158c2 4 4 7 11 7h11c5 0 8 -4 6 -9l-77 -157c-3 -6 -5 -7 -10 -7h-8c-4 0 -6 4 -4 8zM125 24h364c3 0 5 -2 5 -5v-14c0 -3 -2 -5 -5 -5h-384c-3 0 -5 2 -5 5v690c0 3 2 5 5 5h15c3 0 5 -2 5 -5v-671z" />
    <glyph glyph-name="Lcaron" unicode="&#x13d;" horiz-adv-x="534" 
d="M125 24h364c3 0 5 -2 5 -5v-14c0 -3 -2 -5 -5 -5h-384c-3 0 -5 2 -5 5v690c0 3 2 5 5 5h15c3 0 5 -2 5 -5v-671zM390.34 700h35c4 0 6 -2 6 -6v-34c0 -3 0.0898438 -6.01953 -1 -10l-30 -110.44c-0.780273 -2.90039 -3 -4 -5 -4h-15c-6 0 -6.07031 5.13965 -5 9
l29 104.44h-14c-4 0 -6 2 -6 6v39c0 4 2 6 6 6z" />
    <glyph glyph-name="Lcommaaccent" unicode="&#x13b;" horiz-adv-x="534" 
d="M125 24h364c3 0 5 -2 5 -5v-14c0 -3 -2 -5 -5 -5h-384c-3 0 -5 2 -5 5v690c0 3 2 5 5 5h15c3 0 5 -2 5 -5v-671zM254.26 -49.9199h35c4 0 6 -2 6 -6v-34c0 -3 0.0800781 -6.01953 -1 -10l-30 -110.44c-0.790039 -2.88965 -3 -4 -5 -4h-15c-6 0 -6.07031 5.15039 -5 9
l29 104.44h-14c-4 0 -6 2 -6 6v39c0 4 2 6 6 6z" />
    <glyph glyph-name="Ldot" unicode="&#x13f;" horiz-adv-x="534" 
d="M125 24h364c3 0 5 -2 5 -5v-14c0 -3 -2 -5 -5 -5h-384c-3 0 -5 2 -5 5v690c0 3 2 5 5 5h15c3 0 5 -2 5 -5v-671zM392.43 314h33c4 0 6 -2 6 -6v-39c0 -4 -2 -6 -6 -6h-33c-4 0 -6 2 -6 6v39c0 4 2 6 6 6z" />
    <glyph glyph-name="Lslash" unicode="&#x141;" horiz-adv-x="534" 
d="M125 24l364.001 0.000976562c3 0 5 -2 5 -5v-14c0 -3 -2 -5 -5 -5h-384c-3 0 -5 2 -5 5v292.71l-57.5195 -40.1904c-2.32031 -1.62012 -4.90039 -1.03027 -7.19043 1.14941l-8.40039 12.7402c-2.2998 2.17969 -1.4502 5.37988 1.13965 7.18945l71.9697 50.2803v366.12
c0 3 2 5 5 5h15c3 0 5 -2 5 -5v-348.66l140 97.7998c2.30957 1.62012 4.88965 1.02051 7.17969 -1.14941l8.40039 -12.75c2.2998 -2.16992 1.4502 -5.37012 -1.13965 -7.19043l-154.44 -107.88v-291.17z" />
    <glyph glyph-name="M" unicode="M" horiz-adv-x="830" 
d="M708 700h17.001c3 0 5 -2 5 -5v-690c0 -3 -2 -5 -5 -5h-15c-3 0 -5 2 -5 5v649h-2l-143 -232l-135 -214c-2 -4 -5 -6 -10 -6h-5c-5 0 -8 2 -10 6l-135 214l-143 232h-2v-649c0 -3 -2 -5 -5 -5h-15c-3 0 -5 2 -5 5v690c0 3 2 5 5 5h17c5 0 8 -2 10 -6l284.81 -457h1.37988
l284.81 457c2 4 5 6 10 6z" />
    <glyph glyph-name="N" unicode="N" horiz-adv-x="682" 
d="M567 700h15c3 0 5 -2 5 -5v-690c0 -3 -2 -5 -5 -5h-21c-3 0 -6 1 -8 4l-432 657h-1v-656c0 -3 -2 -5 -5 -5h-15c-3 0 -5 2 -5 5v690c0 3 2 5 5 5h21c3 0 6 -1 8 -4l432 -657h1v656c0 3 2 5 5 5z" />
    <glyph glyph-name="Nacute" unicode="&#x143;" horiz-adv-x="682" 
d="M330.35 793.02l71 158c2 4 4 7 11 7h11c5 0 8 -4 6 -9l-77 -157c-3 -6 -5 -7 -10 -7h-8c-4 0 -6 4 -4 8zM567 700h15c3 0 5 -2 5 -5v-690c0 -3 -2 -5 -5 -5h-21c-3 0 -6 1 -8 4l-432 657h-1v-656c0 -3 -2 -5 -5 -5h-15c-3 0 -5 2 -5 5v690c0 3 2 5 5 5h21c3 0 6 -1 8 -4
l432 -657h1v656c0 3 2 5 5 5z" />
    <glyph glyph-name="Ncaron" unicode="&#x147;" horiz-adv-x="682" 
d="M425 958.02h11c5 0 9 -4 6 -9l-87 -157c-3 -6 -5 -7 -10 -7h-8c-5 0 -7 1 -10 7l-87 157c-3 5 1 9 6 9h11c7 0 9 -3 11 -7l73 -142.39l73 142.39c2 4 4 7 11 7zM567 700h15c3 0 5 -2 5 -5v-690c0 -3 -2 -5 -5 -5h-21c-3 0 -6 1 -8 4l-432 657h-1v-656c0 -3 -2 -5 -5 -5
h-15c-3 0 -5 2 -5 5v690c0 3 2 5 5 5h21c3 0 6 -1 8 -4l432 -657h1v656c0 3 2 5 5 5z" />
    <glyph glyph-name="Ncommaaccent" unicode="&#x145;" horiz-adv-x="682" 
d="M567 700h15c3 0 5 -2 5 -5v-690c0 -3 -2 -5 -5 -5h-21c-3 0 -6 1 -8 4l-432 657h-1v-656c0 -3 -2 -5 -5 -5h-15c-3 0 -5 2 -5 5v690c0 3 2 5 5 5h21c3 0 6 -1 8 -4l432 -657h1v656c0 3 2 5 5 5zM328.26 -49.9199h35c4 0 6 -2 6 -6v-34c0 -3 0.0800781 -6.01953 -1 -10
l-30 -110.44c-0.790039 -2.88965 -3 -4 -5 -4h-15c-6 0 -6.07031 5.15039 -5 9l29 104.44h-14c-4 0 -6 2 -6 6v39c0 4 2 6 6 6z" />
    <glyph glyph-name="Eng" unicode="&#x14a;" horiz-adv-x="682" 
d="M567 700h14.999c3 0 5 -2 5 -5v-708c0 -118 -53 -167 -134 -167h-5c-34 0 -77 13 -105 32c-3 2 -5 5 -5 9v15c0 3 3 5 6 3c33 -22 67 -35 105 -35h3c67.4404 0 109.301 39.3398 109.991 146.31l-440.99 670.69h-1v-656c0 -3 -2 -5 -5 -5h-15c-3 0 -5 2 -5 5v690
c0 3 2 5 5 5h21c3 0 6 -1 8 -4l432 -657h1v656c0 3 2 5 5 5z" />
    <glyph glyph-name="Ntilde" unicode="&#xd1;" horiz-adv-x="682" 
d="M460.5 850.02h11c5 0 7 -2 5 -8c-8 -28 -45 -67 -86 -67h-4c-49 0 -54 47 -96 47c-26 0 -45 -19 -60 -44c-2 -4 -5 -6 -9 -6h-11c-5 0 -7 2 -5 8c8 28 45 67 86 67h4c49 0 54 -47 96 -47c26 0 45 19 60 44c2 4 5 6 9 6zM567 700h15c3 0 5 -2 5 -5v-690c0 -3 -2 -5 -5 -5
h-21c-3 0 -6 1 -8 4l-432 657h-1v-656c0 -3 -2 -5 -5 -5h-15c-3 0 -5 2 -5 5v690c0 3 2 5 5 5h21c3 0 6 -1 8 -4l432 -657h1v656c0 3 2 5 5 5z" />
    <glyph glyph-name="O" unicode="O" horiz-adv-x="693" 
d="M339 713h15c146 0 259 -95 259 -297v-132c0 -202 -113 -297 -259 -297h-15c-146 0 -259 95 -259 297v132c0 202 113 297 259 297zM353 689h-13c-133 0 -235 -86 -235 -279v-120c0 -193 102 -279 235 -279h13c133 0 235 86 235 279v120c0 193 -102 279 -235 279z" />
    <glyph glyph-name="Oacute" unicode="&#xd3;" horiz-adv-x="693" 
d="M339.85 793.02l71 158c2 4 4 7 11 7h11c5 0 8 -4 6 -9l-77 -157c-3 -6 -5 -7 -10 -7h-8c-4 0 -6 4 -4 8zM339 713h15c146 0 259 -95 259 -297v-132c0 -202 -113 -297 -259 -297h-15c-146 0 -259 95 -259 297v132c0 202 113 297 259 297zM353 689h-13
c-133 0 -235 -86 -235 -279v-120c0 -193 102 -279 235 -279h13c133 0 235 86 235 279v120c0 193 -102 279 -235 279z" />
    <glyph glyph-name="Ocaron" unicode="&#x1d1;" horiz-adv-x="693" 
d="M431 958.02h11c5 0 9 -4 6 -9l-87 -157c-3 -6 -5 -7 -10 -7h-8c-5 0 -7 1 -10 7l-87 157c-3 5 1 9 6 9h11c7 0 9 -3 11 -7l73 -142.39l73 142.39c2 4 4 7 11 7zM339 713h15c146 0 259 -95 259 -297v-132c0 -202 -113 -297 -259 -297h-15c-146 0 -259 95 -259 297v132
c0 202 113 297 259 297zM353 689h-13c-133 0 -235 -86 -235 -279v-120c0 -193 102 -279 235 -279h13c133 0 235 86 235 279v120c0 193 -102 279 -235 279z" />
    <glyph glyph-name="Ocircumflex" unicode="&#xd4;" horiz-adv-x="693" 
d="M361 951.02l87 -157c3 -5 -1 -9 -6 -9h-11c-7 0 -9 3 -11 7l-73 142.4l-73 -142.4c-2 -4 -4 -7 -11 -7h-11c-5 0 -9 4 -6 9l87 157c3 6 5 7 10 7h8c5 0 7 -1 10 -7zM339 713h15c146 0 259 -95 259 -297v-132c0 -202 -113 -297 -259 -297h-15c-146 0 -259 95 -259 297v132
c0 202 113 297 259 297zM353 689h-13c-133 0 -235 -86 -235 -279v-120c0 -193 102 -279 235 -279h13c133 0 235 86 235 279v120c0 193 -102 279 -235 279z" />
    <glyph glyph-name="Odieresis" unicode="&#xd6;" horiz-adv-x="693" 
d="M263.5 851.02h33c4 0 6 -2 6 -6v-39c0 -4 -2 -6 -6 -6h-33c-4 0 -6 2 -6 6v39c0 4 2 6 6 6zM397.5 851.02h33c4 0 6 -2 6 -6v-39c0 -4 -2 -6 -6 -6h-33c-4 0 -6 2 -6 6v39c0 4 2 6 6 6zM339 713h15c146 0 259 -95 259 -297v-132c0 -202 -113 -297 -259 -297h-15
c-146 0 -259 95 -259 297v132c0 202 113 297 259 297zM353 689h-13c-133 0 -235 -86 -235 -279v-120c0 -193 102 -279 235 -279h13c133 0 235 86 235 279v120c0 193 -102 279 -235 279z" />
    <glyph glyph-name="Ograve" unicode="&#xd2;" horiz-adv-x="693" 
d="M284.9 951.02l71 -158c2 -4 0 -8 -4 -8h-8c-5 0 -7 1 -10 7l-77 157c-2 5 1 9 6 9h11c7 0 9 -3 11 -7zM339 713h15c146 0 259 -95 259 -297v-132c0 -202 -113 -297 -259 -297h-15c-146 0 -259 95 -259 297v132c0 202 113 297 259 297zM353 689h-13
c-133 0 -235 -86 -235 -279v-120c0 -193 102 -279 235 -279h13c133 0 235 86 235 279v120c0 193 -102 279 -235 279z" />
    <glyph glyph-name="Ohungarumlaut" unicode="&#x150;" horiz-adv-x="693" 
d="M284.45 793.02l71 158c2 4 4 7 11 7h11c5 0 8 -4 6 -9l-77 -157c-3 -6 -5 -7 -10 -7h-8c-4 0 -6 4 -4 8zM391.45 793.02l71 158c2 4 4 7 11 7h11c5 0 8 -4 6 -9l-77 -157c-3 -6 -5 -7 -10 -7h-8c-4 0 -6 4 -4 8zM339 713h15c146 0 259 -95 259 -297v-132
c0 -202 -113 -297 -259 -297h-15c-146 0 -259 95 -259 297v132c0 202 113 297 259 297zM353 689h-13c-133 0 -235 -86 -235 -279v-120c0 -193 102 -279 235 -279h13c133 0 235 86 235 279v120c0 193 -102 279 -235 279z" />
    <glyph glyph-name="Omacron" unicode="&#x14c;" horiz-adv-x="693" 
d="M222.5 824.02h249c3 0 5 -2 5 -5v-14c0 -3 -2 -5 -5 -5h-249c-3 0 -5 2 -5 5v14c0 3 2 5 5 5zM339 713h15c146 0 259 -95 259 -297v-132c0 -202 -113 -297 -259 -297h-15c-146 0 -259 95 -259 297v132c0 202 113 297 259 297zM353 689h-13c-133 0 -235 -86 -235 -279
v-120c0 -193 102 -279 235 -279h13c133 0 235 86 235 279v120c0 193 -102 279 -235 279z" />
    <glyph glyph-name="Oslash" unicode="&#xd8;" horiz-adv-x="693" 
d="M595 700l14.001 -0.0117188c6 0 8.30957 -3.12988 4 -9l-54.9404 -74.7197c34.5898 -48.0996 54.9395 -114.55 54.9395 -200.27v-132c0 -202 -113 -297 -259 -297h-15c-74.7197 0 -140.79 24.8799 -187.5 76.2402l-41.3496 -56.2402c-2.44043 -3.32031 -5 -7 -12 -7h-14
c-6 0 -8.30957 3.12988 -4 9l54.8496 74.6201c-34.6299 48.1104 -55.0098 114.591 -55.0098 200.381v132c0 202 113 297 259 297h15c74.7598 0 140.87 -24.9102 187.59 -76.3398l41.4199 56.3398c2.4502 3.30957 5 7 12 7zM105.001 409.988l-0.0107422 -120
c0 -78.8203 17.0195 -139.79 46.21 -184.35l374.82 509.85c-42.4404 50 -103.5 73.5 -173.02 73.5h-13c-133 0 -235 -86 -235 -279zM587.99 289.988l0.00976562 120c0 78.7598 -16.9902 139.7 -46.1299 184.25l-374.81 -509.84
c42.4297 -49.9404 103.449 -73.4102 172.93 -73.4102h13c133 0 235 86 235 279z" />
    <glyph glyph-name="Otilde" unicode="&#xd5;" horiz-adv-x="693" 
d="M466.5 850.02h11c5 0 7 -2 5 -8c-8 -28 -45 -67 -86 -67h-4c-49 0 -54 47 -96 47c-26 0 -45 -19 -60 -44c-2 -4 -5 -6 -9 -6h-11c-5 0 -7 2 -5 8c8 28 45 67 86 67h4c49 0 54 -47 96 -47c26 0 45 19 60 44c2 4 5 6 9 6zM339 713h15c146 0 259 -95 259 -297v-132
c0 -202 -113 -297 -259 -297h-15c-146 0 -259 95 -259 297v132c0 202 113 297 259 297zM353 689h-13c-133 0 -235 -86 -235 -279v-120c0 -193 102 -279 235 -279h13c133 0 235 86 235 279v120c0 193 -102 279 -235 279z" />
    <glyph glyph-name="OE" unicode="&#x152;" horiz-adv-x="1052" 
d="M339 713h15c104.97 0 192.88 -49.1104 234 -151.78v133.78c0 3 2 5 5 5h404c3 0 5 -2 5 -5v-14c0 -3 -2 -5 -5 -5h-384v-302h364c3 0 5 -2 5 -5v-14c0 -3 -2 -5 -5 -5h-364v-326h384c3 0 5 -2 5 -5v-14c0 -3 -2 -5 -5 -5h-404c-3 0 -5 2 -5 5v133.77
c-41.1201 -102.67 -129.03 -151.77 -234 -151.77h-15c-146 0 -259 95 -259 297v132c0 202 113 297 259 297zM353 689h-13c-133 0 -235 -86 -235 -279v-120c0 -193 102 -279 235 -279h13c133 0 235 86 235 279v120c0 193 -102 279 -235 279z" />
    <glyph glyph-name="P" unicode="P" horiz-adv-x="630" 
d="M105 700h196c179 0 249 -77 249 -193v-24c0 -116 -70 -209 -249 -209h-176v-269c0 -3 -2 -5 -5 -5h-15c-3 0 -5 2 -5 5v690c0 3 2 5 5 5zM525 489v12c0 107 -59 175 -225 175h-175v-378h175c166 0 225 84 225 191z" />
    <glyph glyph-name="Thorn" unicode="&#xde;" horiz-adv-x="630" 
d="M125 606.91h176c179 0 249 -77 249 -193v-24c0 -116 -70 -209 -249 -209h-176v-175.91c0 -3 -2 -5 -5 -5h-15c-3 0 -5 2 -5 5v690c0 3 2 5 5 5h15c3 0 5 -2 5 -5v-88.0898zM525 395.91v12c0 107 -59 175 -225 175h-175v-378h175c166 0 225 84 225 191z" />
    <glyph glyph-name="Q" unicode="Q" horiz-adv-x="693" 
d="M613 416l-0.000976562 -132.01c0 -133.97 -49.71 -220.88 -125.78 -264.22l123.78 -123.78c2 -2 2 -5 0 -7l-11 -10c-2 -2 -5 -2 -7 0l-129.17 129.17c-33.1299 -14.1904 -70.2695 -21.1602 -109.829 -21.1602h-15c-146 0 -259 95 -259 297v132c0 202 113 297 259 297h15
c146 0 259 -95 259 -297zM339.999 10.9902h13c133 0 235 86 235 279v120c0 193 -102 279 -235 279h-13c-133 0 -235 -86 -235 -279v-120c0 -193 102 -279 235 -279z" />
    <glyph glyph-name="R" unicode="R" horiz-adv-x="614" 
d="M105 700h201c179 0 244 -70 244 -186v-19c0 -92.7998 -53.6504 -177.17 -187.12 -196.74l210.12 -292.26c3 -3 1 -6 -3 -6h-17c-4 0 -7 2 -9 5l-208 289h-211v-289c0 -3 -2 -5 -5 -5h-15c-3 0 -5 2 -5 5v690c0 3 2 5 5 5zM125 676v-358h175c166 0 225 86 225 183v7
c0 107 -54 168 -220 168h-180z" />
    <glyph glyph-name="Racute" unicode="&#x154;" horiz-adv-x="614" 
d="M274.33 793.02l71 158c2 4 4 7 11 7h11c5 0 8 -4 6 -9l-77 -157c-3 -6 -5 -7 -10 -7h-8c-4 0 -6 4 -4 8zM105 700h201c179 0 244 -70 244 -186v-19c0 -92.7998 -53.6504 -177.17 -187.12 -196.74l210.12 -292.26c3 -3 1 -6 -3 -6h-17c-4 0 -7 2 -9 5l-208 289h-211v-289
c0 -3 -2 -5 -5 -5h-15c-3 0 -5 2 -5 5v690c0 3 2 5 5 5zM125 676v-358h175c166 0 225 86 225 183v7c0 107 -54 168 -220 168h-180z" />
    <glyph glyph-name="Rcaron" unicode="&#x158;" horiz-adv-x="614" 
d="M391 958.02h11c5 0 9 -4 6 -9l-87 -157c-3 -6 -5 -7 -10 -7h-8c-5 0 -7 1 -10 7l-87 157c-3 5 1 9 6 9h11c7 0 9 -3 11 -7l73 -142.39l73 142.39c2 4 4 7 11 7zM105 700h201c179 0 244 -70 244 -186v-19c0 -92.7998 -53.6504 -177.17 -187.12 -196.74l210.12 -292.26
c3 -3 1 -6 -3 -6h-17c-4 0 -7 2 -9 5l-208 289h-211v-289c0 -3 -2 -5 -5 -5h-15c-3 0 -5 2 -5 5v690c0 3 2 5 5 5zM125 676v-358h175c166 0 225 86 225 183v7c0 107 -54 168 -220 168h-180z" />
    <glyph glyph-name="Rcommaaccent" unicode="&#x156;" horiz-adv-x="614" 
d="M105 700h201c179 0 244 -70 244 -186v-19c0 -92.7998 -53.6504 -177.17 -187.12 -196.74l210.12 -292.26c3 -3 1 -6 -3 -6h-17c-4 0 -7 2 -9 5l-208 289h-211v-289c0 -3 -2 -5 -5 -5h-15c-3 0 -5 2 -5 5v690c0 3 2 5 5 5zM125 676v-358h175c166 0 225 86 225 183v7
c0 107 -54 168 -220 168h-180zM298.34 -49.9102h35c4 0 6 -2 6 -6v-34c0 -3 0.0898438 -6.01953 -1 -10l-30 -110.44c-0.780273 -2.90039 -3 -4 -5 -4h-15c-6 0 -6.07031 5.13965 -5 9l29 104.44h-14c-4 0 -6 2 -6 6v39c0 4 2 6 6 6z" />
    <glyph glyph-name="S" unicode="S" horiz-adv-x="549" 
d="M237 360l51 -17c101 -34 176 -63 176 -168v-4c0 -98 -82 -160 -191 -160h-8c-81 0 -141 28 -186 53c-2 1 -5 0 -5 -3v-13c0 -5 2 -8 6 -10c38 -22 107 -51 184 -51h10c122 0 215 71 215 178v10c0 120 -88 157 -189 191l-51 17c-108 36 -164 74 -164 151v5
c0 99 91 150 177 150h8c74 0 129 -23 174 -48c2 -1 5 0 5 3v13c0 5 -2 8 -6 10c-38 22 -102 46 -172 46h-10c-99 0 -201 -60 -201 -168v-11c0 -92 69 -138 177 -174z" />
    <glyph glyph-name="Sacute" unicode="&#x15a;" horiz-adv-x="549" 
d="M255.95 793.02l71 158c2 4 4 7 11 7h11c5 0 8 -4 6 -9l-77 -157c-3 -6 -5 -7 -10 -7h-8c-4 0 -6 4 -4 8zM237 360l51 -17c101 -34 176 -63 176 -168v-4c0 -98 -82 -160 -191 -160h-8c-81 0 -141 28 -186 53c-2 1 -5 0 -5 -3v-13c0 -5 2 -8 6 -10c38 -22 107 -51 184 -51
h10c122 0 215 71 215 178v10c0 120 -88 157 -189 191l-51 17c-108 36 -164 74 -164 151v5c0 99 91 150 177 150h8c74 0 129 -23 174 -48c2 -1 5 0 5 3v13c0 5 -2 8 -6 10c-38 22 -102 46 -172 46h-10c-99 0 -201 -60 -201 -168v-11c0 -92 69 -138 177 -174z" />
    <glyph glyph-name="Scaron" unicode="&#x160;" horiz-adv-x="549" 
d="M359 958.02h11c5 0 9 -4 6 -9l-87 -157c-3 -6 -5 -7 -10 -7h-8c-5 0 -7 1 -10 7l-87 157c-3 5 1 9 6 9h11c7 0 9 -3 11 -7l73 -142.39l73 142.39c2 4 4 7 11 7zM237 360l51 -17c101 -34 176 -63 176 -168v-4c0 -98 -82 -160 -191 -160h-8c-81 0 -141 28 -186 53
c-2 1 -5 0 -5 -3v-13c0 -5 2 -8 6 -10c38 -22 107 -51 184 -51h10c122 0 215 71 215 178v10c0 120 -88 157 -189 191l-51 17c-108 36 -164 74 -164 151v5c0 99 91 150 177 150h8c74 0 129 -23 174 -48c2 -1 5 0 5 3v13c0 5 -2 8 -6 10c-38 22 -102 46 -172 46h-10
c-99 0 -201 -60 -201 -168v-11c0 -92 69 -138 177 -174z" />
    <glyph glyph-name="Scedilla" unicode="&#x15e;" horiz-adv-x="549" 
d="M249 383l50.999 -17c101 -34 189 -71 189 -191v-10c0 -107 -93 -178 -215 -178h-10h-1.5293l-8.86035 -54c10 3 25 6 40 6c48 0 80 -28 80 -74c0 -53 -41 -80 -94 -80c-25 0 -51 6 -60 9c-7 2 -8 5 -8 11v8c0 5 3 7 7 6c12 -3 34 -9 59 -9c42 0 72 16 72 54
c0 34 -24 50 -56 50c-16 0 -32 -5 -43 -7c-5 -1 -9 -2 -13 2l-3 3c-3 3 -6 6 -5 10l10.9805 65.8701c-67.4199 5 -126.49 30.3799 -160.59 50.1299c-4 2 -6 5 -6 10v13c0 3 3 4 5 3c45 -25 105 -53 186 -53h8c109 0 191 62 191 160v4c0 105 -75 134 -176 168l-51 17
c-108 36 -177 82 -177 174v11c0 108 102 168 201 168h10c70 0 134 -24 172 -46c4 -2 6 -5 6 -10v-13c0 -3 -3 -4 -5 -3c-45 25 -100 48 -174 48h-8c-86 0 -177 -51 -177 -150v-5c0 -77 56 -115 164 -151z" />
    <glyph glyph-name="Scommaaccent" unicode="&#x218;" horiz-adv-x="549" 
d="M237 360l51 -17c101 -34 176 -63 176 -168v-4c0 -98 -82 -160 -191 -160h-8c-81 0 -141 28 -186 53c-2 1 -5 0 -5 -3v-13c0 -5 2 -8 6 -10c38 -22 107 -51 184 -51h10c122 0 215 71 215 178v10c0 120 -88 157 -189 191l-51 17c-108 36 -164 74 -164 151v5
c0 99 91 150 177 150h8c74 0 129 -23 174 -48c2 -1 5 0 5 3v13c0 5 -2 8 -6 10c-38 22 -102 46 -172 46h-10c-99 0 -201 -60 -201 -168v-11c0 -92 69 -138 177 -174zM260.62 -49.9199h35c4 0 6 -2 6 -6v-34c0 -3 0.0800781 -6.01953 -1 -10l-30 -110.44
c-0.790039 -2.88965 -3 -4 -5 -4h-15c-6 0 -6.07031 5.15039 -5 9l29 104.44h-14c-4 0 -6 2 -6 6v39c0 4 2 6 6 6z" />
    <glyph glyph-name="T" unicode="T" horiz-adv-x="599" 
d="M45 700h509c3 0 5 -2 5 -5v-14c0 -3 -2 -5 -5 -5h-242v-671c0 -3 -2 -5 -5 -5h-15c-3 0 -5 2 -5 5v671h-242c-3 0 -5 2 -5 5v14c0 3 2 5 5 5z" />
    <glyph glyph-name="Tbar" unicode="&#x166;" horiz-adv-x="599" 
d="M45 700h509c3 0 5 -2 5 -5v-14c0 -3 -2 -5 -5 -5h-242v-239.77h115.5c3 0 5 -2 5 -5v-14c0 -3 -2 -5 -5 -5h-115.5v-407.23c0 -3 -2 -5 -5 -5h-15c-3 0 -5 2 -5 5v407.23h-115.5c-3 0 -5 2 -5 5v14c0 3 2 5 5 5h115.5v239.77h-242c-3 0 -5 2 -5 5v14c0 3 2 5 5 5z" />
    <glyph glyph-name="Tcaron" unicode="&#x164;" horiz-adv-x="599" 
d="M384 958.02h11c5 0 9 -4 6 -9l-87 -157c-3 -6 -5 -7 -10 -7h-8c-5 0 -7 1 -10 7l-87 157c-3 5 1 9 6 9h11c7 0 9 -3 11 -7l73 -142.39l73 142.39c2 4 4 7 11 7zM45 700h509c3 0 5 -2 5 -5v-14c0 -3 -2 -5 -5 -5h-242v-671c0 -3 -2 -5 -5 -5h-15c-3 0 -5 2 -5 5v671h-242
c-3 0 -5 2 -5 5v14c0 3 2 5 5 5z" />
    <glyph glyph-name="Tcedilla" unicode="&#x162;" horiz-adv-x="599" 
d="M45 700h509c3 0 5 -2 5 -5v-14c0 -3 -2 -5 -5 -5h-242v-671c0 -3 -2 -5 -5 -5l-11 -67c10 3 25 6 40 6c48 0 80 -28 80 -74c0 -53 -41 -80 -94 -80c-25 0 -51 6 -60 9c-7 2 -8 5 -8 11v8c0 5 3 7 7 6c12 -3 34 -9 59 -9c42 0 72 16 72 54c0 34 -24 50 -56 50
c-16 0 -32 -5 -43 -7c-5 -1 -9 -2 -13 2l-3 3c-3 3 -5.70996 5.94043 -5 10l15 86.8096v667.19h-242c-3 0 -5 2 -5 5v14c0 3 2 5 5 5z" />
    <glyph glyph-name="uni021A" unicode="&#x21a;" horiz-adv-x="599" 
d="M45 700h509c3 0 5 -2 5 -5v-14c0 -3 -2 -5 -5 -5h-242v-671c0 -3 -2 -5 -5 -5h-15c-3 0 -5 2 -5 5v671h-242c-3 0 -5 2 -5 5v14c0 3 2 5 5 5zM282.42 -49.9199h35c4 0 6 -2 6 -6v-34c0 -3 0.0800781 -6.01953 -1 -10l-30 -110.44c-0.790039 -2.88965 -3 -4 -5 -4h-15
c-6 0 -6.07031 5.15039 -5 9l29 104.44h-14c-4 0 -6 2 -6 6v39c0 4 2 6 6 6z" />
    <glyph glyph-name="U" unicode="U" horiz-adv-x="688" 
d="M574 700h14c3 0 5 -2 5 -5v-447c0 -172 -93 -261 -239 -261h-15c-146 0 -239 89 -239 261v447c0 3 2 5 5 5h14c3 0 5 -2 5 -5v-441c0 -163 82 -243 216 -243h13c134 0 216 80 216 243v441c0 3 2 5 5 5z" />
    <glyph glyph-name="Uacute" unicode="&#xda;" horiz-adv-x="688" 
d="M340.38 793.02l71 158c2 4 4 7 11 7h11c5 0 8 -4 6 -9l-77 -157c-3 -6 -5 -7 -10 -7h-8c-4 0 -6 4 -4 8zM574 700h14c3 0 5 -2 5 -5v-447c0 -172 -93 -261 -239 -261h-15c-146 0 -239 89 -239 261v447c0 3 2 5 5 5h14c3 0 5 -2 5 -5v-441c0 -163 82 -243 216 -243h13
c134 0 216 80 216 243v441c0 3 2 5 5 5z" />
    <glyph glyph-name="Ucaron" unicode="&#x1d3;" horiz-adv-x="688" 
d="M428 958.02h11c5 0 9 -4 6 -9l-87 -157c-3 -6 -5 -7 -10 -7h-8c-5 0 -7 1 -10 7l-87 157c-3 5 1 9 6 9h11c7 0 9 -3 11 -7l73 -142.39l73 142.39c2 4 4 7 11 7zM574 700h14c3 0 5 -2 5 -5v-447c0 -172 -93 -261 -239 -261h-15c-146 0 -239 89 -239 261v447c0 3 2 5 5 5
h14c3 0 5 -2 5 -5v-441c0 -163 82 -243 216 -243h13c134 0 216 80 216 243v441c0 3 2 5 5 5z" />
    <glyph glyph-name="Ucircumflex" unicode="&#xdb;" horiz-adv-x="688" 
d="M358 951.02l87 -157c3 -5 -1 -9 -6 -9h-11c-7 0 -9 3 -11 7l-73 142.4l-73 -142.4c-2 -4 -4 -7 -11 -7h-11c-5 0 -9 4 -6 9l87 157c3 6 5 7 10 7h8c5 0 7 -1 10 -7zM574 700h14c3 0 5 -2 5 -5v-447c0 -172 -93 -261 -239 -261h-15c-146 0 -239 89 -239 261v447
c0 3 2 5 5 5h14c3 0 5 -2 5 -5v-441c0 -163 82 -243 216 -243h13c134 0 216 80 216 243v441c0 3 2 5 5 5z" />
    <glyph glyph-name="Udieresis" unicode="&#xdc;" horiz-adv-x="688" 
d="M260.5 851.02h33c4 0 6 -2 6 -6v-39c0 -4 -2 -6 -6 -6h-33c-4 0 -6 2 -6 6v39c0 4 2 6 6 6zM394.5 851.02h33c4 0 6 -2 6 -6v-39c0 -4 -2 -6 -6 -6h-33c-4 0 -6 2 -6 6v39c0 4 2 6 6 6zM574 700h14c3 0 5 -2 5 -5v-447c0 -172 -93 -261 -239 -261h-15
c-146 0 -239 89 -239 261v447c0 3 2 5 5 5h14c3 0 5 -2 5 -5v-441c0 -163 82 -243 216 -243h13c134 0 216 80 216 243v441c0 3 2 5 5 5z" />
    <glyph glyph-name="Udieresisacute" unicode="&#x1d7;" horiz-adv-x="688" 
d="M333.23 919l71 158.01c2 4 4 7 11 7h11c5 0 8 -4 6 -9l-77 -157.01c-3 -6 -5 -7 -10 -7h-8c-4 0 -6 4 -4 8zM260.5 851.02h33c4 0 6 -2 6 -6v-39c0 -4 -2 -6 -6 -6h-33c-4 0 -6 2 -6 6v39c0 4 2 6 6 6zM394.5 851.02h33c4 0 6 -2 6 -6v-39c0 -4 -2 -6 -6 -6h-33
c-4 0 -6 2 -6 6v39c0 4 2 6 6 6zM574 700h14c3 0 5 -2 5 -5v-447c0 -172 -93 -261 -239 -261h-15c-146 0 -239 89 -239 261v447c0 3 2 5 5 5h14c3 0 5 -2 5 -5v-441c0 -163 82 -243 216 -243h13c134 0 216 80 216 243v441c0 3 2 5 5 5z" />
    <glyph glyph-name="Udieresiscaron" unicode="&#x1d9;" horiz-adv-x="688" 
d="M428 1084.01h11c5 0 9 -4 6 -9l-87 -157.01c-3 -6 -5 -7 -10 -7h-8c-5 0 -7 1 -10 7l-87 157.01c-3 5 1 9 6 9h11c7 0 9 -3 11 -7l73 -142.4l73 142.4c2 4 4 7 11 7zM260.5 851.02h33c4 0 6 -2 6 -6v-39c0 -4 -2 -6 -6 -6h-33c-4 0 -6 2 -6 6v39c0 4 2 6 6 6z
M394.5 851.02h33c4 0 6 -2 6 -6v-39c0 -4 -2 -6 -6 -6h-33c-4 0 -6 2 -6 6v39c0 4 2 6 6 6zM574 700h14c3 0 5 -2 5 -5v-447c0 -172 -93 -261 -239 -261h-15c-146 0 -239 89 -239 261v447c0 3 2 5 5 5h14c3 0 5 -2 5 -5v-441c0 -163 82 -243 216 -243h13
c134 0 216 80 216 243v441c0 3 2 5 5 5z" />
    <glyph glyph-name="Udieresisgrave" unicode="&#x1db;" horiz-adv-x="688" 
d="M279.47 1077.01l71 -158.01c2 -4 0 -8 -4 -8h-8c-5 0 -7 1 -10 7l-77 157.01c-2 5 1 9 6 9h11c7 0 9 -3 11 -7zM260.5 851.02h33c4 0 6 -2 6 -6v-39c0 -4 -2 -6 -6 -6h-33c-4 0 -6 2 -6 6v39c0 4 2 6 6 6zM394.5 851.02h33c4 0 6 -2 6 -6v-39c0 -4 -2 -6 -6 -6h-33
c-4 0 -6 2 -6 6v39c0 4 2 6 6 6zM574 699.989h14c3 0 5 -2 5 -5v-447c0 -172 -93 -261 -239 -261h-15c-146 0 -239 89 -239 261v447c0 3 2 5 5 5h14c3 0 5 -2 5 -5v-441c0 -163 82 -243 216 -243h13c134 0 216 80 216 243v441c0 3 2 5 5 5z" />
    <glyph glyph-name="Udieresismacron" unicode="&#x1d5;" horiz-adv-x="688" 
d="M219.5 950h249c3 0 5 -2 5 -5v-14c0 -3 -2 -5 -5 -5h-249c-3 0 -5 2 -5 5v14c0 3 2 5 5 5zM260.5 851.02h33c4 0 6 -2 6 -6v-39c0 -4 -2 -6 -6 -6h-33c-4 0 -6 2 -6 6v39c0 4 2 6 6 6zM394.5 851.02h33c4 0 6 -2 6 -6v-39c0 -4 -2 -6 -6 -6h-33c-4 0 -6 2 -6 6v39
c0 4 2 6 6 6zM574 699.989h14c3 0 5 -2 5 -5v-447c0 -172 -93 -261 -239 -261h-15c-146 0 -239 89 -239 261v447c0 3 2 5 5 5h14c3 0 5 -2 5 -5v-441c0 -163 82 -243 216 -243h13c134 0 216 80 216 243v441c0 3 2 5 5 5z" />
    <glyph glyph-name="Ugrave" unicode="&#xd9;" horiz-adv-x="688" 
d="M283.42 951.02l71 -158c2 -4 0 -8 -4 -8h-8c-5 0 -7 1 -10 7l-77 157c-2 5 1 9 6 9h11c7 0 9 -3 11 -7zM574 700h14c3 0 5 -2 5 -5v-447c0 -172 -93 -261 -239 -261h-15c-146 0 -239 89 -239 261v447c0 3 2 5 5 5h14c3 0 5 -2 5 -5v-441c0 -163 82 -243 216 -243h13
c134 0 216 80 216 243v441c0 3 2 5 5 5z" />
    <glyph glyph-name="Uhungarumlaut" unicode="&#x170;" horiz-adv-x="688" 
d="M286.16 793.02l71 158c2 4 4 7 11 7h11c5 0 8 -4 6 -9l-77 -157c-3 -6 -5 -7 -10 -7h-8c-4 0 -6 4 -4 8zM393.16 793.02l71 158c2 4 4 7 11 7h11c5 0 8 -4 6 -9l-77 -157c-3 -6 -5 -7 -10 -7h-8c-4 0 -6 4 -4 8zM574 700h14c3 0 5 -2 5 -5v-447
c0 -172 -93 -261 -239 -261h-15c-146 0 -239 89 -239 261v447c0 3 2 5 5 5h14c3 0 5 -2 5 -5v-441c0 -163 82 -243 216 -243h13c134 0 216 80 216 243v441c0 3 2 5 5 5z" />
    <glyph glyph-name="Umacron" unicode="&#x16a;" horiz-adv-x="688" 
d="M219.5 824.02h249c3 0 5 -2 5 -5v-14c0 -3 -2 -5 -5 -5h-249c-3 0 -5 2 -5 5v14c0 3 2 5 5 5zM574 700h14c3 0 5 -2 5 -5v-447c0 -172 -93 -261 -239 -261h-15c-146 0 -239 89 -239 261v447c0 3 2 5 5 5h14c3 0 5 -2 5 -5v-441c0 -163 82 -243 216 -243h13
c134 0 216 80 216 243v441c0 3 2 5 5 5z" />
    <glyph glyph-name="Uogonek" unicode="&#x172;" horiz-adv-x="688" 
d="M574 700h13.999c3 0 5 -2 5 -5v-447c0 -139.66 -61.3203 -224.601 -162.54 -251.601c-56.7695 -45.4102 -99.4893 -83.6797 -99.4893 -132.399c0 -38 26 -54 62 -54c13 0 23 2 35 5c4 1 7 -1 7 -6v-8c0 -6 -1 -9 -8 -11c-9 -3 -23 -5 -36 -5c-47 0 -84 27 -84 80
c0 42.9102 25.2402 75.3799 85.4502 124.2c-12.3496 -1.46973 -25.1699 -2.2002 -38.4199 -2.2002h-15c-146 0 -239 89 -239 261v447c0 3 2 5 5 5h14c3 0 5 -2 5 -5v-441c0 -163 82 -243 216 -243h13c134 0 216 80 216 243v441c0 3 2 5 5 5z" />
    <glyph glyph-name="Uring" unicode="&#x16e;" horiz-adv-x="688" 
d="M344 918.02c41 0 73 -32 73 -71c0 -40 -33 -72 -73 -72c-42 0 -73 33 -73 72c0 38 31 71 73 71zM344 896.02c-30 0 -48 -22 -48 -48c0 -27 18 -51 48 -51s48 24 48 51c0 26 -18 48 -48 48zM574 700h14c3 0 5 -2 5 -5v-447c0 -172 -93 -261 -239 -261h-15
c-146 0 -239 89 -239 261v447c0 3 2 5 5 5h14c3 0 5 -2 5 -5v-441c0 -163 82 -243 216 -243h13c134 0 216 80 216 243v441c0 3 2 5 5 5z" />
    <glyph glyph-name="V" unicode="V" horiz-adv-x="602" 
d="M544.37 700h14.001c3 0 4 -2 3 -5l-240 -687c-2 -5 -6 -8 -11 -8l-18.9902 0.0302734c-5.4502 0.30957 -9.12012 3.25 -11.0098 7.96973l-240 687c-1 3 0 5 3 5h14c5 0 9 -3 11 -8l231.67 -664h2.30957l84.0195 240l147 424c2 5 6 8 11 8z" />
    <glyph glyph-name="W" unicode="W" horiz-adv-x="960" 
d="M903.37 700h13c3 0 4 -2 3 -5l-204 -687c-2 -5 -6 -8 -12 -8h-17c-6 0 -10 3 -12 8l-80 270l-112.84 385h-2.90039l-113.26 -385l-80 -270c-2 -5 -6 -8 -12 -8h-17c-6 0 -10 3 -12 8l-204 687c-1 3 0 5 3 5h13c5 0 9 -3 11 -8l195.97 -663h2.7998l116.23 392l80 271
c2 5 6 8 11 8h13c5 0 9 -3 11 -8l80 -271l116.39 -392h2.62012l195.99 663c2 5 6 8 11 8z" />
    <glyph glyph-name="Wacute" unicode="&#x1e82;" horiz-adv-x="960" 
d="M472.38 793.02l71 158c2 4 4 7 11 7h11c5 0 8 -4 6 -9l-77 -157c-3 -6 -5 -7 -10 -7h-8c-4 0 -6 4 -4 8zM903.37 700h13c3 0 4 -2 3 -5l-204 -687c-2 -5 -6 -8 -12 -8h-17c-6 0 -10 3 -12 8l-80 270l-112.84 385h-2.90039l-113.26 -385l-80 -270c-2 -5 -6 -8 -12 -8h-17
c-6 0 -10 3 -12 8l-204 687c-1 3 0 5 3 5h13c5 0 9 -3 11 -8l195.97 -663h2.7998l116.23 392l80 271c2 5 6 8 11 8h13c5 0 9 -3 11 -8l80 -271l116.39 -392h2.62012l195.99 663c2 5 6 8 11 8z" />
    <glyph glyph-name="Wcircumflex" unicode="&#x174;" horiz-adv-x="960" 
d="M494 951.02l87 -157c3 -5 -1 -9 -6 -9h-11c-7 0 -9 3 -11 7l-73 142.4l-73 -142.4c-2 -4 -4 -7 -11 -7h-11c-5 0 -9 4 -6 9l87 157c3 6 5 7 10 7h8c5 0 7 -1 10 -7zM903.37 700h13c3 0 4 -2 3 -5l-204 -687c-2 -5 -6 -8 -12 -8h-17c-6 0 -10 3 -12 8l-80 270l-112.84 385
h-2.90039l-113.26 -385l-80 -270c-2 -5 -6 -8 -12 -8h-17c-6 0 -10 3 -12 8l-204 687c-1 3 0 5 3 5h13c5 0 9 -3 11 -8l195.97 -663h2.7998l116.23 392l80 271c2 5 6 8 11 8h13c5 0 9 -3 11 -8l80 -271l116.39 -392h2.62012l195.99 663c2 5 6 8 11 8z" />
    <glyph glyph-name="Wdieresis" unicode="&#x1e84;" horiz-adv-x="960" 
d="M396.5 851.02h33c4 0 6 -2 6 -6v-39c0 -4 -2 -6 -6 -6h-33c-4 0 -6 2 -6 6v39c0 4 2 6 6 6zM530.5 851.02h33c4 0 6 -2 6 -6v-39c0 -4 -2 -6 -6 -6h-33c-4 0 -6 2 -6 6v39c0 4 2 6 6 6zM903.37 700h13c3 0 4 -2 3 -5l-204 -687c-2 -5 -6 -8 -12 -8h-17c-6 0 -10 3 -12 8
l-80 270l-112.84 385h-2.90039l-113.26 -385l-80 -270c-2 -5 -6 -8 -12 -8h-17c-6 0 -10 3 -12 8l-204 687c-1 3 0 5 3 5h13c5 0 9 -3 11 -8l195.97 -663h2.7998l116.23 392l80 271c2 5 6 8 11 8h13c5 0 9 -3 11 -8l80 -271l116.39 -392h2.62012l195.99 663c2 5 6 8 11 8z
" />
    <glyph glyph-name="Wgrave" unicode="&#x1e80;" horiz-adv-x="960" 
d="M416.07 951.02l71 -158c2 -4 0 -8 -4 -8h-8c-5 0 -7 1 -10 7l-77 157c-2 5 1 9 6 9h11c7 0 9 -3 11 -7zM903.37 700h13c3 0 4 -2 3 -5l-204 -687c-2 -5 -6 -8 -12 -8h-17c-6 0 -10 3 -12 8l-80 270l-112.84 385h-2.90039l-113.26 -385l-80 -270c-2 -5 -6 -8 -12 -8h-17
c-6 0 -10 3 -12 8l-204 687c-1 3 0 5 3 5h13c5 0 9 -3 11 -8l195.97 -663h2.7998l116.23 392l80 271c2 5 6 8 11 8h13c5 0 9 -3 11 -8l80 -271l116.39 -392h2.62012l195.99 663c2 5 6 8 11 8z" />
    <glyph glyph-name="X" unicode="X" horiz-adv-x="580" 
d="M511.65 700l17 -0.000976562c3 0 6 -3 4 -6l-224 -337l231 -351c2 -3 -1 -6 -4 -6h-17c-4 0 -7.01953 1.99023 -9 5l-217.83 333.03l-3.17969 -0.139648l-217.99 -332.89c-1.96973 -3.01953 -5 -5 -9 -5h-17c-3 0 -6 3 -4 6l231 351l-224 337c-2 3 1 6 4 6h17
c4 0 7.00977 -2 9 -5l157 -238l54 -80.9102l3.16992 -0.0898438l53.8301 81l157 238c1.99023 3 5 5 9 5z" />
    <glyph glyph-name="Y" unicode="Y" horiz-adv-x="613" 
d="M552.37 700h16.999c3 0 4 -3 3 -5l-254 -452.87v-237.13c0 -3 -2 -5 -5 -5h-14c-3 0 -5 2 -5 5v237.13l-254 452.87c-1 2 0 5 3 5h17c4 0 8 -2 10 -6l234.98 -419h2.04004l234.98 419c2 4 6 6 10 6z" />
    <glyph glyph-name="Yacute" unicode="&#xdd;" horiz-adv-x="613" 
d="M302.72 793.02l71 158c2 4 4 7 11 7h11c5 0 8 -4 6 -9l-77 -157c-3 -6 -5 -7 -10 -7h-8c-4 0 -6 4 -4 8zM552.37 700h16.999c3 0 4 -3 3 -5l-254 -452.87v-237.13c0 -3 -2 -5 -5 -5h-14c-3 0 -5 2 -5 5v237.13l-254 452.87c-1 2 0 5 3 5h17c4 0 8 -2 10 -6l234.98 -419
h2.04004l234.98 419c2 4 6 6 10 6z" />
    <glyph glyph-name="Ycircumflex" unicode="&#x176;" horiz-adv-x="613" 
d="M320 951.02l87 -157c3 -5 -1 -9 -6 -9h-11c-7 0 -9 3 -11 7l-73 142.4l-73 -142.4c-2 -4 -4 -7 -11 -7h-11c-5 0 -9 4 -6 9l87 157c3 6 5 7 10 7h8c5 0 7 -1 10 -7zM552.37 700h16.999c3 0 4 -3 3 -5l-254 -452.87v-237.13c0 -3 -2 -5 -5 -5h-14c-3 0 -5 2 -5 5v237.13
l-254 452.87c-1 2 0 5 3 5h17c4 0 8 -2 10 -6l234.98 -419h2.04004l234.98 419c2 4 6 6 10 6z" />
    <glyph glyph-name="Ydieresis" unicode="&#x178;" horiz-adv-x="613" 
d="M222.5 851.02h33c4 0 6 -2 6 -6v-39c0 -4 -2 -6 -6 -6h-33c-4 0 -6 2 -6 6v39c0 4 2 6 6 6zM356.5 851.02h33c4 0 6 -2 6 -6v-39c0 -4 -2 -6 -6 -6h-33c-4 0 -6 2 -6 6v39c0 4 2 6 6 6zM552.37 700h16.999c3 0 4 -3 3 -5l-254 -452.87v-237.13c0 -3 -2 -5 -5 -5h-14
c-3 0 -5 2 -5 5v237.13l-254 452.87c-1 2 0 5 3 5h17c4 0 8 -2 10 -6l234.98 -419h2.04004l234.98 419c2 4 6 6 10 6z" />
    <glyph glyph-name="Ygrave" unicode="&#x1ef2;" horiz-adv-x="613" 
d="M244.92 951.02l71 -158c2 -4 0 -8 -4 -8h-8c-5 0 -7 1 -10 7l-77 157c-2 5 1 9 6 9h11c7 0 9 -3 11 -7zM552.37 700h16.999c3 0 4 -3 3 -5l-254 -452.87v-237.13c0 -3 -2 -5 -5 -5h-14c-3 0 -5 2 -5 5v237.13l-254 452.87c-1 2 0 5 3 5h17c4 0 8 -2 10 -6l234.98 -419
h2.04004l234.98 419c2 4 6 6 10 6z" />
    <glyph glyph-name="Z" unicode="Z" horiz-adv-x="566" 
d="M85 24h421c3 0 5 -2 5 -5v-14c0 -3 -2 -5 -5 -5h-446c-3 0 -5 2 -5 5v16c0 2 1 4 2 6l419 649h-402c-3 0 -5 2 -5 5v14c0 3 2 5 5 5h427c3 0 5 -2 5 -5v-16c0 -2 -1 -4 -2 -6z" />
    <glyph glyph-name="Zacute" unicode="&#x179;" horiz-adv-x="566" 
d="M276.29 793.02l71 158c2 4 4 7 11 7h11c5 0 8 -4 6 -9l-77 -157c-3 -6 -5 -7 -10 -7h-8c-4 0 -6 4 -4 8zM85 24h421c3 0 5 -2 5 -5v-14c0 -3 -2 -5 -5 -5h-446c-3 0 -5 2 -5 5v16c0 2 1 4 2 6l419 649h-402c-3 0 -5 2 -5 5v14c0 3 2 5 5 5h427c3 0 5 -2 5 -5v-16
c0 -2 -1 -4 -2 -6z" />
    <glyph glyph-name="Zcaron" unicode="&#x17d;" horiz-adv-x="566" 
d="M367 958.02h11c5 0 9 -4 6 -9l-87 -157c-3 -6 -5 -7 -10 -7h-8c-5 0 -7 1 -10 7l-87 157c-3 5 1 9 6 9h11c7 0 9 -3 11 -7l73 -142.39l73 142.39c2 4 4 7 11 7zM85 24h421c3 0 5 -2 5 -5v-14c0 -3 -2 -5 -5 -5h-446c-3 0 -5 2 -5 5v16c0 2 1 4 2 6l419 649h-402
c-3 0 -5 2 -5 5v14c0 3 2 5 5 5h427c3 0 5 -2 5 -5v-16c0 -2 -1 -4 -2 -6z" />
    <glyph glyph-name="Zdotaccent" unicode="&#x17b;" horiz-adv-x="566" 
d="M266.5 851.02h33c4 0 6 -2 6 -6v-39c0 -4 -2 -6 -6 -6h-33c-4 0 -6 2 -6 6v39c0 4 2 6 6 6zM85 24h421c3 0 5 -2 5 -5v-14c0 -3 -2 -5 -5 -5h-446c-3 0 -5 2 -5 5v16c0 2 1 4 2 6l419 649h-402c-3 0 -5 2 -5 5v14c0 3 2 5 5 5h427c3 0 5 -2 5 -5v-16c0 -2 -1 -4 -2 -6z
" />
    <glyph glyph-name="a" unicode="a" horiz-adv-x="488" 
d="M243 513h6c120 0 161 -65 161 -187v-321c0 -3 -2 -5 -5 -5h-15c-3 0 -5 2 -5 5v69c-52 -61 -122 -87 -175 -87h-6c-99 0 -164 54 -164 143v4c0 110 78 157 234 162l111 3.5498v27.4502c0 105 -30 162 -137 162h-4c-54 0 -113 -18 -160 -43c-2 -1 -5 0 -5 3v13
c0 5 2 8 6 10c40 22 108 41 158 41zM385 274.5l-126 -4.5c-133 -5 -194 -49 -194 -136v-5c0 -72 54 -118 140 -118h4c58 0 118 28 176 97v166.5z" />
    <glyph glyph-name="aacute" unicode="&#xe1;" horiz-adv-x="488" 
d="M240.56 593.02l71 158c2 4 4 7 11 7h11c5 0 8 -4 6 -9l-77 -157c-3 -6 -5 -7 -10 -7h-8c-4 0 -6 4 -4 8zM243 513h6c120 0 161 -65 161 -187v-321c0 -3 -2 -5 -5 -5h-15c-3 0 -5 2 -5 5v69c-52 -61 -122 -87 -175 -87h-6c-99 0 -164 54 -164 143v4c0 110 78 157 234 162
l111 3.5498v27.4502c0 105 -30 162 -137 162h-4c-54 0 -113 -18 -160 -43c-2 -1 -5 0 -5 3v13c0 5 2 8 6 10c40 22 108 41 158 41zM385 274.5l-126 -4.5c-133 -5 -194 -49 -194 -136v-5c0 -72 54 -118 140 -118h4c58 0 118 28 176 97v166.5z" />
    <glyph glyph-name="abreve" unicode="&#x103;" horiz-adv-x="488" 
d="M366 657.02c4 3 8 0 8 -4v-12c0 -5 -2 -8 -5 -10c-19 -15 -66 -41 -125 -41s-106 26 -125 41c-3 2 -5 5 -5 10v12c0 4 4 7 8 4c26 -18 64 -43 122 -43s96 25 122 43zM243 513h6c120 0 161 -65 161 -187v-321c0 -3 -2 -5 -5 -5h-15c-3 0 -5 2 -5 5v69
c-52 -61 -122 -87 -175 -87h-6c-99 0 -164 54 -164 143v4c0 110 78 157 234 162l111 3.5498v27.4502c0 105 -30 162 -137 162h-4c-54 0 -113 -18 -160 -43c-2 -1 -5 0 -5 3v13c0 5 2 8 6 10c40 22 108 41 158 41zM385 274.5l-126 -4.5c-133 -5 -194 -49 -194 -136v-5
c0 -72 54 -118 140 -118h4c58 0 118 28 176 97v166.5z" />
    <glyph glyph-name="acaron" unicode="&#x1ce;" horiz-adv-x="488" 
d="M328 758.02h11c5 0 9 -4 6 -9l-87 -157c-3 -6 -5 -7 -10 -7h-8c-5 0 -7 1 -10 7l-87 157c-3 5 1 9 6 9h11c7 0 9 -3 11 -7l73 -142.39l73 142.39c2 4 4 7 11 7zM243 513h6c120 0 161 -65 161 -187v-321c0 -3 -2 -5 -5 -5h-15c-3 0 -5 2 -5 5v69
c-52 -61 -122 -87 -175 -87h-6c-99 0 -164 54 -164 143v4c0 110 78 157 234 162l111 3.5498v27.4502c0 105 -30 162 -137 162h-4c-54 0 -113 -18 -160 -43c-2 -1 -5 0 -5 3v13c0 5 2 8 6 10c40 22 108 41 158 41zM385 274.5l-126 -4.5c-133 -5 -194 -49 -194 -136v-5
c0 -72 54 -118 140 -118h4c58 0 118 28 176 97v166.5z" />
    <glyph glyph-name="acircumflex" unicode="&#xe2;" horiz-adv-x="488" 
d="M258 751.02l87 -157c3 -5 -1 -9 -6 -9h-11c-7 0 -9 3 -11 7l-73 142.4l-73 -142.4c-2 -4 -4 -7 -11 -7h-11c-5 0 -9 4 -6 9l87 157c3 6 5 7 10 7h8c5 0 7 -1 10 -7zM243 513h6c120 0 161 -65 161 -187v-321c0 -3 -2 -5 -5 -5h-15c-3 0 -5 2 -5 5v69
c-52 -61 -122 -87 -175 -87h-6c-99 0 -164 54 -164 143v4c0 110 78 157 234 162l111 3.5498v27.4502c0 105 -30 162 -137 162h-4c-54 0 -113 -18 -160 -43c-2 -1 -5 0 -5 3v13c0 5 2 8 6 10c40 22 108 41 158 41zM385 274.5l-126 -4.5c-133 -5 -194 -49 -194 -136v-5
c0 -72 54 -118 140 -118h4c58 0 118 28 176 97v166.5z" />
    <glyph glyph-name="adieresis" unicode="&#xe4;" horiz-adv-x="488" 
d="M160.5 651.02h33c4 0 6 -2 6 -6v-39c0 -4 -2 -6 -6 -6h-33c-4 0 -6 2 -6 6v39c0 4 2 6 6 6zM294.5 651.02h33c4 0 6 -2 6 -6v-39c0 -4 -2 -6 -6 -6h-33c-4 0 -6 2 -6 6v39c0 4 2 6 6 6zM243 513h6c120 0 161 -65 161 -187v-321c0 -3 -2 -5 -5 -5h-15c-3 0 -5 2 -5 5v69
c-52 -61 -122 -87 -175 -87h-6c-99 0 -164 54 -164 143v4c0 110 78 157 234 162l111 3.5498v27.4502c0 105 -30 162 -137 162h-4c-54 0 -113 -18 -160 -43c-2 -1 -5 0 -5 3v13c0 5 2 8 6 10c40 22 108 41 158 41zM385 274.5l-126 -4.5c-133 -5 -194 -49 -194 -136v-5
c0 -72 54 -118 140 -118h4c58 0 118 28 176 97v166.5z" />
    <glyph glyph-name="agrave" unicode="&#xe0;" horiz-adv-x="488" 
d="M184.78 751.02l71 -158c2 -4 0 -8 -4 -8h-8c-5 0 -7 1 -10 7l-77 157c-2 5 1 9 6 9h11c7 0 9 -3 11 -7zM243 513h6c120 0 161 -65 161 -187v-321c0 -3 -2 -5 -5 -5h-15c-3 0 -5 2 -5 5v69c-52 -61 -122 -87 -175 -87h-6c-99 0 -164 54 -164 143v4c0 110 78 157 234 162
l111 3.5498v27.4502c0 105 -30 162 -137 162h-4c-54 0 -113 -18 -160 -43c-2 -1 -5 0 -5 3v13c0 5 2 8 6 10c40 22 108 41 158 41zM385 274.5l-126 -4.5c-133 -5 -194 -49 -194 -136v-5c0 -72 54 -118 140 -118h4c58 0 118 28 176 97v166.5z" />
    <glyph glyph-name="amacron" unicode="&#x101;" horiz-adv-x="488" 
d="M119.5 624.02h249c3 0 5 -2 5 -5v-14c0 -3 -2 -5 -5 -5h-249c-3 0 -5 2 -5 5v14c0 3 2 5 5 5zM243 513h6c120 0 161 -65 161 -187v-321c0 -3 -2 -5 -5 -5h-15c-3 0 -5 2 -5 5v69c-52 -61 -122 -87 -175 -87h-6c-99 0 -164 54 -164 143v4c0 110 78 157 234 162l111 3.5498
v27.4502c0 105 -30 162 -137 162h-4c-54 0 -113 -18 -160 -43c-2 -1 -5 0 -5 3v13c0 5 2 8 6 10c40 22 108 41 158 41zM385 274.5l-126 -4.5c-133 -5 -194 -49 -194 -136v-5c0 -72 54 -118 140 -118h4c58 0 118 28 176 97v166.5z" />
    <glyph glyph-name="aogonek" unicode="&#x105;" horiz-adv-x="488" 
d="M243 513l6 -0.0107422c120 0 161 -65 161 -187v-321c0 -3 -2 -5 -5 -5c-59 -47 -104 -86 -104 -136c0 -38 26 -54 62 -54c13 0 23 2 35 5c4 1 7 -1 7 -6v-8c0 -6 -1 -9 -8 -11c-9 -3 -23 -5 -36 -5c-47 0 -84 27 -84 80c0 45.2305 28.04 78.8604 108 142.07v66.9404
c-52 -61 -122 -87 -175 -87h-6c-99 0 -164 54 -164 143v4c0 110 78 157 234 162l111 3.5498v27.4502c0 105 -30 162 -137 162h-4c-54 0 -113 -18 -160 -43c-2 -1 -5 0 -5 3v13c0 5 2 8 6 10c40 22 108 41 158 41zM205 10.9893h4c58 0 118 28 176 97v166.5l-126 -4.5
c-133 -5 -194 -49 -194 -136v-5c0 -72 54 -118 140 -118z" />
    <glyph glyph-name="aring" unicode="&#xe5;" horiz-adv-x="488" 
d="M244 718.02c41 0 73 -32 73 -71c0 -40 -33 -72 -73 -72c-42 0 -73 33 -73 72c0 38 31 71 73 71zM244 696.02c-30 0 -48 -22 -48 -48c0 -27 18 -51 48 -51s48 24 48 51c0 26 -18 48 -48 48zM243 513h6c120 0 161 -65 161 -187v-321c0 -3 -2 -5 -5 -5h-15c-3 0 -5 2 -5 5
v69c-52 -61 -122 -87 -175 -87h-6c-99 0 -164 54 -164 143v4c0 110 78 157 234 162l111 3.5498v27.4502c0 105 -30 162 -137 162h-4c-54 0 -113 -18 -160 -43c-2 -1 -5 0 -5 3v13c0 5 2 8 6 10c40 22 108 41 158 41zM385 274.5l-126 -4.5c-133 -5 -194 -49 -194 -136v-5
c0 -72 54 -118 140 -118h4c58 0 118 28 176 97v166.5z" />
    <glyph glyph-name="atilde" unicode="&#xe3;" horiz-adv-x="488" 
d="M363.5 650.02h11c5 0 7 -2 5 -8c-8 -28 -45 -67 -86 -67h-4c-49 0 -54 47 -96 47c-26 0 -45 -19 -60 -44c-2 -4 -5 -6 -9 -6h-11c-5 0 -7 2 -5 8c8 28 45 67 86 67h4c49 0 54 -47 96 -47c26 0 45 19 60 44c2 4 5 6 9 6zM243 513h6c120 0 161 -65 161 -187v-321
c0 -3 -2 -5 -5 -5h-15c-3 0 -5 2 -5 5v69c-52 -61 -122 -87 -175 -87h-6c-99 0 -164 54 -164 143v4c0 110 78 157 234 162l111 3.5498v27.4502c0 105 -30 162 -137 162h-4c-54 0 -113 -18 -160 -43c-2 -1 -5 0 -5 3v13c0 5 2 8 6 10c40 22 108 41 158 41zM385 274.5
l-126 -4.5c-133 -5 -194 -49 -194 -136v-5c0 -72 54 -118 140 -118h4c58 0 118 28 176 97v166.5z" />
    <glyph glyph-name="ae" unicode="&#xe6;" horiz-adv-x="849" 
d="M585 513l11.001 0.000976562c121 0 185 -78 185 -226v-27c0 -3 -2 -5 -5 -5h-366v-62c0 -114 82 -182 191 -182h4c54 0 109 18 156 43c2 1 5 0 5 -3v-13c0 -5 -2 -8 -6 -10c-40 -22 -104 -41 -154 -41h-6c-84.1104 0 -154.431 36.1201 -190.001 101.48v-83.4805
c0 -3 -2 -5 -5 -5h-15c-3 0 -5 2 -5 5v69c-52 -61 -122 -87 -175 -87h-6c-99 0 -164 54 -164 143v4c0 110 78 157 234 162l111 3.5498v27.4502c0 105 -30 162 -137 162h-4c-54 0 -113 -18 -160 -43c-2 -1 -5 0 -5 3v13c0 5 2 8 6 10c40 22 108 41 158 41h6
c96.9805 0 142.36 -42.46 156.2 -123.16c31.5996 78.5596 97.6797 123.159 179.8 123.159zM410.001 279.001h346.001c0 144 -55 210 -161 210h-9c-102.48 0 -175.261 -80.1797 -176.001 -210zM385.002 274.501l-126 -4.5c-133 -5 -194 -49 -194 -136v-5
c0 -72 54 -118 140 -118h4c58 0 118 28 176 97v166.5z" />
    <glyph glyph-name="b" unicode="b" horiz-adv-x="547" 
d="M280 513h4c122 0 193 -78 193 -226v-74c0 -148 -81 -226 -198 -226h-6c-62 0 -147 31 -187 55c-4 3 -6 7 -6 11v679c0 3 2 5 5 5h15c3 0 5 -2 5 -5v-306c52 61 122 87 175 87zM452 212v76c0 131 -60 201 -169 201h-2c-58 0 -118 -28 -176 -97v-330
c46 -27 110 -51 169 -51h4c104 0 174 70 174 201z" />
    <glyph glyph-name="c" unicode="c" horiz-adv-x="507" 
d="M285 513h11c50 0 102 -19 137 -41c4 -2 6 -5 6 -10v-13c0 -3 -3 -4 -5 -3c-42 25 -85 43 -139 43h-9c-104 0 -191 -70 -191 -201v-76c0 -131 87 -201 191 -201h9c54 0 97 18 139 43c2 1 5 0 5 -3v-13c0 -5 -2 -8 -6 -10c-35 -22 -87 -41 -137 -41h-11
c-117 0 -215 78 -215 226v74c0 148 98 226 215 226z" />
    <glyph glyph-name="cacute" unicode="&#x107;" horiz-adv-x="507" 
d="M258.88 593.02l71 158c2 4 4 7 11 7h11c5 0 8 -4 6 -9l-77 -157c-3 -6 -5 -7 -10 -7h-8c-4 0 -6 4 -4 8zM285 513h11c50 0 102 -19 137 -41c4 -2 6 -5 6 -10v-13c0 -3 -3 -4 -5 -3c-42 25 -85 43 -139 43h-9c-104 0 -191 -70 -191 -201v-76c0 -131 87 -201 191 -201h9
c54 0 97 18 139 43c2 1 5 0 5 -3v-13c0 -5 -2 -8 -6 -10c-35 -22 -87 -41 -137 -41h-11c-117 0 -215 78 -215 226v74c0 148 98 226 215 226z" />
    <glyph glyph-name="ccaron" unicode="&#x10d;" horiz-adv-x="507" 
d="M361.11 758.02h11c5 0 9 -4 6 -9l-87 -157c-3 -6 -5 -7 -10 -7h-8c-5 0 -7 1 -10 7l-87 157c-3 5 1 9 6 9h11c7 0 9 -3 11 -7l73 -142.39l73 142.39c2 4 4 7 11 7zM285 513h11c50 0 102 -19 137 -41c4 -2 6 -5 6 -10v-13c0 -3 -3 -4 -5 -3c-42 25 -85 43 -139 43h-9
c-104 0 -191 -70 -191 -201v-76c0 -131 87 -201 191 -201h9c54 0 97 18 139 43c2 1 5 0 5 -3v-13c0 -5 -2 -8 -6 -10c-35 -22 -87 -41 -137 -41h-11c-117 0 -215 78 -215 226v74c0 148 98 226 215 226z" />
    <glyph glyph-name="ccedilla" unicode="&#xe7;" horiz-adv-x="507" 
d="M295 489l-9 -0.00878906c-104 0 -191 -70 -191 -201v-76c0 -131 87 -201 191 -201h9c54 0 97 18 139 43c2 1 5 0 5 -3v-13c0 -5 -2 -8 -6 -10c-35 -22 -87 -41 -137 -41h-11c-7.30957 0 -14.54 0.30957 -21.6797 0.90918l-9.00977 -54.9102c10 3 25 6 40 6
c48 0 80 -28 80 -74c0 -53 -41 -80 -94 -80c-25 0 -51 6 -60 9c-7 2 -8 5 -8 11v8c0 5 3 7 7 6c12 -3 34 -9 59 -9c42 0 72 16 72 54c0 34 -24 50 -56 50c-16 0 -32 -5 -43 -7c-5 -1 -9 -2 -13 2l-3 3c-3 3 -6 6 -5 10l11.4502 68.7197
c-96.9404 17.0898 -171.761 92.9697 -171.761 222.29v74c0 148 98 226 215 226h11c50 0 102 -19 137 -41c4 -2 6 -5 6 -10v-13c0 -3 -3 -4 -5 -3c-42 25 -85 43 -139 43z" />
    <glyph glyph-name="cdotaccent" unicode="&#x10b;" horiz-adv-x="507" 
d="M270.97 651.02h33c4 0 6 -2 6 -6v-39c0 -4 -2 -6 -6 -6h-33c-4 0 -6 2 -6 6v39c0 4 2 6 6 6zM285 513h11c50 0 102 -19 137 -41c4 -2 6 -5 6 -10v-13c0 -3 -3 -4 -5 -3c-42 25 -85 43 -139 43h-9c-104 0 -191 -70 -191 -201v-76c0 -131 87 -201 191 -201h9
c54 0 97 18 139 43c2 1 5 0 5 -3v-13c0 -5 -2 -8 -6 -10c-35 -22 -87 -41 -137 -41h-11c-117 0 -215 78 -215 226v74c0 148 98 226 215 226z" />
    <glyph glyph-name="d" unicode="d" horiz-adv-x="547" 
d="M447 737h15c3 0 5 -2 5 -5v-727c0 -3 -2 -5 -5 -5h-15c-3 0 -5 2 -5 5v69c-52 -61 -122 -87 -175 -87h-4c-122 0 -193 78 -193 226v74c0 148 71 226 193 226h4c53 0 123 -26 175 -87v306c0 3 2 5 5 5zM266 489h-2c-109 0 -169 -70 -169 -201v-76c0 -131 60 -201 169 -201
h2c58 0 118 28 176 97v284c-58 69 -118 97 -176 97z" />
    <glyph glyph-name="eth" unicode="&#xf0;" horiz-adv-x="537" 
d="M498.53 748.85l8.41016 -12.751c2.29004 -2.16992 1.44043 -5.37988 -1.14941 -7.18945l-68.3896 -47.7695c19.6104 -30 29.6006 -69.5498 29.6006 -118.14v-350c0 -148 -76 -226 -194 -226h-11c-111 0 -192 78 -192 226v61c0 148 71 226 193 226h4c53 0 123 -26 175 -87
v151c0 42.1504 -8.37988 76.5605 -25.3301 102.66l-91.6201 -64c-2.32031 -1.62012 -4.90039 -1.03027 -7.19043 1.14941l-8.40039 12.7402c-2.2998 2.17969 -1.4502 5.37988 1.13965 7.18945l89.8896 62.79c-26.3701 25.9697 -65.4199 39.4697 -117.49 39.4697h-4
c-54 0 -109 -18 -156 -43c-2 -1 -5 0 -5 3v13c0 5 2 8 6 10c40 22 104 41 154 41h6c60.6504 0 106.74 -16.6104 137.5 -48.79l69.8398 48.79c2.32031 1.62012 4.90039 1.03027 7.19043 -1.14941zM442 211.988v167c-58 69 -118 97 -176 97h-2c-109 0 -169 -70 -169 -201v-63
c0 -131 70 -201 168 -201h9c105 0 170 70 170 201z" />
    <glyph glyph-name="dcaron" unicode="&#x10f;" horiz-adv-x="609" 
d="M447 737h15c3 0 5 -2 5 -5v-727c0 -3 -2 -5 -5 -5h-15c-3 0 -5 2 -5 5v69c-52 -61 -122 -87 -175 -87h-4c-122 0 -193 78 -193 226v74c0 148 71 226 193 226h4c53 0 123 -26 175 -87v306c0 3 2 5 5 5zM538.33 737h35c4 0 6 -2 6 -6v-34c0 -3 0.0800781 -6.01953 -1 -10
l-30 -110.44c-0.790039 -2.90039 -3 -4 -5 -4h-15c-6 0 -6.07031 5.13965 -5 9l29 104.44h-14c-4 0 -6 2 -6 6v39c0 4 2 6 6 6zM266 489h-2c-109 0 -169 -70 -169 -201v-76c0 -131 60 -201 169 -201h2c58 0 118 28 176 97v284c-58 69 -118 97 -176 97z" />
    <glyph glyph-name="dcroat" unicode="&#x111;" horiz-adv-x="547" 
d="M467 653.07h65.1201c3 0 5 -2 5 -5v-14c0 -3 -2 -5 -5 -5h-65.1201v-624.07c0 -3 -2 -5 -5 -5h-15c-3 0 -5 2 -5 5v69c-52 -61 -122 -87 -175 -87h-4c-122 0 -193 78 -193 226v74c0 148 71 226 193 226h4c53 0 123 -26 175 -87v203.07h-158.88c-3 0 -5 2 -5 5v14
c0 3 2 5 5 5h158.88v78.9297c0 3 2 5 5 5h15c3 0 5 -2 5 -5v-78.9297zM442 108v284c-58 69 -118 97 -176 97h-2c-109 0 -169 -70 -169 -201v-76c0 -131 60 -201 169 -201h2c58 0 118 28 176 97z" />
    <glyph glyph-name="e" unicode="e" horiz-adv-x="534" 
d="M270 513h11c121 0 185 -78 185 -226v-27c0 -3 -2 -5 -5 -5h-366v-62c0 -114 82 -182 191 -182h4c54 0 109 18 156 43c2 1 5 0 5 -3v-13c0 -5 -2 -8 -6 -10c-40 -22 -104 -41 -154 -41h-6c-122 0 -215 76 -215 207v82c0 148 84 237 200 237zM280 489h-8.99902
c-102.48 0 -175.261 -80.1797 -176.001 -210h346c0 144 -55 210 -161 210z" />
    <glyph glyph-name="eacute" unicode="&#xe9;" horiz-adv-x="534" 
d="M262.6 593.02l71 158c2 4 4 7 11 7h11c5 0 8 -4 6 -9l-77 -157c-3 -6 -5 -7 -10 -7h-8c-4 0 -6 4 -4 8zM270 513h11c121 0 185 -78 185 -226v-27c0 -3 -2 -5 -5 -5h-366v-62c0 -114 82 -182 191 -182h4c54 0 109 18 156 43c2 1 5 0 5 -3v-13c0 -5 -2 -8 -6 -10
c-40 -22 -104 -41 -154 -41h-6c-122 0 -215 76 -215 207v82c0 148 84 237 200 237zM280 489h-8.99902c-102.48 0 -175.261 -80.1797 -176.001 -210h346c0 144 -55 210 -161 210z" />
    <glyph glyph-name="ecaron" unicode="&#x11b;" horiz-adv-x="534" 
d="M351 758.02h11c5 0 9 -4 6 -9l-87 -157c-3 -6 -5 -7 -10 -7h-8c-5 0 -7 1 -10 7l-87 157c-3 5 1 9 6 9h11c7 0 9 -3 11 -7l73 -142.39l73 142.39c2 4 4 7 11 7zM270 513h11c121 0 185 -78 185 -226v-27c0 -3 -2 -5 -5 -5h-366v-62c0 -114 82 -182 191 -182h4
c54 0 109 18 156 43c2 1 5 0 5 -3v-13c0 -5 -2 -8 -6 -10c-40 -22 -104 -41 -154 -41h-6c-122 0 -215 76 -215 207v82c0 148 84 237 200 237zM280 489h-8.99902c-102.48 0 -175.261 -80.1797 -176.001 -210h346c0 144 -55 210 -161 210z" />
    <glyph glyph-name="ecircumflex" unicode="&#xea;" horiz-adv-x="534" 
d="M281 751.02l87 -157c3 -5 -1 -9 -6 -9h-11c-7 0 -9 3 -11 7l-73 142.4l-73 -142.4c-2 -4 -4 -7 -11 -7h-11c-5 0 -9 4 -6 9l87 157c3 6 5 7 10 7h8c5 0 7 -1 10 -7zM270 513h11c121 0 185 -78 185 -226v-27c0 -3 -2 -5 -5 -5h-366v-62c0 -114 82 -182 191 -182h4
c54 0 109 18 156 43c2 1 5 0 5 -3v-13c0 -5 -2 -8 -6 -10c-40 -22 -104 -41 -154 -41h-6c-122 0 -215 76 -215 207v82c0 148 84 237 200 237zM280 489h-8.99902c-102.48 0 -175.261 -80.1797 -176.001 -210h346c0 144 -55 210 -161 210z" />
    <glyph glyph-name="edieresis" unicode="&#xeb;" horiz-adv-x="534" 
d="M183.5 651.02h33c4 0 6 -2 6 -6v-39c0 -4 -2 -6 -6 -6h-33c-4 0 -6 2 -6 6v39c0 4 2 6 6 6zM317.5 651.02h33c4 0 6 -2 6 -6v-39c0 -4 -2 -6 -6 -6h-33c-4 0 -6 2 -6 6v39c0 4 2 6 6 6zM270 513h11c121 0 185 -78 185 -226v-27c0 -3 -2 -5 -5 -5h-366v-62
c0 -114 82 -182 191 -182h4c54 0 109 18 156 43c2 1 5 0 5 -3v-13c0 -5 -2 -8 -6 -10c-40 -22 -104 -41 -154 -41h-6c-122 0 -215 76 -215 207v82c0 148 84 237 200 237zM280 489h-8.99902c-102.48 0 -175.261 -80.1797 -176.001 -210h346c0 144 -55 210 -161 210z" />
    <glyph glyph-name="edotaccent" unicode="&#x117;" horiz-adv-x="534" 
d="M250.5 651.02h33c4 0 6 -2 6 -6v-39c0 -4 -2 -6 -6 -6h-33c-4 0 -6 2 -6 6v39c0 4 2 6 6 6zM270 513h11c121 0 185 -78 185 -226v-27c0 -3 -2 -5 -5 -5h-366v-62c0 -114 82 -182 191 -182h4c54 0 109 18 156 43c2 1 5 0 5 -3v-13c0 -5 -2 -8 -6 -10
c-40 -22 -104 -41 -154 -41h-6c-122 0 -215 76 -215 207v82c0 148 84 237 200 237zM280 489h-8.99902c-102.48 0 -175.261 -80.1797 -176.001 -210h346c0 144 -55 210 -161 210z" />
    <glyph glyph-name="egrave" unicode="&#xe8;" horiz-adv-x="534" 
d="M211.47 751.02l71 -158c2 -4 0 -8 -4 -8h-8c-5 0 -7 1 -10 7l-77 157c-2 5 1 9 6 9h11c7 0 9 -3 11 -7zM270 513h11c121 0 185 -78 185 -226v-27c0 -3 -2 -5 -5 -5h-366v-62c0 -114 82 -182 191 -182h4c54 0 109 18 156 43c2 1 5 0 5 -3v-13c0 -5 -2 -8 -6 -10
c-40 -22 -104 -41 -154 -41h-6c-122 0 -215 76 -215 207v82c0 148 84 237 200 237zM280 489h-8.99902c-102.48 0 -175.261 -80.1797 -176.001 -210h346c0 144 -55 210 -161 210z" />
    <glyph glyph-name="emacron" unicode="&#x113;" horiz-adv-x="534" 
d="M142.5 624.02h249c3 0 5 -2 5 -5v-14c0 -3 -2 -5 -5 -5h-249c-3 0 -5 2 -5 5v14c0 3 2 5 5 5zM270 513h11c121 0 185 -78 185 -226v-27c0 -3 -2 -5 -5 -5h-366v-62c0 -114 82 -182 191 -182h4c54 0 109 18 156 43c2 1 5 0 5 -3v-13c0 -5 -2 -8 -6 -10
c-40 -22 -104 -41 -154 -41h-6c-122 0 -215 76 -215 207v82c0 148 84 237 200 237zM280 489h-8.99902c-102.48 0 -175.261 -80.1797 -176.001 -210h346c0 144 -55 210 -161 210z" />
    <glyph glyph-name="eogonek" unicode="&#x119;" horiz-adv-x="534" 
d="M270 513l10.9893 0.000976562c121 0 185 -78 185 -226v-27c0 -3 -2 -5 -5 -5h-366v-62c0 -114 82 -182 191 -182h4c54 0 109 18 156 43c2 1 5 0 5 -3v-13c0 -5 -2 -8 -6 -10c-22.6201 -12.4404 -52.9199 -23.9307 -84.0195 -31.5605
c-56.79 -45.4297 -99.54 -83.71 -99.54 -132.45c0 -38 26 -54 62 -54c13 0 23 2 35 5c4 1 7 -1 7 -6v-8c0 -6 -1 -9 -8 -11c-9 -3 -23 -5 -36 -5c-47 0 -84 27 -84 80c0 42.9199 25.2402 75.4004 85.4805 124.23c-11 -1.44043 -21.75 -2.2207 -31.9102 -2.2207h-6
c-122 0 -215 76 -215 207v82c0 148 84 237 200 237zM94.999 279.001h345.99c0 144 -55 210 -161 210h-9c-102.47 0 -175.25 -80.1797 -175.99 -210z" />
    <glyph glyph-name="f" unicode="f" horiz-adv-x="344" 
d="M308 733c5 -2 6 -5 6 -9v-10c0 -4 -3 -7 -7 -5c-23 10 -46 17 -76 17h-4c-51 0 -100 -32 -100 -111v-115h156c3 0 5 -2 5 -5v-14c0 -3 -2 -5 -5 -5h-156v-471c0 -3 -2 -5 -5 -5h-15c-3 0 -5 2 -5 5v471h-67c-3 0 -5 2 -5 5v14c0 3 2 5 5 5h67v114c0 96 60 136 124 136h6
c25 0 56 -8 76 -17z" />
    <glyph glyph-name="g" unicode="g" horiz-adv-x="542" 
d="M456 458c4 -3 6 -7 6 -11v-440c0 -122 -63 -187 -183 -187h-6c-50 0 -114 19 -154 41c-4 2 -6 5 -6 10v13c0 3 3 4 5 3c47 -25 102 -43 156 -43h4c107 0 159 57 159 162v68c-52 -61 -122 -87 -175 -87h-4c-122 0 -188 78 -188 226v74c0 148 76 226 193 226h6
c62 0 147 -31 187 -55zM259 11h2c58 0 118 28 176 97v330c-46 27 -110 51 -169 51h-4c-104 0 -169 -70 -169 -201v-76c0 -131 55 -201 164 -201z" />
    <glyph glyph-name="gbreve" unicode="&#x11f;" horiz-adv-x="542" 
d="M393 657.02c4 3 8 0 8 -4v-12c0 -5 -2 -8 -5 -10c-19 -15 -66 -41 -125 -41s-106 26 -125 41c-3 2 -5 5 -5 10v12c0 4 4 7 8 4c26 -18 64 -43 122 -43s96 25 122 43zM456 458c4 -3 6 -7 6 -11v-440c0 -122 -63 -187 -183 -187h-6c-50 0 -114 19 -154 41c-4 2 -6 5 -6 10
v13c0 3 3 4 5 3c47 -25 102 -43 156 -43h4c107 0 159 57 159 162v68c-52 -61 -122 -87 -175 -87h-4c-122 0 -188 78 -188 226v74c0 148 76 226 193 226h6c62 0 147 -31 187 -55zM259 11h2c58 0 118 28 176 97v330c-46 27 -110 51 -169 51h-4c-104 0 -169 -70 -169 -201v-76
c0 -131 55 -201 164 -201z" />
    <glyph glyph-name="gcommaaccent" unicode="&#x123;" horiz-adv-x="542" 
d="M282.05 585.02h-35c-4 0 -6 2 -6 6v34c0 3 -0.0898438 6.01953 1 10l30 110.44c0.780273 2.90039 3 4 5 4h15c6 0 6.07031 -5.13965 5 -9l-29 -104.44h14c4 0 6 -2 6 -6v-39c0 -4 -2 -6 -6 -6zM456 458c4 -3 6 -7 6 -11v-440c0 -122 -63 -187 -183 -187h-6
c-50 0 -114 19 -154 41c-4 2 -6 5 -6 10v13c0 3 3 4 5 3c47 -25 102 -43 156 -43h4c107 0 159 57 159 162v68c-52 -61 -122 -87 -175 -87h-4c-122 0 -188 78 -188 226v74c0 148 76 226 193 226h6c62 0 147 -31 187 -55zM259 11h2c58 0 118 28 176 97v330
c-46 27 -110 51 -169 51h-4c-104 0 -169 -70 -169 -201v-76c0 -131 55 -201 164 -201z" />
    <glyph glyph-name="gdotaccent" unicode="&#x121;" horiz-adv-x="542" 
d="M254.5 636.02h33c4 0 6 -2 6 -6v-39c0 -4 -2 -6 -6 -6h-33c-4 0 -6 2 -6 6v39c0 4 2 6 6 6zM456 458c4 -3 6 -7 6 -11v-440c0 -122 -63 -187 -183 -187h-6c-50 0 -114 19 -154 41c-4 2 -6 5 -6 10v13c0 3 3 4 5 3c47 -25 102 -43 156 -43h4c107 0 159 57 159 162v68
c-52 -61 -122 -87 -175 -87h-4c-122 0 -188 78 -188 226v74c0 148 76 226 193 226h6c62 0 147 -31 187 -55zM259 11h2c58 0 118 28 176 97v330c-46 27 -110 51 -169 51h-4c-104 0 -169 -70 -169 -201v-76c0 -131 55 -201 164 -201z" />
    <glyph glyph-name="h" unicode="h" horiz-adv-x="543" 
d="M290 513h4c122 0 171 -69 171 -188v-320c0 -3 -2 -5 -5 -5h-15c-3 0 -5 2 -5 5v321c0 102 -38 163 -147 163h-2c-60.3701 0 -127.86 -35.5898 -184 -87.4697v-396.53c0 -3 -2 -5 -5 -5h-15c-3 0 -5 2 -5 5v727c0 3 2 5 5 5h15c3 0 5 -2 5 -5v-298.8
c51.6504 45.5 123.92 79.7998 183 79.7998z" />
    <glyph glyph-name="hbar" unicode="&#x127;" horiz-adv-x="543" 
d="M290 513h4c122 0 171 -69 171 -188v-320c0 -3 -2 -5 -5 -5h-15c-3 0 -5 2 -5 5v321c0 102 -38 163 -147 163h-2c-60.3701 0 -127.86 -35.5898 -184 -87.4697v-396.53c0 -3 -2 -5 -5 -5h-15c-3 0 -5 2 -5 5v624.07h-65.9004c-3 0 -5 2 -5 5v14c0 3 2 5 5 5h65.9004
v78.9297c0 3 2 5 5 5h15c3 0 5 -2 5 -5v-78.9297h158.1c3 0 5 -2 5 -5v-14c0 -3 -2 -5 -5 -5h-158.1v-195.87c51.6504 45.5 123.92 79.7998 183 79.7998z" />
    <glyph glyph-name="i" unicode="i" horiz-adv-x="201" 
d="M88 651.02h27c4 0 6 -2 6 -6v-39c0 -4 -2 -6 -6 -6h-27c-4 0 -6 2 -6 6v39c0 4 2 6 6 6zM94 500h15c3 0 5 -2 5 -5v-490c0 -3 -2 -5 -5 -5h-15c-3 0 -5 2 -5 5v490c0 3 2 5 5 5z" />
    <glyph glyph-name="dotlessi" unicode="&#x131;" horiz-adv-x="187" 
d="M87 500h15c3 0 5 -2 5 -5v-490c0 -3 -2 -5 -5 -5h-15c-3 0 -5 2 -5 5v490c0 3 2 5 5 5z" />
    <glyph glyph-name="iacute" unicode="&#xed;" horiz-adv-x="187" 
d="M88.7998 593.02l71 158c2 4 4 7 11 7h11c5 0 8 -4 6 -9l-77 -157c-3 -6 -5 -7 -10 -7h-8c-4 0 -6 4 -4 8zM87 500h15c3 0 5 -2 5 -5v-490c0 -3 -2 -5 -5 -5h-15c-3 0 -5 2 -5 5v490c0 3 2 5 5 5z" />
    <glyph glyph-name="icaron" unicode="&#x1d0;" horiz-adv-x="187" 
d="M178 758.02h11c5 0 9 -4 6 -9l-87 -157c-3 -6 -5 -7 -10 -7h-8c-5 0 -7 1 -10 7l-87 157c-3 5 1 9 6 9h11c7 0 9 -3 11 -7l73 -142.39l73 142.39c2 4 4 7 11 7zM87 500h15c3 0 5 -2 5 -5v-490c0 -3 -2 -5 -5 -5h-15c-3 0 -5 2 -5 5v490c0 3 2 5 5 5z" />
    <glyph glyph-name="icircumflex" unicode="&#xee;" horiz-adv-x="187" 
d="M108.16 751.02l87 -157c3 -5 -1 -9 -6 -9h-11c-7 0 -9 3 -11 7l-73 142.4l-73 -142.4c-2 -4 -4 -7 -11 -7h-11c-5 0 -9 4 -6 9l87 157c3 6 5 7 10 7h8c5 0 7 -1 10 -7zM87 500h15c3 0 5 -2 5 -5v-490c0 -3 -2 -5 -5 -5h-15c-3 0 -5 2 -5 5v490c0 3 2 5 5 5z" />
    <glyph glyph-name="idieresis" unicode="&#xef;" horiz-adv-x="187" 
d="M10.6797 651.02h33c4 0 6 -2 6 -6v-39c0 -4 -2 -6 -6 -6h-33c-4 0 -6 2 -6 6v39c0 4 2 6 6 6zM144.68 651.02h33c4 0 6 -2 6 -6v-39c0 -4 -2 -6 -6 -6h-33c-4 0 -6 2 -6 6v39c0 4 2 6 6 6zM87 500h15c3 0 5 -2 5 -5v-490c0 -3 -2 -5 -5 -5h-15c-3 0 -5 2 -5 5v490
c0 3 2 5 5 5z" />
    <glyph glyph-name="i.loclTRK" horiz-adv-x="187" 
d="M78 651.02h33c4 0 6 -2 6 -6v-39c0 -4 -2 -6 -6 -6h-33c-4 0 -6 2 -6 6v39c0 4 2 6 6 6zM87 500h15c3 0 5 -2 5 -5v-490c0 -3 -2 -5 -5 -5h-15c-3 0 -5 2 -5 5v490c0 3 2 5 5 5z" />
    <glyph glyph-name="igrave" unicode="&#xec;" horiz-adv-x="187" 
d="M30.7998 751.02l71 -158c2 -4 0 -8 -4 -8h-8c-5 0 -7 1 -10 7l-77 157c-2 5 1 9 6 9h11c7 0 9 -3 11 -7zM87 500h15c3 0 5 -2 5 -5v-490c0 -3 -2 -5 -5 -5h-15c-3 0 -5 2 -5 5v490c0 3 2 5 5 5z" />
    <glyph glyph-name="ij" unicode="&#x133;" horiz-adv-x="396" 
d="M88 651.02h27c4 0 6 -2 6 -6v-39c0 -4 -2 -6 -6 -6h-27c-4 0 -6 2 -6 6v39c0 4 2 6 6 6zM282.77 651.02h27c4 0 6 -2 6 -6v-39c0 -4 -2 -6 -6 -6h-27c-4 0 -6 2 -6 6v39c0 4 2 6 6 6zM94 500h15c3 0 5 -2 5 -5v-490c0 -3 -2 -5 -5 -5h-15c-3 0 -5 2 -5 5v490c0 3 2 5 5 5
zM288.77 500h15c3 0 5 -2 5 -5v-587.06c0 -66.2598 -43.3301 -87.9395 -82.2002 -87.9395h-6c-12 0 -38 4 -58 13c-5 2 -6 5 -6 9v10c0 4 3 7 7 5c23 -10 41 -13 58 -13h4c25.8701 0 58.2002 13.6797 58.2002 62.9395v588.06c0 3 2 5 5 5z" />
    <glyph glyph-name="imacron" unicode="&#x12b;" horiz-adv-x="187" 
d="M-35.5 624.02h249c3 0 5 -2 5 -5v-14c0 -3 -2 -5 -5 -5h-249c-3 0 -5 2 -5 5v14c0 3 2 5 5 5zM87 500h15c3 0 5 -2 5 -5v-490c0 -3 -2 -5 -5 -5h-15c-3 0 -5 2 -5 5v490c0 3 2 5 5 5z" />
    <glyph glyph-name="iogonek" unicode="&#x12f;" horiz-adv-x="187" 
d="M77.6699 651.02h33c4 0 6 -2 6 -6v-39c0 -4 -2 -6 -6 -6h-33c-4 0 -6 2 -6 6v39c0 4 2 6 6 6zM87 500l15 0.000976562c3 0 5 -2 5 -5v-490c0 -3 -2 -5 -5 -5c-59 -47 -104 -86 -104 -136c0 -38 26 -54 62 -54c13 0 23 2 35 5c4 1 7 -1 7 -6v-8c0 -6 -1 -9 -8 -11
c-9 -3 -23 -5 -36 -5c-47 0 -84 27 -84 80c0 45.5996 28.5 79.4092 108 142.069v487.93c0 3 2 5 5 5z" />
    <glyph glyph-name="j" unicode="j" horiz-adv-x="269" 
d="M156.19 651.02h27c4 0 6 -2 6 -6v-39c0 -4 -2 -6 -6 -6h-27c-4 0 -6 2 -6 6v39c0 4 2 6 6 6zM162.19 500h15c3 0 5 -2 5 -5v-587.06c0 -66.25 -43.3301 -87.9404 -82.2002 -87.9404h-6c-12 0 -38 4 -58 13c-5 2 -6 5 -6 9v10c0 4 3 7 7 5c23 -10 41 -13 58 -13h4
c25.8701 0 58.2002 13.6904 58.2002 62.9404v588.06c0 3 2 5 5 5z" />
    <glyph glyph-name="k" unicode="k" horiz-adv-x="461" 
d="M242 258l188 -249c3 -4 1 -9 -4 -9h-16c-3 0 -6 1 -8 4l-182.93 242h-112.07v-241c0 -3 -2 -5 -5 -5h-15c-3 0 -5 2 -5 5v727c0 3 2 5 5 5h15c3 0 5 -2 5 -5v-462h112.62l162.38 226c2 2 5 4 8 4h15c5 0 7 -5 4 -9z" />
    <glyph glyph-name="kcommaaccent" unicode="&#x137;" horiz-adv-x="461" 
d="M242 258l188 -249c3 -4 1 -9 -4 -9h-16c-3 0 -6 1 -8 4l-182.93 242h-112.07v-241c0 -3 -2 -5 -5 -5h-15c-3 0 -5 2 -5 5v727c0 3 2 5 5 5h15c3 0 5 -2 5 -5v-462h112.62l162.38 226c2 2 5 4 8 4h15c5 0 7 -5 4 -9zM218.26 -49.9199h35c4 0 6 -2 6 -6v-34
c0 -3 0.0800781 -6.01953 -1 -10l-30 -110.44c-0.790039 -2.88965 -3 -4 -5 -4h-15c-6 0 -6.07031 5.15039 -5 9l29 104.44h-14c-4 0 -6 2 -6 6v39c0 4 2 6 6 6z" />
    <glyph glyph-name="l" unicode="l" horiz-adv-x="185" 
d="M87 737h15c3 0 5 -2 5 -5v-727c0 -3 -2 -5 -5 -5h-15c-3 0 -5 2 -5 5v727c0 3 2 5 5 5z" />
    <glyph glyph-name="lacute" unicode="&#x13a;" horiz-adv-x="185" 
d="M87.4297 830.02l71 158c2 4 4 7 11 7h11c5 0 8 -4 6 -9l-77 -157c-3 -6 -5 -7 -10 -7h-8c-4 0 -6 4 -4 8zM87 737h15c3 0 5 -2 5 -5v-727c0 -3 -2 -5 -5 -5h-15c-3 0 -5 2 -5 5v727c0 3 2 5 5 5z" />
    <glyph glyph-name="lcaron" unicode="&#x13e;" horiz-adv-x="250" 
d="M87 737h15c3 0 5 -2 5 -5v-727c0 -3 -2 -5 -5 -5h-15c-3 0 -5 2 -5 5v727c0 3 2 5 5 5zM178.61 737h35c4 0 6 -2 6 -6v-34c0 -3 0.0898438 -6.01953 -1 -10l-30 -110.44c-0.780273 -2.90039 -3 -4 -5 -4h-15c-6 0 -6.07031 5.13965 -5 9l29 104.44h-14c-4 0 -6 2 -6 6v39
c0 4 2 6 6 6z" />
    <glyph glyph-name="lcommaaccent" unicode="&#x13c;" horiz-adv-x="185" 
d="M87 737h15c3 0 5 -2 5 -5v-727c0 -3 -2 -5 -5 -5h-15c-3 0 -5 2 -5 5v727c0 3 2 5 5 5zM80.2598 -49.9199h35c4 0 6 -2 6 -6v-34c0 -3 0.0800781 -6.01953 -1 -10l-30 -110.44c-0.790039 -2.88965 -3 -4 -5 -4h-15c-6 0 -6.07031 5.15039 -5 9l29 104.44h-14
c-4 0 -6 2 -6 6v39c0 4 2 6 6 6z" />
    <glyph glyph-name="ldot" unicode="&#x140;" horiz-adv-x="247" 
d="M87 737h15c3 0 5 -2 5 -5v-727c0 -3 -2 -5 -5 -5h-15c-3 0 -5 2 -5 5v727c0 3 2 5 5 5zM178.07 314h33c4 0 6 -2 6 -6v-39c0 -4 -2 -6 -6 -6h-33c-4 0 -6 2 -6 6v39c0 4 2 6 6 6z" />
    <glyph glyph-name="lslash" unicode="&#x142;" horiz-adv-x="260" 
d="M220.41 477.64l8.40039 -12.751c2.2998 -2.16992 1.4502 -5.37988 -1.13965 -7.18945l-86.6396 -60.5195v-392.19c0 -3 -2 -5 -5 -5h-15c-3 0 -5 2 -5 5v374.73l-69.1104 -48.2695c-2.32031 -1.62012 -4.89062 -1.03027 -7.19043 1.13965l-8.40039 12.75
c-2.29004 2.16992 -1.44043 5.37988 1.14941 7.18945l83.5498 58.3701v321.1c0 3 2 5 5 5h15c3 0 5 -2 5 -5v-303.64l72.1904 50.4297c2.32031 1.62012 4.90039 1.03027 7.19043 -1.14941z" />
    <glyph glyph-name="m" unicode="m" horiz-adv-x="885" 
d="M639 513l3.99902 0.000976562c122 0 164 -69 164 -188v-320c0 -3 -2 -5 -5 -5h-15c-3 0 -5 2 -5 5v321c0 102 -31 163 -140 163h-2c-62.6797 0 -133.029 -38.3701 -190.39 -93.4902c4.38965 -21 6.38965 -44.5703 6.38965 -70.5107v-320c0 -3 -2 -5 -5 -5h-15
c-3 0 -5 2 -5 5v321c0 102 -31 163 -140 163h-2c-60.3701 0 -127.86 -35.5898 -184 -87.4697v-396.53c0 -3 -2 -5 -5 -5h-15c-3 0 -5 2 -5 5v490c0 3 2 5 5 5h15c3 0 5 -2 5 -5v-61.7998c51.6504 45.5 123.92 79.7998 183 79.7998h4
c84.2002 0 130.29 -32.8701 150.771 -92.3506c57.7002 54.5703 134.23 92.3506 196.23 92.3506z" />
    <glyph glyph-name="n" unicode="n" horiz-adv-x="539" 
d="M288 513h4c122 0 169 -69 169 -188v-320c0 -3 -2 -5 -5 -5h-15c-3 0 -5 2 -5 5v321c0 102 -36 163 -145 163h-2c-60.3701 0 -127.86 -35.5898 -184 -87.4697v-396.53c0 -3 -2 -5 -5 -5h-15c-3 0 -5 2 -5 5v490c0 3 2 5 5 5h15c3 0 5 -2 5 -5v-61.7998
c51.6504 45.5 123.92 79.7998 183 79.7998z" />
    <glyph glyph-name="nacute" unicode="&#x144;" horiz-adv-x="539" 
d="M283.61 593.02l71 158c2 4 4 7 11 7h11c5 0 8 -4 6 -9l-77 -157c-3 -6 -5 -7 -10 -7h-8c-4 0 -6 4 -4 8zM288 513h4c122 0 169 -69 169 -188v-320c0 -3 -2 -5 -5 -5h-15c-3 0 -5 2 -5 5v321c0 102 -36 163 -145 163h-2c-60.3701 0 -127.86 -35.5898 -184 -87.4697
v-396.53c0 -3 -2 -5 -5 -5h-15c-3 0 -5 2 -5 5v490c0 3 2 5 5 5h15c3 0 5 -2 5 -5v-61.7998c51.6504 45.5 123.92 79.7998 183 79.7998z" />
    <glyph glyph-name="ncaron" unicode="&#x148;" horiz-adv-x="539" 
d="M354 758.02h11c5 0 9 -4 6 -9l-87 -157c-3 -6 -5 -7 -10 -7h-8c-5 0 -7 1 -10 7l-87 157c-3 5 1 9 6 9h11c7 0 9 -3 11 -7l73 -142.39l73 142.39c2 4 4 7 11 7zM288 513h4c122 0 169 -69 169 -188v-320c0 -3 -2 -5 -5 -5h-15c-3 0 -5 2 -5 5v321c0 102 -36 163 -145 163
h-2c-60.3701 0 -127.86 -35.5898 -184 -87.4697v-396.53c0 -3 -2 -5 -5 -5h-15c-3 0 -5 2 -5 5v490c0 3 2 5 5 5h15c3 0 5 -2 5 -5v-61.7998c51.6504 45.5 123.92 79.7998 183 79.7998z" />
    <glyph glyph-name="ncommaaccent" unicode="&#x146;" horiz-adv-x="539" 
d="M288 513h4c122 0 169 -69 169 -188v-320c0 -3 -2 -5 -5 -5h-15c-3 0 -5 2 -5 5v321c0 102 -36 163 -145 163h-2c-60.3701 0 -127.86 -35.5898 -184 -87.4697v-396.53c0 -3 -2 -5 -5 -5h-15c-3 0 -5 2 -5 5v490c0 3 2 5 5 5h15c3 0 5 -2 5 -5v-61.7998
c51.6504 45.5 123.92 79.7998 183 79.7998zM257.26 -49.9199h35c4 0 6 -2 6 -6v-34c0 -3 0.0800781 -6.01953 -1 -10l-30 -110.44c-0.790039 -2.88965 -3 -4 -5 -4h-15c-6 0 -6.07031 5.15039 -5 9l29 104.44h-14c-4 0 -6 2 -6 6v39c0 4 2 6 6 6z" />
    <glyph glyph-name="eng" unicode="&#x14b;" horiz-adv-x="539" 
d="M288 513h4c122 0 169 -69 169 -188v-417.06c0 -66.2598 -43.3301 -87.9395 -82.2002 -87.9395h-6c-12 0 -38 4 -58 13c-5 2 -6 5 -6 9v10c0 4 3 7 7 5c23 -10 41 -13 58 -13h4c25.8701 0 58.2002 13.6797 58.2002 62.9395v419.06c0 102 -36 163 -145 163h-2
c-60.3701 0 -127.86 -35.5898 -184 -87.4697v-396.53c0 -3 -2 -5 -5 -5h-15c-3 0 -5 2 -5 5v490c0 3 2 5 5 5h15c3 0 5 -2 5 -5v-61.7998c51.6504 45.5 123.92 79.7998 183 79.7998z" />
    <glyph glyph-name="ntilde" unicode="&#xf1;" horiz-adv-x="539" 
d="M389.5 650.02h11c5 0 7 -2 5 -8c-8 -28 -45 -67 -86 -67h-4c-49 0 -54 47 -96 47c-26 0 -45 -19 -60 -44c-2 -4 -5 -6 -9 -6h-11c-5 0 -7 2 -5 8c8 28 45 67 86 67h4c49 0 54 -47 96 -47c26 0 45 19 60 44c2 4 5 6 9 6zM288 513h4c122 0 169 -69 169 -188v-320
c0 -3 -2 -5 -5 -5h-15c-3 0 -5 2 -5 5v321c0 102 -36 163 -145 163h-2c-60.3701 0 -127.86 -35.5898 -184 -87.4697v-396.53c0 -3 -2 -5 -5 -5h-15c-3 0 -5 2 -5 5v490c0 3 2 5 5 5h15c3 0 5 -2 5 -5v-61.7998c51.6504 45.5 123.92 79.7998 183 79.7998z" />
    <glyph glyph-name="o" unicode="o" horiz-adv-x="563" 
d="M276 513h11c118 0 206 -78 206 -226v-74c0 -148 -88 -226 -206 -226h-11c-118 0 -206 78 -206 226v74c0 148 88 226 206 226zM286 489h-9c-105 0 -182 -70 -182 -201v-76c0 -131 77 -201 182 -201h9c105 0 182 70 182 201v76c0 131 -77 201 -182 201z" />
    <glyph glyph-name="oacute" unicode="&#xf3;" horiz-adv-x="563" 
d="M274.54 593.02l71 158c2 4 4 7 11 7h11c5 0 8 -4 6 -9l-77 -157c-3 -6 -5 -7 -10 -7h-8c-4 0 -6 4 -4 8zM276 513h11c118 0 206 -78 206 -226v-74c0 -148 -88 -226 -206 -226h-11c-118 0 -206 78 -206 226v74c0 148 88 226 206 226zM286 489h-9
c-105 0 -182 -70 -182 -201v-76c0 -131 77 -201 182 -201h9c105 0 182 70 182 201v76c0 131 -77 201 -182 201z" />
    <glyph glyph-name="ocaron" unicode="&#x1d2;" horiz-adv-x="563" 
d="M366 758.02h11c5 0 9 -4 6 -9l-87 -157c-3 -6 -5 -7 -10 -7h-8c-5 0 -7 1 -10 7l-87 157c-3 5 1 9 6 9h11c7 0 9 -3 11 -7l73 -142.39l73 142.39c2 4 4 7 11 7zM276 513h11c118 0 206 -78 206 -226v-74c0 -148 -88 -226 -206 -226h-11c-118 0 -206 78 -206 226v74
c0 148 88 226 206 226zM286 489h-9c-105 0 -182 -70 -182 -201v-76c0 -131 77 -201 182 -201h9c105 0 182 70 182 201v76c0 131 -77 201 -182 201z" />
    <glyph glyph-name="ocircumflex" unicode="&#xf4;" horiz-adv-x="563" 
d="M296 751.02l87 -157c3 -5 -1 -9 -6 -9h-11c-7 0 -9 3 -11 7l-73 142.4l-73 -142.4c-2 -4 -4 -7 -11 -7h-11c-5 0 -9 4 -6 9l87 157c3 6 5 7 10 7h8c5 0 7 -1 10 -7zM276 513h11c118 0 206 -78 206 -226v-74c0 -148 -88 -226 -206 -226h-11c-118 0 -206 78 -206 226v74
c0 148 88 226 206 226zM286 489h-9c-105 0 -182 -70 -182 -201v-76c0 -131 77 -201 182 -201h9c105 0 182 70 182 201v76c0 131 -77 201 -182 201z" />
    <glyph glyph-name="odieresis" unicode="&#xf6;" horiz-adv-x="563" 
d="M198.5 651.02h33c4 0 6 -2 6 -6v-39c0 -4 -2 -6 -6 -6h-33c-4 0 -6 2 -6 6v39c0 4 2 6 6 6zM332.5 651.02h33c4 0 6 -2 6 -6v-39c0 -4 -2 -6 -6 -6h-33c-4 0 -6 2 -6 6v39c0 4 2 6 6 6zM276 513h11c118 0 206 -78 206 -226v-74c0 -148 -88 -226 -206 -226h-11
c-118 0 -206 78 -206 226v74c0 148 88 226 206 226zM286 489h-9c-105 0 -182 -70 -182 -201v-76c0 -131 77 -201 182 -201h9c105 0 182 70 182 201v76c0 131 -77 201 -182 201z" />
    <glyph glyph-name="ograve" unicode="&#xf2;" horiz-adv-x="563" 
d="M217.71 751.02l71 -158c2 -4 0 -8 -4 -8h-8c-5 0 -7 1 -10 7l-77 157c-2 5 1 9 6 9h11c7 0 9 -3 11 -7zM276 513h11c118 0 206 -78 206 -226v-74c0 -148 -88 -226 -206 -226h-11c-118 0 -206 78 -206 226v74c0 148 88 226 206 226zM286 489h-9c-105 0 -182 -70 -182 -201
v-76c0 -131 77 -201 182 -201h9c105 0 182 70 182 201v76c0 131 -77 201 -182 201z" />
    <glyph glyph-name="ohungarumlaut" unicode="&#x151;" horiz-adv-x="563" 
d="M223.58 593.02l71 158c2 4 4 7 11 7h11c5 0 8 -4 6 -9l-77 -157c-3 -6 -5 -7 -10 -7h-8c-4 0 -6 4 -4 8zM330.58 593.02l71 158c2 4 4 7 11 7h11c5 0 8 -4 6 -9l-77 -157c-3 -6 -5 -7 -10 -7h-8c-4 0 -6 4 -4 8zM276 513h11c118 0 206 -78 206 -226v-74
c0 -148 -88 -226 -206 -226h-11c-118 0 -206 78 -206 226v74c0 148 88 226 206 226zM286 489h-9c-105 0 -182 -70 -182 -201v-76c0 -131 77 -201 182 -201h9c105 0 182 70 182 201v76c0 131 -77 201 -182 201z" />
    <glyph glyph-name="omacron" unicode="&#x14d;" horiz-adv-x="563" 
d="M157.5 624.02h249c3 0 5 -2 5 -5v-14c0 -3 -2 -5 -5 -5h-249c-3 0 -5 2 -5 5v14c0 3 2 5 5 5zM276 513h11c118 0 206 -78 206 -226v-74c0 -148 -88 -226 -206 -226h-11c-118 0 -206 78 -206 226v74c0 148 88 226 206 226zM286 489h-9c-105 0 -182 -70 -182 -201v-76
c0 -131 77 -201 182 -201h9c105 0 182 70 182 201v76c0 131 -77 201 -182 201z" />
    <glyph glyph-name="oslash" unicode="&#xf8;" horiz-adv-x="563" 
d="M474 500h14.999c6 0 8.58984 -3.34961 4 -9l-43.4199 -53.5996c27.4502 -37.0195 43.4199 -87.3594 43.4199 -150.399v-74c0 -148 -88 -226 -206 -226h-11c-58.2402 0 -109.17 19 -145.82 56.0303l-29.1797 -36.0303c-2.61035 -3.2002 -5 -7 -12 -7h-15
c-6 0 -8.58984 3.34961 -4 9l43.4102 53.5996c-27.4502 37.0195 -43.4102 87.3594 -43.4102 150.399v74c0 148 88 226 206 226h11c58.2305 0 109.16 -19 145.811 -56.04l29.1904 36.04c2.59961 3.2002 5 7 12 7zM94.999 288l-0.000976562 -76
c0 -53.2998 12.7402 -96.5 34.9307 -129l286.86 354.18c-32.4004 34.1699 -78.0703 51.8203 -130.79 51.8203h-9c-105 0 -182 -70 -182 -201zM467.998 212l-0.000976562 76c0 53.2998 -12.75 96.5 -34.9404 128.99l-286.85 -354.18
c32.4004 -34.1602 78.0605 -51.8105 130.791 -51.8105h9c105 0 182 70 182 201z" />
    <glyph glyph-name="otilde" unicode="&#xf5;" horiz-adv-x="563" 
d="M401.5 650.02h11c5 0 7 -2 5 -8c-8 -28 -45 -67 -86 -67h-4c-49 0 -54 47 -96 47c-26 0 -45 -19 -60 -44c-2 -4 -5 -6 -9 -6h-11c-5 0 -7 2 -5 8c8 28 45 67 86 67h4c49 0 54 -47 96 -47c26 0 45 19 60 44c2 4 5 6 9 6zM276 513h11c118 0 206 -78 206 -226v-74
c0 -148 -88 -226 -206 -226h-11c-118 0 -206 78 -206 226v74c0 148 88 226 206 226zM286 489h-9c-105 0 -182 -70 -182 -201v-76c0 -131 77 -201 182 -201h9c105 0 182 70 182 201v76c0 131 -77 201 -182 201z" />
    <glyph glyph-name="oe" unicode="&#x153;" horiz-adv-x="932" 
d="M668 513h11.001c121 0 185 -78 185 -226v-27c0 -3 -2 -5 -5 -5h-366v-62c0 -114 82 -182 191 -182h4c54 0 109 18 156 43c2 1 5 0 5 -3v-13c0 -5 -2 -8 -6 -10c-40 -22 -104 -41 -154 -41h-6c-96.9502 0 -175.59 48 -203.79 133.45
c-29.1699 -87.7695 -101.91 -133.449 -192.21 -133.449h-11c-118 0 -206 78 -206 226v74c0 148 88 226 206 226h11c92.9902 0 167.34 -48.4404 194.689 -141.391c28.2998 89.8496 98.04 141.39 186.31 141.39zM286.001 489h-9c-105 0 -182 -70 -182 -201v-76
c0 -131 77 -201 182 -201h9c105 0 182 70 182 201v76c0 131 -77 201 -182 201zM678.001 489h-9c-102.47 0 -175.25 -80.1797 -175.99 -210h345.99c0 144 -55 210 -161 210z" />
    <glyph glyph-name="p" unicode="p" horiz-adv-x="549" 
d="M282 513h4c122 0 193 -78 193 -226v-74c0 -148 -71 -226 -193 -226h-4c-53 0 -123 26 -175 87v-236c0 -3 -2 -5 -5 -5h-15c-3 0 -5 2 -5 5v657c0 3 2 5 5 5h15c3 0 5 -2 5 -5v-69c52 61 122 87 175 87zM285 489h-2c-58 0 -118 -28 -176 -97v-284c58 -69 118 -97 176 -97
h2c109 0 169 70 169 201v76c0 131 -60 201 -169 201z" />
    <glyph glyph-name="thorn" unicode="&#xfe;" horiz-adv-x="549" 
d="M282 513h4c122 0 193 -78 193 -226v-74c0 -148 -71 -226 -193 -226h-4c-53 0 -123 26 -175 87v-236c0 -3 -2 -5 -5 -5h-15c-3 0 -5 2 -5 5v894c0 3 2 5 5 5h15c3 0 5 -2 5 -5v-306c52 61 122 87 175 87zM454 212v76c0 131 -60 201 -169 201h-2c-58 0 -118 -28 -176 -97
v-284c58 -69 118 -97 176 -97h2c109 0 169 70 169 201z" />
    <glyph glyph-name="q" unicode="q" horiz-adv-x="542" 
d="M263 513h6c62 0 147 -31 187 -55c4 -3 6 -7 6 -11v-609c0 -3 -2 -5 -5 -5h-15c-3 0 -5 2 -5 5v236c-52 -61 -122 -87 -175 -87h-4c-122 0 -188 78 -188 226v74c0 148 76 226 193 226zM268 489h-4c-104 0 -169 -70 -169 -201v-76c0 -131 55 -201 164 -201h2
c58 0 118 28 176 97v330c-46 27 -110 51 -169 51z" />
    <glyph glyph-name="r" unicode="r" horiz-adv-x="348" 
d="M277 513h4c9 0 24 -1 30 -2s7 -4 7 -9v-11c0 -4 -3 -5 -9 -4s-19 2 -29 2h-2c-57.1797 0 -112.54 -33.5996 -173 -107.72v-376.28c0 -3 -2 -5 -5 -5h-15c-3 0 -5 2 -5 5v490c0 3 2 5 5 5h15c3 0 5 -2 5 -5v-77.7998c53.0098 63.5801 114.29 95.7998 172 95.7998z" />
    <glyph glyph-name="racute" unicode="&#x155;" horiz-adv-x="348" 
d="M186.63 593.02l71 158c2 4 4 7 11 7h11c5 0 8 -4 6 -9l-77 -157c-3 -6 -5 -7 -10 -7h-8c-4 0 -6 4 -4 8zM277 513h4c9 0 24 -1 30 -2s7 -4 7 -9v-11c0 -4 -3 -5 -9 -4s-19 2 -29 2h-2c-57.1797 0 -112.54 -33.5996 -173 -107.72v-376.28c0 -3 -2 -5 -5 -5h-15
c-3 0 -5 2 -5 5v490c0 3 2 5 5 5h15c3 0 5 -2 5 -5v-77.7998c53.0098 63.5801 114.29 95.7998 172 95.7998z" />
    <glyph glyph-name="rcaron" unicode="&#x159;" horiz-adv-x="348" 
d="M258 758.02h11c5 0 9 -4 6 -9l-87 -157c-3 -6 -5 -7 -10 -7h-8c-5 0 -7 1 -10 7l-87 157c-3 5 1 9 6 9h11c7 0 9 -3 11 -7l73 -142.39l73 142.39c2 4 4 7 11 7zM277 513h4c9 0 24 -1 30 -2s7 -4 7 -9v-11c0 -4 -3 -5 -9 -4s-19 2 -29 2h-2
c-57.1797 0 -112.54 -33.5996 -173 -107.72v-376.28c0 -3 -2 -5 -5 -5h-15c-3 0 -5 2 -5 5v490c0 3 2 5 5 5h15c3 0 5 -2 5 -5v-77.7998c53.0098 63.5801 114.29 95.7998 172 95.7998z" />
    <glyph glyph-name="rcommaaccent" unicode="&#x157;" horiz-adv-x="348" 
d="M277 513h4c9 0 24 -1 30 -2s7 -4 7 -9v-11c0 -4 -3 -5 -9 -4s-19 2 -29 2h-2c-57.1797 0 -112.54 -33.5996 -173 -107.72v-376.28c0 -3 -2 -5 -5 -5h-15c-3 0 -5 2 -5 5v490c0 3 2 5 5 5h15c3 0 5 -2 5 -5v-77.7998c53.0098 63.5801 114.29 95.7998 172 95.7998z
M86 -49.9102h35c4 0 6 -2 6 -6v-34c0 -3 0.0800781 -6.01953 -1 -10l-30 -110.44c-0.790039 -2.90039 -3 -4 -5 -4h-15c-6 0 -6.07031 5.13965 -5 9l29 104.44h-14c-4 0 -6 2 -6 6v39c0 4 2 6 6 6z" />
    <glyph glyph-name="s" unicode="s" horiz-adv-x="423" 
d="M204 513h11c44 0 105 -19 140 -41c4 -2 6 -5 6 -10v-13c0 -3 -3 -4 -5 -3c-42 25 -94 43 -142 43h-9c-71 0 -135 -36 -135 -102v-7c0 -67 71 -85 132 -105l24 -8c88 -29 152 -54 152 -140v-5c0 -90 -77 -135 -161 -135h-11c-47 0 -114 19 -149 41c-4 2 -6 5 -6 10v13
c0 3 3 4 5 3c42 -25 100 -43 151 -43h9c71 0 137 37 137 110v7c0 71 -63 92 -123 112l-24 8c-75 25 -161 47 -161 131v7c0 83 75 127 159 127z" />
    <glyph glyph-name="sacute" unicode="&#x15b;" horiz-adv-x="423" 
d="M198.49 593.02l71 158c2 4 4 7 11 7h11c5 0 8 -4 6 -9l-77 -157c-3 -6 -5 -7 -10 -7h-8c-4 0 -6 4 -4 8zM204 513h11c44 0 105 -19 140 -41c4 -2 6 -5 6 -10v-13c0 -3 -3 -4 -5 -3c-42 25 -94 43 -142 43h-9c-71 0 -135 -36 -135 -102v-7c0 -67 71 -85 132 -105l24 -8
c88 -29 152 -54 152 -140v-5c0 -90 -77 -135 -161 -135h-11c-47 0 -114 19 -149 41c-4 2 -6 5 -6 10v13c0 3 3 4 5 3c42 -25 100 -43 151 -43h9c71 0 137 37 137 110v7c0 71 -63 92 -123 112l-24 8c-75 25 -161 47 -161 131v7c0 83 75 127 159 127z" />
    <glyph glyph-name="scaron" unicode="&#x161;" horiz-adv-x="423" 
d="M296 758.02h11c5 0 9 -4 6 -9l-87 -157c-3 -6 -5 -7 -10 -7h-8c-5 0 -7 1 -10 7l-87 157c-3 5 1 9 6 9h11c7 0 9 -3 11 -7l73 -142.39l73 142.39c2 4 4 7 11 7zM204 513h11c44 0 105 -19 140 -41c4 -2 6 -5 6 -10v-13c0 -3 -3 -4 -5 -3c-42 25 -94 43 -142 43h-9
c-71 0 -135 -36 -135 -102v-7c0 -67 71 -85 132 -105l24 -8c88 -29 152 -54 152 -140v-5c0 -90 -77 -135 -161 -135h-11c-47 0 -114 19 -149 41c-4 2 -6 5 -6 10v13c0 3 3 4 5 3c42 -25 100 -43 151 -43h9c71 0 137 37 137 110v7c0 71 -63 92 -123 112l-24 8
c-75 25 -161 47 -161 131v7c0 83 75 127 159 127z" />
    <glyph glyph-name="scedilla" unicode="&#x15f;" horiz-adv-x="423" 
d="M202 275l24.001 -8c88 -29 152 -54 152 -140v-5c0 -90 -77 -135 -161 -135h-11c-7.53027 0 -15.5703 0.490234 -23.9102 1.40039l-9.08984 -55.4004c10 3 25 6 40 6c48 0 80 -28 80 -74c0 -53 -41 -80 -94 -80c-25 0 -51 6 -60 9c-7 2 -8 5 -8 11v8c0 5 3 7 7 6
c12 -3 34 -9 59 -9c42 0 72 16 72 54c0 34 -24 50 -56 50c-16 0 -32 -5 -43 -7c-5 -1 -9 -2 -13 2l-3 3c-3 3 -6 6 -5 10l11.5898 69.54c-38.29 6.91016 -78.9004 20.9404 -103.591 36.46c-4 2 -6 5 -6 10v13c0 3 3 4 5 3c42 -25 100 -43 151 -43h9c71 0 137 37 137 110v7
c0 71 -63 92 -123 112l-24 8c-75 25 -161 47 -161 131v7c0 83 75 127 159 127h11c44 0 105 -19 140 -41c4 -2 6 -5 6 -10v-13c0 -3 -3 -4 -5 -3c-42 25 -94 43 -142 43h-9c-71 0 -135 -36 -135 -102v-7c0 -67 71 -85 132 -105z" />
    <glyph glyph-name="scommaaccent" unicode="&#x219;" horiz-adv-x="423" 
d="M204 513h11c44 0 105 -19 140 -41c4 -2 6 -5 6 -10v-13c0 -3 -3 -4 -5 -3c-42 25 -94 43 -142 43h-9c-71 0 -135 -36 -135 -102v-7c0 -67 71 -85 132 -105l24 -8c88 -29 152 -54 152 -140v-5c0 -90 -77 -135 -161 -135h-11c-47 0 -114 19 -149 41c-4 2 -6 5 -6 10v13
c0 3 3 4 5 3c42 -25 100 -43 151 -43h9c71 0 137 37 137 110v7c0 71 -63 92 -123 112l-24 8c-75 25 -161 47 -161 131v7c0 83 75 127 159 127zM199.26 -49.9199h35c4 0 6 -2 6 -6v-34c0 -3 0.0800781 -6.01953 -1 -10l-30 -110.44c-0.790039 -2.88965 -3 -4 -5 -4h-15
c-6 0 -6.07031 5.15039 -5 9l29 104.44h-14c-4 0 -6 2 -6 6v39c0 4 2 6 6 6z" />
    <glyph glyph-name="germandbls" unicode="&#xdf;" horiz-adv-x="526" 
d="M206 750h6c64 0 124 -38.7803 124 -125v-7c0 -122.3 -163.26 -141.38 -163.26 -231v-7c0 -67 71 -85 132 -105l24 -8c88 -29 152 -54 152 -140v-5c0 -90 -77 -135 -161 -135h-11c-47 0 -114 19 -149 41c-4 2 -6 5 -6 10v13c0 3 3 4 5 3c42 -25 100 -43 151 -43h9
c71 0 137 37 137 110v7c0 71 -63 92 -123 112l-24 8c-75 25 -161 47 -161 131v7c0 104.62 163.26 127.7 163.26 233v7c0 69.2197 -49 100 -100 100h-4c-51 0 -100 -32 -100 -111v-610c0 -3 -2 -5 -5 -5h-15c-3 0 -5 2 -5 5v609c0 96 60 136 124 136z" />
    <glyph glyph-name="t" unicode="t" horiz-adv-x="318" 
d="M106 611l13 3c4 1 8 0 8 -5v-109h156c3 0 5 -2 5 -5v-14c0 -3 -2 -5 -5 -5h-156v-377c0 -59 21 -88 78 -88h4c26 0 49 7 72 17c4 2 7 -1 7 -5v-10c0 -4 -1 -7 -6 -9c-20 -9 -51 -17 -72 -17h-6c-70 0 -102 37 -102 113v376h-67c-3 0 -5 2 -5 5v14c0 3 2 5 5 5h67v103
c0 4 0 7 4 8z" />
    <glyph glyph-name="tbar" unicode="&#x167;" horiz-adv-x="318" 
d="M127 476v-134.18h156c3 0 5 -2 5 -5v-14c0 -3 -2 -5 -5 -5h-156v-218.82c0 -59 21 -88 78 -88h4c26 0 49 7 72 17c4 2 7 -1 7 -5v-10c0 -4 -1 -7 -6 -9c-20 -9 -51 -17 -72 -17h-6c-70 0 -102 37 -102 113v217.82h-67c-3 0 -5 2 -5 5v14c0 3 2 5 5 5h67v134.18h-67
c-3 0 -5 2 -5 5v14c0 3 2 5 5 5h67v103c0 4 0 7 4 8l13 3c4 1 8 0 8 -5v-109h156c3 0 5 -2 5 -5v-14c0 -3 -2 -5 -5 -5h-156z" />
    <glyph glyph-name="tcaron" unicode="&#x165;" horiz-adv-x="396" 
d="M324.55 737h35c4 0 6 -2 6 -6v-34c0 -3 0.0800781 -6.01953 -1 -10l-30 -110.44c-0.790039 -2.90039 -3 -4 -5 -4h-15c-6 0 -6.07031 5.13965 -5 9l29 104.44h-14c-4 0 -6 2 -6 6v39c0 4 2 6 6 6zM106 611l13 3c4 1 8 0 8 -5v-109h156c3 0 5 -2 5 -5v-14
c0 -3 -2 -5 -5 -5h-156v-377c0 -59 21 -88 78 -88h4c26 0 49 7 72 17c4 2 7 -1 7 -5v-10c0 -4 -1 -7 -6 -9c-20 -9 -51 -17 -72 -17h-6c-70 0 -102 37 -102 113v376h-67c-3 0 -5 2 -5 5v14c0 3 2 5 5 5h67v103c0 4 0 7 4 8z" />
    <glyph glyph-name="tcedilla" unicode="&#x163;" horiz-adv-x="318" 
d="M127 476l-0.00976562 -377.001c0 -59 21 -88 78 -88h4c26 0 49 7 72 17c4 2 7 -1 7 -5v-10c0 -4 -1 -7 -6 -9c-20 -9 -51 -17 -72 -17h-6c-12.7803 0 -24.2998 1.23047 -34.5898 3.71094l-9.46973 -57.71c10 3 25 6 40 6c48 0 80 -28 80 -74c0 -53 -41 -80 -94 -80
c-25 0 -51 6 -60 9c-7 2 -8 5 -8 11v8c0 5 3 7 7 6c12 -3 34 -9 59 -9c42 0 72 16 72 54c0 34 -24 50 -56 50c-16 0 -32 -5 -43 -7c-5 -1 -9 -2 -13 2l-3 3c-3 3 -6 6 -5 10l12.71 76.2402c-31.7305 16.1699 -46.6406 49.8799 -46.6406 101.76v376h-67c-3 0 -5 2 -5 5v14
c0 3 2 5 5 5h67v103c0 4 0 7 4 8l13 3c4 1 8 0 8 -5v-109h156c3 0 5 -2 5 -5v-14c0 -3 -2 -5 -5 -5h-156z" />
    <glyph glyph-name="uni021B" unicode="&#x21b;" horiz-adv-x="318" 
d="M106 611l13 3c4 1 8 0 8 -5v-109h156c3 0 5 -2 5 -5v-14c0 -3 -2 -5 -5 -5h-156v-377c0 -59 21 -88 78 -88h4c26 0 49 7 72 17c4 2 7 -1 7 -5v-10c0 -4 -1 -7 -6 -9c-20 -9 -51 -17 -72 -17h-6c-70 0 -102 37 -102 113v376h-67c-3 0 -5 2 -5 5v14c0 3 2 5 5 5h67v103
c0 4 0 7 4 8zM190.78 -49.9199h35c4 0 6 -2 6 -6v-34c0 -3 0.0898438 -6.01953 -1 -10l-30 -110.44c-0.780273 -2.88965 -3 -4 -5 -4h-15c-6 0 -6.07031 5.15039 -5 9l29 104.44h-14c-4 0 -6 2 -6 6v39c0 4 2 6 6 6z" />
    <glyph glyph-name="u" unicode="u" 
d="M431 500h15c3 0 5 -2 5 -5v-490c0 -3 -2 -5 -5 -5h-15c-3 0 -5 2 -5 5v61.7998c-51.6504 -45.5098 -123.92 -79.7998 -183 -79.7998h-4c-119 0 -161 69 -161 188v320c0 3 2 5 5 5h15c3 0 5 -2 5 -5v-321c0 -102 31 -163 137 -163h2c60.3701 0 127.86 35.5898 184 87.4697
v396.53c0 3 2 5 5 5z" />
    <glyph glyph-name="uacute" unicode="&#xfa;" 
d="M258.82 593.02l71 158c2 4 4 7 11 7h11c5 0 8 -4 6 -9l-77 -157c-3 -6 -5 -7 -10 -7h-8c-4 0 -6 4 -4 8zM431 500h15c3 0 5 -2 5 -5v-490c0 -3 -2 -5 -5 -5h-15c-3 0 -5 2 -5 5v61.7998c-51.6504 -45.5098 -123.92 -79.7998 -183 -79.7998h-4c-119 0 -161 69 -161 188
v320c0 3 2 5 5 5h15c3 0 5 -2 5 -5v-321c0 -102 31 -163 137 -163h2c60.3701 0 127.86 35.5898 184 87.4697v396.53c0 3 2 5 5 5z" />
    <glyph glyph-name="ucaron" unicode="&#x1d4;" 
d="M349 758.02h11c5 0 9 -4 6 -9l-87 -157c-3 -6 -5 -7 -10 -7h-8c-5 0 -7 1 -10 7l-87 157c-3 5 1 9 6 9h11c7 0 9 -3 11 -7l73 -142.39l73 142.39c2 4 4 7 11 7zM431 500h15c3 0 5 -2 5 -5v-490c0 -3 -2 -5 -5 -5h-15c-3 0 -5 2 -5 5v61.7998
c-51.6504 -45.5098 -123.92 -79.7998 -183 -79.7998h-4c-119 0 -161 69 -161 188v320c0 3 2 5 5 5h15c3 0 5 -2 5 -5v-321c0 -102 31 -163 137 -163h2c60.3701 0 127.86 35.5898 184 87.4697v396.53c0 3 2 5 5 5z" />
    <glyph glyph-name="ucircumflex" unicode="&#xfb;" 
d="M279 751.02l87 -157c3 -5 -1 -9 -6 -9h-11c-7 0 -9 3 -11 7l-73 142.4l-73 -142.4c-2 -4 -4 -7 -11 -7h-11c-5 0 -9 4 -6 9l87 157c3 6 5 7 10 7h8c5 0 7 -1 10 -7zM431 500h15c3 0 5 -2 5 -5v-490c0 -3 -2 -5 -5 -5h-15c-3 0 -5 2 -5 5v61.7998
c-51.6504 -45.5098 -123.92 -79.7998 -183 -79.7998h-4c-119 0 -161 69 -161 188v320c0 3 2 5 5 5h15c3 0 5 -2 5 -5v-321c0 -102 31 -163 137 -163h2c60.3701 0 127.86 35.5898 184 87.4697v396.53c0 3 2 5 5 5z" />
    <glyph glyph-name="udieresis" unicode="&#xfc;" 
d="M181.5 651.02h33c4 0 6 -2 6 -6v-39c0 -4 -2 -6 -6 -6h-33c-4 0 -6 2 -6 6v39c0 4 2 6 6 6zM315.5 651.02h33c4 0 6 -2 6 -6v-39c0 -4 -2 -6 -6 -6h-33c-4 0 -6 2 -6 6v39c0 4 2 6 6 6zM431 500h15c3 0 5 -2 5 -5v-490c0 -3 -2 -5 -5 -5h-15c-3 0 -5 2 -5 5v61.7998
c-51.6504 -45.5098 -123.92 -79.7998 -183 -79.7998h-4c-119 0 -161 69 -161 188v320c0 3 2 5 5 5h15c3 0 5 -2 5 -5v-321c0 -102 31 -163 137 -163h2c60.3701 0 127.86 35.5898 184 87.4697v396.53c0 3 2 5 5 5z" />
    <glyph glyph-name="udieresisacute" unicode="&#x1d8;" 
d="M258.77 719l71 158c2 4 4 7 11 7h11c5 0 8 -4 6 -9l-77 -157c-3 -6 -5 -7 -10 -7h-8c-4 0 -6 4 -4 8zM181.5 651.02h33c4 0 6 -2 6 -6v-39c0 -4 -2 -6 -6 -6h-33c-4 0 -6 2 -6 6v39c0 4 2 6 6 6zM315.5 651.02h33c4 0 6 -2 6 -6v-39c0 -4 -2 -6 -6 -6h-33c-4 0 -6 2 -6 6
v39c0 4 2 6 6 6zM431 499.989h15c3 0 5 -2 5 -5v-490c0 -3 -2 -5 -5 -5h-15c-3 0 -5 2 -5 5v61.7998c-51.6504 -45.5 -123.92 -79.7998 -183 -79.7998h-4c-119 0 -161 69 -161 188v320c0 3 2 5 5 5h15c3 0 5 -2 5 -5v-321c0 -102 31 -163 137 -163h2
c60.3701 0 127.86 35.5898 184 87.4697v396.53c0 3 2 5 5 5z" />
    <glyph glyph-name="udieresiscaron" unicode="&#x1da;" 
d="M349 884h11c5 0 9 -4 6 -9l-87 -157c-3 -6 -5 -7 -10 -7h-8c-5 0 -7 1 -10 7l-87 157c-3 5 1 9 6 9h11c7 0 9 -3 11 -7l73 -142.39l73 142.39c2 4 4 7 11 7zM181.5 651.02h33c4 0 6 -2 6 -6v-39c0 -4 -2 -6 -6 -6h-33c-4 0 -6 2 -6 6v39c0 4 2 6 6 6zM315.5 651.02h33
c4 0 6 -2 6 -6v-39c0 -4 -2 -6 -6 -6h-33c-4 0 -6 2 -6 6v39c0 4 2 6 6 6zM431 499.989h15c3 0 5 -2 5 -5v-490c0 -3 -2 -5 -5 -5h-15c-3 0 -5 2 -5 5v61.7998c-51.6504 -45.5 -123.92 -79.7998 -183 -79.7998h-4c-119 0 -161 69 -161 188v320c0 3 2 5 5 5h15c3 0 5 -2 5 -5
v-321c0 -102 31 -163 137 -163h2c60.3701 0 127.86 35.5898 184 87.4697v396.53c0 3 2 5 5 5z" />
    <glyph glyph-name="udieresisgrave" unicode="&#x1dc;" 
d="M202.58 877l71 -158c2 -4 0 -8 -4 -8h-8c-5 0 -7 1 -10 7l-77 157c-2 5 1 9 6 9h11c7 0 9 -3 11 -7zM181.5 651.02h33c4 0 6 -2 6 -6v-39c0 -4 -2 -6 -6 -6h-33c-4 0 -6 2 -6 6v39c0 4 2 6 6 6zM315.5 651.02h33c4 0 6 -2 6 -6v-39c0 -4 -2 -6 -6 -6h-33c-4 0 -6 2 -6 6
v39c0 4 2 6 6 6zM431 499.989h15c3 0 5 -2 5 -5v-490c0 -3 -2 -5 -5 -5h-15c-3 0 -5 2 -5 5v61.7998c-51.6504 -45.5 -123.92 -79.7998 -183 -79.7998h-4c-119 0 -161 69 -161 188v320c0 3 2 5 5 5h15c3 0 5 -2 5 -5v-321c0 -102 31 -163 137 -163h2
c60.3701 0 127.86 35.5898 184 87.4697v396.53c0 3 2 5 5 5z" />
    <glyph glyph-name="udieresismacron" unicode="&#x1d6;" 
d="M140.5 750h249c3 0 5 -2 5 -5v-14c0 -3 -2 -5 -5 -5h-249c-3 0 -5 2 -5 5v14c0 3 2 5 5 5zM181.5 651.02h33c4 0 6 -2 6 -6v-39c0 -4 -2 -6 -6 -6h-33c-4 0 -6 2 -6 6v39c0 4 2 6 6 6zM315.5 651.02h33c4 0 6 -2 6 -6v-39c0 -4 -2 -6 -6 -6h-33c-4 0 -6 2 -6 6v39
c0 4 2 6 6 6zM431 499.989h15c3 0 5 -2 5 -5v-490c0 -3 -2 -5 -5 -5h-15c-3 0 -5 2 -5 5v61.7998c-51.6504 -45.5 -123.92 -79.7998 -183 -79.7998h-4c-119 0 -161 69 -161 188v320c0 3 2 5 5 5h15c3 0 5 -2 5 -5v-321c0 -102 31 -163 137 -163h2
c60.3701 0 127.86 35.5898 184 87.4697v396.53c0 3 2 5 5 5z" />
    <glyph glyph-name="ugrave" unicode="&#xf9;" 
d="M203.62 751.02l71 -158c2 -4 0 -8 -4 -8h-8c-5 0 -7 1 -10 7l-77 157c-2 5 1 9 6 9h11c7 0 9 -3 11 -7zM431 500h15c3 0 5 -2 5 -5v-490c0 -3 -2 -5 -5 -5h-15c-3 0 -5 2 -5 5v61.7998c-51.6504 -45.5098 -123.92 -79.7998 -183 -79.7998h-4c-119 0 -161 69 -161 188v320
c0 3 2 5 5 5h15c3 0 5 -2 5 -5v-321c0 -102 31 -163 137 -163h2c60.3701 0 127.86 35.5898 184 87.4697v396.53c0 3 2 5 5 5z" />
    <glyph glyph-name="uhungarumlaut" unicode="&#x171;" 
d="M201.33 593.02l71 158c2 4 4 7 11 7h11c5 0 8 -4 6 -9l-77 -157c-3 -6 -5 -7 -10 -7h-8c-4 0 -6 4 -4 8zM308.33 593.02l71 158c2 4 4 7 11 7h11c5 0 8 -4 6 -9l-77 -157c-3 -6 -5 -7 -10 -7h-8c-4 0 -6 4 -4 8zM431 500h15c3 0 5 -2 5 -5v-490c0 -3 -2 -5 -5 -5h-15
c-3 0 -5 2 -5 5v61.7998c-51.6504 -45.5098 -123.92 -79.7998 -183 -79.7998h-4c-119 0 -161 69 -161 188v320c0 3 2 5 5 5h15c3 0 5 -2 5 -5v-321c0 -102 31 -163 137 -163h2c60.3701 0 127.86 35.5898 184 87.4697v396.53c0 3 2 5 5 5z" />
    <glyph glyph-name="umacron" unicode="&#x16b;" 
d="M140.5 624.02h249c3 0 5 -2 5 -5v-14c0 -3 -2 -5 -5 -5h-249c-3 0 -5 2 -5 5v14c0 3 2 5 5 5zM431 500h15c3 0 5 -2 5 -5v-490c0 -3 -2 -5 -5 -5h-15c-3 0 -5 2 -5 5v61.7998c-51.6504 -45.5098 -123.92 -79.7998 -183 -79.7998h-4c-119 0 -161 69 -161 188v320
c0 3 2 5 5 5h15c3 0 5 -2 5 -5v-321c0 -102 31 -163 137 -163h2c60.3701 0 127.86 35.5898 184 87.4697v396.53c0 3 2 5 5 5z" />
    <glyph glyph-name="uogonek" unicode="&#x173;" 
d="M431 500h15c3 0 5 -2 5 -5v-490c0 -3 -2 -5 -5 -5c-59 -47 -104 -86 -104 -136c0 -38 26 -54 62 -54c13 0 23 2 35 5c4 1 7 -1 7 -6v-8c0 -6 -1 -9 -8 -11c-9 -3 -23 -5 -36 -5c-47 0 -84 27 -84 80c0 45.3799 28.2305 79.0898 108 142.06v59.7402
c-51.6504 -45.5098 -123.92 -79.7998 -183 -79.7998h-4c-119 0 -161 69 -161 188v320c0 3 2 5 5 5h15c3 0 5 -2 5 -5v-321c0 -102 31 -163 137 -163h2c60.3701 0 127.86 35.5898 184 87.4697v396.53c0 3 2 5 5 5z" />
    <glyph glyph-name="uring" unicode="&#x16f;" 
d="M265 718.02c41 0 73 -32 73 -71c0 -40 -33 -72 -73 -72c-42 0 -73 33 -73 72c0 38 31 71 73 71zM265 696.02c-30 0 -48 -22 -48 -48c0 -27 18 -51 48 -51s48 24 48 51c0 26 -18 48 -48 48zM431 500h15c3 0 5 -2 5 -5v-490c0 -3 -2 -5 -5 -5h-15c-3 0 -5 2 -5 5v61.7998
c-51.6504 -45.5098 -123.92 -79.7998 -183 -79.7998h-4c-119 0 -161 69 -161 188v320c0 3 2 5 5 5h15c3 0 5 -2 5 -5v-321c0 -102 31 -163 137 -163h2c60.3701 0 127.86 35.5898 184 87.4697v396.53c0 3 2 5 5 5z" />
    <glyph glyph-name="v" unicode="v" horiz-adv-x="483" 
d="M435.36 500h13.9902c3 0 4 -2 3 -5l-189 -487c-2 -5 -6 -8 -11 -8h-21c-5 0 -10 3 -11 8l-190 487c-1 3 0 5 4 5h13c5 0 9 -3 11 -8l182.64 -468h1.67969l84.6904 219l97 249c2 5 6 8 11 8z" />
    <glyph glyph-name="w" unicode="w" horiz-adv-x="729" 
d="M682.36 500h12.002c4 0 5 -2 4 -5l-149 -487c-2 -5 -6 -8 -11 -8h-21c-5 0 -9 3 -11 8l-140.95 463l-2.69043 -0.00976562l-95.3604 -314.99l-45 -148c-2 -5 -6 -8 -11 -8h-21c-5 0 -10 3 -11 8l-149 487c-1 3 0 5 4 5h12c5 0 9 -3 11 -8l143.13 -466l1.87012 0.0400391
l77 250.96l65 215c1 5 6 8 11 8h18c5 0 9 -3 11 -8l143.06 -466h1.83984l76.0996 251l66 215c2 5 6 8 11 8z" />
    <glyph glyph-name="wacute" unicode="&#x1e83;" horiz-adv-x="729" 
d="M357.34 593.02l71 158c2 4 4 7 11 7h11c5 0 8 -4 6 -9l-77 -157c-3 -6 -5 -7 -10 -7h-8c-4 0 -6 4 -4 8zM682.359 500h12.002c4 0 5 -2 4 -5l-149 -487c-2 -5 -6 -8 -11 -8h-21c-5 0 -9 3 -11 8l-140.95 463l-2.69043 -0.00976562l-95.3604 -314.99l-45 -148
c-2 -5 -6 -8 -11 -8h-21c-5 0 -10 3 -11 8l-149 487c-1 3 0 5 4 5h12c5 0 9 -3 11 -8l143.13 -466l1.87012 0.0400391l77 250.96l65 215c1 5 6 8 11 8h18c5 0 9 -3 11 -8l143.06 -466h1.83984l76.0996 251l66 215c2 5 6 8 11 8z" />
    <glyph glyph-name="wcircumflex" unicode="&#x175;" horiz-adv-x="729" 
d="M378 751.02l87 -157c3 -5 -1 -9 -6 -9h-11c-7 0 -9 3 -11 7l-73 142.4l-73 -142.4c-2 -4 -4 -7 -11 -7h-11c-5 0 -9 4 -6 9l87 157c3 6 5 7 10 7h8c5 0 7 -1 10 -7zM682.36 500h12.002c4 0 5 -2 4 -5l-149 -487c-2 -5 -6 -8 -11 -8h-21c-5 0 -9 3 -11 8l-140.95 463
l-2.69043 -0.00976562l-95.3604 -314.99l-45 -148c-2 -5 -6 -8 -11 -8h-21c-5 0 -10 3 -11 8l-149 487c-1 3 0 5 4 5h12c5 0 9 -3 11 -8l143.13 -466l1.87012 0.0400391l77 250.96l65 215c1 5 6 8 11 8h18c5 0 9 -3 11 -8l143.06 -466h1.83984l76.0996 251l66 215
c2 5 6 8 11 8z" />
    <glyph glyph-name="wdieresis" unicode="&#x1e85;" horiz-adv-x="729" 
d="M280.5 651.02h33c4 0 6 -2 6 -6v-39c0 -4 -2 -6 -6 -6h-33c-4 0 -6 2 -6 6v39c0 4 2 6 6 6zM414.5 651.02h33c4 0 6 -2 6 -6v-39c0 -4 -2 -6 -6 -6h-33c-4 0 -6 2 -6 6v39c0 4 2 6 6 6zM682.36 500h12.002c4 0 5 -2 4 -5l-149 -487c-2 -5 -6 -8 -11 -8h-21
c-5 0 -9 3 -11 8l-140.95 463l-2.69043 -0.00976562l-95.3604 -314.99l-45 -148c-2 -5 -6 -8 -11 -8h-21c-5 0 -10 3 -11 8l-149 487c-1 3 0 5 4 5h12c5 0 9 -3 11 -8l143.13 -466l1.87012 0.0400391l77 250.96l65 215c1 5 6 8 11 8h18c5 0 9 -3 11 -8l143.06 -466h1.83984
l76.0996 251l66 215c2 5 6 8 11 8z" />
    <glyph glyph-name="wgrave" unicode="&#x1e81;" horiz-adv-x="729" 
d="M297.93 751.02l71 -158c2 -4 0 -8 -4 -8h-8c-5 0 -7 1 -10 7l-77 157c-2 5 1 9 6 9h11c7 0 9 -3 11 -7zM682.359 500h12.002c4 0 5 -2 4 -5l-149 -487c-2 -5 -6 -8 -11 -8h-21c-5 0 -9 3 -11 8l-140.95 463l-2.69043 -0.00976562l-95.3604 -314.99l-45 -148
c-2 -5 -6 -8 -11 -8h-21c-5 0 -10 3 -11 8l-149 487c-1 3 0 5 4 5h12c5 0 9 -3 11 -8l143.13 -466l1.87012 0.0400391l77 250.96l65 215c1 5 6 8 11 8h18c5 0 9 -3 11 -8l143.06 -466h1.83984l76.0996 251l66 215c2 5 6 8 11 8z" />
    <glyph glyph-name="x" unicode="x" horiz-adv-x="435" 
d="M375.41 500h14.9893c5 0 7 -5 4 -9l-160 -233l169 -249c3 -4 1 -9 -4 -9h-15c-3 0 -6 1 -8 4l-157.6 231h-2.79004l-157.6 -231c-2 -3 -5 -4 -8 -4h-15c-5 0 -7 5 -4 9l169 249l-161 233c-2 4 -1 9 4 9h15c3 0 7 -2 8 -4l119 -171l30.8398 -45h2.21973l148.94 216
c2 2 5 4 8 4z" />
    <glyph glyph-name="y" unicode="y" horiz-adv-x="487" 
d="M439.36 500h14c3 0 4 -2 3 -5l-215 -549c-34 -86 -63 -126 -128 -126h-6c-12 0 -39 5 -59 14c-5 2 -6 5 -6 9v10c0 4 3 7 7 5c23 -10 42 -14 59 -14h4c44 0 72 24 102 101l21.0303 55h-3.03027c-5 0 -9 3 -11 8l-191 487c-1 3 0 5 4 5h13c5 0 9 -3 11 -8l183.58 -468
h2.83008l183.59 468c2 5 6 8 11 8z" />
    <glyph glyph-name="yacute" unicode="&#xfd;" horiz-adv-x="487" 
d="M240.92 593.02l71 158c2 4 4 7 11 7h11c5 0 8 -4 6 -9l-77 -157c-3 -6 -5 -7 -10 -7h-8c-4 0 -6 4 -4 8zM439.36 500h14c3 0 4 -2 3 -5l-215 -549c-34 -86 -63 -126 -128 -126h-6c-12 0 -39 5 -59 14c-5 2 -6 5 -6 9v10c0 4 3 7 7 5c23 -10 42 -14 59 -14h4
c44 0 72 24 102 101l21.0303 55h-3.03027c-5 0 -9 3 -11 8l-191 487c-1 3 0 5 4 5h13c5 0 9 -3 11 -8l183.59 -468h2.83008l183.58 468c2 5 6 8 11 8z" />
    <glyph glyph-name="ycircumflex" unicode="&#x177;" horiz-adv-x="487" 
d="M257 751.02l87 -157c3 -5 -1 -9 -6 -9h-11c-7 0 -9 3 -11 7l-73 142.4l-73 -142.4c-2 -4 -4 -7 -11 -7h-11c-5 0 -9 4 -6 9l87 157c3 6 5 7 10 7h8c5 0 7 -1 10 -7zM439.36 500h14c3 0 4 -2 3 -5l-215 -549c-34 -86 -63 -126 -128 -126h-6c-12 0 -39 5 -59 14
c-5 2 -6 5 -6 9v10c0 4 3 7 7 5c23 -10 42 -14 59 -14h4c44 0 72 24 102 101l21.0303 55h-3.03027c-5 0 -9 3 -11 8l-191 487c-1 3 0 5 4 5h13c5 0 9 -3 11 -8l183.58 -468h2.83008l183.59 468c2 5 6 8 11 8z" />
    <glyph glyph-name="ydieresis" unicode="&#xff;" horiz-adv-x="487" 
d="M159.5 651.02h33c4 0 6 -2 6 -6v-39c0 -4 -2 -6 -6 -6h-33c-4 0 -6 2 -6 6v39c0 4 2 6 6 6zM293.5 651.02h33c4 0 6 -2 6 -6v-39c0 -4 -2 -6 -6 -6h-33c-4 0 -6 2 -6 6v39c0 4 2 6 6 6zM439.36 500h14c3 0 4 -2 3 -5l-215 -549c-34 -86 -63 -126 -128 -126h-6
c-12 0 -39 5 -59 14c-5 2 -6 5 -6 9v10c0 4 3 7 7 5c23 -10 42 -14 59 -14h4c44 0 72 24 102 101l21.0303 55h-3.03027c-5 0 -9 3 -11 8l-191 487c-1 3 0 5 4 5h13c5 0 9 -3 11 -8l183.58 -468h2.83008l183.59 468c2 5 6 8 11 8z" />
    <glyph glyph-name="ygrave" unicode="&#x1ef3;" horiz-adv-x="487" 
d="M184.74 751.02l71 -158c2 -4 0 -8 -4 -8h-8c-5 0 -7 1 -10 7l-77 157c-2 5 1 9 6 9h11c7 0 9 -3 11 -7zM439.36 500h14c3 0 4 -2 3 -5l-215 -549c-34 -86 -63 -126 -128 -126h-6c-12 0 -39 5 -59 14c-5 2 -6 5 -6 9v10c0 4 3 7 7 5c23 -10 42 -14 59 -14h4
c44 0 72 24 102 101l21.0303 55h-3.03027c-5 0 -9 3 -11 8l-191 487c-1 3 0 5 4 5h13c5 0 9 -3 11 -8l183.58 -468h2.83008l183.59 468c2 5 6 8 11 8z" />
    <glyph glyph-name="z" unicode="z" horiz-adv-x="439" 
d="M71 24h323c3 0 5 -2 5 -5v-14c0 -3 -2 -5 -5 -5h-349c-3 0 -5 2 -5 5v13c0 4 1 7 4 11l319 447h-303c-3 0 -5 2 -5 5v14c0 3 2 5 5 5h329c3 0 5 -2 5 -5v-13c0 -4 -1 -7 -4 -11z" />
    <glyph glyph-name="zacute" unicode="&#x17a;" horiz-adv-x="439" 
d="M213.96 593.02l71 158c2 4 4 7 11 7h11c5 0 8 -4 6 -9l-77 -157c-3 -6 -5 -7 -10 -7h-8c-4 0 -6 4 -4 8zM71 24h323c3 0 5 -2 5 -5v-14c0 -3 -2 -5 -5 -5h-349c-3 0 -5 2 -5 5v13c0 4 1 7 4 11l319 447h-303c-3 0 -5 2 -5 5v14c0 3 2 5 5 5h329c3 0 5 -2 5 -5v-13
c0 -4 -1 -7 -4 -11z" />
    <glyph glyph-name="zcaron" unicode="&#x17e;" horiz-adv-x="439" 
d="M304 758.02h11c5 0 9 -4 6 -9l-87 -157c-3 -6 -5 -7 -10 -7h-8c-5 0 -7 1 -10 7l-87 157c-3 5 1 9 6 9h11c7 0 9 -3 11 -7l73 -142.39l73 142.39c2 4 4 7 11 7zM71 24h323c3 0 5 -2 5 -5v-14c0 -3 -2 -5 -5 -5h-349c-3 0 -5 2 -5 5v13c0 4 1 7 4 11l319 447h-303
c-3 0 -5 2 -5 5v14c0 3 2 5 5 5h329c3 0 5 -2 5 -5v-13c0 -4 -1 -7 -4 -11z" />
    <glyph glyph-name="zdotaccent" unicode="&#x17c;" horiz-adv-x="439" 
d="M203.5 651.02h33c4 0 6 -2 6 -6v-39c0 -4 -2 -6 -6 -6h-33c-4 0 -6 2 -6 6v39c0 4 2 6 6 6zM71 24h323c3 0 5 -2 5 -5v-14c0 -3 -2 -5 -5 -5h-349c-3 0 -5 2 -5 5v13c0 4 1 7 4 11l319 447h-303c-3 0 -5 2 -5 5v14c0 3 2 5 5 5h329c3 0 5 -2 5 -5v-13c0 -4 -1 -7 -4 -11z
" />
    <glyph glyph-name="a.ss01" horiz-adv-x="542" 
d="M456 458c4 -3 6 -7 6 -11v-442c0 -3 -2 -5 -5 -5h-15c-3 0 -5 2 -5 5v69c-52 -61 -122 -87 -175 -87h-4c-122 0 -188 78 -188 226v74c0 148 76 226 193 226h6c62 0 147 -31 187 -55zM437 108v330c-46 27 -110 51 -169 51h-4c-104 0 -169 -70 -169 -201v-76
c0 -131 55 -201 164 -201h2c58 0 118 28 176 97z" />
    <glyph glyph-name="aacute.ss01" horiz-adv-x="542" 
d="M255.96 593.02l71 158c2 4 4 7 11 7h11c5 0 8 -4 6 -9l-77 -157c-3 -6 -5 -7 -10 -7h-8c-4 0 -6 4 -4 8zM456 458c4 -3 6 -7 6 -11v-442c0 -3 -2 -5 -5 -5h-15c-3 0 -5 2 -5 5v69c-52 -61 -122 -87 -175 -87h-4c-122 0 -188 78 -188 226v74c0 148 76 226 193 226h6
c62 0 147 -31 187 -55zM437 108v330c-46 27 -110 51 -169 51h-4c-104 0 -169 -70 -169 -201v-76c0 -131 55 -201 164 -201h2c58 0 118 28 176 97z" />
    <glyph glyph-name="abreve.ss01" horiz-adv-x="542" 
d="M393 657.02c4 3 8 0 8 -4v-12c0 -5 -2 -8 -5 -10c-19 -15 -66 -41 -125 -41s-106 26 -125 41c-3 2 -5 5 -5 10v12c0 4 4 7 8 4c26 -18 64 -43 122 -43s96 25 122 43zM456 458c4 -3 6 -7 6 -11v-442c0 -3 -2 -5 -5 -5h-15c-3 0 -5 2 -5 5v69c-52 -61 -122 -87 -175 -87h-4
c-122 0 -188 78 -188 226v74c0 148 76 226 193 226h6c62 0 147 -31 187 -55zM437 108v330c-46 27 -110 51 -169 51h-4c-104 0 -169 -70 -169 -201v-76c0 -131 55 -201 164 -201h2c58 0 118 28 176 97z" />
    <glyph glyph-name="acaron.ss01" horiz-adv-x="542" 
d="M355 758.02h11c5 0 9 -4 6 -9l-87 -157c-3 -6 -5 -7 -10 -7h-8c-5 0 -7 1 -10 7l-87 157c-3 5 1 9 6 9h11c7 0 9 -3 11 -7l73 -142.39l73 142.39c2 4 4 7 11 7zM456 458c4 -3 6 -7 6 -11v-442c0 -3 -2 -5 -5 -5h-15c-3 0 -5 2 -5 5v69c-52 -61 -122 -87 -175 -87h-4
c-122 0 -188 78 -188 226v74c0 148 76 226 193 226h6c62 0 147 -31 187 -55zM437 108v330c-46 27 -110 51 -169 51h-4c-104 0 -169 -70 -169 -201v-76c0 -131 55 -201 164 -201h2c58 0 118 28 176 97z" />
    <glyph glyph-name="acircumflex.ss01" horiz-adv-x="542" 
d="M285 751.02l87 -157c3 -5 -1 -9 -6 -9h-11c-7 0 -9 3 -11 7l-73 142.4l-73 -142.4c-2 -4 -4 -7 -11 -7h-11c-5 0 -9 4 -6 9l87 157c3 6 5 7 10 7h8c5 0 7 -1 10 -7zM456 458c4 -3 6 -7 6 -11v-442c0 -3 -2 -5 -5 -5h-15c-3 0 -5 2 -5 5v69c-52 -61 -122 -87 -175 -87h-4
c-122 0 -188 78 -188 226v74c0 148 76 226 193 226h6c62 0 147 -31 187 -55zM437 108v330c-46 27 -110 51 -169 51h-4c-104 0 -169 -70 -169 -201v-76c0 -131 55 -201 164 -201h2c58 0 118 28 176 97z" />
    <glyph glyph-name="adieresis.ss01" horiz-adv-x="542" 
d="M194.88 651.02h33c4 0 6 -2 6 -6v-39c0 -4 -2 -6 -6 -6h-33c-4 0 -6 2 -6 6v39c0 4 2 6 6 6zM328.88 651.02h33c4 0 6 -2 6 -6v-39c0 -4 -2 -6 -6 -6h-33c-4 0 -6 2 -6 6v39c0 4 2 6 6 6zM456 458c4 -3 6 -7 6 -11v-442c0 -3 -2 -5 -5 -5h-15c-3 0 -5 2 -5 5v69
c-52 -61 -122 -87 -175 -87h-4c-122 0 -188 78 -188 226v74c0 148 76 226 193 226h6c62 0 147 -31 187 -55zM437 108v330c-46 27 -110 51 -169 51h-4c-104 0 -169 -70 -169 -201v-76c0 -131 55 -201 164 -201h2c58 0 118 28 176 97z" />
    <glyph glyph-name="agrave.ss01" horiz-adv-x="542" 
d="M203.44 751.02l71 -158c2 -4 0 -8 -4 -8h-8c-5 0 -7 1 -10 7l-77 157c-2 5 1 9 6 9h11c7 0 9 -3 11 -7zM456 458c4 -3 6 -7 6 -11v-442c0 -3 -2 -5 -5 -5h-15c-3 0 -5 2 -5 5v69c-52 -61 -122 -87 -175 -87h-4c-122 0 -188 78 -188 226v74c0 148 76 226 193 226h6
c62 0 147 -31 187 -55zM437 108v330c-46 27 -110 51 -169 51h-4c-104 0 -169 -70 -169 -201v-76c0 -131 55 -201 164 -201h2c58 0 118 28 176 97z" />
    <glyph glyph-name="amacron.ss01" horiz-adv-x="542" 
d="M159.8 624.02h249c3 0 5 -2 5 -5v-14c0 -3 -2 -5 -5 -5h-249c-3 0 -5 2 -5 5v14c0 3 2 5 5 5zM456 458c4 -3 6 -7 6 -11v-442c0 -3 -2 -5 -5 -5h-15c-3 0 -5 2 -5 5v69c-52 -61 -122 -87 -175 -87h-4c-122 0 -188 78 -188 226v74c0 148 76 226 193 226h6
c62 0 147 -31 187 -55zM437 108v330c-46 27 -110 51 -169 51h-4c-104 0 -169 -70 -169 -201v-76c0 -131 55 -201 164 -201h2c58 0 118 28 176 97z" />
    <glyph glyph-name="aogonek.ss01" horiz-adv-x="542" 
d="M456 458c4 -3 6 -7 6 -11v-442c0 -3 -2 -5 -5 -5c-59 -47 -104 -86 -104 -136c0 -38 26 -54 62 -54c13 0 23 2 35 5c4 1 7 -1 7 -6v-8c0 -6 -1 -9 -8 -11c-9 -3 -23 -5 -36 -5c-47 0 -84 27 -84 80c0 46.3896 25.7305 76.8096 108 142.04v66.96
c-52 -61 -122 -87 -175 -87h-4c-122 0 -188 78 -188 226v74c0 148 76 226 193 226h6c62 0 147 -31 187 -55zM259 11h2c58 0 118 28 176 97v330c-46 27 -110 51 -169 51h-4c-104 0 -169 -70 -169 -201v-76c0 -131 55 -201 164 -201z" />
    <glyph glyph-name="aring.ss01" horiz-adv-x="542" 
d="M281.88 718.02c41 0 73 -32 73 -71c0 -40 -33 -72 -73 -72c-42 0 -73 33 -73 72c0 38 31 71 73 71zM281.88 696.02c-30 0 -48 -22 -48 -48c0 -27 18 -51 48 -51s48 24 48 51c0 26 -18 48 -48 48zM456 458c4 -3 6 -7 6 -11v-442c0 -3 -2 -5 -5 -5h-15c-3 0 -5 2 -5 5v69
c-52 -61 -122 -87 -175 -87h-4c-122 0 -188 78 -188 226v74c0 148 76 226 193 226h6c62 0 147 -31 187 -55zM437 108v330c-46 27 -110 51 -169 51h-4c-104 0 -169 -70 -169 -201v-76c0 -131 55 -201 164 -201h2c58 0 118 28 176 97z" />
    <glyph glyph-name="atilde.ss01" horiz-adv-x="542" 
d="M398.91 650.02h11c5 0 7 -2 5 -8c-8 -28 -45 -67 -86 -67h-4c-49 0 -54 47 -96 47c-26 0 -45 -19 -60 -44c-2 -4 -5 -6 -9 -6h-11c-5 0 -7 2 -5 8c8 28 45 67 86 67h4c49 0 54 -47 96 -47c26 0 45 19 60 44c2 4 5 6 9 6zM456 458c4 -3 6 -7 6 -11v-442c0 -3 -2 -5 -5 -5
h-15c-3 0 -5 2 -5 5v69c-52 -61 -122 -87 -175 -87h-4c-122 0 -188 78 -188 226v74c0 148 76 226 193 226h6c62 0 147 -31 187 -55zM437 108v330c-46 27 -110 51 -169 51h-4c-104 0 -169 -70 -169 -201v-76c0 -131 55 -201 164 -201h2c58 0 118 28 176 97z" />
    <glyph glyph-name="ae.ss01" horiz-adv-x="901" 
d="M637 513h10.9902c121 0 185 -78 185 -226v-27c0 -3 -2 -5 -5 -5h-366v-62c0 -114 82 -182 191 -182h4c54 0 109 18 156 43c2 1 5 0 5 -3v-13c0 -5 -2 -8 -6 -10c-40 -22 -104 -41 -154 -41h-6c-84.0996 0 -154.43 36.1201 -190 101.48v-83.4805c0 -3 -2 -5 -5 -5h-15
c-3 0 -5 2 -5 5v69c-52 -61 -122 -87 -175 -87h-4c-122 0 -188 78 -188 226v74c0 148 76 226 193 226h6c62 0 147 -31 187 -55c4 -3 6 -7 6 -11v-46.0703c33.2002 71.6504 96.8398 112.07 175.01 112.07zM267.99 489h-4c-104 0 -169 -70 -169 -201v-76
c0 -131 55 -201 164 -201h2c58 0 118 28 176 97v330c-46 27 -110 51 -169 51zM646.99 489h-9c-102.47 0 -175.25 -80.1797 -175.99 -210h345.99c0 144 -55 210 -161 210z" />
    <glyph glyph-name="y.ss01" 
d="M431 500h15c3 0 5 -2 5 -5l-0.00976562 -490.33c-0.799805 -120.5 -63.7598 -184.67 -182.99 -184.67h-6c-50 0 -114 19 -154 41c-4 2 -6 5 -6 10v13c0 3 3 4 5 3c47 -25 102 -43 156 -43h4c107 0 159 57 159 162v60.7998
c-51.6504 -45.5098 -123.92 -79.7998 -183 -79.7998h-4c-119 0 -161 69 -161 188v320c0 3 2 5 5 5h15c3 0 5 -2 5 -5v-321c0 -102 31 -163 137 -163h2c60.3701 0 127.86 35.5898 184 87.4697v396.53c0 3 2 5 5 5z" />
    <glyph glyph-name="yacute.ss01" 
d="M260.02 593.02l71 158c2 4 4 7 11 7h11c5 0 8 -4 6 -9l-77 -157c-3 -6 -5 -7 -10 -7h-8c-4 0 -6 4 -4 8zM431 500h15c3 0 5 -2 5 -5l-0.00976562 -490.33c-0.799805 -120.5 -63.7598 -184.67 -182.99 -184.67h-6c-50 0 -114 19 -154 41c-4 2 -6 5 -6 10v13c0 3 3 4 5 3
c47 -25 102 -43 156 -43h4c107 0 159 57 159 162v60.7998c-51.6504 -45.5098 -123.92 -79.7998 -183 -79.7998h-4c-119 0 -161 69 -161 188v320c0 3 2 5 5 5h15c3 0 5 -2 5 -5v-321c0 -102 31 -163 137 -163h2c60.3701 0 127.86 35.5898 184 87.4697v396.53c0 3 2 5 5 5z
" />
    <glyph glyph-name="ycircumflex.ss01" 
d="M279 751.02l87 -157c3 -5 -1 -9 -6 -9h-11c-7 0 -9 3 -11 7l-73 142.4l-73 -142.4c-2 -4 -4 -7 -11 -7h-11c-5 0 -9 4 -6 9l87 157c3 6 5 7 10 7h8c5 0 7 -1 10 -7zM431 500h15c3 0 5 -2 5 -5l-0.00976562 -490.33c-0.799805 -120.5 -63.7598 -184.67 -182.99 -184.67h-6
c-50 0 -114 19 -154 41c-4 2 -6 5 -6 10v13c0 3 3 4 5 3c47 -25 102 -43 156 -43h4c107 0 159 57 159 162v60.7998c-51.6504 -45.5098 -123.92 -79.7998 -183 -79.7998h-4c-119 0 -161 69 -161 188v320c0 3 2 5 5 5h15c3 0 5 -2 5 -5v-321c0 -102 31 -163 137 -163h2
c60.3701 0 127.86 35.5898 184 87.4697v396.53c0 3 2 5 5 5z" />
    <glyph glyph-name="ydieresis.ss01" 
d="M181.5 651.02h33c4 0 6 -2 6 -6v-39c0 -4 -2 -6 -6 -6h-33c-4 0 -6 2 -6 6v39c0 4 2 6 6 6zM315.5 651.02h33c4 0 6 -2 6 -6v-39c0 -4 -2 -6 -6 -6h-33c-4 0 -6 2 -6 6v39c0 4 2 6 6 6zM431 500h15c3 0 5 -2 5 -5l-0.00976562 -490.33
c-0.799805 -120.5 -63.7598 -184.67 -182.99 -184.67h-6c-50 0 -114 19 -154 41c-4 2 -6 5 -6 10v13c0 3 3 4 5 3c47 -25 102 -43 156 -43h4c107 0 159 57 159 162v60.7998c-51.6504 -45.5098 -123.92 -79.7998 -183 -79.7998h-4c-119 0 -161 69 -161 188v320c0 3 2 5 5 5
h15c3 0 5 -2 5 -5v-321c0 -102 31 -163 137 -163h2c60.3701 0 127.86 35.5898 184 87.4697v396.53c0 3 2 5 5 5z" />
    <glyph glyph-name="ygrave.ss01" 
d="M205.84 751.02l71 -158c2 -4 0 -8 -4 -8h-8c-5 0 -7 1 -10 7l-77 157c-2 5 1 9 6 9h11c7 0 9 -3 11 -7zM431 500h15c3 0 5 -2 5 -5l-0.00976562 -490.33c-0.799805 -120.5 -63.7598 -184.67 -182.99 -184.67h-6c-50 0 -114 19 -154 41c-4 2 -6 5 -6 10v13c0 3 3 4 5 3
c47 -25 102 -43 156 -43h4c107 0 159 57 159 162v60.7998c-51.6504 -45.5098 -123.92 -79.7998 -183 -79.7998h-4c-119 0 -161 69 -161 188v320c0 3 2 5 5 5h15c3 0 5 -2 5 -5v-321c0 -102 31 -163 137 -163h2c60.3701 0 127.86 35.5898 184 87.4697v396.53c0 3 2 5 5 5z
" />
    <glyph glyph-name="a.ss02" horiz-adv-x="488" 
d="M81 500h324c3 0 5 -2 5 -5v-490c0 -3 -2 -5 -5 -5h-15c-3 0 -5 2 -5 5v69c-52 -61 -122 -87 -175 -87h-6c-99 0 -164 54 -164 143v4c0 110 78 157 234 162l111 3.5498v176.45h-304c-3 0 -5 2 -5 5v14c0 3 2 5 5 5zM385 274.5l-126 -4.5c-133 -5 -194 -49 -194 -136v-5
c0 -72 54 -118 140 -118h4c58 0 118 28 176 97v166.5z" />
    <glyph glyph-name="aacute.ss02" horiz-adv-x="488" 
d="M238.22 593.02l71 158c2 4 4 7 11 7h11c5 0 8 -4 6 -9l-77 -157c-3 -6 -5 -7 -10 -7h-8c-4 0 -6 4 -4 8zM81 500h324c3 0 5 -2 5 -5v-490c0 -3 -2 -5 -5 -5h-15c-3 0 -5 2 -5 5v69c-52 -61 -122 -87 -175 -87h-6c-99 0 -164 54 -164 143v4c0 110 78 157 234 162
l111 3.5498v176.45h-304c-3 0 -5 2 -5 5v14c0 3 2 5 5 5zM385 274.5l-126 -4.5c-133 -5 -194 -49 -194 -136v-5c0 -72 54 -118 140 -118h4c58 0 118 28 176 97v166.5z" />
    <glyph glyph-name="abreve.ss02" horiz-adv-x="488" 
d="M366 657.02c4 3 8 0 8 -4v-12c0 -5 -2 -8 -5 -10c-19 -15 -66 -41 -125 -41s-106 26 -125 41c-3 2 -5 5 -5 10v12c0 4 4 7 8 4c26 -18 64 -43 122 -43s96 25 122 43zM81 500h324c3 0 5 -2 5 -5v-490c0 -3 -2 -5 -5 -5h-15c-3 0 -5 2 -5 5v69c-52 -61 -122 -87 -175 -87
h-6c-99 0 -164 54 -164 143v4c0 110 78 157 234 162l111 3.5498v176.45h-304c-3 0 -5 2 -5 5v14c0 3 2 5 5 5zM385 274.5l-126 -4.5c-133 -5 -194 -49 -194 -136v-5c0 -72 54 -118 140 -118h4c58 0 118 28 176 97v166.5z" />
    <glyph glyph-name="acaron.ss02" horiz-adv-x="488" 
d="M328 758.02h11c5 0 9 -4 6 -9l-87 -157c-3 -6 -5 -7 -10 -7h-8c-5 0 -7 1 -10 7l-87 157c-3 5 1 9 6 9h11c7 0 9 -3 11 -7l73 -142.39l73 142.39c2 4 4 7 11 7zM81 500h324c3 0 5 -2 5 -5v-490c0 -3 -2 -5 -5 -5h-15c-3 0 -5 2 -5 5v69c-52 -61 -122 -87 -175 -87h-6
c-99 0 -164 54 -164 143v4c0 110 78 157 234 162l111 3.5498v176.45h-304c-3 0 -5 2 -5 5v14c0 3 2 5 5 5zM385 274.5l-126 -4.5c-133 -5 -194 -49 -194 -136v-5c0 -72 54 -118 140 -118h4c58 0 118 28 176 97v166.5z" />
    <glyph glyph-name="acircumflex.ss02" horiz-adv-x="488" 
d="M258 751.02l87 -157c3 -5 -1 -9 -6 -9h-11c-7 0 -9 3 -11 7l-73 142.4l-73 -142.4c-2 -4 -4 -7 -11 -7h-11c-5 0 -9 4 -6 9l87 157c3 6 5 7 10 7h8c5 0 7 -1 10 -7zM81 500h324c3 0 5 -2 5 -5v-490c0 -3 -2 -5 -5 -5h-15c-3 0 -5 2 -5 5v69c-52 -61 -122 -87 -175 -87h-6
c-99 0 -164 54 -164 143v4c0 110 78 157 234 162l111 3.5498v176.45h-304c-3 0 -5 2 -5 5v14c0 3 2 5 5 5zM385 274.5l-126 -4.5c-133 -5 -194 -49 -194 -136v-5c0 -72 54 -118 140 -118h4c58 0 118 28 176 97v166.5z" />
    <glyph glyph-name="adieresis.ss02" horiz-adv-x="488" 
d="M160.5 651.02h33c4 0 6 -2 6 -6v-39c0 -4 -2 -6 -6 -6h-33c-4 0 -6 2 -6 6v39c0 4 2 6 6 6zM294.5 651.02h33c4 0 6 -2 6 -6v-39c0 -4 -2 -6 -6 -6h-33c-4 0 -6 2 -6 6v39c0 4 2 6 6 6zM81 500h324c3 0 5 -2 5 -5v-490c0 -3 -2 -5 -5 -5h-15c-3 0 -5 2 -5 5v69
c-52 -61 -122 -87 -175 -87h-6c-99 0 -164 54 -164 143v4c0 110 78 157 234 162l111 3.5498v176.45h-304c-3 0 -5 2 -5 5v14c0 3 2 5 5 5zM385 274.5l-126 -4.5c-133 -5 -194 -49 -194 -136v-5c0 -72 54 -118 140 -118h4c58 0 118 28 176 97v166.5z" />
    <glyph glyph-name="agrave.ss02" horiz-adv-x="488" 
d="M182.14 751.02l71 -158c2 -4 0 -8 -4 -8h-8c-5 0 -7 1 -10 7l-77 157c-2 5 1 9 6 9h11c7 0 9 -3 11 -7zM81 500h324c3 0 5 -2 5 -5v-490c0 -3 -2 -5 -5 -5h-15c-3 0 -5 2 -5 5v69c-52 -61 -122 -87 -175 -87h-6c-99 0 -164 54 -164 143v4c0 110 78 157 234 162
l111 3.5498v176.45h-304c-3 0 -5 2 -5 5v14c0 3 2 5 5 5zM385 274.5l-126 -4.5c-133 -5 -194 -49 -194 -136v-5c0 -72 54 -118 140 -118h4c58 0 118 28 176 97v166.5z" />
    <glyph glyph-name="amacron.ss02" horiz-adv-x="488" 
d="M119.5 624.02h249c3 0 5 -2 5 -5v-14c0 -3 -2 -5 -5 -5h-249c-3 0 -5 2 -5 5v14c0 3 2 5 5 5zM81 500h324c3 0 5 -2 5 -5v-490c0 -3 -2 -5 -5 -5h-15c-3 0 -5 2 -5 5v69c-52 -61 -122 -87 -175 -87h-6c-99 0 -164 54 -164 143v4c0 110 78 157 234 162l111 3.5498v176.45
h-304c-3 0 -5 2 -5 5v14c0 3 2 5 5 5zM385 274.5l-126 -4.5c-133 -5 -194 -49 -194 -136v-5c0 -72 54 -118 140 -118h4c58 0 118 28 176 97v166.5z" />
    <glyph glyph-name="aogonek.ss02" horiz-adv-x="488" 
d="M81 500h324c3 0 5 -2 5 -5v-490c0 -3 -2 -5 -5 -5c-59 -47 -104 -86 -104 -136c0 -38 26 -54 62 -54c13 0 23 2 35 5c4 1 7 -1 7 -6v-8c0 -6 -1 -9 -8 -11c-9 -3 -23 -5 -36 -5c-47 0 -84 27 -84 80c0 46.4502 25.7998 76.8799 108 142.04v66.96
c-52 -61 -122 -87 -175 -87h-6c-99 0 -164 54 -164 143v4c0 110 78 157 234 162l111 3.5498v176.45h-304c-3 0 -5 2 -5 5v14c0 3 2 5 5 5zM205 11h4c58 0 118 28 176 97v166.5l-126 -4.5c-133 -5 -194 -49 -194 -136v-5c0 -72 54 -118 140 -118z" />
    <glyph glyph-name="aring.ss02" horiz-adv-x="488" 
d="M244 718.02c41 0 73 -32 73 -71c0 -40 -33 -72 -73 -72c-42 0 -73 33 -73 72c0 38 31 71 73 71zM244 696.02c-30 0 -48 -22 -48 -48c0 -27 18 -51 48 -51s48 24 48 51c0 26 -18 48 -48 48zM81 500h324c3 0 5 -2 5 -5v-490c0 -3 -2 -5 -5 -5h-15c-3 0 -5 2 -5 5v69
c-52 -61 -122 -87 -175 -87h-6c-99 0 -164 54 -164 143v4c0 110 78 157 234 162l111 3.5498v176.45h-304c-3 0 -5 2 -5 5v14c0 3 2 5 5 5zM385 274.5l-126 -4.5c-133 -5 -194 -49 -194 -136v-5c0 -72 54 -118 140 -118h4c58 0 118 28 176 97v166.5z" />
    <glyph glyph-name="atilde.ss02" horiz-adv-x="488" 
d="M363.5 650.02h11c5 0 7 -2 5 -8c-8 -28 -45 -67 -86 -67h-4c-49 0 -54 47 -96 47c-26 0 -45 -19 -60 -44c-2 -4 -5 -6 -9 -6h-11c-5 0 -7 2 -5 8c8 28 45 67 86 67h4c49 0 54 -47 96 -47c26 0 45 19 60 44c2 4 5 6 9 6zM81 500h324c3 0 5 -2 5 -5v-490c0 -3 -2 -5 -5 -5
h-15c-3 0 -5 2 -5 5v69c-52 -61 -122 -87 -175 -87h-6c-99 0 -164 54 -164 143v4c0 110 78 157 234 162l111 3.5498v176.45h-304c-3 0 -5 2 -5 5v14c0 3 2 5 5 5zM385 274.5l-126 -4.5c-133 -5 -194 -49 -194 -136v-5c0 -72 54 -118 140 -118h4c58 0 118 28 176 97v166.5z
" />
    <glyph glyph-name="ae.ss02" horiz-adv-x="849" 
d="M585 513h10.9902c121 0 185 -78 185 -226v-27c0 -3 -2 -5 -5 -5h-366v-62c0 -114 82 -182 191 -182h4c54 0 109 18 156 43c2 1 5 0 5 -3v-13c0 -5 -2 -8 -6 -10c-40 -22 -104 -41 -154 -41h-6c-84.0996 0 -154.43 36.1201 -190 101.48v-83.4805c0 -3 -2 -5 -5 -5h-15
c-3 0 -5 2 -5 5v69c-52 -61 -122 -87 -175 -87h-6c-99 0 -164 54 -164 143v4c0 110 78 157 234 162l111 3.5498v176.45h-304c-3 0 -5 2 -5 5v14c0 3 2 5 5 5h324c3 0 5 -2 5 -5v-94.0703c33.2002 71.6504 96.8398 112.07 175.01 112.07zM410 279h345.99
c0 144 -55 210 -161 210h-9c-102.47 0 -175.25 -80.1797 -175.99 -210zM384.99 274.5l-126 -4.5c-133 -5 -194 -49 -194 -136v-5c0 -72 54 -118 140 -118h4c58 0 118 28 176 97v166.5z" />
    <glyph glyph-name="f.ss02" horiz-adv-x="344" 
d="M107 737h202c3 0 5 -2 5 -5v-14c0 -3 -2 -5 -5 -5h-182v-213h156c3 0 5 -2 5 -5v-14c0 -3 -2 -5 -5 -5h-156v-471c0 -3 -2 -5 -5 -5h-15c-3 0 -5 2 -5 5v471h-67c-3 0 -5 2 -5 5v14c0 3 2 5 5 5h67v232c0 3 2 5 5 5z" />
    <glyph glyph-name="g.ss02" horiz-adv-x="542" 
d="M456 458c4 -3 6 -7 6 -11v-609c0 -3 -2 -5 -5 -5h-346c-3 0 -5 2 -5 5v14c0 3 2 5 5 5h326v217c-52 -61 -122 -87 -175 -87h-4c-122 0 -188 78 -188 226v74c0 148 76 226 193 226h6c62 0 147 -31 187 -55zM259 11h2c58 0 118 28 176 97v330c-46 27 -110 51 -169 51h-4
c-104 0 -169 -70 -169 -201v-76c0 -131 55 -201 164 -201z" />
    <glyph glyph-name="gbreve.ss02" horiz-adv-x="542" 
d="M393 657.02c4 3 8 0 8 -4v-12c0 -5 -2 -8 -5 -10c-19 -15 -66 -41 -125 -41s-106 26 -125 41c-3 2 -5 5 -5 10v12c0 4 4 7 8 4c26 -18 64 -43 122 -43s96 25 122 43zM456 458c4 -3 6 -7 6 -11v-609c0 -3 -2 -5 -5 -5h-346c-3 0 -5 2 -5 5v14c0 3 2 5 5 5h326v217
c-52 -61 -122 -87 -175 -87h-4c-122 0 -188 78 -188 226v74c0 148 76 226 193 226h6c62 0 147 -31 187 -55zM259 11h2c58 0 118 28 176 97v330c-46 27 -110 51 -169 51h-4c-104 0 -169 -70 -169 -201v-76c0 -131 55 -201 164 -201z" />
    <glyph glyph-name="gcommaaccent.ss02" horiz-adv-x="542" 
d="M282.05 585.02h-35c-4 0 -6 2 -6 6v34c0 3 -0.0898438 6.01953 1 10l30 110.44c0.780273 2.90039 3 4 5 4h15c6 0 6.07031 -5.13965 5 -9l-29 -104.44h14c4 0 6 -2 6 -6v-39c0 -4 -2 -6 -6 -6zM456 458c4 -3 6 -7 6 -11v-609c0 -3 -2 -5 -5 -5h-346c-3 0 -5 2 -5 5v14
c0 3 2 5 5 5h326v217c-52 -61 -122 -87 -175 -87h-4c-122 0 -188 78 -188 226v74c0 148 76 226 193 226h6c62 0 147 -31 187 -55zM259 11h2c58 0 118 28 176 97v330c-46 27 -110 51 -169 51h-4c-104 0 -169 -70 -169 -201v-76c0 -131 55 -201 164 -201z" />
    <glyph glyph-name="gdotaccent.ss02" horiz-adv-x="542" 
d="M270.08 651.02h33c4 0 6 -2 6 -6v-39c0 -4 -2 -6 -6 -6h-33c-4 0 -6 2 -6 6v39c0 4 2 6 6 6zM456 458c4 -3 6 -7 6 -11v-609c0 -3 -2 -5 -5 -5h-346c-3 0 -5 2 -5 5v14c0 3 2 5 5 5h326v217c-52 -61 -122 -87 -175 -87h-4c-122 0 -188 78 -188 226v74
c0 148 76 226 193 226h6c62 0 147 -31 187 -55zM259 11h2c58 0 118 28 176 97v330c-46 27 -110 51 -169 51h-4c-104 0 -169 -70 -169 -201v-76c0 -131 55 -201 164 -201z" />
    <glyph glyph-name="r.ss02" horiz-adv-x="340" 
d="M85 500h220c3 0 5 -2 5 -5v-14c0 -3 -2 -5 -5 -5h-200v-471c0 -3 -2 -5 -5 -5h-15c-3 0 -5 2 -5 5v490c0 3 2 5 5 5z" />
    <glyph glyph-name="racute.ss02" horiz-adv-x="340" 
d="M183.3 593.02l71 158c2 4 4 7 11 7h11c5 0 8 -4 6 -9l-77 -157c-3 -6 -5 -7 -10 -7h-8c-4 0 -6 4 -4 8zM85 500h220c3 0 5 -2 5 -5v-14c0 -3 -2 -5 -5 -5h-200v-471c0 -3 -2 -5 -5 -5h-15c-3 0 -5 2 -5 5v490c0 3 2 5 5 5z" />
    <glyph glyph-name="rcaron.ss02" horiz-adv-x="340" 
d="M254 758.02h11c5 0 9 -4 6 -9l-87 -157c-3 -6 -5 -7 -10 -7h-8c-5 0 -7 1 -10 7l-87 157c-3 5 1 9 6 9h11c7 0 9 -3 11 -7l73 -142.39l73 142.39c2 4 4 7 11 7zM85 500h220c3 0 5 -2 5 -5v-14c0 -3 -2 -5 -5 -5h-200v-471c0 -3 -2 -5 -5 -5h-15c-3 0 -5 2 -5 5v490
c0 3 2 5 5 5z" />
    <glyph glyph-name="rcommaaccent.ss02" horiz-adv-x="340" 
d="M85 500h220c3 0 5 -2 5 -5v-14c0 -3 -2 -5 -5 -5h-200v-471c0 -3 -2 -5 -5 -5h-15c-3 0 -5 2 -5 5v490c0 3 2 5 5 5zM86 -49.9199h35c4 0 6 -2 6 -6v-34c0 -3 0.0800781 -6.01953 -1 -10l-30 -110.44c-0.790039 -2.88965 -3 -4 -5 -4h-15c-6 0 -6.07031 5.15039 -5 9
l29 104.44h-14c-4 0 -6 2 -6 6v39c0 4 2 6 6 6z" />
    <glyph glyph-name="t.ss02" horiz-adv-x="318" 
d="M106 611l13 3c4 1 8 0 8 -5v-109h156c3 0 5 -2 5 -5v-14c0 -3 -2 -5 -5 -5h-156v-452h156c3 0 5 -2 5 -5v-14c0 -3 -2 -5 -5 -5h-176c-3 0 -5 2 -5 5v471h-67c-3 0 -5 2 -5 5v14c0 3 2 5 5 5h67v103c0 4 0 7 4 8z" />
    <glyph glyph-name="tbar.ss02" horiz-adv-x="318" 
d="M127 476v-134.18h156c3 0 5 -2 5 -5v-14c0 -3 -2 -5 -5 -5h-156v-293.82h156c3 0 5 -2 5 -5v-14c0 -3 -2 -5 -5 -5h-176c-3 0 -5 2 -5 5v312.82h-67c-3 0 -5 2 -5 5v14c0 3 2 5 5 5h67v134.18h-67c-3 0 -5 2 -5 5v14c0 3 2 5 5 5h67v103c0 4 0 7 4 8l13 3c4 1 8 0 8 -5
v-109h156c3 0 5 -2 5 -5v-14c0 -3 -2 -5 -5 -5h-156z" />
    <glyph glyph-name="tcaron.ss02" horiz-adv-x="396" 
d="M324.55 737h35c4 0 6 -2 6 -6v-34c0 -3 0.0800781 -6.01953 -1 -10l-30 -110.44c-0.790039 -2.90039 -3 -4 -5 -4h-15c-6 0 -6.07031 5.13965 -5 9l29 104.44h-14c-4 0 -6 2 -6 6v39c0 4 2 6 6 6zM106 611l13 3c4 1 8 0 8 -5v-109h156c3 0 5 -2 5 -5v-14
c0 -3 -2 -5 -5 -5h-156v-452h156c3 0 5 -2 5 -5v-14c0 -3 -2 -5 -5 -5h-176c-3 0 -5 2 -5 5v471h-67c-3 0 -5 2 -5 5v14c0 3 2 5 5 5h67v103c0 4 0 7 4 8z" />
    <glyph glyph-name="tcedilla.ss02" horiz-adv-x="318" 
d="M127 476v-452h156c3 0 5 -2 5 -5v-14c0 -3 -2 -5 -5 -5h-113.14l-11 -67c10 3 25 6 40 6c48 0 80 -28 80 -74c0 -53 -41 -80 -94 -80c-25 0 -51 6 -60 9c-7 2 -8 5 -8 11v8c0 5 3 7 7 6c12 -3 34 -9 59 -9c42 0 72 16 72 54c0 34 -24 50 -56 50c-16 0 -32 -5 -43 -7
c-5 -1 -9 -2 -13 2l-3 3c-3 3 -6 6 -5 10l13 78h-40.8604c-3 0 -5 2 -5 5v471h-67c-3 0 -5 2 -5 5v14c0 3 2 5 5 5h67v103c0 4 0 7 4 8l13 3c4 1 8 0 8 -5v-109h156c3 0 5 -2 5 -5v-14c0 -3 -2 -5 -5 -5h-156z" />
    <glyph glyph-name="uni021B.ss02" horiz-adv-x="318" 
d="M106 611l13 3c4 1 8 0 8 -5v-109h156c3 0 5 -2 5 -5v-14c0 -3 -2 -5 -5 -5h-156v-452h156c3 0 5 -2 5 -5v-14c0 -3 -2 -5 -5 -5h-176c-3 0 -5 2 -5 5v471h-67c-3 0 -5 2 -5 5v14c0 3 2 5 5 5h67v103c0 4 0 7 4 8zM178.78 -49.9199h35c4 0 6 -2 6 -6v-34
c0 -3 0.0800781 -6.01953 -1 -10l-30 -110.44c-0.790039 -2.88965 -3 -4 -5 -4h-15c-6 0 -6.07031 5.15039 -5 9l29 104.44h-14c-4 0 -6 2 -6 6v39c0 4 2 6 6 6z" />
    <glyph glyph-name="y.ss02" 
d="M431 500h15c3 0 5 -2 5 -5v-657c0 -3 -2 -5 -5 -5h-346c-3 0 -5 2 -5 5v14c0 3 2 5 5 5h326v209.8c-51.6504 -45.5098 -123.92 -79.7998 -183 -79.7998h-4c-119 0 -161 69 -161 188v320c0 3 2 5 5 5h15c3 0 5 -2 5 -5v-321c0 -102 31 -163 137 -163h2
c60.3701 0 127.86 35.5898 184 87.4697v396.53c0 3 2 5 5 5z" />
    <glyph glyph-name="yacute.ss02" 
d="M261.47 593.02l71 158c2 4 4 7 11 7h11c5 0 8 -4 6 -9l-77 -157c-3 -6 -5 -7 -10 -7h-8c-4 0 -6 4 -4 8zM431 500h15c3 0 5 -2 5 -5v-657c0 -3 -2 -5 -5 -5h-346c-3 0 -5 2 -5 5v14c0 3 2 5 5 5h326v209.8c-51.6504 -45.5098 -123.92 -79.7998 -183 -79.7998h-4
c-119 0 -161 69 -161 188v320c0 3 2 5 5 5h15c3 0 5 -2 5 -5v-321c0 -102 31 -163 137 -163h2c60.3701 0 127.86 35.5898 184 87.4697v396.53c0 3 2 5 5 5z" />
    <glyph glyph-name="ycircumflex.ss02" 
d="M279 751.02l87 -157c3 -5 -1 -9 -6 -9h-11c-7 0 -9 3 -11 7l-73 142.4l-73 -142.4c-2 -4 -4 -7 -11 -7h-11c-5 0 -9 4 -6 9l87 157c3 6 5 7 10 7h8c5 0 7 -1 10 -7zM431 500h15c3 0 5 -2 5 -5v-657c0 -3 -2 -5 -5 -5h-346c-3 0 -5 2 -5 5v14c0 3 2 5 5 5h326v209.8
c-51.6504 -45.5098 -123.92 -79.7998 -183 -79.7998h-4c-119 0 -161 69 -161 188v320c0 3 2 5 5 5h15c3 0 5 -2 5 -5v-321c0 -102 31 -163 137 -163h2c60.3701 0 127.86 35.5898 184 87.4697v396.53c0 3 2 5 5 5z" />
    <glyph glyph-name="ydieresis.ss02" 
d="M181.5 651.02h33c4 0 6 -2 6 -6v-39c0 -4 -2 -6 -6 -6h-33c-4 0 -6 2 -6 6v39c0 4 2 6 6 6zM315.5 651.02h33c4 0 6 -2 6 -6v-39c0 -4 -2 -6 -6 -6h-33c-4 0 -6 2 -6 6v39c0 4 2 6 6 6zM431 500h15c3 0 5 -2 5 -5v-657c0 -3 -2 -5 -5 -5h-346c-3 0 -5 2 -5 5v14
c0 3 2 5 5 5h326v209.8c-51.6504 -45.5098 -123.92 -79.7998 -183 -79.7998h-4c-119 0 -161 69 -161 188v320c0 3 2 5 5 5h15c3 0 5 -2 5 -5v-321c0 -102 31 -163 137 -163h2c60.3701 0 127.86 35.5898 184 87.4697v396.53c0 3 2 5 5 5z" />
    <glyph glyph-name="ygrave.ss02" 
d="M201.99 751.02l71 -158c2 -4 0 -8 -4 -8h-8c-5 0 -7 1 -10 7l-77 157c-2 5 1 9 6 9h11c7 0 9 -3 11 -7zM431 500h15c3 0 5 -2 5 -5v-657c0 -3 -2 -5 -5 -5h-346c-3 0 -5 2 -5 5v14c0 3 2 5 5 5h326v209.8c-51.6504 -45.5098 -123.92 -79.7998 -183 -79.7998h-4
c-119 0 -161 69 -161 188v320c0 3 2 5 5 5h15c3 0 5 -2 5 -5v-321c0 -102 31 -163 137 -163h2c60.3701 0 127.86 35.5898 184 87.4697v396.53c0 3 2 5 5 5z" />
    <glyph glyph-name="uni0410" unicode="&#x410;" horiz-adv-x="610" 
d="M295.37 700l19 0.000976562c5 0 9 -3 11 -8l244 -687c1 -3 0 -5 -3 -5h-14c-5 0 -9 3 -11 8l-82.4697 232h-308.05l-82.4805 -232c-2 -5 -6 -8 -11 -8h-14c-3 0 -4 2 -3 5l244 687c1.88965 4.71973 5.55957 7.64941 11 7.99902zM303.33 672.001l-104.961 -299
l-38.9902 -109h290.99l-39 109l-105.77 299h-2.26953z" />
    <glyph glyph-name="uni0411" unicode="&#x411;" horiz-adv-x="595" 
d="M125 403h174c179 0 246 -72 246 -185v-24c0 -116 -70 -194 -249 -194h-191c-3 0 -5 2 -5 5v690c0 3 2 5 5 5h377c3 0 5 -2 5 -5v-14c0 -3 -2 -5 -5 -5h-357v-273zM520 200v12c0 104 -56 167 -222 167h-173v-355h170c166 0 225 69 225 176z" />
    <glyph glyph-name="uni0412" unicode="&#x412;" horiz-adv-x="603" 
d="M410.68 367.47c105.6 -24.6104 142.319 -99.04 142.319 -177.47v-19c0 -101 -56 -171 -207 -171h-241c-3 0 -5 2 -5 5v690c0 3 2 5 5 5h215c146 0 205 -62 205 -163v-16c0 -63.6104 -35.0098 -125.57 -114.319 -153.53zM500 527v4c0 92 -48 145 -181 145h-194v-300h184
c138 0 191 74 191 151zM528 177v7c0 87 -44 168 -200 168h-203v-328h220c138 0 183 61 183 153z" />
    <glyph glyph-name="uni0413" unicode="&#x413;" horiz-adv-x="534" 
d="M105 700h384c3 0 5 -2 5 -5v-14c0 -3 -2 -5 -5 -5h-364v-671c0 -3 -2 -5 -5 -5h-15c-3 0 -5 2 -5 5v690c0 3 2 5 5 5z" />
    <glyph glyph-name="uni0490" unicode="&#x490;" horiz-adv-x="534" 
d="M474 771.08h15c3 0 5 -2 5 -5v-85.0801c0 -3 -2 -5 -5 -5h-364v-671c0 -3 -2 -5 -5 -5h-15c-3 0 -5 2 -5 5v690c0 3 2 5 5 5h364v66.0801c0 3 2 5 5 5z" />
    <glyph glyph-name="uni0414" unicode="&#x414;" horiz-adv-x="728" 
d="M608 24h74.9902c3 0 5 -2 5 -5v-150c0 -3 -2 -5 -5 -5h-15c-3 0 -5 2 -5 5v131h-588v-131c0 -3 -2 -5 -5 -5h-15c-3 0 -5 2 -5 5v150c0 3 2 5 5 5h78.3398c29.9902 19.0801 46.21 61.4004 51.6699 136l40 535c0 3 2 5 5 5h373c3 0 5 -2 5 -5v-671zM248.59 676
l-38.5996 -522c-4.75977 -60.29 -17.7002 -102.96 -39.3203 -130h412.32v652h-334.4z" />
    <glyph glyph-name="uni0415" unicode="&#x415;" horiz-adv-x="564" 
d="M125 374h364c3 0 5 -2 5 -5v-14c0 -3 -2 -5 -5 -5h-364v-326h384c3 0 5 -2 5 -5v-14c0 -3 -2 -5 -5 -5h-404c-3 0 -5 2 -5 5v690c0 3 2 5 5 5h404c3 0 5 -2 5 -5v-14c0 -3 -2 -5 -5 -5h-384v-302z" />
    <glyph glyph-name="uni0401" unicode="&#x401;" horiz-adv-x="564" 
d="M221.99 851.02h33c4 0 6 -2 6 -6v-39c0 -4 -2 -6 -6 -6h-33c-4 0 -6 2 -6 6v39c0 4 2 6 6 6zM355.99 851.02h33c4 0 6 -2 6 -6v-39c0 -4 -2 -6 -6 -6h-33c-4 0 -6 2 -6 6v39c0 4 2 6 6 6zM105 700h404c3 0 5 -2 5 -5v-14c0 -3 -2 -5 -5 -5h-384v-302h364c3 0 5 -2 5 -5
v-14c0 -3 -2 -5 -5 -5h-364v-326h384c3 0 5 -2 5 -5v-14c0 -3 -2 -5 -5 -5h-404c-3 0 -5 2 -5 5v690c0 3 2 5 5 5z" />
    <glyph glyph-name="uni0416" unicode="&#x416;" horiz-adv-x="905" 
d="M592 354l272 -346c2 -3 1 -8 -3 -8h-18c-3 0 -5 1 -7 3l-267.53 339h-103.47v-337c0 -3 -2 -5 -5 -5h-15c-3 0 -5 2 -5 5v337h-103.47l-267.53 -339c-2 -2 -4 -3 -7 -3h-18c-4 0 -5 5 -3 8l272 346l-251 338c-2 3 -1 8 3 8h17c3 0 5 -1 7 -3l247.04 -331h103.96v329
c0 3 2 5 5 5h15c3 0 5 -2 5 -5v-329h103.95l247.05 331c2 2 4 3 7 3h17c4 0 5 -5 3 -8z" />
    <glyph glyph-name="uni0417" unicode="&#x417;" horiz-adv-x="537" 
d="M340.25 367.61c109.01 -25.96 146.75 -107.179 146.75 -172.619v-21c0 -103 -94 -187 -230 -187h-10c-76 0 -140 24 -178 46c-4 2 -6 5 -6 10v13c0 3 3 4 5 3c45 -25 100 -48 180 -48h8c123 0 206 75 206 169v9c0 70 -44 163 -199.98 163.47h-98.0195c-3 0 -5 2 -5 5
v13.5303c0 3 2 5 5 5h79c138 0 191 86 191 151v10c0 92 -79 152 -186 152h-8c-75 0 -130 -23 -175 -48c-2 -1 -5 0 -5 3v13c0 5 2 8 6 10c38 22 102 46 173 46h10c120 0 210 -69 210 -170v-22c0 -55.7305 -36.3096 -123.381 -118.75 -153.381z" />
    <glyph glyph-name="uni0418" unicode="&#x418;" horiz-adv-x="682" 
d="M561 700h21c3 0 5 -2 5 -5v-690c0 -3 -2 -5 -5 -5h-15c-3 0 -5 2 -5 5v656h-1l-432 -657c-2 -3 -5 -4 -8 -4h-21c-3 0 -5 2 -5 5v690c0 3 2 5 5 5h15c3 0 5 -2 5 -5v-656h1l432 657c2 3 5 4 8 4z" />
    <glyph glyph-name="uni0419" unicode="&#x419;" horiz-adv-x="682" 
d="M468.44 857.02c4 3 8 0 8 -4v-12c0 -5 -2 -8 -5 -10c-19 -15 -66 -41 -125 -41s-106 26 -125 41c-3 2 -5 5 -5 10v12c0 4 4 7 8 4c26 -18 64 -43 122 -43s96 25 122 43zM561 700h21c3 0 5 -2 5 -5v-690c0 -3 -2 -5 -5 -5h-15c-3 0 -5 2 -5 5v656h-1l-432 -657
c-2 -3 -5 -4 -8 -4h-21c-3 0 -5 2 -5 5v690c0 3 2 5 5 5h15c3 0 5 -2 5 -5v-656h1l432 657c2 3 5 4 8 4z" />
    <glyph glyph-name="uni041A" unicode="&#x41a;" horiz-adv-x="604" 
d="M291 354l272 -346c2 -3 1 -8 -3 -8h-18c-3 0 -5 1 -7 3l-267.53 339h-142.47v-337c0 -3 -2 -5 -5 -5h-15c-3 0 -5 2 -5 5v690c0 3 2 5 5 5h15c3 0 5 -2 5 -5v-329h142.95l247.05 331c2 2 4 3 7 3h17c4 0 5 -5 3 -8z" />
    <glyph glyph-name="uni041B" unicode="&#x41b;" horiz-adv-x="703" 
d="M230 700h373c3 0 5 -2 5 -5v-690c0 -3 -2 -5 -5 -5h-15c-3 0 -5 2 -5 5v671h-334.41l-38.5898 -522c-9 -118 -47 -167 -121 -167h-6c-12 0 -26 3 -37 8c-5 2 -6 5 -6 9v10c0 4 3 7 7 5c14 -6 23 -8 37 -8h4c61 0 89 40 97 149l40 535c0 3 2 5 5 5z" />
    <glyph glyph-name="uni041C" unicode="&#x41c;" horiz-adv-x="830" 
d="M708 700h17.001c3 0 5 -2 5 -5v-690c0 -3 -2 -5 -5 -5h-15c-3 0 -5 2 -5 5v649h-2l-143 -232l-135 -214c-2 -4 -5 -6 -10 -6h-5c-5 0 -8 2 -10 6l-135 214l-143 232h-2v-649c0 -3 -2 -5 -5 -5h-15c-3 0 -5 2 -5 5v690c0 3 2 5 5 5h17c5 0 8 -2 10 -6l284.81 -457h1.37988
l284.81 457c2 4 5 6 10 6z" />
    <glyph glyph-name="uni041D" unicode="&#x41d;" horiz-adv-x="683" 
d="M563 700h15c3 0 5 -2 5 -5v-690c0 -3 -2 -5 -5 -5h-15c-3 0 -5 2 -5 5v345h-433v-345c0 -3 -2 -5 -5 -5h-15c-3 0 -5 2 -5 5v690c0 3 2 5 5 5h15c3 0 5 -2 5 -5v-321h433v321c0 3 2 5 5 5z" />
    <glyph glyph-name="uni041E" unicode="&#x41e;" horiz-adv-x="693" 
d="M339 713h15c146 0 259 -95 259 -297v-132c0 -202 -113 -297 -259 -297h-15c-146 0 -259 95 -259 297v132c0 202 113 297 259 297zM353 689h-13c-133 0 -235 -86 -235 -279v-120c0 -193 102 -279 235 -279h13c133 0 235 86 235 279v120c0 193 -102 279 -235 279z" />
    <glyph glyph-name="uni041F" unicode="&#x41f;" horiz-adv-x="690" 
d="M105 700h480c3 0 5 -2 5 -5v-690c0 -3 -2 -5 -5 -5h-15c-3 0 -5 2 -5 5v671h-440v-671c0 -3 -2 -5 -5 -5h-15c-3 0 -5 2 -5 5v690c0 3 2 5 5 5z" />
    <glyph glyph-name="uni0420" unicode="&#x420;" horiz-adv-x="630" 
d="M105 700h196c179 0 249 -77 249 -193v-24c0 -116 -70 -209 -249 -209h-176v-269c0 -3 -2 -5 -5 -5h-15c-3 0 -5 2 -5 5v690c0 3 2 5 5 5zM525 489v12c0 107 -59 175 -225 175h-175v-378h175c166 0 225 84 225 191z" />
    <glyph glyph-name="uni0421" unicode="&#x421;" horiz-adv-x="595" 
d="M359 713h10c68 0 132 -24 170 -46c4 -2 6 -5 6 -10v-13c0 -3 -3 -4 -5 -3c-45 25 -100 48 -172 48h-8c-133 0 -255 -94 -255 -287v-104c0 -193 122 -287 255 -287h8c72 0 127 23 172 48c2 1 5 0 5 -3v-13c0 -5 -2 -8 -6 -10c-38 -22 -102 -46 -170 -46h-10
c-146 0 -279 103 -279 305v116c0 202 133 305 279 305z" />
    <glyph glyph-name="uni0422" unicode="&#x422;" horiz-adv-x="599" 
d="M45 700h509c3 0 5 -2 5 -5v-14c0 -3 -2 -5 -5 -5h-242v-671c0 -3 -2 -5 -5 -5h-15c-3 0 -5 2 -5 5v671h-242c-3 0 -5 2 -5 5v14c0 3 2 5 5 5z" />
    <glyph glyph-name="uni0423" unicode="&#x423;" horiz-adv-x="613" 
d="M552.37 700h17c3 0 4 -3 3 -5l-259 -547c-57 -121 -93 -157 -166 -157h-5c-11 0 -40 4 -46 7c-3 1 -5 5 -5 9v15c0 3 3 4 6 3c15 -6 28 -10 46 -10h3c60 0 90 29 142 139l4.07031 8.51953l-252.07 532.48c-1 2 0 5 3 5h17c4 0 8 -2 10 -6l235.3 -499.89h1.40039
l235.3 499.89c2 4 6 6 10 6z" />
    <glyph glyph-name="uni040E" unicode="&#x40e;" horiz-adv-x="613" 
d="M428.43 857.02c4 3 8 0 8 -4v-12c0 -5 -2 -8 -5 -10c-19 -15 -66 -41 -125 -41s-106 26 -125 41c-3 2 -5 5 -5 10v12c0 4 4 7 8 4c26 -18 64 -43 122 -43s96 25 122 43zM552.37 700h17c3 0 4 -3 3 -5l-259 -547c-57 -121 -93 -157 -166 -157h-5c-11 0 -40 4 -46 7
c-3 1 -5 5 -5 9v15c0 3 3 4 6 3c15 -6 28 -10 46 -10h3c60 0 90 29 142 139l4.07031 8.51953l-252.07 532.48c-1 2 0 5 3 5h17c4 0 8 -2 10 -6l235.3 -499.89h1.40039l235.3 499.89c2 4 6 6 10 6z" />
    <glyph glyph-name="uni0424" unicode="&#x424;" horiz-adv-x="885" 
d="M455 635h91c146 0 259 -95 259 -260v-19c0 -165 -113 -260 -259 -260h-91v-91c0 -3 -2 -5 -5 -5h-15c-3 0 -5 2 -5 5v91h-91c-146 0 -259 95 -259 260v19c0 165 113 260 259 260h91v60c0 3 2 5 5 5h15c3 0 5 -2 5 -5v-60zM430 611h-90c-133 0 -235 -86 -235 -242v-7
c0 -156 102 -242 235 -242h90v491zM780 362v7c0 156 -102 242 -235 242h-90v-491h90c133 0 235 86 235 242z" />
    <glyph glyph-name="uni0425" unicode="&#x425;" horiz-adv-x="580" 
d="M511.65 700l17 -0.000976562c3 0 6 -3 4 -6l-224 -337l231 -351c2 -3 -1 -6 -4 -6h-17c-4 0 -7.01953 1.99023 -9 5l-217.83 333.03l-3.17969 -0.139648l-217.99 -332.89c-1.96973 -3.01953 -5 -5 -9 -5h-17c-3 0 -6 3 -4 6l231 351l-224 337c-2 3 1 6 4 6h17
c4 0 7.00977 -2 9 -5l157 -238l54 -80.9102l3.16992 -0.0898438l53.8301 81l157 238c1.99023 3 5 5 9 5z" />
    <glyph glyph-name="uni0427" unicode="&#x427;" horiz-adv-x="630" 
d="M510 700l15 -0.0117188c3 0 5 -2 5 -5v-690c0 -3 -2 -5 -5 -5h-15c-3 0 -5 2 -5 5v284.15c-39.2803 -23.71 -120.86 -53.1396 -192 -53.1396h-10c-137 0 -223 84 -223 233v226c0 3 2 5 5 5h15c3 0 5 -2 5 -5v-220c0 -140 75 -215 199 -215h8
c74.7598 0 147.64 28.2803 193 54.6406v380.36c0 3 2 5 5 5z" />
    <glyph glyph-name="uni0426" unicode="&#x426;" horiz-adv-x="701" 
d="M581 24h75c3 0 5 -2 5 -5v-150c0 -3 -2 -5 -5 -5h-15c-3 0 -5 2 -5 5v131h-531c-3 0 -5 2 -5 5v690c0 3 2 5 5 5h15c3 0 5 -2 5 -5v-671h431v671c0 3 2 5 5 5h15c3 0 5 -2 5 -5v-671z" />
    <glyph glyph-name="uni0428" unicode="&#x428;" horiz-adv-x="995" 
d="M875 700h15c3 0 5 -2 5 -5v-690c0 -3 -2 -5 -5 -5h-785c-3 0 -5 2 -5 5v690c0 3 2 5 5 5h15c3 0 5 -2 5 -5v-671h360v671c0 3 2 5 5 5h15c3 0 5 -2 5 -5v-671h360v671c0 3 2 5 5 5z" />
    <glyph glyph-name="uni0429" unicode="&#x429;" horiz-adv-x="1015" 
d="M895 24h75c3 0 5 -2 5 -5v-150c0 -3 -2 -5 -5 -5h-15c-3 0 -5 2 -5 5v131h-845c-3 0 -5 2 -5 5v690c0 3 2 5 5 5h15c3 0 5 -2 5 -5v-671h360v671c0 3 2 5 5 5h15c3 0 5 -2 5 -5v-671h360v671c0 3 2 5 5 5h15c3 0 5 -2 5 -5v-671z" />
    <glyph glyph-name="uni042F" unicode="&#x42f;" horiz-adv-x="615" 
d="M308.89 700l201 -0.00976562c3 0 5 -2 5 -5v-690c0 -3 -2 -5 -5 -5h-15c-3 0 -5 2 -5 5v289h-211l-208 -289c-2 -3 -5 -5 -9 -5h-17c-4 0 -6 3 -3 6l210.12 292.26c-133.47 19.5801 -187.12 103.95 -187.12 196.75v19c0 116 65 186 244 186zM489.89 675.99h-180
c-166 0 -220 -61 -220 -168v-7c0 -97 59 -183 225 -183h175v358z" />
    <glyph glyph-name="uni042C" unicode="&#x42c;" horiz-adv-x="625" 
d="M125 403h174c179 0 246 -72 246 -185v-24c0 -116 -70 -194 -249 -194h-191c-3 0 -5 2 -5 5v690c0 3 2 5 5 5h15c3 0 5 -2 5 -5v-292zM520 200v12c0 104 -56 167 -222 167h-173v-355h170c166 0 225 69 225 176z" />
    <glyph glyph-name="uni042A" unicode="&#x42a;" horiz-adv-x="695" 
d="M195 403h174c179 0 246 -72 246 -185v-24c0 -116 -70 -194 -249 -194h-191c-3 0 -5 2 -5 5v671h-125c-3 0 -5 2 -5 5v14c0 3 2 5 5 5h145c3 0 5 -2 5 -5v-292zM590 200v12c0 104 -56 167 -222 167h-173v-355h170c166 0 225 69 225 176z" />
    <glyph glyph-name="uni042B" unicode="&#x42b;" horiz-adv-x="782" 
d="M125 403h174c179 0 246 -72 246 -185v-24c0 -116 -70 -194 -249 -194h-191c-3 0 -5 2 -5 5v690c0 3 2 5 5 5h15c3 0 5 -2 5 -5v-292zM662 700h15c3 0 5 -2 5 -5v-690c0 -3 -2 -5 -5 -5h-15c-3 0 -5 2 -5 5v690c0 3 2 5 5 5zM520 200v12c0 104 -56 167 -222 167h-173v-355
h170c166 0 225 69 225 176z" />
    <glyph glyph-name="uni0404" unicode="&#x404;" horiz-adv-x="595" 
d="M368 689h-8c-133 0 -255 -94 -255 -287v-30h366c3 0 5 -2 5 -5v-14c0 -3 -2 -5 -5 -5h-366v-50c0 -193 122 -287 255 -287h8c72 0 127 23 172 48c2 1 5 0 5 -3v-13c0 -5 -2 -8 -6 -10c-38 -22 -102 -46 -170 -46h-10c-146 0 -279 103 -279 305v116c0 202 133 305 279 305
h10c68 0 132 -24 170 -46c4 -2 6 -5 6 -10v-13c0 -3 -3 -4 -5 -3c-45 25 -100 48 -172 48z" />
    <glyph glyph-name="uni042D" unicode="&#x42d;" horiz-adv-x="595" 
d="M226 713h10c146 0 279 -103 279 -305v-116c0 -202 -133 -305 -279 -305h-10c-68 0 -132 24 -170 46c-4 2 -6 5 -6 10v13c0 3 3 4 5 3c45 -25 100 -48 172 -48h8c133 0 255 94 255 287v50h-366c-3 0 -5 2 -5 5v14c0 3 2 5 5 5h366v30c0 193 -122 287 -255 287h-8
c-72 0 -127 -23 -172 -48c-2 -1 -5 0 -5 3v13c0 5 2 8 6 10c38 22 102 46 170 46z" />
    <glyph glyph-name="uni0406" unicode="&#x406;" horiz-adv-x="225" 
d="M105 700h15c3 0 5 -2 5 -5v-690c0 -3 -2 -5 -5 -5h-15c-3 0 -5 2 -5 5v690c0 3 2 5 5 5z" />
    <glyph glyph-name="uni0407" unicode="&#x407;" horiz-adv-x="225" 
d="M28.8799 851.02h33c4 0 6 -2 6 -6v-39c0 -4 -2 -6 -6 -6h-33c-4 0 -6 2 -6 6v39c0 4 2 6 6 6zM162.88 851.02h33c4 0 6 -2 6 -6v-39c0 -4 -2 -6 -6 -6h-33c-4 0 -6 2 -6 6v39c0 4 2 6 6 6zM105 700h15c3 0 5 -2 5 -5v-690c0 -3 -2 -5 -5 -5h-15c-3 0 -5 2 -5 5v690
c0 3 2 5 5 5z" />
    <glyph glyph-name="uni042E" unicode="&#x42e;" horiz-adv-x="885" 
d="M531 713h15c146 0 259 -95 259 -297v-132c0 -202 -113 -297 -259 -297h-15c-146 0 -259 95 -259 297v64h-147v-343c0 -3 -2 -5 -5 -5h-15c-3 0 -5 2 -5 5v690c0 3 2 5 5 5h15c3 0 5 -2 5 -5v-323h147v44c0 202 113 297 259 297zM780 290v120c0 193 -102 279 -235 279h-13
c-133 0 -235 -86 -235 -279v-120c0 -193 102 -279 235 -279h13c133 0 235 86 235 279z" />
    <glyph glyph-name="uni0430" unicode="&#x430;" horiz-adv-x="488" 
d="M243 513h6c120 0 161 -65 161 -187v-321c0 -3 -2 -5 -5 -5h-15c-3 0 -5 2 -5 5v69c-52 -61 -122 -87 -175 -87h-6c-99 0 -164 54 -164 143v4c0 110 78 157 234 162l111 3.5498v27.4502c0 105 -30 162 -137 162h-4c-54 0 -113 -18 -160 -43c-2 -1 -5 0 -5 3v13
c0 5 2 8 6 10c40 22 108 41 158 41zM385 274.5l-126 -4.5c-133 -5 -194 -49 -194 -136v-5c0 -72 54 -118 140 -118h4c58 0 118 28 176 97v166.5z" />
    <glyph glyph-name="uni0431" unicode="&#x431;" horiz-adv-x="537" 
d="M270 500h4c122 0 193 -78 193 -226v-61c0 -148 -81 -226 -192 -226h-11c-118 0 -194 78 -194 226v283c0 122 64 205 200 205h4c73 0 121 14 165 48c2 1 5 0 5 -3v-13c0 -5 -2 -7 -6 -10c-37 -31 -94 -46 -163 -46h-4c-123 0 -176 -75 -176 -180v-84c52 61 122 87 175 87z
M442 212v63c0 131 -60 201 -169 201h-2c-58 0 -118 -28 -176 -97v-167c0 -131 65 -201 170 -201h9c98 0 168 70 168 201z" />
    <glyph glyph-name="uni0432" unicode="&#x432;" horiz-adv-x="481" 
d="M85 500h161c117 0 166 -45 166 -117v-10c0 -47 -24.1299 -90.75 -76.4902 -113.87c70.0898 -16.6299 100.49 -62.0596 100.49 -121.13v-10c0 -72 -49 -128 -166 -128h-185c-3 0 -5 2 -5 5v490c0 3 2 5 5 5zM105 476v-210h137c104 0 145 54 145 106v12
c0 55 -38 92 -142 92h-140zM105 242v-218h164c104 0 142 48 142 103v12c0 58 -38 103 -142 103h-164z" />
    <glyph glyph-name="uni0433" unicode="&#x433;" horiz-adv-x="409" 
d="M85 500h289c3 0 5 -2 5 -5v-14c0 -3 -2 -5 -5 -5h-269v-471c0 -3 -2 -5 -5 -5h-15c-3 0 -5 2 -5 5v490c0 3 2 5 5 5z" />
    <glyph glyph-name="uni0491" unicode="&#x491;" horiz-adv-x="409" 
d="M359 571.08h15c3 0 5 -2 5 -5v-85.0801c0 -3 -2 -5 -5 -5h-269v-471c0 -3 -2 -5 -5 -5h-15c-3 0 -5 2 -5 5v490c0 3 2 5 5 5h269v66.0801c0 3 2 5 5 5z" />
    <glyph glyph-name="uni0434" unicode="&#x434;" horiz-adv-x="584" 
d="M471 24l77.9902 0.000976562c3 0 5 -2 5 -5v-150c0 -3 -2 -5 -5 -5h-15c-3 0 -5 2 -5 5v131h-474v-131c0 -3 -2 -5 -5 -5h-15c-3 0 -5 2 -5 5v150c0 3 2 5 5 5h73.75c18.4697 17.3896 26.5996 49.9492 29.2598 87.999l29 383c0 3 2 5 5 5h294c3 0 5 -2 5 -5v-471z
M190.55 476.001l-27.5605 -363c-2.50977 -31.7803 -8.50977 -64.9502 -23.2793 -89h306.28v452h-255.44z" />
    <glyph glyph-name="uni0435" unicode="&#x435;" horiz-adv-x="534" 
d="M270 513h11c121 0 185 -78 185 -226v-27c0 -3 -2 -5 -5 -5h-366v-62c0 -114 82 -182 191 -182h4c54 0 109 18 156 43c2 1 5 0 5 -3v-13c0 -5 -2 -8 -6 -10c-40 -22 -104 -41 -154 -41h-6c-122 0 -215 76 -215 207v82c0 148 84 237 200 237zM280 489h-8.99902
c-102.48 0 -175.261 -80.1797 -176.001 -210h346c0 144 -55 210 -161 210z" />
    <glyph glyph-name="uni0451" unicode="&#x451;" horiz-adv-x="534" 
d="M185.69 651.02h33c4 0 6 -2 6 -6v-39c0 -4 -2 -6 -6 -6h-33c-4 0 -6 2 -6 6v39c0 4 2 6 6 6zM319.69 651.02h33c4 0 6 -2 6 -6v-39c0 -4 -2 -6 -6 -6h-33c-4 0 -6 2 -6 6v39c0 4 2 6 6 6zM270 513h11c121 0 185 -78 185 -226v-27c0 -3 -2 -5 -5 -5h-366v-62
c0 -114 82 -182 191 -182h4c54 0 109 18 156 43c2 1 5 0 5 -3v-13c0 -5 -2 -8 -6 -10c-40 -22 -104 -41 -154 -41h-6c-122 0 -215 76 -215 207v82c0 148 84 237 200 237zM280 489h-8.99902c-102.48 0 -175.261 -80.1797 -176.001 -210h346c0 144 -55 210 -161 210z" />
    <glyph glyph-name="uni0436" unicode="&#x436;" horiz-adv-x="694" 
d="M474.41 258l188 -249c3 -4 1 -9 -4 -9h-16c-3 0 -6 1 -8 4l-182.93 242h-92.0703v-241c0 -3 -2 -5 -5 -5h-15c-3 0 -5 2 -5 5v241h-92.0703l-182.93 -242c-2 -3 -5 -4 -8 -4h-16c-5 0 -7 5 -4 9l188 249l-167 233c-3 4 -1 9 4 9h15c3 0 6 -2 8 -4l162.38 -226h92.6201
v225c0 3 2 5 5 5h15c3 0 5 -2 5 -5v-225h92.6201l162.38 226c2 2 5 4 8 4h15c5 0 7 -5 4 -9z" />
    <glyph glyph-name="uni0437" unicode="&#x437;" horiz-adv-x="435" 
d="M194 513h11c112 0 164 -58 164 -130v-10c0 -47.4297 -24.5703 -91.54 -77.9199 -114.5c68.9697 -17.46 98.9199 -63.8701 98.9199 -122.5v-10c0 -72 -62 -139 -179 -139h-11c-47 0 -114 19 -149 41c-4 2 -6 5 -6 10v13c0 3 3 4 5 3c42 -25 100 -43 151 -43h9
c104 0 155 59 155 114v12c0 58 -38 105 -142 105h-85c-3 0 -5 2 -5 5v14c0 3 2 5 5 5h61c104 0 145 54 145 106v12c0 55 -41 105 -140 105h-9c-48 0 -100 -18 -142 -43c-2 -1 -5 0 -5 3v13c0 5 2 8 6 10c35 22 96 41 140 41z" />
    <glyph glyph-name="uni0438" unicode="&#x438;" horiz-adv-x="538" 
d="M429 500h24c3 0 5 -2 5 -5v-490c0 -3 -2 -5 -5 -5h-15c-3 0 -5 2 -5 5v464.79h-1.15039l-137.85 -205.79l-174 -258c-3 -4 -6 -6 -11 -6h-24c-3 0 -5 2 -5 5v490c0 3 2 5 5 5h15c3 0 5 -2 5 -5v-464.75h1.13965l311.86 463.75c3 4 6 6 11 6z" />
    <glyph glyph-name="uni0439" unicode="&#x439;" horiz-adv-x="538" 
d="M397.18 657.02c4 3 8 0 8 -4v-12c0 -5 -2 -8 -5 -10c-19 -15 -66 -41 -125 -41s-106 26 -125 41c-3 2 -5 5 -5 10v12c0 4 4 7 8 4c26 -18 64 -43 122 -43s96 25 122 43zM429 500h24c3 0 5 -2 5 -5v-490c0 -3 -2 -5 -5 -5h-15c-3 0 -5 2 -5 5v464.79h-1.15039
l-137.85 -205.79l-174 -258c-3 -4 -6 -6 -11 -6h-24c-3 0 -5 2 -5 5v490c0 3 2 5 5 5h15c3 0 5 -2 5 -5v-464.75h1.13965l311.86 463.75c3 4 6 6 11 6z" />
    <glyph glyph-name="uni043A" unicode="&#x43a;" horiz-adv-x="461" 
d="M242 258l188 -249c3 -4 1 -9 -4 -9h-16c-3 0 -6 1 -8 4l-182.93 242h-112.07v-241c0 -3 -2 -5 -5 -5h-15c-3 0 -5 2 -5 5v490c0 3 2 5 5 5h15c3 0 5 -2 5 -5v-225h112.62l162.38 226c2 2 5 4 8 4h15c5 0 7 -5 4 -9z" />
    <glyph glyph-name="uni043B" unicode="&#x43b;" horiz-adv-x="555" 
d="M176 500h294c3 0 5 -2 5 -5v-490c0 -3 -2 -5 -5 -5h-15c-3 0 -5 2 -5 5v471h-255.44l-27.5596 -363c-5 -61 -23 -126 -88 -126h-6c-12 0 -26 3 -37 8c-5 2 -6 5 -6 9v10c0 4 3 7 7 5c14 -6 23 -8 37 -8h4c44 0 60 45 64 101l29 383c0 3 2 5 5 5z" />
    <glyph glyph-name="uni043C" unicode="&#x43c;" horiz-adv-x="624" 
d="M514 500h25c3 0 5 -2 5 -5v-490c0 -3 -2 -5 -5 -5h-15c-3 0 -5 2 -5 5v466h-1.08008l-186.92 -304c-2.61035 -4.26953 -6 -6 -11 -6h-16c-5 0 -8.37988 1.74023 -11 6l-186.92 304h-1.08008v-466c0 -3 -2 -5 -5 -5h-15c-3 0 -5 2 -5 5v490c0 3 2 5 5 5h25c5 0 8 -2 11 -6
l189.95 -310h2.17969l189.87 310c3 4 6 6 11 6z" />
    <glyph glyph-name="uni043D" unicode="&#x43d;" horiz-adv-x="535" 
d="M435 500h15c3 0 5 -2 5 -5v-490c0 -3 -2 -5 -5 -5h-15c-3 0 -5 2 -5 5v239h-325v-239c0 -3 -2 -5 -5 -5h-15c-3 0 -5 2 -5 5v490c0 3 2 5 5 5h15c3 0 5 -2 5 -5v-227h325v227c0 3 2 5 5 5z" />
    <glyph glyph-name="uni043E" unicode="&#x43e;" horiz-adv-x="563" 
d="M276 513h11c118 0 206 -78 206 -226v-74c0 -148 -88 -226 -206 -226h-11c-118 0 -206 78 -206 226v74c0 148 88 226 206 226zM286 489h-9c-105 0 -182 -70 -182 -201v-76c0 -131 77 -201 182 -201h9c105 0 182 70 182 201v76c0 131 -77 201 -182 201z" />
    <glyph glyph-name="uni043F" unicode="&#x43f;" horiz-adv-x="539" 
d="M85 500h369c3 0 5 -2 5 -5v-490c0 -3 -2 -5 -5 -5h-15c-3 0 -5 2 -5 5v471h-329v-471c0 -3 -2 -5 -5 -5h-15c-3 0 -5 2 -5 5v490c0 3 2 5 5 5z" />
    <glyph glyph-name="uni0440" unicode="&#x440;" horiz-adv-x="549" 
d="M282 513h4c122 0 193 -78 193 -226v-74c0 -148 -71 -226 -193 -226h-4c-53 0 -123 26 -175 87v-236c0 -3 -2 -5 -5 -5h-15c-3 0 -5 2 -5 5v657c0 3 2 5 5 5h15c3 0 5 -2 5 -5v-69c52 61 122 87 175 87zM285 489h-2c-58 0 -118 -28 -176 -97v-284c58 -69 118 -97 176 -97
h2c109 0 169 70 169 201v76c0 131 -60 201 -169 201z" />
    <glyph glyph-name="uni0441" unicode="&#x441;" horiz-adv-x="507" 
d="M285 513h11c50 0 102 -19 137 -41c4 -2 6 -5 6 -10v-13c0 -3 -3 -4 -5 -3c-42 25 -85 43 -139 43h-9c-104 0 -191 -70 -191 -201v-76c0 -131 87 -201 191 -201h9c54 0 97 18 139 43c2 1 5 0 5 -3v-13c0 -5 -2 -8 -6 -10c-35 -22 -87 -41 -137 -41h-11
c-117 0 -215 78 -215 226v74c0 148 98 226 215 226z" />
    <glyph glyph-name="uni0442" unicode="&#x442;" horiz-adv-x="463" 
d="M35 500h393c3 0 5 -2 5 -5v-14c0 -3 -2 -5 -5 -5h-184v-471c0 -3 -2 -5 -5 -5h-15c-3 0 -5 2 -5 5v471h-184c-3 0 -5 2 -5 5v14c0 3 2 5 5 5z" />
    <glyph glyph-name="uni0443" unicode="&#x443;" horiz-adv-x="487" 
d="M439.36 500h14c3 0 4 -2 3 -5l-215 -549c-34 -86 -63 -126 -128 -126h-6c-12 0 -39 5 -59 14c-5 2 -6 5 -6 9v10c0 4 3 7 7 5c23 -10 42 -14 59 -14h4c44 0 72 24 102 101l21.0303 55h-3.03027c-5 0 -9 3 -11 8l-191 487c-1 3 0 5 4 5h13c5 0 9 -3 11 -8l183.58 -468
h2.83008l183.59 468c2 5 6 8 11 8z" />
    <glyph glyph-name="uni045E" unicode="&#x45e;" horiz-adv-x="487" 
d="M365.45 657.02c4 3 8 0 8 -4v-12c0 -5 -2 -8 -5 -10c-19 -15 -66 -41 -125 -41s-106 26 -125 41c-3 2 -5 5 -5 10v12c0 4 4 7 8 4c26 -18 64 -43 122 -43s96 25 122 43zM439.36 500h14c3 0 4 -2 3 -5l-215 -549c-34 -86 -63 -126 -128 -126h-6c-12 0 -39 5 -59 14
c-5 2 -6 5 -6 9v10c0 4 3 7 7 5c23 -10 42 -14 59 -14h4c44 0 72 24 102 101l21.0303 55h-3.03027c-5 0 -9 3 -11 8l-191 487c-1 3 0 5 4 5h13c5 0 9 -3 11 -8l183.58 -468h2.83008l183.59 468c2 5 6 8 11 8z" />
    <glyph glyph-name="uni0444" unicode="&#x444;" horiz-adv-x="733" 
d="M379 513h68c118 0 216 -78 216 -226v-74c0 -148 -98 -226 -216 -226h-68v-149c0 -3 -2 -5 -5 -5h-15c-3 0 -5 2 -5 5v149h-68c-118 0 -216 78 -216 226v74c0 148 98 226 216 226h68v219c0 3 2 5 5 5h15c3 0 5 -2 5 -5v-219zM354 489h-67c-105 0 -192 -70 -192 -201v-76
c0 -131 87 -201 192 -201h67v478zM638 212v76c0 131 -87 201 -192 201h-67v-478h67c105 0 192 70 192 201z" />
    <glyph glyph-name="uni0445" unicode="&#x445;" horiz-adv-x="435" 
d="M375.41 500h14.9893c5 0 7 -5 4 -9l-160 -233l169 -249c3 -4 1 -9 -4 -9h-15c-3 0 -6 1 -8 4l-157.6 231h-2.79004l-157.6 -231c-2 -3 -5 -4 -8 -4h-15c-5 0 -7 5 -4 9l169 249l-161 233c-2 4 -1 9 4 9h15c3 0 7 -2 8 -4l119 -171l30.8398 -45h2.21973l148.94 216
c2 2 5 4 8 4z" />
    <glyph glyph-name="uni0447" unicode="&#x447;" horiz-adv-x="522" 
d="M424 500l15 -0.00976562c3 0 5 -2 5 -5v-490c0 -3 -2 -5 -5 -5h-15c-3 0 -5 2 -5 5v194.07c-50.5801 -36.4902 -117.01 -57.0703 -172 -57.0703h-4c-119 0 -165 69 -165 188v165c0 3 2 5 5 5h15c3 0 5 -2 5 -5v-166c0 -102 35 -163 141 -163h2
c56.4697 0 119.18 21.8096 173 64.04v264.97c0 3 2 5 5 5z" />
    <glyph glyph-name="uni0446" unicode="&#x446;" horiz-adv-x="572" 
d="M459 24h78c3 0 5 -2 5 -5v-150c0 -3 -2 -5 -5 -5h-15c-3 0 -5 2 -5 5v131h-432c-3 0 -5 2 -5 5v490c0 3 2 5 5 5h15c3 0 5 -2 5 -5v-471h329v471c0 3 2 5 5 5h15c3 0 5 -2 5 -5v-471z" />
    <glyph glyph-name="uni0448" unicode="&#x448;" horiz-adv-x="811" 
d="M711 500h15c3 0 5 -2 5 -5v-490c0 -3 -2 -5 -5 -5h-641c-3 0 -5 2 -5 5v490c0 3 2 5 5 5h15c3 0 5 -2 5 -5v-471h288v471c0 3 2 5 5 5h15c3 0 5 -2 5 -5v-471h288v471c0 3 2 5 5 5z" />
    <glyph glyph-name="uni0449" unicode="&#x449;" horiz-adv-x="844" 
d="M731 24h78c3 0 5 -2 5 -5v-150c0 -3 -2 -5 -5 -5h-15c-3 0 -5 2 -5 5v131h-704c-3 0 -5 2 -5 5v490c0 3 2 5 5 5h15c3 0 5 -2 5 -5v-471h288v471c0 3 2 5 5 5h15c3 0 5 -2 5 -5v-471h288v471c0 3 2 5 5 5h15c3 0 5 -2 5 -5v-471z" />
    <glyph glyph-name="uni044F" unicode="&#x44f;" horiz-adv-x="497" 
d="M231.82 500l180 -0.00976562c3 0 5 -2 5 -5v-490c0 -3 -2 -5 -5 -5h-15c-3 0 -5 2 -5 5v204l-166.65 0.169922l-151.35 -203.17c-2.98047 -4.00977 -6 -6 -11 -6h-11c-6 0 -9 6 -5 11l148.99 200.27c-91.1299 12.1104 -129.99 71.1699 -129.99 139.74v10
c0 82 49 139 166 139zM391.82 475.99h-159c-104 0 -142 -49 -142 -114v-12c0 -60 38 -117 142 -117h159v243z" />
    <glyph glyph-name="uni044C" unicode="&#x44c;" horiz-adv-x="473" 
d="M105 299h157c117 0 166 -57 166 -139v-10c0 -82 -49 -150 -166 -150h-177c-3 0 -5 2 -5 5v490c0 3 2 5 5 5h15c3 0 5 -2 5 -5v-196zM105 24h156c104 0 142 60 142 125v12c0 65 -38 114 -142 114h-156v-251z" />
    <glyph glyph-name="uni044A" unicode="&#x44a;" horiz-adv-x="528" 
d="M160 299h157c117 0 166 -57 166 -139v-10c0 -82 -49 -150 -166 -150h-177c-3 0 -5 2 -5 5v471h-100c-3 0 -5 2 -5 5v14c0 3 2 5 5 5h120c3 0 5 -2 5 -5v-196zM160 24h156c104 0 142 60 142 125v12c0 65 -38 114 -142 114h-156v-251z" />
    <glyph glyph-name="uni044B" unicode="&#x44b;" horiz-adv-x="628" 
d="M105 299h157c117 0 166 -57 166 -139v-10c0 -82 -49 -150 -166 -150h-177c-3 0 -5 2 -5 5v490c0 3 2 5 5 5h15c3 0 5 -2 5 -5v-196zM528 500h15c3 0 5 -2 5 -5v-490c0 -3 -2 -5 -5 -5h-15c-3 0 -5 2 -5 5v490c0 3 2 5 5 5zM403 149v12c0 65 -38 114 -142 114h-156v-251
h156c104 0 142 60 142 125z" />
    <glyph glyph-name="uni0454" unicode="&#x454;" horiz-adv-x="507" 
d="M295 489h-9c-104 0 -191 -70 -191 -201v-20h268c3 0 5 -2 5 -5v-14c0 -3 -2 -5 -5 -5h-268v-32c0 -131 87 -201 191 -201h9c54 0 97 18 139 43c2 1 5 0 5 -3v-13c0 -5 -2 -8 -6 -10c-35 -22 -87 -41 -137 -41h-11c-117 0 -215 78 -215 226v74c0 148 98 226 215 226h11
c50 0 102 -19 137 -41c4 -2 6 -5 6 -10v-13c0 -3 -3 -4 -5 -3c-42 25 -85 43 -139 43z" />
    <glyph glyph-name="uni044D" unicode="&#x44d;" horiz-adv-x="507" 
d="M211 513h11c117 0 215 -78 215 -226v-74c0 -148 -98 -226 -215 -226h-11c-50 0 -102 19 -137 41c-4 2 -6 5 -6 10v13c0 3 3 4 5 3c42 -25 85 -43 139 -43h9c104 0 191 70 191 201v32h-268c-3 0 -5 2 -5 5v14c0 3 2 5 5 5h268v20c0 131 -87 201 -191 201h-9
c-54 0 -97 -18 -139 -43c-2 -1 -5 0 -5 3v13c0 5 2 8 6 10c35 22 87 41 137 41z" />
    <glyph glyph-name="uni0456" unicode="&#x456;" horiz-adv-x="201" 
d="M88 651.02h27c4 0 6 -2 6 -6v-39c0 -4 -2 -6 -6 -6h-27c-4 0 -6 2 -6 6v39c0 4 2 6 6 6zM94 500h15c3 0 5 -2 5 -5v-490c0 -3 -2 -5 -5 -5h-15c-3 0 -5 2 -5 5v490c0 3 2 5 5 5z" />
    <glyph glyph-name="uni0457" unicode="&#x457;" horiz-adv-x="187" 
d="M11.46 651.02h33c4 0 6 -2 6 -6v-39c0 -4 -2 -6 -6 -6h-33c-4 0 -6 2 -6 6v39c0 4 2 6 6 6zM145.46 651.02h33c4 0 6 -2 6 -6v-39c0 -4 -2 -6 -6 -6h-33c-4 0 -6 2 -6 6v39c0 4 2 6 6 6zM87 500h15c3 0 5 -2 5 -5v-490c0 -3 -2 -5 -5 -5h-15c-3 0 -5 2 -5 5v490
c0 3 2 5 5 5z" />
    <glyph glyph-name="uni044E" unicode="&#x44e;" horiz-adv-x="726" 
d="M439 513h11c118 0 206 -78 206 -226v-74c0 -148 -88 -226 -206 -226h-11c-118 0 -206 78 -206 226v31h-128v-239c0 -3 -2 -5 -5 -5h-15c-3 0 -5 2 -5 5v490c0 3 2 5 5 5h15c3 0 5 -2 5 -5v-227h128v19c0 148 88 226 206 226zM631 212v76c0 131 -77 201 -182 201h-9
c-105 0 -182 -70 -182 -201v-76c0 -131 77 -201 182 -201h9c105 0 182 70 182 201z" />
    <glyph glyph-name="uni0430.ss01" horiz-adv-x="542" 
d="M456 458c4 -3 6 -7 6 -11v-442c0 -3 -2 -5 -5 -5h-15c-3 0 -5 2 -5 5v69c-52 -61 -122 -87 -175 -87h-4c-122 0 -188 78 -188 226v74c0 148 76 226 193 226h6c62 0 147 -31 187 -55zM437 108v330c-46 27 -110 51 -169 51h-4c-104 0 -169 -70 -169 -201v-76
c0 -131 55 -201 164 -201h2c58 0 118 28 176 97z" />
    <glyph glyph-name="uni0443.ss01" 
d="M431 500h15c3 0 5 -2 5 -5l-0.00976562 -490.33c-0.799805 -120.5 -63.7598 -184.67 -182.99 -184.67h-6c-50 0 -114 19 -154 41c-4 2 -6 5 -6 10v13c0 3 3 4 5 3c47 -25 102 -43 156 -43h4c107 0 159 57 159 162v60.7998
c-51.6504 -45.5098 -123.92 -79.7998 -183 -79.7998h-4c-119 0 -161 69 -161 188v320c0 3 2 5 5 5h15c3 0 5 -2 5 -5v-321c0 -102 31 -163 137 -163h2c60.3701 0 127.86 35.5898 184 87.4697v396.53c0 3 2 5 5 5z" />
    <glyph glyph-name="uni045E.ss01" 
d="M383.29 657.02c4 3 8 0 8 -4v-12c0 -5 -2 -8 -5 -10c-19 -15 -66 -41 -125 -41s-106 26 -125 41c-3 2 -5 5 -5 10v12c0 4 4 7 8 4c26 -18 64 -43 122 -43s96 25 122 43zM431 500h15c3 0 5 -2 5 -5l-0.00976562 -490.33
c-0.799805 -120.5 -63.7598 -184.67 -182.99 -184.67h-6c-50 0 -114 19 -154 41c-4 2 -6 5 -6 10v13c0 3 3 4 5 3c47 -25 102 -43 156 -43h4c107 0 159 57 159 162v60.7998c-51.6504 -45.5098 -123.92 -79.7998 -183 -79.7998h-4c-119 0 -161 69 -161 188v320c0 3 2 5 5 5
h15c3 0 5 -2 5 -5v-321c0 -102 31 -163 137 -163h2c60.3701 0 127.86 35.5898 184 87.4697v396.53c0 3 2 5 5 5z" />
    <glyph glyph-name="uni0430.ss02" horiz-adv-x="488" 
d="M81 500h324c3 0 5 -2 5 -5v-490c0 -3 -2 -5 -5 -5h-15c-3 0 -5 2 -5 5v69c-52 -61 -122 -87 -175 -87h-6c-99 0 -164 54 -164 143v4c0 110 78 157 234 162l111 3.5498v176.45h-304c-3 0 -5 2 -5 5v14c0 3 2 5 5 5zM385 274.5l-126 -4.5c-133 -5 -194 -49 -194 -136v-5
c0 -72 54 -118 140 -118h4c58 0 118 28 176 97v166.5z" />
    <glyph glyph-name="uni0431.ss02" horiz-adv-x="537" 
d="M270 500h4c122 0 193 -78 193 -226v-61c0 -148 -81 -226 -192 -226h-11c-118 0 -194 78 -194 226v519c0 3 2 5 5 5h347.59c3 0 5 -2 5 -5v-14c0 -3 -2 -5 -5 -5h-327.59v-300c52 61 122 87 175 87zM442 212v63c0 131 -60 201 -169 201h-2c-58 0 -118 -28 -176 -97v-167
c0 -131 65 -201 170 -201h9c98 0 168 70 168 201z" />
    <glyph glyph-name="uni0442.ss02" horiz-adv-x="811" 
d="M726 0h-15c-3 0 -5 2 -5 5v471h-288v-471c0 -3 -2 -5 -5 -5h-15c-3 0 -5 2 -5 5v471h-288v-471c0 -3 -2 -5 -5 -5h-15c-3 0 -5 2 -5 5v490c0 3 2 5 5 5h641c3 0 5 -2 5 -5v-490c0 -3 -2 -5 -5 -5z" />
    <glyph glyph-name="uni0443.ss02" 
d="M431 500h15c3 0 5 -2 5 -5v-657c0 -3 -2 -5 -5 -5h-346c-3 0 -5 2 -5 5v14c0 3 2 5 5 5h326v209.8c-51.6504 -45.5098 -123.92 -79.7998 -183 -79.7998h-4c-119 0 -161 69 -161 188v320c0 3 2 5 5 5h15c3 0 5 -2 5 -5v-321c0 -102 31 -163 137 -163h2
c60.3701 0 127.86 35.5898 184 87.4697v396.53c0 3 2 5 5 5z" />
    <glyph glyph-name="uni045E.ss02" 
d="M383.29 657.02c4 3 8 0 8 -4v-12c0 -5 -2 -8 -5 -10c-19 -15 -66 -41 -125 -41s-106 26 -125 41c-3 2 -5 5 -5 10v12c0 4 4 7 8 4c26 -18 64 -43 122 -43s96 25 122 43zM431 500h15c3 0 5 -2 5 -5v-657c0 -3 -2 -5 -5 -5h-346c-3 0 -5 2 -5 5v14c0 3 2 5 5 5h326v209.8
c-51.6504 -45.5098 -123.92 -79.7998 -183 -79.7998h-4c-119 0 -161 69 -161 188v320c0 3 2 5 5 5h15c3 0 5 -2 5 -5v-321c0 -102 31 -163 137 -163h2c60.3701 0 127.86 35.5898 184 87.4697v396.53c0 3 2 5 5 5z" />
    <glyph glyph-name="zero" unicode="0" horiz-adv-x="657" 
d="M321 713h15c141 0 241 -95 241 -297v-132c0 -202 -100 -297 -241 -297h-15c-141 0 -241 95 -241 297v132c0 202 100 297 241 297zM335 689h-13c-128 0 -217 -86 -217 -279v-120c0 -193 89 -279 217 -279h13c128 0 217 86 217 279v120c0 193 -89 279 -217 279z" />
    <glyph glyph-name="one" unicode="1" horiz-adv-x="375" 
d="M205 24h125c3 0 5 -2 5 -5v-14c0 -3 -2 -5 -5 -5h-285c-3 0 -5 2 -5 5v14c0 3 2 5 5 5h135v647l-135 -57c-3 -1 -5 1 -5 4v15c0 4 2 7 5 8l134 57c4 2 7 2 10 2h11c3 0 5 -2 5 -5v-671z" />
    <glyph glyph-name="two" unicode="2" horiz-adv-x="549" 
d="M94 24h390c3 0 5 -2 5 -5v-14c0 -3 -2 -5 -5 -5h-419c-3 0 -5 2 -5 5v16c0 2 0 4 2 6l176 181c87 89 215 216 215 311v5c0 113 -91 165 -177 165h-8c-74 0 -129 -23 -174 -48c-2 -1 -5 0 -5 3v13c0 5 2 8 6 10c38 22 102 46 172 46h10c99 0 201 -61 201 -183v-11
c0 -110 -144 -249 -213 -320z" />
    <glyph glyph-name="three" unicode="3" horiz-adv-x="532" 
d="M335.25 367.61c109.01 -25.96 146.75 -107.179 146.75 -172.619v-21c0 -103 -89 -187 -225 -187h-10c-76 0 -140 24 -178 46c-4 2 -6 5 -6 10v13c0 3 3 4 5 3c45 -25 100 -48 180 -48h8c123 0 201 75 201 169v9c0 70 -44 163 -199.98 163.47h-93.0195c-3 0 -5 2 -5 5
v13.5303c0 3 2 5 5 5h74c138 0 191 86 191 151v10c0 92 -74 152 -181 152h-8c-75 0 -130 -23 -175 -48c-2 -1 -5 0 -5 3v13c0 5 2 8 6 10c38 22 102 46 173 46h10c120 0 205 -69 205 -170v-22c0 -55.7305 -36.3096 -123.381 -118.75 -153.381z" />
    <glyph glyph-name="four" unicode="4" horiz-adv-x="593" 
d="M393.62 700h24.3799c3 0 5 -2 5 -5v-476h125c3 0 5 -2 5 -5v-14c0 -3 -2 -5 -5 -5h-125v-190c0 -3 -2 -5 -5 -5h-15c-3 0 -5 2 -5 5v190h-353c-3 0 -5 2 -5 5v16c0 2 0 4 2 6l341 473c3.03027 4.2002 6 5 10.6201 5zM71 219h327v453.27z" />
    <glyph glyph-name="five" unicode="5" horiz-adv-x="532" 
d="M270 409c151 0 212 -93 212 -202v-19c0 -108 -86 -201 -225 -201h-10c-76 0 -143 24 -181 46c-4 2 -6 5 -6 10v13c0 3 3 4 5 3c45 -25 103 -48 183 -48h8c126 0 201 84 201 183v7c0 101 -50 184 -188 184c-58 0 -126 -22 -165 -30c-6 -1 -9 1 -12 5l-6 8c-1 2 -2 4 -2 7
v320c0 3 2 5 5 5h339c3 0 5 -2 5 -5v-14c0 -3 -2 -5 -5 -5h-319v-293.58c40.2305 9.15039 107.25 26.5801 161 26.5801z" />
    <glyph glyph-name="six" unicode="6" horiz-adv-x="579" 
d="M323 416c131 0 205.99 -81.001 205.99 -192.001v-19c0 -114 -78 -218 -217 -218h-9c-137 0 -223 111 -223 283v19c0 355 143 424 244 424h10c64 0 119 -24 157 -46c4 -2 6 -5 6 -10v-13c0 -3 -3 -4 -5 -3c-45 25 -91 48 -159 48h-8
c-81.8604 0 -201.79 -51.9199 -218.13 -337.68c56.2998 32.4404 138.76 64.6807 216.14 64.6807zM503.99 210.999v7.00098c0 103 -64 174 -182 174c-79.8604 0 -159.71 -36.1104 -216.41 -70.0107l-0.589844 -45.9902c0 -163 75 -265 199 -265h7c126 0 193 95 193 200z" />
    <glyph glyph-name="seven" unicode="7" 
d="M45 700h439c3 0 5 -2 5 -5v-16c0 -2 0 -3 -2 -6l-253 -331c-2 -3 -3 -5 -3 -9v-328c0 -3 -2 -5 -5 -5h-15c-3 0 -5 2 -5 5v337c0 4 1 6 3 9l248 325h-412c-3 0 -5 2 -5 5v14c0 3 2 5 5 5z" />
    <glyph glyph-name="eight" unicode="8" horiz-adv-x="587" 
d="M289 713l9 -0.00976562c126 0 211 -69 211 -170v-22c0 -55.7998 -36.3896 -123.55 -119.479 -153.49c109.7 -26.3301 147.48 -108.69 147.48 -172.5v-21c0 -103 -89 -187 -236 -187h-15c-147 0 -236 84 -236 187v21c0 63.7598 37.71 146.04 147.22 172.45
c-82.7803 29.9102 -119.221 97.71 -119.221 153.55v22c0 101 85 170 211 170zM297 688.99h-6.99902c-113 0 -187 -60 -187 -152v-10c0 -63.71 50 -151 180.01 -150.9l15.7197 -0.00976562c134.27 -0.0898438 185.27 87.1201 185.27 150.91v10c0 92 -74 152 -187 152z
M311.001 351.99h-35c-157 0 -201 -95 -201 -163v-9c0 -94 78 -169 212 -169h13c134 0 212 75 212 169v9c0 68 -44 163 -201 163z" />
    <glyph glyph-name="nine" unicode="9" horiz-adv-x="579" 
d="M267 713l8.99902 0.000976562c137 0 223 -111 223 -283v-19c0 -355 -143 -424 -244 -424h-10c-64 0 -119 24 -157 46c-4 2 -6 5 -6 10v13c0 3 3 4 5 3c45 -25 91 -48 159 -48h8c81.8604 0 201.801 51.9199 218.131 337.68
c-56.29 -32.4404 -138.76 -64.6807 -216.13 -64.6807c-131 0 -206 81 -206 192v19c0 114 78 218 217 218zM274.999 689.001h-6.99023c-126 0 -193 -95 -193 -200v-7c0 -103 64 -174 182 -174c79.8496 0 159.71 36.0996 216.41 70.0098l0.580078 45.9902
c0 163 -75 265 -199 265z" />
    <glyph glyph-name="zero.osf" horiz-adv-x="591" 
d="M290 513h11c122 0 210 -78 210 -226v-74c0 -148 -88 -226 -210 -226h-11c-122 0 -210 78 -210 226v74c0 148 88 226 210 226zM300 489h-9c-109 0 -186 -70 -186 -201v-76c0 -131 77 -201 186 -201h9c109 0 186 70 186 201v76c0 131 -77 201 -186 201z" />
    <glyph glyph-name="one.osf" horiz-adv-x="375" 
d="M205 24h125c3 0 5 -2 5 -5v-14c0 -3 -2 -5 -5 -5h-285c-3 0 -5 2 -5 5v14c0 3 2 5 5 5h135v447l-135 -57c-3 -1 -5 1 -5 4v15c0 4 2 7 5 8l134 57c4 2 7 2 10 2h11c3 0 5 -2 5 -5v-471z" />
    <glyph glyph-name="two.osf" horiz-adv-x="549" 
d="M111 24h373c3 0 5 -2 5 -5v-14c0 -3 -2 -5 -5 -5h-419c-3 0 -5 2 -5 5v11c0 4 2 6 5 8l137 84c149 91 231 151 231 243v5c0 97 -82 133 -154 133h-8c-66 0 -122 -23 -167 -48c-2 -1 -5 0 -5 3v13c0 5 2 8 6 10c38 22 103 46 165 46h10c85 0 178 -45 178 -151v-11
c0 -99 -86 -167 -220 -250z" />
    <glyph glyph-name="three.osf" horiz-adv-x="532" 
d="M335.25 167.61c109.01 -25.96 146.75 -107.179 146.75 -172.619v-21c0 -103 -89 -187 -225 -187h-10c-76 0 -140 24 -178 46c-4 2 -6 5 -6 10v13c0 3 3 4 5 3c45 -25 100 -48 180 -48h8c123 0 201 75 201 169v9c0 70 -44 163 -199.98 163.47h-93.0195c-3 0 -5 2 -5 5
v13.5303c0 3 2 5 5 5h74c138 0 191 86 191 151v10c0 92 -74 152 -181 152h-8c-75 0 -130 -23 -175 -48c-2 -1 -5 0 -5 3v13c0 5 2 8 6 10c38 22 102 46 173 46h10c120 0 205 -69 205 -170v-22c0 -55.7305 -36.3096 -123.381 -118.75 -153.381z" />
    <glyph glyph-name="four.osf" horiz-adv-x="593" 
d="M394 500h24c3 0 5 -2 5 -5v-476h125c3 0 5 -2 5 -5v-14c0 -3 -2 -5 -5 -5h-125v-190c0 -3 -2 -5 -5 -5h-15c-3 0 -5 2 -5 5v190h-353c-3 0 -5 2 -5 5v16c0 2 0 4 2 6l341 473c3 4 6 5 11 5zM71 19h327v453.27z" />
    <glyph glyph-name="five.osf" horiz-adv-x="532" 
d="M270 209c151 0 212 -93 212 -202v-19c0 -108 -86 -201 -225 -201h-10c-76 0 -143 24 -181 46c-4 2 -6 5 -6 10v13c0 3 3 4 5 3c45 -25 103 -48 183 -48h8c126 0 201 84 201 183v7c0 101 -50 184 -188 184c-58 0 -126 -22 -165 -30c-6 -1 -9 1 -12 5l-6 8c-1 2 -2 4 -2 7
v320c0 3 2 5 5 5h339c3 0 5 -2 5 -5v-14c0 -3 -2 -5 -5 -5h-319v-293.58c40.2305 9.15039 107.25 26.5801 161 26.5801z" />
    <glyph glyph-name="six.osf" horiz-adv-x="579" 
d="M323 416c131 0 205.99 -81.001 205.99 -192.001v-19c0 -114 -78 -218 -217 -218h-9c-137 0 -223 111 -223 283v19c0 355 143 424 244 424h10c64 0 119 -24 157 -46c4 -2 6 -5 6 -10v-13c0 -3 -3 -4 -5 -3c-45 25 -91 48 -159 48h-8
c-81.8604 0 -201.79 -51.9199 -218.13 -337.68c56.2998 32.4404 138.76 64.6807 216.14 64.6807zM503.99 210.999v7.00098c0 103 -64 174 -182 174c-79.8604 0 -159.71 -36.1104 -216.41 -70.0107l-0.589844 -45.9902c0 -163 75 -265 199 -265h7c126 0 193 95 193 200z" />
    <glyph glyph-name="seven.osf" 
d="M45 500h439c3 0 5 -2 5 -5v-16c0 -2 0 -3 -2 -6l-253 -331c-2 -3 -3 -5 -3 -9v-328c0 -3 -2 -5 -5 -5h-15c-3 0 -5 2 -5 5v337c0 4 1 6 3 9l248 325h-412c-3 0 -5 2 -5 5v14c0 3 2 5 5 5z" />
    <glyph glyph-name="eight.osf" horiz-adv-x="587" 
d="M289 713l9.00098 -0.00976562c126 0 211 -69 211 -170v-22c0 -55.7998 -36.4004 -123.55 -119.48 -153.49c109.7 -26.3301 147.48 -108.69 147.48 -172.5v-21c0 -103 -89 -187 -236 -187h-15c-147 0 -236 84 -236 187v21c0 63.7598 37.71 146.04 147.22 172.45
c-82.7803 29.9102 -119.221 97.71 -119.221 153.55v22c0 101 85 170 211 170zM297.001 688.99h-7c-113 0 -187 -60 -187 -152v-10c0 -64 50 -151 180 -151h16c134 0 185 87 185 151v10c0 92 -74 152 -187 152zM311.001 351.99h-35c-157 0 -201 -95 -201 -163v-9
c0 -94 78 -169 212 -169h13c134 0 212 75 212 169v9c0 68 -44 163 -201 163z" />
    <glyph glyph-name="nine.osf" horiz-adv-x="579" 
d="M267 513l8.99902 0.000976562c137 0 223 -111 223 -283v-19c0 -355 -143 -424 -244 -424h-10c-64 0 -119 24 -157 46c-4 2 -6 5 -6 10v13c0 3 3 4 5 3c45 -25 91 -48 159 -48h8c81.8604 0 201.801 51.9199 218.131 337.68
c-56.29 -32.4404 -138.76 -64.6807 -216.13 -64.6807c-131 0 -206 81 -206 192v19c0 114 78 218 217 218zM274.999 489.001h-6.99023c-126 0 -193 -95 -193 -200v-7c0 -103 64 -174 182 -174c79.8496 0 159.71 36.0996 216.41 70.0098l0.580078 45.9902
c0 163 -75 265 -199 265z" />
    <glyph glyph-name="zero.zero" horiz-adv-x="657" 
d="M321 713h15c141 0 241 -95 241 -297v-132c0 -202 -100 -297 -241 -297h-15c-141 0 -241 95 -241 297v132c0 202 100 297 241 297zM105 410l-0.00976562 -120.001c0 -106.81 27.2598 -180.84 73.2998 -225.67l279.96 588.48
c-34.0996 24.4805 -76.0195 36.1904 -123.25 36.1904h-13c-128 0 -217 -86 -217 -279zM551.99 289.999v120.001c0 107.3 -27.5098 181.52 -73.9297 226.289l-279.65 -588.87c34.1602 -24.6396 76.2002 -36.4199 123.58 -36.4199h13c128 0 217 86 217 279z" />
    <glyph glyph-name="zero.osf.zero" horiz-adv-x="591" 
d="M290 513h11c122 0 210 -78 210 -226v-74c0 -148 -88 -226 -210 -226h-11c-122 0 -210 78 -210 226v74c0 148 88 226 210 226zM105 288v-76c0 -80.6104 29.1602 -138.12 76.9805 -170.44l204.3 429.71c-25.2803 11.7402 -54.4102 17.7305 -86.2803 17.7305h-9
c-109 0 -186 -70 -186 -201zM486 212l0.000976562 76.001c0 80.8496 -29.3301 138.46 -77.4102 170.729l-204.49 -429.71c25.4199 -11.9404 54.7695 -18.0205 86.8994 -18.0205h9c109 0 186 70 186 201z" />
    <glyph glyph-name="fraction" unicode="&#x2044;" horiz-adv-x="154" 
d="M235.75 700h11c6 0 8 -4 6 -9l-325 -684c-2 -4 -4 -7 -10 -7h-11c-6 0 -8 4 -6 9l325 684c2 4 4 7 10 7z" />
    <glyph glyph-name="onehalf" unicode="&#xbd;" horiz-adv-x="782" 
d="M162 347h82c3 0 5 -2 5 -5v-14c0 -3 -2 -5 -5 -5h-199c-3 0 -5 2 -5 5v14c0 3 2 5 5 5h92v325l-92 -39c-3 -1 -5 1 -5 4v14c0 4 2 7 5 8l91 39c4 2 7 2 10 2h11c3 0 5 -2 5 -5v-348zM524.75 700h11c6 0 8 -4 6 -9l-325 -684c-2 -4 -4 -7 -10 -7h-11c-6 0 -8 4 -6 9
l325 684c2 4 4 7 10 7zM601.5 390h10c55 0 113 -38 113 -104v-11c0 -69 -72 -127 -168 -216l-38 -35h218c3 0 5 -2 5 -5v-14c0 -3 -2 -5 -5 -5h-249c-3 0 -5 2 -5 5v16c0 2 0 4 2 6l47 43c97 89 168 146 168 205v5c0 57 -47 86 -89 86h-8c-40 0 -69 -12 -102 -30
c-2 -1 -5 0 -5 3v13c0 5 2 8 6 10c26 15 64 28 100 28z" />
    <glyph glyph-name="onequarter" unicode="&#xbc;" horiz-adv-x="836" 
d="M162 347h82c3 0 5 -2 5 -5v-14c0 -3 -2 -5 -5 -5h-199c-3 0 -5 2 -5 5v14c0 3 2 5 5 5h92v325l-92 -39c-3 -1 -5 1 -5 4v14c0 4 2 7 5 8l91 39c4 2 7 2 10 2h11c3 0 5 -2 5 -5v-348zM524.75 700h11c6 0 8 -4 6 -9l-325 -684c-2 -4 -4 -7 -10 -7h-11c-6 0 -8 4 -6 9
l325 684c2 4 4 7 10 7zM708.5 126h82c3 0 5 -2 5 -5v-14c0 -3 -2 -5 -5 -5h-82v-97c0 -3 -2 -5 -5 -5h-15c-3 0 -5 2 -5 5v97h-196c-3 0 -5 2 -5 5v9c0 5 1 6 3 9l182 243c4 6 8 9 17 9h19c3 0 5 -2 5 -5v-246zM683.5 350.19l-167.27 -224.19h167.27v224.19z" />
    <glyph glyph-name="threequarters" unicode="&#xbe;" horiz-adv-x="879" 
d="M155 713l5 -0.00976562c65 0 123 -38 123 -101v-8c0 -38.9404 -23.6504 -68.5107 -56.3604 -84.8008c37.9902 -15 65.3604 -46.7598 65.3604 -92.1895v-11c0 -61 -58 -106 -133 -106h-8c-36 0 -77 13 -105 28c-4 2 -6 5 -6 10v13c0 3 3 4 5 3c35 -18 67 -30 107 -30h6
c62 0 109 36 109 88v5c0 33 -24 78 -94 78.2197l-66 -0.219727c-3 0 -5 2 -5 5v14c0 3 2 5 5 5h58c67 0 93 45 93 75v2c0 54 -47 83 -99 83h-3c-38 0 -70 -12 -105 -30c-2 -1 -5 0 -5 3v13c0 5 2 8 6 10c28 15 69 28 103 28zM567.75 699.99h11c6 0 8 -4 6 -9l-325 -684
c-2 -4 -4 -7 -10 -7h-11c-6 0 -8 4 -6 9l325 684c2 4 4 7 10 7zM751.5 125.99h82c3 0 5 -2 5 -5v-14c0 -3 -2 -5 -5 -5h-82v-97c0 -3 -2 -5 -5 -5h-15c-3 0 -5 2 -5 5v97h-196c-3 0 -5 2 -5 5v9c0 5 1 6 3 9l182 243c4 6 8 9 17 9h19c3 0 5 -2 5 -5v-246zM726.5 350.19
l-167.27 -224.2h167.27v224.2z" />
    <glyph glyph-name="oneeighth" unicode="&#x215b;" horiz-adv-x="796" 
d="M162 347h82c3 0 5 -2 5 -5v-14c0 -3 -2 -5 -5 -5h-199c-3 0 -5 2 -5 5v14c0 3 2 5 5 5h92v325l-92 -39c-3 -1 -5 1 -5 4v14c0 4 2 7 5 8l91 39c4 2 7 2 10 2h11c3 0 5 -2 5 -5v-348zM524.75 700h11c6 0 8 -4 6 -9l-325 -684c-2 -4 -4 -7 -10 -7h-11c-6 0 -8 4 -6 9
l325 684c2 4 4 7 10 7zM687.47 195.92c39.0801 -16.2002 68.0303 -50.7393 68.0303 -94.9189v-11c0 -60 -57 -103 -130 -103h-13c-73 0 -130 43 -130 103v11c0 44.0195 29.2402 78.4697 68.4004 94.7393c-34.0703 16.1904 -59.4004 45.9502 -59.4004 85.2598v8
c0 63 60 101 125 101h5c65 0 125 -38 125 -101v-8c0 -39.1699 -25.1504 -68.8496 -59.0303 -85.0801zM516.5 283.001v-2c0 -30 29 -75 96 -75h13c67 0 96 45 96 75v2c0 54 -49 83 -101 83h-3c-52 0 -101 -29 -101 -83zM730.5 96.001v5c0 31 -27 81 -97 81h-29
c-70 0 -97 -50 -97 -81v-5c0 -52 47 -85 109 -85h5c62 0 109 33 109 85z" />
    <glyph glyph-name="threeeighths" unicode="&#x215c;" horiz-adv-x="839" 
d="M155 713l5 -0.00976562c65 0 123 -38 123 -101v-8c0 -38.9404 -23.6504 -68.5107 -56.3604 -84.8008c37.9902 -15 65.3604 -46.7598 65.3604 -92.1895v-11c0 -61 -58 -106 -133 -106h-8c-36 0 -77 13 -105 28c-4 2 -6 5 -6 10v13c0 3 3 4 5 3c35 -18 67 -30 107 -30h6
c62 0 109 36 109 88v5c0 33 -24 78 -94 78.2197l-66 -0.219727c-3 0 -5 2 -5 5v14c0 3 2 5 5 5h58c67 0 93 45 93 75v2c0 54 -47 83 -99 83h-3c-38 0 -70 -12 -105 -30c-2 -1 -5 0 -5 3v13c0 5 2 8 6 10c28 15 69 28 103 28zM567.75 699.99h11c6 0 8 -4 6 -9l-325 -684
c-2 -4 -4 -7 -10 -7h-11c-6 0 -8 4 -6 9l325 684c2 4 4 7 10 7zM730.47 195.91c39.0801 -16.2002 68.0303 -50.7285 68.0303 -94.9189v-11c0 -60 -57 -103 -130 -103h-13c-73 0 -130 43 -130 103v11c0 44.0303 29.2402 78.4707 68.4004 94.7402
c-34.0703 16.2002 -59.4004 45.9502 -59.4004 85.2598v8c0 63 60 101 125 101h5c65 0 125 -38 125 -101v-8c0 -39.1602 -25.1504 -68.8506 -59.0303 -85.0811zM559.5 282.992v-2c0 -30 29 -75 96 -75h13c67 0 96 45 96 75v2c0 54 -49 83 -101 83h-3c-52 0 -101 -29 -101 -83
zM773.5 95.9922v5c0 31 -27 81 -97 81h-29c-70 0 -97 -50 -97 -81v-5c0 -52 47 -85 109 -85h5c62 0 109 33 109 85z" />
    <glyph glyph-name="fiveeighths" unicode="&#x215d;" horiz-adv-x="843" 
d="M61 700h203c3 0 5 -2 5 -5v-14c0 -3 -2 -5 -5 -5h-183v-148c27 8 69 19 96 19c62 0 119 -33 119 -112v-11c0 -62 -53 -114 -132 -114h-8c-38 0 -82 13 -110 28c-4 2 -6 5 -6 10v13c0 3 3 4 5 3c35 -18 70 -30 112 -30h6c66 0 108 41 108 94v5c0 47 -25 90 -94 90
c-28 0 -70 -11 -96 -19c-5 -1 -7 -2 -13 1l-5 3c-5 3 -7 5 -7 10v177c0 3 2 5 5 5zM571.75 700h11c6 0 8 -4 6 -9l-325 -684c-2 -4 -4 -7 -10 -7h-11c-6 0 -8 4 -6 9l325 684c2 4 4 7 10 7zM734.47 195.92c39.0801 -16.2002 68.0303 -50.7393 68.0303 -94.9189v-11
c0 -60 -57 -103 -130 -103h-13c-73 0 -130 43 -130 103v11c0 44.0195 29.2402 78.4697 68.4004 94.7393c-34.0703 16.1904 -59.4004 45.9502 -59.4004 85.2598v8c0 63 60 101 125 101h5c65 0 125 -38 125 -101v-8c0 -39.1699 -25.1504 -68.8496 -59.0303 -85.0801z
M563.5 283.001v-2c0 -30 29 -75 96 -75h13c67 0 96 45 96 75v2c0 54 -49 83 -101 83h-3c-52 0 -101 -29 -101 -83zM777.5 96.001v5c0 31 -27 81 -97 81h-29c-70 0 -97 -50 -97 -81v-5c0 -52 47 -85 109 -85h5c62 0 109 33 109 85z" />
    <glyph glyph-name="seveneighths" unicode="&#x215e;" horiz-adv-x="763" 
d="M45 700h246c3 0 5 -2 5 -5v-7c0 -5 -1 -8 -7 -16l-135 -171c-3 -4 -5 -7 -5 -14v-159c0 -3 -2 -5 -5 -5h-15c-3 0 -5 2 -5 5v166c0 7 2 10 5 14l133 168h-217c-3 0 -5 2 -5 5v14c0 3 2 5 5 5zM491.75 700h11c6 0 8 -4 6 -9l-325 -684c-2 -4 -4 -7 -10 -7h-11
c-6 0 -8 4 -6 9l325 684c2 4 4 7 10 7zM654.47 195.92c39.0801 -16.2002 68.0303 -50.7393 68.0303 -94.9189v-11c0 -60 -57 -103 -130 -103h-13c-73 0 -130 43 -130 103v11c0 44.0195 29.2402 78.4697 68.4004 94.7393c-34.0703 16.1904 -59.4004 45.9502 -59.4004 85.2598
v8c0 63 60 101 125 101h5c65 0 125 -38 125 -101v-8c0 -39.1699 -25.1504 -68.8496 -59.0303 -85.0801zM483.5 283.001v-2c0 -30 29 -75 96 -75h13c67 0 96 45 96 75v2c0 54 -49 83 -101 83h-3c-52 0 -101 -29 -101 -83zM697.5 96.001v5c0 31 -27 81 -97 81h-29
c-70 0 -97 -50 -97 -81v-5c0 -52 47 -85 109 -85h5c62 0 109 33 109 85z" />
    <glyph glyph-name="zero.dnom" horiz-adv-x="415" 
d="M202 390h11c103 0 162 -76 162 -187v-29c0 -111 -59 -187 -162 -187h-11c-103 0 -162 76 -162 187v29c0 111 59 187 162 187zM212 366h-9c-90 0 -138 -68 -138 -162v-31c0 -94 48 -162 138 -162h9c90 0 138 68 138 162v31c0 94 -48 162 -138 162z" />
    <glyph glyph-name="one.dnom" horiz-adv-x="289" 
d="M162 24h82c3 0 5 -2 5 -5v-14c0 -3 -2 -5 -5 -5h-199c-3 0 -5 2 -5 5v14c0 3 2 5 5 5h92v325l-92 -39c-3 -1 -5 1 -5 4v14c0 4 2 7 5 8l91 39c4 2 7 2 10 2h11c3 0 5 -2 5 -5v-348z" />
    <glyph glyph-name="two.dnom" horiz-adv-x="339" 
d="M159 390h10c55 0 113 -38 113 -104v-11c0 -69 -72 -127 -168 -216l-38 -35h218c3 0 5 -2 5 -5v-14c0 -3 -2 -5 -5 -5h-249c-3 0 -5 2 -5 5v16c0 2 0 4 2 6l47 43c97 89 168 146 168 205v5c0 57 -47 86 -89 86h-8c-40 0 -69 -12 -102 -30c-2 -1 -5 0 -5 3v13c0 5 2 8 6 10
c26 15 64 28 100 28z" />
    <glyph glyph-name="three.dnom" horiz-adv-x="332" 
d="M155 390l5 -0.00976562c65 0 123 -38 123 -101v-8c0 -38.9404 -23.6504 -68.5107 -56.3604 -84.8008c37.9902 -15 65.3604 -46.7598 65.3604 -92.1895v-11c0 -61 -58 -106 -133 -106h-8c-36 0 -77 13 -105 28c-4 2 -6 5 -6 10v13c0 3 3 4 5 3c35 -18 67 -30 107 -30h6
c62 0 109 36 109 88v5c0 33 -24 78 -94 78.2197l-66 -0.219727c-3 0 -5 2 -5 5v14c0 3 2 5 5 5h58c67 0 93 45 93 75v2c0 54 -47 83 -99 83h-3c-38 0 -70 -12 -105 -30c-2 -1 -5 0 -5 3v13c0 5 2 8 6 10c28 15 69 28 103 28z" />
    <glyph glyph-name="four.dnom" horiz-adv-x="393" 
d="M266 126h82c3 0 5 -2 5 -5v-14c0 -3 -2 -5 -5 -5h-82v-97c0 -3 -2 -5 -5 -5h-15c-3 0 -5 2 -5 5v97h-196c-3 0 -5 2 -5 5v9c0 5 1 6 3 9l182 243c4 6 8 9 17 9h19c3 0 5 -2 5 -5v-246zM241 350.19l-167.27 -224.19h167.27v224.19z" />
    <glyph glyph-name="five.dnom" horiz-adv-x="336" 
d="M61 377h203c3 0 5 -2 5 -5v-14c0 -3 -2 -5 -5 -5h-183v-148c27 8 69 19 96 19c62 0 119 -33 119 -112v-11c0 -62 -53 -114 -132 -114h-8c-38 0 -82 13 -110 28c-4 2 -6 5 -6 10v13c0 3 3 4 5 3c35 -18 70 -30 112 -30h6c66 0 108 41 108 94v5c0 47 -25 90 -94 90
c-28 0 -70 -11 -96 -19c-5 -1 -7 -2 -13 1l-5 3c-5 3 -7 5 -7 10v177c0 3 2 5 5 5z" />
    <glyph glyph-name="six.dnom" horiz-adv-x="344" 
d="M184 390h7c24 0 58 -11 86 -28c4 -2 6 -5 6 -10v-13c0 -3 -3 -4 -5 -3c-35 20 -60 30 -88 30h-5c-63 0 -115 -59 -120 -180c43 27 86 38 120 38c61 0 119 -31 119 -109v-11c0 -61 -52 -117 -124 -117h-8c-54 0 -132 32 -132 177v11c0 142 65 215 144 215zM187 200
c-38 0 -81 -15 -122 -43v-4c0 -100 53 -142 108 -142h6c59 0 100 45 100 97v5c0 46 -27 87 -92 87z" />
    <glyph glyph-name="seven.dnom" horiz-adv-x="256" 
d="M45 377h246c3 0 5 -2 5 -5v-7c0 -5 -1 -8 -7 -16l-135 -171c-3 -4 -5 -7 -5 -14v-159c0 -3 -2 -5 -5 -5h-15c-3 0 -5 2 -5 5v166c0 7 2 10 5 14l133 168h-217c-3 0 -5 2 -5 5v14c0 3 2 5 5 5z" />
    <glyph glyph-name="eight.dnom" horiz-adv-x="353" 
d="M244.97 195.92c39.0801 -16.2002 68.0303 -50.7393 68.0303 -94.9189v-11c0 -60 -57 -103 -130 -103h-13c-73 0 -130 43 -130 103v11c0 44.0195 29.2402 78.4697 68.4004 94.7393c-34.0703 16.1904 -59.4004 45.9502 -59.4004 85.2598v8c0 63 60 101 125 101h5
c65 0 125 -38 125 -101v-8c0 -39.1699 -25.1504 -68.8496 -59.0303 -85.0801zM74 283.001v-2c0 -30 29 -75 96 -75h13c67 0 96 45 96 75v2c0 54 -49 83 -101 83h-3c-52 0 -101 -29 -101 -83zM288 96.001v5c0 31 -27 81 -97 81h-29c-70 0 -97 -50 -97 -81v-5
c0 -52 47 -85 109 -85h5c62 0 109 33 109 85z" />
    <glyph glyph-name="nine.dnom" horiz-adv-x="344" 
d="M160 -13h-7c-24 0 -58 11 -86 28c-4 2 -6 5 -6 10v13c0 3 3 4 5 3c35 -20 60 -30 88 -30h5c63 0 115 59 120 180c-43 -27 -86 -38 -120 -38c-61 0 -119 31 -119 109v11c0 61 52 117 124 117h8c54 0 132 -32 132 -177v-11c0 -142 -65 -215 -144 -215zM157 177
c38 0 81 15 122 43v4c0 100 -53 142 -108 142h-6c-59 0 -100 -45 -100 -97v-5c0 -46 27 -87 92 -87z" />
    <glyph glyph-name="zero.numr" horiz-adv-x="415" 
d="M202 713h11c103 0 162 -76 162 -187v-29c0 -111 -59 -187 -162 -187h-11c-103 0 -162 76 -162 187v29c0 111 59 187 162 187zM212 689h-9c-90 0 -138 -68 -138 -162v-31c0 -94 48 -162 138 -162h9c90 0 138 68 138 162v31c0 94 -48 162 -138 162z" />
    <glyph glyph-name="one.numr" horiz-adv-x="289" 
d="M162 347h82c3 0 5 -2 5 -5v-14c0 -3 -2 -5 -5 -5h-199c-3 0 -5 2 -5 5v14c0 3 2 5 5 5h92v325l-92 -39c-3 -1 -5 1 -5 4v14c0 4 2 7 5 8l91 39c4 2 7 2 10 2h11c3 0 5 -2 5 -5v-348z" />
    <glyph glyph-name="two.numr" horiz-adv-x="339" 
d="M159 713h10c55 0 113 -38 113 -104v-11c0 -69 -72 -127 -168 -216l-38 -35h218c3 0 5 -2 5 -5v-14c0 -3 -2 -5 -5 -5h-249c-3 0 -5 2 -5 5v16c0 2 0 4 2 6l47 43c97 89 168 146 168 205v5c0 57 -47 86 -89 86h-8c-40 0 -69 -12 -102 -30c-2 -1 -5 0 -5 3v13c0 5 2 8 6 10
c26 15 64 28 100 28z" />
    <glyph glyph-name="three.numr" horiz-adv-x="332" 
d="M155 713l5 -0.00976562c65 0 123 -38 123 -101v-8c0 -38.9404 -23.6504 -68.5107 -56.3604 -84.8008c37.9902 -15 65.3604 -46.7598 65.3604 -92.1895v-11c0 -61 -58 -106 -133 -106h-8c-36 0 -77 13 -105 28c-4 2 -6 5 -6 10v13c0 3 3 4 5 3c35 -18 67 -30 107 -30h6
c62 0 109 36 109 88v5c0 33 -24 78 -94 78.2197l-66 -0.219727c-3 0 -5 2 -5 5v14c0 3 2 5 5 5h58c67 0 93 45 93 75v2c0 54 -47 83 -99 83h-3c-38 0 -70 -12 -105 -30c-2 -1 -5 0 -5 3v13c0 5 2 8 6 10c28 15 69 28 103 28z" />
    <glyph glyph-name="four.numr" horiz-adv-x="393" 
d="M266 449h82c3 0 5 -2 5 -5v-14c0 -3 -2 -5 -5 -5h-82v-97c0 -3 -2 -5 -5 -5h-15c-3 0 -5 2 -5 5v97h-196c-3 0 -5 2 -5 5v9c0 5 1 6 3 9l182 243c4 6 8 9 17 9h19c3 0 5 -2 5 -5v-246zM241 673l-167 -224h167v224z" />
    <glyph glyph-name="five.numr" horiz-adv-x="336" 
d="M61 700h203c3 0 5 -2 5 -5v-14c0 -3 -2 -5 -5 -5h-183v-148c27 8 69 19 96 19c62 0 119 -33 119 -112v-11c0 -62 -53 -114 -132 -114h-8c-38 0 -82 13 -110 28c-4 2 -6 5 -6 10v13c0 3 3 4 5 3c35 -18 70 -30 112 -30h6c66 0 108 41 108 94v5c0 47 -25 90 -94 90
c-28 0 -70 -11 -96 -19c-5 -1 -7 -2 -13 1l-5 3c-5 3 -7 5 -7 10v177c0 3 2 5 5 5z" />
    <glyph glyph-name="six.numr" horiz-adv-x="344" 
d="M184 713h7c24 0 58 -11 86 -28c4 -2 6 -5 6 -10v-13c0 -3 -3 -4 -5 -3c-35 20 -60 30 -88 30h-5c-63 0 -115 -59 -120 -180c43 27 86 38 120 38c61 0 119 -31 119 -109v-11c0 -61 -52 -117 -124 -117h-8c-54 0 -132 32 -132 177v11c0 142 65 215 144 215zM187 523
c-38 0 -81 -15 -122 -43v-4c0 -100 53 -142 108 -142h6c59 0 100 45 100 97v5c0 46 -27 87 -92 87z" />
    <glyph glyph-name="seven.numr" horiz-adv-x="256" 
d="M45 700h246c3 0 5 -2 5 -5v-7c0 -5 -1 -8 -7 -16l-135 -171c-3 -4 -5 -7 -5 -14v-159c0 -3 -2 -5 -5 -5h-15c-3 0 -5 2 -5 5v166c0 7 2 10 5 14l133 168h-217c-3 0 -5 2 -5 5v14c0 3 2 5 5 5z" />
    <glyph glyph-name="eight.numr" horiz-adv-x="353" 
d="M245 519c39 -17 68 -51 68 -95v-11c0 -60 -57 -103 -130 -103h-13c-73 0 -130 43 -130 103v11c0 44 29 78 68 94c-34 17 -59 46 -59 86v8c0 63 60 101 125 101h5c65 0 125 -38 125 -101v-8c0 -39 -25 -69 -59 -85zM74 606v-2c0 -30 29 -75 96 -75h13c67 0 96 45 96 75v2
c0 54 -49 83 -101 83h-3c-52 0 -101 -29 -101 -83zM288 419v5c0 31 -27 81 -97 81h-29c-70 0 -97 -50 -97 -81v-5c0 -52 47 -85 109 -85h5c62 0 109 33 109 85z" />
    <glyph glyph-name="nine.numr" horiz-adv-x="344" 
d="M160 310h-7c-24 0 -58 11 -86 28c-4 2 -6 5 -6 10v13c0 3 3 4 5 3c35 -20 60 -30 88 -30h5c63 0 115 59 120 180c-43 -27 -86 -38 -120 -38c-61 0 -119 31 -119 109v11c0 61 52 117 124 117h8c54 0 132 -32 132 -177v-11c0 -142 -65 -215 -144 -215zM157 500
c38 0 81 15 122 43v4c0 100 -53 142 -108 142h-6c-59 0 -100 -45 -100 -97v-5c0 -46 27 -87 92 -87z" />
    <glyph glyph-name="zero.dnom.zero" horiz-adv-x="415" 
d="M202 390h11c103 0 162 -76 162 -187v-29c0 -111 -59 -187 -162 -187h-11c-103 0 -162 76 -162 187v29c0 111 59 187 162 187zM65 204l-0.00976562 -31c0 -59.4502 19.2002 -108.5 56.0801 -136.53l150.92 317.22c-17.2598 7.98047 -37.29 12.3105 -59.9902 12.3105h-9
c-90 0 -138 -68 -138 -162zM349.99 173l0.000976562 30.999c0 59.7803 -19.4102 109.05 -56.7002 136.99l-150.69 -317.5c17.3496 -8.09961 37.5098 -12.4893 60.3896 -12.4893h9c90 0 138 68 138 162z" />
    <glyph glyph-name="zero.numr.zero" horiz-adv-x="415" 
d="M202 713h11c103 0 162 -76 162 -187v-29c0 -111 -59 -187 -162 -187h-11c-103 0 -162 76 -162 187v29c0 111 59 187 162 187zM65 527l-0.00976562 -31c0 -59.4502 19.2002 -108.5 56.0801 -136.53l150.92 317.22c-17.2598 7.98047 -37.29 12.3105 -59.9902 12.3105h-9
c-90 0 -138 -68 -138 -162zM349.99 496l0.000976562 30.999c0 59.7803 -19.4102 109.05 -56.7002 136.99l-150.69 -317.5c17.3496 -8.09961 37.5098 -12.4893 60.3896 -12.4893h9c90 0 138 68 138 162z" />
    <glyph glyph-name="asterisk" unicode="*" horiz-adv-x="402" 
d="M355.37 603l6 -19c1 -3 0 -6 -3 -7l-138.34 -46.4297l98.3398 -111.57c2 -2 2 -5 0 -7l-16 -13c-3 -2 -5 -2 -7 0l-94.5 118.6l-94.5 -118.6c-2 -2 -4 -2 -7 0l-16 13c-2 2 -2 5 0 7l98.3398 111.57l-138.34 46.4297c-3 1 -4 4 -3 7l6 19c1 3 3 6 8 4l134.61 -53.4805
l-3.61035 141.48c0 3 2 5 5 5h21c3 0 5 -2 5 -5l-3.59961 -141.48l134.6 53.4805c5 2 7 -1 8 -4z" />
    <glyph glyph-name="atsmall" unicode="&#xfe6b;" horiz-adv-x="652" 
d="M277.73 512.74l96.8887 -0.00878906c122.75 0 197.73 -63.04 197.73 -197.06v-171.15c0 -60.3896 -50.1299 -70.3701 -66.7295 -70.3701h-15.5703c-15.9199 0 -62.2295 9.0498 -62.2295 53.5098c-33.6699 -35.3203 -76.6104 -53.5107 -109.61 -53.5107h-2.65039
c-82.9502 0 -126.74 51.7598 -126.74 149.96v49.0996c0 98.2002 50.4297 149.95 130.06 149.95h3.98047c41.1299 0 99.5303 -20.5703 126.07 -36.4902c2.66016 -1.99023 3.98047 -4.65039 3.98047 -7.30078v-234.22c0 -40.5898 19.54 -46.5596 39.1396 -46.5596h11.5703
c19.5898 0 43.1299 8.96973 43.1299 49.5596v163.54c0 125.06 -67.6797 176.119 -172.81 176.119h-95.54c-105.13 0 -172.81 -51.0596 -172.81 -176.119v-114.41c0 -134.05 67.6797 -185.109 172.81 -185.109h156.58c1.99023 0 3.32031 -1.33008 3.32031 -3.32031v-18.29
c0 -1.99023 -1.33008 -3.31055 -3.32031 -3.31055h-157.25c-122.75 0 -197.73 63.0303 -197.73 197.061v131.37c0 134.03 74.9805 197.061 197.73 197.061zM322.119 399.041l-2.49023 0.00976562c-65.0098 0 -105.64 -43.7598 -105.64 -125.64v-47.5
c0 -81.8799 34.3799 -125.64 102.51 -125.64h1.25c36.25 0 73.7598 17.5 110.01 60.6299v206.27c-28.75 16.8701 -68.7598 31.8701 -105.64 31.8701z" />
    <glyph glyph-name="backslash" unicode="\" horiz-adv-x="288" 
d="M46.75 700h10c7 0 9 -3 10 -7l180 -684c2 -7 0 -9 -6 -9h-10c-7 0 -9 3 -10 7l-180 684c-2 7 0 9 6 9z" />
    <glyph glyph-name="periodcentered" unicode="&#xb7;" horiz-adv-x="125" 
d="M46 314h33c4 0 6 -2 6 -6v-39c0 -4 -2 -6 -6 -6h-33c-4 0 -6 2 -6 6v39c0 4 2 6 6 6z" />
    <glyph glyph-name="bullet" unicode="&#x2022;" horiz-adv-x="170" 
d="M85 331c25 0 45 -20 45 -45s-20 -45 -45 -45s-45 20 -45 45s20 45 45 45z" />
    <glyph glyph-name="colon" unicode=":" horiz-adv-x="125" 
d="M46 440h33c4 0 6 -2 6 -6v-39c0 -4 -2 -6 -6 -6h-33c-4 0 -6 2 -6 6v39c0 4 2 6 6 6zM46 51h33c4 0 6 -2 6 -6v-39c0 -4 -2 -6 -6 -6h-33c-4 0 -6 2 -6 6v39c0 4 2 6 6 6z" />
    <glyph glyph-name="comma" unicode="," horiz-adv-x="136" 
d="M55.0596 51h35c4 0 6 -2 6 -6v-34c0 -3 0 -6 -1 -10l-30 -164c0 -3 -3 -4 -5 -4h-15c-6 0 -5 5 -5 9l29 158h-14c-4 0 -6 2 -6 6v39c0 4 2 6 6 6z" />
    <glyph glyph-name="ellipsis" unicode="&#x2026;" horiz-adv-x="597" 
d="M46 51h33c4 0 6 -2 6 -6v-39c0 -4 -2 -6 -6 -6h-33c-4 0 -6 2 -6 6v39c0 4 2 6 6 6zM282 51h33c4 0 6 -2 6 -6v-39c0 -4 -2 -6 -6 -6h-33c-4 0 -6 2 -6 6v39c0 4 2 6 6 6zM518 51h33c4 0 6 -2 6 -6v-39c0 -4 -2 -6 -6 -6h-33c-4 0 -6 2 -6 6v39c0 4 2 6 6 6z" />
    <glyph glyph-name="exclam" unicode="!" horiz-adv-x="125" 
d="M53 700h19c3 0 5 -2 5 -5l-3 -501c0 -3 -2 -5 -5 -5h-13c-3 0 -5 2 -5 5l-3 501c0 3 2 5 5 5zM46 51h33c4 0 6 -2 6 -6v-39c0 -4 -2 -6 -6 -6h-33c-4 0 -6 2 -6 6v39c0 4 2 6 6 6z" />
    <glyph glyph-name="exclamdown" unicode="&#xa1;" horiz-adv-x="125" 
d="M46 533h33c4 0 6 -2 6 -6v-39c0 -4 -2 -6 -6 -6h-33c-4 0 -6 2 -6 6v39c0 4 2 6 6 6zM56 344h13c3 0 5 -2 5 -5l3 -501c0 -3 -2 -5 -5 -5h-19c-3 0 -5 2 -5 5l3 501c0 3 2 5 5 5z" />
    <glyph glyph-name="numbersign" unicode="#" horiz-adv-x="541" 
d="M394.08 443h100.259c7 0 7 -3 6 -7l-3 -10c-1 -4 -2 -7 -9 -7h-100.57l-36.3203 -138h100.9c6 0 7 -3 6 -7l-3 -10c-1 -4 -3 -7 -9 -7h-101.21l-65.79 -250c-1 -4 -3 -7 -10 -7h-10c-6 0 -8 2 -6 9l65.2598 248h-146.47l-65.79 -250c-1 -4 -3 -7 -10 -7h-10
c-6 0 -8 2 -6 9l65.2598 248h-100.26c-5 0 -6 3 -5 7l2 10c1 4 3 7 9 7h100.58l36.3203 138.02h-100.9c-5 0 -5.80957 2.95996 -5 7l2 9.98047c0.80957 4.04004 3 7 10 7h100.21l65.79 250c1 4 3 7 10 7h10c6 0 8 -2 6 -9l-65.2695 -248h146.48l65.79 250c1 4 3 7 10 7h10
c6 0 8 -2 6 -9zM361.239 419.01h-146.47l-36.3203 -138.01h146.47z" />
    <glyph glyph-name="period" unicode="." horiz-adv-x="125" 
d="M46 51h33c4 0 6 -2 6 -6v-39c0 -4 -2 -6 -6 -6h-33c-4 0 -6 2 -6 6v39c0 4 2 6 6 6z" />
    <glyph glyph-name="question" unicode="?" horiz-adv-x="502" 
d="M227 713h10c140 0 225 -85 225 -188v-19c0 -97 -75 -187 -212 -187c-21 0 -43 2 -62 5l-1 -130c0 -3 -2 -5 -5 -5h-13c-3 0 -5 2 -5 5l-1 141c0 4 1 6 4 8l6 4c4 3 5 3 13 2c15 -2 28 -6 57 -6c134 0 194 82 194 169v7c0 94 -74 170 -201 170h-8c-80 0 -138 -23 -183 -48
c-2 -1 -5 0 -5 3v13c0 5 2 8 6 10c38 22 105 46 181 46zM159 51h33c4 0 6 -2 6 -6v-39c0 -4 -2 -6 -6 -6h-33c-4 0 -6 2 -6 6v39c0 4 2 6 6 6z" />
    <glyph glyph-name="questiondown" unicode="&#xbf;" horiz-adv-x="502" 
d="M310 533h33c4 0 6 -2 6 -6v-39c0 -4 -2 -6 -6 -6h-33c-4 0 -6 2 -6 6v39c0 4 2 6 6 6zM320 344h13c3 0 5 -2 5 -5l1 -141c0 -4 -1 -6 -4 -8l-6 -4c-4 -3 -5 -3 -13 -2c-15 2 -28 6 -57 6c-134 0 -194 -82 -194 -169v-7c0 -94 74 -170 201 -170h8c80 0 138 23 183 48
c2 1 5 0 5 -3v-13c0 -5 -2 -8 -6 -10c-38 -22 -105 -46 -181 -46h-10c-140 0 -225 85 -225 188v19c0 97 75 187 212 187c21 0 43 -2 62 -5l1 130c0 3 2 5 5 5z" />
    <glyph glyph-name="quotedbl" unicode="&#x22;" horiz-adv-x="221" 
d="M45 700h19c3 0 5 -2 5 -5l-3 -190c0 -3 -2 -5 -5 -5h-13c-3 0 -5 2 -5 5l-3 190c0 3 2 5 5 5zM157 700h19c3 0 5 -2 5 -5l-3 -190c0 -3 -2 -5 -5 -5h-13c-3 0 -5 2 -5 5l-3 190c0 3 2 5 5 5z" />
    <glyph glyph-name="quotesingle" unicode="'" horiz-adv-x="109" 
d="M45 700h19c3 0 5 -2 5 -5l-3 -190c0 -3 -2 -5 -5 -5h-13c-3 0 -5 2 -5 5l-3 190c0 3 2 5 5 5z" />
    <glyph glyph-name="semicolon" unicode=";" horiz-adv-x="136" 
d="M57.0596 440h33c4 0 6 -2 6 -6v-39c0 -4 -2 -6 -6 -6h-33c-4 0 -6 2 -6 6v39c0 4 2 6 6 6zM55.0596 51h35c4 0 6 -2 6 -6v-34c0 -3 0 -6 -1 -10l-30 -164c0 -3 -3 -4 -5 -4h-15c-6 0 -5 5 -5 9l29 158h-14c-4 0 -6 2 -6 6v39c0 4 2 6 6 6z" />
    <glyph glyph-name="slash" unicode="/" horiz-adv-x="288" 
d="M230.75 700h10c6 0 8 -2 6 -9l-180 -684c-1 -4 -3 -7 -10 -7h-10c-6 0 -8 2 -6 9l180 684c1 4 3 7 10 7z" />
    <glyph glyph-name="underscore" unicode="_" horiz-adv-x="544" 
d="M45 -47h454c3 0 5 -2 5 -5v-14c0 -3 -2 -5 -5 -5h-454c-3 0 -5 2 -5 5v14c0 3 2 5 5 5z" />
    <glyph glyph-name="braceleft" unicode="{" horiz-adv-x="340" 
d="M153 646v-321.002c0 -16.2998 -6.2002 -29.9395 -16.6699 -38.999c10.4697 -9.05957 16.6699 -22.6992 16.6699 -38.999v-320c0 -18 10 -30 28 -30h114c3 0 5 -2 5 -5v-14c0 -3 -2 -5 -5 -5h-116c-30 0 -51 21 -51 51v320c0 18 -10 30 -28 30h-55c-3 0 -5 2 -5 5v14
c0 3 2 5 5 5h55c18 0 28 12 28 30v321c0 30 21 51 51 51h116c3 0 5 -2 5 -5v-14c0 -3 -2 -5 -5 -5h-114c-18 0 -28 -12 -28 -30z" />
    <glyph glyph-name="braceright" unicode="}" horiz-adv-x="340" 
d="M240 298l55 0.00195312c3 0 5 -2 5 -5v-14c0 -3 -2 -5 -5 -5h-55c-18 0 -28 -12 -28 -30v-320c0 -30 -21 -51 -51 -51h-116c-3 0 -5 2 -5 5v14c0 3 2 5 5 5h114c18 0 28 12 28 30v320c0 16.2998 6.2002 29.9395 16.6699 38.999
c-10.4697 9.05957 -16.6699 22.6992 -16.6699 38.999v321c0 18 -10 30 -28 30h-114c-3 0 -5 2 -5 5v14c0 3 2 5 5 5h116c30 0 51 -21 51 -51v-321c0 -18 10 -30 28 -30z" />
    <glyph glyph-name="bracketleft" unicode="[" horiz-adv-x="312" 
d="M125 -103h142c3 0 5 -2 5 -5v-14c0 -3 -2 -5 -5 -5h-162c-3 0 -5 2 -5 5v817c0 3 2 5 5 5h162c3 0 5 -2 5 -5v-14c0 -3 -2 -5 -5 -5h-142v-779z" />
    <glyph glyph-name="bracketright" unicode="]" horiz-adv-x="312" 
d="M45 700h162c3 0 5 -2 5 -5v-817c0 -3 -2 -5 -5 -5h-162c-3 0 -5 2 -5 5v14c0 3 2 5 5 5h142v779h-142c-3 0 -5 2 -5 5v14c0 3 2 5 5 5z" />
    <glyph glyph-name="parenleft" unicode="(" horiz-adv-x="251" 
d="M105 506v-439c0 -130 55 -167 101 -183c3 -1 5 -2 5 -5v-14c0 -3 -2 -6 -5 -5c-70 15 -126 77 -126 193v467c0 116 56 178 126 193c3 1 5 -2 5 -5v-14c0 -3 -2 -4 -5 -5c-46 -16 -101 -53 -101 -183z" />
    <glyph glyph-name="parenright" unicode=")" horiz-adv-x="251" 
d="M146 67v439c0 130 -55 167 -101 183c-3 1 -5 2 -5 5v14c0 3 2 6 5 5c70 -15 126 -77 126 -193v-467c0 -116 -56 -178 -126 -193c-3 -1 -5 2 -5 5v14c0 3 2 4 5 5c46 16 101 53 101 183z" />
    <glyph glyph-name="emdash" unicode="&#x2014;" horiz-adv-x="618" 
d="M45 335h528c3 0 5 -2 5 -5v-14c0 -3 -2 -5 -5 -5h-528c-3 0 -5 2 -5 5v14c0 3 2 5 5 5z" />
    <glyph glyph-name="endash" unicode="&#x2013;" horiz-adv-x="544" 
d="M45 335h454c3 0 5 -2 5 -5v-14c0 -3 -2 -5 -5 -5h-454c-3 0 -5 2 -5 5v14c0 3 2 5 5 5z" />
    <glyph glyph-name="hyphen" unicode="-" horiz-adv-x="392" 
d="M45 335h302c3 0 5 -2 5 -5v-14c0 -3 -2 -5 -5 -5h-302c-3 0 -5 2 -5 5v14c0 3 2 5 5 5z" />
    <glyph glyph-name="guillemotleft" unicode="&#xab;" horiz-adv-x="373" 
d="M66 253l126 -149c3 -4 1 -7 -3 -7h-15c-3 0 -5 1 -7 3l-124 143c-2 2 -3 5 -3 8v4c0 3 1 6 3 8l124 143c2 2 4 3 7 3h15c4 0 6 -3 3 -7zM206 253l126 -149c3 -4 1 -7 -3 -7h-15c-3 0 -5 1 -7 3l-124 143c-2 2 -3 5 -3 8v4c0 3 1 6 3 8l124 143c2 2 4 3 7 3h15
c4 0 6 -3 3 -7z" />
    <glyph glyph-name="guillemotright" unicode="&#xbb;" horiz-adv-x="373" 
d="M167.44 253l-126 149c-3 4 -1 7 3 7h15c3 0 5 -1 7 -3l124 -143c2 -2 3 -5 3 -8v-4c0 -3 -1 -6 -3 -8l-124 -143c-2 -2 -4 -3 -7 -3h-15c-4 0 -6 3 -3 7zM307.44 253l-126 149c-3 4 -1 7 3 7h15c3 0 5 -1 7 -3l124 -143c2 -2 3 -5 3 -8v-4c0 -3 -1 -6 -3 -8l-124 -143
c-2 -2 -4 -3 -7 -3h-15c-4 0 -6 3 -3 7z" />
    <glyph glyph-name="guilsinglleft" unicode="&#x2039;" horiz-adv-x="233" 
d="M66 253l126 -149c3 -4 1 -7 -3 -7h-15c-3 0 -5 1 -7 3l-124 143c-2 2 -3 5 -3 8v4c0 3 1 6 3 8l124 143c2 2 4 3 7 3h15c4 0 6 -3 3 -7z" />
    <glyph glyph-name="guilsinglright" unicode="&#x203a;" horiz-adv-x="233" 
d="M167.44 253l-126 149c-3 4 -1 7 3 7h15c3 0 5 -1 7 -3l124 -143c2 -2 3 -5 3 -8v-4c0 -3 -1 -6 -3 -8l-124 -143c-2 -2 -4 -3 -7 -3h-15c-4 0 -6 3 -3 7z" />
    <glyph glyph-name="quotedblbase" unicode="&#x201e;" horiz-adv-x="268" 
d="M55.0596 51h35c4 0 6 -2 6 -6v-34c0 -3 0 -6 -1 -10l-30 -164c0 -3 -3 -4 -5 -4h-15c-6 0 -5 5 -5 9l29 158h-14c-4 0 -6 2 -6 6v39c0 4 2 6 6 6zM187.06 51h35c4 0 6 -2 6 -6v-34c0 -3 0 -6 -1 -10l-30 -164c0 -3 -3 -4 -5 -4h-15c-6 0 -5 5 -5 9l29 158h-14
c-4 0 -6 2 -6 6v39c0 4 2 6 6 6z" />
    <glyph glyph-name="quotedblleft" unicode="&#x201c;" horiz-adv-x="268" 
d="M81 482h-35c-4 0 -6 2 -6 6v34c0 3 0 6 1 10l30 164c0 3 3 4 5 4h15c6 0 5 -5 5 -9l-29 -158h14c4 0 6 -2 6 -6v-39c0 -4 -2 -6 -6 -6zM213 482h-35c-4 0 -6 2 -6 6v34c0 3 0 6 1 10l30 164c0 3 3 4 5 4h15c6 0 5 -5 5 -9l-29 -158h14c4 0 6 -2 6 -6v-39
c0 -4 -2 -6 -6 -6z" />
    <glyph glyph-name="quotedblright" unicode="&#x201d;" horiz-adv-x="268" 
d="M55.0596 700h35c4 0 6 -2 6 -6v-34c0 -3 0 -6 -1 -10l-30 -164c0 -3 -3 -4 -5 -4h-15c-6 0 -5 5 -5 9l29 158h-14c-4 0 -6 2 -6 6v39c0 4 2 6 6 6zM187.06 700h35c4 0 6 -2 6 -6v-34c0 -3 0 -6 -1 -10l-30 -164c0 -3 -3 -4 -5 -4h-15c-6 0 -5 5 -5 9l29 158h-14
c-4 0 -6 2 -6 6v39c0 4 2 6 6 6z" />
    <glyph glyph-name="quoteleft" unicode="&#x2018;" horiz-adv-x="136" 
d="M81 482h-35c-4 0 -6 2 -6 6v34c0 3 0 6 1 10l30 164c0 3 3 4 5 4h15c6 0 5 -5 5 -9l-29 -158h14c4 0 6 -2 6 -6v-39c0 -4 -2 -6 -6 -6z" />
    <glyph glyph-name="quoteright" unicode="&#x2019;" horiz-adv-x="136" 
d="M55.0596 700h35c4 0 6 -2 6 -6v-34c0 -3 0 -6 -1 -10l-30 -164c0 -3 -3 -4 -5 -4h-15c-6 0 -5 5 -5 9l29 158h-14c-4 0 -6 2 -6 6v39c0 4 2 6 6 6z" />
    <glyph glyph-name="quotesinglbase" unicode="&#x201a;" horiz-adv-x="136" 
d="M55.0596 51h35c4 0 6 -2 6 -6v-34c0 -3 0 -6 -1 -10l-30 -164c0 -3 -3 -4 -5 -4h-15c-6 0 -5 5 -5 9l29 158h-14c-4 0 -6 2 -6 6v39c0 4 2 6 6 6z" />
    <glyph glyph-name="space" unicode=" " horiz-adv-x="190" 
 />
    <glyph glyph-name="uni2009" unicode="&#x2009;" horiz-adv-x="600" 
 />
    <glyph glyph-name="cent" unicode="&#xa2;" horiz-adv-x="507" 
d="M295 489l-9 0.00292969c-104 0 -191 -70 -191 -201v-76c0 -131 87 -201 191 -201h9c54 0 97 18 139 43c2 1 5 0 5 -3v-13c0 -5 -2 -8 -6 -10c-33.3701 -20.9805 -82.1904 -39.2305 -130 -40.8809v-122.12c0 -3 -2 -5 -5 -5h-15c-3 0 -5 2 -5 5v122.09
c-113.89 3.05957 -208 80.8691 -208 225.909v74c0 145.04 94.1104 222.85 208 225.899v122.1c0 3 2 5 5 5h15c3 0 5 -2 5 -5v-122.12c47.8096 -1.66016 96.6299 -19.9102 130 -40.8799c4 -2 6 -5 6 -10v-13c0 -3 -3 -4 -5 -3c-42 25 -85 43 -139 43z" />
    <glyph glyph-name="currency" unicode="&#xa4;" horiz-adv-x="603" 
d="M478.21 121.29l83.291 -83.291c2 -2 2 -5 0 -7l-11 -11c-2 -2 -5 -2 -7 0l-83.3203 83.3203c-41.5596 -37.1396 -96.6191 -59.8594 -157.679 -60.3193c-61.6904 0.459961 -117.261 23.4297 -158.86 61.1299l-84.1396 -84.1299c-2 -2 -5 -2 -7 0l-11 11c-2 2 -2 5 0 7
l84.2402 84.2402c-36.75 41.5 -58.7002 96.25 -58.2402 156.76c0.469727 60.8398 22.7197 115.859 59.6494 157.34l-85.6504 85.6504c-2 2 -2 5 0 7l11 11c2 2 5 2 7 0l85.5996 -85.5898c41.25 37.1602 96.0898 59.6006 157.399 59.6006
c60.5 0 115.11 -22.0596 156.53 -58.4697l84.4697 84.4697c2 2 5 2 7 0l11 -11c2 -2 2 -5 0 -7l-84.29 -84.29c38.21 -41.7803 61.29 -97.4707 61.29 -158.711c0 -60.7002 -22.6797 -115.95 -60.29 -157.71zM92.501 278.999c-1 -117 93 -211 210 -211s211 95 211 211
s-94 211 -211 210c-117 1 -209 -93 -210 -210z" />
    <glyph glyph-name="dollar" unicode="$" horiz-adv-x="549" 
d="M249 383l51.001 -16.9902c101 -34 189 -71 189 -191v-10c0 -105.54 -90.4697 -176.05 -210 -177.97v-122.04c0 -3 -2 -5 -5 -5h-15c-3 0 -5 2 -5 5v122.16c-72.9502 2.34961 -137.66 29.7998 -174 50.8398c-4 2 -6 5 -6 10v13c0 3 3 4 5 3c45 -25 105 -53 186 -53h8
c109 0 191 62 191 160v4c0 105 -75 134 -176 168l-51 17c-108 36 -177 82 -177 174v11c0 105.46 97.25 165.15 194 167.9v122.1c0 3 2 5 5 5h15c3 0 5 -2 5 -5v-122.1c66.8496 -1.73047 127.449 -24.7402 163.999 -45.9004c4 -2 6 -5 6 -10v-13c0 -3 -3 -4 -5 -3
c-45 25 -100 48 -174 48h-8c-86 0 -177 -51 -177 -150v-5c0 -77 56 -115 164 -151z" />
    <glyph glyph-name="Euro" unicode="&#x20ac;" horiz-adv-x="670" 
d="M443 689h-8c-125.92 0 -241.97 -84.2598 -253.979 -257h298.98c3 0 5 -2 5 -5v-14c0 -3 -2 -5 -5 -5h-299.96c-0.0195312 -1.99023 -0.0390625 -3.99023 -0.0390625 -6v-104c0 -2.00977 0.0195312 -4.00977 0.0390625 -6h299.96c3 0 5 -2 5 -5v-14c0 -3 -2 -5 -5 -5
h-298.98c12.0098 -172.75 128.06 -257 253.979 -257h8c72 0 127 23 172 48c2 1 5 0 5 -3v-13c0 -5 -2 -8 -6 -10c-38 -22 -102 -46 -170 -46h-10c-140.1 0 -268.229 94.8398 -278.359 281h-110.64c-3 0 -5 2 -5 5v14c0 3 2 5 5 5h110v116h-110c-3 0 -5 2 -5 5v14
c0 3 2 5 5 5h110.64c10.1299 186.15 138.26 281 278.359 281h10c68 0 132 -24 170 -46c4 -2 6 -5 6 -10v-13c0 -3 -3 -4 -5 -3c-45 25 -100 48 -172 48z" />
    <glyph glyph-name="sterling" unicode="&#xa3;" horiz-adv-x="542" 
d="M94 24h392.991c3 0 5 -2 5 -5v-14c0 -3 -2 -5 -5 -5h-415c-3 0 -5 2 -5 5v9c0 3 0 6 2 10c28 56 58 110 58 210c0 28.9199 -2.69043 55.3301 -6.43066 81h-75.5703c-3 0 -5 2 -5 5v14c0 3 2 5 5 5h71.79c-8.34961 49.9902 -18.79 99.1904 -18.79 161v11
c0 122 86 202 201 202h10c70 0 123 -24 161 -46c4 -2 6 -5 6 -10v-13c0 -3 -3 -4 -5 -3c-45 25 -89 48 -163 48h-8c-102 0 -177 -71 -177 -184v-5c0 -64.46 10.9297 -111.96 19.3701 -161h239.64c3 0 5 -2 5 -5v-14c0 -3 -2 -5 -5 -5h-235.79
c3.40039 -23.3799 5.79004 -47.75 5.79004 -75c0 -94.5801 -23 -152 -58 -216z" />
    </font>
</defs>
</svg>
